<svg id="グループ_2371" data-name="グループ 2371" xmlns="http://www.w3.org/2000/svg" width="280.512" height="181.01" viewBox="0 0 280.512 181.01">
  <g id="グループ_2366" data-name="グループ 2366" transform="translate(54.951 57.328)">
    <g id="グループ_2363" data-name="グループ 2363" transform="translate(0 0.58)">
      <path id="パス_7980" data-name="パス 7980" d="M-625.689,1608.414h-14.83v-22.245h3.708v18.537h11.122Z" transform="translate(653.924 -1586.168)" fill="#980e1a"/>
      <path id="パス_7981" data-name="パス 7981" d="M-599.44,1608.414h-14.83v-22.245h14.83v3.708h-11.123v5.561H-605v3.708h-5.562v5.56h11.123Z" transform="translate(645.472 -1586.168)" fill="#980e1a"/>
      <path id="パス_7982" data-name="パス 7982" d="M-573.192,1589.876h-5.562v18.537h-3.707v-18.537h-5.562v-3.708h14.83Z" transform="translate(637.02 -1586.168)" fill="#980e1a"/>
      <path id="パス_7983" data-name="パス 7983" d="M-539.288,1604.706l-3.708,3.708h-7.415l-3.707-3.708v-1.854h3.707v.334l1.521,1.52h4.374l1.52-1.52v-2.52l-1.52-1.52h-5.9l-3.707-3.708v-5.561l3.707-3.708H-543l3.708,3.708v1.854H-543v-.333l-1.52-1.52h-4.374l-1.521,1.52v2.521l1.521,1.52H-543l3.708,3.708Z" transform="translate(626.102 -1586.168)" fill="#980e1a"/>
      <path id="パス_7984" data-name="パス 7984" d="M-497.728,1604.706l-3.856,3.708h-7.267l-3.707-3.708v-14.829l3.707-3.708h7.415l3.708,3.708v1.854h-3.708v-.333l-1.52-1.52h-4.375l-1.52,1.52v11.789l1.52,1.52h4.375l1.52-1.52V1601h-1.854v-3.708h5.562Z" transform="translate(612.719 -1586.168)" fill="#980e1a"/>
      <path id="パス_7985" data-name="パス 7985" d="M-471.48,1608.414h-14.83v-22.245h14.83v3.708H-482.6v5.561h5.561v3.708H-482.6v5.56h11.122Z" transform="translate(604.267 -1586.168)" fill="#980e1a"/>
      <path id="パス_7986" data-name="パス 7986" d="M-445.231,1589.876h-5.562v18.537H-454.5v-18.537h-5.561v-3.708h14.83Z" transform="translate(595.814 -1586.168)" fill="#980e1a"/>
      <g id="グループ_2368" data-name="グループ 2368" transform="translate(0 35.806)">
        <path id="パス_7987" data-name="パス 7987" d="M-403.67,1589.876h-5.562v18.537h-3.708v-18.537H-418.5v-3.708h14.83Z" transform="translate(418.5 -1586.168)" fill="#980e1a"/>
        <path id="パス_7988" data-name="パス 7988" d="M-377.421,1608.414h-3.708v-9.268h-7.414v9.268h-3.708v-22.245h3.708v9.269h7.414v-9.269h3.708Z" transform="translate(410.047 -1586.168)" fill="#980e1a"/>
        <path id="パス_7989" data-name="パス 7989" d="M-351.172,1608.414H-366v-22.245h14.83v3.708h-11.122v5.561h5.561v3.708h-5.561v5.56h11.122Z" transform="translate(401.595 -1586.168)" fill="#980e1a"/>
      </g>
      <g id="グループ_2369" data-name="グループ 2369" transform="translate(61.613 35.806)">
        <path id="パス_7990" data-name="パス 7990" d="M-309.611,1608.414h-3.708v-9.268h-7.415v9.268h-3.708v-22.245h3.708v9.269h7.415v-9.269h3.708Z" transform="translate(324.442 -1586.168)" fill="#980e1a"/>
        <path id="パス_7991" data-name="パス 7991" d="M-283.362,1604.706l-3.856,3.708h-7.267l-3.707-3.708v-14.829l3.707-3.708h7.415l3.708,3.708Zm-3.708-1.52V1591.4l-1.52-1.52h-4.375l-1.52,1.52v11.789l1.52,1.52h4.375Z" transform="translate(315.989 -1586.168)" fill="#980e1a"/>
        <path id="パス_7992" data-name="パス 7992" d="M-257.113,1604.706l-3.708,3.708h-7.415l-3.707-3.708v-18.537h3.707v17.017l1.52,1.52h4.375l1.52-1.52v-17.017h3.708Z" transform="translate(307.537 -1586.168)" fill="#980e1a"/>
        <path id="パス_7993" data-name="パス 7993" d="M-230.864,1604.706l-3.708,3.708h-7.415l-3.707-3.708v-1.854h3.707v.334l1.52,1.52h4.375l1.52-1.52v-2.52l-1.52-1.52h-5.9l-3.707-3.708v-5.561l3.707-3.708h7.415l3.708,3.708v1.854h-3.708v-.333l-1.52-1.52h-4.375l-1.52,1.52v2.521l1.52,1.52h5.9l3.708,3.708Z" transform="translate(299.084 -1586.168)" fill="#980e1a"/>
        <path id="パス_7994" data-name="パス 7994" d="M-204.615,1608.414h-14.83v-22.245h14.83v3.708h-11.123v5.561h5.561v3.708h-5.561v5.56h11.123Z" transform="translate(290.631 -1586.168)" fill="#980e1a"/>
      </g>
    </g>
    <g id="グループ_2364" data-name="グループ 2364" transform="translate(67.515 0)">
      <path id="パス_7995" data-name="パス 7995" d="M-560.709,1589.656v-2.342l2.59-2v4.343Z" transform="translate(560.709 -1585.313)" fill="#980e1a"/>
    </g>
    <g id="グループ_2370" data-name="グループ 2370" transform="translate(154.966 36.055)">
      <path id="パス_7996" data-name="パス 7996" d="M-182.024,1601.185h-3.108l-.982-15.5h5.073Zm-3.742,7.072v-4.217h4.375v4.217Z" transform="translate(186.114 -1585.68)" fill="#980e1a"/>
      <path id="パス_7997" data-name="パス 7997" d="M-166.73,1601.185h-3.108l-.982-15.5h5.073Zm-3.742,7.072v-4.217h4.375v4.217Z" transform="translate(181.189 -1585.68)" fill="#980e1a"/>
    </g>
  </g>
  <path id="パス_7998" data-name="パス 7998" d="M141.845,279.983h.528a38.552,38.552,0,0,0-2.115-9.527V267.81h-.53v-3.176H139.2v-3.706h-.53v-6.35c0-7.626.979-12.1,4.763-15.879l1.059-1.587,2.117-.53v-.528h1.059v-.53l5.293-.528v.528h3.7v.53l3.176.528v.53H160.9v.528h1.589v.53h1.058v.528H164.6l.528,1.059,3.176,1.059.528,1.059H169.9l.53,1.058h1.059l.528,1.059h1.059l.53,1.059a10.431,10.431,0,0,0,3.7,1.587v.53c.981.336.753-.31,1.059-.53h.53l-.53-1.587h-.528v-1.059h-.53v-1.059l-1.059-.528v-1.059l-1.059-.53v-1.059l-1.059-.528v-1.059l-1.058-.53-.529-2.117L171.484,235v-1.059l-1.059-.53V232.35l-1.058-.53v-1.059l-1.059-.528-.53-1.589h-.528l-.53-2.117L165.663,226l-.53-2.117-1.058-.53-1.059-3.176-1.059-.528v-1.059l-1.059-1.059V216.47h-.528v-1.059h-.53v-1.059l-1.059-.528-.528-2.117h-.53l-.528-2.117h-.53V208h-.528v-1.059h-.53l-1.059-3.174h-.528V202.18h-.528v-1.059h-.53l-.528-3.176h-.53v-1.059h-.528V194.77h-.53v-1.587a18.459,18.459,0,0,1-1.059-9.527h.53v-.528h3.176v.528c.464.168,4.233,1.058,4.233,1.058v-.528h.53a15.006,15.006,0,0,0-2.117-3.176l-1.059-.528v-1.059l-1.587-1.059v-1.059l-1.059-.53-.53-2.117c-4.065-7.5-6.353-14.738-6.352-26.464v-9.526h.53v-3.706h.528v-3.176h.53V129.67h.528v-2.115h.53v-1.589h.528v-1.587h.53V122.79h.528l1.059-3.176h.53v-1.059h.528V117.5h.53l.528-2.115,1.059-.53v-1.059l1.587-1.059v-1.059l1.059-.528c1.277-1.353,4.3-4.029,4.765-5.823l-6.352.53v-.53H153.49V104.8h-.53l-.528-2.646h-.53c-.527-1.662.277-4.429.53-5.293V93.681h.528V91.563h.53V89.446h.528V87.859h.528V86.27h.53V84.683h.528V83.625h.53V82.036h.528V80.977h.53V79.39h.528l1.059-3.176h.53V75.156h.528V74.1h.53q1.851-4.234,3.7-8.469l1.058-.528,1.059-3.176h.528l.53-1.587,1.059-.53.528-2.117h.53L169.9,56.1l1.059-.53V54.514l1.059-.528V52.927h.53l.529-1.589,1.058-.528V49.751l1.589-1.059V47.634l1.059-.528.528-1.589h.53V44.458l1.587-1.059a20.364,20.364,0,0,0,1.587-4.234c-3.506.277-5.023,1.9-7.408,3.176l-2.117.53V43.4l-2.117.53v.528h-1.589v.53h-1.058v.528l-3.7.53v.528c-2.476.815-9.348.213-10.584-1.059-2.3-.613-3.161-2.37-4.234-4.234h-.53l-.528-2.117h-.53l-.528-4.233h-.53v-9h.53V21.7h.528V19.053h.53V16.408h.528V14.29h.53V12.7h.528V10.586h.53V9h.528V6.88h.53l.528-3.7h.53a6.737,6.737,0,0,0-.53-2.647c-2.359,1.385-3.242,3.57-4.763,5.823l-1.059.528V7.939l-1.059.53V9.528l-1.059.528-.53,1.589L140.786,12.7V13.76l-1.059.53-.528,1.587-2.117,1.589c-6.621,9.216-15.372,17.527-27.522,21.17-2.98.895-6.548-.4-9-.53q-2.913-2.115-5.823-4.233V32.815l-1.587-1.059V30.7l-1.058-.53-.53-2.117h-.528l-1.589-4.763h-.528c-.64-1.306-1.063-2.491-1.587-3.7l-1.059.528c-1.253,6.959-2.664,15.191-7.94,17.995H76.745v.53H75.158v.528c-2.608.828-9.412-.393-11.116-1.059v-.528H62.454V37.05H61.4v-.53H59.809v-.528l-2.117-.53v-.528H56.633l-.53-1.059-3.176-1.059L52.4,31.756H51.34L50.81,30.7H49.751l-1.057-1.589H47.636l-1.059-1.587H45.518L43.4,24.875H42.343l-4.235-4.763L31.757,14.29V13.232l-3.176-2.646V9.528L25.935,7.41V6.352L23.818,4.763V3.7L20.114.528V0H19.055l.528,4.234h.53V5.293h.528V6.88h.53l.528,3.176h.53v1.059h.528l.53,3.176h.528v1.587h.528v1.589h.53v1.587H25.4v1.589h.53v2.117h.528v1.587h.53v2.117h.528v2.646h.53v2.647h.528v3.176c.468,1.6,1.2,10.945.53,13.232l-2.117,5.821h-.53L24.877,56.1c-6.831,1.172-8.45-.364-12.7-3.176H11.115l-.528-1.059H9.528L8.469,50.281H7.41l-.528-1.059a6.426,6.426,0,0,0-3.706-1.589c.113,1.336,0,1.864.53,2.647h.529v1.057l1.058.53v1.059l1.589,1.059v1.059L8.469,56.1v1.059l1.589,1.059v1.059l1.057.528.53,1.589h.528v1.059l1.589,1.059V64.57l1.059.53.528,2.117,1.059.528V68.8l1.059.53v1.059H18l.528,2.117,1.059.528V74.1l1.059,1.059v1.059h.53v1.059c3.423,6.393,6.006,11.537,5.821,21.7a7.04,7.04,0,0,0-1.589,2.117c-4.3.764-6.116-.464-10.584-.53v1.059l1.587,1.059L21.7,108.5l1.059.53c5.15,7.261,11.073,23.574,6.88,36.519l-.529,4.234h-.53v1.059h-.528v1.587h-.53l-.528,2.117h-.53l-.528,2.117-1.059.528v1.059l-2.117,1.589V160.9l-1.059.528v.53h-.528l-.53,1.059H19.583L18,165.132c-1.466,1.059-2.074.6-2.647,2.646H23.29a11.553,11.553,0,0,0,2.645,2.117c1.138,6.765.023,10.494-2.117,15.349v1.587H23.29l-.53,2.117h-.528v1.589H21.7l-.528,2.117h-.53v1.059l-1.059.528-1.059,3.176-1.059.528-.528,2.117-1.059.53v1.059h-.53l-.528,1.587-1.059.53v1.059l-1.589,1.059v1.057l-1.059.53v1.059L9,210.119v1.059l-2.117,1.589v1.059l-1.589,1.059v.528l-1.058.53V217l-1.059.528v.53l-1.059.528v1.059H1.589A4.1,4.1,0,0,0,.53,221.763H0v1.587c2.959-.175,4.284-1.294,6.352-2.117l4.763-1.059v-.528H14.29c.887-.259,3.606-1.032,5.293-.528,8.575,2.553,12.169,9.477,12.173,20.64v7.41h-.528v3.7H30.7l-.528,5.293a128.375,128.375,0,0,0-4.235,15.349h.528v.528h1.059l2.117-2.646h.53v-1.059l2.645-2.117v-1.059l3.7-3.176v-1.059l1.589-1.059,3.7-4.232h1.059l2.647-3.176h1.059l1.059-1.589h1.058l.528-1.059,1.587-.528v-.53h1.059l.53-1.059,2.117-.528v-.53l3.176-1.057v-.53h1.587v-.528h1.059v-.53l4.763-.528v-.53l7.41.53c1.23,1.383,4.214,2.2,5.293,3.7,3.3,4.616,4.2,12.281,5.293,19.053,2.749-.785,1.627-1.442,2.646-3.7h.53L86.8,260.4h.53v-1.059h.528v-1.059h.53v-1.059h.528v-1.059h.528l.53-2.117,1.059-.528v-1.059l3.176-2.647,1.058-1.587h1.059l.528-1.059c3.014-1.9,10.128-2.106,13.762-.53v.53l3.176,1.059v.528l2.115.53.53,1.059H117.5l1.587,2.117h1.059l3.706,4.234,2.646,2.117v1.057l2.117,1.589v1.059l1.587,1.059v1.058l1.589,1.059v1.059l1.059.528v1.059l1.059.53.528,1.587h.53c1.978,3.1,3.23,7.673,6.35,9.527v.528h.53Zm-7.41-16.938c-2.132-4.631-6.6-8.737-10.056-12.173l-1.587-2.117h-1.059l-1.589-2.117h-1.059l-.528-1.057-2.117-.53-.53-1.059h-1.058v-.528h-1.057v-.53l-3.176-.528c-10.256-4.036-17.706,1.245-22.229,7.939l-1.059.528v1.059H86.8l-1.059,3.176H84.683c-.14-6.508-5.05-13.313-9.526-15.349l-3.176-.528c-1.57-.56-6.618-1.234-9-.53v.53l-4.232.528v.53H57.161v.528l-3.176,1.059v.53H52.927v.528H51.868v.53l-2.117.528v.53l-1.587.528-.528,1.059H46.577l-.53,1.059-1.587.528-1.589,2.117c-3.408,2.449-6.965,5.229-9,9h-.528c.472-2.274,1.472-4.827,2.117-6.882v-3.176h.528v-4.233h.528v-9h-.528l-.528-5.822c-1.73-5.218-4.55-9.607-9-12.173V217c-1.745-.968-7.946-3-11.115-2.117v.528c-2.189.619-3.344-.376-4.763,1.059H9.528l2.117-2.646h.528v-1.059l1.059-.53v-.528l1.589-1.059V209.59l1.587-1.059v-1.059L18,206.414v-1.059l1.059-.528.528-1.589h.53V202.18l1.059-.528v-1.059l1.059-.53.528-2.117,1.059-.528.528-2.117h.53v-1.059H25.4l1.059-3.176h.53v-1.587h.528V188.42h.53v-1.589h.528v-1.587h.53v-1.589h.529v-1.587h.53v-2.646c2.17-7.118-.417-13.77-6.352-14.821v-.528l2.645-1.589.53-1.587,1.587-1.059v-1.059l1.059-.53.53-1.587H30.7c2.948-4.663,6.52-19.012,4.234-26.994l-.528-5.821h-.53v-1.587h-.528v-1.589h-.53v-1.587h-.528V117.5h-.53v-1.059h-.528l-.53-2.646-1.059-.528-.529-2.117-1.058-.53v-1.059L26.463,108.5v-1.059h-.528l-1.589-2.117c1.353-.528,3.1-.768,4.234-1.587v-.53l1.059-.528.53-1.587H30.7l1.059-5.823h-.528l-.53-7.408H30.17V86.27h-.53V84.683h-.529V83.095h-.53V81.508h-.528V80.449h-.53V78.86h-.528l-1.059-3.174H25.4V74.627h-.528V73.569h-.53V72.51L23.29,71.452V70.393l-1.059-.53-.53-2.117-1.059-.528c-1.368-2.068-2.213-5-4.234-6.352v-.528c3.217.359,7.786,1.8,10.056-.53,1.706-.451,1.644-1.1,2.647-2.117,6.169-6.237,5.663-20.774,2.646-30.168V25.4h-.528V23.288H30.7V21.7H30.17l-.53-3.176h-.529V17.466c3.059,1.815,4.938,5.474,7.409,7.939l2.117,1.587v.53H39.7L42.343,30.7l1.587.528,1.059,1.589h1.059L47.105,34.4h1.059l.53,1.059,1.587.53v.528l2.117.53.528,1.057,11.114,4.765h2.647c4.629,1.406,10.6.742,14.29-1.589l.528-1.059h1.058l1.059-1.059V38.106l1.589-1.057V35.991h.528l.53-2.117H86.8l.53-3.176h.528c.319-1.057-.074-.457.53-1.059a21.818,21.818,0,0,0,2.646,5.821h.528a5.623,5.623,0,0,1,1.589,2.646A5.8,5.8,0,0,1,95.8,39.7v.528h1.058l.53,1.059,6.88,2.117H108.5v-.528h3.176v-.53l4.763-1.059v-.528H117.5v-.53h1.059V39.7h1.059l1.059-1.059h1.058l.528-1.059h1.058l.53-1.059h1.059l1.059-1.587h1.059l2.646-3.176h1.058l1.059-1.589,3.7-3.176V25.933l3.176-2.646V22.229l2.117-1.587V19.583l1.587-1.059V17.466h.53c-1.6,8.284-3.129,15.43,0,23.288v1.587h.528V43.4l1.059.53v1.059l2.647,2.117,1.587,2.117h1.059a15.924,15.924,0,0,0,13.762,1.059h1.587v-.53h1.587v-.528c1.713-.683,2.664-.366,3.706-1.589h.529a5.968,5.968,0,0,1-1.587,2.647h-.53v1.057l-1.059.53v1.059l-1.587,1.059v1.059l-1.059.528v1.059l-1.058.53-.529,1.587h-.53l-.528,2.117-1.059.53-.53,1.587h-.528v1.059L159.311,65.1v1.059h-.53v1.059l-1.059.528-1.059,3.176h-.528L155.077,74.1h-.53l-.528,2.646h-.528V77.8h-.53V79.39h-.528v1.059h-.53v1.587h-.528v1.589h-.53v1.587h-.528V86.8h-.53c-1.353,3.423-3.219,15.375-.528,17.995a4.871,4.871,0,0,0,4.763,3.7c-.749,1.281-1.991,1.734-2.646,2.647v1.059l-1.589,1.059v1.059l-1.059.528v1.059l-1.059.528-.528,2.117h-.53l-.528,2.117h-.53v1.589c-4.067,9.254-6.9,25.954-3.176,38.106v2.647h.53l.528,3.7h.53v1.587h.528l.53,2.647h.528l.53,2.117h.528l.53,2.117,1.059.528v1.059l1.059.53v1.059h.528l.53,1.587h-1.589v.53c-1.283.325-1.164.559-2.117,1.057l-.528,2.647h-.53c-1.133,3.655.853,9.477,1.589,11.643l1.059,5.293h.528v1.059h.53v1.589h.528v1.059h.53v1.587h.528v1.059h.53l.528,2.646h.53l1.059,3.176h.528v1.059h.528v1.059h.53v1.059l1.059,1.059v1.059l1.059.53,1.059,3.174,1.059.53.528,2.117,1.059.528.53,2.117,1.059.53c1.528,2.308,2.423,5.427,4.763,6.88v.528c-1.853-.436-2.859-1.385-4.234-2.117h-1.059v-.528H160.9v-.528h-1.587v-.53h-2.117v-.528h-2.117v-.53c-1.985-.609-5.7.16-6.88.53l-3.706.528v.53h-1.059l-.528,1.057h-1.059l-.53,1.059-3.174,2.648v1.058l-1.059.528-.53,2.117h-.528v1.589h-.53v1.587h-.528v2.646c-.559,1.813-1.825,6.746-1.059,9.528h.528c.474,1.747-.464,3.678.53,4.763v2.117Z" transform="translate(280.512 0) rotate(90)" fill="#980e1a" fill-rule="evenodd"/>
</svg>
