<svg xmlns="http://www.w3.org/2000/svg" width="158.093" height="203.045" viewBox="0 0 158.093 203.045">
  <g id="グループ_2344" data-name="グループ 2344" transform="matrix(0.966, -0.259, 0.259, 0.966, -633.325, -122.522)">
    <g id="グループ_2343" data-name="グループ 2343" transform="translate(613.189 348.096)">
      <g id="グループ_2342" data-name="グループ 2342">
        <path id="パス_7886" data-name="パス 7886" d="M633.716,343.736c-.217.014-.246.045-.448.26a18.5,18.5,0,0,1-2.386,2.256v7.708h-1.807V347.6a25.9,25.9,0,0,1-3.643,2.053l-1.259-1.288a22.435,22.435,0,0,0,8.386-6.145l1.259,1.042c.058.043.246.23.246.346S634.005,343.723,633.716,343.736Z" transform="translate(-602.52 -341.713)" fill="#980e1a" stroke="#980e1a" stroke-miterlimit="10" stroke-width="0.25"/>
        <path id="パス_7887" data-name="パス 7887" d="M624.208,365.513V363.88h4.4v-5.856h-3.267v-1.635h8.459v1.635H630.44v5.856h4.41v1.634Z" transform="translate(-602.513 -338.799)" fill="#980e1a" stroke="#980e1a" stroke-miterlimit="10" stroke-width="0.25"/>
        <path id="パス_7888" data-name="パス 7888" d="M633.589,378.966c-.563.752-1.3.939-2.936.955l-.825-1.866a11.941,11.941,0,0,0,1.476.159.919.919,0,0,0,.911-.4c.563-.752.939-3.066,1-5.206h-2.963a13.488,13.488,0,0,1-1.389,3.875,9.478,9.478,0,0,1-3.456,3.558l-1.46-1.157a8.446,8.446,0,0,0,3.341-3.123,9.525,9.525,0,0,0,1.172-3.153h-3.963v-1.591h4.193a23.992,23.992,0,0,0,.072-2.862l1.707.145c.389.029.4.1.4.188,0,.072-.014.087-.158.216s-.131.145-.131.347a18.8,18.8,0,0,1-.1,1.966h4.54C634.934,375.625,634.152,378.2,633.589,378.966Z" transform="translate(-602.567 -336.381)" fill="#980e1a" stroke="#980e1a" stroke-miterlimit="10" stroke-width="0.25"/>
        <path id="パス_7889" data-name="パス 7889" d="M634.228,385.994a12.474,12.474,0,0,1-1.736,4.251,13.125,13.125,0,0,1-3.354,3.341l-1.4-1.215a9.3,9.3,0,0,0,4.843-7.491h-6.491v2.965h-1.664v-4.5h4.164v-2.428l1.532.087c.3.014.477.072.477.2,0,.028-.015.072-.1.159-.116.116-.145.159-.145.23v1.749h2.588a.948.948,0,0,0,.521-.23l1.229,1.1A5.406,5.406,0,0,0,634.228,385.994Z" transform="translate(-602.469 -333.755)" fill="#980e1a" stroke="#980e1a" stroke-miterlimit="10" stroke-width="0.25"/>
        <path id="パス_7890" data-name="パス 7890" d="M627.791,401.038c-.187.057-.216.072-.245.13a13.035,13.035,0,0,1-2.487,2.862l-1.474-.926a10.333,10.333,0,0,0,2.905-3.253l1.2.781c.043.029.276.174.276.289C627.966,400.994,627.865,401.024,627.791,401.038Zm2.661-2.371v5.539c0,1.415-.433,1.56-2.775,1.6l-.551-1.678a6.987,6.987,0,0,0,1.144.117c.476,0,.577-.117.577-.479v-5.1h-4.222v-1.518h4.222v-2.617l1.534.187c.332.045.389.131.389.2s-.058.116-.2.2c-.043.043-.116.088-.116.159v1.866H634.6v1.518Zm3.5,5.076a10.7,10.7,0,0,0-2.285-2.994l1.113-.968a13.664,13.664,0,0,1,2.444,2.934Zm.347-7.375a5.124,5.124,0,0,0-1.143-1.23l.694-.65a6.676,6.676,0,0,1,1.2,1.185Zm1.517-1.143a6.085,6.085,0,0,0-1.243-1.272l.694-.65a6.956,6.956,0,0,1,1.244,1.286Z" transform="translate(-602.641 -331.209)" fill="#980e1a" stroke="#980e1a" stroke-miterlimit="10" stroke-width="0.25"/>
        <path id="パス_7891" data-name="パス 7891" d="M629.918,408.232c-.044.029-.16.117-.16.174v9.759h-1.952V407.582l1.808.187c.346.03.476.1.476.233C630.091,408.073,630.047,408.146,629.918,408.232Z" transform="translate(-601.773 -328.273)" fill="#980e1a" stroke="#980e1a" stroke-miterlimit="10" stroke-width="0.25"/>
        <path id="パス_7892" data-name="パス 7892" d="M633.716,421.5c-.217.014-.246.043-.448.26a18.507,18.507,0,0,1-2.386,2.256v7.708h-1.807v-6.363a25.773,25.773,0,0,1-3.643,2.053l-1.259-1.286a22.425,22.425,0,0,0,8.386-6.146l1.259,1.043c.058.043.246.23.246.346S634.005,421.482,633.716,421.5Z" transform="translate(-602.52 -325.724)" fill="#980e1a" stroke="#980e1a" stroke-miterlimit="10" stroke-width="0.25"/>
        <path id="パス_7893" data-name="パス 7893" d="M609.956,345.8c-.245.074-.245.074-.331.246-.159.3-.26.521-.55,1,.174.029.376.072.376.245a.311.311,0,0,1-.145.218.368.368,0,0,0-.159.275v6.782H607.76v-5.611c-.1.13-.275.333-.463.549l-1.084-1.142a10.838,10.838,0,0,0,2.5-3.658l1.157.679c.116.074.2.159.2.26C610.073,345.761,610.016,345.788,609.956,345.8Zm-.331-2.92c-.043.014-.26.058-.289.1a14.475,14.475,0,0,1-1.764,2.169l-1.128-.926a11.684,11.684,0,0,0,1.966-2.428l1.1.679a.32.32,0,0,1,.2.26A.159.159,0,0,1,609.625,342.883Zm3.542,2.531v.52H615v4.353h-1.837v.592h1.908v1.157h-1.908v.577c.579-.057,1.1-.1,2.2-.259l-.2,1.113c-.593.087-.723.116-1.794.26-.462.072-1.923.232-2.487.288-.505.058-.564.074-.665.2-.028.014-.116.146-.2.146-.13,0-.16-.189-.174-.26l-.159-1.186c.9-.058,1.648-.13,2.2-.174v-.708h-1.836v-1.157h1.836v-.592h-1.836v-4.353h1.836v-.52H610.1v-1.288h1.779v-.55c-.463.014-.868.03-1.4.014L610,342.246a8.326,8.326,0,0,0,1.215.087,12.807,12.807,0,0,0,3.209-.362l.608,1.013a.473.473,0,0,1,.074.217c0,.043-.016.145-.1.145-.059,0-.262-.074-.377-.1-.115.028-.418.086-.563.116-.217.043-.535.071-.9.115v.651h2.371v1.288Zm-1.286,1.576h-.738v.65h.738Zm0,1.59h-.738v.723h.738Zm2-1.59h-.709v.65h.709Zm0,1.59h-.709v.723h.709Zm4.106-1.3v5.451c0,1.62-.289,1.807-2.082,1.823l-.391-1.563a6.387,6.387,0,0,0,.694.043c.362,0,.389-.116.389-.491v-5.264h-1.214V345.8h3.485v1.476Zm-2.457-3.442v-1.46h3.282v1.46Z" transform="translate(-606.213 -341.799)" fill="#980e1a" stroke="#980e1a" stroke-miterlimit="10" stroke-width="0.25"/>
        <path id="パス_7894" data-name="パス 7894" d="M613.716,365.923v.854c0,.737-.839.852-2.27.868l-.65-1.36a8.153,8.153,0,0,0,.838.072c.3,0,.3-.087.3-.434h-5.508v-.9h5.508v-.42h-4.67v-.9h4.67v-.347c-1.894.029-2.342.029-3.934-.014l-.52-1.04c1.1.071,2.327.159,3.572.159a21.045,21.045,0,0,0,4.857-.506l.752.752a.536.536,0,0,1,.172.288.1.1,0,0,1-.1.1c-.057,0-.332-.086-.4-.086a2.266,2.266,0,0,0-.376.043c-.419.071-1.114.159-2.241.245v.405H618.2v.9h-4.482v.42h5.19v.9Zm4.482-3.138a9.831,9.831,0,0,1-2.444-1.113,10.1,10.1,0,0,1-2.283.55l-.493-.637h-2.471v.622h-1.4v-.622h-2.616v-1.013H609.1v-.433h-2.126V356.9H609.1v-.418h-2.588v-.926H609.1v-.665l1.272.045c.087,0,.421.013.421.187,0,.1-.074.145-.131.188-.145.086-.158.1-.158.246h2.661v.926h-2.661v.418h2.124v3.239h-2.124v.433h2.6v.536a4.586,4.586,0,0,0,1.575-.2,5.222,5.222,0,0,1-.78-.84l.767-.346h-1.519v-1.013h.506l-.954-.838c1.1-.68,1.1-1.071,1.055-2.661H617.2v1.577c0,.274.058.317.2.317h.26c.175,0,.232-.116.3-.8l1.1.479c-.058.635-.26,1.6-1.084,1.6h-1.417c-.506,0-.622-.2-.622-.665V356.35h-.925a2.866,2.866,0,0,1-1.186,2.357h4.251l.506.477a8.321,8.321,0,0,1-1.72,1.865,7.41,7.41,0,0,0,2.283.55Zm-9.1-5.06h-.983v.463h.983Zm0,1.113h-.983v.463h.983Zm2.415-1.113h-1.012v.463h1.012Zm0,1.113h-1.012v.463h1.012Zm3.457.883a3.209,3.209,0,0,0,.78.665,3.532,3.532,0,0,0,.794-.665Z" transform="translate(-606.169 -339.107)" fill="#980e1a" stroke="#980e1a" stroke-miterlimit="10" stroke-width="0.25"/>
        <path id="パス_7895" data-name="パス 7895" d="M617.582,377.068a6.972,6.972,0,0,1-3.37,2.546l-1.068-1.49a4.876,4.876,0,0,0,2.6-1.547,4.526,4.526,0,0,0,1.041-2.878,3.4,3.4,0,0,0-1.041-2.529,3.7,3.7,0,0,0-2.458-.969,20.531,20.531,0,0,1-1.793,6.434c-.434.9-1.1,2.111-1.852,2.111a4.115,4.115,0,0,1-2.891-3.891,6.237,6.237,0,0,1,6.377-6.131,5.11,5.11,0,0,1,5.379,5.265A5.4,5.4,0,0,1,617.582,377.068ZM609.8,371.5a4.741,4.741,0,0,0-1.447,3.211c0,1.171.666,1.778.926,1.778.752,0,2-3.774,2.285-6.029A4.268,4.268,0,0,0,609.8,371.5Z" transform="translate(-606.102 -336.263)" fill="#980e1a" stroke="#980e1a" stroke-miterlimit="10" stroke-width="0.25"/>
        <path id="パス_7896" data-name="パス 7896" d="M617.937,389.481v2.14h-1.518v-.391h-2.965v1.04c0,.84-.362,1.215-2.386,1.23l-.723-1.576c.377.029.782.072,1.027.072s.448-.072.448-.332v-.435h-4.41V390.1h4.41v-.622h-5.249v-1.128h5.249v-.55h-4.41v-1.126h4.41v-.55h-3.557v-2.661h3.557v-.506h-5.249v-1.243h5.249v-.954l1.706.216c.072.014.174.043.174.13s-.029.1-.158.2a.148.148,0,0,0-.088.13v.275h5.235v1.243h-5.235v.506H617v2.661h-3.543v.55h4.482v1.676h.81v1.128Zm-6.116-5.032h-2.082v.694h2.082Zm3.687,0h-2.053v.694h2.053Zm.911,3.354h-2.965v.55h2.965Zm0,1.678h-2.965v.622h2.965Z" transform="translate(-606.139 -333.787)" fill="#980e1a" stroke="#980e1a" stroke-miterlimit="10" stroke-width="0.25"/>
        <path id="パス_7897" data-name="パス 7897" d="M617.127,398.143v-1.764h-3.672v1.1h2.921v1.186h-2.921v.723h3.86v1.243h-3.933c-.042.288-.072.42-.13.751h5.32v1.244h-4.64a3.289,3.289,0,0,0,1.344,1.2,10.95,10.95,0,0,0,3.225,1.027l-.752,1.4a7.776,7.776,0,0,1-3.05-1.084,6.863,6.863,0,0,1-2.141-1.939,5.1,5.1,0,0,1-1.994,1.952A9.532,9.532,0,0,1,607.5,406.2l-.926-1.3c2.82-.362,3.731-1.215,4.5-2.27h-4.338v-1.244h4.859a4.052,4.052,0,0,0,.13-.751h-3.774v-1.243h3.817v-.723h-2.892v-1.186h2.878c0-.549,0-.579-.029-1.1h-3.5v1.836h-1.489v-3.124h5.047V393.95l1.735.145c.246.014.332.043.332.145,0,.058-.042.1-.129.174-.029.014-.145.1-.145.188v.491h5.061v3.051Z" transform="translate(-606.139 -331.076)" fill="#980e1a" stroke="#980e1a" stroke-miterlimit="10" stroke-width="0.25"/>
      </g>
    </g>
    <path id="パス_7898" data-name="パス 7898" d="M662.912,490.058h.338a24.631,24.631,0,0,0-1.352-6.087v-1.69h-.339v-2.029h-.338v-2.368h-.339v-4.057c0-4.872.626-7.728,3.043-10.145l.676-1.014,1.353-.339v-.338h.676v-.339l3.382-.338v.338h2.367v.339l2.029.338v.339h.676v.338H676.1v.339h.676v.338h.676l.337.676,2.029.676.338.676h.676l.339.676h.677l.338.676h.676l.339.676a6.664,6.664,0,0,0,2.367,1.014v.339c.627.215.481-.2.676-.339h.339l-.339-1.014h-.338v-.676h-.339v-.676l-.676-.338v-.676l-.676-.339v-.676l-.676-.338v-.676l-.676-.339-.338-1.353-.676-.338v-.676l-.677-.339v-.675l-.676-.339v-.676l-.676-.338-.339-1.015h-.338L678.8,455.9l-.675-.338-.339-1.353-.676-.339-.676-2.029-.676-.338v-.676l-.676-.676v-.676h-.338V448.8h-.339v-.676l-.676-.338-.338-1.353h-.339l-.338-1.353h-.339v-1.015h-.338v-.676H671.7l-.676-2.028h-.338V440.35h-.338v-.676h-.339l-.338-2.029h-.339v-.676H669v-1.353h-.339V434.6a11.793,11.793,0,0,1-.676-6.087h.339v-.338h2.029v.338c.3.107,2.7.676,2.7.676v-.338h.339a9.585,9.585,0,0,0-1.353-2.029l-.676-.338v-.676l-1.014-.676v-.676l-.676-.339-.339-1.353c-2.6-4.794-4.059-9.416-4.058-16.908v-6.086h.339V397.4h.338v-2.029h.339v-1.353h.338v-1.351h.339v-1.015h.338v-1.014h.339v-1.015h.338l.676-2.029H669v-.676h.338v-.676h.339l.338-1.351.676-.339v-.676l1.014-.676v-.676l.676-.338c.816-.864,2.745-2.574,3.044-3.721l-4.058.339v-.339h-1.014v-.338h-.339l-.338-1.69h-.339a7.082,7.082,0,0,1,.339-3.382v-2.029h.338v-1.353h.339v-1.353h.338V367.31h.338v-1.015h.339v-1.014h.338V364.6h.339v-1.015h.338v-.676h.339V361.9h.338l.676-2.029h.339v-.676h.338v-.676h.339l2.367-5.411.676-.338.676-2.029h.338l.339-1.014.676-.339.338-1.353h.339l.338-1.014.676-.339v-.676l.676-.338v-.676h.339l.338-1.015.676-.338v-.676l1.015-.676v-.676l.676-.338.338-1.015h.339v-.676l1.014-.676a13.011,13.011,0,0,0,1.014-2.705c-2.24.177-3.209,1.215-4.733,2.029l-1.353.339v.338l-1.353.339v.338h-1.015v.339H678.8v.338l-2.367.339v.338c-1.582.521-5.973.136-6.762-.676-1.468-.392-2.019-1.514-2.705-2.705h-.339l-.338-1.353h-.339l-.338-2.7h-.339v-5.75h.339v-2.7h.338v-1.691h.339v-1.69h.338v-1.353h.339v-1.015h.338V317.94h.339v-1.015h.338v-1.353h.339l.338-2.367H669a4.3,4.3,0,0,0-.339-1.691c-1.507.885-2.071,2.281-3.043,3.721l-.676.338v.676l-.676.339v.676l-.676.338-.339,1.015-1.014.675v.676l-.676.339-.338,1.014-1.353,1.015c-4.23,5.888-9.821,11.2-17.584,13.526-1.9.572-4.183-.258-5.748-.339q-1.861-1.351-3.721-2.7v-.676l-1.014-.676v-.676l-.676-.339-.339-1.353h-.338l-1.015-3.043H629.1c-.409-.834-.679-1.591-1.014-2.367l-.676.338c-.8,4.446-1.7,9.705-5.073,11.5H621.32v.339h-1.014v.338c-1.666.529-6.014-.251-7.1-.676v-.338h-1.014v-.338h-.676v-.339H610.5v-.338l-1.353-.339v-.338h-.676l-.339-.676-2.029-.676-.338-.676h-.676l-.339-.676h-.676l-.675-1.015h-.676l-.676-1.014h-.676l-1.353-1.691h-.676l-2.706-3.043-4.058-3.719v-.676l-2.029-1.69v-.676l-1.69-1.353v-.676l-1.353-1.015v-.676l-2.367-2.029v-.338h-.676l.338,2.705h.339v.676h.338v1.014h.339l.338,2.029h.339v.676h.338l.339,2.029h.338v1.014h.338v1.015h.339v1.014h.338v1.015h.339v1.353h.338v1.014h.339v1.353h.338v1.69h.339v1.691h.338v2.029c.3,1.021.769,6.993.339,8.454l-1.353,3.719h-.339l-1.014,1.353c-4.364.749-5.4-.233-8.116-2.029h-.676l-.338-.676h-.676L577.7,343.3h-.676l-.338-.676a4.106,4.106,0,0,0-2.368-1.015c.072.854,0,1.191.339,1.691h.338v.675l.676.339v.676l1.015.676v.676l1.014.676v.676l1.015.676v.676l.675.338.339,1.015h.337v.676l1.015.676v.675l.676.339.338,1.353.676.338v.676l.676.339v.676h.339l.338,1.353.676.338v.676l.676.676v.676h.339v.676c2.187,4.085,3.837,7.371,3.719,13.865a4.5,4.5,0,0,0-1.015,1.353c-2.745.488-3.907-.3-6.762-.339v.676l1.014.676,3.382,3.719.676.339c3.29,4.639,7.075,15.062,4.4,23.332l-.338,2.705h-.339v.676h-.338v1.014h-.339l-.338,1.353h-.339l-.338,1.353-.676.338v.676l-1.353,1.015v.676l-.676.338v.339h-.338l-.339.676H584.8l-1.014,1.353c-.937.676-1.325.386-1.691,1.69h5.073a7.383,7.383,0,0,0,1.69,1.353,14.928,14.928,0,0,1-1.353,9.806v1.014h-.338l-.339,1.353h-.338v1.015h-.339l-.338,1.353h-.339v.676l-.676.338-.676,2.029-.676.338L583.109,439l-.676.339v.676h-.339l-.338,1.014-.676.339v.676l-1.015.676v.675l-.676.339v.676l-1.352,1.014v.676l-1.353,1.015v.676l-1.015.676v.338l-.676.339v.676l-.676.338v.339l-.676.338v.676H573.3a2.62,2.62,0,0,0-.676,1.353h-.339v1.014c1.89-.112,2.737-.827,4.058-1.353l3.043-.676v-.338h2.029a7.218,7.218,0,0,1,3.382-.338c5.478,1.631,7.775,6.055,7.778,13.187v4.734h-.338v2.367H591.9l-.338,3.382a82.019,82.019,0,0,0-2.706,9.807h.338v.338h.676l1.353-1.69h.339v-.676l1.69-1.353v-.676l2.367-2.029v-.676l1.015-.676L599,474.5h.676l1.691-2.029h.676l.676-1.015h.676l.338-.676,1.014-.338v-.339h.676l.339-.676,1.353-.338v-.339l2.029-.675v-.339h1.014V467.4h.676v-.339l3.043-.338v-.339l4.734.339c.786.884,2.692,1.4,3.382,2.367,2.111,2.949,2.682,7.846,3.382,12.173,1.757-.5,1.039-.921,1.69-2.367h.339l.338-1.353h.339v-.676h.338v-.676h.339v-.676h.338v-.676h.337l.339-1.353.676-.338v-.676l2.029-1.691.676-1.014h.676l.338-.676c1.925-1.213,6.471-1.345,8.793-.339v.339l2.029.676v.338l1.351.339.339.676h.676l1.014,1.353h.676l2.368,2.705,1.69,1.353v.675l1.353,1.015v.676l1.014.676v.676l1.015.676v.676l.676.338v.676l.676.339.338,1.014h.339c1.263,1.981,2.064,4.9,4.057,6.087v.338h.339Zm-4.734-10.822c-1.362-2.959-4.217-5.582-6.425-7.777l-1.014-1.353h-.676l-1.015-1.353h-.676l-.338-.675-1.353-.339-.339-.676h-.676v-.338h-.675v-.339l-2.029-.338c-6.552-2.579-11.312.8-14.2,5.072l-.676.338v.676h-.339l-.676,2.029h-.676c-.089-4.158-3.226-8.506-6.086-9.807l-2.029-.338a13.322,13.322,0,0,0-5.75-.339v.339l-2.7.338v.339h-1.015v.338l-2.029.676v.339H606.1v.338h-.676v.339l-1.353.338v.339l-1.014.338-.338.676h-.676l-.339.676-1.014.338-1.015,1.353c-2.177,1.565-4.45,3.341-5.748,5.75h-.338c.3-1.453.94-3.084,1.353-4.4v-2.029h.338v-2.7h.338v-5.75h-.338l-.338-3.719c-1.106-3.334-2.907-6.138-5.75-7.777v-.338c-1.115-.618-5.077-1.919-7.1-1.353v.338c-1.4.4-2.136-.24-3.043.676h-.676l1.353-1.69h.337v-.676l.676-.339v-.338l1.015-.676v-.676l1.014-.676v-.676l1.015-.676v-.676l.676-.338.338-1.015h.339v-.676l.676-.338v-.676l.676-.339.338-1.353.676-.338.338-1.353h.339v-.676h.338l.676-2.029h.339v-1.014h.338v-.676h.339v-1.015h.338v-1.014h.339v-1.015h.338V427.5h.339v-1.69c1.386-4.548-.266-8.8-4.058-9.469V416l1.69-1.015.339-1.014,1.014-.676v-.676l.676-.339.339-1.014h.338c1.883-2.979,4.165-12.147,2.705-17.246l-.338-3.719h-.339v-1.014h-.338v-1.015h-.339V387.26h-.338v-1.015h-.339v-.676h-.338l-.339-1.69-.676-.338-.338-1.353-.676-.339v-.676l-1.015-.676v-.676h-.338l-1.015-1.353a12.569,12.569,0,0,0,2.705-1.014v-.339l.676-.338.339-1.014h.338l.676-3.721h-.338l-.339-4.733h-.338v-1.015h-.339v-1.014h-.338v-1.015h-.339v-1.014h-.338v-.676h-.339V361.56h-.338l-.676-2.028h-.339v-.676h-.338v-.676h-.339V357.5l-.675-.676v-.676l-.676-.339-.339-1.353-.676-.338c-.874-1.321-1.414-3.192-2.705-4.058v-.338c2.056.229,4.974,1.148,6.425-.339,1.09-.288,1.05-.7,1.691-1.353,3.941-3.985,3.618-13.273,1.69-19.274v-1.353h-.338v-1.353H591.9v-1.014h-.338l-.339-2.029h-.338v-.676c1.954,1.16,3.155,3.5,4.733,5.072l1.353,1.014v.339h.676l1.692,2.029,1.014.338.676,1.015h.676l.676,1.014h.676l.339.676,1.014.339v.338l1.353.339.338.675,7.1,3.044h1.692a11.984,11.984,0,0,0,9.13-1.015l.338-.676h.676l.676-.676v-.676l1.015-.675v-.676h.338l.339-1.353h.338l.339-2.029h.338c.2-.675-.047-.292.339-.676a13.942,13.942,0,0,0,1.69,3.719h.338a3.593,3.593,0,0,1,1.015,1.69,3.707,3.707,0,0,1,1.69,1.015v.338h.676l.339.676,4.4,1.353h2.705v-.338h2.029v-.339l3.043-.676v-.338h.676v-.339h.676v-.338h.676l.676-.676h.676l.338-.676h.676l.339-.676h.676l.676-1.014h.676l1.69-2.029h.676l.676-1.015,2.367-2.029v-.676l2.029-1.69v-.676l1.353-1.014v-.676l1.014-.676v-.676h.339c-1.025,5.293-2,9.858,0,14.879v1.014h.338v.676l.676.339v.676l1.692,1.353,1.014,1.353h.676a10.174,10.174,0,0,0,8.792.676h1.014v-.339H678.8v-.338c1.095-.436,1.7-.234,2.368-1.015h.338A3.813,3.813,0,0,1,680.5,343.3h-.339v.675l-.676.339v.676l-1.014.676v.676l-.676.338v.676l-.676.339-.338,1.014h-.339l-.338,1.353-.676.339-.339,1.014h-.338v.676l-.676.676v.676h-.339v.676l-.676.338-.676,2.029h-.338l-.676,2.029h-.339l-.338,1.69h-.338v.676h-.339V361.9h-.338v.676h-.339v1.014H669V364.6h-.339v1.014h-.338v1.015h-.339c-.865,2.187-2.057,9.823-.338,11.5a3.112,3.112,0,0,0,3.043,2.367c-.479.819-1.272,1.108-1.69,1.691v.676l-1.015.676v.676l-.676.338v.676l-.676.338-.338,1.353h-.339l-.338,1.353h-.339v1.015c-2.6,5.912-4.407,16.582-2.029,24.346v1.691h.339l.338,2.367h.339v1.014h.338l.339,1.691h.338l.339,1.353h.338l.339,1.353.676.338v.676l.676.339v.676h.338l.339,1.014h-1.015v.339c-.82.207-.744.357-1.353.675l-.338,1.691h-.339c-.724,2.335.545,6.055,1.015,7.439l.676,3.382h.338v.676h.339v1.015h.338v.676h.339v1.014h.338v.676H669l.338,1.69h.339l.676,2.029h.338v.676h.338v.676h.339v.676l.676.676v.676l.676.339.676,2.028.676.339.338,1.353.676.338.339,1.353.676.339c.977,1.475,1.548,3.467,3.043,4.4v.338a10.013,10.013,0,0,1-2.705-1.353h-.676v-.338h-.676v-.338h-1.014v-.339h-1.353v-.338h-1.353v-.339a9.835,9.835,0,0,0-4.4.339l-2.368.338v.339h-.676l-.338.675h-.676l-.339.676-2.028,1.691v.676l-.676.338-.339,1.353h-.338v1.015h-.339v1.014h-.338v1.69c-.357,1.159-1.166,4.31-.676,6.087h.338c.3,1.116-.3,2.35.339,3.043v1.353Z" fill="#980e1a" fill-rule="evenodd"/>
  </g>
</svg>
