<svg xmlns="http://www.w3.org/2000/svg" width="598.96" height="19.5" viewBox="0 0 598.96 19.5">
  <path id="パス_8055" data-name="パス 8055" d="M2.98-5.18C4.18-6.56,5.08-7.1,6.22-7.1c.74,0,1.36.24,3.2,1.28C11.4-4.7,12.28-4.4,13.58-4.4a7.183,7.183,0,0,0,2.68-.52A7.131,7.131,0,0,0,19.5-7.68l-2.46-2.58c-1.18,1.54-2.14,2.12-3.48,2.12A5.75,5.75,0,0,1,10.7-9.18a20.017,20.017,0,0,0-1.78-.94,7,7,0,0,0-2.68-.56,6.376,6.376,0,0,0-2.74.6A7.771,7.771,0,0,0,.54-7.54Zm19.4-4.76c.36-.04.46-.04,1.02-.06a66.686,66.686,0,0,0,7.04-.46c.12.22.16.3.34.62a14.5,14.5,0,0,0,1.24,2.1,8.058,8.058,0,0,0-2.74-.4c-2.64,0-4.58.62-5.76,1.86A4.211,4.211,0,0,0,22.36-3.4,4.162,4.162,0,0,0,23.92-.14c1.16.92,3.08,1.38,5.8,1.38A22.013,22.013,0,0,0,35.58.48c.4-.1.56-.12.92-.2L36.06-3.3A15.065,15.065,0,0,1,29.7-1.94c-2.44,0-3.68-.54-3.68-1.6s1.34-1.7,3.58-1.7a10.572,10.572,0,0,1,2.2.2,3.5,3.5,0,0,1,2.14,1.1l3.32-1.34a38.4,38.4,0,0,1-3.42-5.6c.8-.12,1.6-.26,2.5-.44,1.06-.2,1.06-.2,1.64-.28l-.36-3.36a29.278,29.278,0,0,1-4.94,1.1,15.251,15.251,0,0,1-.88-2.82l-3.6.44c.26.56.48,1.1.82,2,.2.52.2.54.3.78a46.446,46.446,0,0,1-5,.28,18.1,18.1,0,0,1-2.2-.1Zm18.78-1.1c1.54-.22,4.8-.4,8.94-.52a3.254,3.254,0,0,1,.02.48v.62a4.517,4.517,0,0,0-1.56-.22c-2.76,0-4.64,1.56-4.64,3.84a3.668,3.668,0,0,0,3.96,3.66,3.65,3.65,0,0,0,2.68-.94,3.313,3.313,0,0,1-1.48,1.58,10.3,10.3,0,0,1-4.12,1.22,9.007,9.007,0,0,1,1.9,3.16A16.164,16.164,0,0,0,50.88.22a6.452,6.452,0,0,0,3.3-5.54,6.361,6.361,0,0,0-.8-3.34v-2.96c.8-.02.94-.02,2-.02a33.325,33.325,0,0,1,3.6.1l-.02-3.28c-.8.08-2.28.12-5.6.14a13.538,13.538,0,0,1,.1-2.04H49.92a11.257,11.257,0,0,1,.14,2.12c-1.86.06-7.24.2-7.78.2-.5,0-.72-.02-1.22-.06ZM48.8-8.16c.8,0,1.32.42,1.32,1.04a1.364,1.364,0,0,1-1.52,1.2A1.184,1.184,0,0,1,47.28-7C47.28-7.68,47.92-8.16,48.8-8.16Zm16.3-5.82a38.785,38.785,0,0,0,8.64,2.62l1.06-3.22c-.94-.14-2.66-.5-4.02-.86a20.163,20.163,0,0,1-4.08-1.42Zm-1.54,1.3a11.635,11.635,0,0,1-.12,1.28c-.4,2.76-.82,5.96-.92,6.92a2.4,2.4,0,0,1-.06.4l3.32.14a3.48,3.48,0,0,1,1.12-.9,8.653,8.653,0,0,1,4.38-1.2c1.8,0,2.84.62,2.84,1.68,0,1.42-1.76,2.36-4.4,2.36a18.562,18.562,0,0,1-5.34-.94A13.873,13.873,0,0,1,64.84.62a21.369,21.369,0,0,0,5.02.6A9.811,9.811,0,0,0,75.58-.22a5.057,5.057,0,0,0,2.26-4.24c0-2.84-2.36-4.7-5.92-4.7A9.978,9.978,0,0,0,66.2-7.6a43.925,43.925,0,0,1,.86-4.86Zm18.02-2.48a14.039,14.039,0,0,1,.08,1.42c.04,2.78.12,4.46.22,5.86.26,3.18.8,5.18,1.84,6.66A3.426,3.426,0,0,0,86.58.5a3.519,3.519,0,0,0,3.04-2.04A16.882,16.882,0,0,0,91.14-5.4a12.652,12.652,0,0,1-2.78-2.52,20.318,20.318,0,0,1-1.04,3.46c-.2.52-.42.78-.64.78-.84,0-1.48-3.38-1.48-7.86a24.945,24.945,0,0,1,.22-3.62ZM91.6-13.04A19.9,19.9,0,0,1,95.68-1.48L99.26-2.8a21.143,21.143,0,0,0-4.62-11.64Zm20.48.66a3.352,3.352,0,0,1,1.68.7,4.706,4.706,0,0,1,1.76,3.94,4.96,4.96,0,0,1-2.4,4.64,10.4,10.4,0,0,1-4.2,1.02,9.827,9.827,0,0,1,1.7,3.28c2.8-.44,4.38-1.08,5.74-2.3a8.606,8.606,0,0,0,2.66-6.46,7.952,7.952,0,0,0-1.96-5.56,8.919,8.919,0,0,0-6.52-2.46,9.563,9.563,0,0,0-7.24,2.94,8.891,8.891,0,0,0-2.3,6.1c0,3.66,1.88,6.22,4.56,6.22,1.82,0,3.16-1.12,4.32-3.68A28.017,28.017,0,0,0,112.08-12.38Zm-3.46.04a25.931,25.931,0,0,1-1.5,6.1c-.6,1.52-1.12,2.22-1.62,2.22-.7,0-1.24-1.12-1.24-2.54a6.471,6.471,0,0,1,2.18-4.76A4,4,0,0,1,108.62-12.34Zm16.1-.68a15.608,15.608,0,0,1-2.78-.16l.02,3.42a20.467,20.467,0,0,1,2.7-.12h2.5a10.6,10.6,0,0,1-1,3.42c-1,2.02-2.54,3.44-5.2,4.84a11.561,11.561,0,0,1,2.6,3.04c4.06-2.68,5.96-5.28,6.84-9.32a17.147,17.147,0,0,0,.3-2h3.82a46.2,46.2,0,0,1-.38,5.58c-.26,1.74-.5,2.06-1.46,2.06a11.456,11.456,0,0,1-2.6-.4,9.844,9.844,0,0,1,.68,3.52,23.424,23.424,0,0,0,2.62.16c2.22,0,3.18-.64,3.76-2.5a47.289,47.289,0,0,0,.84-8.94,2.5,2.5,0,0,1,.28-1.48l-1.56-1.36a2.892,2.892,0,0,1-1.34.22H131c.04-.48.04-.48.06-1.02a14.349,14.349,0,0,1,.22-2.42l-3.76-.1a5.6,5.6,0,0,1,.06,1c0,.62-.04,1.78-.1,2.56Zm27-.54V-14.8a12.268,12.268,0,0,1,.08-1.82h-3.84a13.333,13.333,0,0,1,.12,1.84v1.22H144.5a20.141,20.141,0,0,1-2.5-.12c.06.78.1,1.34.1,2.16v2.78a17.764,17.764,0,0,1-.12,2.2h3.74a19.437,19.437,0,0,1-.08-2.1v-1.78h8.66a8.827,8.827,0,0,1-2.68,5.74c-1.46,1.38-3.4,2.28-6.4,2.96a11.06,11.06,0,0,1,2.24,3.38,20.68,20.68,0,0,0,4-1.74,12.334,12.334,0,0,0,5.14-5.38,16.867,16.867,0,0,0,1.54-5.56,2.548,2.548,0,0,1,.34-1.22l-1.52-1.54a3.5,3.5,0,0,1-1.64.22ZM163.48-9.2a16.619,16.619,0,0,1-3.1,7.78,15.759,15.759,0,0,1,3.3,1.64,20.262,20.262,0,0,0,2.84-6.7c.2-.96.34-1.6.4-1.92Zm9.42.8a5.987,5.987,0,0,1,.3.98A29.014,29.014,0,0,0,176.16.26a26.233,26.233,0,0,1,3.3-1.86,21.474,21.474,0,0,1-3.24-7.64Zm3.66-8.58a14.387,14.387,0,0,1,1.52,2.84l1.86-.6a10,10,0,0,0-1.52-2.78Zm-8.42,3.6h-3.7a18.388,18.388,0,0,1-3.04-.16v3.4a23.829,23.829,0,0,1,3.02-.1h3.72v8.78a18.558,18.558,0,0,1-.14,3h3.82a19.046,19.046,0,0,1-.12-2.96v-8.82h3.86a25.659,25.659,0,0,1,3.08.1v-3.4a19.024,19.024,0,0,1-3.14.16h-3.8v-.74c.02-1.12.04-1.78.1-2.26h-3.78a14.692,14.692,0,0,1,.12,2.22Zm5.46-2.96a11.794,11.794,0,0,1,1.5,2.86l1.98-.6a10.649,10.649,0,0,0-1.52-2.8ZM181.12-5.7c1.22-.1,1.88-.12,4.12-.12h9.52a38.6,38.6,0,0,1,4.12.12V-9.56a32.816,32.816,0,0,1-4.1.18h-9.56a28.341,28.341,0,0,1-4.1-.18Zm33.86-10.88a14.675,14.675,0,0,1-3.64,3.66,28.978,28.978,0,0,1-10.62,5.2,10.739,10.739,0,0,1,1.92,3.22,34.043,34.043,0,0,0,6.54-2.96v5.52a27.172,27.172,0,0,1-.12,3.22h3.88a28.583,28.583,0,0,1-.12-3.24v-7.7a33.525,33.525,0,0,0,4.62-4.02,7.156,7.156,0,0,1,.78-.74ZM233.7-11.3a20.262,20.262,0,0,1,2.72,7.28l3.28-1.56a20.911,20.911,0,0,0-3.06-7.1ZM221.08-8.64a26.361,26.361,0,0,1,3.12-.58,30.578,30.578,0,0,1-3.76,8.86l3.3,1.74c.12-.3.16-.36.32-.74A47.422,47.422,0,0,0,227.6-9.48a7.262,7.262,0,0,1,.8-.04c.7,0,.98.08,1.2.34a2.321,2.321,0,0,1,.38,1.6,17.547,17.547,0,0,1-.54,4.44c-.22.64-.48.9-.9.9a8.633,8.633,0,0,1-2.74-.72,9.495,9.495,0,0,1,.3,2.4A9.078,9.078,0,0,1,226.04.6a11.291,11.291,0,0,0,3.18.52,3.82,3.82,0,0,0,1.56-.28,3.308,3.308,0,0,0,1.28-1.18c.8-1.4,1.26-3.98,1.26-7.1,0-2.26-.4-3.48-1.42-4.3a4.406,4.406,0,0,0-2.84-.8,6.635,6.635,0,0,0-.86.04c.06-.32.2-1.14.38-2.16l.14-.72c.02-.12.04-.3.06-.36a2.07,2.07,0,0,1,.12-.48l-3.62-.34v.34a31.309,31.309,0,0,1-.46,3.94c-1.32.18-3.22.34-3.86.34a.689.689,0,0,1-.18-.02Zm13.76-7.88a13.649,13.649,0,0,1,1.96,2.86l1.84-.9a14.06,14.06,0,0,0-2-2.78Zm-2.76,1.24a12.875,12.875,0,0,1,1.98,2.92l1.9-.92a12.813,12.813,0,0,0-1.98-2.86ZM253.8-.46V.72h3.76a30.189,30.189,0,0,1-.12-3.3V-13.02c0-1,.02-1.34.06-2.04-.58.04-1.14.06-2.22.06H246.1a20.939,20.939,0,0,1-3.5-.18v3.64c.84-.08,1.6-.1,3.44-.1h7.76v7.82h-8a20.677,20.677,0,0,1-3.48-.16V-.34a28.163,28.163,0,0,1,3.42-.12ZM279.12-1.7a46.936,46.936,0,0,0-6.36-5.42,23.584,23.584,0,0,0,2.94-5.4,3.157,3.157,0,0,1,.72-1.18l-1.76-1.8a3.67,3.67,0,0,1-1.6.22l-6.84.1c-.58.02-.96.02-1.12.02a14.817,14.817,0,0,1-2.1-.14l.1,3.56a23.753,23.753,0,0,1,3.18-.2l5.2-.08a16.089,16.089,0,0,1-4.02,5.88,18.861,18.861,0,0,1-6.48,4.04,10.477,10.477,0,0,1,2.24,3.16,21.691,21.691,0,0,0,7.36-5.48,32.156,32.156,0,0,1,5.74,5.68Zm5.84-13.46c-.1,5.34-1.98,10.8-4.7,13.56A14.063,14.063,0,0,1,283.52.78c2.64-3.24,4.16-7.4,4.96-13.52l.08-.46.06-.4a2.838,2.838,0,0,1,.08-.56,1.386,1.386,0,0,1,.06-.32Zm6.14.64.08.24.02.2.14.76c0,.04.02.18.04.38.76,5.6,2.5,10.22,5.16,13.72a13.905,13.905,0,0,1,3.16-2.52,21.516,21.516,0,0,1-4.38-9.02,26.417,26.417,0,0,1-.72-4.36v-.06Zm6.52-1.4a2.245,2.245,0,0,0-2.26,2.26,2.271,2.271,0,0,0,2.26,2.26,2.253,2.253,0,0,0,2.24-2.26A2.241,2.241,0,0,0,297.62-15.92Zm0,1.12a1.149,1.149,0,0,1,1.12,1.14,1.149,1.149,0,0,1-1.14,1.12,1.145,1.145,0,0,1-1.12-1.12A1.153,1.153,0,0,1,297.62-14.8Zm5.32-1.38a16.464,16.464,0,0,1-.3,2.14,43.258,43.258,0,0,0-.76,7.7,42.256,42.256,0,0,0,.52,6.32,8.031,8.031,0,0,1,.1,1.06l3.44-.16a5.6,5.6,0,0,1-.06-.98,19.735,19.735,0,0,1,.78-5.6l-1.54-.52a37.6,37.6,0,0,1,1.52-9.66Zm5.24,5.2c.28.02.42.02.58.04a33,33,0,0,0,3.44.16c1.38,0,2.84-.08,4.22-.22,1.1-.12,1.3-.14,1.48-.14l-.14-3.42a25.945,25.945,0,0,1-5.96.5,16.706,16.706,0,0,1-3.56-.3Zm1.18,2.66c-.54.78-.66.98-.94,1.44a6.268,6.268,0,0,0-.96,3.12A3.7,3.7,0,0,0,309.3-.58a8.152,8.152,0,0,0,4.14.84A24.491,24.491,0,0,0,316.9,0c1.18-.18,1.18-.18,1.7-.24l-.2-3.54a14.864,14.864,0,0,1-4.98.82c-1.7,0-2.6-.5-2.6-1.42a4.935,4.935,0,0,1,1.34-2.76Zm21.08,6.46A13.786,13.786,0,0,0,333.46.3a16.988,16.988,0,0,0,4.7,1.68,10.536,10.536,0,0,1,1.5-3.12,15.281,15.281,0,0,1-4.9-1.24,28.515,28.515,0,0,0,3.38-2.02l-2.12-1.5c.62.02.9.04,1.46.08a15.467,15.467,0,0,1-.1-2.22v-5.22a17.411,17.411,0,0,1,.1-2.18c-.66.06-1.4.1-2.22.1h-3.78v-.18a6.518,6.518,0,0,1,.12-1.44h-3.36a9.268,9.268,0,0,1,.12,1.42v.2h-3.58c-.82,0-1.6-.04-2.26-.1a16.74,16.74,0,0,1,.1,2.12V-1.38c-.8.1-1.52.16-2,.18l.52,3.14c.18-.04.2-.04.36-.08.22-.04.24-.04.5-.08,3.92-.68,5.64-1.04,8.46-1.78ZM325.76-5.9h1.96a10.229,10.229,0,0,0,1.98,3.28c-2.46.54-2.46.54-3.94.78Zm9.44,0a15.9,15.9,0,0,1-2.88,1.94,5.733,5.733,0,0,1-1.48-1.94Zm-9.44-6.72h8.54v.84h-8.54Zm0,3.22h8.54v.92h-8.54Zm15.82-5.76a14.026,14.026,0,0,1,.08,1.42c.04,2.78.12,4.46.22,5.86.26,3.18.8,5.18,1.84,6.66A3.426,3.426,0,0,0,346.58.5a3.519,3.519,0,0,0,3.04-2.04,16.883,16.883,0,0,0,1.52-3.86,12.653,12.653,0,0,1-2.78-2.52,20.317,20.317,0,0,1-1.04,3.46c-.2.52-.42.78-.64.78-.84,0-1.48-3.38-1.48-7.86a24.943,24.943,0,0,1,.22-3.62Zm10.02,2.12a19.9,19.9,0,0,1,4.08,11.56l3.58-1.32a21.143,21.143,0,0,0-4.62-11.64Zm17.08-.34a19.134,19.134,0,0,1-2.46-.1v3.08a23.109,23.109,0,0,1,2.46-.1h2.2v2.78h-1.74a19.97,19.97,0,0,1-2.34-.1V-4.8c.66-.06,1.36-.1,2.32-.1h1.76v3.22h-2.56c-.88,0-1.64-.04-2.48-.12V1.3a23.673,23.673,0,0,1,2.6-.12h8.36a22.782,22.782,0,0,1,2.58.12V-1.8c-.82.08-1.66.12-2.56.12h-2.8V-4.9h2.04c.94,0,1.68.04,2.34.1V-7.82a20.7,20.7,0,0,1-2.38.1h-2V-10.5h2.48a23.83,23.83,0,0,1,2.52.1v-3.1a22.582,22.582,0,0,1-2.62.12h-2.42l1.42-1.42a25.61,25.61,0,0,0-4.36-2.42l-2.22,2.08a25.071,25.071,0,0,1,3.14,1.76ZM362.32-.5a17.364,17.364,0,0,1-.12,2.3h3.26a22.441,22.441,0,0,1-.12-2.3V-12.16A28.058,28.058,0,0,0,367-16.5l-3.18-.72a11.938,11.938,0,0,1-.7,2.52,14.182,14.182,0,0,1-2.84,4.78,17.766,17.766,0,0,1,1,3.68,11.989,11.989,0,0,0,1.08-1.36c-.02.98-.02.98-.02,1.3-.02.54-.02.54-.02.78Zm19.7-11.16h.34c.06,0,.26,0,.54.02.74.04.74.04,1.5.06,2.3.1,2.64.12,3.72.12.18,0,.38,0,.84-.02V-11c.02.48.02.48.02.52v.3c-.62.02-.92.02-1.34.02a30.873,30.873,0,0,1-4.92-.32l-.04,2.98c.6,0,.7.02,1.58.06,1.14.06,2.06.08,3.22.08.3,0,1.12-.02,1.54-.02,0,.1.02.5.04,1.18h-.62a10.1,10.1,0,0,0-3.56.54,3.487,3.487,0,0,0-2.52,3.26c0,2.32,1.86,3.66,5.14,3.66,2.18,0,3.7-.56,4.36-1.58a3.474,3.474,0,0,0,.48-2.02,10.374,10.374,0,0,1,2.84,1.78A10.6,10.6,0,0,1,396.54.72l1.9-3.22c-.32-.2-.46-.28-.76-.48A19.926,19.926,0,0,0,395-4.64a11.458,11.458,0,0,0-2.74-1.08c-.04-.84-.04-.84-.06-1.76,1.1-.04,3.02-.18,3.92-.28.86-.08.86-.08,1.28-.1l-.08-3.06a31.643,31.643,0,0,1-5.16.6v-1.26a39.248,39.248,0,0,0,4.02-.34c1.06-.14,1.18-.14,1.76-.18l-.1-3.06a30.784,30.784,0,0,1-5.68.7,12.436,12.436,0,0,1,.16-2.08H388.8a13.97,13.97,0,0,1,.12,2.18c-.6.02-.86.02-1.1.02a28.726,28.726,0,0,1-5.76-.42Zm7.04,8.44s.02.22.02.34c0,.9-.48,1.28-1.6,1.28-1,0-1.56-.3-1.56-.8,0-.62.7-.96,1.92-.96A4.319,4.319,0,0,1,389.06-3.22Zm12.52-11.94a14.026,14.026,0,0,1,.08,1.42c.04,2.78.12,4.46.22,5.86.26,3.18.8,5.18,1.84,6.66A3.426,3.426,0,0,0,406.58.5a3.519,3.519,0,0,0,3.04-2.04,16.883,16.883,0,0,0,1.52-3.86,12.653,12.653,0,0,1-2.78-2.52,20.317,20.317,0,0,1-1.04,3.46c-.2.52-.42.78-.64.78-.84,0-1.48-3.38-1.48-7.86a24.943,24.943,0,0,1,.22-3.62Zm10.02,2.12a19.9,19.9,0,0,1,4.08,11.56l3.58-1.32a21.143,21.143,0,0,0-4.62-11.64Zm10.22,1.28h.3c.28,0,.42,0,.7.02.86.02.86.02,1.72.02h.64c-.08.14-.08.14-.38.64-.3.48-1.1,1.64-1.54,2.18a13.734,13.734,0,0,1-2.12,2.08l2.54,2.52a12.706,12.706,0,0,1,1.92-2.02,6.6,6.6,0,0,1,3.8-1.92.826.826,0,0,1,.8.5c-.8.36-1,.44-1.48.68a8.81,8.81,0,0,0-2.88,2.14,3.721,3.721,0,0,0-.98,2.52A3.216,3.216,0,0,0,426.44.44a9.124,9.124,0,0,0,4.76.92,39.471,39.471,0,0,0,4.82-.3A12.919,12.919,0,0,1,437.8.88l-.22-3.6a18.942,18.942,0,0,1-6.4,1c-1.94,0-2.68-.3-2.68-1.06a1.38,1.38,0,0,1,.52-1.02,4.539,4.539,0,0,1,1.4-.84l.18-.08a16.421,16.421,0,0,1-.1,2.12l3.26-.1a12.409,12.409,0,0,1-.08-1.72c0-.88,0-.9-.02-1.44a33.078,33.078,0,0,1,5.1-1.36l-1.22-3.16a8.387,8.387,0,0,1-1.6.6c-.64.2-1.18.38-1.24.4-1.06.36-1.06.36-1.4.48-.4-1.3-1.4-1.94-3.06-1.94a5.9,5.9,0,0,0-2.54.6,10.837,10.837,0,0,0,.96-1.48c2.04-.06,4.54-.2,5.96-.34q.87-.09,1.8-.18l-.12-3.18a29.314,29.314,0,0,1-5.06.64c-1.02.06-1.02.06-1.22.08.02-.04.14-.36.4-.94a5.812,5.812,0,0,1,.42-.94l-3.66-.28a7.237,7.237,0,0,1-.62,2.22H426a19.456,19.456,0,0,1-4.14-.28Zm26.84.16h-3.9a25.136,25.136,0,0,1-2.86-.12v3.04c.84-.06,1.78-.1,2.86-.1h3.9v1.72h-5.02a24.263,24.263,0,0,1-2.78-.12V-4.1a25,25,0,0,1,2.78-.12h5.02v2.24c0,.5-.18.64-.74.64a31.359,31.359,0,0,1-3.2-.22,8,8,0,0,1,.84,2.96c1.6.1,1.7.1,2.22.1.24,0,.46.02.48.02h.3a6.2,6.2,0,0,0,2.42-.46c.58-.34.86-.98.86-2.08v-3.2h4.52a24.9,24.9,0,0,1,2.8.12V-7.18a24.418,24.418,0,0,1-2.8.12h-4.52V-8.78h3.52c1.2,0,2.04.04,2.82.1v-3.04a25.379,25.379,0,0,1-2.86.12h-3.48v-1.84a56.555,56.555,0,0,0,6.02-.86l-2.14-2.84a13.259,13.259,0,0,1-2.76.68,62.709,62.709,0,0,1-9.86.7h-1.34a11.474,11.474,0,0,1,.96,2.78c2.6-.04,4.2-.1,5.94-.22Zm14.28-4.58a16.464,16.464,0,0,1-.3,2.14,43.258,43.258,0,0,0-.76,7.7,42.256,42.256,0,0,0,.52,6.32,8.031,8.031,0,0,1,.1,1.06l3.44-.16a5.6,5.6,0,0,1-.06-.98,19.735,19.735,0,0,1,.78-5.6l-1.54-.52a37.6,37.6,0,0,1,1.52-9.66Zm5.24,5.2c.28.02.42.02.58.04a33,33,0,0,0,3.44.16c1.38,0,2.84-.08,4.22-.22,1.1-.12,1.3-.14,1.48-.14l-.14-3.42a25.945,25.945,0,0,1-5.96.5,16.706,16.706,0,0,1-3.56-.3Zm1.18,2.66c-.54.78-.66.98-.94,1.44a6.268,6.268,0,0,0-.96,3.12A3.7,3.7,0,0,0,469.3-.58a8.152,8.152,0,0,0,4.14.84A24.491,24.491,0,0,0,476.9,0c1.18-.18,1.18-.18,1.7-.24l-.2-3.54a14.864,14.864,0,0,1-4.98.82c-1.7,0-2.6-.5-2.6-1.42a4.935,4.935,0,0,1,1.34-2.76Zm18.84-5.12a17.918,17.918,0,0,1-.66,3.9,14.107,14.107,0,0,1-3.7,6.06,14.3,14.3,0,0,1-3.4,2.42,9.582,9.582,0,0,1,2.14,2.88,17.6,17.6,0,0,0,4.68-4.02,15.975,15.975,0,0,0,2.92-5.6,15.2,15.2,0,0,0,3.24,5.94A17.928,17.928,0,0,0,497.5,1.8a9.824,9.824,0,0,1,2.2-3.16,15.425,15.425,0,0,1-5.54-5.06,16.139,16.139,0,0,1-2.56-8.76c0-.38.02-.72.04-1.28a15.485,15.485,0,0,1-1.78.08h-3.7a14.031,14.031,0,0,1-2.26-.12v3.18c.88-.08,1.6-.12,2.3-.12ZM501.94-1.26a23.9,23.9,0,0,1,1.98-2.5v2.1a20.352,20.352,0,0,1-.18,3.06l3.62-.02c-.1-.78-.16-2.82-.16-5.66,0-.58,0-1.16.02-2.1a18.9,18.9,0,0,1,3.46-3.08,3.719,3.719,0,0,1,1.9-.82.521.521,0,0,1,.58.56,12.374,12.374,0,0,1-.36,2.06,24.711,24.711,0,0,0-.88,5.32A2.972,2.972,0,0,0,515.06.88c1.92,0,3.22-.96,4.76-3.48a12.463,12.463,0,0,1-1.68-3.22,11.909,11.909,0,0,1-1.2,2.14c-.38.56-.8.9-1.1.9s-.48-.22-.48-.58a26.365,26.365,0,0,1,.86-4.28,13.063,13.063,0,0,0,.52-3.02,2.988,2.988,0,0,0-3.22-3.12c-1.76,0-3.82,1.12-6.32,3.44a2.96,2.96,0,0,0,.02-.44l.02-.28a7.228,7.228,0,0,1,1.26-1.36l-1.1-1.04a28.5,28.5,0,0,1,.24-2.96l-3.54-.08a8.657,8.657,0,0,1,.08,1.32c0,.46-.02.96-.04,1.38a5.279,5.279,0,0,1-.02.64c-.84.06-1.68.1-2.18.1-.34,0-.58-.02-1.04-.06l.16,3.16a23.232,23.232,0,0,1,2.98-.26c-.02,1.3-.04,1.88-.06,2.2-.1.12-.84.84-2.18,2.2a15.246,15.246,0,0,1-1.4,1.22Zm21.8-11.34c.4-.04.78-.08,1.32-.1,2.82-.14,3.62-.18,4.68-.3a44.092,44.092,0,0,1-8.54,6.6l1.86,3.04a14.87,14.87,0,0,1,1.92-1.5,11.5,11.5,0,0,1,6.16-1.84c2.22,0,3.58.86,3.58,2.26a2.247,2.247,0,0,1-1.58,2.18,4.7,4.7,0,0,0-.92-1.58,4.691,4.691,0,0,0-3.58-1.54c-2.32,0-3.98,1.34-3.98,3.2,0,2.22,2.06,3.56,5.44,3.56A10.871,10.871,0,0,0,535.4.12a5.224,5.224,0,0,0,2.76-4.7,4.44,4.44,0,0,0-1.46-3.46,6.147,6.147,0,0,0-4.28-1.36,9.569,9.569,0,0,0-2.74.36c1.34-.98,1.7-1.28,2.76-2.18,2.7-2.32,2.7-2.32,3.22-2.62l-1.64-2.42a4.032,4.032,0,0,1-1.52.28c-2.02.16-4.24.24-6.02.24a22.382,22.382,0,0,1-2.88-.14Zm6.42,11.24a3.035,3.035,0,0,1-.66.06c-1.08,0-1.72-.34-1.72-.88a.689.689,0,0,1,.78-.66C529.34-2.84,529.9-2.32,530.16-1.36Zm11.86-10.3h.34c.06,0,.26,0,.54.02.74.04.74.04,1.5.06,2.3.1,2.64.12,3.72.12.18,0,.38,0,.84-.02V-11c.02.48.02.48.02.52v.3c-.62.02-.92.02-1.34.02a30.873,30.873,0,0,1-4.92-.32l-.04,2.98c.6,0,.7.02,1.58.06,1.14.06,2.06.08,3.22.08.3,0,1.12-.02,1.54-.02,0,.1.02.5.04,1.18h-.62a10.1,10.1,0,0,0-3.56.54,3.487,3.487,0,0,0-2.52,3.26c0,2.32,1.86,3.66,5.14,3.66,2.18,0,3.7-.56,4.36-1.58a3.474,3.474,0,0,0,.48-2.02,10.375,10.375,0,0,1,2.84,1.78A10.6,10.6,0,0,1,556.54.72l1.9-3.22c-.32-.2-.46-.28-.76-.48A19.924,19.924,0,0,0,555-4.64a11.458,11.458,0,0,0-2.74-1.08c-.04-.84-.04-.84-.06-1.76,1.1-.04,3.02-.18,3.92-.28.86-.08.86-.08,1.28-.1l-.08-3.06a31.644,31.644,0,0,1-5.16.6v-1.26a39.248,39.248,0,0,0,4.02-.34c1.06-.14,1.18-.14,1.76-.18l-.1-3.06a30.785,30.785,0,0,1-5.68.7,12.431,12.431,0,0,1,.16-2.08H548.8a13.964,13.964,0,0,1,.12,2.18c-.6.02-.86.02-1.1.02a28.726,28.726,0,0,1-5.76-.42Zm7.04,8.44s.02.22.02.34c0,.9-.48,1.28-1.6,1.28-1,0-1.56-.3-1.56-.8,0-.62.7-.96,1.92-.96A4.319,4.319,0,0,1,549.06-3.22Zm12.3-7.74a22.129,22.129,0,0,1,2.82-.38c3.74-.3,4.44-.36,4.88-.4l.94-.1a8.184,8.184,0,0,0-1.96,1.7,6.847,6.847,0,0,0-1.7,4.52,5.686,5.686,0,0,0,3.58,5.48A15.107,15.107,0,0,0,574.98.98a5.114,5.114,0,0,1,.74.1l.46-3.8c-.3.02-.44.02-.6.02a10.566,10.566,0,0,1-3.82-.72,2.556,2.556,0,0,1-1.68-2.48c0-1.64,1.18-3.32,3.18-4.54a9.374,9.374,0,0,1,4.58-1.4,3.042,3.042,0,0,1,.56.04l-.18-3.62a1.686,1.686,0,0,1-.46.08c-.1,0-.22.02-.9.04l-.84.04-2.06.08c-3.8.14-5.74.24-8.62.42-2.18.14-2.9.18-3.42.18-.16,0-.42,0-.76-.02Zm12.06,1.74a12.436,12.436,0,0,1,1.94,2.96l1.92-.88a12.9,12.9,0,0,0-1.94-2.9Zm2.8-1.18a14.316,14.316,0,0,1,1.9,2.88l1.86-.86a13.824,13.824,0,0,0-1.96-2.82Zm6.76,5.22c1.2-1.38,2.1-1.92,3.24-1.92.74,0,1.36.24,3.2,1.28,1.98,1.12,2.86,1.42,4.16,1.42a7.183,7.183,0,0,0,2.68-.52,7.131,7.131,0,0,0,3.24-2.76l-2.46-2.58c-1.18,1.54-2.14,2.12-3.48,2.12a5.75,5.75,0,0,1-2.86-1.04,20.019,20.019,0,0,0-1.78-.94,7,7,0,0,0-2.68-.56,6.376,6.376,0,0,0-2.74.6,7.771,7.771,0,0,0-2.96,2.54Z" transform="translate(-0.54 17.52)" fill="#980e1a"/>
</svg>
