<svg xmlns="http://www.w3.org/2000/svg" width="542.412" height="184.266" viewBox="0 0 542.412 184.266">
  <g id="グループ_1962" data-name="グループ 1962" transform="translate(-354.626 -357.05)">
    <g id="グループ_1958" data-name="グループ 1958" transform="translate(354.626 357.05)">
      <path id="パス_5605" data-name="パス 5605" d="M422.48,367.142a28.072,28.072,0,0,0-3.025,2.869A129.967,129.967,0,0,1,401.543,385.6v29.856a111.144,111.144,0,0,0,.464,12.564H386.963a105.138,105.138,0,0,0,.466-12.486v-21.4c-8.066,4.731-14.27,7.522-25.359,11.478a41.638,41.638,0,0,0-7.445-12.486c16.828-4.731,28.692-10.547,41.178-20.162,6.67-5.041,11.864-10.316,14.114-14.192Z" transform="translate(-354.626 -355.431)" fill="#980e1a"/>
      <path id="パス_5606" data-name="パス 5606" d="M437.081,404.859h15.045c6.9,0,9.306-.078,12.795-.62v13.648a121.766,121.766,0,0,0-12.562-.464H408.622a117.961,117.961,0,0,0-12.486.387v-13.57a90.636,90.636,0,0,0,12.719.62h14.114V375.467h-8.531a116.563,116.563,0,0,0-12.564.387V362.439a83.357,83.357,0,0,0,12.795.622h31.562a87.624,87.624,0,0,0,12.8-.622v13.415a118.422,118.422,0,0,0-12.564-.387h-9.383Z" transform="translate(-315.492 -351.969)" fill="#980e1a"/>
      <path id="パス_5607" data-name="パス 5607" d="M461.808,372.57c.235-3.025.389-7.52.389-9.927a21.647,21.647,0,0,0-.233-3.876l14.58.389c-.388,1.781-.388,2.017-.853,9.383-.078,2.092-.078,2.092-.233,3.955h16.906a11.19,11.19,0,0,0,5.195-.855l6.05,5.273c-.853,1.552-1.008,2.172-1.086,5.739-.542,16.6-1.706,29.547-3.256,34.664-2.25,7.213-5.972,9.694-14.58,9.694a91,91,0,0,1-10.159-.62c-.311-6.2-.853-8.764-2.636-13.648a44.5,44.5,0,0,0,10.081,1.548c3.722,0,4.653-1.239,5.661-7.987a179.234,179.234,0,0,0,1.473-21.636H474.294a66.583,66.583,0,0,1-1.162,7.755c-3.413,15.664-10.78,25.745-26.522,36.137a44.827,44.827,0,0,0-10.081-11.787c10.314-5.428,16.286-10.934,20.162-18.767,1.939-3.955,2.792-6.747,3.878-13.261h-9.694a79.179,79.179,0,0,0-10.468.466l-.078-13.263a60.194,60.194,0,0,0,10.778.622Z" transform="translate(-277.412 -355.431)" fill="#980e1a"/>
      <path id="パス_5608" data-name="パス 5608" d="M531,370.553c3.722,0,4.731-.155,6.359-.855l5.894,5.97c-.775,1.319-.931,1.863-1.319,4.733-1.317,9.539-3.023,15.664-5.972,21.559a47.809,47.809,0,0,1-19.929,20.859c-4.342,2.559-8.22,4.189-15.509,6.749a42.913,42.913,0,0,0-8.686-13.108c11.631-2.636,19.154-6.125,24.817-11.478,5.97-5.661,9.306-12.717,10.39-22.256H493.468v6.9a75.215,75.215,0,0,0,.311,8.142h-14.5a68.7,68.7,0,0,0,.466-8.529v-10.78c0-3.18-.155-5.35-.388-8.375a77.954,77.954,0,0,0,9.694.466h13.881v-4.733a51.607,51.607,0,0,0-.466-7.134h14.889a47.763,47.763,0,0,0-.309,7.056v4.81Z" transform="translate(-237.112 -355.507)" fill="#980e1a"/>
      <path id="パス_5609" data-name="パス 5609" d="M542.153,391.559c-.233.932-.62,2.949-1.241,6.127A94.528,94.528,0,0,1,536.26,412.5a68.042,68.042,0,0,1-6.669,12.484,59.276,59.276,0,0,0-12.8-6.359,62.224,62.224,0,0,0,10.392-21.792,40.771,40.771,0,0,0,1.63-8.375Zm4.731-22.41a58.3,58.3,0,0,0-.464-8.533h14.656c-.233,2.329-.386,5.2-.386,8.686v2.871h14.734a94.652,94.652,0,0,0,12.175-.544v13.1a113.9,113.9,0,0,0-11.944-.387H560.689v34.278a78.9,78.9,0,0,0,.464,11.476H546.341a74.166,74.166,0,0,0,.542-11.631V384.348H532.46a97.656,97.656,0,0,0-11.711.387v-13.1a91.774,91.774,0,0,0,11.789.544h14.345ZM578.214,388.3a79.27,79.27,0,0,0,2.87,10.081,73.649,73.649,0,0,0,9.692,19.464,107.763,107.763,0,0,0-12.795,7.211c-5.583-10.079-8.064-16.517-11.478-29.7a26.359,26.359,0,0,0-1.162-3.8Zm-1.164-28.615a52.28,52.28,0,0,1,4.886,9.77l-7.833,2.483a58.84,58.84,0,0,0-4.653-10.083Zm9.694-2.638a45.444,45.444,0,0,1,5.117,10.005l-7.445,2.4a54.23,54.23,0,0,0-4.886-10.234Z" transform="translate(-201.742 -357.05)" fill="#980e1a"/>
      <path id="パス_5610" data-name="パス 5610" d="M558.983,372.778c3.645.542,7.833.7,15.9.7h37.068a127.453,127.453,0,0,0,15.9-.7v14.967c-3.722-.389-7.136-.466-15.977-.466H574.958c-8.684,0-11.245.078-15.975.466Z" transform="translate(-161.968 -342.222)" fill="#980e1a"/>
      <path id="パス_5611" data-name="パス 5611" d="M666.752,367.142a28.058,28.058,0,0,0-3.025,2.869A129.954,129.954,0,0,1,645.814,385.6v29.856a110.689,110.689,0,0,0,.464,12.564H631.234a105.131,105.131,0,0,0,.466-12.486v-21.4c-8.066,4.731-14.269,7.522-25.359,11.478a41.633,41.633,0,0,0-7.445-12.486c16.828-4.731,28.693-10.547,41.179-20.162,6.669-5.041,11.864-10.316,14.114-14.192Z" transform="translate(-124.339 -355.431)" fill="#980e1a"/>
      <path id="パス_5612" data-name="パス 5612" d="M395.885,441.423a40.4,40.4,0,0,1-4.109,2.712c4.109,4.733,5.35,6.671,6.9,10.858a51.86,51.86,0,0,1,3.489,18.378c0,5.817-1.317,9.461-4.187,11.48-1.861,1.317-5.119,2.017-9.772,2.017-1.006,0-4.653-.155-6.359-.313a22.17,22.17,0,0,0-2.636-8.917A128.219,128.219,0,0,1,362.85,485.7a33.444,33.444,0,0,0-6.747-9.848A102.743,102.743,0,0,0,388.518,460.5c-.311-.929-.389-1.239-.853-2.4a118.51,118.51,0,0,1-25.359,12.175,38.813,38.813,0,0,0-5.816-8.995c10.858-2.794,20.241-6.283,27.22-10.161-.62-.775-.853-1.084-1.628-1.939a106.985,106.985,0,0,1-19.154,6.98,27.616,27.616,0,0,0-5.2-8.764c7.445-1.24,8.764-1.473,13.028-2.79a56.961,56.961,0,0,0,8.686-3.18h-6.281a77.146,77.146,0,0,0-7.755.387v-4.573h-7.987a30.408,30.408,0,0,0,.387-5.739v-6.98a37.911,37.911,0,0,0-.311-5.661c2.405.233,4.964.311,9.23.311h18.921v-.855a27.266,27.266,0,0,0-.309-4.575h12.95a24.954,24.954,0,0,0-.311,4.5v.932h19.929c4.344,0,6.825-.078,9.383-.311a37.543,37.543,0,0,0-.309,5.661v6.98a41.5,41.5,0,0,0,.309,5.739H419.3v4.573a62.8,62.8,0,0,0-7.755-.387h-3.256c.853,4.109,1.086,5.117,1.783,7.6a43.754,43.754,0,0,0,6.9-7.134l9.539,8.144c-.388.309-.388.309-1.241.929-.233.155-.233.155-3.569,2.871-4.575,3.645-5.506,4.342-7.287,5.661,3.722,6.2,7.754,9.926,15.043,13.8a43.1,43.1,0,0,0-8.064,10.78c-8.453-6.669-12.8-11.787-16.673-19.931-3.256-6.823-5.275-13.106-7.445-22.72Zm19.7-12.255H369.209v2.949c1.706.078,2.248.078,3.956.078l38.385-.078h4.033ZM381,476.63a39.472,39.472,0,0,0,5.273.387c3.491,0,4.111-.929,4.111-6.279v-.622A90.626,90.626,0,0,1,381,476.63Z" transform="translate(-353.234 -303.608)" fill="#980e1a"/>
      <path id="パス_5613" data-name="パス 5613" d="M400.565,421.578c3.334.777,7.987,1.086,16.053,1.086h2.17a28.041,28.041,0,0,0,2.405-8.608l14.19,1.088a22.664,22.664,0,0,0-1.628,3.645c-1.008,2.248-1.473,3.489-1.55,3.645.775-.078.775-.078,4.731-.311,7.6-.387,15.509-1.395,19.62-2.483l.464,12.333q-3.6.347-6.978.7c-5.506.546-15.2,1.088-23.109,1.319a42.125,42.125,0,0,1-3.722,5.739,22.886,22.886,0,0,1,9.848-2.326c6.436,0,10.314,2.481,11.864,7.522,1.319-.466,1.319-.466,5.428-1.861.233-.078,2.327-.775,4.808-1.552,4.42-1.474,4.964-1.628,6.205-2.326l4.731,12.253c-4.033.542-12.331,2.714-19.775,5.273.078,2.094.078,2.172.078,5.583a48.413,48.413,0,0,0,.309,6.669l-12.639.387a63.492,63.492,0,0,0,.389-8.22l-.7.311c-3.567,1.706-4.031,2.017-5.428,3.258a5.352,5.352,0,0,0-2.017,3.953c0,2.947,2.869,4.111,10.392,4.111,9.306,0,18.225-1.4,24.815-3.878l.855,13.961a49.747,49.747,0,0,0-6.9.7A153.107,153.107,0,0,1,436.78,484.7c-8.764,0-14.269-1.086-18.456-3.567a12.471,12.471,0,0,1-6.127-11.012,14.432,14.432,0,0,1,3.8-9.772,34.158,34.158,0,0,1,11.167-8.3c1.861-.931,2.636-1.241,5.739-2.636a3.206,3.206,0,0,0-3.1-1.941c-3.954,0-9.306,2.716-14.734,7.445a49.257,49.257,0,0,0-7.445,7.835l-9.848-9.772a53.3,53.3,0,0,0,8.22-8.064c1.706-2.094,4.808-6.594,5.972-8.455,1.162-1.939,1.162-1.939,1.473-2.481h-2.481c-3.336,0-3.336,0-6.669-.078-1.086-.078-1.628-.078-2.714-.078h-1.164Z" transform="translate(-313.949 -303.308)" fill="#980e1a"/>
      <path id="パス_5614" data-name="パス 5614" d="M453.762,472.7c-3.489,0-5.659.078-8.373.313.231-2.561.309-5.042.309-9.463V446.409c0-4.266-.078-6.98-.309-9.308,2.326.155,4.031.233,7.6.233H495.02c4.264,0,6.125-.078,8.373-.233a90.613,90.613,0,0,0-.309,9.308v17.6a79.2,79.2,0,0,0,.309,9,80.623,80.623,0,0,0-8.3-.313h-4.187c6.048,2.405,11.709,3.414,20.861,3.956a43.358,43.358,0,0,0-5.352,10.314,72.583,72.583,0,0,1-16.982-4.109A54.016,54.016,0,0,1,477.8,477.2L483,472.7H464l5.659,4.5a48.74,48.74,0,0,1-12.406,6.2,80.8,80.8,0,0,1-14.192,3.722,40.276,40.276,0,0,0-5.894-9.926c8.764-.932,14.269-2.172,19.464-4.5Zm53.976-44.126a39.734,39.734,0,0,0,.387,6.98c-1.784-.155-3.8-.233-7.753-.233H448.256c-3.876,0-6.126.078-7.753.233a42.534,42.534,0,0,0,.387-6.98v-6.59a50.261,50.261,0,0,0-.387-7.445,78.547,78.547,0,0,0,8.839.309h49.942a77.638,77.638,0,0,0,8.84-.309,47.161,47.161,0,0,0-.387,7.445Zm-48.157-5.117h-7.524v3.413h7.524Zm-2.327,24.273h34.276V445.4H457.253Zm0,8.453h34.276v-2.326H457.253Zm0,8.531h34.276v-2.4H457.253Zm20.4-41.256H470.2v3.413h7.445Zm18.456,3.413v-3.413h-7.831v3.413Z" transform="translate(-276.81 -302.855)" fill="#980e1a"/>
      <path id="パス_5615" data-name="パス 5615" d="M481.312,439.495c2.405,0,2.405,0,10.236-1.319a150.072,150.072,0,0,1,26.058-2.4c10.159,0,16.75,2.716,20.4,8.533a19.359,19.359,0,0,1,2.945,10.468c0,9.539-6.125,18.534-16.208,23.806-6.745,3.567-13.726,5.43-26.443,6.98a43,43,0,0,0-5.35-13.339c8.995-.387,15.9-1.55,21.559-3.8,5.195-1.939,8.686-4.577,10.469-7.833a11.553,11.553,0,0,0,1.473-5.273c0-4.655-3.411-7.058-9.848-7.058-9.075,0-24.352,2.636-32.261,5.583Zm12.719-25.359c9.381,2.871,20.006,4.266,32.1,4.266,1.4,0,2.714,0,5.352-.078l-1.708,13.184c-15.742-.464-27.451-1.861-39.782-4.731Z" transform="translate(-235.193 -303.232)" fill="#980e1a"/>
      <path id="パス_5616" data-name="パス 5616" d="M548.42,450.945a14.735,14.735,0,1,1-14.736-14.734A14.731,14.731,0,0,1,548.42,450.945Zm-21.483,0a6.747,6.747,0,1,0,6.747-6.747A6.751,6.751,0,0,0,526.937,450.945Z" transform="translate(-199.71 -282.421)" fill="#980e1a"/>
    </g>
    <g id="グループ_1959" data-name="グループ 1959" transform="translate(733.876 490.249)">
      <path id="パス_5617" data-name="パス 5617" d="M572.859,457.741c-3.007,6.636-6.481,9.541-11.2,9.541-6.947,0-11.82-6.636-11.82-16.125a23.046,23.046,0,0,1,5.962-15.814c4.562-4.977,11.146-7.623,18.769-7.623,6.947,0,13.065,2.335,16.9,6.38,3.318,3.524,5.08,8.554,5.08,14.413,0,6.739-2.539,12.857-6.895,16.746-3.526,3.163-7.621,4.82-14.881,5.962a25.433,25.433,0,0,0-4.406-8.5c4.872-.361,8.088-1.193,10.887-2.644,3.992-2.125,6.223-6.481,6.223-12.029,0-4.406-1.556-7.932-4.561-10.213a8.7,8.7,0,0,0-4.358-1.814C577.422,444.935,575.658,451.624,572.859,457.741Zm-8.917-18.977a16.775,16.775,0,0,0-5.651,12.34c0,3.682,1.4,6.584,3.213,6.584,1.3,0,2.646-1.813,4.2-5.754a67.272,67.272,0,0,0,3.889-15.812A10.354,10.354,0,0,0,563.942,438.765Z" transform="translate(-549.839 -423.625)" fill="#980e1a"/>
      <path id="パス_5618" data-name="パス 5618" d="M612.928,455.373v7.516c0,1.195.053,1.766.105,2.541a21.066,21.066,0,0,0-2.8-.1H593.9v1.556c0,1.09.466,1.14,8.762,1.14,10.215,0,11.148-.1,11.614-1.245a17.646,17.646,0,0,0,.468-4.511v-1.086a30.958,30.958,0,0,0,7.569,2.331c-.208,4.461-.777,6.689-2.073,8.451-1.712,2.23-3.837,2.592-15.764,2.592-10.94,0-14.516-.206-16.123-.983-1.5-.727-2.178-1.97-2.178-4.045v-7.777c0-.934,0-1.348-.052-1.919a59.516,59.516,0,0,1-5.91,4.148,34.2,34.2,0,0,0-4.148-7.932,31.749,31.749,0,0,0,10.679-6.947h-3.318a44.571,44.571,0,0,0-5.857.26V442a37.617,37.617,0,0,0,5.857.258h8.556c.569-1.037.88-1.554,1.348-2.594h-7.777c-2.491,0-4.1.054-5.859.21v-7a38.21,38.21,0,0,0,5.962.26,35.326,35.326,0,0,0-3.007-5.185l7.829-1.762a45.8,45.8,0,0,1,3.474,6.947h1.815a26.84,26.84,0,0,0,1.348-7.518l8.709.622a20.476,20.476,0,0,0-.83,2.957c-.414,1.607-.622,2.283-1.14,3.94h3.526a32.937,32.937,0,0,0,3.629-6.947l8.193,1.867a43.2,43.2,0,0,1-3.215,5.08h1.037a37.83,37.83,0,0,0,5.91-.26v7c-1.762-.155-3.371-.21-5.91-.21h-6.273a16.728,16.728,0,0,0,1.348,2.594h7A38.442,38.442,0,0,0,625.01,442v7.363a46.455,46.455,0,0,0-5.912-.26h-1.243a29.823,29.823,0,0,0,8.762,5.391,40.879,40.879,0,0,0-4.717,7.416,43.5,43.5,0,0,1-8.972-6.949ZM591.62,454.8a51.8,51.8,0,0,1-4.719,4.408c.727.05,1.556.1,2.541.1H605.2v-2.022H595.146a30.267,30.267,0,0,0-3.526.155Zm17.939-3.68c-.519-.727-.674-.882-1.451-2.022H596.286a19.41,19.41,0,0,1-1.453,1.972c1.037.05,1.609.05,2.7.05Zm-5.288-8.867c-.363-.828-.416-.983-.985-2.594h-2.333c-.519,1.35-.622,1.661-1.037,2.594Z" transform="translate(-525.114 -425.612)" fill="#980e1a"/>
    </g>
  </g>
</svg>
