<svg xmlns="http://www.w3.org/2000/svg" width="121.401" height="120.999" viewBox="0 0 121.401 120.999">
  <g id="グループ_2605" data-name="グループ 2605" transform="translate(-1002.554 -2140.483)">
    <g id="グループ_498" data-name="グループ 498" transform="translate(1002.554 2140.483)">
      <path id="パス_2955" data-name="パス 2955" d="M-841.932,290.609l-11.305,11.913,13.142,10.416-14.937,7,8.583,14.489L-863,335.52l2.861,16.641-15.918-4.983-3.252,16.58-13.134-10.426-8.93,14.315-8.572-14.5L-923.347,363.3l-2.848-16.643-16.077,4.652,3.265-16.577-16.581-1.44,8.941-14.308-14.849-7.3,13.414-10.141L-959.2,289.4l16.08-4.64-5.887-15.311,16.579,1.453.133-16.375,14.843,7.315,6.13-15.192,11.107,12.154,11.3-11.922,5.875,15.316,14.931-7.007-.146,16.375,16.546-1.111-6.143,15.187Z" transform="translate(961.497 -246.648)" fill="#980e1a"/>
    </g>
    <path id="パス_8052" data-name="パス 8052" d="M-17.68-3.4-21.216,0H-27.88l-3.4-3.4V-17l3.4-3.4h6.8l3.4,3.4Zm-3.4-1.394V-15.606L-22.474-17h-4.012l-1.394,1.394V-4.794L-26.486-3.4h4.012ZM-1.36-11.9-4.9-8.5H-11.56V0h-3.4V-20.4h10.2l3.4,3.4Zm-3.4-1.394v-2.312L-6.154-17H-11.56v5.1h5.406ZM14.96,0H1.36V-20.4h13.6V-17H4.76v5.1h5.1v3.4H4.76v5.1h10.2ZM31.28,0h-3.4l-6.8-12.988V0h-3.4V-20.4l3.4.034,6.8,12.988V-20.4h3.4ZM-25.84,28h-3.4V19.5h-6.8V28h-3.4V7.6h3.4v8.5h6.8V7.6h3.4Zm16.32-3.4L-13.056,28H-19.72l-3.4-3.4V11l3.4-3.4h6.8l3.4,3.4Zm-3.4-1.394V12.394L-14.314,11h-4.012l-1.394,1.394V23.206l1.394,1.394h4.012ZM6.8,24.6,3.4,28H-3.4l-3.4-3.4V7.6h3.4V23.206L-2.006,24.6H2.006L3.4,23.206V7.6H6.8Zm16.32,0L19.72,28h-6.8l-3.4-3.4V22.9h3.4v.306L14.314,24.6h4.012l1.394-1.394V20.894L18.326,19.5H12.92l-3.4-3.4V11l3.4-3.4h6.8l3.4,3.4v1.7h-3.4v-.306L18.326,11H14.314L12.92,12.394v2.312L14.314,16.1H19.72l3.4,3.4ZM39.44,28H25.84V7.6h13.6V11H29.24v5.1h5.1v3.4h-5.1v5.1h10.2Z" transform="translate(1065.324 2194.29)" fill="#fff"/>
  </g>
</svg>
