<svg xmlns="http://www.w3.org/2000/svg" xmlns:xlink="http://www.w3.org/1999/xlink" width="253.177" height="44.313" viewBox="0 0 253.177 44.313">
  <defs>
    <clipPath id="clip-path">
      <rect id="長方形_2225" data-name="長方形 2225" width="253.177" height="28.081" transform="translate(-10 0)" fill="#fde94c"/>
    </clipPath>
  </defs>
  <g id="グループ_3176" data-name="グループ 3176" transform="translate(-514 -540.792)">
    <g id="マスクグループ_37" data-name="マスクグループ 37" transform="translate(524 557.023)" clip-path="url(#clip-path)">
      <g id="グループ_2314" data-name="グループ 2314" transform="translate(-376.107 -34.081)">
        <line id="線_1377" data-name="線 1377" x1="188.491" y2="188.506" transform="translate(1380.66)" fill="none" stroke="#fde94c" stroke-miterlimit="10" stroke-width="3.163"/>
        <line id="線_1378" data-name="線 1378" x1="188.491" y2="188.506" transform="translate(1366.99)" fill="none" stroke="#fde94c" stroke-miterlimit="10" stroke-width="3.163"/>
        <line id="線_1379" data-name="線 1379" x1="188.491" y2="188.506" transform="translate(1353.321)" fill="none" stroke="#fde94c" stroke-miterlimit="10" stroke-width="3.163"/>
        <line id="線_1380" data-name="線 1380" x1="188.491" y2="188.506" transform="translate(1339.651)" fill="none" stroke="#fde94c" stroke-miterlimit="10" stroke-width="3.163"/>
        <line id="線_1381" data-name="線 1381" x1="188.491" y2="188.506" transform="translate(1325.981)" fill="none" stroke="#fde94c" stroke-miterlimit="10" stroke-width="3.163"/>
        <line id="線_1382" data-name="線 1382" x1="188.491" y2="188.506" transform="translate(1312.311)" fill="none" stroke="#fde94c" stroke-miterlimit="10" stroke-width="3.163"/>
        <line id="線_1383" data-name="線 1383" x1="188.491" y2="188.506" transform="translate(1298.641)" fill="none" stroke="#fde94c" stroke-miterlimit="10" stroke-width="3.163"/>
        <line id="線_1384" data-name="線 1384" x1="188.491" y2="188.506" transform="translate(1284.971)" fill="none" stroke="#fde94c" stroke-miterlimit="10" stroke-width="3.163"/>
        <line id="線_1385" data-name="線 1385" x1="188.491" y2="188.506" transform="translate(1271.301)" fill="none" stroke="#fde94c" stroke-miterlimit="10" stroke-width="3.163"/>
        <line id="線_1386" data-name="線 1386" x1="188.491" y2="188.506" transform="translate(1257.631)" fill="none" stroke="#fde94c" stroke-miterlimit="10" stroke-width="3.163"/>
        <line id="線_1387" data-name="線 1387" x1="188.491" y2="188.506" transform="translate(1243.961)" fill="none" stroke="#fde94c" stroke-miterlimit="10" stroke-width="3.163"/>
        <line id="線_1388" data-name="線 1388" x1="188.491" y2="188.506" transform="translate(1230.291)" fill="none" stroke="#fde94c" stroke-miterlimit="10" stroke-width="3.163"/>
        <line id="線_1389" data-name="線 1389" x1="188.491" y2="188.506" transform="translate(1216.622)" fill="none" stroke="#fde94c" stroke-miterlimit="10" stroke-width="3.163"/>
        <line id="線_1390" data-name="線 1390" x1="188.491" y2="188.506" transform="translate(1202.952)" fill="none" stroke="#fde94c" stroke-miterlimit="10" stroke-width="3.163"/>
        <line id="線_1391" data-name="線 1391" x1="188.492" y2="188.506" transform="translate(1189.282)" fill="none" stroke="#fde94c" stroke-miterlimit="10" stroke-width="3.163"/>
        <line id="線_1392" data-name="線 1392" x1="188.492" y2="188.506" transform="translate(1175.612)" fill="none" stroke="#fde94c" stroke-miterlimit="10" stroke-width="3.163"/>
        <line id="線_1393" data-name="線 1393" x1="188.492" y2="188.506" transform="translate(1161.942)" fill="none" stroke="#fde94c" stroke-miterlimit="10" stroke-width="3.163"/>
        <line id="線_1394" data-name="線 1394" x1="188.492" y2="188.506" transform="translate(1148.272)" fill="none" stroke="#fde94c" stroke-miterlimit="10" stroke-width="3.163"/>
        <line id="線_1395" data-name="線 1395" x1="188.492" y2="188.506" transform="translate(1134.602)" fill="none" stroke="#fde94c" stroke-miterlimit="10" stroke-width="3.163"/>
        <line id="線_1396" data-name="線 1396" x1="188.492" y2="188.506" transform="translate(1120.932)" fill="none" stroke="#fde94c" stroke-miterlimit="10" stroke-width="3.163"/>
        <line id="線_1397" data-name="線 1397" x1="188.492" y2="188.506" transform="translate(1107.262)" fill="none" stroke="#fde94c" stroke-miterlimit="10" stroke-width="3.163"/>
        <line id="線_1398" data-name="線 1398" x1="188.492" y2="188.506" transform="translate(1093.592)" fill="none" stroke="#fde94c" stroke-miterlimit="10" stroke-width="3.163"/>
        <line id="線_1399" data-name="線 1399" x1="188.492" y2="188.506" transform="translate(1079.922)" fill="none" stroke="#fde94c" stroke-miterlimit="10" stroke-width="3.163"/>
        <line id="線_1400" data-name="線 1400" x1="188.492" y2="188.506" transform="translate(1066.253)" fill="none" stroke="#fde94c" stroke-miterlimit="10" stroke-width="3.163"/>
        <line id="線_1401" data-name="線 1401" x1="188.492" y2="188.506" transform="translate(1052.583)" fill="none" stroke="#fde94c" stroke-miterlimit="10" stroke-width="3.163"/>
        <line id="線_1402" data-name="線 1402" x1="188.492" y2="188.506" transform="translate(1038.913)" fill="none" stroke="#fde94c" stroke-miterlimit="10" stroke-width="3.163"/>
        <line id="線_1403" data-name="線 1403" x1="188.492" y2="188.506" transform="translate(1025.243)" fill="none" stroke="#fde94c" stroke-miterlimit="10" stroke-width="3.163"/>
        <line id="線_1404" data-name="線 1404" x1="188.492" y2="188.506" transform="translate(1011.573)" fill="none" stroke="#fde94c" stroke-miterlimit="10" stroke-width="3.163"/>
        <line id="線_1405" data-name="線 1405" x1="188.492" y2="188.506" transform="translate(997.903)" fill="none" stroke="#fde94c" stroke-miterlimit="10" stroke-width="3.163"/>
        <line id="線_1406" data-name="線 1406" x1="188.492" y2="188.506" transform="translate(984.233)" fill="none" stroke="#fde94c" stroke-miterlimit="10" stroke-width="3.163"/>
        <line id="線_1407" data-name="線 1407" x1="188.493" y2="188.506" transform="translate(970.563)" fill="none" stroke="#fde94c" stroke-miterlimit="10" stroke-width="3.163"/>
        <line id="線_1408" data-name="線 1408" x1="188.493" y2="188.506" transform="translate(956.893)" fill="none" stroke="#fde94c" stroke-miterlimit="10" stroke-width="3.163"/>
        <line id="線_1409" data-name="線 1409" x1="188.493" y2="188.506" transform="translate(943.223)" fill="none" stroke="#fde94c" stroke-miterlimit="10" stroke-width="3.163"/>
        <line id="線_1410" data-name="線 1410" x1="188.493" y2="188.506" transform="translate(929.554)" fill="none" stroke="#fde94c" stroke-miterlimit="10" stroke-width="3.163"/>
        <line id="線_1411" data-name="線 1411" x1="188.493" y2="188.506" transform="translate(915.884)" fill="none" stroke="#fde94c" stroke-miterlimit="10" stroke-width="3.163"/>
        <line id="線_1412" data-name="線 1412" x1="188.493" y2="188.506" transform="translate(902.214)" fill="none" stroke="#fde94c" stroke-miterlimit="10" stroke-width="3.163"/>
        <line id="線_1413" data-name="線 1413" x1="188.493" y2="188.506" transform="translate(888.544)" fill="none" stroke="#fde94c" stroke-miterlimit="10" stroke-width="3.163"/>
        <line id="線_1414" data-name="線 1414" x1="188.493" y2="188.506" transform="translate(874.874)" fill="none" stroke="#fde94c" stroke-miterlimit="10" stroke-width="3.163"/>
        <line id="線_1415" data-name="線 1415" x1="188.493" y2="188.506" transform="translate(861.204)" fill="none" stroke="#fde94c" stroke-miterlimit="10" stroke-width="3.163"/>
        <line id="線_1416" data-name="線 1416" x1="188.493" y2="188.506" transform="translate(847.534)" fill="none" stroke="#fde94c" stroke-miterlimit="10" stroke-width="3.163"/>
        <line id="線_1417" data-name="線 1417" x1="188.493" y2="188.506" transform="translate(833.864)" fill="none" stroke="#fde94c" stroke-miterlimit="10" stroke-width="3.163"/>
        <line id="線_1418" data-name="線 1418" x1="188.493" y2="188.506" transform="translate(820.194)" fill="none" stroke="#fde94c" stroke-miterlimit="10" stroke-width="3.163"/>
        <line id="線_1419" data-name="線 1419" x1="188.493" y2="188.506" transform="translate(806.524)" fill="none" stroke="#fde94c" stroke-miterlimit="10" stroke-width="3.163"/>
        <line id="線_1420" data-name="線 1420" x1="188.493" y2="188.506" transform="translate(792.854)" fill="none" stroke="#fde94c" stroke-miterlimit="10" stroke-width="3.163"/>
        <line id="線_1421" data-name="線 1421" x1="188.493" y2="188.506" transform="translate(779.185)" fill="none" stroke="#fde94c" stroke-miterlimit="10" stroke-width="3.163"/>
        <line id="線_1422" data-name="線 1422" x1="188.493" y2="188.506" transform="translate(765.515)" fill="none" stroke="#fde94c" stroke-miterlimit="10" stroke-width="3.163"/>
        <line id="線_1423" data-name="線 1423" x1="188.494" y2="188.506" transform="translate(751.845)" fill="none" stroke="#fde94c" stroke-miterlimit="10" stroke-width="3.163"/>
        <line id="線_1424" data-name="線 1424" x1="188.494" y2="188.506" transform="translate(738.175)" fill="none" stroke="#fde94c" stroke-miterlimit="10" stroke-width="3.163"/>
        <line id="線_1425" data-name="線 1425" x1="188.494" y2="188.506" transform="translate(724.505)" fill="none" stroke="#fde94c" stroke-miterlimit="10" stroke-width="3.163"/>
        <line id="線_1426" data-name="線 1426" x1="188.494" y2="188.506" transform="translate(710.835)" fill="none" stroke="#fde94c" stroke-miterlimit="10" stroke-width="3.163"/>
        <line id="線_1427" data-name="線 1427" x1="188.494" y2="188.506" transform="translate(697.165)" fill="none" stroke="#fde94c" stroke-miterlimit="10" stroke-width="3.163"/>
        <line id="線_1428" data-name="線 1428" x1="188.494" y2="188.506" transform="translate(683.495)" fill="none" stroke="#fde94c" stroke-miterlimit="10" stroke-width="3.163"/>
        <line id="線_1429" data-name="線 1429" x1="188.494" y2="188.506" transform="translate(669.825)" fill="none" stroke="#fde94c" stroke-miterlimit="10" stroke-width="3.163"/>
        <line id="線_1430" data-name="線 1430" x1="188.494" y2="188.506" transform="translate(656.155)" fill="none" stroke="#fde94c" stroke-miterlimit="10" stroke-width="3.163"/>
        <line id="線_1431" data-name="線 1431" x1="188.494" y2="188.506" transform="translate(642.485)" fill="none" stroke="#fde94c" stroke-miterlimit="10" stroke-width="3.163"/>
        <line id="線_1432" data-name="線 1432" x1="188.494" y2="188.506" transform="translate(628.816)" fill="none" stroke="#fde94c" stroke-miterlimit="10" stroke-width="3.163"/>
        <line id="線_1433" data-name="線 1433" x1="188.494" y2="188.506" transform="translate(615.146)" fill="none" stroke="#fde94c" stroke-miterlimit="10" stroke-width="3.163"/>
        <line id="線_1434" data-name="線 1434" x1="188.494" y2="188.506" transform="translate(601.476)" fill="none" stroke="#fde94c" stroke-miterlimit="10" stroke-width="3.163"/>
        <line id="線_1435" data-name="線 1435" x1="188.494" y2="188.506" transform="translate(587.806)" fill="none" stroke="#fde94c" stroke-miterlimit="10" stroke-width="3.163"/>
        <line id="線_1436" data-name="線 1436" x1="188.494" y2="188.506" transform="translate(574.136)" fill="none" stroke="#fde94c" stroke-miterlimit="10" stroke-width="3.163"/>
        <line id="線_1437" data-name="線 1437" x1="188.494" y2="188.506" transform="translate(560.466)" fill="none" stroke="#fde94c" stroke-miterlimit="10" stroke-width="3.163"/>
        <line id="線_1438" data-name="線 1438" x1="188.494" y2="188.506" transform="translate(546.796)" fill="none" stroke="#fde94c" stroke-miterlimit="10" stroke-width="3.163"/>
        <line id="線_1439" data-name="線 1439" x1="188.495" y2="188.506" transform="translate(533.126)" fill="none" stroke="#fde94c" stroke-miterlimit="10" stroke-width="3.163"/>
        <line id="線_1440" data-name="線 1440" x1="188.495" y2="188.506" transform="translate(519.456)" fill="none" stroke="#fde94c" stroke-miterlimit="10" stroke-width="3.163"/>
        <line id="線_1441" data-name="線 1441" x1="188.495" y2="188.506" transform="translate(505.786)" fill="none" stroke="#fde94c" stroke-miterlimit="10" stroke-width="3.163"/>
        <line id="線_1442" data-name="線 1442" x1="188.495" y2="188.506" transform="translate(492.117)" fill="none" stroke="#fde94c" stroke-miterlimit="10" stroke-width="3.163"/>
        <line id="線_1443" data-name="線 1443" x1="188.495" y2="188.506" transform="translate(478.447)" fill="none" stroke="#fde94c" stroke-miterlimit="10" stroke-width="3.163"/>
        <line id="線_1444" data-name="線 1444" x1="188.495" y2="188.506" transform="translate(464.777)" fill="none" stroke="#fde94c" stroke-miterlimit="10" stroke-width="3.163"/>
        <line id="線_1445" data-name="線 1445" x1="188.495" y2="188.506" transform="translate(451.107)" fill="none" stroke="#fde94c" stroke-miterlimit="10" stroke-width="3.163"/>
        <line id="線_1446" data-name="線 1446" x1="188.495" y2="188.506" transform="translate(437.437)" fill="none" stroke="#fde94c" stroke-miterlimit="10" stroke-width="3.163"/>
        <line id="線_1447" data-name="線 1447" x1="188.495" y2="188.506" transform="translate(423.767)" fill="none" stroke="#fde94c" stroke-miterlimit="10" stroke-width="3.163"/>
        <line id="線_1448" data-name="線 1448" x1="188.495" y2="188.506" transform="translate(410.097)" fill="none" stroke="#fde94c" stroke-miterlimit="10" stroke-width="3.163"/>
        <line id="線_1449" data-name="線 1449" x1="188.495" y2="188.506" transform="translate(396.427)" fill="none" stroke="#fde94c" stroke-miterlimit="10" stroke-width="3.163"/>
        <line id="線_1450" data-name="線 1450" x1="188.495" y2="188.506" transform="translate(382.757)" fill="none" stroke="#fde94c" stroke-miterlimit="10" stroke-width="3.163"/>
        <line id="線_1451" data-name="線 1451" x1="188.495" y2="188.506" transform="translate(369.087)" fill="none" stroke="#fde94c" stroke-miterlimit="10" stroke-width="3.163"/>
        <line id="線_1452" data-name="線 1452" x1="188.495" y2="188.506" transform="translate(355.417)" fill="none" stroke="#fde94c" stroke-miterlimit="10" stroke-width="3.163"/>
        <line id="線_1453" data-name="線 1453" x1="188.495" y2="188.506" transform="translate(341.748)" fill="none" stroke="#fde94c" stroke-miterlimit="10" stroke-width="3.163"/>
        <line id="線_1454" data-name="線 1454" x1="188.495" y2="188.506" transform="translate(328.078)" fill="none" stroke="#fde94c" stroke-miterlimit="10" stroke-width="3.163"/>
        <line id="線_1455" data-name="線 1455" x1="188.496" y2="188.506" transform="translate(314.408)" fill="none" stroke="#fde94c" stroke-miterlimit="10" stroke-width="3.163"/>
        <line id="線_1456" data-name="線 1456" x1="188.496" y2="188.506" transform="translate(300.738)" fill="none" stroke="#fde94c" stroke-miterlimit="10" stroke-width="3.163"/>
        <line id="線_1457" data-name="線 1457" x1="188.496" y2="188.506" transform="translate(287.068)" fill="none" stroke="#fde94c" stroke-miterlimit="10" stroke-width="3.163"/>
        <line id="線_1458" data-name="線 1458" x1="188.496" y2="188.506" transform="translate(273.398)" fill="none" stroke="#fde94c" stroke-miterlimit="10" stroke-width="3.163"/>
        <line id="線_1459" data-name="線 1459" x1="188.496" y2="188.506" transform="translate(259.728)" fill="none" stroke="#fde94c" stroke-miterlimit="10" stroke-width="3.163"/>
        <line id="線_1460" data-name="線 1460" x1="188.496" y2="188.506" transform="translate(246.058)" fill="none" stroke="#fde94c" stroke-miterlimit="10" stroke-width="3.163"/>
        <line id="線_1461" data-name="線 1461" x1="188.496" y2="188.506" transform="translate(232.389)" fill="none" stroke="#fde94c" stroke-miterlimit="10" stroke-width="3.163"/>
        <line id="線_1462" data-name="線 1462" x1="188.496" y2="188.506" transform="translate(218.718)" fill="none" stroke="#fde94c" stroke-miterlimit="10" stroke-width="3.163"/>
        <line id="線_1463" data-name="線 1463" x1="188.496" y2="188.506" transform="translate(205.049)" fill="none" stroke="#fde94c" stroke-miterlimit="10" stroke-width="3.163"/>
        <line id="線_1464" data-name="線 1464" x1="188.496" y2="188.506" transform="translate(191.379)" fill="none" stroke="#fde94c" stroke-miterlimit="10" stroke-width="3.163"/>
        <line id="線_1465" data-name="線 1465" x1="188.496" y2="188.506" transform="translate(177.709)" fill="none" stroke="#fde94c" stroke-miterlimit="10" stroke-width="3.163"/>
        <line id="線_1466" data-name="線 1466" x1="188.496" y2="188.506" transform="translate(164.039)" fill="none" stroke="#fde94c" stroke-miterlimit="10" stroke-width="3.163"/>
        <line id="線_1467" data-name="線 1467" x1="188.496" y2="188.506" transform="translate(150.369)" fill="none" stroke="#fde94c" stroke-miterlimit="10" stroke-width="3.163"/>
        <line id="線_1468" data-name="線 1468" x1="188.496" y2="188.506" transform="translate(136.699)" fill="none" stroke="#fde94c" stroke-miterlimit="10" stroke-width="3.163"/>
        <line id="線_1469" data-name="線 1469" x1="188.496" y2="188.506" transform="translate(123.029)" fill="none" stroke="#fde94c" stroke-miterlimit="10" stroke-width="3.163"/>
        <line id="線_1470" data-name="線 1470" x1="188.496" y2="188.506" transform="translate(109.359)" fill="none" stroke="#fde94c" stroke-miterlimit="10" stroke-width="3.163"/>
        <line id="線_1471" data-name="線 1471" x1="188.497" y2="188.506" transform="translate(95.689)" fill="none" stroke="#fde94c" stroke-miterlimit="10" stroke-width="3.163"/>
        <line id="線_1472" data-name="線 1472" x1="188.497" y2="188.506" transform="translate(82.02)" fill="none" stroke="#fde94c" stroke-miterlimit="10" stroke-width="3.163"/>
        <line id="線_1473" data-name="線 1473" x1="188.497" y2="188.506" transform="translate(68.349)" fill="none" stroke="#fde94c" stroke-miterlimit="10" stroke-width="3.163"/>
        <line id="線_1474" data-name="線 1474" x1="188.497" y2="188.506" transform="translate(54.68)" fill="none" stroke="#fde94c" stroke-miterlimit="10" stroke-width="3.163"/>
        <line id="線_1475" data-name="線 1475" x1="188.497" y2="188.506" transform="translate(41.01)" fill="none" stroke="#fde94c" stroke-miterlimit="10" stroke-width="3.163"/>
        <line id="線_1476" data-name="線 1476" x1="188.497" y2="188.506" transform="translate(27.34)" fill="none" stroke="#fde94c" stroke-miterlimit="10" stroke-width="3.163"/>
        <line id="線_1477" data-name="線 1477" x1="188.497" y2="188.506" transform="translate(13.67)" fill="none" stroke="#fde94c" stroke-miterlimit="10" stroke-width="3.163"/>
        <line id="線_1478" data-name="線 1478" x1="188.497" y2="188.506" fill="none" stroke="#fde94c" stroke-miterlimit="10" stroke-width="3.163"/>
      </g>
    </g>
    <g id="グループ_2423" data-name="グループ 2423" transform="translate(-52 -23)">
      <g id="グループ_2422" data-name="グループ 2422" transform="translate(-889.862 1960.12)">
        <g id="グループ_2420" data-name="グループ 2420" transform="translate(1464.882 -1393.269)">
          <path id="パス_7271" data-name="パス 7271" d="M1496.591-1360.968a3.752,3.752,0,0,0-2.181.358l-.029.014a6.548,6.548,0,0,1-1.836.636,10.975,10.975,0,0,1-2,.186,10.265,10.265,0,0,1-3.357-.532,6.96,6.96,0,0,1-2.6-1.582,7.446,7.446,0,0,1-1.733-2.688,10.877,10.877,0,0,1-.641-3.926,10.312,10.312,0,0,1,.569-3.506,7.553,7.553,0,0,1,1.63-2.673,7.274,7.274,0,0,1,2.591-1.731,9.509,9.509,0,0,1,3.537-.618,9.2,9.2,0,0,1,2.028.219,9.447,9.447,0,0,1,1.838.617,4.02,4.02,0,0,0,2.139.4,2.727,2.727,0,0,0,1.968-1.147,3.388,3.388,0,0,0,.758-2.739,3.033,3.033,0,0,0-1.7-2.3,15.009,15.009,0,0,0-3.368-1.236,15.844,15.844,0,0,0-3.658-.426,16.337,16.337,0,0,0-6.112,1.128,14.835,14.835,0,0,0-4.887,3.161,14.169,14.169,0,0,0-3.213,4.816,15.912,15.912,0,0,0-1.13,6.036,16.741,16.741,0,0,0,1.237,6.633,13.545,13.545,0,0,0,3.417,4.829,14.811,14.811,0,0,0,4.91,2.9,17.15,17.15,0,0,0,5.778.975,15.364,15.364,0,0,0,2.429-.192,17.237,17.237,0,0,0,2.349-.55,15,15,0,0,0,2.27-.911,3.021,3.021,0,0,0,1.714-2.173,3.326,3.326,0,0,0-.753-2.8A2.984,2.984,0,0,0,1496.591-1360.968Z" transform="translate(-1475.203 1383.843)" fill="#231815"/>
          <path id="パス_7272" data-name="パス 7272" d="M1624.005-1382.861a3.408,3.408,0,0,0-2.374.94,3.193,3.193,0,0,0-1.052,2.406v8.327h-11v-8.327a3.185,3.185,0,0,0-1.024-2.4,3.3,3.3,0,0,0-2.322-.947,3.42,3.42,0,0,0-2.472.957,3.215,3.215,0,0,0-.994,2.39v23.187a3.285,3.285,0,0,0,.936,2.372,3.279,3.279,0,0,0,2.45.975,3.411,3.411,0,0,0,2.375-.94,3.193,3.193,0,0,0,1.052-2.406v-8.448h11v8.448a3.179,3.179,0,0,0,1.023,2.4,3.291,3.291,0,0,0,2.323.948,3.4,3.4,0,0,0,2.5-.966,3.25,3.25,0,0,0,.965-2.381v-23.187a3.288,3.288,0,0,0-.937-2.372A3.281,3.281,0,0,0,1624.005-1382.861Z" transform="translate(-1569.992 1383.262)" fill="#231815"/>
          <path id="パス_7273" data-name="パス 7273" d="M1746.243-1379.9a14.043,14.043,0,0,0-4.627-3.321,14.2,14.2,0,0,0-5.843-1.2,14.056,14.056,0,0,0-5.826,1.2,14.088,14.088,0,0,0-4.6,3.32,15.254,15.254,0,0,0-3.006,4.879,16.476,16.476,0,0,0-1.063,5.939,16.47,16.47,0,0,0,1.063,5.939,15.248,15.248,0,0,0,3.005,4.879,14.084,14.084,0,0,0,4.6,3.32,14.058,14.058,0,0,0,5.826,1.2,14.2,14.2,0,0,0,5.843-1.2,14.039,14.039,0,0,0,4.627-3.321,15.265,15.265,0,0,0,3.005-4.879,16.476,16.476,0,0,0,1.063-5.939,16.484,16.484,0,0,0-1.063-5.939A15.272,15.272,0,0,0,1746.243-1379.9Zm-10.47,19.547a6.641,6.641,0,0,1-3.867-1.128,7.853,7.853,0,0,1-2.646-3.12,10.155,10.155,0,0,1-.973-4.481,10.123,10.123,0,0,1,.971-4.5,7.886,7.886,0,0,1,2.647-3.1,6.644,6.644,0,0,1,3.866-1.128,6.647,6.647,0,0,1,3.867,1.128,8.026,8.026,0,0,1,2.669,3.126,9.991,9.991,0,0,1,.99,4.475,9.985,9.985,0,0,1-.99,4.475,8.016,8.016,0,0,1-2.669,3.126A6.645,6.645,0,0,1,1735.772-1360.354Z" transform="translate(-1658.052 1384.423)" fill="#231815"/>
          <path id="パス_7274" data-name="パス 7274" d="M1866.658-1382.861a3.419,3.419,0,0,0-2.472.957,3.215,3.215,0,0,0-.995,2.39v23.187a3.285,3.285,0,0,0,.936,2.372,3.279,3.279,0,0,0,2.45.975,3.41,3.41,0,0,0,2.374-.94,3.193,3.193,0,0,0,1.052-2.406v-23.187a3.185,3.185,0,0,0-1.024-2.4A3.3,3.3,0,0,0,1866.658-1382.861Z" transform="translate(-1763.507 1383.262)" fill="#231815"/>
          <path id="パス_7275" data-name="パス 7275" d="M1935.056-1335.712h-6.98a3.325,3.325,0,0,0-2.362.907,3.114,3.114,0,0,0-.985,2.359,3.179,3.179,0,0,0,.974,2.369,3.283,3.283,0,0,0,2.372.937h6.98a3.33,3.33,0,0,0,2.362-.907,3.109,3.109,0,0,0,.984-2.319,3.252,3.252,0,0,0-.966-2.381A3.251,3.251,0,0,0,1935.056-1335.712Z" transform="translate(-1809.235 1348.227)" fill="#231815"/>
          <path id="パス_7276" data-name="パス 7276" d="M2025.864-1369.569a10.839,10.839,0,0,0-3.3-1.691,33.16,33.16,0,0,0-4.341-1.071,22.583,22.583,0,0,1-3.046-.79,3.91,3.91,0,0,1-1.653-.995,1.977,1.977,0,0,1-.472-1.385,1.879,1.879,0,0,1,.408-1.208,3.132,3.132,0,0,1,1.394-.919,7.541,7.541,0,0,1,2.594-.385,7.431,7.431,0,0,1,2,.307,14.685,14.685,0,0,1,2.153.793,6.424,6.424,0,0,1,1.511.924l.052.042a2.649,2.649,0,0,0,1.623.541,3.055,3.055,0,0,0,2.258-1,3.168,3.168,0,0,0,.927-2.222,3.538,3.538,0,0,0-1.49-2.82,12.21,12.21,0,0,0-3.905-2.141,15.443,15.443,0,0,0-5.132-.833,13.846,13.846,0,0,0-5.4,1.033,9.336,9.336,0,0,0-4.008,3.107,8.27,8.27,0,0,0-1.516,4.982,9.131,9.131,0,0,0,.628,3.447,7.575,7.575,0,0,0,1.887,2.728,9.772,9.772,0,0,0,3.023,1.86,17.806,17.806,0,0,0,4.022,1.039,16.223,16.223,0,0,1,3.568.849,4.65,4.65,0,0,1,1.852,1.172,2.148,2.148,0,0,1,.506,1.461,1.592,1.592,0,0,1-.507,1.157,4.485,4.485,0,0,1-1.675,1.028,6.925,6.925,0,0,1-2.415.405,8.63,8.63,0,0,1-3.358-.57,11.911,11.911,0,0,1-2.82-1.76,3.013,3.013,0,0,0-1.926-.678,3.11,3.11,0,0,0-2.319.985,3.181,3.181,0,0,0-.906,2.241,3.386,3.386,0,0,0,.375,1.524,4.044,4.044,0,0,0,1.019,1.283,13.045,13.045,0,0,0,4.612,2.645,17.9,17.9,0,0,0,5.322.743,13.735,13.735,0,0,0,5.428-1.075,10.169,10.169,0,0,0,4.151-3.168,8.084,8.084,0,0,0,1.63-5.04,9.836,9.836,0,0,0-.673-3.82A6.763,6.763,0,0,0,2025.864-1369.569Z" transform="translate(-1869.682 1384.423)" fill="#231815"/>
          <path id="パス_7277" data-name="パス 7277" d="M2133.719-1382.861h-17.812a3.42,3.42,0,0,0-2.341.848,3.026,3.026,0,0,0-1,2.338,3.086,3.086,0,0,0,.994,2.348,3.369,3.369,0,0,0,2.352.878h5.4v20.121a3.214,3.214,0,0,0,.994,2.39,3.419,3.419,0,0,0,2.472.957,3.543,3.543,0,0,0,2.523-.948,3.182,3.182,0,0,0,1.024-2.4v-20.121h5.4a3.419,3.419,0,0,0,2.341-.848,3.024,3.024,0,0,0,1.005-2.338,3.092,3.092,0,0,0-.995-2.349A3.374,3.374,0,0,0,2133.719-1382.861Z" transform="translate(-1948.807 1383.262)" fill="#231815"/>
          <path id="パス_7278" data-name="パス 7278" d="M2235.386-1381.349a3.263,3.263,0,0,0-1.235-1.6,3.245,3.245,0,0,0-1.8-.576,2.993,2.993,0,0,0-1.97.512,3.5,3.5,0,0,0-1.314,1.646l-9.989,23.989-.031.088a3.572,3.572,0,0,0-.158,1.02,3.071,3.071,0,0,0,.741,2.073,2.869,2.869,0,0,0,2.285.912,3,3,0,0,0,1.791-.592,3.355,3.355,0,0,0,1.17-1.578l1.84-4.328h10.775l1.847,4.3a3.759,3.759,0,0,0,1.188,1.571,2.991,2.991,0,0,0,1.847.625,3.124,3.124,0,0,0,2.151-.877,3.136,3.136,0,0,0,.995-2.389,3.6,3.6,0,0,0-.26-1.285Zm-5.945,15.157,2.636-6.2,2.661,6.2Z" transform="translate(-2027.816 1383.763)" fill="#231815"/>
          <path id="パス_7279" data-name="パス 7279" d="M2351.739-1382.383a3.248,3.248,0,0,0-2.282-.947,3.293,3.293,0,0,0-2.748,1.6l-5.891,8.62-6.327-8.732a3.3,3.3,0,0,0-2.685-1.483,3.611,3.611,0,0,0-2.291.882,3.077,3.077,0,0,0-1.176,2.464,3.7,3.7,0,0,0,.206,1.165,4.322,4.322,0,0,0,.7,1.261l8.163,10.847v10.035a3.248,3.248,0,0,0,.965,2.381,3.2,3.2,0,0,0,2.342.966,3.109,3.109,0,0,0,2.26-.965,3.249,3.249,0,0,0,.966-2.381v-9.5l8.233-11.788a3.379,3.379,0,0,0,.463-1.013,3.844,3.844,0,0,0,.13-.97A3.23,3.23,0,0,0,2351.739-1382.383Z" transform="translate(-2109.146 1383.611)" fill="#231815"/>
        </g>
        <g id="グループ_2421" data-name="グループ 2421" transform="translate(1461.313 -1396.328)">
          <path id="パス_7280" data-name="パス 7280" d="M1482.7-1372.873a3.753,3.753,0,0,0-2.181.358l-.029.015a6.559,6.559,0,0,1-1.835.636,11,11,0,0,1-2,.185,10.265,10.265,0,0,1-3.357-.532,6.955,6.955,0,0,1-2.6-1.581,7.446,7.446,0,0,1-1.733-2.688,10.877,10.877,0,0,1-.641-3.926,10.312,10.312,0,0,1,.569-3.506,7.556,7.556,0,0,1,1.63-2.673,7.269,7.269,0,0,1,2.591-1.731,9.509,9.509,0,0,1,3.537-.618,9.179,9.179,0,0,1,2.028.219,9.438,9.438,0,0,1,1.838.617,4.016,4.016,0,0,0,2.139.4,2.726,2.726,0,0,0,1.968-1.147,3.388,3.388,0,0,0,.758-2.739,3.033,3.033,0,0,0-1.705-2.3,15.017,15.017,0,0,0-3.367-1.236,15.857,15.857,0,0,0-3.658-.426,16.333,16.333,0,0,0-6.112,1.128,14.831,14.831,0,0,0-4.887,3.161,14.174,14.174,0,0,0-3.213,4.816,15.916,15.916,0,0,0-1.13,6.036,16.747,16.747,0,0,0,1.237,6.633,13.549,13.549,0,0,0,3.417,4.829,14.814,14.814,0,0,0,4.91,2.9,17.157,17.157,0,0,0,5.778.975,15.363,15.363,0,0,0,2.429-.192,17.271,17.271,0,0,0,2.349-.55,15.007,15.007,0,0,0,2.27-.911,3.021,3.021,0,0,0,1.714-2.173,3.325,3.325,0,0,0-.753-2.8A2.982,2.982,0,0,0,1482.7-1372.873Z" transform="translate(-1461.313 1395.748)" fill="#fff"/>
          <path id="パス_7281" data-name="パス 7281" d="M1610.115-1394.767a3.41,3.41,0,0,0-2.374.94,3.193,3.193,0,0,0-1.052,2.407v8.327h-11v-8.327a3.183,3.183,0,0,0-1.024-2.4,3.294,3.294,0,0,0-2.322-.948,3.419,3.419,0,0,0-2.472.957,3.215,3.215,0,0,0-.994,2.39v23.187a3.285,3.285,0,0,0,.936,2.371,3.278,3.278,0,0,0,2.45.975,3.41,3.41,0,0,0,2.374-.94,3.193,3.193,0,0,0,1.052-2.406v-8.448h11v8.448a3.179,3.179,0,0,0,1.023,2.4,3.291,3.291,0,0,0,2.323.948,3.4,3.4,0,0,0,2.5-.966,3.25,3.25,0,0,0,.965-2.381v-23.187a3.289,3.289,0,0,0-.937-2.373A3.282,3.282,0,0,0,1610.115-1394.767Z" transform="translate(-1556.102 1395.168)" fill="#fff"/>
          <path id="パス_7282" data-name="パス 7282" d="M1732.353-1391.805a14.05,14.05,0,0,0-4.627-3.321,14.206,14.206,0,0,0-5.844-1.2,14.057,14.057,0,0,0-5.825,1.2,14.094,14.094,0,0,0-4.6,3.32,15.256,15.256,0,0,0-3.005,4.879,16.473,16.473,0,0,0-1.063,5.939,16.468,16.468,0,0,0,1.063,5.939,15.246,15.246,0,0,0,3.005,4.879,14.084,14.084,0,0,0,4.6,3.32,14.059,14.059,0,0,0,5.825,1.2,14.2,14.2,0,0,0,5.844-1.2,14.046,14.046,0,0,0,4.627-3.321,15.267,15.267,0,0,0,3.005-4.879,16.483,16.483,0,0,0,1.063-5.939,16.491,16.491,0,0,0-1.063-5.939A15.276,15.276,0,0,0,1732.353-1391.805Zm-10.47,19.547a6.641,6.641,0,0,1-3.866-1.128,7.85,7.85,0,0,1-2.646-3.12,10.152,10.152,0,0,1-.973-4.481,10.121,10.121,0,0,1,.971-4.5,7.884,7.884,0,0,1,2.647-3.1,6.643,6.643,0,0,1,3.866-1.128,6.647,6.647,0,0,1,3.867,1.128,8.022,8.022,0,0,1,2.669,3.126,9.988,9.988,0,0,1,.99,4.475,9.986,9.986,0,0,1-.99,4.475,8.016,8.016,0,0,1-2.669,3.126A6.644,6.644,0,0,1,1721.882-1372.259Z" transform="translate(-1644.162 1396.328)" fill="#fff"/>
          <path id="パス_7283" data-name="パス 7283" d="M1852.769-1394.767a3.419,3.419,0,0,0-2.472.957,3.215,3.215,0,0,0-.994,2.39v23.187a3.285,3.285,0,0,0,.936,2.371,3.278,3.278,0,0,0,2.45.975,3.411,3.411,0,0,0,2.375-.94,3.193,3.193,0,0,0,1.052-2.406v-23.187a3.184,3.184,0,0,0-1.024-2.4A3.294,3.294,0,0,0,1852.769-1394.767Z" transform="translate(-1749.617 1395.168)" fill="#fff"/>
          <path id="パス_7284" data-name="パス 7284" d="M1921.167-1347.617h-6.98a3.325,3.325,0,0,0-2.362.907,3.114,3.114,0,0,0-.984,2.359,3.18,3.18,0,0,0,.974,2.369,3.285,3.285,0,0,0,2.373.937h6.98a3.329,3.329,0,0,0,2.362-.907,3.109,3.109,0,0,0,.984-2.319,3.252,3.252,0,0,0-.966-2.381A3.251,3.251,0,0,0,1921.167-1347.617Z" transform="translate(-1795.345 1360.132)" fill="#fff"/>
          <path id="パス_7285" data-name="パス 7285" d="M2011.974-1381.475a10.853,10.853,0,0,0-3.3-1.691,33.146,33.146,0,0,0-4.341-1.071,22.519,22.519,0,0,1-3.046-.789,3.911,3.911,0,0,1-1.653-.995,1.978,1.978,0,0,1-.472-1.385,1.878,1.878,0,0,1,.408-1.208,3.131,3.131,0,0,1,1.394-.919,7.542,7.542,0,0,1,2.594-.385,7.426,7.426,0,0,1,2,.307,14.661,14.661,0,0,1,2.154.793,6.426,6.426,0,0,1,1.511.924l.052.042a2.648,2.648,0,0,0,1.622.541,3.054,3.054,0,0,0,2.258-1,3.166,3.166,0,0,0,.927-2.222,3.538,3.538,0,0,0-1.49-2.819,12.211,12.211,0,0,0-3.905-2.141,15.437,15.437,0,0,0-5.132-.833,13.846,13.846,0,0,0-5.4,1.033,9.34,9.34,0,0,0-4.009,3.107,8.269,8.269,0,0,0-1.516,4.982,9.13,9.13,0,0,0,.627,3.447,7.583,7.583,0,0,0,1.887,2.728,9.778,9.778,0,0,0,3.023,1.86,17.817,17.817,0,0,0,4.022,1.039,16.227,16.227,0,0,1,3.567.849,4.652,4.652,0,0,1,1.852,1.172,2.147,2.147,0,0,1,.506,1.461,1.591,1.591,0,0,1-.507,1.157,4.48,4.48,0,0,1-1.675,1.028,6.923,6.923,0,0,1-2.415.405,8.635,8.635,0,0,1-3.358-.57,11.911,11.911,0,0,1-2.819-1.761,3.013,3.013,0,0,0-1.926-.678,3.111,3.111,0,0,0-2.32.985,3.18,3.18,0,0,0-.906,2.241,3.387,3.387,0,0,0,.375,1.524,4.039,4.039,0,0,0,1.019,1.283,13.043,13.043,0,0,0,4.612,2.645,17.9,17.9,0,0,0,5.322.743,13.736,13.736,0,0,0,5.428-1.075,10.168,10.168,0,0,0,4.151-3.168,8.082,8.082,0,0,0,1.629-5.04,9.834,9.834,0,0,0-.673-3.82A6.765,6.765,0,0,0,2011.974-1381.475Z" transform="translate(-1855.791 1396.328)" fill="#fff"/>
          <path id="パス_7286" data-name="パス 7286" d="M2119.829-1394.767h-17.812a3.421,3.421,0,0,0-2.341.848,3.026,3.026,0,0,0-1,2.338,3.086,3.086,0,0,0,.994,2.348,3.369,3.369,0,0,0,2.352.878h5.4v20.122a3.215,3.215,0,0,0,.994,2.39,3.419,3.419,0,0,0,2.473.957,3.543,3.543,0,0,0,2.523-.948,3.183,3.183,0,0,0,1.024-2.4v-20.122h5.4a3.419,3.419,0,0,0,2.341-.848,3.024,3.024,0,0,0,1-2.338,3.093,3.093,0,0,0-.995-2.349A3.375,3.375,0,0,0,2119.829-1394.767Z" transform="translate(-1934.917 1395.168)" fill="#fff"/>
          <path id="パス_7287" data-name="パス 7287" d="M2221.5-1393.255a3.269,3.269,0,0,0-1.235-1.6,3.247,3.247,0,0,0-1.8-.575,2.994,2.994,0,0,0-1.97.512,3.5,3.5,0,0,0-1.314,1.646l-9.989,23.989-.031.088a3.575,3.575,0,0,0-.158,1.02,3.071,3.071,0,0,0,.741,2.073,2.869,2.869,0,0,0,2.285.912,3,3,0,0,0,1.791-.592,3.357,3.357,0,0,0,1.17-1.579l1.84-4.328H2223.6l1.846,4.3a3.761,3.761,0,0,0,1.188,1.571,2.991,2.991,0,0,0,1.848.624,3.123,3.123,0,0,0,2.151-.877,3.136,3.136,0,0,0,.995-2.389,3.605,3.605,0,0,0-.26-1.285Zm-5.944,15.157,2.636-6.2,2.661,6.2Z" transform="translate(-2013.926 1395.669)" fill="#fff"/>
          <path id="パス_7288" data-name="パス 7288" d="M2337.85-1394.288a3.249,3.249,0,0,0-2.282-.948,3.294,3.294,0,0,0-2.748,1.6l-5.891,8.62-6.327-8.732a3.3,3.3,0,0,0-2.685-1.483,3.61,3.61,0,0,0-2.291.883,3.077,3.077,0,0,0-1.176,2.464,3.7,3.7,0,0,0,.206,1.165,4.324,4.324,0,0,0,.7,1.26l8.164,10.847v10.035a3.247,3.247,0,0,0,.965,2.38,3.2,3.2,0,0,0,2.341.966,3.11,3.11,0,0,0,2.26-.965,3.25,3.25,0,0,0,.965-2.381v-9.5l8.233-11.788a3.375,3.375,0,0,0,.463-1.013,3.831,3.831,0,0,0,.13-.97A3.231,3.231,0,0,0,2337.85-1394.288Z" transform="translate(-2095.257 1395.516)" fill="#fff"/>
        </g>
      </g>
    </g>
  </g>
</svg>
