<svg xmlns="http://www.w3.org/2000/svg" xmlns:xlink="http://www.w3.org/1999/xlink" width="207.42" height="261.573" viewBox="0 0 207.42 261.573">
  <defs>
    <clipPath id="clip-path">
      <path id="パス_6938" data-name="パス 6938" d="M-347.994,1218.9V1114.235l-81.4-69.774-81.4,69.774V1218.9Z" transform="translate(-1078.699 680.644)" fill="none" stroke="#fff079" stroke-linecap="round" stroke-linejoin="round" stroke-width="6"/>
    </clipPath>
    <clipPath id="clip-path-2">
      <rect id="長方形_2229" data-name="長方形 2229" width="69" height="19" transform="translate(503.554 5168.52)" fill="#fff"/>
    </clipPath>
  </defs>
  <g id="グループ_2791" data-name="グループ 2791" transform="translate(924.94 -1165.105)">
    <g id="グループ_2467" data-name="グループ 2467" transform="translate(-1348.5 -174)">
      <path id="パス_7330" data-name="パス 7330" d="M-347.994,1218.9V1114.235l-81.4-69.774-81.4,69.774V1218.9Z" transform="translate(957.301 297.644)" fill="#fff" stroke="#fff079" stroke-linecap="round" stroke-linejoin="round" stroke-width="6"/>
      <g id="マスクグループ_52" data-name="マスクグループ 52" transform="translate(2036 -383)" clip-path="url(#clip-path)">
        <g id="グループ_2462" data-name="グループ 2462" transform="translate(-290.964)">
          <g id="グループ_2461" data-name="グループ 2461" transform="translate(-2095 1717)">
            <line id="線_2091" data-name="線 2091" x1="189.81" y2="189.826" transform="translate(1390.327 0)" fill="none" stroke="#fff079" stroke-miterlimit="10" stroke-width="3.163"/>
            <line id="線_2092" data-name="線 2092" x1="189.81" y2="189.826" transform="translate(1376.562 0)" fill="none" stroke="#fff079" stroke-miterlimit="10" stroke-width="3.163"/>
            <line id="線_2093" data-name="線 2093" x1="189.811" y2="189.826" transform="translate(1362.796 0)" fill="none" stroke="#fff079" stroke-miterlimit="10" stroke-width="3.163"/>
            <line id="線_2094" data-name="線 2094" x1="189.811" y2="189.826" transform="translate(1349.031 0)" fill="none" stroke="#fff079" stroke-miterlimit="10" stroke-width="3.163"/>
            <line id="線_2095" data-name="線 2095" x1="189.811" y2="189.826" transform="translate(1335.265 0)" fill="none" stroke="#fff079" stroke-miterlimit="10" stroke-width="3.163"/>
            <line id="線_2096" data-name="線 2096" x1="189.811" y2="189.826" transform="translate(1321.499 0)" fill="none" stroke="#fff079" stroke-miterlimit="10" stroke-width="3.163"/>
            <line id="線_2097" data-name="線 2097" x1="189.811" y2="189.826" transform="translate(1307.734 0)" fill="none" stroke="#fff079" stroke-miterlimit="10" stroke-width="3.163"/>
            <line id="線_2098" data-name="線 2098" x1="189.811" y2="189.826" transform="translate(1293.968 0)" fill="none" stroke="#fff079" stroke-miterlimit="10" stroke-width="3.163"/>
            <line id="線_2099" data-name="線 2099" x1="189.811" y2="189.826" transform="translate(1280.202 0)" fill="none" stroke="#fff079" stroke-miterlimit="10" stroke-width="3.163"/>
            <line id="線_2100" data-name="線 2100" x1="189.811" y2="189.826" transform="translate(1266.437 0)" fill="none" stroke="#fff079" stroke-miterlimit="10" stroke-width="3.163"/>
            <line id="線_2101" data-name="線 2101" x1="189.811" y2="189.826" transform="translate(1252.671 0)" fill="none" stroke="#fff079" stroke-miterlimit="10" stroke-width="3.163"/>
            <line id="線_2102" data-name="線 2102" x1="189.811" y2="189.826" transform="translate(1238.906 0)" fill="none" stroke="#fff079" stroke-miterlimit="10" stroke-width="3.163"/>
            <line id="線_2103" data-name="線 2103" x1="189.811" y2="189.826" transform="translate(1225.14 0)" fill="none" stroke="#fff079" stroke-miterlimit="10" stroke-width="3.163"/>
            <line id="線_2104" data-name="線 2104" x1="189.811" y2="189.826" transform="translate(1211.374 0)" fill="none" stroke="#fff079" stroke-miterlimit="10" stroke-width="3.163"/>
            <line id="線_2105" data-name="線 2105" x1="189.811" y2="189.826" transform="translate(1197.609 0)" fill="none" stroke="#fff079" stroke-miterlimit="10" stroke-width="3.163"/>
            <line id="線_2106" data-name="線 2106" x1="189.811" y2="189.826" transform="translate(1183.843 0)" fill="none" stroke="#fff079" stroke-miterlimit="10" stroke-width="3.163"/>
            <line id="線_2107" data-name="線 2107" x1="189.811" y2="189.826" transform="translate(1170.077 0)" fill="none" stroke="#fff079" stroke-miterlimit="10" stroke-width="3.163"/>
            <line id="線_2108" data-name="線 2108" x1="189.811" y2="189.826" transform="translate(1156.312 0)" fill="none" stroke="#fff079" stroke-miterlimit="10" stroke-width="3.163"/>
            <line id="線_2109" data-name="線 2109" x1="189.812" y2="189.826" transform="translate(1142.546 0)" fill="none" stroke="#fff079" stroke-miterlimit="10" stroke-width="3.163"/>
            <line id="線_2110" data-name="線 2110" x1="189.812" y2="189.826" transform="translate(1128.781 0)" fill="none" stroke="#fff079" stroke-miterlimit="10" stroke-width="3.163"/>
            <line id="線_2111" data-name="線 2111" x1="189.812" y2="189.826" transform="translate(1115.015 0)" fill="none" stroke="#fff079" stroke-miterlimit="10" stroke-width="3.163"/>
            <line id="線_2112" data-name="線 2112" x1="189.812" y2="189.826" transform="translate(1101.249 0)" fill="none" stroke="#fff079" stroke-miterlimit="10" stroke-width="3.163"/>
            <line id="線_2113" data-name="線 2113" x1="189.812" y2="189.826" transform="translate(1087.484 0)" fill="none" stroke="#fff079" stroke-miterlimit="10" stroke-width="3.163"/>
            <line id="線_2114" data-name="線 2114" x1="189.812" y2="189.826" transform="translate(1073.718 0)" fill="none" stroke="#fff079" stroke-miterlimit="10" stroke-width="3.163"/>
            <line id="線_2115" data-name="線 2115" x1="189.812" y2="189.826" transform="translate(1059.953 0)" fill="none" stroke="#fff079" stroke-miterlimit="10" stroke-width="3.163"/>
            <line id="線_2116" data-name="線 2116" x1="189.812" y2="189.826" transform="translate(1046.187 0)" fill="none" stroke="#fff079" stroke-miterlimit="10" stroke-width="3.163"/>
            <line id="線_2117" data-name="線 2117" x1="189.812" y2="189.826" transform="translate(1032.421 0)" fill="none" stroke="#fff079" stroke-miterlimit="10" stroke-width="3.163"/>
            <line id="線_2118" data-name="線 2118" x1="189.812" y2="189.826" transform="translate(1018.656 0)" fill="none" stroke="#fff079" stroke-miterlimit="10" stroke-width="3.163"/>
            <line id="線_2119" data-name="線 2119" x1="189.812" y2="189.826" transform="translate(1004.89 0)" fill="none" stroke="#fff079" stroke-miterlimit="10" stroke-width="3.163"/>
            <line id="線_2120" data-name="線 2120" x1="189.812" y2="189.826" transform="translate(991.124 0)" fill="none" stroke="#fff079" stroke-miterlimit="10" stroke-width="3.163"/>
            <line id="線_2121" data-name="線 2121" x1="189.812" y2="189.826" transform="translate(977.359 0)" fill="none" stroke="#fff079" stroke-miterlimit="10" stroke-width="3.163"/>
            <line id="線_2122" data-name="線 2122" x1="189.812" y2="189.826" transform="translate(963.593 0)" fill="none" stroke="#fff079" stroke-miterlimit="10" stroke-width="3.163"/>
            <line id="線_2123" data-name="線 2123" x1="189.812" y2="189.826" transform="translate(949.828 0)" fill="none" stroke="#fff079" stroke-miterlimit="10" stroke-width="3.163"/>
            <line id="線_2124" data-name="線 2124" x1="189.812" y2="189.826" transform="translate(936.062 0)" fill="none" stroke="#fff079" stroke-miterlimit="10" stroke-width="3.163"/>
            <line id="線_2125" data-name="線 2125" x1="189.813" y2="189.826" transform="translate(922.296 0)" fill="none" stroke="#fff079" stroke-miterlimit="10" stroke-width="3.163"/>
            <line id="線_2126" data-name="線 2126" x1="189.813" y2="189.826" transform="translate(908.531 0)" fill="none" stroke="#fff079" stroke-miterlimit="10" stroke-width="3.163"/>
            <line id="線_2127" data-name="線 2127" x1="189.813" y2="189.826" transform="translate(894.765 0)" fill="none" stroke="#fff079" stroke-miterlimit="10" stroke-width="3.163"/>
            <line id="線_2128" data-name="線 2128" x1="189.813" y2="189.826" transform="translate(880.999 0)" fill="none" stroke="#fff079" stroke-miterlimit="10" stroke-width="3.163"/>
            <line id="線_2129" data-name="線 2129" x1="189.813" y2="189.826" transform="translate(867.234 0)" fill="none" stroke="#fff079" stroke-miterlimit="10" stroke-width="3.163"/>
            <line id="線_2130" data-name="線 2130" x1="189.813" y2="189.826" transform="translate(853.468 0)" fill="none" stroke="#fff079" stroke-miterlimit="10" stroke-width="3.163"/>
            <line id="線_2131" data-name="線 2131" x1="189.813" y2="189.826" transform="translate(839.703 0)" fill="none" stroke="#fff079" stroke-miterlimit="10" stroke-width="3.163"/>
            <line id="線_2132" data-name="線 2132" x1="189.813" y2="189.826" transform="translate(825.937 0)" fill="none" stroke="#fff079" stroke-miterlimit="10" stroke-width="3.163"/>
            <line id="線_2133" data-name="線 2133" x1="189.813" y2="189.826" transform="translate(812.171 0)" fill="none" stroke="#fff079" stroke-miterlimit="10" stroke-width="3.163"/>
            <line id="線_2134" data-name="線 2134" x1="189.813" y2="189.826" transform="translate(798.406 0)" fill="none" stroke="#fff079" stroke-miterlimit="10" stroke-width="3.163"/>
            <line id="線_2135" data-name="線 2135" x1="189.813" y2="189.826" transform="translate(784.64 0)" fill="none" stroke="#fff079" stroke-miterlimit="10" stroke-width="3.163"/>
            <line id="線_2136" data-name="線 2136" x1="189.813" y2="189.826" transform="translate(770.875 0)" fill="none" stroke="#fff079" stroke-miterlimit="10" stroke-width="3.163"/>
            <line id="線_2137" data-name="線 2137" x1="189.813" y2="189.826" transform="translate(757.109 0)" fill="none" stroke="#fff079" stroke-miterlimit="10" stroke-width="3.163"/>
            <line id="線_2138" data-name="線 2138" x1="189.813" y2="189.826" transform="translate(743.343 0)" fill="none" stroke="#fff079" stroke-miterlimit="10" stroke-width="3.163"/>
            <line id="線_2139" data-name="線 2139" x1="189.813" y2="189.826" transform="translate(729.578 0)" fill="none" stroke="#fff079" stroke-miterlimit="10" stroke-width="3.163"/>
            <line id="線_2140" data-name="線 2140" x1="189.813" y2="189.826" transform="translate(715.812 0)" fill="none" stroke="#fff079" stroke-miterlimit="10" stroke-width="3.163"/>
            <line id="線_2141" data-name="線 2141" x1="189.814" y2="189.826" transform="translate(702.046 0)" fill="none" stroke="#fff079" stroke-miterlimit="10" stroke-width="3.163"/>
            <line id="線_2142" data-name="線 2142" x1="189.814" y2="189.826" transform="translate(688.281 0)" fill="none" stroke="#fff079" stroke-miterlimit="10" stroke-width="3.163"/>
            <line id="線_2143" data-name="線 2143" x1="189.814" y2="189.826" transform="translate(674.515 0)" fill="none" stroke="#fff079" stroke-miterlimit="10" stroke-width="3.163"/>
            <line id="線_2144" data-name="線 2144" x1="189.814" y2="189.826" transform="translate(660.75 0)" fill="none" stroke="#fff079" stroke-miterlimit="10" stroke-width="3.163"/>
            <line id="線_2145" data-name="線 2145" x1="189.814" y2="189.826" transform="translate(646.984 0)" fill="none" stroke="#fff079" stroke-miterlimit="10" stroke-width="3.163"/>
            <line id="線_2146" data-name="線 2146" x1="189.814" y2="189.826" transform="translate(633.218 0)" fill="none" stroke="#fff079" stroke-miterlimit="10" stroke-width="3.163"/>
            <line id="線_2147" data-name="線 2147" x1="189.814" y2="189.826" transform="translate(619.453 0)" fill="none" stroke="#fff079" stroke-miterlimit="10" stroke-width="3.163"/>
            <line id="線_2148" data-name="線 2148" x1="189.814" y2="189.826" transform="translate(605.687 0)" fill="none" stroke="#fff079" stroke-miterlimit="10" stroke-width="3.163"/>
            <line id="線_2149" data-name="線 2149" x1="189.814" y2="189.826" transform="translate(591.922 0)" fill="none" stroke="#fff079" stroke-miterlimit="10" stroke-width="3.163"/>
            <line id="線_2150" data-name="線 2150" x1="189.814" y2="189.826" transform="translate(578.156 0)" fill="none" stroke="#fff079" stroke-miterlimit="10" stroke-width="3.163"/>
            <line id="線_2151" data-name="線 2151" x1="189.814" y2="189.826" transform="translate(564.39 0)" fill="none" stroke="#fff079" stroke-miterlimit="10" stroke-width="3.163"/>
            <line id="線_2152" data-name="線 2152" x1="189.814" y2="189.826" transform="translate(550.625 0)" fill="none" stroke="#fff079" stroke-miterlimit="10" stroke-width="3.163"/>
            <line id="線_2153" data-name="線 2153" x1="189.814" y2="189.826" transform="translate(536.859 0)" fill="none" stroke="#fff079" stroke-miterlimit="10" stroke-width="3.163"/>
            <line id="線_2154" data-name="線 2154" x1="189.814" y2="189.826" transform="translate(523.093 0)" fill="none" stroke="#fff079" stroke-miterlimit="10" stroke-width="3.163"/>
            <line id="線_2155" data-name="線 2155" x1="189.814" y2="189.826" transform="translate(509.328 0)" fill="none" stroke="#fff079" stroke-miterlimit="10" stroke-width="3.163"/>
            <line id="線_2156" data-name="線 2156" x1="189.814" y2="189.826" transform="translate(495.562 0)" fill="none" stroke="#fff079" stroke-miterlimit="10" stroke-width="3.163"/>
            <line id="線_2157" data-name="線 2157" x1="189.815" y2="189.826" transform="translate(481.797 0)" fill="none" stroke="#fff079" stroke-miterlimit="10" stroke-width="3.163"/>
            <line id="線_2158" data-name="線 2158" x1="189.815" y2="189.826" transform="translate(468.031 0)" fill="none" stroke="#fff079" stroke-miterlimit="10" stroke-width="3.163"/>
            <line id="線_2159" data-name="線 2159" x1="189.815" y2="189.826" transform="translate(454.265 0)" fill="none" stroke="#fff079" stroke-miterlimit="10" stroke-width="3.163"/>
            <line id="線_2160" data-name="線 2160" x1="189.815" y2="189.826" transform="translate(440.5 0)" fill="none" stroke="#fff079" stroke-miterlimit="10" stroke-width="3.163"/>
            <line id="線_2161" data-name="線 2161" x1="189.815" y2="189.826" transform="translate(426.734 0)" fill="none" stroke="#fff079" stroke-miterlimit="10" stroke-width="3.163"/>
            <line id="線_2162" data-name="線 2162" x1="189.815" y2="189.826" transform="translate(412.969 0)" fill="none" stroke="#fff079" stroke-miterlimit="10" stroke-width="3.163"/>
            <line id="線_2163" data-name="線 2163" x1="189.815" y2="189.826" transform="translate(399.203 0)" fill="none" stroke="#fff079" stroke-miterlimit="10" stroke-width="3.163"/>
            <line id="線_2164" data-name="線 2164" x1="189.815" y2="189.826" transform="translate(385.437 0)" fill="none" stroke="#fff079" stroke-miterlimit="10" stroke-width="3.163"/>
            <line id="線_2165" data-name="線 2165" x1="189.815" y2="189.826" transform="translate(371.672 0)" fill="none" stroke="#fff079" stroke-miterlimit="10" stroke-width="3.163"/>
            <line id="線_2166" data-name="線 2166" x1="189.815" y2="189.826" transform="translate(357.906 0)" fill="none" stroke="#fff079" stroke-miterlimit="10" stroke-width="3.163"/>
            <line id="線_2167" data-name="線 2167" x1="189.815" y2="189.826" transform="translate(344.14 0)" fill="none" stroke="#fff079" stroke-miterlimit="10" stroke-width="3.163"/>
            <line id="線_2168" data-name="線 2168" x1="189.815" y2="189.826" transform="translate(330.375 0)" fill="none" stroke="#fff079" stroke-miterlimit="10" stroke-width="3.163"/>
            <line id="線_2169" data-name="線 2169" x1="189.815" y2="189.826" transform="translate(316.609 0)" fill="none" stroke="#fff079" stroke-miterlimit="10" stroke-width="3.163"/>
            <line id="線_2170" data-name="線 2170" x1="189.815" y2="189.826" transform="translate(302.844 0)" fill="none" stroke="#fff079" stroke-miterlimit="10" stroke-width="3.163"/>
            <line id="線_2171" data-name="線 2171" x1="189.815" y2="189.826" transform="translate(289.078 0)" fill="none" stroke="#fff079" stroke-miterlimit="10" stroke-width="3.163"/>
            <line id="線_2172" data-name="線 2172" x1="189.815" y2="189.826" transform="translate(275.312 0)" fill="none" stroke="#fff079" stroke-miterlimit="10" stroke-width="3.163"/>
            <line id="線_2173" data-name="線 2173" x1="189.816" y2="189.826" transform="translate(261.547 0)" fill="none" stroke="#fff079" stroke-miterlimit="10" stroke-width="3.163"/>
            <line id="線_2174" data-name="線 2174" x1="189.816" y2="189.826" transform="translate(247.781 0)" fill="none" stroke="#fff079" stroke-miterlimit="10" stroke-width="3.163"/>
            <line id="線_2175" data-name="線 2175" x1="189.816" y2="189.826" transform="translate(234.015 0)" fill="none" stroke="#fff079" stroke-miterlimit="10" stroke-width="3.163"/>
            <line id="線_2176" data-name="線 2176" x1="189.816" y2="189.826" transform="translate(220.25 0)" fill="none" stroke="#fff079" stroke-miterlimit="10" stroke-width="3.163"/>
            <line id="線_2177" data-name="線 2177" x1="189.816" y2="189.826" transform="translate(206.484 0)" fill="none" stroke="#fff079" stroke-miterlimit="10" stroke-width="3.163"/>
            <line id="線_2178" data-name="線 2178" x1="189.816" y2="189.826" transform="translate(192.719 0)" fill="none" stroke="#fff079" stroke-miterlimit="10" stroke-width="3.163"/>
            <line id="線_2179" data-name="線 2179" x1="189.816" y2="189.826" transform="translate(178.953 0)" fill="none" stroke="#fff079" stroke-miterlimit="10" stroke-width="3.163"/>
            <line id="線_2180" data-name="線 2180" x1="189.816" y2="189.826" transform="translate(165.187 0)" fill="none" stroke="#fff079" stroke-miterlimit="10" stroke-width="3.163"/>
            <line id="線_2181" data-name="線 2181" x1="189.816" y2="189.826" transform="translate(151.422 0)" fill="none" stroke="#fff079" stroke-miterlimit="10" stroke-width="3.163"/>
            <line id="線_2182" data-name="線 2182" x1="189.816" y2="189.826" transform="translate(137.656 0)" fill="none" stroke="#fff079" stroke-miterlimit="10" stroke-width="3.163"/>
            <line id="線_2183" data-name="線 2183" x1="189.816" y2="189.826" transform="translate(123.891 0)" fill="none" stroke="#fff079" stroke-miterlimit="10" stroke-width="3.163"/>
            <line id="線_2184" data-name="線 2184" x1="189.816" y2="189.826" transform="translate(110.125 0)" fill="none" stroke="#fff079" stroke-miterlimit="10" stroke-width="3.163"/>
            <line id="線_2185" data-name="線 2185" x1="189.816" y2="189.826" transform="translate(96.359 0)" fill="none" stroke="#fff079" stroke-miterlimit="10" stroke-width="3.163"/>
            <line id="線_2186" data-name="線 2186" x1="189.816" y2="189.826" transform="translate(82.594 0)" fill="none" stroke="#fff079" stroke-miterlimit="10" stroke-width="3.163"/>
            <line id="線_2187" data-name="線 2187" x1="189.816" y2="189.826" transform="translate(68.828 0)" fill="none" stroke="#fff079" stroke-miterlimit="10" stroke-width="3.163"/>
            <line id="線_2188" data-name="線 2188" x1="189.816" y2="189.826" transform="translate(55.062 0)" fill="none" stroke="#fff079" stroke-miterlimit="10" stroke-width="3.163"/>
            <line id="線_2189" data-name="線 2189" x1="189.817" y2="189.826" transform="translate(41.297 0)" fill="none" stroke="#fff079" stroke-miterlimit="10" stroke-width="3.163"/>
            <line id="線_2190" data-name="線 2190" x1="189.817" y2="189.826" transform="translate(27.531 0)" fill="none" stroke="#fff079" stroke-miterlimit="10" stroke-width="3.163"/>
            <line id="線_2191" data-name="線 2191" x1="189.817" y2="189.826" transform="translate(13.766 0)" fill="none" stroke="#fff079" stroke-miterlimit="10" stroke-width="3.163"/>
            <line id="線_2192" data-name="線 2192" x1="189.817" y2="189.826" transform="translate(0 0)" fill="none" stroke="#fff079" stroke-miterlimit="10" stroke-width="3.163"/>
          </g>
        </g>
      </g>
      <path id="パス_7329" data-name="パス 7329" d="M-347.994,1218.9V1114.235l-81.4-69.774-81.4,69.774V1218.9Z" transform="translate(957.301 297.644)" fill="none" stroke="#fff079" stroke-linecap="round" stroke-linejoin="round" stroke-width="6"/>
    </g>
    <g id="グループ_2468" data-name="グループ 2468" transform="translate(-1513 -187)">
      <path id="パス_9603" data-name="パス 9603" d="M-62.326,0A2.151,2.151,0,0,1-63.89-.6,1.979,1.979,0,0,1-64.5-2.074V-19.21l.476.748L-66.61-16.9a2.08,2.08,0,0,1-1.088.306,1.856,1.856,0,0,1-1.462-.663,2.117,2.117,0,0,1-.578-1.411,1.937,1.937,0,0,1,1.054-1.768l5.134-3.06a3.106,3.106,0,0,1,1.462-.306,1.9,1.9,0,0,1,1.445.595,2.073,2.073,0,0,1,.561,1.479V-2.074A1.953,1.953,0,0,1-60.711-.6,2.255,2.255,0,0,1-62.326,0Zm19.1-14.25c.33-.69.6-1.38.81-1.92.18-.54.42-1.08.69-1.77l-4.2-.87a12.2,12.2,0,0,1-.42,2.19,13.627,13.627,0,0,1-1.68,3.84,20.325,20.325,0,0,1-4.56,5.1l3.51,2.04a26.65,26.65,0,0,0,4.14-5.22h5.25a13.466,13.466,0,0,1-4.95,9.72,13.577,13.577,0,0,1-2.7,1.59l3.72,2.49c4.77-2.94,7.2-7.41,7.71-13.8h3.66c.6,0,1.74.03,2.64.12V-14.4a20.621,20.621,0,0,1-2.64.15Zm28.68,4.44c.12-1.26.18-2.52.21-3.66H-2.3v3.66ZM-2.3-20.52v3.66h-12.03v-3.66ZM1.478-24h-19.5v9.87c0,4.56-.42,10.29-4.95,14.16a14.09,14.09,0,0,1,2.76,2.58,16.138,16.138,0,0,0,5.07-8.97H-2.3v4.35c0,.63-.24.87-.96.87-.66,0-3.18.03-5.28-.09a15.315,15.315,0,0,1,1.5,3.75c3.09,0,5.19-.06,6.63-.69,1.38-.6,1.89-1.62,1.89-3.78Zm25.17,9.33a30.587,30.587,0,0,0-4.74-7.2l-3.24,1.62a30.573,30.573,0,0,1,4.47,7.44Zm-5.49,5.31c-1.5.6-3.03,1.23-4.53,1.86l-.54-16.23-3.72.15.6,17.52c-1.5.6-2.85,1.08-3.99,1.47l1.2,3.81c3.39-1.41,7.83-3.3,11.79-5.07ZM37.448-.39a65.429,65.429,0,0,0-6.66-7.71c1.95-4.08,3.03-9.09,3.66-15.24l-3.93-.36c-1.11,12.33-4.2,19.59-13.71,23.19a20.975,20.975,0,0,1,2.85,3.15,21.421,21.421,0,0,0,9.12-7.29,52.562,52.562,0,0,1,5.61,7.23Zm18.42-2.07V-12.84h10.59v-3.63H55.868v-8.58h-3.84V-2.46H41.288v3.6h27.27v-3.6ZM-90.6,35.6l-1.48.62A15.431,15.431,0,0,1-90.52,39l1.52-.68A26.213,26.213,0,0,0-90.6,35.6Zm2.24-.92-1.46.68a17.6,17.6,0,0,1,1.64,2.7l1.5-.72A29.915,29.915,0,0,0-88.36,34.68Zm-15.58-2.36.26,2.72c2.3-.5,6.46-.94,8.18-1.12a7.854,7.854,0,0,0-2.92,6.1c0,4.3,3.92,6.54,8.08,6.8l.92-2.74c-3.36-.16-6.4-1.34-6.4-4.6a6.012,6.012,0,0,1,4.18-5.54,20.453,20.453,0,0,1,3.82-.26l-.02-2.56c-1.4.06-3.56.18-5.6.34-3.62.32-6.9.62-8.56.76C-102.38,32.26-103.14,32.3-103.94,32.32Zm22.78,7.54a13.224,13.224,0,0,0-.38,2.86c0,2.72,2.26,4.24,6.8,4.24a31.593,31.593,0,0,0,6.88-.66l-.02-2.8a28.086,28.086,0,0,1-6.96.78c-2.86,0-4.04-.92-4.04-2.18a8.15,8.15,0,0,1,.32-2Zm11.06-9.62a15.22,15.22,0,0,1,.86,1.44c-1.52.14-3.7.26-5.6.26a51.228,51.228,0,0,1-5.38-.24v2.64c1.6.12,3.32.22,5.4.22,1.88,0,4.34-.14,5.72-.24V31.94c.2.4.4.78.56,1.1l1.62-.7c-.38-.74-1.1-2-1.6-2.74Zm2.36-.9a21.2,21.2,0,0,1,1.62,2.76l1.58-.68a22.078,22.078,0,0,0-1.62-2.72Zm11.78,7.82h3.44V34.98h-3.44V32a26,26,0,0,0,3.38-1.04l-1.68-1.84a33.775,33.775,0,0,1-8.04,2.06,7.462,7.462,0,0,1,.68,1.86c1.08-.14,2.22-.32,3.36-.54v2.48h-3.8v2.18h3.34a19.373,19.373,0,0,1-3.8,5.76,13.386,13.386,0,0,1,1.2,2.32,19.9,19.9,0,0,0,3.06-4.7V47.7h2.3V40.8c.8.82,1.64,1.72,2.12,2.34l1.38-2.04c-.54-.42-2.52-2.12-3.5-2.86Zm6.7-5.68h-2.32V42.66h2.32Zm2.4-2.04V44.82c0,.36-.16.48-.54.5-.42,0-1.7,0-3-.06a9.128,9.128,0,0,1,.82,2.46,9.848,9.848,0,0,0,3.98-.46c.82-.38,1.1-1.04,1.1-2.42V29.44ZM-30.4,39.66V37.2h4.22v2.46Zm-6.22,0c.04-.74.06-1.46.06-2.1V37.2h3.76v2.46Zm3.82-7v2.32h-3.76V32.66Zm6.62,2.32H-30.4V32.66h4.22Zm2.36-4.58h-15.1v7.14c0,2.8-.18,6.36-2.36,8.76a8.785,8.785,0,0,1,1.88,1.54,11.453,11.453,0,0,0,2.52-5.94h4.08v5.58h2.4V41.9h4.22v3c0,.36-.14.48-.52.48-.36,0-1.68.02-2.8-.04a8.992,8.992,0,0,1,.76,2.28,9.288,9.288,0,0,0,3.84-.42c.8-.36,1.08-1,1.08-2.28Zm8.68,12c-.74,0-1.54-.98-1.54-2.98a6.21,6.21,0,0,1,5.02-5.74,31.791,31.791,0,0,1-1.06,4.8C-13.52,41.16-14.32,42.4-15.14,42.4Zm5.44,4.42c5-.76,7.56-3.72,7.56-7.88,0-4.32-3.1-7.74-8-7.74-5.14,0-9.12,3.92-9.12,8.48,0,3.34,1.86,5.76,4.04,5.76,2.16,0,3.88-2.44,5.06-6.44a43.042,43.042,0,0,0,1.18-5.38c2.66.46,4.14,2.5,4.14,5.24a5.362,5.362,0,0,1-4.5,5.3c-.52.12-1.08.22-1.84.32Zm29.32-12.3V32.24h-7.9V28.98H9.26v3.26H1.6v2.28H7.32c-.22,4.28-.68,8.84-6.08,11.34a7.6,7.6,0,0,1,1.68,2.02,11.74,11.74,0,0,0,6.42-8.52h5.5c-.28,3.64-.64,5.38-1.16,5.82a1.284,1.284,0,0,1-.96.26c-.58,0-1.98,0-3.36-.14a5.535,5.535,0,0,1,.84,2.34,27.393,27.393,0,0,0,3.42,0,2.953,2.953,0,0,0,2.16-.92c.8-.88,1.22-3.12,1.58-8.56a9.73,9.73,0,0,0,.08-1.04H9.72c.1-.86.16-1.74.22-2.6Zm5.14-4.14a14.861,14.861,0,0,1-.18,1.94,58.7,58.7,0,0,0-.82,8.26,23.891,23.891,0,0,0,.78,6.32l2.24-.16c-.02-.28-.02-.62-.02-.82a3.91,3.91,0,0,1,.1-.92,47.248,47.248,0,0,1,1.42-4.72l-1.22-.98c-.3.66-.62,1.32-.88,2.02a9.167,9.167,0,0,1-.08-1.28,52.381,52.381,0,0,1,.94-7.66,16.645,16.645,0,0,1,.48-1.76Zm10,12.3c0,1.16-.42,1.8-1.64,1.8-1.04,0-1.84-.36-1.84-1.16,0-.74.76-1.2,1.88-1.2a6.175,6.175,0,0,1,1.6.22Zm6.26.8a12.572,12.572,0,0,0-3.82-2.56c-.08-1.34-.18-2.92-.22-4.84,1.08-.08,2.12-.2,3.08-.34V33.28c-.94.2-1.98.34-3.06.46,0-.88.04-1.62.06-2.06a12.649,12.649,0,0,1,.12-1.28H34.34a11.207,11.207,0,0,1,.12,1.3c.02.42.02,1.22.04,2.2-.46.02-.94.02-1.4.02a32.842,32.842,0,0,1-3.46-.18V36.1c1.18.08,2.3.12,3.46.12.46,0,.94,0,1.42-.02.02,1.4.08,2.84.14,4.06a8.9,8.9,0,0,0-1.3-.08c-2.7,0-4.4,1.38-4.4,3.4,0,2.08,1.72,3.24,4.44,3.24,2.68,0,3.76-1.36,3.88-3.24a20.2,20.2,0,0,1,2.4,1.98Zm19.44,2.96c-.04-.6-.08-1.66-.08-2.36V33.72c0-.58.04-1.38.06-1.84-.34.02-1.18.04-1.76.04H48.62c-.7,0-1.74-.04-2.48-.12v2.78c.56-.04,1.64-.08,2.48-.08H57.6v8.28H48.38c-.9,0-1.8-.06-2.5-.12v2.86c.66-.06,1.8-.12,2.58-.12h9.12c0,.38,0,.72-.02,1.04Zm15.4-9.9V33.36a32.287,32.287,0,0,0,3.36-.66c.34-.08.86-.22,1.54-.38l-1.64-2.2a21.678,21.678,0,0,1-5.04,1.2,47.2,47.2,0,0,1-6.82.32l.62,2.32c1.34-.04,3.44-.1,5.36-.26v2.84H67.6a17.41,17.41,0,0,1-1.84-.12V39c.52-.04,1.26-.08,1.88-.08h5.5a7.916,7.916,0,0,1-5.02,6.5l2.54,1.72a10.019,10.019,0,0,0,5.12-8.22h5.18c.54,0,1.22.04,1.76.08V36.42c-.44.04-1.4.12-1.82.12Zm25.84-1.18a4.219,4.219,0,0,1-1.46.2h-9.9c-.62,0-1.48-.04-2.32-.12v2.6c.84-.08,1.84-.1,2.32-.1H100a8.677,8.677,0,0,1-2.06,3.46A13.479,13.479,0,0,1,91,44.9l2,2.26a14.976,14.976,0,0,0,7.14-4.32,14.373,14.373,0,0,0,2.96-5.54,7.409,7.409,0,0,1,.38-.84ZM89.86,33.24c.58-.04,1.44-.06,2.08-.06H99.6c.72,0,1.66.02,2.2.06V30.66a18.856,18.856,0,0,1-2.16.1h-7.7a16.859,16.859,0,0,1-2.08-.1Z" transform="translate(692 1455)"/>
      <g id="マスクグループ_38" data-name="マスクグループ 38" transform="translate(192.446 -3712.52)" clip-path="url(#clip-path-2)">
        <path id="パス_6982" data-name="パス 6982" d="M0,2412.805c3.707,0,3.707,4.342,7.414,4.342s3.706-4.342,7.413-4.342,3.707,4.342,7.413,4.342,3.706-4.342,7.413-4.342,3.707,4.342,7.413,4.342,3.707-4.342,7.413-4.342,3.707,4.342,7.414,4.342,3.707-4.342,7.413-4.342,3.707,4.342,7.414,4.342,3.707-4.342,7.414-4.342,3.707,4.342,7.414,4.342,3.707-4.342,7.414-4.342,3.707,4.342,7.414,4.342,3.707-4.342,7.414-4.342,3.707,4.342,7.414,4.342,3.707-4.342,7.413-4.342,3.707,4.342,7.414,4.342,3.707-4.342,7.414-4.342,3.707,4.342,7.415,4.342,3.707-4.342,7.415-4.342,3.708,4.342,7.415,4.342,3.708-4.342,7.415-4.342" transform="translate(449.095 2763.227)" fill="none" stroke="#000" stroke-miterlimit="10" stroke-width="3"/>
      </g>
    </g>
    <g id="グループ_2425" data-name="グループ 2425" transform="translate(-1211.94 -4040)">
      <circle id="楕円形_299" data-name="楕円形 299" cx="2.5" cy="2.5" r="2.5" transform="translate(388.5 5403)" fill="#333"/>
      <circle id="楕円形_300" data-name="楕円形 300" cx="2.5" cy="2.5" r="2.5" transform="translate(388.5 5418)" fill="#333"/>
      <circle id="楕円形_301" data-name="楕円形 301" cx="2.5" cy="2.5" r="2.5" transform="translate(388.5 5433)" fill="#333"/>
      <circle id="楕円形_302" data-name="楕円形 302" cx="2.5" cy="2.5" r="2.5" transform="translate(388.5 5448)" fill="#333"/>
      <path id="パス_6985" data-name="パス 6985" d="M-141.06,5419.42l9.136,9.136,9.136-9.136" transform="translate(523 36)" fill="none" stroke="#333" stroke-linecap="round" stroke-width="3"/>
    </g>
  </g>
</svg>
