<svg xmlns="http://www.w3.org/2000/svg" width="98.019" height="90.735" viewBox="0 0 98.019 90.735">
  <g id="グループ_3486" data-name="グループ 3486" transform="translate(-1167.5 -644.87)">
    <path id="パス_7289" data-name="パス 7289" d="M-416.782,1145.2v-60.441l-47.01-26.294-47.009,26.294V1145.2Z" transform="translate(1680.301 -411.591)" fill="#fcee84" stroke="#000" stroke-linecap="round" stroke-linejoin="round" stroke-width="4"/>
    <path id="パス_9620" data-name="パス 9620" d="M-22.83-13.32a1.062,1.062,0,0,1,.61.82,1.232,1.232,0,0,1-.29,1.02.909.909,0,0,1-.67.4,1.556,1.556,0,0,1-.83-.16,5.142,5.142,0,0,0-1.01-.34,5.013,5.013,0,0,0-1.11-.12,5.162,5.162,0,0,0-1.93.34,4.051,4.051,0,0,0-1.45.97,4.194,4.194,0,0,0-.91,1.49A5.568,5.568,0,0,0-30.73-7a5.837,5.837,0,0,0,.35,2.12,4.14,4.14,0,0,0,.97,1.5,3.9,3.9,0,0,0,1.46.89,5.541,5.541,0,0,0,1.82.29,5.919,5.919,0,0,0,1.08-.1,3.707,3.707,0,0,0,1.04-.36,1.421,1.421,0,0,1,.83-.14,1.047,1.047,0,0,1,.69.42,1.207,1.207,0,0,1,.29,1.03,1.054,1.054,0,0,1-.61.77,7.033,7.033,0,0,1-1.07.43,8.116,8.116,0,0,1-1.11.26A7.173,7.173,0,0,1-26.13.2a8.067,8.067,0,0,1-2.73-.46,6.914,6.914,0,0,1-2.3-1.36,6.286,6.286,0,0,1-1.59-2.25A7.873,7.873,0,0,1-33.33-7a7.452,7.452,0,0,1,.53-2.84,6.6,6.6,0,0,1,1.5-2.25,6.916,6.916,0,0,1,2.29-1.48,7.659,7.659,0,0,1,2.88-.53,7.4,7.4,0,0,1,1.72.2A6.987,6.987,0,0,1-22.83-13.32ZM-10.77-2.34a1.219,1.219,0,0,1,.87.33,1.116,1.116,0,0,1,.35.85,1.093,1.093,0,0,1-.35.83,1.219,1.219,0,0,1-.87.33h-6.5a1.181,1.181,0,0,1-.87-.35,1.181,1.181,0,0,1-.35-.87V-12.78a1.164,1.164,0,0,1,.36-.87,1.265,1.265,0,0,1,.92-.35,1.2,1.2,0,0,1,.85.35,1.149,1.149,0,0,1,.37.87V-2l-.44-.34Zm7.62,1.12a1.135,1.135,0,0,1-.38.87A1.26,1.26,0,0,1-4.41,0a1.2,1.2,0,0,1-.9-.35,1.2,1.2,0,0,1-.34-.87V-12.78a1.164,1.164,0,0,1,.36-.87A1.265,1.265,0,0,1-4.37-14a1.2,1.2,0,0,1,.85.35,1.149,1.149,0,0,1,.37.87Zm14.4-12.1a1.062,1.062,0,0,1,.61.82,1.232,1.232,0,0,1-.29,1.02.909.909,0,0,1-.67.4,1.556,1.556,0,0,1-.83-.16,5.142,5.142,0,0,0-1.01-.34,5.013,5.013,0,0,0-1.11-.12,5.162,5.162,0,0,0-1.93.34,4.051,4.051,0,0,0-1.45.97A4.194,4.194,0,0,0,3.66-8.9,5.568,5.568,0,0,0,3.35-7,5.837,5.837,0,0,0,3.7-4.88a4.14,4.14,0,0,0,.97,1.5,3.9,3.9,0,0,0,1.46.89,5.541,5.541,0,0,0,1.82.29,5.92,5.92,0,0,0,1.08-.1,3.707,3.707,0,0,0,1.04-.36,1.421,1.421,0,0,1,.83-.14,1.047,1.047,0,0,1,.69.42,1.207,1.207,0,0,1,.29,1.03,1.054,1.054,0,0,1-.61.77,7.033,7.033,0,0,1-1.07.43A8.116,8.116,0,0,1,9.09.11,7.173,7.173,0,0,1,7.95.2,8.067,8.067,0,0,1,5.22-.26a6.914,6.914,0,0,1-2.3-1.36A6.286,6.286,0,0,1,1.33-3.87,7.873,7.873,0,0,1,.75-7a7.452,7.452,0,0,1,.53-2.84,6.6,6.6,0,0,1,1.5-2.25,6.916,6.916,0,0,1,2.29-1.48,7.659,7.659,0,0,1,2.88-.53,7.4,7.4,0,0,1,1.72.2A6.987,6.987,0,0,1,11.25-13.32ZM25.23,0a1.066,1.066,0,0,1-.9-.46L19.71-6.54,21.53-8.4l4.78,6.32a1.355,1.355,0,0,1,.28.82,1.129,1.129,0,0,1-.42.91A1.431,1.431,0,0,1,25.23,0Zm.24-14.1a.966.966,0,0,1,.79.39,1.264,1.264,0,0,1,.31.79,1.089,1.089,0,0,1-.36.78L17.83-4.12l-.1-2.86,6.76-6.66A1.376,1.376,0,0,1,25.47-14.1ZM16.83,0a1.2,1.2,0,0,1-.9-.35,1.2,1.2,0,0,1-.34-.87V-12.78a1.164,1.164,0,0,1,.36-.87,1.265,1.265,0,0,1,.92-.35,1.165,1.165,0,0,1,.89.35,1.219,1.219,0,0,1,.33.87V-1.22a1.2,1.2,0,0,1-.34.87A1.223,1.223,0,0,1,16.83,0ZM31.47-4.42q-.68,0-.74-.76l-.58-7.36a1.374,1.374,0,0,1,.33-1.04,1.231,1.231,0,0,1,.97-.42,1.261,1.261,0,0,1,.98.42,1.294,1.294,0,0,1,.32,1.04l-.56,7.36Q32.13-4.42,31.47-4.42ZM31.33,0a1.2,1.2,0,0,1-.89-.31,1.2,1.2,0,0,1-.31-.89v-.34a1.2,1.2,0,0,1,.31-.89,1.2,1.2,0,0,1,.89-.31h.26a1.2,1.2,0,0,1,.89.31,1.2,1.2,0,0,1,.31.89v.34a1.2,1.2,0,0,1-.31.89,1.2,1.2,0,0,1-.89.31Z" transform="translate(1216 720.428)" fill="#333"/>
    <path id="パス_9619" data-name="パス 9619" d="M-24.672-10.384V-7.84c0,1.584.384,2.1,2.176,2.1h1.9c1.28,0,1.792-.448,1.984-2.128a5.134,5.134,0,0,1-1.632-.656c-.064,1.008-.144,1.168-.544,1.168h-1.424c-.5,0-.592-.064-.592-.5v-2.528h2.256V-8.8h1.968v-3.312h-5.936v-1.44h-1.952v1.44h-5.792v3.584h1.872v-1.856h2.208c-.256,1.888-.816,3.008-4.3,3.616a5.428,5.428,0,0,1,1.024,1.6c4.064-.88,4.944-2.56,5.232-5.216Zm.16,9.616V-3.152h4.72V-4.864h-10.96v1.712h4.288V-.768h-5.968V.96h14V-.768ZM-5.888-8.032l-1.024.688c.288.208.592.448.9.7l-4.112.08c.288-.464.608-.976.9-1.472Zm2.512-2.752v1.136h-10.24v-1.136ZM-7.552-.736V-1.968h4.928V-3.6H-7.552V-4.992l3.248-.1a11.589,11.589,0,0,1,.784.9l1.488-1.04A20.238,20.238,0,0,0-5.2-8.032h2V-9.184h1.76v-3.328H-7.552v-1.024H-9.5v1.024h-5.968v3.328h1.76v1.152h2.3c-.208.5-.464,1.024-.7,1.5l-2.272.032.08,1.7c1.328-.032,3.008-.08,4.8-.128V-3.6H-14.1v1.632H-9.5V-.736H-15.52V.944H-1.344V-.736Zm16.16-3.6v-1.5h1.584v.96c0,.176,0,.368-.016.544ZM13.6-5.84v1.5H11.888c.016-.16.016-.336.016-.5V-5.84ZM9.184-9.888A10.224,10.224,0,0,0,11.04-11.9a10.831,10.831,0,0,0,1.936,2.016ZM15.312-2.88V-7.3H11.9V-8.32h2.112V-9.1a12.9,12.9,0,0,0,1.264.736,10.791,10.791,0,0,1,.976-1.664,10.124,10.124,0,0,1-4.4-3.5H10.128A9.915,9.915,0,0,1,6.416-10.16v-.112H4.96v-3.28H3.2v3.28H1.248v1.76h1.84A15.8,15.8,0,0,1,.88-3.136a9.4,9.4,0,0,1,.864,1.7A12.8,12.8,0,0,0,3.2-4.512V1.376H4.96v-6.8c.336.672.656,1.36.832,1.824l.96-1.472c-.24-.4-1.36-2.112-1.792-2.672v-.768H6.416V-9.28a7.15,7.15,0,0,1,.464.928,10.141,10.141,0,0,0,1.312-.784v.816h2V-7.3H6.96V-2.88H9.888C9.44-1.744,8.368-.7,5.92.064A7.288,7.288,0,0,1,6.928,1.472a6.834,6.834,0,0,0,4.3-3.168,6.77,6.77,0,0,0,3.824,3.152A4.524,4.524,0,0,1,16.144-.128,5.575,5.575,0,0,1,12.48-2.88Zm6.4.656a10.559,10.559,0,0,1-3.648,2.16A14.633,14.633,0,0,1,19.52,1.28a14.837,14.837,0,0,0,4-2.816Zm8.752-.3c.3.256.56.512.768.72L32.576-2.9a25.658,25.658,0,0,0-3.792-2.816l-1.248.96c.368.24.752.5,1.136.784l-3.76.048a46.5,46.5,0,0,0,4.24-2.832l-1.7-.912A29.544,29.544,0,0,1,24.32-5.3c-.288-.208-.624-.432-.976-.656a30.585,30.585,0,0,0,2.384-1.92l-.5-.24h5.3v1.728h1.888V-9.7H26.3v-.976h5.9V-12.3H26.3v-1.248H24.432V-12.3H18.64v1.632h5.792V-9.7H18.5v3.312H20.3V-8.112h3.2A17.633,17.633,0,0,1,22-6.736c-.224-.128-.464-.24-.672-.352L20.08-6a19.02,19.02,0,0,1,2.688,1.68c-.24.144-.48.288-.72.416-1.36.016-2.592.016-3.6.016l.1,1.7c1.632-.032,3.68-.08,5.9-.144V1.392h1.888V-2.4Zm-3.2,1.216A24.09,24.09,0,0,1,31.04,1.232L32.608.16a28.719,28.719,0,0,0-3.9-2.432Z" transform="translate(1216 695)" fill="#333"/>
  </g>
</svg>
