<svg xmlns="http://www.w3.org/2000/svg" width="192.999" height="55.208" viewBox="0 0 192.999 55.208">
  <path id="footlogo" d="M97.745,7.713h11.38c-2.768,6.151-8.458,10.15-11.38,11.841V23.4a32.691,32.691,0,0,0,10.15-7.843V30.473h3.383V14.787l10.3,7.074v-4l-10.15-7.074a18.679,18.679,0,0,0,1.384-3.076h8.766V4.329H97.745V7.713m78.583-4.152h-3.383V5.406H162.335V8.789H167.1V11.1h-4.46v7.228a33.018,33.018,0,0,1-2.307,12.456h3.691a37.152,37.152,0,0,0,2.153-12.456V14.479h19.838V11.1h-3.691V8.789h3.691V5.406h-9.535V3.561Zm2.461,5.229V11.1h-8.3V8.789ZM80.675,15.863c.154-3.845-1.076-5.844-2-6.92a5.942,5.942,0,0,0-4.152-1.692H71.91c.154-2.768.308-4.46.308-4.767H68.373s0,2-.308,4.921c-2,0-4,.154-4.767.154V11.4L67.6,11.25a62.056,62.056,0,0,1-4.767,18.3h4.152a70.146,70.146,0,0,0,4.46-18.3l3.076-.154a2.48,2.48,0,0,1,1.384.461q1.153,1.153.923,4.152v.154c-.154,3.537-.461,9.535-1.845,10.611a4.766,4.766,0,0,1-2.614.769v3.845A10.432,10.432,0,0,0,77.292,29.4c2.768-2.153,3.076-8,3.383-13.533ZM27.466,13.71c-1.538-5.536-6.151-8.919-12.3-8.919C5.629,4.791,1.323,12.326.554,18.631c-.769,6,1.384,10.919,5.229,11.841a4.094,4.094,0,0,0,3.076-.615c4.152-2.922,6.766-15.071,7.689-21.222a8.072,8.072,0,0,1,7.228,6,9.464,9.464,0,0,1,.308,2.922,12.8,12.8,0,0,1-6.151,10.919l2,3.229A16.393,16.393,0,0,0,27.466,13.71ZM6.552,26.782c-1.23-.461-2.307-2.768-2.307-5.844A7.487,7.487,0,0,1,4.4,19.093c.615-4.46,3.076-9.227,8.458-10.3C11.165,18.478,8.089,26.167,6.552,26.782Zm82.274-3.537A51.658,51.658,0,0,0,86.365,6.329H82.213s2.768,5.844,2.768,16.916ZM50.688,9.558c-5.382-1.845-10.919.308-16.147,2.922l1.692,3.383c5.075-2.614,9.381-4,13.225-2.768a4.516,4.516,0,0,1,2.461,3.691,7.917,7.917,0,0,1-3.383,7.689,24.537,24.537,0,0,1-9.688,4l1.538,3.537a29,29,0,0,0,10.457-4.46,11.936,11.936,0,0,0,4.921-11.38C54.994,12.941,53.148,10.327,50.688,9.558Zm83.5,13.533H128.81v2.922h5.382V27.4l-5.382.461V30.78l13.841-1.23V26.628l-5.382.461V26.013h5.382V23.091h-5.382v-.769h5.382V11.557h-5.382v-.769h5.382V7.866h-5.382V6.79c2.461-.154,4.306-.308,5.382-.461V3.561c-1.845.154-7.382.615-13.841.615V7.1c1.845,0,3.691,0,5.382-.154v.923H128.81v2.922h5.382v.769H128.81V22.168h5.382Zm3.076-7.535v-.923h2.307v.923Zm0,3.691v-.923h2.307v.923Zm-5.382-3.691v-.923h2.307v.923Zm0,3.691v-.923h2.307v.923ZM154.953,9.1h-5.844V3.561H145.88V9.1h-2.307v3.229h2.307v6.459a35.73,35.73,0,0,1-2.153,12.61h3.537a38.161,38.161,0,0,0,2-12.61V12.326h2.614V26.013c0,1.384-.615,2.153-2,2.153V31.4a5.085,5.085,0,0,0,5.382-5.382V9.1Zm23.683,16.916h5.536V22.63h-5.536V21.092h6.305V17.709h-6.305V15.4h-3.383v2.307h-3.845V15.4h-3.383V26.167h7.228v1.384H166.64v3.383h19.223V27.551h-7.228Zm-3.383-4.767v1.538h-3.845V21.246ZM52.533,2.792A102.062,102.062,0,0,0,39.154,1.1l-.308,3.845A87.946,87.946,0,0,1,51.61,6.482ZM18.239,42.929a3.938,3.938,0,0,0-2.922,1.23c-1.076,1.076-1.076,2.461-1.076,4.306s0,3.229,1.076,4.306a4.085,4.085,0,0,0,5.844,0c1.076-1.076,1.076-2.461,1.076-4.306s0-3.229-1.076-4.306A3.938,3.938,0,0,0,18.239,42.929Zm1.384,8.612a1.949,1.949,0,0,1-1.384.615,1.5,1.5,0,0,1-1.384-.615c-.461-.461-.461-.923-.461-3.076,0-2,.154-2.614.461-3.076a1.865,1.865,0,0,1,2.768,0c.461.461.461.923.461,3.076S20.085,51.08,19.623,51.541Zm-12-1.845L3.322,43.083H1.477V53.848H3.63V47.235l4.306,6.613H9.781V43.083H7.628ZM35,43.083H32.387L28.543,47.85V43.083H26.39V53.848h2.153V50.618l1.384-1.692,2.768,4.921h2.461l-3.845-6.459Zm6.92,0-4,10.765h2.153L40.692,52h3.845l.615,1.845h2.307l-4-10.765H41.922Zm-.461,7.074,1.384-3.845,1.384,3.845Zm112.416,6.151,2.153-1.692V51.541h-2.153Zm-4.614-5.075a1.213,1.213,0,0,0-1.23,1.23,1.356,1.356,0,0,0,1.23,1.384,1.378,1.378,0,0,0,1.384-1.384A1.635,1.635,0,0,0,149.263,51.233Zm14.763-8.151h-2.153V53.848h6.92V52h-4.921V43.083ZM56.531,53.848h7.074V52H58.684V49.388H62.99V47.543H58.684V45.082h4.921V43.237H56.531Zm135.483-2.614a1.356,1.356,0,0,0-1.384,1.23,1.384,1.384,0,1,0,2.768,0A1.635,1.635,0,0,0,192.015,51.233Zm-7.843-4.614a2.2,2.2,0,0,0-2-.769,2.3,2.3,0,0,0-1.845.769c-.769.769-.769,2.153-.769,3.383s0,2.614.769,3.383a2.924,2.924,0,0,0,2,.769,2.546,2.546,0,0,0,2-.769v.769h1.845V43.391h-2Zm-1.23,5.536c-1.23,0-1.384-.923-1.384-2.307,0-1.23.154-2.307,1.384-2.307s1.384.923,1.384,2.307C184.172,51.233,184.018,52.156,182.942,52.156ZM140.8,45.851a3.334,3.334,0,0,0-2.461.923,3.909,3.909,0,0,0-.923,3.076,3.909,3.909,0,0,0,.923,3.076,3.742,3.742,0,0,0,4.921,0,3.909,3.909,0,0,0,.923-3.076,3.909,3.909,0,0,0-.923-3.076A3.965,3.965,0,0,0,140.8,45.851Zm.923,6a1.3,1.3,0,0,1-.923.308,1.649,1.649,0,0,1-.923-.308c-.461-.461-.461-1.076-.461-2a2.79,2.79,0,0,1,.461-2,1.538,1.538,0,0,1,1.845,0c.461.461.461,1.076.461,2A3.49,3.49,0,0,1,141.728,51.849Zm32.91-8h-2v2.307h-.769V47.7h.769v3.845a2.167,2.167,0,0,0,2.307,2.307h1.076V52.156h-.769c-.461,0-.615-.308-.615-.769V47.543h1.384V46h-1.384V43.852Zm-43.059,1.076a1.893,1.893,0,0,1,1.538.769l1.384-1.384a4.043,4.043,0,0,0-3.076-1.23,3.938,3.938,0,0,0-2.922,1.23c-1.076,1.076-1.076,2.461-1.076,4.306s0,3.229,1.076,4.306a3.938,3.938,0,0,0,2.922,1.23,4.294,4.294,0,0,0,3.076-1.23l-1.384-1.384a2.135,2.135,0,0,1-1.538.769,1.5,1.5,0,0,1-1.384-.615c-.461-.461-.461-.923-.461-3.076,0-2,.154-2.614.461-3.076A1.5,1.5,0,0,1,131.578,44.928Zm-52.748,0H81.6v8.919h2.153V44.928h2.768V43.083H78.83Zm-6,2.614-1.23-.154a1.4,1.4,0,0,1-1.076-.461c-.154-.308-.308-.461-.308-.769,0-.769.615-1.384,1.692-1.384a2.878,2.878,0,0,1,2.153.769l1.384-1.384a4.543,4.543,0,0,0-3.537-1.23c-2.307,0-3.691,1.384-3.691,3.229a3.334,3.334,0,0,0,.769,2.153,3.99,3.99,0,0,0,2.153.923l1.23.154a1.3,1.3,0,0,1,.923.308,1.13,1.13,0,0,1,.308.923Q73.6,52,71.756,52a3.075,3.075,0,0,1-2.614-.923l-1.384,1.384a5.119,5.119,0,0,0,4,1.384c2.307,0,4-1.23,4-3.229a3.777,3.777,0,0,0-.769-2.307A7.021,7.021,0,0,0,72.832,47.543Zm19.377-4.46-4,10.765h2.307L91.133,52h3.845l.615,1.845h2.153l-4-10.765H92.209Zm-.461,7.074,1.384-3.845s1.73,2.883,1.384,3.845S91.748,50.157,91.748,50.157Zm7.689-5.229h2.768v8.919h2.153V44.928h2.768V43.083H99.437Zm11.841,8.919h7.074V52h-5.075V49.388h4.306V47.543h-4.306V45.082h5.075V43.237h-7.074Z" transform="translate(-0.399 -1.1)" fill="#fff"/>
</svg>
