<svg xmlns="http://www.w3.org/2000/svg" width="144.954" height="67.747" viewBox="0 0 144.954 67.747">
  <g id="グループ_2808" data-name="グループ 2808" transform="translate(-834.487 -1335.237)">
    <g id="グループ_2798" data-name="グループ 2798" transform="translate(517 340)">
      <g id="グループ_2786" data-name="グループ 2786" transform="translate(321.046 999.044)">
        <path id="パス_9601" data-name="パス 9601" d="M133.371,74.732c.946.538,2.13-.035,1.926-.972l-1.926-6.311H144.3c9.2,0,16.655-6.177,16.655-13.8V24.8c0-7.621-7.456-13.8-16.655-13.8H36.655C27.456,10.984,20,17.176,20,24.8V53.652c0,7.621,7.456,13.8,16.655,13.8h80.863Z" transform="translate(-20 -11)"/>
      </g>
      <g id="グループ_2785" data-name="グループ 2785" transform="translate(319.487 997.237)">
        <path id="パス_9601-2" data-name="パス 9601" d="M130.371,72.1c.946.516,2.189-.133,1.984-1.031l-1.428-5.951H144.3c9.2,0,16.655-5.921,16.655-13.227V24.227C160.954,16.921,153.5,11,144.3,11H36.655C27.456,10.985,20,16.921,20,24.227V51.889c0,7.306,7.456,13.227,16.655,13.227h80.863Z" transform="translate(-20 -11)" fill="#fde94c" stroke="#000" stroke-width="4"/>
      </g>
      <path id="パス_9616" data-name="パス 9616" d="M-43.956-15.984a1.274,1.274,0,0,1,.732.984,1.479,1.479,0,0,1-.348,1.224,1.091,1.091,0,0,1-.8.48,1.867,1.867,0,0,1-1-.192,6.17,6.17,0,0,0-1.212-.408,6.016,6.016,0,0,0-1.332-.144,6.194,6.194,0,0,0-2.316.408,4.861,4.861,0,0,0-1.74,1.164,5.033,5.033,0,0,0-1.092,1.788,6.682,6.682,0,0,0-.372,2.28,7,7,0,0,0,.42,2.544,4.968,4.968,0,0,0,1.164,1.8A4.683,4.683,0,0,0-50.1-2.988a6.65,6.65,0,0,0,2.184.348,7.1,7.1,0,0,0,1.3-.12,4.448,4.448,0,0,0,1.248-.432,1.706,1.706,0,0,1,1-.168,1.257,1.257,0,0,1,.828.5A1.448,1.448,0,0,1-43.2-1.62a1.265,1.265,0,0,1-.732.924,8.44,8.44,0,0,1-1.284.516,9.739,9.739,0,0,1-1.332.312A8.608,8.608,0,0,1-47.916.24a9.68,9.68,0,0,1-3.276-.552,8.3,8.3,0,0,1-2.76-1.632,7.544,7.544,0,0,1-1.908-2.7,9.448,9.448,0,0,1-.7-3.756,8.943,8.943,0,0,1,.636-3.408,7.915,7.915,0,0,1,1.8-2.7,8.3,8.3,0,0,1,2.748-1.776,9.191,9.191,0,0,1,3.456-.636,8.88,8.88,0,0,1,2.064.24A8.385,8.385,0,0,1-43.956-15.984Zm6.024-.816a1.442,1.442,0,0,1,1.02.42,1.379,1.379,0,0,1,.444,1.044V-1.464A1.362,1.362,0,0,1-36.924-.42,1.511,1.511,0,0,1-37.98,0a1.437,1.437,0,0,1-1.08-.42,1.439,1.439,0,0,1-.408-1.044V-15.336a1.4,1.4,0,0,1,.432-1.044A1.518,1.518,0,0,1-37.932-16.8Zm10.632,0a1.437,1.437,0,0,1,1.08.42,1.439,1.439,0,0,1,.408,1.044V-1.464a1.417,1.417,0,0,1-.42,1.044A1.508,1.508,0,0,1-27.348,0a1.442,1.442,0,0,1-1.02-.42,1.379,1.379,0,0,1-.444-1.044V-15.336a1.362,1.362,0,0,1,.456-1.044A1.511,1.511,0,0,1-27.3-16.8ZM-38-9.816h10.7v2.76H-38ZM-5.556-8.4a9.28,9.28,0,0,1-.6,3.36A8.557,8.557,0,0,1-7.848-2.292,7.827,7.827,0,0,1-10.44-.432,7.921,7.921,0,0,1-13.716.24,7.838,7.838,0,0,1-16.98-.432a7.861,7.861,0,0,1-2.58-1.86A8.557,8.557,0,0,1-21.252-5.04a9.28,9.28,0,0,1-.6-3.36,9.28,9.28,0,0,1,.6-3.36,8.557,8.557,0,0,1,1.692-2.748,7.861,7.861,0,0,1,2.58-1.86,7.838,7.838,0,0,1,3.264-.672,7.921,7.921,0,0,1,3.276.672,7.827,7.827,0,0,1,2.592,1.86A8.557,8.557,0,0,1-6.156-11.76,9.28,9.28,0,0,1-5.556-8.4Zm-3.12,0a6.478,6.478,0,0,0-.648-2.916A5.3,5.3,0,0,0-11.1-13.392a4.536,4.536,0,0,0-2.616-.768,4.536,4.536,0,0,0-2.616.768A5.229,5.229,0,0,0-18.1-11.328,6.559,6.559,0,0,0-18.732-8.4,6.58,6.58,0,0,0-18.1-5.484a5.21,5.21,0,0,0,1.764,2.076,4.536,4.536,0,0,0,2.616.768A4.536,4.536,0,0,0-11.1-3.408,5.3,5.3,0,0,0-9.324-5.484,6.478,6.478,0,0,0-8.676-8.4ZM1.4-1.464A1.362,1.362,0,0,1,.948-.42,1.511,1.511,0,0,1-.108,0a1.437,1.437,0,0,1-1.08-.42A1.439,1.439,0,0,1-1.6-1.464V-15.336a1.4,1.4,0,0,1,.432-1.044,1.518,1.518,0,0,1,1.1-.42,1.442,1.442,0,0,1,1.02.42A1.379,1.379,0,0,1,1.4-15.336Zm16.56-14.52A1.274,1.274,0,0,1,18.7-15a1.479,1.479,0,0,1-.348,1.224,1.091,1.091,0,0,1-.8.48,1.867,1.867,0,0,1-1-.192,6.17,6.17,0,0,0-1.212-.408A6.016,6.016,0,0,0,14-14.04a6.194,6.194,0,0,0-2.316.408,4.861,4.861,0,0,0-1.74,1.164A5.033,5.033,0,0,0,8.856-10.68,6.682,6.682,0,0,0,8.484-8.4,7,7,0,0,0,8.9-5.856a4.968,4.968,0,0,0,1.164,1.8A4.683,4.683,0,0,0,11.82-2.988,6.65,6.65,0,0,0,14-2.64a7.1,7.1,0,0,0,1.3-.12,4.448,4.448,0,0,0,1.248-.432,1.706,1.706,0,0,1,1-.168,1.257,1.257,0,0,1,.828.5A1.448,1.448,0,0,1,18.72-1.62a1.265,1.265,0,0,1-.732.924A8.44,8.44,0,0,1,16.7-.18a9.739,9.739,0,0,1-1.332.312A8.608,8.608,0,0,1,14,.24a9.68,9.68,0,0,1-3.276-.552,8.3,8.3,0,0,1-2.76-1.632,7.544,7.544,0,0,1-1.908-2.7,9.448,9.448,0,0,1-.7-3.756A8.943,8.943,0,0,1,6-11.808a7.915,7.915,0,0,1,1.8-2.7,8.3,8.3,0,0,1,2.748-1.776A9.191,9.191,0,0,1,14-16.92a8.88,8.88,0,0,1,2.064.24A8.385,8.385,0,0,1,17.964-15.984Zm5.952-.816h8.04A1.463,1.463,0,0,1,33-16.4a1.339,1.339,0,0,1,.42,1.02,1.237,1.237,0,0,1-.42.972,1.517,1.517,0,0,1-1.044.372h-6.72l.216-.408v4.68L25.26-9.96h5.616a1.463,1.463,0,0,1,1.044.4,1.339,1.339,0,0,1,.42,1.02,1.237,1.237,0,0,1-.42.972,1.517,1.517,0,0,1-1.044.372H25.332l.12-.192v4.848L25.26-2.76h6.7A1.417,1.417,0,0,1,33-2.34a1.334,1.334,0,0,1,.42.972A1.274,1.274,0,0,1,33-.384,1.489,1.489,0,0,1,31.956,0h-8.04a1.417,1.417,0,0,1-1.044-.42,1.417,1.417,0,0,1-.42-1.044V-15.336a1.417,1.417,0,0,1,.42-1.044A1.417,1.417,0,0,1,23.916-16.8ZM38.8-5.3q-.816,0-.888-.912l-.7-8.832a1.649,1.649,0,0,1,.4-1.248,1.477,1.477,0,0,1,1.164-.5,1.513,1.513,0,0,1,1.176.5,1.553,1.553,0,0,1,.384,1.248L39.66-6.216Q39.588-5.3,38.8-5.3ZM38.628,0A1.445,1.445,0,0,1,37.56-.372a1.445,1.445,0,0,1-.372-1.068v-.408a1.445,1.445,0,0,1,.372-1.068,1.445,1.445,0,0,1,1.068-.372h.312a1.445,1.445,0,0,1,1.068.372,1.445,1.445,0,0,1,.372,1.068v.408a1.445,1.445,0,0,1-.372,1.068A1.445,1.445,0,0,1,38.94,0ZM46.4-5.3q-.816,0-.888-.912l-.7-8.832a1.649,1.649,0,0,1,.4-1.248,1.477,1.477,0,0,1,1.164-.5,1.513,1.513,0,0,1,1.176.5,1.553,1.553,0,0,1,.384,1.248l-.672,8.832Q47.2-5.3,46.4-5.3ZM46.236,0a1.445,1.445,0,0,1-1.068-.372A1.445,1.445,0,0,1,44.8-1.44v-.408a1.445,1.445,0,0,1,.372-1.068,1.445,1.445,0,0,1,1.068-.372h.312a1.445,1.445,0,0,1,1.068.372,1.445,1.445,0,0,1,.372,1.068v.408a1.445,1.445,0,0,1-.372,1.068A1.445,1.445,0,0,1,46.548,0Z" transform="translate(396.213 1032.706)"/>
    </g>
  </g>
</svg>
