<svg xmlns="http://www.w3.org/2000/svg" xmlns:xlink="http://www.w3.org/1999/xlink" width="347.5" height="98.822" viewBox="0 0 347.5 98.822">
  <defs>
    <clipPath id="clip-path">
      <rect id="長方形_2439" data-name="長方形 2439" width="330.765" height="25.861" fill="none"/>
    </clipPath>
  </defs>
  <g id="グループ_3178" data-name="グループ 3178" transform="translate(-12.5 -308.5)">
    <g id="グループ_2811" data-name="グループ 2811" transform="translate(-1499.812 581.487)">
      <g id="グループ_2360" data-name="グループ 2360" transform="translate(1519.191 -267.025)">
        <path id="パス_6998" data-name="パス 6998" d="M1556.906-228.365a5.246,5.246,0,0,0-3.049.5l-.04.02a9.184,9.184,0,0,1-2.566.889,15.375,15.375,0,0,1-2.8.259,14.352,14.352,0,0,1-4.694-.744,9.724,9.724,0,0,1-3.63-2.211,10.409,10.409,0,0,1-2.423-3.759,15.206,15.206,0,0,1-.9-5.49,14.417,14.417,0,0,1,.8-4.9,10.56,10.56,0,0,1,2.279-3.737,10.168,10.168,0,0,1,3.623-2.42,13.3,13.3,0,0,1,4.946-.864,12.835,12.835,0,0,1,2.835.306,13.21,13.21,0,0,1,2.57.862,5.613,5.613,0,0,0,2.99.565,3.811,3.811,0,0,0,2.752-1.6,4.737,4.737,0,0,0,1.06-3.83,4.239,4.239,0,0,0-2.384-3.222,21,21,0,0,0-4.709-1.729,22.169,22.169,0,0,0-5.114-.595,22.836,22.836,0,0,0-8.546,1.577,20.737,20.737,0,0,0-6.833,4.419,19.81,19.81,0,0,0-4.491,6.734A22.251,22.251,0,0,0,1527-238.9a23.408,23.408,0,0,0,1.729,9.274,18.942,18.942,0,0,0,4.777,6.752,20.716,20.716,0,0,0,6.865,4.06,23.989,23.989,0,0,0,8.078,1.363,21.466,21.466,0,0,0,3.4-.269,24.148,24.148,0,0,0,3.285-.769,20.992,20.992,0,0,0,3.174-1.274,4.224,4.224,0,0,0,2.4-3.038,4.648,4.648,0,0,0-1.052-3.916A4.169,4.169,0,0,0,1556.906-228.365Z" transform="translate(-1527.001 260.349)" fill="#fde94c"/>
        <path id="パス_6999" data-name="パス 6999" d="M1684.259-259.288a4.768,4.768,0,0,0-3.32,1.314,4.465,4.465,0,0,0-1.471,3.365v11.643H1664.09v-11.643a4.452,4.452,0,0,0-1.432-3.354,4.606,4.606,0,0,0-3.247-1.325,4.78,4.78,0,0,0-3.457,1.338,4.494,4.494,0,0,0-1.391,3.341v32.419a4.592,4.592,0,0,0,1.309,3.316,4.582,4.582,0,0,0,3.426,1.363,4.767,4.767,0,0,0,3.319-1.314,4.463,4.463,0,0,0,1.471-3.365V-234h15.378v11.811a4.446,4.446,0,0,0,1.43,3.353,4.6,4.6,0,0,0,3.248,1.326,4.754,4.754,0,0,0,3.5-1.35,4.542,4.542,0,0,0,1.35-3.329v-32.419a4.6,4.6,0,0,0-1.31-3.317A4.589,4.589,0,0,0,1684.259-259.288Z" transform="translate(-1608.739 259.849)" fill="#fde94c"/>
        <path id="パス_7000" data-name="パス 7000" d="M1807.982-254.525a19.644,19.644,0,0,0-6.47-4.643,19.855,19.855,0,0,0-8.17-1.68,19.655,19.655,0,0,0-8.146,1.682,19.711,19.711,0,0,0-6.438,4.642,21.338,21.338,0,0,0-4.2,6.822,23.039,23.039,0,0,0-1.486,8.3,23.03,23.03,0,0,0,1.486,8.3,21.32,21.32,0,0,0,4.2,6.822,19.7,19.7,0,0,0,6.438,4.642,19.662,19.662,0,0,0,8.146,1.682,19.856,19.856,0,0,0,8.17-1.681,19.638,19.638,0,0,0,6.47-4.644,21.345,21.345,0,0,0,4.2-6.822,23.047,23.047,0,0,0,1.486-8.3,23.059,23.059,0,0,0-1.486-8.3A21.362,21.362,0,0,0,1807.982-254.525Zm-14.639,27.33a9.286,9.286,0,0,1-5.406-1.577,10.981,10.981,0,0,1-3.7-4.362,14.2,14.2,0,0,1-1.36-6.265,14.155,14.155,0,0,1,1.358-6.289,11.023,11.023,0,0,1,3.7-4.338,9.287,9.287,0,0,1,5.406-1.577,9.292,9.292,0,0,1,5.406,1.577,11.22,11.22,0,0,1,3.732,4.371,13.971,13.971,0,0,1,1.384,6.257,13.967,13.967,0,0,1-1.384,6.257,11.213,11.213,0,0,1-3.731,4.371A9.291,9.291,0,0,1,1793.343-227.2Z" transform="translate(-1684.675 260.849)" fill="#fde94c"/>
        <path id="パス_7001" data-name="パス 7001" d="M1919.836-259.288a4.781,4.781,0,0,0-3.457,1.338,4.5,4.5,0,0,0-1.39,3.341v32.419a4.592,4.592,0,0,0,1.309,3.316,4.582,4.582,0,0,0,3.426,1.363,4.767,4.767,0,0,0,3.319-1.314,4.464,4.464,0,0,0,1.471-3.365v-32.419a4.452,4.452,0,0,0-1.432-3.354A4.605,4.605,0,0,0,1919.836-259.288Z" transform="translate(-1775.612 259.849)" fill="#fde94c"/>
        <path id="パス_7002" data-name="パス 7002" d="M1990.966-212.138h-9.76a4.648,4.648,0,0,0-3.3,1.268,4.354,4.354,0,0,0-1.377,3.3,4.444,4.444,0,0,0,1.362,3.313,4.591,4.591,0,0,0,3.317,1.31h9.76a4.655,4.655,0,0,0,3.3-1.268,4.348,4.348,0,0,0,1.376-3.242,4.546,4.546,0,0,0-1.35-3.33A4.546,4.546,0,0,0,1990.966-212.138Z" transform="translate(-1815.044 229.636)" fill="#fde94c"/>
        <path id="パス_7003" data-name="パス 7003" d="M2085.54-240.081a15.18,15.18,0,0,0-4.616-2.364,46.373,46.373,0,0,0-6.07-1.5,31.493,31.493,0,0,1-4.259-1.1,5.467,5.467,0,0,1-2.311-1.391,2.767,2.767,0,0,1-.66-1.937,2.623,2.623,0,0,1,.571-1.688,4.371,4.371,0,0,1,1.948-1.284,10.543,10.543,0,0,1,3.627-.538,10.381,10.381,0,0,1,2.8.429,20.525,20.525,0,0,1,3.011,1.109,8.984,8.984,0,0,1,2.113,1.293l.073.059a3.7,3.7,0,0,0,2.269.756,4.27,4.27,0,0,0,3.157-1.4,4.429,4.429,0,0,0,1.3-3.107,4.946,4.946,0,0,0-2.083-3.942,17.067,17.067,0,0,0-5.46-2.993,21.581,21.581,0,0,0-7.175-1.165,19.361,19.361,0,0,0-7.555,1.444,13.053,13.053,0,0,0-5.6,4.345,11.56,11.56,0,0,0-2.12,6.966,12.76,12.76,0,0,0,.877,4.82,10.6,10.6,0,0,0,2.638,3.815,13.668,13.668,0,0,0,4.228,2.6,24.916,24.916,0,0,0,5.623,1.453,22.691,22.691,0,0,1,4.989,1.187,6.508,6.508,0,0,1,2.59,1.639,3.005,3.005,0,0,1,.707,2.043,2.225,2.225,0,0,1-.708,1.618,6.265,6.265,0,0,1-2.342,1.438,9.679,9.679,0,0,1-3.377.567,12.073,12.073,0,0,1-4.7-.8,16.666,16.666,0,0,1-3.942-2.462,4.212,4.212,0,0,0-2.692-.948,4.348,4.348,0,0,0-3.243,1.377,4.447,4.447,0,0,0-1.268,3.134,4.741,4.741,0,0,0,.525,2.131,5.662,5.662,0,0,0,1.426,1.793,18.24,18.24,0,0,0,6.449,3.7,25.027,25.027,0,0,0,7.442,1.039,19.2,19.2,0,0,0,7.589-1.5,14.216,14.216,0,0,0,5.8-4.43,11.3,11.3,0,0,0,2.278-7.046,13.756,13.756,0,0,0-.94-5.341A9.462,9.462,0,0,0,2085.54-240.081Z" transform="translate(-1867.168 260.849)" fill="#fde94c"/>
        <path id="パス_7004" data-name="パス 7004" d="M2193.941-259.288h-24.9a4.78,4.78,0,0,0-3.273,1.185,4.229,4.229,0,0,0-1.405,3.269,4.315,4.315,0,0,0,1.39,3.283,4.711,4.711,0,0,0,3.289,1.228h7.549v28.134a4.5,4.5,0,0,0,1.39,3.341,4.781,4.781,0,0,0,3.457,1.337,4.953,4.953,0,0,0,3.528-1.325,4.448,4.448,0,0,0,1.432-3.354v-28.134h7.548a4.779,4.779,0,0,0,3.274-1.185,4.228,4.228,0,0,0,1.406-3.269,4.324,4.324,0,0,0-1.391-3.284A4.721,4.721,0,0,0,2193.941-259.288Z" transform="translate(-1935.401 259.849)" fill="#fde94c"/>
        <path id="パス_7005" data-name="パス 7005" d="M2293.753-256.906a4.565,4.565,0,0,0-1.727-2.233,4.54,4.54,0,0,0-2.518-.8,4.189,4.189,0,0,0-2.755.716,4.9,4.9,0,0,0-1.836,2.3l-13.967,33.541-.044.123a5,5,0,0,0-.22,1.426,4.3,4.3,0,0,0,1.036,2.9,4.012,4.012,0,0,0,3.194,1.275,4.2,4.2,0,0,0,2.5-.828,4.7,4.7,0,0,0,1.637-2.207l2.573-6.051H2296.7l2.582,6.017a5.257,5.257,0,0,0,1.661,2.2,4.184,4.184,0,0,0,2.583.873,4.366,4.366,0,0,0,3.007-1.227,4.385,4.385,0,0,0,1.391-3.34,5.043,5.043,0,0,0-.363-1.8Zm-8.311,21.192,3.686-8.669,3.72,8.669Z" transform="translate(-2003.532 260.28)" fill="#fde94c"/>
        <path id="パス_7006" data-name="パス 7006" d="M2412.854-258.432a4.542,4.542,0,0,0-3.191-1.325,4.605,4.605,0,0,0-3.842,2.231l-8.237,12.052-8.846-12.209a4.611,4.611,0,0,0-3.754-2.073,5.049,5.049,0,0,0-3.2,1.234,4.3,4.3,0,0,0-1.644,3.445,5.173,5.173,0,0,0,.289,1.629,6.043,6.043,0,0,0,.974,1.762l11.414,15.166v14.03a4.541,4.541,0,0,0,1.349,3.328,4.475,4.475,0,0,0,3.273,1.35,4.348,4.348,0,0,0,3.161-1.35,4.544,4.544,0,0,0,1.35-3.329v-13.277l11.511-16.481a4.739,4.739,0,0,0,.647-1.417,5.363,5.363,0,0,0,.181-1.356A4.516,4.516,0,0,0,2412.854-258.432Z" transform="translate(-2073.665 260.149)" fill="#fde94c"/>
      </g>
      <g id="グループ_2361" data-name="グループ 2361" transform="translate(1514.812 -270.487)">
        <path id="パス_7007" data-name="パス 7007" d="M1544.717-238a5.246,5.246,0,0,0-3.05.5l-.04.02a9.163,9.163,0,0,1-2.566.889,15.376,15.376,0,0,1-2.8.259,14.351,14.351,0,0,1-4.694-.744,9.725,9.725,0,0,1-3.63-2.211,10.406,10.406,0,0,1-2.423-3.759,15.2,15.2,0,0,1-.9-5.49,14.416,14.416,0,0,1,.8-4.9,10.56,10.56,0,0,1,2.279-3.737,10.17,10.17,0,0,1,3.623-2.42,13.3,13.3,0,0,1,4.946-.864,12.856,12.856,0,0,1,2.835.306,13.21,13.21,0,0,1,2.57.862,5.616,5.616,0,0,0,2.99.565,3.813,3.813,0,0,0,2.752-1.6,4.736,4.736,0,0,0,1.06-3.829,4.239,4.239,0,0,0-2.383-3.222,20.994,20.994,0,0,0-4.709-1.729,22.167,22.167,0,0,0-5.114-.595,22.843,22.843,0,0,0-8.546,1.577,20.744,20.744,0,0,0-6.833,4.419,19.807,19.807,0,0,0-4.492,6.734,22.25,22.25,0,0,0-1.579,8.439,23.408,23.408,0,0,0,1.729,9.274,18.944,18.944,0,0,0,4.777,6.752,20.712,20.712,0,0,0,6.865,4.06,23.99,23.99,0,0,0,8.078,1.363,21.463,21.463,0,0,0,3.4-.269,24.079,24.079,0,0,0,3.285-.769,20.955,20.955,0,0,0,3.174-1.274,4.223,4.223,0,0,0,2.4-3.038,4.647,4.647,0,0,0-1.052-3.916A4.169,4.169,0,0,0,1544.717-238Z" transform="translate(-1514.812 269.987)" fill="#fff"/>
        <path id="パス_7008" data-name="パス 7008" d="M1672.071-268.926a4.767,4.767,0,0,0-3.32,1.314,4.464,4.464,0,0,0-1.471,3.365V-252.6H1651.9v-11.643a4.453,4.453,0,0,0-1.432-3.354,4.608,4.608,0,0,0-3.247-1.325,4.781,4.781,0,0,0-3.457,1.338,4.494,4.494,0,0,0-1.39,3.341v32.419a4.592,4.592,0,0,0,1.309,3.316,4.583,4.583,0,0,0,3.426,1.363,4.767,4.767,0,0,0,3.32-1.314,4.464,4.464,0,0,0,1.471-3.365v-11.811h15.378v11.811a4.445,4.445,0,0,0,1.43,3.353,4.6,4.6,0,0,0,3.248,1.326,4.752,4.752,0,0,0,3.5-1.35,4.542,4.542,0,0,0,1.35-3.329v-32.419a4.6,4.6,0,0,0-1.31-3.317A4.589,4.589,0,0,0,1672.071-268.926Z" transform="translate(-1596.551 269.487)" fill="#fff"/>
        <path id="パス_7009" data-name="パス 7009" d="M1795.793-264.163a19.635,19.635,0,0,0-6.469-4.643,19.851,19.851,0,0,0-8.17-1.68,19.657,19.657,0,0,0-8.146,1.682,19.709,19.709,0,0,0-6.438,4.642,21.334,21.334,0,0,0-4.2,6.822,23.037,23.037,0,0,0-1.486,8.3,23.03,23.03,0,0,0,1.486,8.3,21.319,21.319,0,0,0,4.2,6.822,19.693,19.693,0,0,0,6.438,4.642,19.657,19.657,0,0,0,8.146,1.682,19.852,19.852,0,0,0,8.17-1.68,19.634,19.634,0,0,0,6.47-4.644,21.345,21.345,0,0,0,4.2-6.822,23.047,23.047,0,0,0,1.486-8.3,23.056,23.056,0,0,0-1.486-8.3A21.353,21.353,0,0,0,1795.793-264.163Zm-14.639,27.329a9.286,9.286,0,0,1-5.406-1.577,10.98,10.98,0,0,1-3.7-4.362,14.2,14.2,0,0,1-1.36-6.265,14.157,14.157,0,0,1,1.358-6.289,11.027,11.027,0,0,1,3.7-4.338,9.29,9.29,0,0,1,5.406-1.577,9.294,9.294,0,0,1,5.406,1.577,11.219,11.219,0,0,1,3.732,4.371,13.969,13.969,0,0,1,1.384,6.257,13.965,13.965,0,0,1-1.384,6.257,11.211,11.211,0,0,1-3.731,4.371A9.29,9.29,0,0,1,1781.154-236.834Z" transform="translate(-1672.486 270.487)" fill="#fff"/>
        <path id="パス_7010" data-name="パス 7010" d="M1907.647-268.926a4.782,4.782,0,0,0-3.457,1.338,4.5,4.5,0,0,0-1.39,3.341v32.419a4.593,4.593,0,0,0,1.309,3.316,4.582,4.582,0,0,0,3.426,1.363,4.768,4.768,0,0,0,3.32-1.314,4.464,4.464,0,0,0,1.471-3.365v-32.419a4.452,4.452,0,0,0-1.432-3.354A4.607,4.607,0,0,0,1907.647-268.926Z" transform="translate(-1763.423 269.487)" fill="#fff"/>
        <path id="パス_7011" data-name="パス 7011" d="M1978.777-221.776h-9.76a4.648,4.648,0,0,0-3.3,1.268,4.355,4.355,0,0,0-1.377,3.3,4.444,4.444,0,0,0,1.362,3.312,4.591,4.591,0,0,0,3.317,1.31h9.76a4.656,4.656,0,0,0,3.3-1.268,4.349,4.349,0,0,0,1.376-3.242,4.546,4.546,0,0,0-1.35-3.329A4.545,4.545,0,0,0,1978.777-221.776Z" transform="translate(-1802.855 239.274)" fill="#fff"/>
        <path id="パス_7012" data-name="パス 7012" d="M2073.351-249.719a15.172,15.172,0,0,0-4.616-2.364,46.432,46.432,0,0,0-6.07-1.5,31.5,31.5,0,0,1-4.259-1.1,5.467,5.467,0,0,1-2.311-1.391,2.765,2.765,0,0,1-.66-1.937,2.625,2.625,0,0,1,.571-1.688,4.373,4.373,0,0,1,1.949-1.284,10.542,10.542,0,0,1,3.627-.538,10.383,10.383,0,0,1,2.8.429,20.5,20.5,0,0,1,3.011,1.109,8.972,8.972,0,0,1,2.113,1.293l.073.059a3.7,3.7,0,0,0,2.269.756,4.269,4.269,0,0,0,3.157-1.4,4.428,4.428,0,0,0,1.3-3.107,4.946,4.946,0,0,0-2.083-3.943,17.068,17.068,0,0,0-5.46-2.993,21.592,21.592,0,0,0-7.176-1.165,19.36,19.36,0,0,0-7.555,1.444,13.057,13.057,0,0,0-5.6,4.345,11.561,11.561,0,0,0-2.12,6.966,12.768,12.768,0,0,0,.877,4.82,10.6,10.6,0,0,0,2.638,3.814,13.667,13.667,0,0,0,4.227,2.6,24.891,24.891,0,0,0,5.623,1.453,22.666,22.666,0,0,1,4.988,1.188,6.507,6.507,0,0,1,2.59,1.638,3,3,0,0,1,.707,2.043,2.226,2.226,0,0,1-.708,1.618,6.272,6.272,0,0,1-2.342,1.438,9.687,9.687,0,0,1-3.377.566,12.065,12.065,0,0,1-4.695-.8,16.646,16.646,0,0,1-3.943-2.462,4.213,4.213,0,0,0-2.692-.948,4.349,4.349,0,0,0-3.243,1.377,4.448,4.448,0,0,0-1.268,3.134,4.74,4.74,0,0,0,.525,2.131,5.657,5.657,0,0,0,1.425,1.793,18.244,18.244,0,0,0,6.449,3.7,25.031,25.031,0,0,0,7.442,1.039,19.2,19.2,0,0,0,7.59-1.5,14.212,14.212,0,0,0,5.8-4.43,11.3,11.3,0,0,0,2.279-7.046,13.751,13.751,0,0,0-.941-5.341A9.457,9.457,0,0,0,2073.351-249.719Z" transform="translate(-1854.98 270.487)" fill="#fff"/>
        <path id="パス_7013" data-name="パス 7013" d="M2181.752-268.926h-24.9a4.782,4.782,0,0,0-3.273,1.185,4.229,4.229,0,0,0-1.405,3.269,4.314,4.314,0,0,0,1.39,3.283,4.71,4.71,0,0,0,3.288,1.227h7.549v28.134a4.5,4.5,0,0,0,1.39,3.342,4.782,4.782,0,0,0,3.457,1.337,4.954,4.954,0,0,0,3.528-1.325,4.448,4.448,0,0,0,1.431-3.354v-28.134h7.548a4.781,4.781,0,0,0,3.274-1.185,4.229,4.229,0,0,0,1.405-3.269,4.324,4.324,0,0,0-1.391-3.284A4.722,4.722,0,0,0,2181.752-268.926Z" transform="translate(-1923.212 269.487)" fill="#fff"/>
        <path id="パス_7014" data-name="パス 7014" d="M2281.564-266.544a4.566,4.566,0,0,0-1.727-2.233,4.538,4.538,0,0,0-2.518-.805,4.188,4.188,0,0,0-2.754.716,4.9,4.9,0,0,0-1.837,2.3l-13.967,33.541-.044.123a5,5,0,0,0-.22,1.426,4.3,4.3,0,0,0,1.035,2.9,4.013,4.013,0,0,0,3.194,1.276,4.194,4.194,0,0,0,2.5-.828,4.693,4.693,0,0,0,1.637-2.207l2.573-6.051h15.065l2.582,6.017a5.26,5.26,0,0,0,1.661,2.2,4.183,4.183,0,0,0,2.583.873,4.366,4.366,0,0,0,3.008-1.227,4.384,4.384,0,0,0,1.39-3.339,5.041,5.041,0,0,0-.364-1.8Zm-8.312,21.193,3.686-8.669,3.72,8.669Z" transform="translate(-1991.343 269.918)" fill="#fff"/>
        <path id="パス_7015" data-name="パス 7015" d="M2400.665-268.07a4.542,4.542,0,0,0-3.191-1.324,4.605,4.605,0,0,0-3.843,2.231l-8.236,12.051-8.847-12.209a4.61,4.61,0,0,0-3.754-2.073,5.048,5.048,0,0,0-3.2,1.234,4.3,4.3,0,0,0-1.644,3.445,5.173,5.173,0,0,0,.289,1.629,6.048,6.048,0,0,0,.974,1.762l11.414,15.166v14.03a4.541,4.541,0,0,0,1.349,3.328,4.474,4.474,0,0,0,3.273,1.35,4.347,4.347,0,0,0,3.161-1.35,4.543,4.543,0,0,0,1.35-3.329V-245.4l11.512-16.481a4.734,4.734,0,0,0,.647-1.416,5.38,5.38,0,0,0,.182-1.356A4.516,4.516,0,0,0,2400.665-268.07Z" transform="translate(-2061.476 269.787)" fill="#fff"/>
      </g>
      <g id="グループ_2368" data-name="グループ 2368" transform="translate(1514.812 -246.648)">
        <g id="グループ_2367" data-name="グループ 2367" clip-path="url(#clip-path)">
          <g id="グループ_2366" data-name="グループ 2366" transform="translate(-0.059 -23.841)">
            <path id="パス_7043" data-name="パス 7043" d="M1573.54-181.549a5.246,5.246,0,0,0-3.05.5l-.041.02a9.373,9.373,0,0,1-1.26.543l-9.3,9.3a24.048,24.048,0,0,0,2.858.435l10.8-10.8Z" transform="translate(-1543.635 213.533)" fill="#fde94c"/>
            <path id="パス_7044" data-name="パス 7044" d="M1546.695-179.959a10.157,10.157,0,0,1-1.4-.6l-6.783,6.783a20.6,20.6,0,0,0,2.05,1.243l7.126-7.126C1547.349-179.751,1547.018-179.848,1546.695-179.959Z" transform="translate(-1529.94 212.868)" fill="#fde94c"/>
            <path id="パス_7045" data-name="パス 7045" d="M1531.043-196.725c-.086-.222-.164-.452-.239-.687l-7.273,7.273a18.77,18.77,0,0,0,1.376,1.917l6.9-6.9A11.852,11.852,0,0,1,1531.043-196.725Z" transform="translate(-1520.341 223.664)" fill="#fde94c"/>
            <path id="パス_7046" data-name="パス 7046" d="M1557.683-177a15.952,15.952,0,0,1-1.864-.107l-7.485,7.485c.417.18.839.351,1.27.5.378.135.761.257,1.146.371l8.318-8.317C1558.606-177.022,1558.143-177,1557.683-177Z" transform="translate(-1536.233 210.654)" fill="#fde94c"/>
            <path id="パス_7047" data-name="パス 7047" d="M1591.839-164.7a20.958,20.958,0,0,0,3.174-1.274,4.223,4.223,0,0,0,2.4-3.038,4.293,4.293,0,0,0,0-1.709l-6.2,6.2C1591.421-164.576,1591.631-164.635,1591.839-164.7Z" transform="translate(-1563.708 206.561)" fill="#fde94c"/>
            <path id="パス_7048" data-name="パス 7048" d="M1524.455-248.541a14.417,14.417,0,0,1,.8-4.9,10.562,10.562,0,0,1,2.279-3.737,10.167,10.167,0,0,1,3.623-2.42,13.3,13.3,0,0,1,4.946-.864,12.851,12.851,0,0,1,2.835.306,13.206,13.206,0,0,1,2.57.862,5.615,5.615,0,0,0,2.99.565,3.814,3.814,0,0,0,2.752-1.6,4.737,4.737,0,0,0,1.06-3.829,4.239,4.239,0,0,0-2.384-3.222,21,21,0,0,0-4.708-1.728,22.147,22.147,0,0,0-5.114-.595,22.839,22.839,0,0,0-8.546,1.577,20.746,20.746,0,0,0-6.833,4.419,19.813,19.813,0,0,0-4.492,6.734,22.251,22.251,0,0,0-1.579,8.439c0,.705.03,1.391.078,2.066l2.066-2.066h2.179l-4.034,4.035a22.6,22.6,0,0,0,.57,2.723l6.757-6.757h2.179l-8.408,8.408c.109.293.22.583.342.866.208.485.437.952.675,1.41l7.642-7.642A18.32,18.32,0,0,1,1524.455-248.541Z" transform="translate(-1514.649 269.991)" fill="#fde94c"/>
            <path id="パス_7049" data-name="パス 7049" d="M1537.752-186.566a9.2,9.2,0,0,1-.778-.857l-6.754,6.754c.3.3.6.6.912.882q.4.354.812.686l6.7-6.7A9.475,9.475,0,0,1,1537.752-186.566Z" transform="translate(-1524.627 217.264)" fill="#fde94c"/>
            <path id="パス_7050" data-name="パス 7050" d="M1585.082-178.751a4.548,4.548,0,0,0-1.15-1.058l-10.318,10.318c.089,0,.178.005.268.005a21.494,21.494,0,0,0,3.27-.251l8.372-8.372A5.8,5.8,0,0,0,1585.082-178.751Z" transform="translate(-1552.432 212.385)" fill="#fde94c"/>
            <path id="パス_7051" data-name="パス 7051" d="M2412.2-198.668l-9.133,9.133v2.725c0,.184.011.362.029.538l9.1-9.1Z" transform="translate(-2083.924 224.469)" fill="#fde94c"/>
            <path id="パス_7052" data-name="パス 7052" d="M2414.185-162.611a4.347,4.347,0,0,0,3.16-1.35,4.542,4.542,0,0,0,1.35-3.329v-.915l-5.495,5.494A4.887,4.887,0,0,0,2414.185-162.611Z" transform="translate(-2090.414 204.949)" fill="#fde94c"/>
            <path id="パス_7053" data-name="パス 7053" d="M2413.142-183.437l-8.608,8.608a4.613,4.613,0,0,0,.824,1.108,4.8,4.8,0,0,0,.749.612l7.035-7.035Z" transform="translate(-2084.86 214.709)" fill="#fde94c"/>
            <path id="パス_7054" data-name="パス 7054" d="M2401.106-261.89a4.741,4.741,0,0,0,.647-1.417,5.365,5.365,0,0,0,.181-1.356,4.516,4.516,0,0,0-1.432-3.41,4.541,4.541,0,0,0-3.191-1.325,4.605,4.605,0,0,0-3.842,2.231l-8.237,12.052-8.846-12.209a4.61,4.61,0,0,0-3.754-2.073,5.046,5.046,0,0,0-3.2,1.234,4.3,4.3,0,0,0-1.644,3.445,5.175,5.175,0,0,0,.289,1.629,6.048,6.048,0,0,0,.974,1.762L2379.68-247.2l1.142-1.142H2383l-2.541,2.54v3.293l5.833-5.833h2.179l-8.013,8.012v3.293l10.894-10.894Z" transform="translate(-2061.313 269.791)" fill="#fde94c"/>
            <path id="パス_7055" data-name="パス 7055" d="M2271.828-193.138h1.97l8.965-8.965h-3.292l-17.157,17.156a4.042,4.042,0,0,0,2.413.879l5.644-5.644Z" transform="translate(-1993.73 226.67)" fill="#fde94c"/>
            <path id="パス_7056" data-name="パス 7056" d="M2342.152-185.417l-6.818,6.819.931,2.169c.019.045.043.085.063.129l6.8-6.8Z" transform="translate(-2040.519 215.978)" fill="#fde94c"/>
            <path id="パス_7057" data-name="パス 7057" d="M2347.818-172.848l-.773-1.84-6.6,6.6a4.88,4.88,0,0,0,.756.729,4.286,4.286,0,0,0,1.172.635l5.615-5.615C2347.939-172.506,2347.884-172.676,2347.818-172.848Z" transform="translate(-2043.794 209.103)" fill="#fde94c"/>
            <path id="パス_7058" data-name="パス 7058" d="M2337.6-196.146l-6.844,6.844.989,2.3,6.829-6.829Z" transform="translate(-2037.589 222.853)" fill="#fde94c"/>
            <path id="パス_7059" data-name="パス 7059" d="M2291.57-248.472l-7.587-18.075a4.568,4.568,0,0,0-1.727-2.233,4.54,4.54,0,0,0-2.518-.8,4.188,4.188,0,0,0-2.755.716,4.9,4.9,0,0,0-1.837,2.3l-8.88,21.325,3.229-3.229h2.18l-6.963,6.964-2.35,5.642,12.605-12.605H2277l2.36-5.552,2.382,5.552h.88l-.616.615.988,2.3,2.92-2.919h2.179l-12.083,12.082h3.293l12.082-12.082Z" transform="translate(-1993.761 269.922)" fill="#fde94c"/>
            <path id="パス_7060" data-name="パス 7060" d="M2326.261-206.873l-10.679,10.679h3.292l8.36-8.36Z" transform="translate(-2027.863 229.727)" fill="#fde94c"/>
            <path id="パス_7061" data-name="パス 7061" d="M2353.77-159.873a4.244,4.244,0,0,0,1.332-2.582l-3.766,3.765A4.451,4.451,0,0,0,2353.77-159.873Z" transform="translate(-2050.773 201.265)" fill="#fde94c"/>
            <path id="パス_7062" data-name="パス 7062" d="M2273.09-207.2l1.214-2.855-15.886,15.886a4.7,4.7,0,0,0-.083.846,4.474,4.474,0,0,0,.472,2.057l15.935-15.935Z" transform="translate(-1991.18 231.763)" fill="#fde94c"/>
            <path id="パス_7063" data-name="パス 7063" d="M2195.85-196.764l-9.806,9.806v1.368a4.771,4.771,0,0,0,.282,1.642l9.524-9.524Z" transform="translate(-1944.859 223.249)" fill="#fde94c"/>
            <path id="パス_7064" data-name="パス 7064" d="M2174.04-259.964h7.549a4.78,4.78,0,0,0,3.274-1.185,4.228,4.228,0,0,0,1.405-3.269,4.323,4.323,0,0,0-1.391-3.284,4.719,4.719,0,0,0-3.288-1.226h-24.9a4.781,4.781,0,0,0-3.273,1.185,4.229,4.229,0,0,0-1.405,3.269,4.315,4.315,0,0,0,1.39,3.283,4.71,4.71,0,0,0,3.289,1.228h7.549v13.642l1.719-1.718h2.179l-3.9,3.9v3.293l7.19-7.19h2.179l-9.369,9.369v3.293l9.806-9.806Z" transform="translate(-1923.049 269.49)" fill="#fde94c"/>
            <path id="パス_7065" data-name="パス 7065" d="M2203.158-162.715a4.448,4.448,0,0,0,1.432-3.354v-.23l-4.907,4.907A4.94,4.94,0,0,0,2203.158-162.715Z" transform="translate(-1953.598 203.728)" fill="#fde94c"/>
            <path id="パス_7066" data-name="パス 7066" d="M2197.789-181.531l-8.719,8.719c.1.111.2.219.3.324a4.581,4.581,0,0,0,1.636,1.029l6.78-6.78Z" transform="translate(-1946.797 213.488)" fill="#fde94c"/>
            <path id="パス_7067" data-name="パス 7067" d="M2063.032-178.984c-.29-.123-.581-.263-.874-.414l-6.7,6.7a18.714,18.714,0,0,0,2.038,1.254l7.063-7.063A8.744,8.744,0,0,1,2063.032-178.984Z" transform="translate(-1861.181 212.121)" fill="#fde94c"/>
            <path id="パス_7068" data-name="パス 7068" d="M2062.7-249.041l-3.71,3.71q.785.159,1.618.283c.416.059.813.123,1.2.191l4.185-4.184h2.179l-4.563,4.563a16.417,16.417,0,0,1,1.988.618c.168.066.328.134.483.2l5.384-5.384h2.18l-6.172,6.171a4.243,4.243,0,0,1,.714.648,2.84,2.84,0,0,1,.632,1.3l7.131-7.131a9.477,9.477,0,0,0-1.658-1.668,15.165,15.165,0,0,0-4.617-2.364,46.338,46.338,0,0,0-6.069-1.5,31.609,31.609,0,0,1-4.259-1.1,5.47,5.47,0,0,1-2.311-1.391,2.765,2.765,0,0,1-.66-1.936,2.623,2.623,0,0,1,.571-1.688,4.374,4.374,0,0,1,1.949-1.285,10.543,10.543,0,0,1,3.627-.538,10.386,10.386,0,0,1,2.8.43,20.525,20.525,0,0,1,3.011,1.109,8.983,8.983,0,0,1,2.113,1.292l.073.059a3.7,3.7,0,0,0,2.269.757,4.272,4.272,0,0,0,3.158-1.4,4.43,4.43,0,0,0,1.3-3.107,4.946,4.946,0,0,0-2.083-3.942,17.076,17.076,0,0,0-5.46-2.993,21.594,21.594,0,0,0-7.176-1.165,19.362,19.362,0,0,0-7.555,1.445,13.052,13.052,0,0,0-5.6,4.345,11.559,11.559,0,0,0-2.12,6.966,12.757,12.757,0,0,0,.878,4.82,10.6,10.6,0,0,0,2.637,3.814c.022.02.046.04.068.06h.93l-.43.43a13.048,13.048,0,0,0,1.975,1.317l1.747-1.747h2.179l-2.451,2.452c.07.029.137.06.208.089a21,21,0,0,0,2.246.749l3.289-3.289Z" transform="translate(-1855.917 270.491)" fill="#fde94c"/>
            <path id="パス_7069" data-name="パス 7069" d="M2074.006-176.457c-.438,0-.857-.016-1.262-.045l-7.491,7.491c.434.179.87.343,1.31.481.383.119.778.225,1.178.324l8.49-8.49A10.333,10.333,0,0,1,2074.006-176.457Z" transform="translate(-1867.46 210.391)" fill="#fde94c"/>
            <path id="パス_7070" data-name="パス 7070" d="M2050.033-187.738a4.349,4.349,0,0,0-3.243,1.377,4.448,4.448,0,0,0-1.268,3.134,4.46,4.46,0,0,0,.117.99l5.386-5.386A4.356,4.356,0,0,0,2050.033-187.738Z" transform="translate(-1854.816 217.465)" fill="#fde94c"/>
            <path id="パス_7071" data-name="パス 7071" d="M2096.406-203.528c-.119-.281-.253-.551-.4-.816l-18.791,18.791a26.585,26.585,0,0,0,2.985.308l16.714-16.714A10.729,10.729,0,0,0,2096.406-203.528Z" transform="translate(-1875.128 228.106)" fill="#fde94c"/>
            <path id="パス_7072" data-name="パス 7072" d="M2116.743-172.741a10.744,10.744,0,0,0,1.573-2.889l-7.269,7.268A14.187,14.187,0,0,0,2116.743-172.741Z" transform="translate(-1896.803 209.707)" fill="#fde94c"/>
            <path id="パス_7073" data-name="パス 7073" d="M2106.518-190.625a17.778,17.778,0,0,0-.1-1.918l-14.881,14.881a19.851,19.851,0,0,0,3.773-.48l11.136-11.137A13.426,13.426,0,0,0,2106.518-190.625Z" transform="translate(-1884.3 220.544)" fill="#fde94c"/>
            <path id="パス_7074" data-name="パス 7074" d="M2054.068-185.366c-.067-.054-.136-.1-.2-.151l-6.246,6.246a5.74,5.74,0,0,0,1.2,1.391c.128.11.257.212.386.318l6.562-6.562A19.737,19.737,0,0,1,2054.068-185.366Z" transform="translate(-1856.159 216.042)" fill="#fde94c"/>
            <path id="パス_7075" data-name="パス 7075" d="M1983.363-217.1a4.546,4.546,0,0,0-1.35-3.33,4.546,4.546,0,0,0-3.329-1.349h-9.76a4.648,4.648,0,0,0-3.3,1.268,4.263,4.263,0,0,0-1.337,2.683h1.483l-1.452,1.452a4.325,4.325,0,0,0,1.062,2.23l3.682-3.682h2.179l-4.655,4.655a4.731,4.731,0,0,0,2.34.583h.37l5.238-5.238h2.179l-5.238,5.238h3.292l5.238-5.238h2.179l-5.238,5.238h1.739a4.941,4.941,0,0,0,1.926-.373l2.427-2.427A4.537,4.537,0,0,0,1983.363-217.1Z" transform="translate(-1802.763 239.278)" fill="#fde94c"/>
            <path id="パス_7076" data-name="パス 7076" d="M1912.163-264.25a4.452,4.452,0,0,0-1.432-3.354,4.606,4.606,0,0,0-3.247-1.324,4.782,4.782,0,0,0-3.457,1.337,4.5,4.5,0,0,0-1.39,3.341v16.21h1.742l-1.742,1.742v3.292l5.034-5.034h2.179l-7.213,7.213v3.292l9.526-9.526Z" transform="translate(-1763.26 269.49)" fill="#fde94c"/>
            <path id="パス_7077" data-name="パス 7077" d="M1917.546-169.416v-2.107l-6.508,6.508a5.206,5.206,0,0,0,1.717.278,4.819,4.819,0,0,0,1.551-.254l3.032-3.032A4.666,4.666,0,0,0,1917.546-169.416Z" transform="translate(-1768.643 207.075)" fill="#fde94c"/>
            <path id="パス_7078" data-name="パス 7078" d="M1912.163-201.987l-9.526,9.526v3.292l9.526-9.526Z" transform="translate(-1763.26 226.596)" fill="#fde94c"/>
            <path id="パス_7079" data-name="パス 7079" d="M1912.662-186.755l-9.247,9.246a4.516,4.516,0,0,0,1.03,1.649c.1.105.209.2.318.3l7.9-7.9Z" transform="translate(-1763.759 216.835)" fill="#fde94c"/>
            <path id="パス_7080" data-name="パス 7080" d="M1801.346-177.074a11.257,11.257,0,0,1-1.537-.1l-7.323,7.323c.236.118.473.235.715.344.523.236,1.06.441,1.606.628l8.341-8.341A10.973,10.973,0,0,1,1801.346-177.074Z" transform="translate(-1692.678 210.727)" fill="#fde94c"/>
            <path id="パス_7081" data-name="パス 7081" d="M1777.21-197.24a12.942,12.942,0,0,1-.825-2.185l-7.355,7.356a21.042,21.042,0,0,0,1.3,1.989l6.974-6.975C1777.275-197.117,1777.241-197.177,1777.21-197.24Z" transform="translate(-1677.648 224.954)" fill="#fde94c"/>
            <path id="パス_7082" data-name="パス 7082" d="M1789.955-181.3c-.025-.017-.049-.037-.074-.054l-6.734,6.735a19.6,19.6,0,0,0,1.951,1.342l6.968-6.969A8.784,8.784,0,0,1,1789.955-181.3Z" transform="translate(-1686.694 213.372)" fill="#fde94c"/>
            <path id="パス_7083" data-name="パス 7083" d="M1801.319-249.041h0a23.059,23.059,0,0,0-1.486-8.3,21.366,21.366,0,0,0-4.2-6.821,19.639,19.639,0,0,0-6.469-4.643,19.859,19.859,0,0,0-8.17-1.68,19.657,19.657,0,0,0-8.146,1.682,19.7,19.7,0,0,0-6.438,4.642,21.336,21.336,0,0,0-4.2,6.822,23.038,23.038,0,0,0-1.486,8.3c0,.425.013.845.034,1.263l1.263-1.263h2.179l-3.264,3.264a22.777,22.777,0,0,0,.543,2.75l6.013-6.013h2.179l-7.684,7.684c.072.207.143.416.221.62.224.584.474,1.153.743,1.709l7.739-7.74a16.066,16.066,0,0,1-.162-2.273,14.153,14.153,0,0,1,1.358-6.289,11.029,11.029,0,0,1,3.7-4.338,9.29,9.29,0,0,1,5.406-1.577,9.294,9.294,0,0,1,5.406,1.576,11.219,11.219,0,0,1,3.731,4.371,13.964,13.964,0,0,1,1.384,6.257h.042l-.043.043a14.966,14.966,0,0,1-.477,3.769l3.813-3.813h2.179l-7.833,7.833a10.822,10.822,0,0,1-2.788,2.789l-10.264,10.264a20.05,20.05,0,0,0,2.824.468l21.354-21.354Z" transform="translate(-1672.323 270.491)" fill="#fde94c"/>
            <path id="パス_7084" data-name="パス 7084" d="M1837.553-207.411l-20.237,20.237a21.26,21.26,0,0,0,3.61-.317l16.145-16.145A23.721,23.721,0,0,0,1837.553-207.411Z" transform="translate(-1708.589 230.071)" fill="#fde94c"/>
            <path id="パス_7085" data-name="パス 7085" d="M1837.089-176.66a19.638,19.638,0,0,0,6.47-4.644,21.347,21.347,0,0,0,4.2-6.822c.033-.085.06-.172.092-.258l-12.336,12.335C1836.051-176.231,1836.577-176.431,1837.089-176.66Z" transform="translate(-1720.251 217.879)" fill="#fde94c"/>
            <path id="パス_7086" data-name="パス 7086" d="M1782.17-189.014l-6.815,6.815c.142.165.283.331.43.491.38.413.779.8,1.189,1.181l6.711-6.711A10.825,10.825,0,0,1,1782.17-189.014Z" transform="translate(-1681.702 218.283)" fill="#fde94c"/>
            <path id="パス_7087" data-name="パス 7087" d="M1652.512-185.275l-9.092,9.092a4.564,4.564,0,0,0,.875,1.271,4.452,4.452,0,0,0,.62.527l7.6-7.6Z" transform="translate(-1597.161 215.887)" fill="#fde94c"/>
            <path id="パス_7088" data-name="パス 7088" d="M1676.642-248.04v-16.21a4.6,4.6,0,0,0-1.31-3.317,4.589,4.589,0,0,0-3.425-1.362,4.765,4.765,0,0,0-3.32,1.314,4.464,4.464,0,0,0-1.471,3.365v11.643h-15.378V-264.25a4.453,4.453,0,0,0-1.431-3.354,4.608,4.608,0,0,0-3.247-1.324,4.783,4.783,0,0,0-3.457,1.337,4.5,4.5,0,0,0-1.39,3.341v16.3l.094-.093h2.179l-2.273,2.272v3.293l5.565-5.565h2.179l-7.745,7.745V-237l11.037-11.037h2.179l-13.216,13.216v2.993c0,.1.008.192.012.287l9.514-9.514v-2.585h2.585l4.4-4.4h2.179l-4.4,4.4h3.293l4.4-4.4h2.179l-4.4,4.4h3.293l4.4-4.4h2.179l-4.729,4.729v3.292l8.021-8.021Z" transform="translate(-1596.388 269.49)" fill="#fde94c"/>
            <path id="パス_7089" data-name="パス 7089" d="M1657.853-168.468v-1.575l-6.1,6.1a5.445,5.445,0,0,0,1.307.156,4.708,4.708,0,0,0,2.56-.731l1.571-1.571A4.484,4.484,0,0,0,1657.853-168.468Z" transform="translate(-1602.502 206.127)" fill="#fde94c"/>
            <path id="パス_7090" data-name="パス 7090" d="M1730.139-160.6a4.466,4.466,0,0,0,1.259-2.358l-3.591,3.591A4.5,4.5,0,0,0,1730.139-160.6Z" transform="translate(-1651.234 201.586)" fill="#fde94c"/>
            <path id="パス_7091" data-name="パス 7091" d="M1723.759-178.44l-8.015,8.015a4.668,4.668,0,0,0,2.15,1.142l5.865-5.864Z" transform="translate(-1643.505 211.507)" fill="#fde94c"/>
            <path id="パス_7092" data-name="パス 7092" d="M1721.063-208.9l-9.526,9.526v3.293l9.526-9.526Z" transform="translate(-1640.809 231.028)" fill="#fde94c"/>
            <path id="パス_7093" data-name="パス 7093" d="M1721.063-193.673l-9.526,9.526v.538a4.54,4.54,0,0,0,.543,2.212l8.983-8.983Z" transform="translate(-1640.809 221.268)" fill="#fde94c"/>
            <path id="パス_7094" data-name="パス 7094" d="M2319.522-202.457l-.085-.2-.2.2Z" transform="translate(-2030.206 227.024)" fill="#fde94c"/>
            <path id="パス_7095" data-name="パス 7095" d="M2303.052-210.781h-.15l-.112.262Z" transform="translate(-2019.666 232.231)" fill="#fde94c"/>
          </g>
        </g>
      </g>
      <g id="グループ_2369" data-name="グループ 2369" transform="translate(1514.812 -270.487)">
        <g id="パス_7096" data-name="パス 7096" transform="translate(-1514.812 269.987)" fill="none" stroke-linecap="round" stroke-linejoin="round">
          <path d="M1544.717-238a5.246,5.246,0,0,0-3.05.5l-.04.02a9.163,9.163,0,0,1-2.566.889,15.376,15.376,0,0,1-2.8.259,14.351,14.351,0,0,1-4.694-.744,9.725,9.725,0,0,1-3.63-2.211,10.406,10.406,0,0,1-2.423-3.759,15.2,15.2,0,0,1-.9-5.49,14.416,14.416,0,0,1,.8-4.9,10.56,10.56,0,0,1,2.279-3.737,10.17,10.17,0,0,1,3.623-2.42,13.3,13.3,0,0,1,4.946-.864,12.856,12.856,0,0,1,2.835.306,13.21,13.21,0,0,1,2.57.862,5.616,5.616,0,0,0,2.99.565,3.813,3.813,0,0,0,2.752-1.6,4.736,4.736,0,0,0,1.06-3.829,4.239,4.239,0,0,0-2.383-3.222,20.994,20.994,0,0,0-4.709-1.729,22.167,22.167,0,0,0-5.114-.595,22.843,22.843,0,0,0-8.546,1.577,20.744,20.744,0,0,0-6.833,4.419,19.807,19.807,0,0,0-4.492,6.734,22.25,22.25,0,0,0-1.579,8.439,23.408,23.408,0,0,0,1.729,9.274,18.944,18.944,0,0,0,4.777,6.752,20.712,20.712,0,0,0,6.865,4.06,23.99,23.99,0,0,0,8.078,1.363,21.463,21.463,0,0,0,3.4-.269,24.079,24.079,0,0,0,3.285-.769,20.955,20.955,0,0,0,3.174-1.274,4.223,4.223,0,0,0,2.4-3.038,4.647,4.647,0,0,0-1.052-3.916A4.169,4.169,0,0,0,1544.717-238Z" stroke="none"/>
          <path d="M 1536.26171875 -227.0882720947266 C 1537.407348632812 -227.0882720947266 1538.550048828125 -227.1788177490234 1539.658203125 -227.3569793701172 C 1540.759643554688 -227.5337219238281 1541.864624023438 -227.7927398681641 1542.942993164062 -228.1260986328125 C 1544.031127929688 -228.4619750976562 1545.105224609375 -228.8937683105469 1546.1171875 -229.3999176025391 C 1547.400756835938 -230.0167236328125 1548.22900390625 -231.0663909912109 1548.513916015625 -232.4375762939453 C 1548.79443359375 -233.7886352539062 1548.426635742188 -235.1472473144531 1547.462036132812 -236.3535308837891 C 1546.734741210938 -237.2879028320312 1545.811157226562 -237.8429107666016 1544.716918945312 -238.0031280517578 C 1544.480224609375 -238.0377807617188 1544.242553710938 -238.0550842285156 1544.00439453125 -238.0550842285156 C 1543.225830078125 -238.0550842285156 1542.442016601562 -237.8700866699219 1541.667358398438 -237.5019836425781 L 1541.627197265625 -237.4818878173828 C 1540.807006835938 -237.0551147460938 1539.944091796875 -236.7562255859375 1539.060791015625 -236.5931396484375 C 1538.1357421875 -236.4214324951172 1537.194213867188 -236.3341369628906 1536.26171875 -236.3341369628906 C 1534.576538085938 -236.3341369628906 1532.996948242188 -236.5845489501953 1531.567626953125 -237.0784759521484 C 1530.178833007812 -237.5573120117188 1528.957763671875 -238.3009338378906 1527.937133789062 -239.2895202636719 C 1526.9140625 -240.2792053222656 1526.09912109375 -241.5433349609375 1525.514282226562 -243.0481567382812 C 1524.919677734375 -244.5766754150391 1524.618286132812 -246.4234771728516 1524.618286132812 -248.5379180908203 C 1524.618286132812 -250.3286743164062 1524.885498046875 -251.9775390625 1525.413696289062 -253.4403381347656 C 1525.93017578125 -254.8750915527344 1526.697509765625 -256.1323852539062 1527.692626953125 -257.177734375 C 1528.683349609375 -258.2177124023438 1529.902465820312 -259.0324401855469 1531.31591796875 -259.5978698730469 C 1532.749145507812 -260.1712341308594 1534.412963867188 -260.4618225097656 1536.26171875 -260.4618225097656 C 1537.247314453125 -260.4618225097656 1538.201171875 -260.3587341308594 1539.096923828125 -260.15576171875 C 1539.997314453125 -259.9520568847656 1540.86767578125 -259.6593017578125 1541.666625976562 -259.2936096191406 C 1542.490356445312 -258.9010314941406 1543.324462890625 -258.7038879394531 1544.1513671875 -258.7038879394531 C 1544.320190429688 -258.7038879394531 1544.48876953125 -258.7120971679688 1544.656860351562 -258.7285461425781 C 1545.76513671875 -258.836669921875 1546.716064453125 -259.3909606933594 1547.408569335938 -260.3321533203125 C 1548.323852539062 -261.457275390625 1548.690673828125 -262.7806701660156 1548.46826171875 -264.1615295410156 C 1548.236938476562 -265.6031188964844 1547.412841796875 -266.7171020507812 1546.084838867188 -267.3834838867188 C 1544.618774414062 -268.1353454589844 1543.03466796875 -268.7165832519531 1541.376098632812 -269.112060546875 C 1539.714721679688 -269.5065307617188 1537.993896484375 -269.7069702148438 1536.26171875 -269.7069702148438 C 1533.198852539062 -269.7069702148438 1530.323974609375 -269.1764221191406 1527.7158203125 -268.1299438476562 C 1525.104370117188 -267.0806579589844 1522.805786132812 -265.5941467285156 1520.883178710938 -263.7110595703125 C 1518.953491210938 -261.8222045898438 1517.4423828125 -259.5565490722656 1516.391479492188 -256.9769287109375 C 1515.343627929688 -254.4059295654297 1514.812133789062 -251.5669403076172 1514.812133789062 -248.5379180908203 C 1514.812133789062 -245.0526580810547 1515.393676757812 -241.9323883056641 1516.541015625 -239.2640228271484 C 1517.693115234375 -236.5809326171875 1519.300659179688 -234.3091735839844 1521.318359375 -232.5115661621094 C 1523.3193359375 -230.7279968261719 1525.628784179688 -229.3618469238281 1528.183227539062 -228.4515533447266 C 1530.720947265625 -227.5470123291016 1533.438720703125 -227.0882720947266 1536.26171875 -227.0882720947266 M 1536.26171875 -224.5882720947266 C 1533.15234375 -224.5882720947266 1530.15185546875 -225.0957794189453 1527.343872070312 -226.0966796875 C 1524.485107421875 -227.1153869628906 1521.898193359375 -228.6457977294922 1519.654907226562 -230.6453247070312 C 1517.361938476562 -232.6881866455078 1515.541259765625 -235.2562103271484 1514.243774414062 -238.2776336669922 C 1512.962158203125 -241.2582855224609 1512.312133789062 -244.7107238769531 1512.312133789062 -248.5379180908203 C 1512.312133789062 -251.8913879394531 1512.90576171875 -255.0481414794922 1514.076416015625 -257.9204711914062 C 1515.257080078125 -260.8186950683594 1516.958862304688 -263.3681335449219 1519.134399414062 -265.4976196289062 C 1521.292114257812 -267.6110229492188 1523.865966796875 -269.2773132324219 1526.78369140625 -270.44970703125 C 1529.690307617188 -271.6159057617188 1532.878784179688 -272.2069702148438 1536.26171875 -272.2069702148438 C 1538.18701171875 -272.2069702148438 1540.10205078125 -271.9840698242188 1541.95361328125 -271.54443359375 C 1543.806762695312 -271.1025390625 1545.577026367188 -270.4526672363281 1547.217529296875 -269.6122131347656 C 1549.258056640625 -268.5841674804688 1550.578491210938 -266.7896118164062 1550.936645507812 -264.5576171875 C 1551.267333984375 -262.5049133300781 1550.716552734375 -260.4624328613281 1549.385498046875 -258.801025390625 C 1548.278198242188 -257.3233642578125 1546.6875 -256.414794921875 1544.899658203125 -256.2403564453125 C 1544.652465820312 -256.2161865234375 1544.400512695312 -256.2038879394531 1544.1513671875 -256.2038879394531 C 1542.955444335938 -256.2038879394531 1541.764404296875 -256.4809265136719 1540.61083984375 -257.0274047851562 C 1539.966796875 -257.3208618164062 1539.271850585938 -257.5530090332031 1538.545288085938 -257.7174072265625 C 1537.829223632812 -257.879638671875 1537.061157226562 -257.9618225097656 1536.26171875 -257.9618225097656 C 1534.732421875 -257.9618225097656 1533.380859375 -257.7313232421875 1532.244506835938 -257.2767333984375 C 1531.167236328125 -256.8457946777344 1530.244873046875 -256.2323303222656 1529.502685546875 -255.4533386230469 C 1528.748168945312 -254.6606750488281 1528.16357421875 -253.6982879638672 1527.765991210938 -252.5935821533203 C 1527.3359375 -251.4026489257812 1527.118286132812 -250.0389099121094 1527.118286132812 -248.5379180908203 C 1527.118286132812 -246.7348480224609 1527.362548828125 -245.1927490234375 1527.84423828125 -243.9544982910156 C 1528.297485351562 -242.7880554199219 1528.91357421875 -241.8233184814453 1529.67529296875 -241.0863800048828 C 1530.432006835938 -240.3534240722656 1531.342529296875 -239.800537109375 1532.382568359375 -239.4419403076172 C 1533.550170898438 -239.0384368896484 1534.854736328125 -238.8341369628906 1536.26171875 -238.8341369628906 C 1537.04052734375 -238.8341369628906 1537.828735351562 -238.9071502685547 1538.6044921875 -239.0511474609375 C 1539.245483398438 -239.1694946289062 1539.873413085938 -239.3875274658203 1540.473266601562 -239.6996307373047 C 1540.484985351562 -239.7057189941406 1540.496704101562 -239.7117156982422 1540.508544921875 -239.7176208496094 L 1540.548706054688 -239.7377166748047 C 1540.563842773438 -239.7453155517578 1540.5791015625 -239.7527465820312 1540.594482421875 -239.7600402832031 C 1541.704711914062 -240.28759765625 1542.851928710938 -240.5550842285156 1544.00439453125 -240.5550842285156 C 1544.362548828125 -240.5550842285156 1544.72412109375 -240.5287322998047 1545.0791015625 -240.4767608642578 C 1546.803100585938 -240.2243347167969 1548.305541992188 -239.3340606689453 1549.425048828125 -237.9015960693359 C 1550.845581054688 -236.1181945800781 1551.391235351562 -233.9979553222656 1550.961669921875 -231.9293365478516 C 1550.520263671875 -229.8046417236328 1549.191284179688 -228.1102142333984 1547.218872070312 -227.1556396484375 C 1546.082763671875 -226.5885772705078 1544.892333984375 -226.1114196777344 1543.680297851562 -225.7373046875 C 1542.489379882812 -225.3691558837891 1541.26904296875 -225.08349609375 1540.054321289062 -224.8885498046875 C 1538.815185546875 -224.6893463134766 1537.538940429688 -224.5882720947266 1536.26171875 -224.5882720947266 Z" stroke="none" fill="#231815"/>
        </g>
        <g id="パス_7097" data-name="パス 7097" transform="translate(-1596.551 269.487)" fill="none" stroke-linecap="round" stroke-linejoin="round">
          <path d="M1672.071-268.926a4.767,4.767,0,0,0-3.32,1.314,4.464,4.464,0,0,0-1.471,3.365V-252.6H1651.9v-11.643a4.453,4.453,0,0,0-1.432-3.354,4.608,4.608,0,0,0-3.247-1.325,4.781,4.781,0,0,0-3.457,1.338,4.494,4.494,0,0,0-1.39,3.341v32.419a4.592,4.592,0,0,0,1.309,3.316,4.583,4.583,0,0,0,3.426,1.363,4.767,4.767,0,0,0,3.32-1.314,4.464,4.464,0,0,0,1.471-3.365v-11.811h15.378v11.811a4.445,4.445,0,0,0,1.43,3.353,4.6,4.6,0,0,0,3.248,1.326,4.752,4.752,0,0,0,3.5-1.35,4.542,4.542,0,0,0,1.35-3.329v-32.419a4.6,4.6,0,0,0-1.31-3.317A4.589,4.589,0,0,0,1672.071-268.926Z" stroke="none"/>
          <path d="M 1647.22314453125 -268.926025390625 C 1645.843017578125 -268.926025390625 1644.68017578125 -268.4762573242188 1643.76611328125 -267.5882263183594 C 1642.84326171875 -266.69091796875 1642.3759765625 -265.5664978027344 1642.3759765625 -264.2470092773438 L 1642.3759765625 -231.8276062011719 C 1642.3759765625 -230.5203552246094 1642.81640625 -229.4046020507812 1643.6845703125 -228.5119018554688 C 1644.562744140625 -227.6073608398438 1645.715576171875 -227.1489868164062 1647.110595703125 -227.1489868164062 C 1648.366943359375 -227.1489868164062 1649.483642578125 -227.5908508300781 1650.430419921875 -228.4630737304688 C 1651.39306640625 -229.3496398925781 1651.90185546875 -230.5128173828125 1651.90185546875 -231.8276062011719 L 1651.90185546875 -243.6390838623047 L 1667.279541015625 -243.6390838623047 L 1667.279541015625 -231.8276062011719 C 1667.279541015625 -230.4991760253906 1667.76123046875 -229.3704833984375 1668.7099609375 -228.4745483398438 C 1669.639404296875 -227.5951538085938 1670.732177734375 -227.1489868164062 1671.958251953125 -227.1489868164062 C 1673.383056640625 -227.1489868164062 1674.55908203125 -227.6026916503906 1675.45556640625 -228.4989624023438 C 1676.3515625 -229.3948974609375 1676.805419921875 -230.5149841308594 1676.805419921875 -231.8276062011719 L 1676.805419921875 -264.2470092773438 C 1676.805419921875 -265.552490234375 1676.365234375 -266.668212890625 1675.49560546875 -267.5641784667969 C 1674.6162109375 -268.4676208496094 1673.4638671875 -268.926025390625 1672.070556640625 -268.926025390625 C 1670.814208984375 -268.926025390625 1669.69677734375 -268.4837951660156 1668.750732421875 -267.611572265625 C 1667.788330078125 -266.7253723144531 1667.279541015625 -265.5617980957031 1667.279541015625 -264.2470092773438 L 1667.279541015625 -252.6040344238281 L 1651.90185546875 -252.6040344238281 L 1651.90185546875 -264.2470092773438 C 1651.90185546875 -265.5733032226562 1651.42041015625 -266.7013244628906 1650.47021484375 -267.6011657714844 C 1649.5390625 -268.480224609375 1648.446533203125 -268.926025390625 1647.22314453125 -268.926025390625 M 1647.22314453125 -271.426025390625 C 1649.079345703125 -271.426025390625 1650.795654296875 -270.7320251464844 1652.186401367188 -269.4190673828125 C 1653.63671875 -268.0455627441406 1654.40185546875 -266.2580261230469 1654.40185546875 -264.2470092773438 L 1654.40185546875 -255.1040344238281 L 1664.779541015625 -255.1040344238281 L 1664.779541015625 -264.2470092773438 C 1664.779541015625 -266.2501220703125 1665.588500976562 -268.09814453125 1667.057250976562 -269.4506530761719 C 1668.458618164062 -270.7426147460938 1670.192504882812 -271.426025390625 1672.070556640625 -271.426025390625 C 1674.134399414062 -271.426025390625 1675.938232421875 -270.693603515625 1677.287109375 -269.3079223632812 C 1678.6083984375 -267.9466552734375 1679.305419921875 -266.197509765625 1679.305419921875 -264.2470092773438 L 1679.305419921875 -231.8276062011719 C 1679.305419921875 -229.8555297851562 1678.58544921875 -228.0932006835938 1677.223266601562 -226.7311401367188 C 1675.860717773438 -225.3689270019531 1674.040161132812 -224.6489868164062 1671.958251953125 -224.6489868164062 C 1670.0986328125 -224.6489868164062 1668.381225585938 -225.3438720703125 1666.991821289062 -226.6585693359375 C 1665.545166015625 -228.0247192382812 1664.779541015625 -229.8127136230469 1664.779541015625 -231.8276062011719 L 1664.779541015625 -241.1390838623047 L 1654.40185546875 -241.1390838623047 L 1654.40185546875 -231.8276062011719 C 1654.40185546875 -229.8248901367188 1653.592895507812 -227.9769287109375 1652.1240234375 -226.6241149902344 C 1650.721557617188 -225.3320617675781 1648.98779296875 -224.6489868164062 1647.110595703125 -224.6489868164062 C 1645.043212890625 -224.6489868164062 1643.23828125 -225.3825988769531 1641.890869140625 -226.7704772949219 C 1640.5732421875 -228.1253356933594 1639.8759765625 -229.8746032714844 1639.8759765625 -231.8276062011719 L 1639.8759765625 -264.2470092773438 C 1639.8759765625 -266.2395324707031 1640.618530273438 -268.0147094726562 1642.023315429688 -269.380615234375 C 1643.40087890625 -270.718994140625 1645.19873046875 -271.426025390625 1647.22314453125 -271.426025390625 Z" stroke="none" fill="#231815"/>
        </g>
        <g id="パス_7098" data-name="パス 7098" transform="translate(-1672.486 270.487)" fill="none" stroke-linecap="round" stroke-linejoin="round">
          <path d="M1795.793-264.163a19.635,19.635,0,0,0-6.469-4.643,19.851,19.851,0,0,0-8.17-1.68,19.657,19.657,0,0,0-8.146,1.682,19.709,19.709,0,0,0-6.438,4.642,21.334,21.334,0,0,0-4.2,6.822,23.037,23.037,0,0,0-1.486,8.3,23.03,23.03,0,0,0,1.486,8.3,21.319,21.319,0,0,0,4.2,6.822,19.693,19.693,0,0,0,6.438,4.642,19.657,19.657,0,0,0,8.146,1.682,19.852,19.852,0,0,0,8.17-1.68,19.634,19.634,0,0,0,6.47-4.644,21.345,21.345,0,0,0,4.2-6.822,23.047,23.047,0,0,0,1.486-8.3,23.056,23.056,0,0,0-1.486-8.3A21.353,21.353,0,0,0,1795.793-264.163Zm-14.639,27.329a9.286,9.286,0,0,1-5.406-1.577,10.98,10.98,0,0,1-3.7-4.362,14.2,14.2,0,0,1-1.36-6.265,14.157,14.157,0,0,1,1.358-6.289,11.027,11.027,0,0,1,3.7-4.338,9.29,9.29,0,0,1,5.406-1.577,9.294,9.294,0,0,1,5.406,1.577,11.219,11.219,0,0,1,3.732,4.371,13.969,13.969,0,0,1,1.384,6.257,13.965,13.965,0,0,1-1.384,6.257,11.211,11.211,0,0,1-3.731,4.371A9.29,9.29,0,0,1,1781.154-236.834Z" stroke="none"/>
          <path d="M 1781.153564453125 -270.4870300292969 C 1778.22119140625 -270.4870300292969 1775.480590820312 -269.9212341308594 1773.008056640625 -268.8051147460938 C 1770.544067382812 -267.6922302246094 1768.378295898438 -266.1303100585938 1766.5703125 -264.1634826660156 C 1764.769409179688 -262.20458984375 1763.355590820312 -259.9094848632812 1762.368041992188 -257.3413696289062 C 1761.381958007812 -254.7778778076172 1760.881713867188 -251.9838104248047 1760.881713867188 -249.0377349853516 C 1760.881713867188 -246.0906219482422 1761.381958007812 -243.2968902587891 1762.368041992188 -240.734130859375 C 1763.354858398438 -238.166748046875 1764.768676757812 -235.8712158203125 1766.569946289062 -233.912353515625 C 1768.379638671875 -231.9430541992188 1770.5458984375 -230.3814697265625 1773.008056640625 -229.27001953125 C 1775.480590820312 -228.1539001464844 1778.22119140625 -227.588134765625 1781.153564453125 -227.588134765625 C 1784.08447265625 -227.588134765625 1786.83349609375 -228.153564453125 1789.323608398438 -229.2686157226562 C 1791.804321289062 -230.3796997070312 1793.981323242188 -231.9419860839844 1795.793334960938 -233.912353515625 C 1797.593994140625 -235.8716125488281 1799.007690429688 -238.166748046875 1799.9951171875 -240.734130859375 C 1800.981201171875 -243.2990264892578 1801.481201171875 -246.0927886962891 1801.481201171875 -249.0377349853516 C 1801.481201171875 -251.9820098876953 1800.981201171875 -254.7757263183594 1799.9951171875 -257.3417053222656 C 1799.006958007812 -259.9094848632812 1797.593383789062 -262.20458984375 1795.792846679688 -264.1634826660156 C 1793.983032226562 -266.1317443847656 1791.806640625 -267.6940002441406 1789.323608398438 -268.8065490722656 C 1786.83349609375 -269.921630859375 1784.08447265625 -270.4870300292969 1781.153564453125 -270.4870300292969 M 1781.153564453125 -236.833984375 C 1779.072875976562 -236.833984375 1777.304809570312 -237.3494873046875 1775.7470703125 -238.41064453125 C 1774.18115234375 -239.4764709472656 1772.9365234375 -240.9439392089844 1772.0478515625 -242.7731323242188 C 1771.145751953125 -244.6278381347656 1770.688110351562 -246.7358093261719 1770.688110351562 -249.0377349853516 C 1770.688110351562 -251.375244140625 1771.14501953125 -253.4911193847656 1772.046020507812 -255.3271636962891 C 1772.93408203125 -257.1376647949219 1774.179565429688 -258.5975952148438 1775.74755859375 -259.6648559570312 C 1777.306274414062 -260.7260437011719 1779.074340820312 -261.2418823242188 1781.153564453125 -261.2418823242188 C 1783.232055664062 -261.2418823242188 1785.00048828125 -260.7260437011719 1786.5595703125 -259.6652221679688 C 1788.12841796875 -258.5961608886719 1789.3837890625 -257.1254577636719 1790.291381835938 -255.2944488525391 C 1791.20947265625 -253.4404602050781 1791.675048828125 -251.3357543945312 1791.675048828125 -249.0377349853516 C 1791.675048828125 -246.7393951416016 1791.20947265625 -244.6339416503906 1790.291381835938 -242.7810363769531 C 1789.3837890625 -240.9493408203125 1788.12841796875 -239.4786376953125 1786.559936523438 -238.4102783203125 C 1785.001953125 -237.3494873046875 1783.233520507812 -236.833984375 1781.153564453125 -236.833984375 M 1781.153564453125 -272.9870300292969 C 1784.439208984375 -272.9870300292969 1787.53173828125 -272.3481750488281 1790.345336914062 -271.0882263183594 C 1793.14013671875 -269.8359985351562 1795.591918945312 -268.0755615234375 1797.633178710938 -265.8556213378906 C 1799.647094726562 -263.66455078125 1801.226684570312 -261.1022644042969 1802.328369140625 -258.2395629882812 C 1803.425170898438 -255.3851928710938 1803.981201171875 -252.2896118164062 1803.981201171875 -249.0377349853516 C 1803.981201171875 -245.7848968505859 1803.425170898438 -242.6893157958984 1802.32861328125 -239.8370056152344 C 1801.227783203125 -236.9747924804688 1799.648315429688 -234.4123840332031 1797.634033203125 -232.2206420898438 C 1795.590576171875 -229.9986572265625 1793.138549804688 -228.2380065917969 1790.345458984375 -226.9869995117188 C 1787.531616210938 -225.7269897460938 1784.439086914062 -225.088134765625 1781.153564453125 -225.088134765625 C 1777.863891601562 -225.088134765625 1774.777221679688 -225.7284851074219 1771.9794921875 -226.9914245605469 C 1769.207153320312 -228.2428588867188 1766.767822265625 -230.0022583007812 1764.729125976562 -232.2207641601562 C 1762.714599609375 -234.4115905761719 1761.134887695312 -236.9743347167969 1760.034423828125 -239.8371887207031 C 1758.937866210938 -242.6871490478516 1758.381713867188 -245.7829284667969 1758.381713867188 -249.0377349853516 C 1758.381713867188 -252.291748046875 1758.937866210938 -255.3874664306641 1760.03466796875 -258.2388916015625 C 1761.135375976562 -261.101318359375 1762.715209960938 -263.6640014648438 1764.729858398438 -265.85546875 C 1766.767700195312 -268.0723876953125 1769.206787109375 -269.8313903808594 1771.97900390625 -271.08349609375 C 1774.777221679688 -272.3466796875 1777.863891601562 -272.9870300292969 1781.153564453125 -272.9870300292969 Z M 1781.153564453125 -239.333984375 C 1782.737060546875 -239.333984375 1784.0078125 -239.6971130371094 1785.152954101562 -240.4767456054688 C 1786.361328125 -241.2998657226562 1787.336669921875 -242.4486694335938 1788.05126953125 -243.8909912109375 C 1788.796997070312 -245.3959045410156 1789.175048828125 -247.1275177001953 1789.175048828125 -249.0377349853516 C 1789.175048828125 -250.9470825195312 1788.796875 -252.6788787841797 1788.051025390625 -254.1850280761719 C 1787.336669921875 -255.626220703125 1786.361083984375 -256.7752380371094 1785.151733398438 -257.5993041992188 C 1784.006591796875 -258.3785095214844 1782.735595703125 -258.7418823242188 1781.153564453125 -258.7418823242188 C 1779.571166992188 -258.7418823242188 1778.300415039062 -258.3785095214844 1777.154418945312 -257.5983276367188 C 1775.94921875 -256.7779541015625 1774.985717773438 -255.6434478759766 1774.29052734375 -254.2261962890625 C 1773.558959960938 -252.7353973388672 1773.188110351562 -250.9898681640625 1773.188110351562 -249.0377349853516 C 1773.188110351562 -247.1179351806641 1773.560913085938 -245.3781127929688 1774.296020507812 -243.8666076660156 C 1774.991821289062 -242.4345550537109 1775.953125 -241.2945861816406 1777.15380859375 -240.4773559570312 C 1778.299072265625 -239.6971130371094 1779.56982421875 -239.333984375 1781.153564453125 -239.333984375 Z" stroke="none" fill="#231815"/>
        </g>
        <g id="パス_7099" data-name="パス 7099" transform="translate(-1763.423 269.487)" fill="none" stroke-linecap="round" stroke-linejoin="round">
          <path d="M1907.647-268.926a4.782,4.782,0,0,0-3.457,1.338,4.5,4.5,0,0,0-1.39,3.341v32.419a4.593,4.593,0,0,0,1.309,3.316,4.582,4.582,0,0,0,3.426,1.363,4.768,4.768,0,0,0,3.32-1.314,4.464,4.464,0,0,0,1.471-3.365v-32.419a4.452,4.452,0,0,0-1.432-3.354A4.607,4.607,0,0,0,1907.647-268.926Z" stroke="none"/>
          <path d="M 1907.64697265625 -268.926025390625 C 1906.26708984375 -268.926025390625 1905.10400390625 -268.4762573242188 1904.18994140625 -267.5882263183594 C 1903.267578125 -266.69091796875 1902.7998046875 -265.5664978027344 1902.7998046875 -264.2470092773438 L 1902.7998046875 -231.8276062011719 C 1902.7998046875 -230.5203552246094 1903.24072265625 -229.4046020507812 1904.10888671875 -228.5119018554688 C 1904.98681640625 -227.6073608398438 1906.1396484375 -227.1489868164062 1907.53466796875 -227.1489868164062 C 1908.791015625 -227.1489868164062 1909.907470703125 -227.5908508300781 1910.8544921875 -228.4630737304688 C 1911.817138671875 -229.3496398925781 1912.325927734375 -230.5128173828125 1912.325927734375 -231.8276062011719 L 1912.325927734375 -264.2470092773438 C 1912.325927734375 -265.5733032226562 1911.844482421875 -266.7013244628906 1910.89404296875 -267.6011657714844 C 1909.963134765625 -268.480224609375 1908.870849609375 -268.926025390625 1907.64697265625 -268.926025390625 M 1907.64697265625 -271.426025390625 C 1909.503540039062 -271.426025390625 1911.219848632812 -270.73193359375 1912.610473632812 -269.4188232421875 C 1914.060668945312 -268.0458374023438 1914.825927734375 -266.2582397460938 1914.825927734375 -264.2470092773438 L 1914.825927734375 -231.8276062011719 C 1914.825927734375 -229.8248901367188 1914.016967773438 -227.9769287109375 1912.548095703125 -226.6241455078125 C 1911.145141601562 -225.3320007324219 1909.411499023438 -224.6489868164062 1907.53466796875 -224.6489868164062 C 1905.467163085938 -224.6489868164062 1903.662109375 -225.3826599121094 1902.31494140625 -226.7707214355469 C 1900.997192382812 -228.1256713867188 1900.2998046875 -229.8749389648438 1900.2998046875 -231.8276062011719 L 1900.2998046875 -264.2470092773438 C 1900.2998046875 -266.2388000488281 1901.042236328125 -268.0138244628906 1902.446655273438 -269.3801879882812 C 1903.82470703125 -270.718994140625 1905.62255859375 -271.426025390625 1907.64697265625 -271.426025390625 Z" stroke="none" fill="#231815"/>
        </g>
        <g id="パス_7100" data-name="パス 7100" transform="translate(-1802.855 239.274)" fill="none" stroke-linecap="round" stroke-linejoin="round">
          <path d="M1978.777-221.776h-9.76a4.648,4.648,0,0,0-3.3,1.268,4.355,4.355,0,0,0-1.377,3.3,4.444,4.444,0,0,0,1.362,3.312,4.591,4.591,0,0,0,3.317,1.31h9.76a4.656,4.656,0,0,0,3.3-1.268,4.349,4.349,0,0,0,1.376-3.242,4.546,4.546,0,0,0-1.35-3.329A4.545,4.545,0,0,0,1978.777-221.776Z" stroke="none"/>
          <path d="M 1969.017456054688 -221.7760009765625 C 1967.7177734375 -221.7760009765625 1966.606323242188 -221.3495941162109 1965.715454101562 -220.5082550048828 C 1964.802001953125 -219.647216796875 1964.3388671875 -218.5375366210938 1964.3388671875 -217.20947265625 C 1964.3388671875 -215.8885650634766 1964.79736328125 -214.7735290527344 1965.70068359375 -213.8970031738281 C 1966.59375 -213.0276641845703 1967.7099609375 -212.5868835449219 1969.017456054688 -212.5868835449219 L 1978.777099609375 -212.5868835449219 C 1980.075805664062 -212.5868835449219 1981.186767578125 -213.0136413574219 1982.079833984375 -213.8549652099609 C 1982.980102539062 -214.7049102783203 1983.4560546875 -215.8257141113281 1983.4560546875 -217.0973663330078 C 1983.4560546875 -218.4096527099609 1983.001953125 -219.5293731689453 1982.105712890625 -220.4267272949219 C 1981.209350585938 -221.3222808837891 1980.089233398438 -221.7760009765625 1978.777099609375 -221.7760009765625 L 1969.017456054688 -221.7760009765625 M 1969.017456054688 -224.2760009765625 L 1978.777099609375 -224.2760009765625 C 1980.748168945312 -224.2760009765625 1982.51025390625 -223.5565032958984 1983.872680664062 -222.1952972412109 C 1985.236328125 -220.8299865722656 1985.9560546875 -219.0677947998047 1985.9560546875 -217.0973663330078 C 1985.9560546875 -215.1492462158203 1985.18896484375 -213.3521575927734 1983.796020507812 -212.0371246337891 C 1982.441040039062 -210.7606201171875 1980.706176757812 -210.0868835449219 1978.777099609375 -210.0868835449219 L 1969.017456054688 -210.0868835449219 C 1967.0634765625 -210.0868835449219 1965.313598632812 -210.7849426269531 1963.956909179688 -212.1055908203125 C 1962.572265625 -213.4491577148438 1961.8388671875 -215.2149963378906 1961.8388671875 -217.20947265625 C 1961.8388671875 -219.2245788574219 1962.58642578125 -220.9943389892578 1964.000610351562 -222.3274383544922 C 1965.349853515625 -223.6016387939453 1967.085205078125 -224.2760009765625 1969.017456054688 -224.2760009765625 Z" stroke="none" fill="#231815"/>
        </g>
        <g id="パス_7101" data-name="パス 7101" transform="translate(-1854.98 270.487)" fill="none" stroke-linecap="round" stroke-linejoin="round">
          <path d="M2073.351-249.719a15.172,15.172,0,0,0-4.616-2.364,46.432,46.432,0,0,0-6.07-1.5,31.5,31.5,0,0,1-4.259-1.1,5.467,5.467,0,0,1-2.311-1.391,2.765,2.765,0,0,1-.66-1.937,2.625,2.625,0,0,1,.571-1.688,4.373,4.373,0,0,1,1.949-1.284,10.542,10.542,0,0,1,3.627-.538,10.383,10.383,0,0,1,2.8.429,20.5,20.5,0,0,1,3.011,1.109,8.972,8.972,0,0,1,2.113,1.293l.073.059a3.7,3.7,0,0,0,2.269.756,4.269,4.269,0,0,0,3.157-1.4,4.428,4.428,0,0,0,1.3-3.107,4.946,4.946,0,0,0-2.083-3.943,17.068,17.068,0,0,0-5.46-2.993,21.592,21.592,0,0,0-7.176-1.165,19.36,19.36,0,0,0-7.555,1.444,13.057,13.057,0,0,0-5.6,4.345,11.561,11.561,0,0,0-2.12,6.966,12.768,12.768,0,0,0,.877,4.82,10.6,10.6,0,0,0,2.638,3.814,13.667,13.667,0,0,0,4.227,2.6,24.891,24.891,0,0,0,5.623,1.453,22.666,22.666,0,0,1,4.988,1.188,6.507,6.507,0,0,1,2.59,1.638,3,3,0,0,1,.707,2.043,2.226,2.226,0,0,1-.708,1.618,6.272,6.272,0,0,1-2.342,1.438,9.687,9.687,0,0,1-3.377.566,12.065,12.065,0,0,1-4.695-.8,16.646,16.646,0,0,1-3.943-2.462,4.213,4.213,0,0,0-2.692-.948,4.349,4.349,0,0,0-3.243,1.377,4.448,4.448,0,0,0-1.268,3.134,4.74,4.74,0,0,0,.525,2.131,5.657,5.657,0,0,0,1.425,1.793,18.244,18.244,0,0,0,6.449,3.7,25.031,25.031,0,0,0,7.442,1.039,19.2,19.2,0,0,0,7.59-1.5,14.212,14.212,0,0,0,5.8-4.43,11.3,11.3,0,0,0,2.279-7.046,13.751,13.751,0,0,0-.941-5.341A9.457,9.457,0,0,0,2073.351-249.719Z" stroke="none"/>
          <path d="M 2061.581787109375 -270.4870300292969 C 2058.84521484375 -270.4870300292969 2056.302978515625 -270.0013732910156 2054.02685546875 -269.0425720214844 C 2051.69140625 -268.059326171875 2049.8056640625 -266.59765625 2048.42236328125 -264.6976928710938 C 2047.015625 -262.7664489746094 2046.30224609375 -260.4228210449219 2046.30224609375 -257.7314758300781 C 2046.30224609375 -255.9673004150391 2046.59765625 -254.3457183837891 2047.1796875 -252.9116973876953 C 2047.770751953125 -251.4553680419922 2048.658203125 -250.1718292236328 2049.81787109375 -249.0973815917969 C 2050.9541015625 -248.0433959960938 2052.376953125 -247.1683044433594 2054.045166015625 -246.4972686767578 C 2055.66357421875 -245.8456268310547 2057.552490234375 -245.3574371337891 2059.668212890625 -245.044189453125 C 2061.692626953125 -244.7596893310547 2063.37060546875 -244.3602142333984 2064.656494140625 -243.8565673828125 C 2065.840576171875 -243.3924407958984 2066.7119140625 -242.8410339355469 2067.24609375 -242.2181243896484 C 2067.7216796875 -241.6627502441406 2067.952880859375 -240.9949340820312 2067.952880859375 -240.175537109375 C 2067.952880859375 -239.5684204101562 2067.727294921875 -239.0540161132812 2067.244384765625 -238.5571899414062 C 2066.66748046875 -237.965576171875 2065.879150390625 -237.4816589355469 2064.90234375 -237.1195678710938 C 2063.889404296875 -236.7438354492188 2062.753662109375 -236.5530700683594 2061.525634765625 -236.5530700683594 C 2059.649169921875 -236.5530700683594 2058.0693359375 -236.821044921875 2056.8310546875 -237.349853515625 C 2055.5439453125 -237.8983764648438 2054.220458984375 -238.723876953125 2052.888427734375 -239.8116455078125 C 2052.1015625 -240.4410095214844 2051.19580078125 -240.7596435546875 2050.196044921875 -240.7596435546875 C 2048.92431640625 -240.7596435546875 2047.80322265625 -240.2840270996094 2046.952880859375 -239.383056640625 C 2046.11181640625 -238.4904174804688 2045.68505859375 -237.4356689453125 2045.68505859375 -236.24951171875 C 2045.68505859375 -235.5310668945312 2045.8623046875 -234.8129272460938 2046.2099609375 -234.1182250976562 C 2046.5458984375 -233.4439086914062 2047.028564453125 -232.837890625 2047.63525390625 -232.3249206542969 C 2049.665283203125 -230.5733337402344 2051.835205078125 -229.3289489746094 2054.083740234375 -228.6270141601562 C 2056.2919921875 -227.9376525878906 2058.7958984375 -227.588134765625 2061.525634765625 -227.588134765625 C 2064.226318359375 -227.588134765625 2066.779541015625 -228.0939025878906 2069.115234375 -229.0918579101562 C 2071.494140625 -230.1077575683594 2073.447021484375 -231.5982055664062 2074.919677734375 -233.5218505859375 C 2076.431396484375 -235.4954833984375 2077.1982421875 -237.8663940429688 2077.1982421875 -240.5681762695312 C 2077.1982421875 -242.6348266601562 2076.8818359375 -244.4317016601562 2076.257568359375 -245.9092102050781 C 2075.61572265625 -247.4291229248047 2074.6376953125 -248.7104949951172 2073.350830078125 -249.7192077636719 C 2072.118896484375 -250.6833801269531 2070.56591796875 -251.4787139892578 2068.734375 -252.0829315185547 C 2066.9892578125 -252.6576995849609 2064.942138671875 -253.1631469726562 2062.66455078125 -253.5809326171875 C 2061.00927734375 -253.9046020507812 2059.57666015625 -254.2756805419922 2058.40576171875 -254.6844787597656 C 2057.38037109375 -255.0408477783203 2056.603759765625 -255.5089263916016 2056.09521484375 -256.075439453125 C 2055.651123046875 -256.5700988769531 2055.435302734375 -257.2037658691406 2055.435302734375 -258.0120544433594 C 2055.435302734375 -258.6611633300781 2055.622314453125 -259.2136535644531 2056.006103515625 -259.7004089355469 C 2056.42041015625 -260.2245483398438 2057.075927734375 -260.6566772460938 2057.955078125 -260.9846801757812 C 2058.912841796875 -261.3414001464844 2060.132568359375 -261.5224304199219 2061.581787109375 -261.5224304199219 C 2062.431396484375 -261.5224304199219 2063.373779296875 -261.3780212402344 2064.380126953125 -261.0931396484375 C 2065.431640625 -260.7950134277344 2066.445068359375 -260.422119140625 2067.39111328125 -259.9842224121094 C 2068.287353515625 -259.5689392089844 2068.998779296875 -259.1339111328125 2069.504150390625 -258.6917114257812 L 2069.57763671875 -258.6327819824219 C 2070.246826171875 -258.1309509277344 2071.009765625 -257.8766174316406 2071.846435546875 -257.8766174316406 C 2073.044677734375 -257.8766174316406 2074.13623046875 -258.361572265625 2075.00390625 -259.2801208496094 C 2075.864013671875 -260.1914978027344 2076.30029296875 -261.2364807128906 2076.30029296875 -262.3867492675781 C 2076.30029296875 -263.8987731933594 2075.599609375 -265.2254028320312 2074.21728515625 -266.3292846679688 C 2072.797607421875 -267.5413818359375 2070.960693359375 -268.5482482910156 2068.75732421875 -269.3220520019531 C 2066.55810546875 -270.0951232910156 2064.143798828125 -270.4870300292969 2061.581787109375 -270.4870300292969 M 2061.581787109375 -272.9870300292969 C 2064.427001953125 -272.9870300292969 2067.120361328125 -272.5474853515625 2069.58642578125 -271.6806030273438 C 2072.065673828125 -270.8098754882812 2074.15966796875 -269.6578369140625 2075.81005859375 -268.2565612792969 C 2077.766357421875 -266.6809692382812 2078.80029296875 -264.6520385742188 2078.80029296875 -262.3867492675781 C 2078.80029296875 -260.6031494140625 2078.1162109375 -258.935546875 2076.822265625 -257.5642395019531 C 2075.4892578125 -256.1532287597656 2073.722412109375 -255.3766174316406 2071.846435546875 -255.3766174316406 C 2070.476806640625 -255.3766174316406 2069.173583984375 -255.8109588623047 2068.077880859375 -256.6326904296875 C 2068.05615234375 -256.64892578125 2068.03466796875 -256.6654663085938 2068.013671875 -256.6824035644531 L 2067.940185546875 -256.7413330078125 C 2067.912353515625 -256.7637329101562 2067.884765625 -256.7866821289062 2067.85791015625 -256.8102722167969 C 2067.67431640625 -256.9708862304688 2067.233154296875 -257.3021240234375 2066.340087890625 -257.7158813476562 C 2065.515380859375 -258.09765625 2064.626220703125 -258.4248657226562 2063.6982421875 -258.6879272460938 C 2062.91455078125 -258.9097900390625 2062.2021484375 -259.0224304199219 2061.581787109375 -259.0224304199219 C 2060.14990234375 -259.0224304199219 2059.293701171875 -258.8154907226562 2058.82763671875 -258.6419067382812 C 2058.177734375 -258.3994140625 2057.987060546875 -258.1749267578125 2057.96728515625 -258.1501159667969 C 2057.943115234375 -258.1194458007812 2057.935302734375 -258.1094360351562 2057.935302734375 -258.0120544433594 C 2057.935302734375 -257.8435668945312 2057.955810546875 -257.7621459960938 2057.9638671875 -257.7364501953125 C 2058.07421875 -257.6174011230469 2058.4052734375 -257.3313598632812 2059.2265625 -257.0459289550781 C 2060.284423828125 -256.6765747070312 2061.5966796875 -256.3375854492188 2063.130126953125 -256.0372314453125 C 2065.51513671875 -255.5992126464844 2067.66357421875 -255.0677337646484 2069.516357421875 -254.4574584960938 C 2071.62353515625 -253.7623596191406 2073.431640625 -252.8306884765625 2074.8916015625 -251.6879272460938 C 2076.51806640625 -250.4129333496094 2077.752197265625 -248.7962951660156 2078.560546875 -246.8817749023438 C 2079.3154296875 -245.0953063964844 2079.6982421875 -242.9709625244141 2079.6982421875 -240.5681762695312 C 2079.6982421875 -237.3041687011719 2078.75830078125 -234.4219970703125 2076.904296875 -232.0016479492188 C 2075.167236328125 -229.7324829101562 2072.876708984375 -227.9797973632812 2070.09716796875 -226.792724609375 C 2067.449951171875 -225.6617126464844 2064.56591796875 -225.088134765625 2061.525634765625 -225.088134765625 C 2058.54296875 -225.088134765625 2055.788330078125 -225.4758605957031 2053.3388671875 -226.2406005859375 C 2050.7646484375 -227.0441284179688 2048.29931640625 -228.4518432617188 2046.0107421875 -230.424560546875 C 2045.14453125 -231.1591796875 2044.458984375 -232.0267333984375 2043.97216796875 -233.00341796875 C 2043.45068359375 -234.0458679199219 2043.18505859375 -235.1393737792969 2043.18505859375 -236.24951171875 C 2043.18505859375 -238.068359375 2043.858642578125 -239.7447509765625 2045.13330078125 -241.0974731445312 C 2046.44970703125 -242.4923095703125 2048.247314453125 -243.2596435546875 2050.196044921875 -243.2596435546875 C 2051.755615234375 -243.2596435546875 2053.2265625 -242.7424468994141 2054.449951171875 -241.7639770507812 C 2054.45654296875 -241.7586975097656 2054.463134765625 -241.7533569335938 2054.4697265625 -241.7480163574219 C 2055.61572265625 -240.812255859375 2056.73974609375 -240.1062927246094 2057.811279296875 -239.6497192382812 C 2058.725830078125 -239.2591247558594 2060.009521484375 -239.0530700683594 2061.525634765625 -239.0530700683594 C 2062.455078125 -239.0530700683594 2063.298583984375 -239.191162109375 2064.032958984375 -239.4635009765625 C 2064.6474609375 -239.6913146972656 2065.136474609375 -239.9791870117188 2065.44873046875 -240.2965698242188 C 2065.433837890625 -240.490966796875 2065.3828125 -240.5504760742188 2065.34716796875 -240.5920104980469 C 2065.22802734375 -240.7308654785156 2064.8310546875 -241.1029052734375 2063.744140625 -241.5289916992188 C 2062.640380859375 -241.9613037109375 2061.15185546875 -242.3111419677734 2059.3203125 -242.5685272216797 C 2059.314208984375 -242.5693664550781 2059.30810546875 -242.5702514648438 2059.302001953125 -242.5711517333984 C 2056.993896484375 -242.9128875732422 2054.9111328125 -243.4535675048828 2053.111328125 -244.1782073974609 C 2051.1591796875 -244.9634857177734 2049.478759765625 -246.0019989013672 2048.11767578125 -247.2645263671875 C 2046.688720703125 -248.5885162353516 2045.59326171875 -250.1725311279297 2044.86328125 -251.9715423583984 C 2044.1591796875 -253.7060699462891 2043.80224609375 -255.6439971923828 2043.80224609375 -257.7314758300781 C 2043.80224609375 -260.9627075195312 2044.6767578125 -263.8017272949219 2046.401611328125 -266.1696166992188 C 2048.05615234375 -268.442138671875 2050.29541015625 -270.1841125488281 2053.056884765625 -271.3466796875 C 2055.640625 -272.4350891113281 2058.509033203125 -272.9870300292969 2061.581787109375 -272.9870300292969 Z" stroke="none" fill="#231815"/>
        </g>
        <g id="パス_7102" data-name="パス 7102" transform="translate(-1923.212 269.487)" fill="none" stroke-linecap="round" stroke-linejoin="round">
          <path d="M2181.752-268.926h-24.9a4.782,4.782,0,0,0-3.273,1.185,4.229,4.229,0,0,0-1.405,3.269,4.314,4.314,0,0,0,1.39,3.283,4.71,4.71,0,0,0,3.288,1.227h7.549v28.134a4.5,4.5,0,0,0,1.39,3.342,4.782,4.782,0,0,0,3.457,1.337,4.954,4.954,0,0,0,3.528-1.325,4.448,4.448,0,0,0,1.431-3.354v-28.134h7.548a4.781,4.781,0,0,0,3.274-1.185,4.229,4.229,0,0,0,1.405-3.269,4.324,4.324,0,0,0-1.391-3.284A4.722,4.722,0,0,0,2181.752-268.926Z" stroke="none"/>
          <path d="M 2156.84814453125 -268.926025390625 C 2155.563720703125 -268.926025390625 2154.462890625 -268.5268859863281 2153.574951171875 -267.7405700683594 C 2152.655517578125 -266.9258117675781 2152.169921875 -265.7956848144531 2152.169921875 -264.4715576171875 C 2152.169921875 -263.1535339355469 2152.651123046875 -262.0180358886719 2153.559814453125 -261.1889038085938 C 2154.44921875 -260.3741760253906 2155.555908203125 -259.96142578125 2156.84814453125 -259.96142578125 L 2164.39697265625 -259.96142578125 L 2164.39697265625 -231.8276062011719 C 2164.39697265625 -230.507080078125 2164.865234375 -229.383056640625 2165.787109375 -228.4860534667969 C 2166.7001953125 -227.59912109375 2167.86279296875 -227.1489868164062 2169.244140625 -227.1489868164062 C 2170.6552734375 -227.1489868164062 2171.842041015625 -227.5947875976562 2172.77197265625 -228.4738159179688 C 2173.7216796875 -229.3715515136719 2174.203369140625 -230.500244140625 2174.203369140625 -231.8276062011719 L 2174.203369140625 -259.96142578125 L 2181.751708984375 -259.96142578125 C 2183.03662109375 -259.96142578125 2184.13818359375 -260.3601684570312 2185.025390625 -261.1465148925781 C 2185.94482421875 -261.9609069824219 2186.4306640625 -263.0910034179688 2186.4306640625 -264.41552734375 C 2186.4306640625 -265.7310180664062 2185.9501953125 -266.8661804199219 2185.0400390625 -267.6999816894531 C 2184.1484375 -268.5132446289062 2183.04248046875 -268.926025390625 2181.751708984375 -268.926025390625 L 2156.84814453125 -268.926025390625 M 2156.84814453125 -271.426025390625 L 2181.751708984375 -271.426025390625 C 2183.657470703125 -271.426025390625 2185.377197265625 -270.7763061523438 2186.724853515625 -269.5470581054688 C 2186.72607421875 -269.5458374023438 2186.7275390625 -269.5446166992188 2186.728759765625 -269.5433654785156 C 2188.148681640625 -268.2425537109375 2188.9306640625 -266.4214782714844 2188.9306640625 -264.41552734375 C 2188.9306640625 -262.3844909667969 2188.13232421875 -260.5588989257812 2186.68310546875 -259.2750854492188 C 2185.344482421875 -258.0887451171875 2183.63916015625 -257.46142578125 2181.751708984375 -257.46142578125 L 2176.703369140625 -257.46142578125 L 2176.703369140625 -231.8276062011719 C 2176.703369140625 -229.8141784667969 2175.937744140625 -228.0262145996094 2174.4892578125 -226.6570434570312 C 2173.099609375 -225.3433532714844 2171.285888671875 -224.6489868164062 2169.244140625 -224.6489868164062 C 2167.219482421875 -224.6489868164062 2165.421630859375 -225.355712890625 2164.045166015625 -226.6928100585938 C 2162.639404296875 -228.0607604980469 2161.89697265625 -229.8358459472656 2161.89697265625 -231.8276062011719 L 2161.89697265625 -257.46142578125 L 2156.84814453125 -257.46142578125 C 2154.937744140625 -257.46142578125 2153.216552734375 -258.1129150390625 2151.87109375 -259.345458984375 C 2150.452880859375 -260.6394653320312 2149.669921875 -262.4611206054688 2149.669921875 -264.4715576171875 C 2149.669921875 -266.502197265625 2150.468017578125 -268.32763671875 2151.9169921875 -269.6116333007812 C 2153.257568359375 -270.798828125 2154.96240234375 -271.426025390625 2156.84814453125 -271.426025390625 Z" stroke="none" fill="#231815"/>
        </g>
        <g id="パス_7103" data-name="パス 7103" transform="translate(-1991.343 269.918)" fill="none" stroke-linecap="round" stroke-linejoin="round">
          <path d="M2281.564-266.544a4.566,4.566,0,0,0-1.727-2.233,4.538,4.538,0,0,0-2.518-.805,4.188,4.188,0,0,0-2.754.716,4.9,4.9,0,0,0-1.837,2.3l-13.967,33.541-.044.123a5,5,0,0,0-.22,1.426,4.3,4.3,0,0,0,1.035,2.9,4.013,4.013,0,0,0,3.194,1.276,4.194,4.194,0,0,0,2.5-.828,4.693,4.693,0,0,0,1.637-2.207l2.573-6.051h15.065l2.582,6.017a5.26,5.26,0,0,0,1.661,2.2,4.183,4.183,0,0,0,2.583.873,4.366,4.366,0,0,0,3.008-1.227,4.384,4.384,0,0,0,1.39-3.339,5.041,5.041,0,0,0-.364-1.8Zm-8.312,21.193,3.686-8.669,3.72,8.669Z" stroke="none"/>
          <path d="M 2276.92724609375 -269.5995483398438 C 2276.091796875 -269.5995788574219 2275.2978515625 -269.3536987304688 2274.56494140625 -268.8658142089844 C 2273.7353515625 -268.3121948242188 2273.114990234375 -267.5323181152344 2272.72802734375 -266.5645751953125 L 2258.761474609375 -233.0232543945312 L 2258.7177734375 -232.9000244140625 C 2258.571533203125 -232.4100341796875 2258.497314453125 -231.9304809570312 2258.497314453125 -231.4742736816406 C 2258.497314453125 -230.34375 2258.84619140625 -229.3684387207031 2259.53271484375 -228.5756225585938 C 2260.265625 -227.7292785644531 2261.340087890625 -227.2999877929688 2262.72705078125 -227.2999877929688 C 2263.630859375 -227.2999877929688 2264.47314453125 -227.5787658691406 2265.231689453125 -228.1283874511719 C 2265.96875 -228.6625671386719 2266.519775390625 -229.4050903320312 2266.868408203125 -230.3355102539062 L 2269.441162109375 -236.3863830566406 L 2284.506591796875 -236.3863830566406 L 2287.088623046875 -230.3695983886719 C 2287.473388671875 -229.4553833007812 2288.032958984375 -228.7160949707031 2288.74951171875 -228.1732788085938 C 2289.512451171875 -227.5938415527344 2290.381591796875 -227.2999877929688 2291.332763671875 -227.2999877929688 C 2292.438232421875 -227.2999877929688 2293.449951171875 -227.7131042480469 2294.34033203125 -228.5271301269531 C 2295.25 -229.3583984375 2295.730712890625 -230.5133056640625 2295.730712890625 -231.8665466308594 C 2295.730712890625 -232.43017578125 2295.6083984375 -233.0343933105469 2295.3671875 -233.6630249023438 L 2281.564453125 -266.5440673828125 C 2281.209716796875 -267.4895935058594 2280.629150390625 -268.24072265625 2279.837646484375 -268.7766723632812 C 2279.067138671875 -269.2986450195312 2278.219970703125 -269.5691833496094 2277.3193359375 -269.5817565917969 C 2277.187744140625 -269.5936279296875 2277.056884765625 -269.5995483398438 2276.92724609375 -269.5995483398438 M 2280.659423828125 -245.351318359375 L 2273.2529296875 -245.351318359375 L 2276.93896484375 -254.0205993652344 L 2280.659423828125 -245.351318359375 M 2276.92724609375 -272.0995483398438 L 2276.92724609375 -272.0995483398438 C 2277.099365234375 -272.0995483398438 2277.2744140625 -272.0928649902344 2277.4482421875 -272.07958984375 C 2278.810302734375 -272.0431518554688 2280.08544921875 -271.6285095214844 2281.23974609375 -270.846435546875 C 2282.453857421875 -270.0244445800781 2283.34423828125 -268.8890380859375 2283.886474609375 -267.471435546875 L 2297.67236328125 -234.6306762695312 C 2297.682373046875 -234.6068115234375 2297.69189453125 -234.5827941894531 2297.701171875 -234.5586242675781 C 2298.052490234375 -233.6430358886719 2298.230712890625 -232.7372741699219 2298.230712890625 -231.8665466308594 C 2298.230712890625 -229.8217468261719 2297.447998046875 -227.9803466796875 2296.02685546875 -226.681640625 C 2294.680419921875 -225.4507751464844 2293.05712890625 -224.7999877929688 2291.332763671875 -224.7999877929688 C 2289.844482421875 -224.7999877929688 2288.42822265625 -225.2780151367188 2287.237548828125 -226.182373046875 C 2286.170166015625 -226.9908752441406 2285.34521484375 -228.0709838867188 2284.7880859375 -229.3908996582031 L 2282.85888671875 -233.8863830566406 L 2271.0947265625 -233.8863830566406 L 2269.1884765625 -229.4029541015625 C 2268.663330078125 -228.0306091308594 2267.825927734375 -226.9209289550781 2266.69873046875 -226.1041259765625 C 2265.521240234375 -225.2508850097656 2264.14794921875 -224.7999877929688 2262.72705078125 -224.7999877929688 C 2260.055908203125 -224.7999877929688 2258.48779296875 -225.9632263183594 2257.642822265625 -226.9390563964844 C 2256.56640625 -228.1822509765625 2255.997314453125 -229.75048828125 2255.997314453125 -231.4742736816406 C 2255.997314453125 -232.1724548339844 2256.106689453125 -232.8927001953125 2256.322265625 -233.614990234375 C 2256.334228515625 -233.655517578125 2256.347412109375 -233.6957397460938 2256.361572265625 -233.735595703125 L 2256.4052734375 -233.8588256835938 C 2256.420166015625 -233.9010620117188 2256.436279296875 -233.9429016113281 2256.45361328125 -233.9842529296875 L 2270.413818359375 -267.5102233886719 C 2270.98681640625 -268.9333801269531 2271.94189453125 -270.1209716796875 2273.17724609375 -270.9453125 C 2274.32861328125 -271.7117309570312 2275.58935546875 -272.0995483398438 2276.92724609375 -272.0995483398438 Z" stroke="none" fill="#231815"/>
        </g>
        <g id="パス_7104" data-name="パス 7104" transform="translate(-2061.476 269.787)" fill="none" stroke-linecap="round" stroke-linejoin="round">
          <path d="M2400.665-268.07a4.542,4.542,0,0,0-3.191-1.324,4.605,4.605,0,0,0-3.843,2.231l-8.236,12.051-8.847-12.209a4.61,4.61,0,0,0-3.754-2.073,5.048,5.048,0,0,0-3.2,1.234,4.3,4.3,0,0,0-1.644,3.445,5.173,5.173,0,0,0,.289,1.629,6.048,6.048,0,0,0,.974,1.762l11.414,15.166v14.03a4.541,4.541,0,0,0,1.349,3.328,4.474,4.474,0,0,0,3.273,1.35,4.347,4.347,0,0,0,3.161-1.35,4.543,4.543,0,0,0,1.35-3.329V-245.4l11.512-16.481a4.734,4.734,0,0,0,.647-1.416,5.38,5.38,0,0,0,.182-1.356A4.516,4.516,0,0,0,2400.665-268.07Z" stroke="none"/>
          <path d="M 2372.794921875 -269.3940124511719 C 2371.68115234375 -269.3940124511719 2370.60400390625 -268.9790954589844 2369.591796875 -268.1604309082031 C 2368.51611328125 -267.2889099121094 2367.94775390625 -266.0980834960938 2367.94775390625 -264.7154235839844 C 2367.94775390625 -264.2059936523438 2368.04541015625 -263.6567687988281 2368.236328125 -263.0859375 C 2368.42919921875 -262.5039672851562 2368.759765625 -261.9069519042969 2369.2099609375 -261.3235168457031 L 2380.6240234375 -246.1575622558594 L 2380.6240234375 -232.1275024414062 C 2380.6240234375 -230.8134155273438 2381.07861328125 -229.6933288574219 2381.97314453125 -228.7991943359375 C 2382.86865234375 -227.9028930664062 2383.9697265625 -227.4488525390625 2385.24658203125 -227.4488525390625 C 2386.4482421875 -227.4488525390625 2387.51123046875 -227.9028930664062 2388.4072265625 -228.798828125 C 2389.302734375 -229.6944274902344 2389.7568359375 -230.8144836425781 2389.7568359375 -232.1275024414062 L 2389.7568359375 -245.4049835205078 L 2401.2685546875 -261.886474609375 C 2401.56884765625 -262.3369140625 2401.7861328125 -262.8129272460938 2401.91552734375 -263.3029174804688 C 2402.03564453125 -263.7627258300781 2402.09716796875 -264.2189331054688 2402.09716796875 -264.6593627929688 C 2402.09716796875 -266.0226440429688 2401.61572265625 -267.1696472167969 2400.6650390625 -268.0695495605469 C 2399.73388671875 -268.9485778808594 2398.66064453125 -269.3940124511719 2397.47412109375 -269.3940124511719 C 2396.43310546875 -269.3940124511719 2394.92333984375 -269.0089416503906 2393.63134765625 -267.1632080078125 L 2385.3955078125 -255.1117248535156 L 2376.548828125 -267.3209228515625 C 2375.26318359375 -269.034423828125 2373.7978515625 -269.3940124511719 2372.794921875 -269.3940124511719 M 2372.794921875 -271.8940124511719 C 2375.0185546875 -271.8940124511719 2377.061767578125 -270.8027648925781 2378.548583984375 -268.8213195800781 C 2378.556884765625 -268.8102111816406 2378.565185546875 -268.7990417480469 2378.5732421875 -268.7877807617188 L 2385.335693359375 -259.4550476074219 L 2391.5673828125 -268.5737609863281 C 2391.572509765625 -268.5814819335938 2391.577880859375 -268.5891723632812 2391.583251953125 -268.5968627929688 C 2393.071533203125 -270.7230834960938 2395.16357421875 -271.8940124511719 2397.47412109375 -271.8940124511719 C 2399.2939453125 -271.8940124511719 2400.99072265625 -271.2001647949219 2402.381103515625 -269.887451171875 C 2403.831787109375 -268.514404296875 2404.59716796875 -266.7073364257812 2404.59716796875 -264.6593627929688 C 2404.59716796875 -264.0075988769531 2404.5087890625 -263.338623046875 2404.33447265625 -262.6710815429688 C 2404.333740234375 -262.6689147949219 2404.333251953125 -262.666748046875 2404.332763671875 -262.6646118164062 C 2404.1328125 -261.9075927734375 2403.8017578125 -261.1792297363281 2403.3486328125 -260.4996948242188 C 2403.338623046875 -260.4846801757812 2403.328369140625 -260.4697265625 2403.318115234375 -260.4549255371094 L 2392.2568359375 -244.6183471679688 L 2392.2568359375 -232.1275024414062 C 2392.2568359375 -230.1554870605469 2391.536865234375 -228.3931884765625 2390.175048828125 -227.0311584472656 C 2388.812744140625 -225.6688537597656 2387.1083984375 -224.9488525390625 2385.24658203125 -224.9488525390625 C 2383.309814453125 -224.9488525390625 2381.56640625 -225.6692504882812 2380.20458984375 -227.0321960449219 C 2378.84375 -228.392333984375 2378.1240234375 -230.1546630859375 2378.1240234375 -232.1275024414062 L 2378.1240234375 -245.3219146728516 L 2367.220703125 -259.80908203125 C 2366.601806640625 -260.61376953125 2366.14599609375 -261.4493408203125 2365.865478515625 -262.29296875 L 2365.865478515625 -262.29296875 C 2365.58837890625 -263.1216125488281 2365.44775390625 -263.9366455078125 2365.44775390625 -264.7154235839844 C 2365.44775390625 -266.8467407226562 2366.360595703125 -268.760009765625 2368.01806640625 -270.1029052734375 C 2369.488037109375 -271.2918395996094 2371.0947265625 -271.8940124511719 2372.794921875 -271.8940124511719 Z" stroke="none" fill="#231815"/>
        </g>
      </g>
    </g>
    <g id="グループ_2406" data-name="グループ 2406" transform="translate(96.981 388.714)">
      <g id="グループ_2399" data-name="グループ 2399" transform="translate(0 0.195)">
        <path id="パス_7229" data-name="パス 7229" d="M1439.5-577.82v.5h6.585a1.019,1.019,0,0,1,.953,1.127,1.018,1.018,0,0,1-.953,1.125h-6.737c-.52,4.333-2.317,7-5.285,8.838a1.531,1.531,0,0,1-.8.238,1.257,1.257,0,0,1-1.257-1.257,1.318,1.318,0,0,1,.693-1.127,8.409,8.409,0,0,0,4.115-6.694h-7.083a1,1,0,0,1-.932-1.125,1,1,0,0,1,.932-1.127h7.235a6.638,6.638,0,0,0,.022-.672v-2.491c-1.56.217-3.12.39-4.485.455a1.173,1.173,0,0,1-1.278-1.191,1.13,1.13,0,0,1,1.17-1.148,47.664,47.664,0,0,0,10.418-1.82,1.486,1.486,0,0,1,.413-.065,1.251,1.251,0,0,1,1.234,1.257,1.138,1.138,0,0,1-.867,1.083,35.276,35.276,0,0,1-4.094,1Z" transform="translate(-1428.795 584.253)" fill="#fde94c"/>
      </g>
      <g id="グループ_2400" data-name="グループ 2400" transform="translate(31.934 4.83)">
        <path id="パス_7230" data-name="パス 7230" d="M1468.977-576.922c0-.628-.239-.78-1.1-.78H1460.9a.949.949,0,0,1-.932-1.04.942.942,0,0,1,.932-1.018h7.429c2.015,0,2.816.8,2.816,2.383v7.949c0,1.647-.8,2.427-2.816,2.427h-7.646a.943.943,0,0,1-.932-1.018.932.932,0,0,1,.932-1.018h7.192c.865,0,1.1-.173,1.1-.78v-2.794H1461.7a.943.943,0,0,1-.932-1.018.932.932,0,0,1,.932-1.018h7.278Z" transform="translate(-1459.749 579.76)" fill="#fde94c"/>
      </g>
      <g id="グループ_2401" data-name="グループ 2401" transform="translate(57.953)">
        <path id="パス_7231" data-name="パス 7231" d="M1492.4-576.405a38.244,38.244,0,0,1-5.479,3.639,1.468,1.468,0,0,1-.76.2,1.207,1.207,0,0,1-1.191-1.213,1.378,1.378,0,0,1,.824-1.213,33.321,33.321,0,0,0,10.526-8.881,1.357,1.357,0,0,1,1.084-.563,1.292,1.292,0,0,1,1.321,1.213,1.329,1.329,0,0,1-.3.8,34.155,34.155,0,0,1-4.592,4.83,1.132,1.132,0,0,1,1.126,1.127v9.509a1.156,1.156,0,0,1-1.277,1.127,1.168,1.168,0,0,1-1.279-1.127Z" transform="translate(-1484.969 584.442)" fill="#fde94c"/>
      </g>
      <g id="グループ_2402" data-name="グループ 2402" transform="translate(85.469 9.041)">
        <path id="パス_7232" data-name="パス 7232" d="M1518.009-575.679a.963.963,0,0,1,.975,1.04.963.963,0,0,1-.975,1.04h-5.395a.962.962,0,0,1-.974-1.04.962.962,0,0,1,.974-1.04Z" transform="translate(-1511.64 575.679)" fill="#fde94c"/>
      </g>
      <g id="グループ_2403" data-name="グループ 2403" transform="translate(105.878 1.861)">
        <path id="パス_7233" data-name="パス 7233" d="M1542.555-582.636c1.691-.043,2.557.693,2.557,1.862a3.6,3.6,0,0,1-.24,1.17,20.108,20.108,0,0,1-2.967,5.177,32.244,32.244,0,0,1,5.805,5.134,1.524,1.524,0,0,1,.411.975,1.381,1.381,0,0,1-1.386,1.3,1.349,1.349,0,0,1-1.04-.52,33.361,33.361,0,0,0-5.329-5.09,25.036,25.036,0,0,1-7.061,5.372,1.405,1.405,0,0,1-.629.152,1.271,1.271,0,0,1-1.256-1.257,1.2,1.2,0,0,1,.736-1.1c4.505-2.274,8.3-5.957,10.008-10.159a.81.81,0,0,0,.087-.347c0-.195-.174-.282-.542-.282l-7.755.152a1.091,1.091,0,0,1-1.082-1.169,1.113,1.113,0,0,1,1.062-1.213Z" transform="translate(-1531.422 582.638)" fill="#fde94c"/>
      </g>
      <g id="グループ_2404" data-name="グループ 2404" transform="translate(136.447 1.235)">
        <path id="パス_7234" data-name="パス 7234" d="M1571.147-575.837a11.626,11.626,0,0,1-5.479,9.379,1.4,1.4,0,0,1-.673.195,1.286,1.286,0,0,1-1.234-1.278,1.218,1.218,0,0,1,.649-1.062,8.912,8.912,0,0,0,4.225-7.234h-6.65c-.628,0-.931-.585-.931-1.148,0-.585.3-1.148.931-1.148h15.488a1.026,1.026,0,0,1,.953,1.148,1.038,1.038,0,0,1-.953,1.148Zm3.6-7.408a1.046,1.046,0,0,1,.953,1.17,1.045,1.045,0,0,1-.953,1.169h-10.094c-.628,0-.933-.584-.933-1.169s.3-1.17.933-1.17Z" transform="translate(-1561.053 583.245)" fill="#fde94c"/>
      </g>
      <g id="グループ_2405" data-name="グループ 2405" transform="translate(167.148)">
        <path id="パス_7235" data-name="パス 7235" d="M1598.24-576.405a38.121,38.121,0,0,1-5.48,3.639,1.467,1.467,0,0,1-.758.2,1.205,1.205,0,0,1-1.191-1.213,1.376,1.376,0,0,1,.823-1.213,33.354,33.354,0,0,0,10.528-8.881,1.354,1.354,0,0,1,1.082-.563,1.293,1.293,0,0,1,1.322,1.213,1.329,1.329,0,0,1-.3.8,34.22,34.22,0,0,1-4.592,4.83,1.132,1.132,0,0,1,1.127,1.127v9.509a1.157,1.157,0,0,1-1.279,1.127,1.167,1.167,0,0,1-1.277-1.127Z" transform="translate(-1590.811 584.442)" fill="#fde94c"/>
      </g>
    </g>
  </g>
</svg>
