<svg xmlns="http://www.w3.org/2000/svg" xmlns:xlink="http://www.w3.org/1999/xlink" width="770.141" height="143.317" viewBox="0 0 770.141 143.317">
  <defs>
    <clipPath id="clip-path">
      <rect id="長方形_2439" data-name="長方形 2439" width="734.529" height="57.43" fill="none"/>
    </clipPath>
  </defs>
  <g id="グループ_3177" data-name="グループ 3177" transform="translate(-294.736 -228.563)">
    <g id="グループ_2374" data-name="グループ 2374" transform="translate(-1216.076 503.049)">
      <g id="グループ_2360" data-name="グループ 2360" transform="translate(1524.536 -262.798)">
        <path id="パス_6998" data-name="パス 6998" d="M1593.411-189.664a11.649,11.649,0,0,0-6.772,1.112l-.089.045a20.394,20.394,0,0,1-5.7,1.974,34.142,34.142,0,0,1-6.216.575,31.87,31.87,0,0,1-10.424-1.653,21.594,21.594,0,0,1-8.062-4.91,23.116,23.116,0,0,1-5.381-8.347,33.77,33.77,0,0,1-1.99-12.191,32.016,32.016,0,0,1,1.766-10.887,23.456,23.456,0,0,1,5.061-8.3,22.579,22.579,0,0,1,8.046-5.374,29.528,29.528,0,0,1,10.983-1.919,28.5,28.5,0,0,1,6.3.68,29.33,29.33,0,0,1,5.706,1.915,12.464,12.464,0,0,0,6.641,1.254,8.463,8.463,0,0,0,6.111-3.56,10.519,10.519,0,0,0,2.354-8.5,9.414,9.414,0,0,0-5.293-7.154,46.636,46.636,0,0,0-10.457-3.839,49.231,49.231,0,0,0-11.358-1.321,50.711,50.711,0,0,0-18.977,3.5,46.055,46.055,0,0,0-15.174,9.813,43.991,43.991,0,0,0-9.974,14.954A49.416,49.416,0,0,0,1527-213.059a51.98,51.98,0,0,0,3.84,20.594,42.065,42.065,0,0,0,10.609,15,46.005,46.005,0,0,0,15.245,9.016,53.272,53.272,0,0,0,17.94,3.027,47.664,47.664,0,0,0,7.543-.6,53.621,53.621,0,0,0,7.294-1.708,46.622,46.622,0,0,0,7.049-2.829,9.38,9.38,0,0,0,5.323-6.746,10.321,10.321,0,0,0-2.336-8.7A9.258,9.258,0,0,0,1593.411-189.664Z" transform="translate(-1527.001 260.691)" fill="#fde94c"/>
        <path id="パス_6999" data-name="パス 6999" d="M1720.508-259.288a10.588,10.588,0,0,0-7.373,2.918,9.915,9.915,0,0,0-3.267,7.472v25.856h-34.15V-248.9a9.888,9.888,0,0,0-3.179-7.449,10.229,10.229,0,0,0-7.211-2.942,10.616,10.616,0,0,0-7.677,2.971,9.981,9.981,0,0,0-3.088,7.42V-176.9a10.2,10.2,0,0,0,2.907,7.363,10.176,10.176,0,0,0,7.608,3.027,10.586,10.586,0,0,0,7.372-2.918,9.913,9.913,0,0,0,3.268-7.472v-26.23h34.15v26.23a9.872,9.872,0,0,0,3.177,7.446,10.219,10.219,0,0,0,7.213,2.944,10.557,10.557,0,0,0,7.767-3,10.087,10.087,0,0,0,3-7.392V-248.9a10.212,10.212,0,0,0-2.909-7.366A10.19,10.19,0,0,0,1720.508-259.288Z" transform="translate(-1552.802 260.533)" fill="#fde94c"/>
        <path id="パス_7000" data-name="パス 7000" d="M1850.6-246.806a43.621,43.621,0,0,0-14.367-10.312,44.1,44.1,0,0,0-18.143-3.731A43.651,43.651,0,0,0,1800-257.114a43.769,43.769,0,0,0-14.3,10.308,47.386,47.386,0,0,0-9.332,15.149,51.16,51.16,0,0,0-3.3,18.441,51.14,51.14,0,0,0,3.3,18.44,47.345,47.345,0,0,0,9.331,15.149,43.734,43.734,0,0,0,14.3,10.309,43.664,43.664,0,0,0,18.089,3.735,44.1,44.1,0,0,0,18.143-3.732,43.608,43.608,0,0,0,14.367-10.312,47.4,47.4,0,0,0,9.331-15.149,51.177,51.177,0,0,0,3.3-18.44,51.2,51.2,0,0,0-3.3-18.441A47.434,47.434,0,0,0,1850.6-246.806Zm-32.51,60.691a20.619,20.619,0,0,1-12.006-3.5,24.385,24.385,0,0,1-8.215-9.688,31.536,31.536,0,0,1-3.02-13.912,31.436,31.436,0,0,1,3.016-13.967,24.487,24.487,0,0,1,8.22-9.633,20.624,20.624,0,0,1,12.005-3.5,20.635,20.635,0,0,1,12.005,3.5,24.915,24.915,0,0,1,8.287,9.706,31.021,31.021,0,0,1,3.073,13.894,31.013,31.013,0,0,1-3.073,13.894,24.9,24.9,0,0,1-8.286,9.706A20.63,20.63,0,0,1,1818.088-186.116Z" transform="translate(-1576.771 260.849)" fill="#fde94c"/>
        <path id="パス_7001" data-name="パス 7001" d="M1925.753-259.288a10.617,10.617,0,0,0-7.677,2.971,9.984,9.984,0,0,0-3.087,7.42V-176.9a10.2,10.2,0,0,0,2.907,7.363,10.176,10.176,0,0,0,7.608,3.027,10.587,10.587,0,0,0,7.372-2.918,9.913,9.913,0,0,0,3.267-7.472V-248.9a9.886,9.886,0,0,0-3.18-7.449A10.226,10.226,0,0,0,1925.753-259.288Z" transform="translate(-1605.475 260.533)" fill="#fde94c"/>
        <path id="パス_7002" data-name="パス 7002" d="M2008.591-212.138h-21.673a10.323,10.323,0,0,0-7.333,2.815,9.669,9.669,0,0,0-3.057,7.325,9.869,9.869,0,0,0,3.024,7.357,10.2,10.2,0,0,0,7.365,2.909h21.673a10.337,10.337,0,0,0,7.335-2.817,9.655,9.655,0,0,0,3.056-7.2,10.1,10.1,0,0,0-3-7.394A10.1,10.1,0,0,0,2008.591-212.138Z" transform="translate(-1617.922 250.997)" fill="#fde94c"/>
        <path id="パス_7003" data-name="パス 7003" d="M2119.311-214.73a33.7,33.7,0,0,0-10.251-5.249,102.978,102.978,0,0,0-13.48-3.327,69.978,69.978,0,0,1-9.457-2.451,12.14,12.14,0,0,1-5.131-3.089,6.142,6.142,0,0,1-1.465-4.3,5.83,5.83,0,0,1,1.268-3.749,9.709,9.709,0,0,1,4.328-2.852,23.411,23.411,0,0,1,8.054-1.194,23.056,23.056,0,0,1,6.214.953,45.587,45.587,0,0,1,6.687,2.463,19.932,19.932,0,0,1,4.692,2.87l.163.131a8.224,8.224,0,0,0,5.039,1.679,9.483,9.483,0,0,0,7.012-3.117,9.834,9.834,0,0,0,2.879-6.9c0-3.358-1.557-6.3-4.626-8.754a37.9,37.9,0,0,0-12.125-6.646,47.928,47.928,0,0,0-15.935-2.587,43,43,0,0,0-16.777,3.208,28.993,28.993,0,0,0-12.446,9.649,25.673,25.673,0,0,0-4.708,15.469,28.343,28.343,0,0,0,1.949,10.7,23.543,23.543,0,0,0,5.858,8.471,30.361,30.361,0,0,0,9.388,5.774,55.333,55.333,0,0,0,12.487,3.227A50.379,50.379,0,0,1,2100-201.712a14.448,14.448,0,0,1,5.751,3.639,6.671,6.671,0,0,1,1.57,4.536,4.939,4.939,0,0,1-1.574,3.593,13.906,13.906,0,0,1-5.2,3.193,21.5,21.5,0,0,1-7.5,1.259,26.807,26.807,0,0,1-10.426-1.769,36.992,36.992,0,0,1-8.755-5.467,9.354,9.354,0,0,0-5.979-2.105,9.657,9.657,0,0,0-7.2,3.057,9.875,9.875,0,0,0-2.815,6.959,10.526,10.526,0,0,0,1.165,4.733,12.568,12.568,0,0,0,3.165,3.982,40.507,40.507,0,0,0,14.321,8.212,55.579,55.579,0,0,0,16.526,2.307,42.646,42.646,0,0,0,16.854-3.339,31.566,31.566,0,0,0,12.89-9.838,25.1,25.1,0,0,0,5.06-15.648,30.548,30.548,0,0,0-2.088-11.861A21.007,21.007,0,0,0,2119.311-214.73Z" transform="translate(-1634.375 260.849)" fill="#fde94c"/>
        <path id="パス_7004" data-name="パス 7004" d="M2230.052-259.288h-55.3a10.616,10.616,0,0,0-7.269,2.633,9.393,9.393,0,0,0-3.12,7.259,9.581,9.581,0,0,0,3.086,7.29,10.459,10.459,0,0,0,7.3,2.726h16.764V-176.9a9.981,9.981,0,0,0,3.087,7.42,10.614,10.614,0,0,0,7.677,2.97,11,11,0,0,0,7.834-2.942,9.878,9.878,0,0,0,3.179-7.448V-239.38h16.763a10.613,10.613,0,0,0,7.27-2.633,9.39,9.39,0,0,0,3.121-7.259,9.6,9.6,0,0,0-3.089-7.294A10.483,10.483,0,0,0,2230.052-259.288Z" transform="translate(-1655.912 260.533)" fill="#fde94c"/>
        <path id="パス_7005" data-name="パス 7005" d="M2321.911-253.176a10.145,10.145,0,0,0-3.834-4.959,10.082,10.082,0,0,0-5.592-1.787,9.3,9.3,0,0,0-6.117,1.59,10.87,10.87,0,0,0-4.079,5.11l-31.015,74.485-.1.273a11.116,11.116,0,0,0-.49,3.167,9.538,9.538,0,0,0,2.3,6.437,8.91,8.91,0,0,0,7.094,2.832,9.315,9.315,0,0,0,5.562-1.839,10.427,10.427,0,0,0,3.635-4.9l5.713-13.438h33.456l5.734,13.361a11.67,11.67,0,0,0,3.688,4.878,9.288,9.288,0,0,0,5.737,1.939,9.7,9.7,0,0,0,6.679-2.724,9.738,9.738,0,0,0,3.088-7.417,11.189,11.189,0,0,0-.807-3.99Zm-18.457,47.062,8.186-19.252,8.261,19.252Z" transform="translate(-1677.418 260.669)" fill="#fde94c"/>
        <path id="パス_7006" data-name="パス 7006" d="M2452.792-256.815a10.087,10.087,0,0,0-7.086-2.942c-2.311,0-5.664.856-8.532,4.954l-18.291,26.763-19.645-27.113c-2.855-3.806-6.109-4.6-8.337-4.6a11.211,11.211,0,0,0-7.113,2.74,9.553,9.553,0,0,0-3.65,7.65,11.5,11.5,0,0,0,.641,3.619,13.434,13.434,0,0,0,2.162,3.914l25.347,33.679V-177a10.082,10.082,0,0,0,3,7.391,9.937,9.937,0,0,0,7.269,3,9.655,9.655,0,0,0,7.019-3,10.088,10.088,0,0,0,3-7.392v-29.485l25.564-36.6a10.511,10.511,0,0,0,1.437-3.146,11.919,11.919,0,0,0,.4-3.011A10.029,10.029,0,0,0,2452.792-256.815Z" transform="translate(-1699.555 260.628)" fill="#fde94c"/>
      </g>
      <g id="グループ_2361" data-name="グループ 2361" transform="translate(1514.812 -270.487)">
        <path id="パス_7007" data-name="パス 7007" d="M1581.222-199.3a11.65,11.65,0,0,0-6.772,1.113l-.089.045a20.346,20.346,0,0,1-5.7,1.974,34.143,34.143,0,0,1-6.216.575,31.869,31.869,0,0,1-10.424-1.653,21.594,21.594,0,0,1-8.062-4.91,23.109,23.109,0,0,1-5.381-8.347,33.767,33.767,0,0,1-1.99-12.191,32.019,32.019,0,0,1,1.766-10.887,23.453,23.453,0,0,1,5.061-8.3,22.588,22.588,0,0,1,8.046-5.374,29.531,29.531,0,0,1,10.983-1.919,28.553,28.553,0,0,1,6.3.68,29.333,29.333,0,0,1,5.706,1.915,12.471,12.471,0,0,0,6.64,1.255,8.467,8.467,0,0,0,6.111-3.561,10.518,10.518,0,0,0,2.353-8.5,9.414,9.414,0,0,0-5.293-7.155,46.62,46.62,0,0,0-10.457-3.839,49.229,49.229,0,0,0-11.358-1.321,50.727,50.727,0,0,0-18.978,3.5,46.069,46.069,0,0,0-15.174,9.813,43.989,43.989,0,0,0-9.974,14.954,49.411,49.411,0,0,0-3.507,18.741,51.982,51.982,0,0,0,3.839,20.594,42.068,42.068,0,0,0,10.609,15,45.994,45.994,0,0,0,15.245,9.016,53.272,53.272,0,0,0,17.94,3.027,47.665,47.665,0,0,0,7.543-.6,53.471,53.471,0,0,0,7.294-1.708,46.534,46.534,0,0,0,7.049-2.829,9.378,9.378,0,0,0,5.323-6.746,10.321,10.321,0,0,0-2.336-8.7A9.258,9.258,0,0,0,1581.222-199.3Z" transform="translate(-1514.812 270.329)" fill="#fff"/>
        <path id="パス_7008" data-name="パス 7008" d="M1708.319-268.926a10.585,10.585,0,0,0-7.372,2.919,9.913,9.913,0,0,0-3.267,7.472v25.856h-34.15v-25.856a9.889,9.889,0,0,0-3.179-7.449,10.232,10.232,0,0,0-7.211-2.942,10.617,10.617,0,0,0-7.677,2.971,9.98,9.98,0,0,0-3.087,7.42v71.994a10.2,10.2,0,0,0,2.906,7.363,10.177,10.177,0,0,0,7.608,3.027,10.586,10.586,0,0,0,7.372-2.918,9.913,9.913,0,0,0,3.267-7.472v-26.23h34.15v26.23a9.871,9.871,0,0,0,3.177,7.446,10.22,10.22,0,0,0,7.213,2.944,10.554,10.554,0,0,0,7.767-3,10.088,10.088,0,0,0,3-7.392v-71.994a10.212,10.212,0,0,0-2.909-7.366A10.19,10.19,0,0,0,1708.319-268.926Z" transform="translate(-1540.613 270.171)" fill="#fff"/>
        <path id="パス_7009" data-name="パス 7009" d="M1838.409-256.444a43.6,43.6,0,0,0-14.366-10.311,44.084,44.084,0,0,0-18.143-3.732,43.653,43.653,0,0,0-18.089,3.735,43.771,43.771,0,0,0-14.3,10.308,47.376,47.376,0,0,0-9.332,15.15,51.158,51.158,0,0,0-3.3,18.44,51.142,51.142,0,0,0,3.3,18.44,47.349,47.349,0,0,0,9.331,15.149,43.738,43.738,0,0,0,14.3,10.309,43.653,43.653,0,0,0,18.089,3.735,44.084,44.084,0,0,0,18.143-3.732,43.6,43.6,0,0,0,14.367-10.312,47.4,47.4,0,0,0,9.331-15.149,51.177,51.177,0,0,0,3.3-18.44,51.2,51.2,0,0,0-3.3-18.441A47.42,47.42,0,0,0,1838.409-256.444Zm-32.51,60.691a20.62,20.62,0,0,1-12.006-3.5,24.387,24.387,0,0,1-8.215-9.688,31.538,31.538,0,0,1-3.019-13.912,31.439,31.439,0,0,1,3.016-13.967,24.487,24.487,0,0,1,8.22-9.633,20.63,20.63,0,0,1,12.005-3.5,20.641,20.641,0,0,1,12.005,3.5,24.912,24.912,0,0,1,8.287,9.706,31.019,31.019,0,0,1,3.073,13.894,31.009,31.009,0,0,1-3.073,13.894,24.9,24.9,0,0,1-8.286,9.706A20.63,20.63,0,0,1,1805.9-195.754Z" transform="translate(-1564.581 270.487)" fill="#fff"/>
        <path id="パス_7010" data-name="パス 7010" d="M1913.564-268.926a10.618,10.618,0,0,0-7.677,2.971,9.983,9.983,0,0,0-3.087,7.42v71.994a10.2,10.2,0,0,0,2.907,7.363,10.176,10.176,0,0,0,7.608,3.027,10.587,10.587,0,0,0,7.372-2.918,9.913,9.913,0,0,0,3.268-7.472v-71.994a9.887,9.887,0,0,0-3.18-7.449A10.23,10.23,0,0,0,1913.564-268.926Z" transform="translate(-1593.286 270.171)" fill="#fff"/>
        <path id="パス_7011" data-name="パス 7011" d="M1996.4-221.776h-21.673a10.323,10.323,0,0,0-7.333,2.815,9.67,9.67,0,0,0-3.057,7.326,9.869,9.869,0,0,0,3.024,7.356,10.2,10.2,0,0,0,7.366,2.909H1996.4a10.339,10.339,0,0,0,7.334-2.816,9.658,9.658,0,0,0,3.056-7.2,10.1,10.1,0,0,0-3-7.393A10.092,10.092,0,0,0,1996.4-221.776Z" transform="translate(-1605.732 260.635)" fill="#fff"/>
        <path id="パス_7012" data-name="パス 7012" d="M2107.122-224.368a33.7,33.7,0,0,0-10.252-5.249,103.1,103.1,0,0,0-13.479-3.327,69.984,69.984,0,0,1-9.457-2.451,12.141,12.141,0,0,1-5.131-3.089,6.142,6.142,0,0,1-1.465-4.3,5.833,5.833,0,0,1,1.268-3.749,9.711,9.711,0,0,1,4.328-2.852,23.413,23.413,0,0,1,8.054-1.194,23.057,23.057,0,0,1,6.214.953,45.555,45.555,0,0,1,6.687,2.463,19.918,19.918,0,0,1,4.692,2.87l.163.131a8.223,8.223,0,0,0,5.039,1.679,9.483,9.483,0,0,0,7.012-3.117,9.835,9.835,0,0,0,2.879-6.9c0-3.358-1.557-6.3-4.626-8.755a37.9,37.9,0,0,0-12.125-6.646,47.947,47.947,0,0,0-15.935-2.587,42.994,42.994,0,0,0-16.777,3.208,28.994,28.994,0,0,0-12.446,9.649,25.672,25.672,0,0,0-4.708,15.47,28.349,28.349,0,0,0,1.949,10.7,23.54,23.54,0,0,0,5.858,8.47,30.364,30.364,0,0,0,9.388,5.774,55.284,55.284,0,0,0,12.487,3.227,50.334,50.334,0,0,1,11.077,2.637,14.45,14.45,0,0,1,5.751,3.638,6.671,6.671,0,0,1,1.57,4.536,4.943,4.943,0,0,1-1.574,3.594,13.93,13.93,0,0,1-5.2,3.193,21.515,21.515,0,0,1-7.5,1.258,26.794,26.794,0,0,1-10.426-1.769,36.963,36.963,0,0,1-8.755-5.467,9.355,9.355,0,0,0-5.979-2.105,9.656,9.656,0,0,0-7.2,3.057,9.876,9.876,0,0,0-2.815,6.959,10.525,10.525,0,0,0,1.165,4.733,12.564,12.564,0,0,0,3.165,3.982,40.508,40.508,0,0,0,14.32,8.212,55.583,55.583,0,0,0,16.526,2.307,42.633,42.633,0,0,0,16.854-3.339,31.559,31.559,0,0,0,12.89-9.838,25.1,25.1,0,0,0,5.06-15.648,30.538,30.538,0,0,0-2.089-11.861A21,21,0,0,0,2107.122-224.368Z" transform="translate(-1622.186 270.487)" fill="#fff"/>
        <path id="パス_7013" data-name="パス 7013" d="M2217.862-268.926h-55.3a10.621,10.621,0,0,0-7.269,2.633,9.393,9.393,0,0,0-3.12,7.259,9.579,9.579,0,0,0,3.086,7.29,10.458,10.458,0,0,0,7.3,2.726h16.764v62.477a9.983,9.983,0,0,0,3.087,7.421,10.617,10.617,0,0,0,7.677,2.969,11,11,0,0,0,7.834-2.942,9.877,9.877,0,0,0,3.179-7.448v-62.477h16.763a10.616,10.616,0,0,0,7.27-2.632,9.392,9.392,0,0,0,3.121-7.259,9.6,9.6,0,0,0-3.089-7.294A10.482,10.482,0,0,0,2217.862-268.926Z" transform="translate(-1643.723 270.171)" fill="#fff"/>
        <path id="パス_7014" data-name="パス 7014" d="M2309.722-262.814a10.145,10.145,0,0,0-3.834-4.958,10.078,10.078,0,0,0-5.592-1.788,9.3,9.3,0,0,0-6.117,1.59,10.869,10.869,0,0,0-4.079,5.11l-31.015,74.485-.1.274a11.115,11.115,0,0,0-.49,3.166,9.539,9.539,0,0,0,2.3,6.437,8.912,8.912,0,0,0,7.094,2.833,9.316,9.316,0,0,0,5.562-1.84,10.424,10.424,0,0,0,3.635-4.9l5.713-13.437h33.456l5.734,13.361a11.675,11.675,0,0,0,3.688,4.877,9.289,9.289,0,0,0,5.737,1.939,9.7,9.7,0,0,0,6.678-2.725,9.734,9.734,0,0,0,3.088-7.416,11.191,11.191,0,0,0-.807-3.99Zm-18.457,47.063L2299.451-235l8.261,19.252Z" transform="translate(-1665.229 270.307)" fill="#fff"/>
        <path id="パス_7015" data-name="パス 7015" d="M2440.6-266.453a10.087,10.087,0,0,0-7.086-2.941c-2.311,0-5.664.855-8.533,4.954l-18.291,26.763-19.645-27.113c-2.855-3.805-6.109-4.6-8.337-4.6a11.21,11.21,0,0,0-7.113,2.739,9.553,9.553,0,0,0-3.651,7.65,11.491,11.491,0,0,0,.641,3.619,13.434,13.434,0,0,0,2.162,3.914l25.347,33.679v31.157a10.082,10.082,0,0,0,3,7.391,9.933,9.933,0,0,0,7.269,3,9.652,9.652,0,0,0,7.019-3,10.088,10.088,0,0,0,3-7.392v-29.485l25.564-36.6a10.521,10.521,0,0,0,1.437-3.145,11.919,11.919,0,0,0,.4-3.012A10.029,10.029,0,0,0,2440.6-266.453Z" transform="translate(-1687.366 270.266)" fill="#fff"/>
      </g>
      <g id="グループ_2368" data-name="グループ 2368" transform="translate(1514.812 -217.547)">
        <g id="グループ_2367" data-name="グループ 2367" clip-path="url(#clip-path)">
          <g id="グループ_2366" data-name="グループ 2366" transform="translate(-0.13 -52.943)">
            <path id="パス_7043" data-name="パス 7043" d="M1590.208-181.485a11.65,11.65,0,0,0-6.772,1.113l-.09.045a20.8,20.8,0,0,1-2.8,1.206l-20.662,20.662a53.391,53.391,0,0,0,6.347.965l23.989-23.989Z" transform="translate(-1523.798 252.512)" fill="#fde94c"/>
            <path id="パス_7044" data-name="パス 7044" d="M1556.684-179.221a22.579,22.579,0,0,1-3.109-1.343L1538.512-165.5a45.753,45.753,0,0,0,4.552,2.76l15.824-15.824C1558.137-178.758,1557.4-178.974,1556.684-179.221Z" transform="translate(-1519.475 252.303)" fill="#fde94c"/>
            <path id="パス_7045" data-name="パス 7045" d="M1540.212-195.886c-.191-.493-.365-1-.53-1.526l-16.15,16.15a41.654,41.654,0,0,0,3.055,4.256l15.318-15.318A26.333,26.333,0,0,1,1540.212-195.886Z" transform="translate(-1516.446 255.71)" fill="#fde94c"/>
            <path id="パス_7046" data-name="パス 7046" d="M1569.1-176.869a35.432,35.432,0,0,1-4.14-.239l-16.622,16.622c.926.4,1.863.779,2.821,1.121.839.3,1.69.57,2.546.824l18.471-18.47C1571.145-176.917,1570.118-176.869,1569.1-176.869Z" transform="translate(-1521.462 251.603)" fill="#fde94c"/>
            <path id="パス_7047" data-name="パス 7047" d="M1592.6-157.35a46.547,46.547,0,0,0,7.049-2.829,9.379,9.379,0,0,0,5.323-6.746,9.535,9.535,0,0,0,.009-3.8l-13.773,13.774C1591.677-157.076,1592.143-157.208,1592.6-157.35Z" transform="translate(-1530.134 250.311)" fill="#fde94c"/>
            <path id="パス_7048" data-name="パス 7048" d="M1536.426-222.7a32.017,32.017,0,0,1,1.766-10.886,23.455,23.455,0,0,1,5.061-8.3,22.581,22.581,0,0,1,8.046-5.375,29.542,29.542,0,0,1,10.983-1.918,28.541,28.541,0,0,1,6.3.679,29.329,29.329,0,0,1,5.707,1.915,12.47,12.47,0,0,0,6.64,1.254,8.469,8.469,0,0,0,6.111-3.561,10.519,10.519,0,0,0,2.353-8.5,9.414,9.414,0,0,0-5.294-7.155,46.631,46.631,0,0,0-10.456-3.838,49.185,49.185,0,0,0-11.357-1.321,50.722,50.722,0,0,0-18.978,3.5,46.072,46.072,0,0,0-15.174,9.814,44,44,0,0,0-9.975,14.954,49.411,49.411,0,0,0-3.507,18.741c0,1.566.067,3.09.172,4.588l4.588-4.587h4.84l-8.959,8.959a50.212,50.212,0,0,0,1.265,6.046L1531.56-222.7h4.84l-18.672,18.672c.242.65.49,1.295.76,1.923.463,1.077.97,2.113,1.5,3.13l16.971-16.971A40.661,40.661,0,0,1,1536.426-222.7Z" transform="translate(-1514.649 270.333)" fill="#fde94c"/>
            <path id="パス_7049" data-name="パス 7049" d="M1546.946-185.52a20.41,20.41,0,0,1-1.727-1.9l-15,15c.656.675,1.326,1.334,2.026,1.958q.883.786,1.8,1.523l14.882-14.882A21.094,21.094,0,0,1,1546.946-185.52Z" transform="translate(-1517.799 253.69)" fill="#fde94c"/>
            <path id="パス_7050" data-name="パス 7050" d="M1599.08-177.46a10.1,10.1,0,0,0-2.553-2.349L1573.614-156.9c.2,0,.395.012.594.012a47.741,47.741,0,0,0,7.261-.557l18.591-18.591A12.925,12.925,0,0,0,1599.08-177.46Z" transform="translate(-1526.575 252.15)" fill="#fde94c"/>
            <path id="パス_7051" data-name="パス 7051" d="M2423.354-198.668l-20.281,20.281v6.052a11.958,11.958,0,0,0,.064,1.2l20.218-20.218Z" transform="translate(-1694.34 255.964)" fill="#fde94c"/>
            <path id="パス_7052" data-name="パス 7052" d="M2415.386-155.783a9.655,9.655,0,0,0,7.019-3,10.089,10.089,0,0,0,3-7.393v-2.032L2413.2-156A10.847,10.847,0,0,0,2415.386-155.783Z" transform="translate(-1696.389 249.803)" fill="#fde94c"/>
            <path id="パス_7053" data-name="パス 7053" d="M2423.65-183.437l-19.116,19.115a10.247,10.247,0,0,0,1.83,2.46,10.665,10.665,0,0,0,1.663,1.36l15.623-15.623Z" transform="translate(-1694.636 252.884)" fill="#fde94c"/>
            <path id="パス_7054" data-name="パス 7054" d="M2441.78-252.725a10.52,10.52,0,0,0,1.437-3.146,11.924,11.924,0,0,0,.4-3.011,10.028,10.028,0,0,0-3.18-7.573,10.085,10.085,0,0,0-7.087-2.942c-2.311,0-5.664.855-8.533,4.954l-18.291,26.763-19.645-27.113c-2.855-3.806-6.109-4.6-8.336-4.6a11.207,11.207,0,0,0-7.113,2.74,9.552,9.552,0,0,0-3.651,7.65,11.5,11.5,0,0,0,.641,3.619,13.434,13.434,0,0,0,2.163,3.914L2394.2-220.1l2.536-2.536h4.84L2395.935-217v7.312l12.954-12.954h4.84l-17.794,17.793v7.312l24.192-24.192Z" transform="translate(-1687.203 270.27)" fill="#fde94c"/>
            <path id="パス_7055" data-name="パス 7055" d="M2283.442-182.195h4.375l19.909-19.908h-7.312l-38.1,38.1a8.977,8.977,0,0,0,5.359,1.953l12.533-12.533Z" transform="translate(-1665.871 256.659)" fill="#fde94c"/>
            <path id="パス_7056" data-name="パス 7056" d="M2350.476-185.417l-15.142,15.143,2.067,4.816c.042.1.1.188.14.287l15.1-15.1Z" transform="translate(-1680.64 253.284)" fill="#fde94c"/>
            <path id="パス_7057" data-name="パス 7057" d="M2356.818-170.6l-1.716-4.086-14.658,14.659a10.8,10.8,0,0,0,1.678,1.619,9.52,9.52,0,0,0,2.6,1.411l12.469-12.469C2357.088-169.843,2356.965-170.22,2356.818-170.6Z" transform="translate(-1681.673 251.114)" fill="#fde94c"/>
            <path id="パス_7058" data-name="パス 7058" d="M2345.959-196.146l-15.2,15.2,2.2,5.116L2348.12-191Z" transform="translate(-1679.714 255.454)" fill="#fde94c"/>
            <path id="パス_7059" data-name="パス 7059" d="M2327.223-222.678l-16.849-40.139a10.146,10.146,0,0,0-3.835-4.959,10.081,10.081,0,0,0-5.592-1.787,9.3,9.3,0,0,0-6.117,1.59,10.871,10.871,0,0,0-4.079,5.11l-19.719,47.356,7.172-7.171h4.84l-15.464,15.464-5.217,12.529,27.993-27.993h4.505l5.242-12.329,5.291,12.329h1.954l-1.367,1.367,2.2,5.116,6.483-6.482h4.84l-26.831,26.831h7.312l26.832-26.831Z" transform="translate(-1665.881 270.311)" fill="#fde94c"/>
            <path id="パス_7060" data-name="パス 7060" d="M2339.3-206.873l-23.714,23.714h7.31l18.565-18.565Z" transform="translate(-1676.645 257.624)" fill="#fde94c"/>
            <path id="パス_7061" data-name="パス 7061" d="M2356.741-156.722a9.422,9.422,0,0,0,2.958-5.733l-8.363,8.362A9.886,9.886,0,0,0,2356.741-156.722Z" transform="translate(-1683.876 248.64)" fill="#fde94c"/>
            <path id="パス_7062" data-name="パス 7062" d="M2291.1-203.711l2.7-6.34-35.278,35.279a10.42,10.42,0,0,0-.185,1.879,9.933,9.933,0,0,0,1.049,4.569l35.386-35.386Z" transform="translate(-1665.066 258.266)" fill="#fde94c"/>
            <path id="パス_7063" data-name="パス 7063" d="M2207.821-196.764l-21.777,21.777v3.038a10.593,10.593,0,0,0,.627,3.646l21.15-21.15Z" transform="translate(-1650.444 255.579)" fill="#fde94c"/>
            <path id="パス_7064" data-name="パス 7064" d="M2200.937-249.021H2217.7a10.613,10.613,0,0,0,7.27-2.633,9.39,9.39,0,0,0,3.121-7.259,9.6,9.6,0,0,0-3.089-7.294,10.479,10.479,0,0,0-7.3-2.723h-55.3a10.617,10.617,0,0,0-7.269,2.633,9.391,9.391,0,0,0-3.12,7.259,9.582,9.582,0,0,0,3.087,7.291,10.457,10.457,0,0,0,7.3,2.726h16.763v30.3l3.816-3.816h4.839l-8.656,8.656v7.312l15.968-15.968h4.839l-20.807,20.807v7.312l21.777-21.777Z" transform="translate(-1643.56 270.175)" fill="#fde94c"/>
            <path id="パス_7065" data-name="パス 7065" d="M2207.4-158.34a9.877,9.877,0,0,0,3.179-7.448v-.511l-10.9,10.9A10.97,10.97,0,0,0,2207.4-158.34Z" transform="translate(-1653.203 249.417)" fill="#fde94c"/>
            <path id="パス_7066" data-name="パス 7066" d="M2208.433-181.531l-19.363,19.363c.212.247.434.487.674.72a10.167,10.167,0,0,0,3.633,2.285l15.056-15.057Z" transform="translate(-1651.057 252.498)" fill="#fde94c"/>
            <path id="パス_7067" data-name="パス 7067" d="M2072.282-178.479c-.643-.274-1.289-.583-1.94-.919l-14.889,14.889a41.553,41.553,0,0,0,4.526,2.785l15.685-15.685A19.424,19.424,0,0,1,2072.282-178.479Z" transform="translate(-1624.031 252.067)" fill="#fde94c"/>
            <path id="パス_7068" data-name="パス 7068" d="M2081.566-222.858l-8.239,8.238q1.744.354,3.594.629c.924.13,1.806.274,2.664.424l9.292-9.292h4.84l-10.133,10.133a36.431,36.431,0,0,1,4.415,1.372c.373.147.728.3,1.074.452l11.957-11.957h4.84l-13.7,13.7a9.4,9.4,0,0,1,1.585,1.44,6.3,6.3,0,0,1,1.4,2.884l15.837-15.837a21.037,21.037,0,0,0-3.683-3.7,33.667,33.667,0,0,0-10.252-5.249,102.928,102.928,0,0,0-13.479-3.327,70.2,70.2,0,0,1-9.457-2.451,12.142,12.142,0,0,1-5.131-3.09,6.138,6.138,0,0,1-1.466-4.3,5.824,5.824,0,0,1,1.268-3.749,9.717,9.717,0,0,1,4.328-2.853,23.414,23.414,0,0,1,8.054-1.194,23.063,23.063,0,0,1,6.214.954,45.589,45.589,0,0,1,6.687,2.463,19.954,19.954,0,0,1,4.692,2.869l.163.131a8.219,8.219,0,0,0,5.038,1.68,9.486,9.486,0,0,0,7.012-3.117,9.837,9.837,0,0,0,2.879-6.9c0-3.358-1.557-6.3-4.626-8.754a37.913,37.913,0,0,0-12.125-6.647,47.95,47.95,0,0,0-15.935-2.587,43,43,0,0,0-16.777,3.209,28.988,28.988,0,0,0-12.446,9.649,25.673,25.673,0,0,0-4.708,15.469,28.335,28.335,0,0,0,1.949,10.7,23.532,23.532,0,0,0,5.857,8.47c.049.045.1.088.152.133h2.066l-.954.954a28.994,28.994,0,0,0,4.386,2.925l3.879-3.879h4.84l-5.444,5.445c.155.065.305.133.462.2a46.615,46.615,0,0,0,4.987,1.663l7.3-7.3Z" transform="translate(-1622.37 270.491)" fill="#fde94c"/>
            <path id="パス_7069" data-name="パス 7069" d="M2084.69-176.163c-.972,0-1.9-.035-2.8-.1l-16.634,16.635c.963.4,1.932.762,2.91,1.067.85.265,1.727.5,2.615.719l18.855-18.855A22.943,22.943,0,0,1,2084.69-176.163Z" transform="translate(-1626.014 251.52)" fill="#fde94c"/>
            <path id="パス_7070" data-name="パス 7070" d="M2055.539-187.738a9.657,9.657,0,0,0-7.2,3.057,9.878,9.878,0,0,0-2.815,6.96,9.913,9.913,0,0,0,.259,2.2l11.961-11.961A9.68,9.68,0,0,0,2055.539-187.738Z" transform="translate(-1622.022 253.754)" fill="#fde94c"/>
            <path id="パス_7071" data-name="パス 7071" d="M2119.826-202.532c-.264-.624-.562-1.225-.877-1.812l-41.728,41.728a59.028,59.028,0,0,0,6.628.683l37.117-37.117A23.754,23.754,0,0,0,2119.826-202.532Z" transform="translate(-1628.434 257.112)" fill="#fde94c"/>
            <path id="パス_7072" data-name="パス 7072" d="M2123.7-169.215a23.861,23.861,0,0,0,3.492-6.415l-16.141,16.141A31.507,31.507,0,0,0,2123.7-169.215Z" transform="translate(-1635.276 251.305)" fill="#fde94c"/>
            <path id="パス_7073" data-name="パス 7073" d="M2124.809-188.285a39.531,39.531,0,0,0-.228-4.258L2091.534-159.5a44.073,44.073,0,0,0,8.379-1.067l24.731-24.731A29.885,29.885,0,0,0,2124.809-188.285Z" transform="translate(-1631.329 254.725)" fill="#fde94c"/>
            <path id="パス_7074" data-name="パス 7074" d="M2061.942-185.183c-.148-.119-.3-.226-.454-.334l-13.87,13.87a12.747,12.747,0,0,0,2.659,3.09c.283.244.571.471.857.706l14.573-14.572A43.806,43.806,0,0,1,2061.942-185.183Z" transform="translate(-1622.447 253.304)" fill="#fde94c"/>
            <path id="パス_7075" data-name="パス 7075" d="M2006.651-211.389a10.094,10.094,0,0,0-3-7.394,10.1,10.1,0,0,0-7.392-3h-21.673a10.323,10.323,0,0,0-7.333,2.816,9.467,9.467,0,0,0-2.969,5.958h3.292l-3.225,3.225a9.6,9.6,0,0,0,2.359,4.952l8.178-8.178h4.84l-10.337,10.337a10.505,10.505,0,0,0,5.2,1.295h.82l11.632-11.632h4.84l-11.632,11.632h7.311l11.633-11.632h4.839L1992.4-201.374h3.862a10.975,10.975,0,0,0,4.278-.827l5.39-5.39A10.075,10.075,0,0,0,2006.651-211.389Z" transform="translate(-1605.592 260.639)" fill="#fde94c"/>
            <path id="パス_7076" data-name="パス 7076" d="M1923.792-258.539a9.887,9.887,0,0,0-3.18-7.449,10.228,10.228,0,0,0-7.211-2.941,10.619,10.619,0,0,0-7.677,2.97,9.984,9.984,0,0,0-3.087,7.42v36h3.868l-3.868,3.867v7.311l11.179-11.179h4.84l-16.019,16.019v7.311l21.155-21.154Z" transform="translate(-1593.123 270.175)" fill="#fde94c"/>
            <path id="パス_7077" data-name="パス 7077" d="M1925.491-166.844v-4.679l-14.453,14.452a11.564,11.564,0,0,0,3.813.617,10.7,10.7,0,0,0,3.445-.563l6.734-6.733A10.369,10.369,0,0,0,1925.491-166.844Z" transform="translate(-1594.822 250.474)" fill="#fde94c"/>
            <path id="パス_7078" data-name="パス 7078" d="M1923.791-201.987l-21.154,21.154v7.311l21.154-21.154Z" transform="translate(-1593.123 256.635)" fill="#fde94c"/>
            <path id="パス_7079" data-name="パス 7079" d="M1923.949-186.755l-20.534,20.533a10.029,10.029,0,0,0,2.286,3.661c.226.234.464.451.707.658l17.541-17.541Z" transform="translate(-1593.28 253.555)" fill="#fde94c"/>
            <path id="パス_7080" data-name="パス 7080" d="M1812.161-176.893a25,25,0,0,1-3.414-.228l-16.262,16.261c.524.262,1.05.522,1.587.764,1.161.523,2.354.98,3.566,1.4l18.522-18.522A24.372,24.372,0,0,1,1812.161-176.893Z" transform="translate(-1570.844 251.627)" fill="#fde94c"/>
            <path id="パス_7081" data-name="パス 7081" d="M1787.2-194.572a28.741,28.741,0,0,1-1.832-4.853l-16.335,16.335a46.792,46.792,0,0,0,2.894,4.418l15.488-15.489C1787.341-194.3,1787.264-194.432,1787.2-194.572Z" transform="translate(-1566.099 256.117)" fill="#fde94c"/>
            <path id="パス_7082" data-name="パス 7082" d="M1798.266-181.23c-.057-.038-.108-.081-.165-.12l-14.955,14.956a43.543,43.543,0,0,0,4.332,2.98l15.475-15.475A19.5,19.5,0,0,1,1798.266-181.23Z" transform="translate(-1568.955 252.461)" fill="#fde94c"/>
            <path id="パス_7083" data-name="パス 7083" d="M1850.878-222.858h0a51.2,51.2,0,0,0-3.3-18.441,47.446,47.446,0,0,0-9.332-15.148,43.61,43.61,0,0,0-14.367-10.312,44.1,44.1,0,0,0-18.143-3.732,43.653,43.653,0,0,0-18.089,3.736,43.751,43.751,0,0,0-14.3,10.308,47.371,47.371,0,0,0-9.332,15.149,51.161,51.161,0,0,0-3.3,18.44c0,.943.03,1.877.076,2.8l2.8-2.8h4.84l-7.247,7.248a50.575,50.575,0,0,0,1.206,6.106l13.353-13.353h4.84l-17.063,17.063c.16.46.317.923.491,1.377.5,1.3,1.053,2.56,1.65,3.794l17.187-17.187a35.666,35.666,0,0,1-.36-5.047,31.432,31.432,0,0,1,3.015-13.967,24.494,24.494,0,0,1,8.22-9.633,20.63,20.63,0,0,1,12.005-3.5,20.64,20.64,0,0,1,12.005,3.5,24.913,24.913,0,0,1,8.286,9.706,31.011,31.011,0,0,1,3.074,13.894h.094l-.1.1a33.241,33.241,0,0,1-1.06,8.371l8.468-8.467h4.839l-17.395,17.394a24.024,24.024,0,0,1-6.192,6.193l-22.793,22.793a44.535,44.535,0,0,0,6.272,1.04l47.42-47.42Z" transform="translate(-1564.419 270.491)" fill="#fde94c"/>
            <path id="パス_7084" data-name="パス 7084" d="M1862.257-207.411l-44.941,44.941a47.214,47.214,0,0,0,8.017-.7l35.852-35.853A52.679,52.679,0,0,0,1862.257-207.411Z" transform="translate(-1575.866 257.733)" fill="#fde94c"/>
            <path id="パス_7085" data-name="パス 7085" d="M1839.008-162.349a43.608,43.608,0,0,0,14.367-10.312,47.406,47.406,0,0,0,9.331-15.149c.073-.189.134-.382.2-.572l-27.394,27.393C1836.7-161.4,1837.87-161.841,1839.008-162.349Z" transform="translate(-1579.547 253.884)" fill="#fde94c"/>
            <path id="パス_7086" data-name="パス 7086" d="M1790.49-189.014l-15.135,15.134c.316.365.629.735.956,1.091.843.917,1.729,1.786,2.641,2.623l14.9-14.9A24.044,24.044,0,0,1,1790.49-189.014Z" transform="translate(-1567.379 254.012)" fill="#fde94c"/>
            <path id="パス_7087" data-name="パス 7087" d="M1663.611-185.275l-20.191,20.19a10.129,10.129,0,0,0,1.943,2.823,9.9,9.9,0,0,0,1.376,1.17l16.871-16.871Z" transform="translate(-1540.694 253.255)" fill="#fde94c"/>
            <path id="パス_7088" data-name="パス 7088" d="M1718.67-222.542v-36a10.214,10.214,0,0,0-2.909-7.366,10.19,10.19,0,0,0-7.606-3.024,10.583,10.583,0,0,0-7.372,2.918,9.913,9.913,0,0,0-3.268,7.472v25.856h-34.149v-25.856a9.889,9.889,0,0,0-3.179-7.449,10.232,10.232,0,0,0-7.212-2.941,10.621,10.621,0,0,0-7.677,2.97,9.985,9.985,0,0,0-3.087,7.42v36.2l.208-.207h4.84l-5.047,5.047v7.312l12.359-12.359h4.84l-17.2,17.2v7.311l24.51-24.51h4.84l-29.35,29.35v6.647c0,.217.017.426.027.638l21.127-21.127v-5.741h5.741l9.767-9.767h4.84l-9.767,9.767h7.312l9.768-9.767h4.839l-9.768,9.767h7.313l9.767-9.767h4.84l-10.5,10.5v7.311l17.812-17.811Z" transform="translate(-1540.45 270.175)" fill="#fde94c"/>
            <path id="パス_7089" data-name="パス 7089" d="M1665.3-166.545v-3.5L1651.755-156.5a12.09,12.09,0,0,0,2.9.347,10.455,10.455,0,0,0,5.685-1.623l3.489-3.488A9.958,9.958,0,0,0,1665.3-166.545Z" transform="translate(-1542.38 250.175)" fill="#fde94c"/>
            <path id="パス_7090" data-name="パス 7090" d="M1732.985-157.719a9.916,9.916,0,0,0,2.8-5.237l-7.975,7.975A9.989,9.989,0,0,0,1732.985-157.719Z" transform="translate(-1557.762 248.741)" fill="#fde94c"/>
            <path id="パス_7091" data-name="パス 7091" d="M1733.542-178.44l-17.8,17.8a10.366,10.366,0,0,0,4.775,2.537l13.023-13.023Z" transform="translate(-1555.322 251.873)" fill="#fde94c"/>
            <path id="パス_7092" data-name="パス 7092" d="M1732.692-208.9l-21.154,21.154v7.312l21.154-21.154Z" transform="translate(-1554.471 258.035)" fill="#fde94c"/>
            <path id="パス_7093" data-name="パス 7093" d="M1732.692-193.673l-21.155,21.155v1.194a10.083,10.083,0,0,0,1.206,4.912l19.948-19.949Z" transform="translate(-1554.471 254.954)" fill="#fde94c"/>
            <path id="パス_7094" data-name="パス 7094" d="M2319.868-202.215l-.189-.44-.44.44Z" transform="translate(-1677.384 256.771)" fill="#fde94c"/>
            <path id="パス_7095" data-name="パス 7095" d="M2303.372-210.781h-.334l-.248.582Z" transform="translate(-1674.057 258.414)" fill="#fde94c"/>
          </g>
        </g>
      </g>
      <g id="グループ_2369" data-name="グループ 2369" transform="translate(1514.812 -270.487)">
        <g id="パス_7096" data-name="パス 7096" transform="translate(-1514.812 270.329)" fill="none" stroke-linecap="round" stroke-linejoin="round">
          <path d="M1581.222-199.3a11.65,11.65,0,0,0-6.772,1.113l-.089.045a20.346,20.346,0,0,1-5.7,1.974,34.143,34.143,0,0,1-6.216.575,31.869,31.869,0,0,1-10.424-1.653,21.594,21.594,0,0,1-8.062-4.91,23.109,23.109,0,0,1-5.381-8.347,33.767,33.767,0,0,1-1.99-12.191,32.019,32.019,0,0,1,1.766-10.887,23.453,23.453,0,0,1,5.061-8.3,22.588,22.588,0,0,1,8.046-5.374,29.531,29.531,0,0,1,10.983-1.919,28.553,28.553,0,0,1,6.3.68,29.333,29.333,0,0,1,5.706,1.915,12.471,12.471,0,0,0,6.64,1.255,8.467,8.467,0,0,0,6.111-3.561,10.518,10.518,0,0,0,2.353-8.5,9.414,9.414,0,0,0-5.293-7.155,46.62,46.62,0,0,0-10.457-3.839,49.229,49.229,0,0,0-11.358-1.321,50.727,50.727,0,0,0-18.978,3.5,46.069,46.069,0,0,0-15.174,9.813,43.989,43.989,0,0,0-9.974,14.954,49.411,49.411,0,0,0-3.507,18.741,51.982,51.982,0,0,0,3.839,20.594,42.068,42.068,0,0,0,10.609,15,45.994,45.994,0,0,0,15.245,9.016,53.272,53.272,0,0,0,17.94,3.027,47.665,47.665,0,0,0,7.543-.6,53.471,53.471,0,0,0,7.294-1.708,46.534,46.534,0,0,0,7.049-2.829,9.378,9.378,0,0,0,5.323-6.746,10.321,10.321,0,0,0-2.336-8.7A9.258,9.258,0,0,0,1581.222-199.3Z" stroke="none"/>
          <path d="M 1562.445068359375 -175.0637359619141 C 1564.989135742188 -175.0637359619141 1567.526733398438 -175.2647705078125 1569.98779296875 -175.6604309082031 C 1572.43359375 -176.0529327392578 1574.887573242188 -176.6281280517578 1577.2822265625 -177.3684234619141 C 1579.698608398438 -178.1143035888672 1582.083984375 -179.0731964111328 1584.331176757812 -180.1972045898438 C 1587.181518554688 -181.5669250488281 1589.02099609375 -183.8979339599609 1589.653686523438 -186.9429016113281 C 1590.276611328125 -189.9432220458984 1589.459716796875 -192.9602813720703 1587.31787109375 -195.6390838623047 C 1585.702514648438 -197.7140197753906 1583.651489257812 -198.9465179443359 1581.221557617188 -199.3022918701172 C 1580.69580078125 -199.3792724609375 1580.168090820312 -199.4177093505859 1579.639282226562 -199.4177093505859 C 1577.910278320312 -199.4177093505859 1576.169921875 -199.0068817138672 1574.449462890625 -198.1894683837891 L 1574.360229492188 -198.1448211669922 C 1572.538940429688 -197.1970825195312 1570.622680664062 -196.5333557128906 1568.661010742188 -196.1711730957031 C 1566.60693359375 -195.7898559570312 1564.515991210938 -195.5960083007812 1562.445068359375 -195.5960083007812 C 1558.702880859375 -195.5960083007812 1555.195068359375 -196.1520538330078 1552.02099609375 -197.2489471435547 C 1548.936889648438 -198.3123168945312 1546.225341796875 -199.9636535644531 1543.958984375 -202.1590423583984 C 1541.68701171875 -204.3568115234375 1539.876953125 -207.1640625 1538.578247070312 -210.5057983398438 C 1537.257934570312 -213.9001922607422 1536.588623046875 -218.0013580322266 1536.588623046875 -222.6968841552734 C 1536.588623046875 -226.6736297607422 1537.18212890625 -230.3352508544922 1538.354858398438 -233.5836639404297 C 1539.501953125 -236.7698516845703 1541.205932617188 -239.5619354248047 1543.415771484375 -241.8833618164062 C 1545.615844726562 -244.1928100585938 1548.323364257812 -246.0020904541016 1551.461791992188 -247.2577514648438 C 1554.644897460938 -248.5309600830078 1558.33984375 -249.1763305664062 1562.445068359375 -249.1763305664062 C 1564.634033203125 -249.1763305664062 1566.752075195312 -248.9473724365234 1568.741577148438 -248.4966430664062 C 1570.740844726562 -248.0443115234375 1572.673706054688 -247.3941650390625 1574.447875976562 -246.5820465087891 C 1576.277099609375 -245.7102355957031 1578.12939453125 -245.2724609375 1579.9658203125 -245.2724609375 C 1580.340698242188 -245.2724609375 1580.71484375 -245.2906951904297 1581.088134765625 -245.3272247314453 C 1583.54931640625 -245.5673522949219 1585.661010742188 -246.7982482910156 1587.198974609375 -248.8883209228516 C 1589.231567382812 -251.3868713378906 1590.046142578125 -254.3257446289062 1589.552368164062 -257.3922729492188 C 1589.03857421875 -260.5935974121094 1587.20849609375 -263.0673828125 1584.25927734375 -264.5472106933594 C 1581.003784179688 -266.2168884277344 1577.485717773438 -267.5075988769531 1573.802612304688 -268.3858947753906 C 1570.113037109375 -269.2618408203125 1566.291748046875 -269.7069702148438 1562.445068359375 -269.7069702148438 C 1555.6435546875 -269.7069702148438 1549.25927734375 -268.5287475585938 1543.467529296875 -266.2049255371094 C 1537.668090820312 -263.8746948242188 1532.563354492188 -260.5736389160156 1528.293823242188 -256.3919067382812 C 1524.009033203125 -252.1973571777344 1520.653076171875 -247.1660003662109 1518.319458007812 -241.4374237060547 C 1515.992553710938 -235.7279968261719 1514.81201171875 -229.4234466552734 1514.81201171875 -222.6968841552734 C 1514.81201171875 -214.9571990966797 1516.103637695312 -208.0279998779297 1518.651489257812 -202.1024017333984 C 1521.2099609375 -196.1440582275391 1524.779663085938 -191.0991516113281 1529.260498046875 -187.1072387695312 C 1533.7041015625 -183.1464538574219 1538.832763671875 -180.1126556396484 1544.505493164062 -178.0911712646484 C 1550.140747070312 -176.0824584960938 1556.176391601562 -175.0637359619141 1562.445068359375 -175.0637359619141 M 1562.445068359375 -171.0637359619141 C 1555.718017578125 -171.0637359619141 1549.230346679688 -172.1604309082031 1543.162475585938 -174.3233947753906 C 1537.003295898438 -176.5181732177734 1531.430419921875 -179.814697265625 1526.598999023438 -184.1212463378906 C 1521.677734375 -188.5055084228516 1517.766967773438 -194.0245056152344 1514.975952148438 -200.5241851806641 C 1512.213256835938 -206.9495697021484 1510.81201171875 -214.41015625 1510.81201171875 -222.6968841552734 C 1510.81201171875 -229.9417266845703 1512.091674804688 -236.7548828125 1514.615234375 -242.9470825195312 C 1517.156372070312 -249.1848754882812 1520.817138671875 -254.6702575683594 1525.49560546875 -259.2502746582031 C 1530.141235351562 -263.8003845214844 1535.686401367188 -267.3892822265625 1541.976196289062 -269.9165344238281 C 1548.245483398438 -272.4319152832031 1555.131591796875 -273.7069702148438 1562.445068359375 -273.7069702148438 C 1566.599731445312 -273.7069702148438 1570.73193359375 -273.2261047363281 1574.7265625 -272.2777404785156 C 1578.721923828125 -271.324951171875 1582.536865234375 -269.9244384765625 1586.06982421875 -268.1140441894531 C 1590.148071289062 -266.0616455078125 1592.786987304688 -262.4797973632812 1593.501831054688 -258.0261535644531 C 1593.839233398438 -255.9305267333984 1593.73046875 -253.8552856445312 1593.178100585938 -251.8600311279297 C 1592.64013671875 -249.9172973632812 1591.692993164062 -248.0937652587891 1590.362182617188 -246.4386596679688 C 1589.2822265625 -244.9917907714844 1587.984497070312 -243.821044921875 1586.503784179688 -242.9580993652344 C 1584.97021484375 -242.0643005371094 1583.27880859375 -241.5219573974609 1581.4765625 -241.3461303710938 C 1580.977416992188 -241.2972869873047 1580.46875 -241.2724609375 1579.9658203125 -241.2724609375 C 1577.537841796875 -241.2724609375 1575.11279296875 -241.8390808105469 1572.75732421875 -242.9567260742188 C 1571.2275390625 -243.6547241210938 1569.579711914062 -244.2059173583984 1567.85888671875 -244.5952453613281 C 1566.156616210938 -244.9809112548828 1564.335571289062 -245.1763305664062 1562.445068359375 -245.1763305664062 C 1558.850952148438 -245.1763305664062 1555.655517578125 -244.6270904541016 1552.947387695312 -243.5438232421875 C 1550.347045898438 -242.5034942626953 1548.114501953125 -241.0165100097656 1546.311889648438 -239.1243438720703 C 1544.486450195312 -237.2066345214844 1543.0751953125 -234.8862457275391 1542.118408203125 -232.2287139892578 C 1541.102905273438 -229.4158782958984 1540.588623046875 -226.2100219726562 1540.588623046875 -222.6968841552734 C 1540.588623046875 -218.4996643066406 1541.16650390625 -214.8858489990234 1542.30615234375 -211.9558258056641 C 1543.394165039062 -209.1561431884766 1544.885864257812 -206.8276824951172 1546.740112304688 -205.0340270996094 C 1548.584106445312 -203.2477416992188 1550.798828125 -201.9014129638672 1553.324829101562 -201.0304870605469 C 1556.080078125 -200.0783233642578 1559.147705078125 -199.5960083007812 1562.445068359375 -199.5960083007812 C 1564.26953125 -199.5960083007812 1566.115234375 -199.7669219970703 1567.930908203125 -200.1039733886719 C 1569.504638671875 -200.3945465087891 1571.045288085938 -200.9289703369141 1572.513793945312 -201.6931610107422 C 1572.532592773438 -201.7029266357422 1572.551391601562 -201.7125549316406 1572.570434570312 -201.7220306396484 L 1572.65966796875 -201.7666778564453 C 1572.683959960938 -201.7788391113281 1572.708374023438 -201.7907409667969 1572.73291015625 -201.8024139404297 C 1574.98876953125 -202.8742370605469 1577.3125 -203.4176940917969 1579.639282226562 -203.4176940917969 C 1580.359375 -203.4176940917969 1581.086669921875 -203.3646850585938 1581.801025390625 -203.2601165771484 C 1585.228271484375 -202.7582855224609 1588.22119140625 -200.9800567626953 1590.457763671875 -198.1172332763672 C 1591.862548828125 -196.3553771972656 1592.847290039062 -194.44921875 1593.385131835938 -192.4512023925781 C 1593.946044921875 -190.3670349121094 1594.00830078125 -188.2402038574219 1593.570190429688 -186.1297607421875 C 1593.127807617188 -184.0010223388672 1592.251098632812 -182.0950164794922 1590.964233398438 -180.4640655517578 C 1589.691284179688 -178.8507995605469 1588.053100585938 -177.5531768798828 1586.094482421875 -176.6067352294922 C 1583.644409179688 -175.383056640625 1581.07666015625 -174.3534545898438 1578.462036132812 -173.5463562011719 C 1575.886352539062 -172.7501220703125 1573.247924804688 -172.1324157714844 1570.62158203125 -171.7109832763672 C 1567.950561523438 -171.2815551757812 1565.19921875 -171.0637359619141 1562.445068359375 -171.0637359619141 Z" stroke="none" fill="#231815"/>
        </g>
        <g id="パス_7097" data-name="パス 7097" transform="translate(-1540.613 270.171)" fill="none" stroke-linecap="round" stroke-linejoin="round">
          <path d="M1708.319-268.926a10.585,10.585,0,0,0-7.372,2.919,9.913,9.913,0,0,0-3.267,7.472v25.856h-34.15v-25.856a9.889,9.889,0,0,0-3.179-7.449,10.232,10.232,0,0,0-7.211-2.942,10.617,10.617,0,0,0-7.677,2.971,9.98,9.98,0,0,0-3.087,7.42v71.994a10.2,10.2,0,0,0,2.906,7.363,10.177,10.177,0,0,0,7.608,3.027,10.586,10.586,0,0,0,7.372-2.918,9.913,9.913,0,0,0,3.267-7.472v-26.23h34.15v26.23a9.871,9.871,0,0,0,3.177,7.446,10.22,10.22,0,0,0,7.213,2.944,10.554,10.554,0,0,0,7.767-3,10.088,10.088,0,0,0,3-7.392v-71.994a10.212,10.212,0,0,0-2.909-7.366A10.19,10.19,0,0,0,1708.319-268.926Z" stroke="none"/>
          <path d="M 1653.139892578125 -268.926025390625 C 1650.074951171875 -268.926025390625 1647.492797851562 -267.9272155761719 1645.463134765625 -265.9552001953125 C 1643.413696289062 -263.9624633789062 1642.3759765625 -261.4655456542969 1642.3759765625 -258.535400390625 L 1642.3759765625 -186.5416259765625 C 1642.3759765625 -183.638671875 1643.353881835938 -181.160888671875 1645.281982421875 -179.178466796875 C 1647.23193359375 -177.1697998046875 1649.791748046875 -176.15185546875 1652.89013671875 -176.15185546875 C 1655.679931640625 -176.15185546875 1658.160034179688 -177.133056640625 1660.26220703125 -179.0700073242188 C 1662.400146484375 -181.038818359375 1663.529663085938 -183.6218872070312 1663.529663085938 -186.5416259765625 L 1663.529663085938 -212.7713775634766 L 1697.679321289062 -212.7713775634766 L 1697.679321289062 -186.5416259765625 C 1697.679321289062 -183.5915832519531 1698.749145507812 -181.0850830078125 1700.85595703125 -179.0955200195312 C 1702.919677734375 -177.1426391601562 1705.3466796875 -176.15185546875 1708.069213867188 -176.15185546875 C 1711.233154296875 -176.15185546875 1713.844848632812 -177.1593933105469 1715.836059570312 -179.1497802734375 C 1717.825439453125 -181.1393432617188 1718.833251953125 -183.626708984375 1718.833251953125 -186.5416259765625 L 1718.833251953125 -258.535400390625 C 1718.833251953125 -261.4344177246094 1717.85595703125 -263.9121704101562 1715.924560546875 -265.9017639160156 C 1713.9716796875 -267.9080810546875 1711.41259765625 -268.926025390625 1708.318725585938 -268.926025390625 C 1705.528442382812 -268.926025390625 1703.047485351562 -267.9439697265625 1700.9462890625 -266.0070495605469 C 1698.80908203125 -264.0390625 1697.679321289062 -261.4551391601562 1697.679321289062 -258.535400390625 L 1697.679321289062 -232.6798400878906 L 1663.529663085938 -232.6798400878906 L 1663.529663085938 -258.535400390625 C 1663.529663085938 -261.4806518554688 1662.460571289062 -263.985595703125 1660.350708007812 -265.9839477539062 C 1658.282958984375 -267.93603515625 1655.857055664062 -268.926025390625 1653.139892578125 -268.926025390625 M 1653.139892578125 -272.926025390625 C 1655.0126953125 -272.926025390625 1656.816162109375 -272.5776672363281 1658.5 -271.8905639648438 C 1660.160522460938 -271.2130126953125 1661.707153320312 -270.204345703125 1663.096557617188 -268.892578125 C 1663.09814453125 -268.8910827636719 1663.099731445312 -268.8895874023438 1663.101318359375 -268.8880615234375 C 1665.998413085938 -266.1441650390625 1667.529663085938 -262.5642700195312 1667.529663085938 -258.535400390625 L 1667.529663085938 -236.6798400878906 L 1693.679321289062 -236.6798400878906 L 1693.679321289062 -258.535400390625 C 1693.679321289062 -260.5433654785156 1694.072021484375 -262.4595336914062 1694.846313476562 -264.2306213378906 C 1695.6220703125 -266.0045776367188 1696.7626953125 -267.5922241210938 1698.23681640625 -268.9495849609375 C 1699.643798828125 -270.24658203125 1701.213745117188 -271.2437744140625 1702.901611328125 -271.9120178222656 C 1704.601196289062 -272.5848693847656 1706.423706054688 -272.926025390625 1708.318725585938 -272.926025390625 C 1710.36669921875 -272.926025390625 1712.287475585938 -272.5751342773438 1714.027587890625 -271.8831481933594 C 1715.821411132812 -271.1698608398438 1717.423950195312 -270.0961303710938 1718.790893554688 -268.6917724609375 C 1718.792114257812 -268.6904907226562 1718.79345703125 -268.689208984375 1718.794677734375 -268.6879272460938 C 1720.125122070312 -267.3173217773438 1721.144287109375 -265.7496032714844 1721.82373046875 -264.0283203125 C 1722.49365234375 -262.3314819335938 1722.833251953125 -260.4833984375 1722.833251953125 -258.535400390625 L 1722.833251953125 -186.5416259765625 C 1722.833251953125 -184.5732116699219 1722.4814453125 -182.7073669433594 1721.78759765625 -180.9959106445312 C 1721.085815429688 -179.2648315429688 1720.03515625 -177.6921081542969 1718.664672851562 -176.3214721679688 C 1717.276000976562 -174.9334716796875 1715.650512695312 -173.8742980957031 1713.832641601562 -173.1726989746094 C 1712.077514648438 -172.4953308105469 1710.138427734375 -172.15185546875 1708.069213867188 -172.15185546875 C 1706.193603515625 -172.15185546875 1704.388549804688 -172.5004577636719 1702.7041015625 -173.1879272460938 C 1701.041625976562 -173.8663940429688 1699.494873046875 -174.8764953613281 1698.106689453125 -176.1901550292969 C 1695.211303710938 -178.92431640625 1693.679321289062 -182.5047912597656 1693.679321289062 -186.5416259765625 L 1693.679321289062 -208.7713775634766 L 1667.529663085938 -208.7713775634766 L 1667.529663085938 -186.5416259765625 C 1667.529663085938 -184.5335693359375 1667.136962890625 -182.6174926757812 1666.362548828125 -180.8465270996094 C 1665.5869140625 -179.0729370117188 1664.446166992188 -177.4852600097656 1662.971801757812 -176.1275939941406 C 1661.563720703125 -174.8301086425781 1659.99365234375 -173.8331909179688 1658.306030273438 -173.165283203125 C 1656.607055664062 -172.4928283691406 1654.784790039062 -172.15185546875 1652.89013671875 -172.15185546875 C 1650.839599609375 -172.15185546875 1648.917358398438 -172.5028686523438 1647.177001953125 -173.1951599121094 C 1645.381103515625 -173.9095153808594 1643.777954101562 -174.9851684570312 1642.411865234375 -176.3923034667969 C 1641.084106445312 -177.7575378417969 1640.06494140625 -179.3242797851562 1639.38525390625 -181.04638671875 C 1638.715576171875 -182.7432556152344 1638.3759765625 -184.5921325683594 1638.3759765625 -186.5416259765625 L 1638.3759765625 -258.535400390625 C 1638.3759765625 -262.5311889648438 1639.862426757812 -266.088623046875 1642.674682617188 -268.8230285644531 C 1644.073364257812 -270.1820373535156 1645.686401367188 -271.2204895019531 1647.469848632812 -271.9105834960938 C 1649.211181640625 -272.5843811035156 1651.118774414062 -272.926025390625 1653.139892578125 -272.926025390625 Z" stroke="none" fill="#231815"/>
        </g>
        <g id="パス_7098" data-name="パス 7098" transform="translate(-1564.581 270.487)" fill="none" stroke-linecap="round" stroke-linejoin="round">
          <path d="M1838.409-256.444a43.6,43.6,0,0,0-14.366-10.311,44.084,44.084,0,0,0-18.143-3.732,43.653,43.653,0,0,0-18.089,3.735,43.771,43.771,0,0,0-14.3,10.308,47.376,47.376,0,0,0-9.332,15.15,51.158,51.158,0,0,0-3.3,18.44,51.142,51.142,0,0,0,3.3,18.44,47.349,47.349,0,0,0,9.331,15.149,43.738,43.738,0,0,0,14.3,10.309,43.653,43.653,0,0,0,18.089,3.735,44.084,44.084,0,0,0,18.143-3.732,43.6,43.6,0,0,0,14.367-10.312,47.4,47.4,0,0,0,9.331-15.149,51.177,51.177,0,0,0,3.3-18.44,51.2,51.2,0,0,0-3.3-18.441A47.42,47.42,0,0,0,1838.409-256.444Zm-32.51,60.691a20.62,20.62,0,0,1-12.006-3.5,24.387,24.387,0,0,1-8.215-9.688,31.538,31.538,0,0,1-3.019-13.912,31.439,31.439,0,0,1,3.016-13.967,24.487,24.487,0,0,1,8.22-9.633,20.63,20.63,0,0,1,12.005-3.5,20.641,20.641,0,0,1,12.005,3.5,24.912,24.912,0,0,1,8.287,9.706,31.019,31.019,0,0,1,3.073,13.894,31.009,31.009,0,0,1-3.073,13.894,24.9,24.9,0,0,1-8.286,9.706A20.63,20.63,0,0,1,1805.9-195.754Z" stroke="none"/>
          <path d="M 1805.899169921875 -270.4870300292969 C 1799.387329101562 -270.4870300292969 1793.301147460938 -269.2305603027344 1787.810302734375 -266.7519836425781 C 1782.338745117188 -264.2805786132812 1777.529174804688 -260.81201171875 1773.51416015625 -256.4443359375 C 1769.515014648438 -252.0942687988281 1766.375122070312 -246.9975128173828 1764.18212890625 -241.2944488525391 C 1761.992309570312 -235.6017456054688 1760.881713867188 -229.3969421386719 1760.881713867188 -222.8546447753906 C 1760.881713867188 -216.3099822998047 1761.992309570312 -210.1059265136719 1764.18212890625 -204.4148559570312 C 1766.37353515625 -198.7134246826172 1769.513427734375 -193.6158294677734 1773.51318359375 -189.2657470703125 C 1777.532348632812 -184.8925170898438 1782.3427734375 -181.4247131347656 1787.810302734375 -178.9565124511719 C 1793.301147460938 -176.4779357910156 1799.387329101562 -175.2214965820312 1805.899169921875 -175.2214965820312 C 1812.407958984375 -175.2214965820312 1818.512329101562 -176.4771423339844 1824.042236328125 -178.9533386230469 C 1829.551391601562 -181.4207458496094 1834.3857421875 -184.8901062011719 1838.40966796875 -189.2657470703125 C 1842.408569335938 -193.6166229248047 1845.547729492188 -198.7134246826172 1847.740600585938 -204.4148559570312 C 1849.930541992188 -210.1107177734375 1851.041015625 -216.3147735595703 1851.041015625 -222.8546447753906 C 1851.041015625 -229.3929290771484 1849.930541992188 -235.5969696044922 1847.740600585938 -241.2952270507812 C 1845.546142578125 -246.9975128173828 1842.407104492188 -252.0942687988281 1838.40869140625 -256.4443359375 C 1834.3896484375 -260.8152160644531 1829.556274414062 -264.2845458984375 1824.042236328125 -266.7551574707031 C 1818.512329101562 -269.2313842773438 1812.407958984375 -270.4870300292969 1805.899169921875 -270.4870300292969 M 1805.899169921875 -195.7537689208984 C 1801.278686523438 -195.7537689208984 1797.352172851562 -196.8985290527344 1793.89306640625 -199.2550811767578 C 1790.415771484375 -201.6219635009766 1787.651611328125 -204.8807373046875 1785.677978515625 -208.9428405761719 C 1783.674926757812 -213.0615692138672 1782.658569335938 -217.7427215576172 1782.658569335938 -222.8546447753906 C 1782.658569335938 -228.0455474853516 1783.67333984375 -232.7442474365234 1785.674072265625 -236.8215026855469 C 1787.646118164062 -240.8421173095703 1790.411987304688 -244.0841369628906 1793.89404296875 -246.4542236328125 C 1797.35546875 -248.8107604980469 1801.281860351562 -249.9563293457031 1805.899169921875 -249.9563293457031 C 1810.514892578125 -249.9563293457031 1814.442138671875 -248.8107604980469 1817.904418945312 -246.4550170898438 C 1821.38818359375 -244.0809783935547 1824.17626953125 -240.8150024414062 1826.19140625 -236.7489166259766 C 1828.230346679688 -232.6317596435547 1829.264282226562 -227.9578247070312 1829.264282226562 -222.8546447753906 C 1829.264282226562 -217.7506866455078 1828.230346679688 -213.0751342773438 1826.19140625 -208.9603881835938 C 1824.17626953125 -204.8927001953125 1821.38818359375 -201.6267395019531 1817.9052734375 -199.2542572021484 C 1814.445434570312 -196.8985290527344 1810.518188476562 -195.7537689208984 1805.899169921875 -195.7537689208984 M 1805.899169921875 -274.4870300292969 C 1812.97509765625 -274.4870300292969 1819.629272460938 -273.1139221191406 1825.677001953125 -270.4058837890625 C 1831.689697265625 -267.7117919921875 1836.963745117188 -263.9254760742188 1841.353149414062 -259.1517639160156 C 1845.692626953125 -254.4306182861328 1849.097534179688 -248.9063568115234 1851.473754882812 -242.7318725585938 C 1853.841064453125 -236.5720825195312 1855.041015625 -229.8849792480469 1855.041015625 -222.8546447753906 C 1855.041015625 -215.8222503662109 1853.840942382812 -209.13525390625 1851.47412109375 -202.9793853759766 C 1849.099731445312 -196.8058624267578 1845.695068359375 -191.2813720703125 1841.354736328125 -186.5589599609375 C 1836.960693359375 -181.7809143066406 1831.686279296875 -177.9940490722656 1825.67724609375 -175.3027648925781 C 1819.629272460938 -172.5945739746094 1812.97509765625 -171.2214965820312 1805.899169921875 -171.2214965820312 C 1798.8154296875 -171.2214965820312 1792.175659179688 -172.5973205566406 1786.16455078125 -175.3107299804688 C 1780.20068359375 -178.0029907226562 1774.953369140625 -181.7874755859375 1770.567993164062 -186.5590515136719 C 1766.226318359375 -191.2810821533203 1762.821411132812 -196.8060302734375 1760.448486328125 -202.9797821044922 C 1758.081909179688 -209.1300354003906 1756.881713867188 -215.8173675537109 1756.881713867188 -222.8546447753906 C 1756.881713867188 -229.8901672363281 1758.081909179688 -236.577392578125 1760.448852539062 -242.7305603027344 C 1762.822631835938 -248.9038696289062 1766.227783203125 -254.4288330078125 1770.569458007812 -259.1514892578125 C 1774.95263671875 -263.919677734375 1780.199340820312 -267.703369140625 1786.163696289062 -270.3973693847656 C 1792.17578125 -273.1112060546875 1798.8154296875 -274.4870300292969 1805.899169921875 -274.4870300292969 Z M 1805.899169921875 -199.7537689208984 C 1807.846069335938 -199.7537689208984 1809.585571289062 -199.9850158691406 1811.217407226562 -200.4607391357422 C 1812.80908203125 -200.9248046875 1814.260375976562 -201.6116790771484 1815.654052734375 -202.5606231689453 C 1818.561157226562 -204.5409088134766 1820.900756835938 -207.2916717529297 1822.607177734375 -210.7360534667969 C 1824.370361328125 -214.2943572998047 1825.264282226562 -218.3715362548828 1825.264282226562 -222.8546447753906 C 1825.264282226562 -227.3356781005859 1824.370239257812 -231.4131469726562 1822.60693359375 -234.9737396240234 C 1820.900756835938 -238.4162750244141 1818.560668945312 -241.1673736572266 1815.65185546875 -243.1495513916016 C 1814.2587890625 -244.097412109375 1812.806518554688 -244.7847137451172 1811.21435546875 -245.2490692138672 C 1809.582641601562 -245.7249755859375 1807.843994140625 -245.9563293457031 1805.899169921875 -245.9563293457031 C 1803.95361328125 -245.9563293457031 1802.21484375 -245.7249755859375 1800.583374023438 -245.2490386962891 C 1798.99169921875 -244.7847137451172 1797.539916992188 -244.0973663330078 1796.145141601562 -243.1477355957031 C 1793.243530273438 -241.1727600097656 1790.928955078125 -238.4517364501953 1789.265380859375 -235.0600433349609 C 1787.535522460938 -231.5348510742188 1786.658569335938 -227.4285736083984 1786.658569335938 -222.8546447753906 C 1786.658569335938 -218.3543701171875 1787.538940429688 -214.2623443603516 1789.275146484375 -210.6922454833984 C 1790.939697265625 -207.2662048339844 1793.25048828125 -204.5311737060547 1796.143798828125 -202.5617523193359 C 1797.538330078125 -201.6117553710938 1798.989013671875 -200.9248199462891 1800.580444335938 -200.4607696533203 C 1802.211791992188 -199.9850311279297 1803.95166015625 -199.7537689208984 1805.899169921875 -199.7537689208984 Z" stroke="none" fill="#231815"/>
        </g>
        <g id="パス_7099" data-name="パス 7099" transform="translate(-1593.286 270.171)" fill="none" stroke-linecap="round" stroke-linejoin="round">
          <path d="M1913.564-268.926a10.618,10.618,0,0,0-7.677,2.971,9.983,9.983,0,0,0-3.087,7.42v71.994a10.2,10.2,0,0,0,2.907,7.363,10.176,10.176,0,0,0,7.608,3.027,10.587,10.587,0,0,0,7.372-2.918,9.913,9.913,0,0,0,3.268-7.472v-71.994a9.887,9.887,0,0,0-3.18-7.449A10.23,10.23,0,0,0,1913.564-268.926Z" stroke="none"/>
          <path d="M 1913.563842773438 -268.926025390625 C 1910.499755859375 -268.926025390625 1907.916625976562 -267.9272155761719 1905.887084960938 -265.9552001953125 C 1903.838500976562 -263.9624633789062 1902.7998046875 -261.4655456542969 1902.7998046875 -258.535400390625 L 1902.7998046875 -186.5416259765625 C 1902.7998046875 -183.638671875 1903.77880859375 -181.160888671875 1905.706787109375 -179.178466796875 C 1907.656494140625 -177.1697998046875 1910.216552734375 -176.15185546875 1913.314819335938 -176.15185546875 C 1916.104614257812 -176.15185546875 1918.583984375 -177.133056640625 1920.686889648438 -179.0700073242188 C 1922.824829101562 -181.038818359375 1923.954467773438 -183.6218872070312 1923.954467773438 -186.5416259765625 L 1923.954467773438 -258.535400390625 C 1923.954467773438 -261.4806518554688 1922.885375976562 -263.985595703125 1920.774780273438 -265.9839477539062 C 1918.707763671875 -267.93603515625 1916.28173828125 -268.926025390625 1913.563842773438 -268.926025390625 M 1913.563842773438 -272.926025390625 C 1915.43701171875 -272.926025390625 1917.240600585938 -272.5776672363281 1918.924560546875 -271.8905944824219 C 1920.58544921875 -271.2129211425781 1922.131958007812 -270.2041015625 1923.521240234375 -268.89208984375 C 1923.5224609375 -268.8909301757812 1923.523681640625 -268.8897399902344 1923.52490234375 -268.8885498046875 C 1926.422729492188 -266.1448364257812 1927.954467773438 -262.5647583007812 1927.954467773438 -258.535400390625 L 1927.954467773438 -186.5416259765625 C 1927.954467773438 -184.5335693359375 1927.561767578125 -182.6174621582031 1926.787231445312 -180.8464660644531 C 1926.011596679688 -179.0729370117188 1924.870849609375 -177.4852600097656 1923.396484375 -176.1275939941406 C 1921.987548828125 -174.829833984375 1920.417602539062 -173.8330993652344 1918.730590820312 -173.1653137207031 C 1917.031616210938 -172.4928588867188 1915.20947265625 -172.15185546875 1913.314819335938 -172.15185546875 C 1911.264282226562 -172.15185546875 1909.342041015625 -172.5028686523438 1907.601684570312 -173.1951599121094 C 1905.8056640625 -173.9095458984375 1904.202392578125 -174.9852905273438 1902.836547851562 -176.3924560546875 C 1901.508911132812 -177.7575988769531 1900.48974609375 -179.3240966796875 1899.809814453125 -181.0457153320312 C 1899.1396484375 -182.7430114746094 1898.7998046875 -184.5921020507812 1898.7998046875 -186.5416259765625 L 1898.7998046875 -258.535400390625 C 1898.7998046875 -262.5299682617188 1900.2861328125 -266.087158203125 1903.098022460938 -268.8224487304688 C 1904.497192382812 -270.1819458007812 1906.110229492188 -271.220458984375 1907.894165039062 -271.91064453125 C 1909.635498046875 -272.5844116210938 1911.543090820312 -272.926025390625 1913.563842773438 -272.926025390625 Z" stroke="none" fill="#231815"/>
        </g>
        <g id="パス_7100" data-name="パス 7100" transform="translate(-1605.732 260.635)" fill="none" stroke-linecap="round" stroke-linejoin="round">
          <path d="M1996.4-221.776h-21.673a10.323,10.323,0,0,0-7.333,2.815,9.67,9.67,0,0,0-3.057,7.326,9.869,9.869,0,0,0,3.024,7.356,10.2,10.2,0,0,0,7.366,2.909H1996.4a10.339,10.339,0,0,0,7.334-2.816,9.658,9.658,0,0,0,3.056-7.2,10.1,10.1,0,0,0-3-7.393A10.092,10.092,0,0,0,1996.4-221.776Z" stroke="none"/>
          <path d="M 1974.728759765625 -221.7760009765625 C 1971.842407226562 -221.7760009765625 1969.374145507812 -220.8290863037109 1967.395751953125 -218.9607543945312 C 1965.3671875 -217.048583984375 1964.338745117188 -214.5843353271484 1964.338745117188 -211.6351013183594 C 1964.338745117188 -208.7017974853516 1965.35693359375 -206.2256164550781 1967.363037109375 -204.2791290283203 C 1969.346313476562 -202.3486022949219 1971.824829101562 -201.3697509765625 1974.728759765625 -201.3697509765625 L 1996.401611328125 -201.3697509765625 C 1999.28564453125 -201.3697509765625 2001.752807617188 -202.3174591064453 2003.736083984375 -204.1857757568359 C 2005.735229492188 -206.0732574462891 2006.792236328125 -208.5622100830078 2006.792236328125 -211.3861999511719 C 2006.792236328125 -214.3003540039062 2005.783935546875 -216.7869110107422 2003.79345703125 -218.7796783447266 C 2001.803100585938 -220.7684326171875 1999.315795898438 -221.7760009765625 1996.401611328125 -221.7760009765625 L 1974.728759765625 -221.7760009765625 M 1974.728759765625 -225.7760009765625 L 1996.401611328125 -225.7760009765625 C 1998.369506835938 -225.7760009765625 2000.235107421875 -225.4243316650391 2001.946411132812 -224.7307434082031 C 2003.677124023438 -224.029296875 2005.249877929688 -222.9790649414062 2006.620727539062 -221.6092376708984 C 2007.993774414062 -220.2346038818359 2009.044311523438 -218.6618194580078 2009.745971679688 -216.9318084716797 C 2010.440185546875 -215.2201232910156 2010.792236328125 -213.3542938232422 2010.792236328125 -211.3861999511719 C 2010.792236328125 -209.4409332275391 2010.42333984375 -207.5856170654297 2009.69580078125 -205.8717803955078 C 2008.96240234375 -204.1439361572266 2007.881103515625 -202.5981292724609 2006.482055664062 -201.2772827148438 C 2005.111206054688 -199.9858856201172 2003.550659179688 -198.9996643066406 2001.840454101562 -198.3429718017578 C 2000.15869140625 -197.6971893310547 1998.328857421875 -197.3697509765625 1996.401611328125 -197.3697509765625 L 1974.728759765625 -197.3697509765625 C 1972.7783203125 -197.3697509765625 1970.9287109375 -197.7097015380859 1969.231201171875 -198.3801727294922 C 1967.509399414062 -199.0602569580078 1965.94287109375 -200.0799407958984 1964.574951171875 -201.4109039306641 C 1961.803588867188 -204.1012573242188 1960.338745117188 -207.6365966796875 1960.338745117188 -211.6351013183594 C 1960.338745117188 -215.6718902587891 1961.830200195312 -219.2115631103516 1964.652099609375 -221.8714599609375 C 1966.015258789062 -223.1587829589844 1967.576049804688 -224.1460723876953 1969.288330078125 -224.8033447265625 C 1970.969848632812 -225.4487609863281 1972.800170898438 -225.7760009765625 1974.728759765625 -225.7760009765625 Z" stroke="none" fill="#231815"/>
        </g>
        <g id="パス_7101" data-name="パス 7101" transform="translate(-1622.186 270.487)" fill="none" stroke-linecap="round" stroke-linejoin="round">
          <path d="M2107.122-224.368a33.7,33.7,0,0,0-10.252-5.249,103.1,103.1,0,0,0-13.479-3.327,69.984,69.984,0,0,1-9.457-2.451,12.141,12.141,0,0,1-5.131-3.089,6.142,6.142,0,0,1-1.465-4.3,5.833,5.833,0,0,1,1.268-3.749,9.711,9.711,0,0,1,4.328-2.852,23.413,23.413,0,0,1,8.054-1.194,23.057,23.057,0,0,1,6.214.953,45.555,45.555,0,0,1,6.687,2.463,19.918,19.918,0,0,1,4.692,2.87l.163.131a8.223,8.223,0,0,0,5.039,1.679,9.483,9.483,0,0,0,7.012-3.117,9.835,9.835,0,0,0,2.879-6.9c0-3.358-1.557-6.3-4.626-8.755a37.9,37.9,0,0,0-12.125-6.646,47.947,47.947,0,0,0-15.935-2.587,42.994,42.994,0,0,0-16.777,3.208,28.994,28.994,0,0,0-12.446,9.649,25.672,25.672,0,0,0-4.708,15.47,28.349,28.349,0,0,0,1.949,10.7,23.54,23.54,0,0,0,5.858,8.47,30.364,30.364,0,0,0,9.388,5.774,55.284,55.284,0,0,0,12.487,3.227,50.334,50.334,0,0,1,11.077,2.637,14.45,14.45,0,0,1,5.751,3.638,6.671,6.671,0,0,1,1.57,4.536,4.943,4.943,0,0,1-1.574,3.594,13.93,13.93,0,0,1-5.2,3.193,21.515,21.515,0,0,1-7.5,1.258,26.794,26.794,0,0,1-10.426-1.769,36.963,36.963,0,0,1-8.755-5.467,9.355,9.355,0,0,0-5.979-2.105,9.656,9.656,0,0,0-7.2,3.057,9.876,9.876,0,0,0-2.815,6.959,10.525,10.525,0,0,0,1.165,4.733,12.564,12.564,0,0,0,3.165,3.982,40.508,40.508,0,0,0,14.32,8.212,55.583,55.583,0,0,0,16.526,2.307,42.633,42.633,0,0,0,16.854-3.339,31.559,31.559,0,0,0,12.89-9.838,25.1,25.1,0,0,0,5.06-15.648,30.538,30.538,0,0,0-2.089-11.861A21,21,0,0,0,2107.122-224.368Z" stroke="none"/>
          <path d="M 2080.98681640625 -270.4870300292969 C 2074.90966796875 -270.4870300292969 2069.264404296875 -269.4084777832031 2064.20947265625 -267.279296875 C 2059.02294921875 -265.0958557128906 2054.835693359375 -261.8498840332031 2051.763671875 -257.630615234375 C 2048.6396484375 -253.3419189453125 2047.055419921875 -248.137451171875 2047.055419921875 -242.1607666015625 C 2047.055419921875 -238.2430725097656 2047.71142578125 -234.6420745849609 2049.004150390625 -231.4574890136719 C 2050.316650390625 -228.2234344482422 2052.28759765625 -225.3731079101562 2054.862060546875 -222.9870758056641 C 2057.38623046875 -220.646484375 2060.54541015625 -218.7032012939453 2064.25 -217.2130126953125 C 2067.84423828125 -215.7659149169922 2072.0390625 -214.6817779541016 2076.737060546875 -213.9861602783203 C 2081.232421875 -213.3543548583984 2084.959228515625 -212.4672546386719 2087.814453125 -211.3488159179688 C 2090.444580078125 -210.3181304931641 2092.37890625 -209.0936126708984 2093.5654296875 -207.7103271484375 C 2094.62158203125 -206.4770202636719 2095.13525390625 -204.9940185546875 2095.13525390625 -203.1743621826172 C 2095.13525390625 -201.8261871337891 2094.63427734375 -200.6838073730469 2093.5615234375 -199.5805358886719 C 2092.2802734375 -198.2666625976562 2090.52978515625 -197.1920928955078 2088.36083984375 -196.3879699707031 C 2086.111083984375 -195.5535430908203 2083.5888671875 -195.1299438476562 2080.862060546875 -195.1299438476562 C 2076.69482421875 -195.1299438476562 2073.1865234375 -195.7250671386719 2070.4365234375 -196.8993377685547 C 2067.578125 -198.1174774169922 2064.63916015625 -199.9506988525391 2061.68115234375 -202.3662414550781 C 2059.93408203125 -203.7639007568359 2057.922119140625 -204.4714813232422 2055.7021484375 -204.4714813232422 C 2052.8779296875 -204.4714813232422 2050.388671875 -203.4152984619141 2048.50048828125 -201.4145355224609 C 2046.6328125 -199.4321746826172 2045.68505859375 -197.0899810791016 2045.68505859375 -194.4558410644531 C 2045.68505859375 -192.8603668212891 2046.078125 -191.2656860351562 2046.8505859375 -189.7228698730469 C 2047.596435546875 -188.2254943847656 2048.66845703125 -186.8797302246094 2050.015625 -185.7405090332031 C 2054.52392578125 -181.8507385253906 2059.342041015625 -179.0873718261719 2064.3359375 -177.5285949707031 C 2069.23974609375 -175.9977111816406 2074.7998046875 -175.2214965820312 2080.862060546875 -175.2214965820312 C 2086.859375 -175.2214965820312 2092.529296875 -176.3447265625 2097.7158203125 -178.5608215332031 C 2102.998779296875 -180.8168640136719 2107.3359375 -184.1266784667969 2110.60595703125 -188.3985900878906 C 2113.96337890625 -192.7813873291016 2115.666015625 -198.0464782714844 2115.666015625 -204.0462951660156 C 2115.666015625 -208.6356964111328 2114.96337890625 -212.6260070800781 2113.5771484375 -215.9071197509766 C 2112.15185546875 -219.2823638916016 2109.9794921875 -222.1278991699219 2107.1220703125 -224.3679656982422 C 2104.385986328125 -226.5090942382812 2100.9375 -228.2752990722656 2096.870361328125 -229.6170959472656 C 2092.994873046875 -230.8934783935547 2088.44921875 -232.0159149169922 2083.390869140625 -232.9436798095703 C 2079.7158203125 -233.6624603271484 2076.5341796875 -234.4865112304688 2073.93359375 -235.3943328857422 C 2071.65673828125 -236.1856994628906 2069.931640625 -237.2251739501953 2068.802490234375 -238.4832000732422 C 2067.81640625 -239.5816802978516 2067.337158203125 -240.9889221191406 2067.337158203125 -242.7838287353516 C 2067.337158203125 -244.225341796875 2067.7529296875 -245.4522705078125 2068.604736328125 -246.5332183837891 C 2069.524658203125 -247.6971130371094 2070.98046875 -248.6567840576172 2072.9326171875 -249.3851623535156 C 2075.059326171875 -250.1772918701172 2077.7685546875 -250.579345703125 2080.98681640625 -250.579345703125 C 2082.873779296875 -250.579345703125 2084.9658203125 -250.2586517333984 2087.200927734375 -249.6260375976562 C 2089.535888671875 -248.9639282226562 2091.786376953125 -248.1358642578125 2093.887451171875 -247.1634216308594 C 2095.8779296875 -246.2412414550781 2097.45751953125 -245.2751617431641 2098.579833984375 -244.2931365966797 L 2098.74267578125 -244.1623229980469 C 2100.22900390625 -243.0478668212891 2101.923095703125 -242.4830780029297 2103.78125 -242.4830780029297 C 2106.44189453125 -242.4830780029297 2108.8662109375 -243.5600433349609 2110.79345703125 -245.5998229980469 C 2112.703125 -247.6237182617188 2113.67236328125 -249.9443359375 2113.67236328125 -252.4987335205078 C 2113.67236328125 -255.8564300537109 2112.11572265625 -258.802490234375 2109.046142578125 -261.2539367675781 C 2105.8935546875 -263.945556640625 2101.814697265625 -266.1815795898438 2096.92138671875 -267.8999328613281 C 2092.03759765625 -269.61669921875 2086.67626953125 -270.4870300292969 2080.98681640625 -270.4870300292969 M 2080.98681640625 -274.4870300292969 C 2087.129638671875 -274.4870300292969 2092.93701171875 -273.5404663085938 2098.247802734375 -271.673583984375 C 2103.58203125 -269.8004455566406 2108.072265625 -267.33251953125 2111.594482421875 -264.337646484375 C 2115.5712890625 -261.1409606933594 2117.67236328125 -257.0486450195312 2117.67236328125 -252.4987335205078 C 2117.67236328125 -250.6960601806641 2117.3251953125 -248.9501800537109 2116.640380859375 -247.3096008300781 C 2115.97412109375 -245.7132110595703 2114.98583984375 -244.2143707275391 2113.70263671875 -242.8546905517578 C 2112.376708984375 -241.4511108398438 2110.85791015625 -240.3638763427734 2109.186767578125 -239.6212463378906 C 2107.487548828125 -238.8660125732422 2105.668701171875 -238.4830780029297 2103.78125 -238.4830780029297 C 2101.039306640625 -238.4830780029297 2098.536865234375 -239.3171234130859 2096.343017578125 -240.9620361328125 C 2096.307373046875 -240.9887237548828 2096.272216796875 -241.0160217285156 2096.237548828125 -241.0438842773438 L 2096.07470703125 -241.1746978759766 C 2096.031005859375 -241.2098388671875 2095.988037109375 -241.2458801269531 2095.94580078125 -241.2828369140625 C 2095.371337890625 -241.7855682373047 2094.256103515625 -242.584228515625 2092.2060546875 -243.5339965820312 C 2090.300048828125 -244.4161834716797 2088.248291015625 -245.1713104248047 2086.109619140625 -245.7777557373047 C 2084.231201171875 -246.3094635009766 2082.5068359375 -246.579345703125 2080.98681640625 -246.579345703125 C 2078.28662109375 -246.579345703125 2075.984375 -246.2533874511719 2074.328857421875 -245.63671875 C 2072.688720703125 -245.0248107910156 2072.0068359375 -244.3853607177734 2071.74560546875 -244.0564117431641 C 2071.50048828125 -243.7449188232422 2071.337158203125 -243.4090728759766 2071.337158203125 -242.7838287353516 C 2071.337158203125 -241.6475524902344 2071.646728515625 -241.3025665283203 2071.779052734375 -241.1552581787109 C 2072.24169921875 -240.6397094726562 2073.21875 -239.8774719238281 2075.246826171875 -239.1726379394531 C 2075.24853515625 -239.1720428466797 2075.250244140625 -239.1714477539062 2075.251953125 -239.1708526611328 C 2077.665283203125 -238.328369140625 2080.654052734375 -237.5555572509766 2084.1357421875 -236.8737945556641 C 2089.365234375 -235.9137420654297 2094.070556640625 -234.7505187988281 2098.12158203125 -233.4163360595703 C 2102.62890625 -231.9293670654297 2106.48583984375 -229.9451293945312 2109.587158203125 -227.5180816650391 C 2112.9892578125 -224.8509521484375 2115.57080078125 -221.4687194824219 2117.26220703125 -217.4631805419922 C 2118.857177734375 -213.6878204345703 2119.666015625 -209.1735076904297 2119.666015625 -204.0462951660156 C 2119.666015625 -197.146484375 2117.68603515625 -191.0634307861328 2113.78125 -185.9660949707031 C 2110.088623046875 -181.1419067382812 2105.211669921875 -177.412353515625 2099.28662109375 -174.8822021484375 C 2093.60205078125 -172.4532470703125 2087.40283203125 -171.2214965820312 2080.862060546875 -171.2214965820312 C 2074.395263671875 -171.2214965820312 2068.43408203125 -172.0588684082031 2063.14404296875 -173.7103271484375 C 2057.63037109375 -175.4312744140625 2052.339111328125 -178.4557189941406 2047.4169921875 -182.6995849609375 C 2045.654296875 -184.1936340332031 2044.260498046875 -185.9539184570312 2043.27392578125 -187.9320678710938 L 2043.27392578125 -187.9320373535156 C 2042.2197265625 -190.0376586914062 2041.68505859375 -192.2325897216797 2041.68505859375 -194.4558410644531 C 2041.68505859375 -196.2833404541016 2042.021240234375 -198.0409545898438 2042.684326171875 -199.6798858642578 C 2043.340576171875 -201.3017578125 2044.31787109375 -202.8082275390625 2045.589111328125 -204.1575012207031 C 2046.91259765625 -205.5598754882812 2048.458984375 -206.6417083740234 2050.1875 -207.3753662109375 C 2051.901123046875 -208.1026916503906 2053.756591796875 -208.4714813232422 2055.7021484375 -208.4714813232422 C 2057.2607421875 -208.4714813232422 2058.773193359375 -208.2173309326172 2060.197021484375 -207.7160491943359 C 2061.618896484375 -207.2156066894531 2062.958984375 -206.466552734375 2064.179931640625 -205.48974609375 C 2064.1904296875 -205.4813537597656 2064.200927734375 -205.4729309082031 2064.211181640625 -205.4644470214844 C 2066.869140625 -203.2939147949219 2069.4912109375 -201.6502532958984 2072.004638671875 -200.5791320800781 C 2074.257568359375 -199.6171417236328 2077.23681640625 -199.1299438476562 2080.862060546875 -199.1299438476562 C 2083.11083984375 -199.1299438476562 2085.165771484375 -199.4692077636719 2086.9697265625 -200.1383209228516 C 2088.579345703125 -200.7350616455078 2089.83349609375 -201.4869079589844 2090.69775390625 -202.3731842041016 C 2091.13525390625 -202.8242340087891 2091.13525390625 -203.0022125244141 2091.13525390625 -203.1743621826172 C 2091.13525390625 -204.2530670166016 2090.827880859375 -204.7574310302734 2090.52734375 -205.1085357666016 C 2090.103515625 -205.6026458740234 2088.99462890625 -206.5901184082031 2086.35498046875 -207.6245727539062 C 2083.791259765625 -208.6288452148438 2080.36767578125 -209.4365692138672 2076.180419921875 -210.0250854492188 C 2076.170654296875 -210.0264434814453 2076.160888671875 -210.0278625488281 2076.151123046875 -210.029296875 C 2071.146484375 -210.7703399658203 2066.6396484375 -211.9388732910156 2062.756103515625 -213.5024566650391 C 2058.597900390625 -215.1750946044922 2055.026611328125 -217.3795166015625 2052.142333984375 -220.0540161132812 C 2049.1357421875 -222.8405914306641 2046.83251953125 -226.1714324951172 2045.2978515625 -229.9533081054688 C 2043.809814453125 -233.6186218261719 2043.055419921875 -237.7258911132812 2043.055419921875 -242.1607666015625 C 2043.055419921875 -249.0011444091797 2044.8974609375 -254.9983215332031 2048.530517578125 -259.9857482910156 C 2052.03662109375 -264.80126953125 2056.789794921875 -268.4957580566406 2062.657470703125 -270.9659423828125 C 2068.2041015625 -273.30224609375 2074.371337890625 -274.4870300292969 2080.98681640625 -274.4870300292969 Z" stroke="none" fill="#231815"/>
        </g>
        <g id="パス_7102" data-name="パス 7102" transform="translate(-1643.723 270.171)" fill="none" stroke-linecap="round" stroke-linejoin="round">
          <path d="M2217.862-268.926h-55.3a10.621,10.621,0,0,0-7.269,2.633,9.393,9.393,0,0,0-3.12,7.259,9.579,9.579,0,0,0,3.086,7.29,10.458,10.458,0,0,0,7.3,2.726h16.764v62.477a9.983,9.983,0,0,0,3.087,7.421,10.617,10.617,0,0,0,7.677,2.969,11,11,0,0,0,7.834-2.942,9.877,9.877,0,0,0,3.179-7.448v-62.477h16.763a10.616,10.616,0,0,0,7.27-2.632,9.392,9.392,0,0,0,3.121-7.259,9.6,9.6,0,0,0-3.089-7.294A10.482,10.482,0,0,0,2217.862-268.926Z" stroke="none"/>
          <path d="M 2162.558837890625 -268.926025390625 C 2159.706787109375 -268.926025390625 2157.261962890625 -268.0397033691406 2155.289794921875 -266.29345703125 C 2153.248291015625 -264.4841918945312 2152.169921875 -261.9744873046875 2152.169921875 -259.0339965820312 C 2152.169921875 -256.1071166992188 2153.23828125 -253.5854339599609 2155.25634765625 -251.7442474365234 C 2157.2314453125 -249.9349670410156 2159.688720703125 -249.0183563232422 2162.558837890625 -249.0183563232422 L 2179.32275390625 -249.0183563232422 L 2179.32275390625 -186.5416259765625 C 2179.32275390625 -183.609130859375 2180.362060546875 -181.113037109375 2182.409912109375 -179.1210327148438 C 2184.43701171875 -177.1514282226562 2187.01904296875 -176.15185546875 2190.086669921875 -176.15185546875 C 2193.219970703125 -176.15185546875 2195.855712890625 -177.141845703125 2197.92041015625 -179.0939331054688 C 2200.02978515625 -181.0874633789062 2201.09912109375 -183.593994140625 2201.09912109375 -186.5416259765625 L 2201.09912109375 -249.0183563232422 L 2217.8623046875 -249.0183563232422 C 2220.7158203125 -249.0183563232422 2223.16162109375 -249.9038391113281 2225.132080078125 -251.6501159667969 C 2227.17333984375 -253.4586029052734 2228.252685546875 -255.9682922363281 2228.252685546875 -258.9095458984375 C 2228.252685546875 -261.8309326171875 2227.185546875 -264.3517456054688 2225.1640625 -266.2033081054688 C 2223.184814453125 -268.0093994140625 2220.728759765625 -268.926025390625 2217.8623046875 -268.926025390625 L 2162.558837890625 -268.926025390625 M 2162.558837890625 -272.926025390625 L 2217.8623046875 -272.926025390625 C 2219.767333984375 -272.926025390625 2221.577880859375 -272.6110229492188 2223.24365234375 -271.9897766113281 C 2224.942138671875 -271.3563232421875 2226.495361328125 -270.4035949707031 2227.8603515625 -269.1580200195312 C 2227.862060546875 -269.1563720703125 2227.864013671875 -269.1546630859375 2227.86572265625 -269.1529846191406 C 2229.2978515625 -267.84130859375 2230.40283203125 -266.2816162109375 2231.14990234375 -264.5172729492188 C 2231.881591796875 -262.7890014648438 2232.252685546875 -260.9022827148438 2232.252685546875 -258.9095458984375 C 2232.252685546875 -256.8995361328125 2231.875732421875 -255.0038757324219 2231.132568359375 -253.2751770019531 C 2230.37109375 -251.5036773681641 2229.24462890625 -249.9496154785156 2227.78466796875 -248.6561431884766 C 2226.424560546875 -247.4508972167969 2224.878662109375 -246.5296020507812 2223.18994140625 -245.9182586669922 C 2221.54052734375 -245.3211212158203 2219.748046875 -245.0183563232422 2217.8623046875 -245.0183563232422 L 2205.09912109375 -245.0183563232422 L 2205.09912109375 -186.5416259765625 C 2205.09912109375 -182.5071716308594 2203.56689453125 -178.9265441894531 2200.66796875 -176.1868286132812 C 2199.251953125 -174.8480224609375 2197.617431640625 -173.8248596191406 2195.810546875 -173.1462707519531 C 2194.0537109375 -172.4864196777344 2192.1279296875 -172.15185546875 2190.086669921875 -172.15185546875 C 2188.064697265625 -172.15185546875 2186.156494140625 -172.4934997558594 2184.414794921875 -173.1672668457031 C 2182.631591796875 -173.8571472167969 2181.019287109375 -174.8950805664062 2179.62255859375 -176.2522277832031 C 2176.80908203125 -178.9889221191406 2175.32275390625 -182.54638671875 2175.32275390625 -186.5416259765625 L 2175.32275390625 -245.0183563232422 L 2162.558837890625 -245.0183563232422 C 2160.651123046875 -245.0183563232422 2158.839111328125 -245.3335876464844 2157.17333984375 -245.9553070068359 C 2155.473876953125 -246.5895690917969 2153.92138671875 -247.5435485839844 2152.55859375 -248.7908172607422 C 2151.126220703125 -250.0981903076172 2150.020751953125 -251.6563262939453 2149.27294921875 -253.4221954345703 C 2148.541015625 -255.1506958007812 2148.169921875 -257.0387573242188 2148.169921875 -259.0339965820312 C 2148.169921875 -261.0435791015625 2148.546630859375 -262.9389038085938 2149.289306640625 -264.6672668457031 C 2150.050537109375 -266.4389038085938 2151.177001953125 -267.9932250976562 2152.63671875 -269.2870483398438 C 2153.9990234375 -270.4932861328125 2155.544677734375 -271.4141845703125 2157.23193359375 -272.0254516601562 C 2158.881591796875 -272.623046875 2160.673828125 -272.926025390625 2162.558837890625 -272.926025390625 Z" stroke="none" fill="#231815"/>
        </g>
        <g id="パス_7103" data-name="パス 7103" transform="translate(-1665.229 270.307)" fill="none" stroke-linecap="round" stroke-linejoin="round">
          <path d="M2309.722-262.814a10.145,10.145,0,0,0-3.834-4.958,10.078,10.078,0,0,0-5.592-1.788,9.3,9.3,0,0,0-6.117,1.59,10.869,10.869,0,0,0-4.079,5.11l-31.015,74.485-.1.274a11.115,11.115,0,0,0-.49,3.166,9.539,9.539,0,0,0,2.3,6.437,8.912,8.912,0,0,0,7.094,2.833,9.316,9.316,0,0,0,5.562-1.84,10.424,10.424,0,0,0,3.635-4.9l5.713-13.437h33.456l5.734,13.361a11.675,11.675,0,0,0,3.688,4.877,9.289,9.289,0,0,0,5.737,1.939,9.7,9.7,0,0,0,6.678-2.725,9.734,9.734,0,0,0,3.088-7.416,11.191,11.191,0,0,0-.807-3.99Zm-18.457,47.063L2299.451-235l8.261,19.252Z" stroke="none"/>
          <path d="M 2299.4248046875 -269.5995483398438 C 2297.569580078125 -269.599609375 2295.805908203125 -269.0535278320312 2294.178466796875 -267.9701232910156 C 2292.33642578125 -266.7407836914062 2290.958740234375 -265.0089111328125 2290.099609375 -262.8597717285156 L 2259.084228515625 -188.3746643066406 L 2258.98681640625 -188.1010437011719 C 2258.662353515625 -187.012939453125 2258.497314453125 -185.9479370117188 2258.497314453125 -184.934814453125 C 2258.497314453125 -182.42431640625 2259.27197265625 -180.2584533691406 2260.796630859375 -178.4978332519531 C 2262.42431640625 -176.6183471679688 2264.810302734375 -175.6650390625 2267.890625 -175.6650390625 C 2269.89697265625 -175.6650390625 2271.767578125 -176.2841186523438 2273.452392578125 -177.504638671875 C 2275.089111328125 -178.6908874511719 2276.312255859375 -180.3398132324219 2277.0869140625 -182.4059448242188 L 2282.800048828125 -195.8431396484375 L 2316.255859375 -195.8431396484375 L 2321.989990234375 -182.4817504882812 C 2322.84375 -180.4514770507812 2324.086669921875 -178.8097534179688 2325.677978515625 -177.6043701171875 C 2327.37255859375 -176.317626953125 2329.302001953125 -175.6650390625 2331.414794921875 -175.6650390625 C 2333.869384765625 -175.6650390625 2336.116455078125 -176.5824584960938 2338.09326171875 -178.39013671875 C 2340.114013671875 -180.2361145019531 2341.181396484375 -182.8008422851562 2341.181396484375 -185.8059387207031 C 2341.181396484375 -187.0576171875 2340.91015625 -188.3994140625 2340.374267578125 -189.7954406738281 L 2309.722412109375 -262.8143310546875 C 2308.934326171875 -264.9139709472656 2307.64501953125 -266.58203125 2305.887939453125 -267.7722473144531 C 2304.176513671875 -268.9313659667969 2302.29541015625 -269.5321044921875 2300.295654296875 -269.5599975585938 C 2300.00341796875 -269.5863647460938 2299.712890625 -269.5995483398438 2299.4248046875 -269.5995483398438 M 2307.712158203125 -215.7515563964844 L 2291.26513671875 -215.7515563964844 L 2299.450927734375 -235.0034484863281 L 2307.712158203125 -215.7515563964844 M 2299.424560546875 -273.5995483398438 L 2299.424560546875 -269.5995483398438 L 2299.424560546875 -273.5995483398438 C 2299.78076171875 -273.5995483398438 2300.142578125 -273.5851440429688 2300.50244140625 -273.5567321777344 C 2303.240234375 -273.4903869628906 2305.805908203125 -272.6588745117188 2308.131103515625 -271.0841064453125 C 2310.56494140625 -269.4353637695312 2312.35009765625 -267.1522216796875 2313.438232421875 -264.2966918945312 L 2344.0625 -191.3436889648438 C 2344.078369140625 -191.3056793212891 2344.09375 -191.2674102783203 2344.108642578125 -191.2289428710938 C 2344.820556640625 -189.3744506835938 2345.181396484375 -187.5498962402344 2345.181396484375 -185.8059387207031 C 2345.181396484375 -183.7797546386719 2344.8134765625 -181.8686828613281 2344.087890625 -180.1258544921875 C 2343.33984375 -178.3296203613281 2342.230712890625 -176.7520141601562 2340.791015625 -175.4368896484375 C 2339.458984375 -174.2188110351562 2337.99609375 -173.2794494628906 2336.444580078125 -172.646240234375 C 2334.84912109375 -171.9951782226562 2333.156982421875 -171.6650390625 2331.414794921875 -171.6650390625 C 2328.409423828125 -171.6650390625 2325.665283203125 -172.5915222167969 2323.259033203125 -174.4186706542969 C 2321.104736328125 -176.0505065917969 2319.43798828125 -178.23779296875 2318.30859375 -180.9170532226562 L 2313.61962890625 -191.8431396484375 L 2285.44580078125 -191.8431396484375 L 2280.799560546875 -180.9152526855469 C 2279.742431640625 -178.1412658691406 2278.060546875 -175.9044494628906 2275.7998046875 -174.2658386230469 C 2273.417236328125 -172.5399169921875 2270.756591796875 -171.6650390625 2267.890625 -171.6650390625 C 2262.544677734375 -171.6650390625 2259.437744140625 -173.9567260742188 2257.77294921875 -175.8792114257812 C 2256.688232421875 -177.1317443847656 2255.859130859375 -178.5481567382812 2255.308349609375 -180.0891723632812 C 2254.770263671875 -181.5955200195312 2254.497314453125 -183.225830078125 2254.497314453125 -184.934814453125 C 2254.497314453125 -186.3338012695312 2254.718017578125 -187.7836303710938 2255.153564453125 -189.2440490722656 C 2255.173583984375 -189.3108215332031 2255.195068359375 -189.3770446777344 2255.218505859375 -189.4426727294922 L 2255.31591796875 -189.7162933349609 C 2255.33935546875 -189.7822570800781 2255.36474609375 -189.8476104736328 2255.3916015625 -189.9122772216797 L 2286.396728515625 -264.3727111816406 C 2287.5673828125 -267.2858276367188 2289.438232421875 -269.6156311035156 2291.9580078125 -271.2972412109375 C 2294.254150390625 -272.8258056640625 2296.764892578125 -273.5995483398438 2299.424560546875 -273.5995483398438 Z M 2301.64306640625 -219.7515563964844 L 2299.4677734375 -224.8205871582031 L 2297.3125 -219.7515563964844 L 2301.64306640625 -219.7515563964844 Z" stroke="none" fill="#231815"/>
        </g>
        <g id="パス_7104" data-name="パス 7104" transform="translate(-1687.366 270.266)" fill="none" stroke-linecap="round" stroke-linejoin="round">
          <path d="M2440.6-266.453a10.087,10.087,0,0,0-7.086-2.941c-2.311,0-5.664.855-8.533,4.954l-18.291,26.763-19.645-27.113c-2.855-3.805-6.109-4.6-8.337-4.6a11.21,11.21,0,0,0-7.113,2.739,9.553,9.553,0,0,0-3.651,7.65,11.491,11.491,0,0,0,.641,3.619,13.434,13.434,0,0,0,2.162,3.914l25.347,33.679v31.157a10.082,10.082,0,0,0,3,7.391,9.933,9.933,0,0,0,7.269,3,9.652,9.652,0,0,0,7.019-3,10.088,10.088,0,0,0,3-7.392v-29.485l25.564-36.6a10.521,10.521,0,0,0,1.437-3.145,11.919,11.919,0,0,0,.4-3.012A10.029,10.029,0,0,0,2440.6-266.453Z" stroke="none"/>
          <path d="M 2378.711669921875 -269.39404296875 C 2376.23876953125 -269.39404296875 2373.84619140625 -268.4726257324219 2371.598388671875 -266.654541015625 C 2369.2099609375 -264.71923828125 2367.94775390625 -262.0747375488281 2367.94775390625 -259.0042114257812 C 2367.94775390625 -257.8729858398438 2368.164794921875 -256.6532592773438 2368.588623046875 -255.3856811523438 C 2369.016845703125 -254.0933227539062 2369.75146484375 -252.7674713134766 2370.7509765625 -251.471923828125 L 2396.09765625 -217.7928924560547 L 2396.09765625 -186.6362915039062 C 2396.09765625 -183.7181701660156 2397.10693359375 -181.2307739257812 2399.09423828125 -179.2452392578125 C 2401.08203125 -177.2548217773438 2403.52783203125 -176.2465209960938 2406.363037109375 -176.2465209960938 C 2409.031494140625 -176.2465209960938 2411.392822265625 -177.2548217773438 2413.381591796875 -179.2444152832031 C 2415.370361328125 -181.2332153320312 2416.37939453125 -183.7205505371094 2416.37939453125 -186.6362915039062 L 2416.37939453125 -216.1216125488281 L 2441.943359375 -252.7220001220703 C 2442.60986328125 -253.7223815917969 2443.092529296875 -254.7793731689453 2443.3798828125 -255.8674926757812 C 2443.647216796875 -256.8886108398438 2443.78271484375 -257.9017333984375 2443.78271484375 -258.8797607421875 C 2443.78271484375 -261.9072265625 2442.7138671875 -264.4544067382812 2440.60302734375 -266.4527587890625 C 2438.53515625 -268.4048156738281 2436.151611328125 -269.39404296875 2433.5166015625 -269.39404296875 C 2431.205322265625 -269.39404296875 2427.8525390625 -268.538818359375 2424.98388671875 -264.4400024414062 L 2406.693359375 -237.6773681640625 L 2387.04833984375 -264.7902221679688 C 2384.193115234375 -268.595458984375 2380.939208984375 -269.39404296875 2378.711669921875 -269.39404296875 M 2378.711669921875 -273.39404296875 C 2380.6640625 -273.39404296875 2382.5556640625 -272.9736328125 2384.33447265625 -272.1445922851562 C 2386.57568359375 -271.0999755859375 2388.565185546875 -269.4332885742188 2390.247802734375 -267.19091796875 C 2390.26123046875 -267.173095703125 2390.2744140625 -267.1552124023438 2390.287353515625 -267.1371765136719 L 2406.597900390625 -244.6266326904297 L 2421.681396484375 -266.6969909667969 C 2421.689697265625 -266.709228515625 2421.6982421875 -266.721435546875 2421.706787109375 -266.7335815429688 C 2423.38916015625 -269.1375122070312 2425.406494140625 -270.9254760742188 2427.702880859375 -272.0477905273438 C 2429.530517578125 -272.9411010742188 2431.486572265625 -273.39404296875 2433.5166015625 -273.39404296875 C 2435.35693359375 -273.39404296875 2437.136474609375 -273.042724609375 2438.805908203125 -272.349853515625 C 2440.436767578125 -271.6729125976562 2441.96533203125 -270.6674499511719 2443.348876953125 -269.3614501953125 C 2443.35009765625 -269.3601379394531 2443.3515625 -269.3588256835938 2443.35302734375 -269.3575439453125 C 2446.2509765625 -266.614013671875 2447.78271484375 -262.9908447265625 2447.78271484375 -258.8797607421875 C 2447.78271484375 -257.5602416992188 2447.603271484375 -256.2059020996094 2447.24951171875 -254.8543853759766 C 2447.248779296875 -254.8516540527344 2447.248046875 -254.8489074707031 2447.247314453125 -254.8461761474609 C 2446.847412109375 -253.3318786621094 2446.182861328125 -251.8710021972656 2445.272216796875 -250.504150390625 C 2445.255859375 -250.4797515869141 2445.239501953125 -250.45556640625 2445.22265625 -250.4315490722656 L 2420.37939453125 -214.8629913330078 L 2420.37939453125 -186.6362915039062 C 2420.37939453125 -182.6777954101562 2418.937744140625 -179.1436767578125 2416.2099609375 -176.416015625 C 2413.483642578125 -173.6885070800781 2410.078369140625 -172.2465209960938 2406.363037109375 -172.2465209960938 C 2402.48193359375 -172.2465209960938 2398.98974609375 -173.6892395019531 2396.263916015625 -176.4186706542969 C 2393.539306640625 -179.1407775878906 2392.09765625 -182.675048828125 2392.09765625 -186.6362915039062 L 2392.09765625 -216.4558715820312 L 2367.568115234375 -249.0490112304688 C 2366.294921875 -250.703369140625 2365.361572265625 -252.4098968505859 2364.79345703125 -254.1220245361328 C 2364.232177734375 -255.8019104003906 2363.94775390625 -257.4443969726562 2363.94775390625 -259.0042114257812 C 2363.94775390625 -261.1331176757812 2364.391845703125 -263.1428833007812 2365.267333984375 -264.9778442382812 C 2366.142578125 -266.811767578125 2367.42529296875 -268.4215087890625 2369.080078125 -269.7623901367188 C 2372.060546875 -272.1729125976562 2375.300048828125 -273.39404296875 2378.711669921875 -273.39404296875 Z" stroke="none" fill="#231815"/>
        </g>
      </g>
    </g>
    <g id="グループ_2376" data-name="グループ 2376" transform="translate(-822.553 940.598)">
      <g id="グループ_2406" data-name="グループ 2406" transform="translate(1428.795 -584.442)">
        <g id="グループ_2399" data-name="グループ 2399" transform="translate(0 0.165)">
          <path id="パス_7229" data-name="パス 7229" d="M1437.837-578.817v.421h5.565a.861.861,0,0,1,.805.952.86.86,0,0,1-.805.951h-5.693c-.439,3.661-1.958,5.912-4.466,7.469a1.294,1.294,0,0,1-.677.2,1.062,1.062,0,0,1-1.062-1.062,1.114,1.114,0,0,1,.586-.952,7.106,7.106,0,0,0,3.478-5.656h-5.985a.846.846,0,0,1-.787-.951.847.847,0,0,1,.787-.952h6.114a5.612,5.612,0,0,0,.019-.568v-2.105c-1.318.183-2.636.329-3.79.384a.991.991,0,0,1-1.08-1.006.954.954,0,0,1,.989-.97,40.276,40.276,0,0,0,8.8-1.538,1.256,1.256,0,0,1,.349-.055,1.057,1.057,0,0,1,1.043,1.062.962.962,0,0,1-.732.915,29.8,29.8,0,0,1-3.459.841Z" transform="translate(-1428.795 584.253)" fill="#fde94c"/>
        </g>
        <g id="グループ_2400" data-name="グループ 2400" transform="translate(26.985 4.082)">
          <path id="パス_7230" data-name="パス 7230" d="M1467.547-577.362c0-.531-.2-.659-.933-.659h-5.894a.8.8,0,0,1-.787-.879.8.8,0,0,1,.787-.86H1467c1.7,0,2.38.677,2.38,2.014v6.717c0,1.391-.677,2.05-2.38,2.05h-6.461a.8.8,0,0,1-.787-.86.788.788,0,0,1,.787-.86h6.077c.731,0,.933-.146.933-.659v-2.361h-6.15a.8.8,0,0,1-.787-.86.787.787,0,0,1,.787-.86h6.15Z" transform="translate(-1459.749 579.76)" fill="#fde94c"/>
        </g>
        <g id="グループ_2401" data-name="グループ 2401" transform="translate(48.971)">
          <path id="パス_7231" data-name="パス 7231" d="M1491.248-577.651a32.311,32.311,0,0,1-4.63,3.075,1.24,1.24,0,0,1-.642.165,1.02,1.02,0,0,1-1.007-1.025,1.164,1.164,0,0,1,.7-1.025,28.155,28.155,0,0,0,8.895-7.5,1.147,1.147,0,0,1,.916-.476,1.092,1.092,0,0,1,1.116,1.025,1.123,1.123,0,0,1-.256.677,28.853,28.853,0,0,1-3.88,4.082.957.957,0,0,1,.952.952v8.035a.977.977,0,0,1-1.079.952.987.987,0,0,1-1.081-.952Z" transform="translate(-1484.969 584.442)" fill="#fde94c"/>
        </g>
        <g id="グループ_2402" data-name="グループ 2402" transform="translate(72.222 7.639)">
          <path id="パス_7232" data-name="パス 7232" d="M1517.021-575.679a.814.814,0,0,1,.824.879.814.814,0,0,1-.824.879h-4.558a.813.813,0,0,1-.823-.879.813.813,0,0,1,.823-.879Z" transform="translate(-1511.64 575.679)" fill="#fde94c"/>
        </g>
        <g id="グループ_2403" data-name="グループ 2403" transform="translate(89.467 1.573)">
          <path id="パス_7233" data-name="パス 7233" d="M1540.829-582.636c1.429-.037,2.161.586,2.161,1.574a3.04,3.04,0,0,1-.2.989,16.99,16.99,0,0,1-2.507,4.375,27.246,27.246,0,0,1,4.906,4.338,1.287,1.287,0,0,1,.348.824,1.167,1.167,0,0,1-1.172,1.1,1.14,1.14,0,0,1-.879-.439,28.183,28.183,0,0,0-4.5-4.3,21.156,21.156,0,0,1-5.967,4.539,1.187,1.187,0,0,1-.531.128,1.074,1.074,0,0,1-1.061-1.062,1.017,1.017,0,0,1,.622-.934,17.649,17.649,0,0,0,8.457-8.584.684.684,0,0,0,.073-.293c0-.165-.147-.238-.458-.238l-6.553.128a.922.922,0,0,1-.915-.988.941.941,0,0,1,.9-1.025Z" transform="translate(-1531.422 582.638)" fill="#fde94c"/>
        </g>
        <g id="グループ_2404" data-name="グループ 2404" transform="translate(115.298 1.044)">
          <path id="パス_7234" data-name="パス 7234" d="M1569.583-576.985a9.824,9.824,0,0,1-4.63,7.925,1.18,1.18,0,0,1-.568.165,1.087,1.087,0,0,1-1.042-1.08,1.029,1.029,0,0,1,.549-.9,7.531,7.531,0,0,0,3.57-6.113h-5.619c-.531,0-.787-.494-.787-.97,0-.494.256-.97.787-.97h13.087a.867.867,0,0,1,.806.97.877.877,0,0,1-.806.97Zm3.039-6.26a.884.884,0,0,1,.806.989.883.883,0,0,1-.806.988h-8.529c-.531,0-.788-.493-.788-.988s.257-.989.788-.989Z" transform="translate(-1561.053 583.245)" fill="#fde94c"/>
        </g>
        <g id="グループ_2405" data-name="グループ 2405" transform="translate(141.241)">
          <path id="パス_7235" data-name="パス 7235" d="M1597.089-577.651a32.206,32.206,0,0,1-4.631,3.075,1.24,1.24,0,0,1-.641.165,1.019,1.019,0,0,1-1.006-1.025,1.163,1.163,0,0,1,.7-1.025,28.185,28.185,0,0,0,8.9-7.5,1.144,1.144,0,0,1,.915-.476,1.092,1.092,0,0,1,1.117,1.025,1.123,1.123,0,0,1-.256.677,28.911,28.911,0,0,1-3.88,4.082.957.957,0,0,1,.952.952v8.035a.977.977,0,0,1-1.081.952.986.986,0,0,1-1.079-.952Z" transform="translate(-1590.811 584.442)" fill="#fde94c"/>
        </g>
      </g>
    </g>
  </g>
</svg>
