<svg xmlns="http://www.w3.org/2000/svg" xmlns:xlink="http://www.w3.org/1999/xlink" width="119" height="119" viewBox="0 0 119 119">
  <defs>
    <clipPath id="clip-path">
      <rect id="長方形_2505" data-name="長方形 2505" width="119" height="119" transform="translate(265.203 10.864)" fill="none" stroke="#707070" stroke-width="1"/>
    </clipPath>
  </defs>
  <g id="マスクグループ_75" data-name="マスクグループ 75" transform="translate(-265.203 -10.864)" clip-path="url(#clip-path)">
    <g id="グループ_3168" data-name="グループ 3168" transform="translate(240.038 -11.194)">
      <path id="パス_11901" data-name="パス 11901" d="M104.021,29.938A55.036,55.036,0,0,0,0,55.023,55.619,55.619,0,0,0,8.792,85.009a55.017,55.017,0,0,0,6.488,9.866,53.6,53.6,0,0,0,31.671,18.717c2.57.467,3.672,1.8,4.948,3.35s2.866,3.476,5.77,3.476,4.494-1.928,5.771-3.476,2.376-2.883,4.948-3.35a53.6,53.6,0,0,0,31.671-18.717,55.538,55.538,0,0,0,12.633-35.261A54.646,54.646,0,0,0,104.021,29.938Z" transform="translate(89.488 0) rotate(48)"/>
      <path id="パス_11902" data-name="パス 11902" d="M52.144,0A52.144,52.144,0,0,0,0,52.145c0,25.306,17.953,46.79,41.94,51.146,6.479,1.177,6.712,6.78,10.2,6.78s3.725-5.6,10.2-6.78c23.987-4.356,41.941-25.84,41.941-51.146A52.144,52.144,0,0,0,52.144,0Z" transform="translate(89.275 4.064) rotate(48)" fill="#fde94c"/>
      <path id="パス_11903" data-name="パス 11903" d="M3.345,0a.949.949,0,0,1-.69-.262.873.873,0,0,1-.27-.653v-7.56l.21.33-1.14.69a.918.918,0,0,1-.48.135A.819.819,0,0,1,.33-7.612a.934.934,0,0,1-.255-.623.854.854,0,0,1,.465-.78l2.265-1.35A1.37,1.37,0,0,1,3.45-10.5a.837.837,0,0,1,.638.262.914.914,0,0,1,.247.653v8.67a.862.862,0,0,1-.278.653A1,1,0,0,1,3.345,0ZM7.938.952c.728-1.344,1.5-2.94,2.114-4.41L8.778-4.48A43.31,43.31,0,0,1,6.5-.07ZM9.422-6.454A10.837,10.837,0,0,0,6.888-7.84l-.91,1.218A10.805,10.805,0,0,1,8.484-5.1ZM6.8-10.472A9.924,9.924,0,0,1,9.282-8.9l.994-1.316a9.554,9.554,0,0,0-2.534-1.456ZM12.222-1.05V-3.724H16.6V-1.05ZM16.6-7.8v2.534H12.222V-7.8Zm-1.96-1.6c.224-.686.462-1.456.658-2.226l-1.96-.2a17.846,17.846,0,0,1-.406,2.422H10.584V1.218h1.638V.56H16.6v.546h1.708v-10.5ZM26.21-1.65a.814.814,0,0,1,.6.24.814.814,0,0,1,.24.6.772.772,0,0,1-.24.578.828.828,0,0,1-.6.233h-5.1a.8.8,0,0,1-.615-.24.863.863,0,0,1-.225-.615.931.931,0,0,1,.27-.66L23.81-5.01A5.972,5.972,0,0,0,24.68-6.2a2.393,2.393,0,0,0,.33-1.132,1.6,1.6,0,0,0-.225-.84,1.769,1.769,0,0,0-.585-.6A1.444,1.444,0,0,0,23.42-9a1.62,1.62,0,0,0-.885.292,2.983,2.983,0,0,0-.8.773.8.8,0,0,1-.36.3,1.051,1.051,0,0,1-.33.06.894.894,0,0,1-.608-.247.753.753,0,0,1-.278-.577.838.838,0,0,1,.173-.495,4.06,4.06,0,0,1,.427-.495,4.523,4.523,0,0,1,1.32-.915,3.443,3.443,0,0,1,1.44-.345,3.48,3.48,0,0,1,1.755.42,2.944,2.944,0,0,1,1.14,1.155,3.392,3.392,0,0,1,.405,1.665,3.805,3.805,0,0,1-.233,1.283,5.907,5.907,0,0,1-.638,1.267,9.3,9.3,0,0,1-.93,1.185L23-1.515l-.165-.135Zm5.182.11V-4.676h6.216V-1.54Zm6.216-7.8v3.01H31.392v-3.01Zm-7.938-1.68V1.05h1.722V.14h6.216v.882H39.4v-12.04ZM48.9-5.2l-.74.31a7.716,7.716,0,0,1,.78,1.39l.76-.34A13.106,13.106,0,0,0,48.9-5.2Zm1.12-.46-.73.34a8.8,8.8,0,0,1,.82,1.35l.75-.36A14.958,14.958,0,0,0,50.02-5.66ZM42.23-6.84l.13,1.36c1.15-.25,3.23-.47,4.09-.56a3.927,3.927,0,0,0-1.46,3.05c0,2.15,1.96,3.27,4.04,3.4l.46-1.37c-1.68-.08-3.2-.67-3.2-2.3a3.006,3.006,0,0,1,2.09-2.77,10.226,10.226,0,0,1,1.91-.13l-.01-1.28c-.7.03-1.78.09-2.8.17-1.81.16-3.45.31-4.28.38C43.01-6.87,42.63-6.85,42.23-6.84Zm15.8,2.75a2.749,2.749,0,0,1,1.02,1.92c0,.82-.76,1.45-2.14,1.45-.98,0-1.48-.45-1.48-1.26,0-.18.02-.43.04-.72h.4c.61,0,1.19-.04,1.75-.09l.03-1.18a19.644,19.644,0,0,1-1.99.12h-.07c.05-.44.11-.91.17-1.35a17.746,17.746,0,0,0,1.93-.09l.04-1.18a14.534,14.534,0,0,1-1.82.12c.05-.32.08-.58.11-.75.04-.26.09-.52.17-.88L54.8-8.06a6.237,6.237,0,0,1-.02.88c-.02.22-.04.49-.08.79a9.179,9.179,0,0,1-2.03-.37L52.6-5.61a12.378,12.378,0,0,0,1.97.35c-.06.45-.11.91-.17,1.35a8.43,8.43,0,0,1-1.95-.39l-.07,1.2a11.1,11.1,0,0,0,1.9.33c-.04.41-.07.76-.07,1,0,1.65,1.1,2.33,2.66,2.33,2.17,0,3.51-1.08,3.51-2.57a3.684,3.684,0,0,0-.96-2.38Zm7.96,1.52h1.03l.35-3.42.05-1.49H65.59l.04,1.49ZM66.5.09a.978.978,0,0,0,1.04-.98.992.992,0,0,0-1.04-.99.992.992,0,0,0-1.04.99A.978.978,0,0,0,66.5.09ZM11.089,8.744a4.2,4.2,0,0,1-1.209.143H2.665A12.482,12.482,0,0,1,1.17,8.77v1.82c.273-.026.975-.091,1.495-.091H9.542a14.428,14.428,0,0,1-3.3,3.744c-.819-.715-1.677-1.417-2.2-1.807L2.665,13.541a27.653,27.653,0,0,1,2.86,2.5,36.121,36.121,0,0,1,2.483,2.808l1.521-1.209c-.507-.611-1.274-1.456-2.015-2.2a21.659,21.659,0,0,0,4.433-5.083,3.539,3.539,0,0,1,.442-.546Zm5.044-.624-1.222,1.3a27.03,27.03,0,0,1,3.25,2.808l1.326-1.365A27.3,27.3,0,0,0,16.133,8.12Zm-1.625,8.658L15.6,18.494a14.079,14.079,0,0,0,4.823-1.833,13.824,13.824,0,0,0,4.81-4.81l-1.014-1.833a12.327,12.327,0,0,1-4.732,5.057A13.4,13.4,0,0,1,14.508,16.778ZM35.516,8.393a4.693,4.693,0,0,1-1.352.169H29.588a14.524,14.524,0,0,1-1.534-.091v1.846c.273-.013.988-.091,1.534-.091h4.407a10.073,10.073,0,0,1-1.937,3.185,14.728,14.728,0,0,1-5.33,3.731l1.339,1.4a17.124,17.124,0,0,0,4.888-3.653,29.645,29.645,0,0,1,3.276,3.679l1.482-1.287a36.545,36.545,0,0,0-3.627-3.718,19.113,19.113,0,0,0,2.041-3.575,6.143,6.143,0,0,1,.455-.806Zm5.759-.364a8.841,8.841,0,0,1,.052.988V13.4c0,.39-.052.9-.065,1.144h1.924c-.026-.3-.039-.806-.039-1.131V9.017c0-.416.013-.7.039-.988Zm5.98-.117a9.171,9.171,0,0,1,.078,1.3v2.47c0,2.028-.169,3-1.053,3.978A6.084,6.084,0,0,1,43.1,17.3l1.365,1.43a7.552,7.552,0,0,0,3.159-1.885c.962-1.066,1.508-2.262,1.508-5.057V9.212c0-.52.026-.936.052-1.3Zm5.681,6.11c.481-.039,1.352-.065,2.093-.065H62.01c.546,0,1.209.052,1.521.065V11.981c-.338.026-.923.078-1.521.078H55.029c-.676,0-1.625-.039-2.093-.078ZM72.14,12.8l-.74.31a7.715,7.715,0,0,1,.78,1.39l.76-.34A13.105,13.105,0,0,0,72.14,12.8Zm1.12-.46-.73.34a8.8,8.8,0,0,1,.82,1.35l.75-.36A14.958,14.958,0,0,0,73.26,12.34Zm-7.79-1.18.13,1.36c1.15-.25,3.23-.47,4.09-.56a3.927,3.927,0,0,0-1.46,3.05c0,2.15,1.96,3.27,4.04,3.4l.46-1.37c-1.68-.08-3.2-.67-3.2-2.3a3.006,3.006,0,0,1,2.09-2.77,10.227,10.227,0,0,1,1.91-.13l-.01-1.28c-.7.03-1.78.09-2.8.17-1.81.16-3.45.31-4.28.38C66.25,11.13,65.87,11.15,65.47,11.16Zm15.8,2.75a2.749,2.749,0,0,1,1.02,1.92c0,.82-.76,1.45-2.14,1.45-.98,0-1.48-.45-1.48-1.26,0-.18.02-.43.04-.72h.4c.61,0,1.19-.04,1.75-.09l.03-1.18a19.644,19.644,0,0,1-1.99.12h-.07c.05-.44.11-.91.17-1.35a17.746,17.746,0,0,0,1.93-.09l.04-1.18a14.534,14.534,0,0,1-1.82.12c.05-.32.08-.58.11-.75.04-.26.09-.52.17-.88l-1.39-.08a6.237,6.237,0,0,1-.02.88c-.02.22-.04.49-.08.79a9.179,9.179,0,0,1-2.03-.37l-.07,1.15a12.378,12.378,0,0,0,1.97.35c-.06.45-.11.91-.17,1.35a8.43,8.43,0,0,1-1.95-.39l-.07,1.2a11.1,11.1,0,0,0,1.9.33c-.04.41-.07.76-.07,1,0,1.65,1.1,2.33,2.66,2.33,2.17,0,3.51-1.08,3.51-2.57a3.684,3.684,0,0,0-.96-2.38Zm7.96,1.52h1.03l.35-3.42.05-1.49H88.83l.04,1.49Zm.51,2.66a.978.978,0,0,0,1.04-.98,1.041,1.041,0,0,0-2.08,0A.978.978,0,0,0,89.74,18.09Z" transform="translate(40.165 75.059)"/>
    </g>
  </g>
</svg>
