<svg xmlns="http://www.w3.org/2000/svg" xmlns:xlink="http://www.w3.org/1999/xlink" width="188" height="188" viewBox="0 0 188 188">
  <defs>
    <clipPath id="clip-path">
      <rect id="長方形_2507" data-name="長方形 2507" width="188" height="188" transform="translate(353 -391)" fill="#fff"/>
    </clipPath>
  </defs>
  <g id="マスクグループ_77" data-name="マスクグループ 77" transform="translate(-353 391)" clip-path="url(#clip-path)">
    <g id="グループ_3173" data-name="グループ 3173" transform="translate(-676 -447)">
      <g id="グループ_3172" data-name="グループ 3172" transform="translate(1132.557 24.104) rotate(48)">
        <path id="パス_11907" data-name="パス 11907" d="M162.964,46.9A86.222,86.222,0,0,0,0,86.2,87.135,87.135,0,0,0,13.774,133.18a86.192,86.192,0,0,0,10.164,15.457,83.967,83.967,0,0,0,49.617,29.323c4.027.731,5.753,2.825,7.751,5.248s4.49,5.445,9.04,5.445,7.041-3.02,9.042-5.445,3.723-4.517,7.751-5.248a83.974,83.974,0,0,0,49.617-29.323A87.009,87.009,0,0,0,176.548,93.4,85.611,85.611,0,0,0,162.964,46.9Z" transform="translate(0 0)"/>
        <path id="パス_11908" data-name="パス 11908" d="M81.692,0A81.692,81.692,0,0,0,0,81.693c0,39.646,28.126,73.3,65.706,80.128,10.151,1.843,10.515,10.622,15.986,10.622s5.836-8.779,15.986-10.622c37.58-6.824,65.707-40.482,65.707-80.128A81.692,81.692,0,0,0,81.692,0Z" transform="translate(4.508 4.508)" fill="#fde94c"/>
      </g>
      <path id="パス_11909" data-name="パス 11909" d="M-53.474,0a1.392,1.392,0,0,1-1.012-.385,1.281,1.281,0,0,1-.4-.957V-12.43l.308.484-1.672,1.012a1.346,1.346,0,0,1-.7.2,1.2,1.2,0,0,1-.946-.429,1.37,1.37,0,0,1-.374-.913,1.253,1.253,0,0,1,.682-1.144l3.322-1.98a2.01,2.01,0,0,1,.946-.2,1.228,1.228,0,0,1,.935.385,1.341,1.341,0,0,1,.363.957V-1.342a1.264,1.264,0,0,1-.407.957A1.459,1.459,0,0,1-53.474,0Zm7.608,1.224c.936-1.728,1.926-3.78,2.718-5.67L-44.786-5.76A55.684,55.684,0,0,1-47.72-.09ZM-43.958-8.3a13.933,13.933,0,0,0-3.258-1.782l-1.17,1.566a13.893,13.893,0,0,1,3.222,1.962Zm-3.366-5.166a12.759,12.759,0,0,1,3.186,2.016l1.278-1.692a12.283,12.283,0,0,0-3.258-1.872ZM-40.358-1.35V-4.788h5.634V-1.35Zm5.634-8.676v3.258h-5.634v-3.258Zm-2.52-2.052c.288-.882.594-1.872.846-2.862l-2.52-.252a22.946,22.946,0,0,1-.522,3.114h-3.024V1.566h2.106V.72h5.634v.7h2.2v-13.5ZM-20.072-2.42a1.194,1.194,0,0,1,.88.352,1.194,1.194,0,0,1,.352.88,1.132,1.132,0,0,1-.352.847,1.214,1.214,0,0,1-.88.341h-7.48a1.176,1.176,0,0,1-.9-.352,1.266,1.266,0,0,1-.33-.9,1.365,1.365,0,0,1,.4-.968l4.8-5.126A8.758,8.758,0,0,0-22.316-9.1a3.51,3.51,0,0,0,.484-1.661,2.348,2.348,0,0,0-.33-1.232,2.594,2.594,0,0,0-.858-.88,2.118,2.118,0,0,0-1.144-.33,2.376,2.376,0,0,0-1.3.429,4.375,4.375,0,0,0-1.166,1.133,1.173,1.173,0,0,1-.528.44,1.542,1.542,0,0,1-.484.088,1.312,1.312,0,0,1-.891-.363,1.1,1.1,0,0,1-.407-.847,1.23,1.23,0,0,1,.253-.726,5.955,5.955,0,0,1,.627-.726,6.633,6.633,0,0,1,1.936-1.342,5.049,5.049,0,0,1,2.112-.506A5.1,5.1,0,0,1-21.436-15a4.318,4.318,0,0,1,1.672,1.694,4.975,4.975,0,0,1,.594,2.442,5.581,5.581,0,0,1-.341,1.881,8.664,8.664,0,0,1-.935,1.859A13.639,13.639,0,0,1-21.81-5.39l-2.97,3.168-.242-.2Zm8.216.44V-6.012h7.992V-1.98Zm7.992-10.026v3.87h-7.992v-3.87Zm-10.206-2.16V1.35h2.214V.18h7.992V1.314h2.3v-15.48ZM15.54-9.36,14.208-8.8a13.888,13.888,0,0,1,1.4,2.5l1.368-.612A23.59,23.59,0,0,0,15.54-9.36Zm2.016-.828-1.314.612a15.835,15.835,0,0,1,1.476,2.43l1.35-.648A26.924,26.924,0,0,0,17.556-10.188ZM3.534-12.312l.234,2.448c2.07-.45,5.814-.846,7.362-1.008A7.068,7.068,0,0,0,8.5-5.382C8.5-1.512,12.03.5,15.774.738L16.6-1.728c-3.024-.144-5.76-1.206-5.76-4.14A5.411,5.411,0,0,1,14.6-10.854a18.408,18.408,0,0,1,3.438-.234l-.018-2.3c-1.26.054-3.2.162-5.04.306-3.258.288-6.21.558-7.7.684C4.938-12.366,4.254-12.33,3.534-12.312Zm29.52,4.95A4.948,4.948,0,0,1,34.89-3.906c0,1.476-1.368,2.61-3.852,2.61-1.764,0-2.664-.81-2.664-2.268,0-.324.036-.774.072-1.3h.72c1.1,0,2.142-.072,3.15-.162l.054-2.124a35.36,35.36,0,0,1-3.582.216h-.126c.09-.792.2-1.638.306-2.43a31.944,31.944,0,0,0,3.474-.162l.072-2.124a26.161,26.161,0,0,1-3.276.216c.09-.576.144-1.044.2-1.35.072-.468.162-.936.306-1.584l-2.5-.144a11.227,11.227,0,0,1-.036,1.584c-.036.4-.072.882-.144,1.422a16.523,16.523,0,0,1-3.654-.666L23.28-10.1a22.281,22.281,0,0,0,3.546.63c-.108.81-.2,1.638-.306,2.43a15.174,15.174,0,0,1-3.51-.7l-.126,2.16a19.989,19.989,0,0,0,3.42.594c-.072.738-.126,1.368-.126,1.8,0,2.97,1.98,4.194,4.788,4.194,3.906,0,6.318-1.944,6.318-4.626A6.631,6.631,0,0,0,35.556-7.9ZM48.462-4.626h1.854l.63-6.156.09-2.682H47.742l.072,2.682ZM49.38.162A1.761,1.761,0,0,0,51.252-1.6,1.786,1.786,0,0,0,49.38-3.384,1.786,1.786,0,0,0,47.508-1.6,1.761,1.761,0,0,0,49.38.162ZM-59.706,15.184a5.814,5.814,0,0,1-1.674.2h-9.99a17.283,17.283,0,0,1-2.07-.162v2.52c.378-.036,1.35-.126,2.07-.126h9.522A19.978,19.978,0,0,1-66.42,22.8c-1.134-.99-2.322-1.962-3.042-2.5l-1.908,1.53a38.289,38.289,0,0,1,3.96,3.456,50.014,50.014,0,0,1,3.438,3.888l2.106-1.674c-.7-.846-1.764-2.016-2.79-3.042a29.989,29.989,0,0,0,6.138-7.038,4.9,4.9,0,0,1,.612-.756Zm8.064-.864-1.692,1.8a37.426,37.426,0,0,1,4.5,3.888L-47,18.118A37.8,37.8,0,0,0-51.642,14.32Zm-2.25,11.988,1.512,2.376A19.493,19.493,0,0,0-45.7,26.146a19.14,19.14,0,0,0,6.66-6.66l-1.4-2.538a17.068,17.068,0,0,1-6.552,7A18.552,18.552,0,0,1-53.892,26.308ZM-23.724,14.7a6.5,6.5,0,0,1-1.872.234h-6.336a20.11,20.11,0,0,1-2.124-.126v2.556c.378-.018,1.368-.126,2.124-.126h6.1a13.947,13.947,0,0,1-2.682,4.41,20.393,20.393,0,0,1-7.38,5.166l1.854,1.944A23.71,23.71,0,0,0-27.27,23.7a41.047,41.047,0,0,1,4.536,5.094l2.052-1.782A50.6,50.6,0,0,0-25.7,21.862a26.464,26.464,0,0,0,2.826-4.95,8.505,8.505,0,0,1,.63-1.116Zm9.054-.5a12.242,12.242,0,0,1,.072,1.368v6.066c0,.54-.072,1.242-.09,1.584h2.664c-.036-.414-.054-1.116-.054-1.566V15.562c0-.576.018-.972.054-1.368Zm8.28-.162a12.7,12.7,0,0,1,.108,1.8v3.42c0,2.808-.234,4.158-1.458,5.508a8.424,8.424,0,0,1-4.41,2.268l1.89,1.98A10.457,10.457,0,0,0-5.886,26.4c1.332-1.476,2.088-3.132,2.088-7V15.832c0-.72.036-1.3.072-1.8Zm8.946,8.46c.666-.054,1.872-.09,2.9-.09H15.12c.756,0,1.674.072,2.106.09V19.666c-.468.036-1.278.108-2.106.108H5.454c-.936,0-2.25-.054-2.9-.108ZM32.22,18.64l-1.332.558a13.888,13.888,0,0,1,1.4,2.5l1.368-.612A23.591,23.591,0,0,0,32.22,18.64Zm2.016-.828-1.314.612a15.835,15.835,0,0,1,1.476,2.43l1.35-.648A26.924,26.924,0,0,0,34.236,17.812ZM20.214,15.688l.234,2.448c2.07-.45,5.814-.846,7.362-1.008a7.068,7.068,0,0,0-2.628,5.49c0,3.87,3.528,5.886,7.272,6.12l.828-2.466c-3.024-.144-5.76-1.206-5.76-4.14a5.411,5.411,0,0,1,3.762-4.986,18.408,18.408,0,0,1,3.438-.234l-.018-2.3c-1.26.054-3.2.162-5.04.306-3.258.288-6.21.558-7.7.684C21.618,15.634,20.934,15.67,20.214,15.688Zm29.52,4.95a4.948,4.948,0,0,1,1.836,3.456c0,1.476-1.368,2.61-3.852,2.61-1.764,0-2.664-.81-2.664-2.268,0-.324.036-.774.072-1.3h.72c1.1,0,2.142-.072,3.15-.162l.054-2.124a35.36,35.36,0,0,1-3.582.216h-.126c.09-.792.2-1.638.306-2.43a31.943,31.943,0,0,0,3.474-.162l.072-2.124a26.161,26.161,0,0,1-3.276.216c.09-.576.144-1.044.2-1.35.072-.468.162-.936.306-1.584l-2.5-.144a11.228,11.228,0,0,1-.036,1.584c-.036.4-.072.882-.144,1.422a16.523,16.523,0,0,1-3.654-.666L39.96,17.9a22.281,22.281,0,0,0,3.546.63c-.108.81-.2,1.638-.306,2.43a15.174,15.174,0,0,1-3.51-.7l-.126,2.16a19.989,19.989,0,0,0,3.42.594c-.072.738-.126,1.368-.126,1.8,0,2.97,1.98,4.194,4.788,4.194,3.906,0,6.318-1.944,6.318-4.626A6.631,6.631,0,0,0,52.236,20.1Zm15.408,2.736H67l.63-6.156.09-2.682H64.422l.072,2.682Zm.918,4.788A1.761,1.761,0,0,0,67.932,26.4a1.874,1.874,0,0,0-3.744,0A1.761,1.761,0,0,0,66.06,28.162Z" transform="translate(1131 140)"/>
    </g>
  </g>
</svg>
