<svg xmlns="http://www.w3.org/2000/svg" width="160" height="160" viewBox="0 0 160 160">
  <g id="グループ_3182" data-name="グループ 3182" transform="translate(-603 -1545)">
    <circle id="楕円形_295" data-name="楕円形 295" cx="80" cy="80" r="80" transform="translate(603 1545)" fill="#00d392"/>
    <g id="グループ_2269" data-name="グループ 2269" transform="translate(-275.993 819.088)">
      <path id="パス_6928" data-name="パス 6928" d="M931.963,778.742a2.053,2.053,0,1,0-4.1-.033v12.715a1.127,1.127,0,0,1-1.128,1.128h-.3a1.127,1.127,0,0,1-1.128-1.128V778.663a2.119,2.119,0,0,0-4.238,0v12.761a1.127,1.127,0,0,1-1.128,1.128h-.3a1.126,1.126,0,0,1-1.128-1.128V778.709a2.053,2.053,0,1,0-4.1.033v12.272c-.022,5.174,1.214,6.519,3.257,8.131,1.645,1.3,3.051,2.042,3.051,5.263v32.815h4.944V804.408c0-3.221,1.4-3.965,3.048-5.264,2.042-1.612,3.278-2.956,3.259-8.131Z" transform="translate(0 0)" fill="#fff"/>
      <path id="パス_6929" data-name="パス 6929" d="M1469.135,779.781c-.9,2.994-3.589,12.834-4.263,18.893s2.467,8.074,4.487,11.441l1.115,2.8v24.4h4.944V779.781C1475.418,776.191,1470.482,775.294,1469.135,779.781Z" transform="translate(-472.383 -0.144)" fill="#fff"/>
      <path id="パス_6930" data-name="パス 6930" d="M1065.089,784.286a29.23,29.23,0,1,0,29.229,29.229A29.233,29.233,0,0,0,1065.089,784.286Zm17.005,46.234a24.047,24.047,0,1,1,7.043-17.005A23.964,23.964,0,0,1,1082.094,830.52Z" transform="translate(-104.244 -6.618)" fill="#fff"/>
      <path id="パス_6931" data-name="パス 6931" d="M1127.247,891.953a16.188,16.188,0,0,0,2.213,8.169l2.556-1.488a13.3,13.3,0,0,1,18.19-18.19l1.488-2.559a16.261,16.261,0,0,0-24.446,14.068Z" transform="translate(-182.682 -85.057)" fill="#fff"/>
    </g>
  </g>
</svg>
