<svg xmlns="http://www.w3.org/2000/svg" width="295" height="117.883" viewBox="0 0 295 117.883">
  <g id="グループ_3488" data-name="グループ 3488" transform="translate(-40 -1935.99)">
    <g id="パス_11893" data-name="パス 11893" transform="translate(-423.005 -131.389)" fill="#fde94c" stroke-linejoin="round">
      <path d="M 611.2763061523438 2179.708740234375 L 605.1221923828125 2170.078369140625 L 604.2374267578125 2168.69384765625 L 602.5942993164062 2168.69384765625 L 466.0054321289062 2168.69384765625 L 466.0064697265625 2070.37890625 L 755.0052490234375 2070.378662109375 L 755.00537109375 2168.69384765625 L 620.0167236328125 2168.69384765625 L 618.3819580078125 2168.69384765625 L 617.4957275390625 2170.067626953125 L 611.2763061523438 2179.708740234375 Z" stroke="none"/>
      <path d="M 611.2882690429688 2174.156005859375 L 614.974853515625 2168.44140625 C 616.0797119140625 2166.728515625 617.9785766601562 2165.69384765625 620.0167236328125 2165.69384765625 L 752.00537109375 2165.69384765625 L 752.0052490234375 2073.378662109375 L 469.0064086914062 2073.37890625 L 469.0054626464844 2165.69384765625 L 602.5942993164062 2165.69384765625 C 604.6416625976562 2165.69384765625 606.5476684570312 2166.73779296875 607.6500854492188 2168.462890625 L 611.2882690429688 2174.156005859375 M 611.264404296875 2185.26123046875 L 602.5942993164062 2171.69384765625 L 463.0054016113281 2171.69384765625 L 463.0064697265625 2067.37890625 L 758.0052490234375 2067.378662109375 L 758.00537109375 2171.69384765625 L 620.0167236328125 2171.69384765625 L 611.264404296875 2185.26123046875 Z" stroke="none" fill="#3b4043"/>
    </g>
    <path id="パス_14199" data-name="パス 14199" d="M-91.566-3.24c-.666,0-1.386-.882-1.386-2.682a5.589,5.589,0,0,1,4.518-5.166,28.612,28.612,0,0,1-.954,4.32C-90.108-4.356-90.828-3.24-91.566-3.24Zm4.9,3.978c4.5-.684,6.8-3.348,6.8-7.092a6.8,6.8,0,0,0-7.2-6.966,7.949,7.949,0,0,0-8.208,7.632C-95.274-2.682-93.6-.5-91.638-.5c1.944,0,3.492-2.2,4.554-5.8a38.738,38.738,0,0,0,1.062-4.842A4.412,4.412,0,0,1-82.3-6.426a4.826,4.826,0,0,1-4.05,4.77c-.468.108-.972.2-1.656.288ZM-72.018-1.6c-.468,0-1.3-.5-1.3-1.044,0-.63.72-1.368,1.818-1.926.036.936.054,1.746.054,2.2C-71.442-1.764-71.694-1.6-72.018-1.6ZM-69.48-8.01c0-.522,0-1.062.018-1.6a34.426,34.426,0,0,0,3.4-.558l-.054-2.232a24.411,24.411,0,0,1-3.276.666c.018-.45.036-.882.054-1.278.036-.45.108-1.224.144-1.548H-71.64A14.15,14.15,0,0,1-71.514-13c0,.306,0,.828-.018,1.458-.36.018-.7.036-1.026.036a19.528,19.528,0,0,1-2.466-.144l.036,2.16c.774.072,1.674.09,2.484.09.288,0,.612-.018.954-.036v1.494c0,.414,0,.828.018,1.242-2.178.954-4,2.556-4,4.122,0,1.89,2.466,3.384,4.212,3.384,1.152,0,1.962-.576,1.962-2.79,0-.612-.054-1.98-.09-3.4A12.654,12.654,0,0,1-66.1-5.868c1.548,0,2.628.7,2.628,1.908,0,1.3-1.152,2.034-2.592,2.286a13.627,13.627,0,0,1-2.2.126l.828,2.286A14.523,14.523,0,0,0-65.088.45c2.826-.7,3.924-2.286,3.924-4.392,0-2.448-2.16-3.906-4.9-3.906a14.509,14.509,0,0,0-3.42.468Zm4.392-2.88A27.078,27.078,0,0,1-60.8-8.3l1.08-1.836a39.377,39.377,0,0,0-4.374-2.5Zm14.742,4.968a1.331,1.331,0,0,1,1.368-1.4,1.271,1.271,0,0,1,1.17.63c.234,1.548-.432,2.106-1.17,2.106A1.325,1.325,0,0,1-50.346-5.922Zm9.5-6.462c-.936-.018-3.366,0-5.166,0,0-.216.018-.4.018-.54.018-.288.072-1.242.126-1.53h-2.592a12.061,12.061,0,0,1,.162,1.548,4.569,4.569,0,0,1,.018.54c-2.394.036-5.634.126-7.668.126l.054,2.16c2.2-.126,4.95-.234,7.65-.27l.018,1.188a4.277,4.277,0,0,0-.7-.054,3.357,3.357,0,0,0-3.564,3.33A3.14,3.14,0,0,0-49.41-2.61a3.849,3.849,0,0,0,.81-.09A8.148,8.148,0,0,1-52.956-.666l1.89,1.908c4.356-1.224,5.724-4.176,5.724-6.5a4.4,4.4,0,0,0-.666-2.466c0-.774,0-1.746-.018-2.646,2.412,0,4.086.036,5.166.09Zm9.936,6.462a1.331,1.331,0,0,1,1.368-1.4,1.271,1.271,0,0,1,1.17.63c.234,1.548-.432,2.106-1.17,2.106A1.325,1.325,0,0,1-30.906-5.922Zm9.5-6.462c-.936-.018-3.366,0-5.166,0,0-.216.018-.4.018-.54.018-.288.072-1.242.126-1.53h-2.592a12.061,12.061,0,0,1,.162,1.548,4.569,4.569,0,0,1,.018.54c-2.394.036-5.634.126-7.668.126l.054,2.16c2.2-.126,4.95-.234,7.65-.27l.018,1.188a4.277,4.277,0,0,0-.7-.054,3.357,3.357,0,0,0-3.564,3.33A3.14,3.14,0,0,0-29.97-2.61a3.849,3.849,0,0,0,.81-.09A8.148,8.148,0,0,1-33.516-.666l1.89,1.908C-27.27.018-25.9-2.934-25.9-5.256a4.4,4.4,0,0,0-.666-2.466c0-.774,0-1.746-.018-2.646,2.412,0,4.086.036,5.166.09Zm7.038,9.81c-.648,0-1.008-.558-1.008-1.422a5.44,5.44,0,0,1,1.3-3.348,19.619,19.619,0,0,0,1.656,3.42A2.914,2.914,0,0,1-14.364-2.574ZM-9.486-9.72A21.238,21.238,0,0,1-11.07-5.9,17.86,17.86,0,0,1-12.33-8.73,6.95,6.95,0,0,1-9.486-9.72Zm2.9-2.538c.108-.45.27-1.314.414-1.8l-2.466-.234A9.62,9.62,0,0,1-8.766-12.6c-.054.27-.108.558-.18.864a9.293,9.293,0,0,0-4.032,1.062c-.126-.378-.234-.756-.324-1.1-.144-.522-.288-1.116-.4-1.692l-2.34.72a13.113,13.113,0,0,1,.72,1.854c.144.486.306.972.468,1.44a7.819,7.819,0,0,0-2.628,5.634c0,2.3,1.368,3.564,2.844,3.564,1.314,0,2.3-.612,3.51-1.908.18.234.4.468.612.7L-8.73-2.88c-.324-.324-.648-.684-.972-1.062A21.7,21.7,0,0,0-7.29-9.612,3.819,3.819,0,0,1-4.41-5.688c0,2.232-1.53,4.23-5.454,4.572L-8.5.936C-4.77.378-2.07-1.782-2.07-5.562a5.874,5.874,0,0,0-4.68-6.012ZM15.66-14.472a.968.968,0,0,1,.972.972.983.983,0,0,1-.972.99.987.987,0,0,1-.99-.99A.972.972,0,0,1,15.66-14.472Zm0,3.06A2.074,2.074,0,0,0,17.73-13.5a2.059,2.059,0,0,0-2.07-2.07,2.074,2.074,0,0,0-2.088,2.07A2.09,2.09,0,0,0,15.66-11.412Zm-10.836,4A18.757,18.757,0,0,1,1.44-2.772L3.384-1.44A28.251,28.251,0,0,0,6.858-6.462Zm10.314-1.6c.486,0,1.188.018,1.746.054v-2.358a14.027,14.027,0,0,1-1.764.126H10.926v-1.44a14.592,14.592,0,0,1,.162-1.566H8.424a9.325,9.325,0,0,1,.162,1.566v1.44H4.014a13.983,13.983,0,0,1-1.746-.144v2.394c.5-.054,1.206-.072,1.746-.072H8.586V-9c0,.846,0,6.552-.018,7.218-.018.468-.2.648-.666.648a12.45,12.45,0,0,1-2-.216L6.12.882a25.99,25.99,0,0,0,2.934.162c1.278,0,1.872-.648,1.872-1.692v-8.37Zm-2.5,2.61a34.175,34.175,0,0,1,2.916,4.824l2.124-1.152A41.841,41.841,0,0,0,14.6-7.47ZM31.32-8.928a29.411,29.411,0,0,0,4.77-3.87l-1.926-1.746a19,19,0,0,1-4.7,4.068,27.653,27.653,0,0,1-8.19,3.258l1.3,2.2A35.193,35.193,0,0,0,28.764-7.47v5.9A20.159,20.159,0,0,1,28.638.792h2.844a12.375,12.375,0,0,1-.162-2.358ZM43.938-13.68l-1.692,1.8a37.426,37.426,0,0,1,4.5,3.888l1.836-1.89A37.8,37.8,0,0,0,43.938-13.68ZM41.688-1.692,43.2.684a19.493,19.493,0,0,0,6.678-2.538,19.14,19.14,0,0,0,6.66-6.66l-1.4-2.538a17.068,17.068,0,0,1-6.552,7A18.552,18.552,0,0,1,41.688-1.692ZM74.682-6.624a58.789,58.789,0,0,0-7.524-2.79V-12.06a19.576,19.576,0,0,1,.162-2.178H64.512a12.554,12.554,0,0,1,.18,2.178V-1.728a19.26,19.26,0,0,1-.18,2.5H67.32c-.072-.72-.162-1.98-.162-2.5V-6.822a51.99,51.99,0,0,1,6.5,2.682Zm11.88,2h1.854l.63-6.156.09-2.682H85.842l.072,2.682ZM87.48.162A1.761,1.761,0,0,0,89.352-1.6,1.786,1.786,0,0,0,87.48-3.384,1.786,1.786,0,0,0,85.608-1.6,1.761,1.761,0,0,0,87.48.162Z" transform="translate(189 2014)" fill="#333"/>
    <g id="グループ_2379" data-name="グループ 2379" transform="translate(100 1962.263)">
      <g id="グループ_2422" data-name="グループ 2422">
        <g id="グループ_2420" data-name="グループ 2420">
          <path id="パス_7271" data-name="パス 7271" d="M1490.764-1367.146a2.727,2.727,0,0,0-1.587.261l-.021.01a4.773,4.773,0,0,1-1.335.462,7.978,7.978,0,0,1-1.456.135,7.473,7.473,0,0,1-2.443-.387,5.065,5.065,0,0,1-1.889-1.151,5.415,5.415,0,0,1-1.261-1.956,7.912,7.912,0,0,1-.466-2.856,7.5,7.5,0,0,1,.414-2.551,5.5,5.5,0,0,1,1.186-1.945,5.292,5.292,0,0,1,1.885-1.259,6.918,6.918,0,0,1,2.573-.449,6.7,6.7,0,0,1,1.475.159,6.9,6.9,0,0,1,1.337.449,2.925,2.925,0,0,0,1.556.294,1.984,1.984,0,0,0,1.432-.834,2.465,2.465,0,0,0,.552-1.992,2.208,2.208,0,0,0-1.24-1.677,10.907,10.907,0,0,0-2.45-.9,11.518,11.518,0,0,0-2.661-.31,11.886,11.886,0,0,0-4.447.821,10.791,10.791,0,0,0-3.556,2.3,10.309,10.309,0,0,0-2.337,3.5,11.575,11.575,0,0,0-.822,4.391,12.182,12.182,0,0,0,.9,4.826,9.856,9.856,0,0,0,2.486,3.513,10.776,10.776,0,0,0,3.572,2.113,12.477,12.477,0,0,0,4.2.709,11.158,11.158,0,0,0,1.767-.14,12.527,12.527,0,0,0,1.709-.4,10.9,10.9,0,0,0,1.652-.663,2.2,2.2,0,0,0,1.247-1.581,2.42,2.42,0,0,0-.547-2.038A2.171,2.171,0,0,0,1490.764-1367.146Z" transform="translate(-1475.203 1383.789)" fill="#333"/>
          <path id="パス_7272" data-name="パス 7272" d="M1618.218-1382.861a2.48,2.48,0,0,0-1.727.684,2.323,2.323,0,0,0-.766,1.751v6.058h-8v-6.058a2.317,2.317,0,0,0-.745-1.745,2.4,2.4,0,0,0-1.69-.689,2.488,2.488,0,0,0-1.8.7,2.339,2.339,0,0,0-.723,1.739v16.869a2.39,2.39,0,0,0,.681,1.725,2.386,2.386,0,0,0,1.783.709,2.482,2.482,0,0,0,1.728-.684,2.323,2.323,0,0,0,.765-1.751v-6.146h8v6.146a2.312,2.312,0,0,0,.745,1.745,2.394,2.394,0,0,0,1.69.69,2.474,2.474,0,0,0,1.82-.7,2.364,2.364,0,0,0,.7-1.732v-16.869a2.393,2.393,0,0,0-.682-1.726A2.386,2.386,0,0,0,1618.218-1382.861Z" transform="translate(-1578.922 1383.153)" fill="#333"/>
          <path id="パス_7273" data-name="パス 7273" d="M1739.44-1381.133a10.216,10.216,0,0,0-3.366-2.416,10.33,10.33,0,0,0-4.251-.875,10.228,10.228,0,0,0-4.239.875,10.25,10.25,0,0,0-3.349,2.415,11.1,11.1,0,0,0-2.187,3.55,11.987,11.987,0,0,0-.773,4.321,11.984,11.984,0,0,0,.773,4.321,11.1,11.1,0,0,0,2.187,3.55,10.248,10.248,0,0,0,3.35,2.415,10.226,10.226,0,0,0,4.239.875,10.328,10.328,0,0,0,4.251-.874,10.213,10.213,0,0,0,3.366-2.416,11.106,11.106,0,0,0,2.186-3.55,11.985,11.985,0,0,0,.773-4.321,11.989,11.989,0,0,0-.773-4.321A11.11,11.11,0,0,0,1739.44-1381.133Zm-7.618,14.221a4.832,4.832,0,0,1-2.813-.821,5.715,5.715,0,0,1-1.925-2.27,7.386,7.386,0,0,1-.708-3.26,7.363,7.363,0,0,1,.707-3.273,5.74,5.74,0,0,1,1.926-2.257,4.834,4.834,0,0,1,2.813-.82,4.835,4.835,0,0,1,2.813.82,5.84,5.84,0,0,1,1.942,2.274,7.271,7.271,0,0,1,.72,3.256,7.266,7.266,0,0,1-.72,3.256,5.832,5.832,0,0,1-1.942,2.274A4.834,4.834,0,0,1,1731.822-1366.912Z" transform="translate(-1675.278 1384.423)" fill="#333"/>
          <path id="パス_7274" data-name="パス 7274" d="M1865.714-1382.861a2.489,2.489,0,0,0-1.8.7,2.339,2.339,0,0,0-.724,1.739v16.869a2.39,2.39,0,0,0,.681,1.725,2.386,2.386,0,0,0,1.783.709,2.48,2.48,0,0,0,1.727-.684,2.322,2.322,0,0,0,.766-1.751v-16.869a2.318,2.318,0,0,0-.745-1.745A2.4,2.4,0,0,0,1865.714-1382.861Z" transform="translate(-1790.668 1383.153)" fill="#333"/>
          <path id="パス_7275" data-name="パス 7275" d="M1932.243-1335.712h-5.078a2.42,2.42,0,0,0-1.718.66,2.266,2.266,0,0,0-.716,1.716,2.313,2.313,0,0,0,.708,1.724,2.389,2.389,0,0,0,1.726.682h5.078a2.423,2.423,0,0,0,1.719-.66,2.263,2.263,0,0,0,.716-1.687,2.364,2.364,0,0,0-.7-1.732A2.365,2.365,0,0,0,1932.243-1335.712Z" transform="translate(-1840.703 1344.817)" fill="#333"/>
          <path id="パス_7276" data-name="パス 7276" d="M2020.473-1373.617a7.884,7.884,0,0,0-2.4-1.23,24.1,24.1,0,0,0-3.158-.78,16.435,16.435,0,0,1-2.216-.574,2.846,2.846,0,0,1-1.2-.724,1.439,1.439,0,0,1-.344-1.008,1.366,1.366,0,0,1,.3-.879,2.278,2.278,0,0,1,1.014-.668,5.487,5.487,0,0,1,1.887-.28,5.406,5.406,0,0,1,1.456.224,10.677,10.677,0,0,1,1.567.577,4.68,4.68,0,0,1,1.1.672l.038.031a1.927,1.927,0,0,0,1.181.394,2.223,2.223,0,0,0,1.643-.73,2.305,2.305,0,0,0,.674-1.616,2.573,2.573,0,0,0-1.084-2.052,8.881,8.881,0,0,0-2.841-1.557,11.23,11.23,0,0,0-3.734-.606,10.074,10.074,0,0,0-3.931.752,6.791,6.791,0,0,0-2.916,2.261,6.016,6.016,0,0,0-1.1,3.625,6.64,6.64,0,0,0,.457,2.508,5.512,5.512,0,0,0,1.373,1.985,7.115,7.115,0,0,0,2.2,1.353,12.963,12.963,0,0,0,2.926.756,11.815,11.815,0,0,1,2.6.618,3.383,3.383,0,0,1,1.348.853,1.562,1.562,0,0,1,.368,1.063,1.158,1.158,0,0,1-.369.842,3.262,3.262,0,0,1-1.219.748,5.037,5.037,0,0,1-1.757.295,6.278,6.278,0,0,1-2.443-.415,8.671,8.671,0,0,1-2.052-1.281,2.191,2.191,0,0,0-1.4-.494,2.263,2.263,0,0,0-1.687.716,2.314,2.314,0,0,0-.659,1.631,2.462,2.462,0,0,0,.273,1.109,2.943,2.943,0,0,0,.741.933,9.489,9.489,0,0,0,3.356,1.924,13.023,13.023,0,0,0,3.872.541,9.993,9.993,0,0,0,3.949-.782,7.4,7.4,0,0,0,3.02-2.3,5.882,5.882,0,0,0,1.186-3.667,7.158,7.158,0,0,0-.489-2.779A4.922,4.922,0,0,0,2020.473-1373.617Z" transform="translate(-1906.845 1384.423)" fill="#333"/>
          <path id="パス_7277" data-name="パス 7277" d="M2127.954-1382.861H2115a2.488,2.488,0,0,0-1.7.617,2.2,2.2,0,0,0-.731,1.7,2.245,2.245,0,0,0,.723,1.708,2.452,2.452,0,0,0,1.711.639h3.928v14.639a2.337,2.337,0,0,0,.723,1.739,2.486,2.486,0,0,0,1.8.7,2.577,2.577,0,0,0,1.835-.689,2.314,2.314,0,0,0,.745-1.745V-1378.2h3.928a2.487,2.487,0,0,0,1.7-.617,2.2,2.2,0,0,0,.731-1.7,2.248,2.248,0,0,0-.724-1.709A2.455,2.455,0,0,0,2127.954-1382.861Z" transform="translate(-1993.425 1383.153)" fill="#333"/>
          <path id="パス_7278" data-name="パス 7278" d="M2230.891-1381.945a2.371,2.371,0,0,0-.9-1.162,2.357,2.357,0,0,0-1.31-.419,2.177,2.177,0,0,0-1.433.373,2.549,2.549,0,0,0-.956,1.2l-7.268,17.453-.023.064a2.6,2.6,0,0,0-.115.742,2.234,2.234,0,0,0,.539,1.508,2.087,2.087,0,0,0,1.662.664,2.181,2.181,0,0,0,1.3-.431,2.441,2.441,0,0,0,.852-1.148l1.339-3.148h7.839l1.343,3.131a2.733,2.733,0,0,0,.865,1.143,2.175,2.175,0,0,0,1.344.455,2.274,2.274,0,0,0,1.565-.638,2.283,2.283,0,0,0,.723-1.738,2.621,2.621,0,0,0-.189-.935Zm-4.325,11.027,1.918-4.511,1.936,4.511Z" transform="translate(-2079.877 1383.701)" fill="#333"/>
          <path id="パス_7279" data-name="パス 7279" d="M2345.363-1382.641a2.362,2.362,0,0,0-1.66-.689,2.4,2.4,0,0,0-2,1.161l-4.286,6.271-4.6-6.353a2.4,2.4,0,0,0-1.954-1.079,2.626,2.626,0,0,0-1.667.642,2.238,2.238,0,0,0-.855,1.793,2.7,2.7,0,0,0,.15.848,3.154,3.154,0,0,0,.507.917l5.939,7.891v7.3a2.362,2.362,0,0,0,.7,1.732,2.329,2.329,0,0,0,1.7.7,2.263,2.263,0,0,0,1.644-.7,2.364,2.364,0,0,0,.7-1.732v-6.909l5.99-8.576a2.447,2.447,0,0,0,.336-.737,2.776,2.776,0,0,0,.095-.706A2.349,2.349,0,0,0,2345.363-1382.641Z" transform="translate(-2168.869 1383.534)" fill="#333"/>
        </g>
      </g>
    </g>
  </g>
</svg>
