<svg xmlns="http://www.w3.org/2000/svg" width="160" height="160" viewBox="0 0 160 160">
  <g id="グループ_3183" data-name="グループ 3183" transform="translate(-895 -1546)">
    <circle id="楕円形_294" data-name="楕円形 294" cx="80" cy="80" r="80" transform="translate(895 1546)" fill="#00d392"/>
    <g id="グループ_2263" data-name="グループ 2263" transform="translate(-785.408 910.609)">
      <path id="パス_6894" data-name="パス 6894" d="M1931.848,745.445v.034l1.268-1.1.812-.68v8.18h1.868v-10.21h-1.868l-2.08,1.8v1.2l-.017.794Z" transform="translate(-178.683 -56.309)" fill="#fff"/>
      <path id="パス_6895" data-name="パス 6895" d="M1986.014,749.776h-2.394l-1.54-.016,2.84-3.3c.165-.2.329-.387.458-.563a3.611,3.611,0,0,0,.352-.54,3.683,3.683,0,0,0,.211-.565,2.909,2.909,0,0,0,.071-.669,3.273,3.273,0,0,0-.235-1.246,2.63,2.63,0,0,0-.634-.928,2.776,2.776,0,0,0-.988-.588,3.553,3.553,0,0,0-1.245-.212,3.834,3.834,0,0,0-1.234.2,2.98,2.98,0,0,0-.987.588,2.667,2.667,0,0,0-.658.94,3.029,3.029,0,0,0-.229,1.178c0,.019-.005.035-.007.055h0c0,.009,0,.016,0,.026h1.869a1.6,1.6,0,0,1,.106-.623,1.01,1.01,0,0,1,.282-.4,1.118,1.118,0,0,1,.4-.224,2.049,2.049,0,0,1,.458-.059,1.166,1.166,0,0,1,.916.353,1.327,1.327,0,0,1,.318.928,1.469,1.469,0,0,1-.13.622,2.216,2.216,0,0,1-.4.611l-3.819,4.429v1.681h6.216v-1.681Z" transform="translate(-219.032 -55.872)" fill="#fff"/>
      <path id="パス_6896" data-name="パス 6896" d="M2121.768,898.771a2.65,2.65,0,0,0-.669.916,3.053,3.053,0,0,0-.259,1.121c0,.025-.009.05-.012.076h0c0,.009,0,.017,0,.025h1.869a1.256,1.256,0,0,1,.375-.9,1.226,1.226,0,0,1,.881-.329,1.321,1.321,0,0,1,.882.329,1.256,1.256,0,0,1,.376.975,1.418,1.418,0,0,1-.305.917,1.2,1.2,0,0,1-.987.365h-.271v1.6h0v.025h.271a1.3,1.3,0,0,1,1.433,1.41,1.393,1.393,0,0,1-.387,1.057,1.419,1.419,0,0,1-.987.365,1.91,1.91,0,0,1-.529-.082,1,1,0,0,1-.434-.247,1.21,1.21,0,0,1-.306-.411,1.747,1.747,0,0,1-.129-.6h-1.868a3.221,3.221,0,0,0,.293,1.375,2.588,2.588,0,0,0,.729.928,2.944,2.944,0,0,0,1.022.541,4.22,4.22,0,0,0,1.222.176,4.312,4.312,0,0,0,1.246-.188,2.961,2.961,0,0,0,1.033-.576,2.647,2.647,0,0,0,.706-.951,3.31,3.31,0,0,0,.258-1.328,2.577,2.577,0,0,0-.387-1.492,2.657,2.657,0,0,0-.774-.72c-.053-.039-.1-.084-.158-.121a2.205,2.205,0,0,0,1.178-2.1,2.937,2.937,0,0,0-.235-1.174,2.577,2.577,0,0,0-.646-.928,3,3,0,0,0-.987-.6,3.372,3.372,0,0,0-1.258-.223,3.724,3.724,0,0,0-1.21.2A2.955,2.955,0,0,0,2121.768,898.771Z" transform="translate(-337.564 -187.804)" fill="#fff"/>
      <path id="パス_6897" data-name="パス 6897" d="M1960.937,1060.943a2.741,2.741,0,0,0-.87-.6,2.414,2.414,0,0,0-.987-.211,2.14,2.14,0,0,0-.387.035c-.083.015-.16.039-.24.06-.043.005-.083.014-.129.018l1.446-2.868.673-1.308h-.013l.013-.025H1958.4l-2.15,4.429a12.224,12.224,0,0,0-.6,1.363,3.83,3.83,0,0,0-.023,2.7,2.749,2.749,0,0,0,.681,1,3.013,3.013,0,0,0,1.01.611,3.959,3.959,0,0,0,1.258.2,3.668,3.668,0,0,0,1.256-.211,2.823,2.823,0,0,0,1.681-1.621,3.473,3.473,0,0,0,.246-1.352,3.351,3.351,0,0,0-.223-1.268A2.973,2.973,0,0,0,1960.937,1060.943Zm-2.361,3.724a1.254,1.254,0,0,1-.952-.387,1.533,1.533,0,0,1-.377-1.105,1.551,1.551,0,0,1,.377-1.1,1.346,1.346,0,0,1,1.915.024,1.554,1.554,0,0,1,.352,1.081,1.531,1.531,0,0,1-.364,1.1A1.294,1.294,0,0,1,1958.575,1064.667Z" transform="translate(-198.502 -320.749)" fill="#fff"/>
      <path id="パス_6898" data-name="パス 6898" d="M1795.141,908.594l2.162-4.418a14.877,14.877,0,0,0,.6-1.364,3.893,3.893,0,0,0,.247-1.362,3.475,3.475,0,0,0-.247-1.351,2.577,2.577,0,0,0-.67-.987,2.682,2.682,0,0,0-1.011-.611,3.84,3.84,0,0,0-2.514,0,2.979,2.979,0,0,0-1.01.623,3.032,3.032,0,0,0-.67,1.011,3.473,3.473,0,0,0-.247,1.339,3.374,3.374,0,0,0,.223,1.281,2.977,2.977,0,0,0,.611.94,2.553,2.553,0,0,0,.857.6,2.507,2.507,0,0,0,1.01.211,2.135,2.135,0,0,0,.376-.035,1.26,1.26,0,0,0,.239-.06l.129-.019-1.448,2.873-.67,1.3h.012l-.012.025h2.032Zm1.14-7.132a1.532,1.532,0,0,1-.364,1.1,1.278,1.278,0,0,1-.952.388,1.233,1.233,0,0,1-.963-.4,1.6,1.6,0,0,1-.353-1.093,1.526,1.526,0,0,1,.365-1.1,1.363,1.363,0,0,1,1.9,0A1.531,1.531,0,0,1,1796.281,901.462Z" transform="translate(-60.878 -188.051)" fill="#fff"/>
      <path id="パス_6899" data-name="パス 6899" d="M2048.789,1059.466a.919.919,0,0,0-1.591.922l2.127,3.683a.931.931,0,0,0,.789.432.886.886,0,0,0,.458-.119.919.919,0,0,0,.333-1.252Z" transform="translate(-275.629 -323.243)" fill="#fff"/>
      <path id="パス_6900" data-name="パス 6900" d="M1881.156,772.845a.921.921,0,0,0,.8.476,1,1,0,0,0,.48-.136.939.939,0,0,0,.321-1.245l-2.117-3.665a.921.921,0,0,0-1.683.22.907.907,0,0,0,.092.7Z" transform="translate(-134.18 -78.304)" fill="#fff"/>
      <path id="パス_6901" data-name="パス 6901" d="M2108.754,1004.594l-3.657-2.113a.919.919,0,0,0-.464-.127.917.917,0,0,0-.879,1.178.879.879,0,0,0,.42.531l3.63,2.095a.879.879,0,0,0,.5.146.9.9,0,0,0,.791-.451.926.926,0,0,0,.09-.718A.892.892,0,0,0,2108.754,1004.594Z" transform="translate(-323.269 -275.587)" fill="#fff"/>
      <path id="パス_6902" data-name="パス 6902" d="M1812.981,835.939l3.664,2.11a.9.9,0,0,0,.461.13.87.87,0,0,0,.781-.446.908.908,0,0,0-.316-1.263l-3.678-2.129a.893.893,0,0,0-.442-.115.912.912,0,0,0-.8.452A.922.922,0,0,0,1812.981,835.939Z" transform="translate(-78.329 -134.165)" fill="#fff"/>
      <path id="パス_6903" data-name="パス 6903" d="M2103.756,837a.93.93,0,0,0,.084.718.917.917,0,0,0,.8.462.894.894,0,0,0,.454-.126l3.665-2.117a.923.923,0,0,0,.323-1.271.941.941,0,0,0-.792-.439.955.955,0,0,0-.454.118l-3.642,2.114A.886.886,0,0,0,2103.756,837Z" transform="translate(-323.271 -134.162)" fill="#fff"/>
      <path id="パス_6904" data-name="パス 6904" d="M1817.11,1002.355a.87.87,0,0,0-.454.125l-3.666,2.111a.9.9,0,0,0-.427.553.918.918,0,0,0,.086.695.906.906,0,0,0,.8.465.739.739,0,0,0,.453-.126l3.667-2.113a.905.905,0,0,0,.429-.565.878.878,0,0,0-.086-.665A.9.9,0,0,0,1817.11,1002.355Z" transform="translate(-78.333 -275.588)" fill="#fff"/>
      <path id="パス_6905" data-name="パス 6905" d="M2047.553,773.209a.954.954,0,0,0,.435.111.938.938,0,0,0,.792-.463l2.112-3.659a.906.906,0,0,0,.095-.7.918.918,0,0,0-.889-.674.914.914,0,0,0-.8.458l-2.125,3.681A.932.932,0,0,0,2047.553,773.209Z" transform="translate(-275.618 -78.304)" fill="#fff"/>
      <path id="パス_6906" data-name="パス 6906" d="M1882.423,1059.134a.914.914,0,0,0-.463-.127.929.929,0,0,0-.8.462l-2.112,3.658a.9.9,0,0,0-.095.705.919.919,0,0,0,.424.55.88.88,0,0,0,.459.12.942.942,0,0,0,.8-.454l2.125-3.682A.938.938,0,0,0,1882.423,1059.134Z" transform="translate(-134.18 -323.242)" fill="#fff"/>
      <path id="パス_6907" data-name="パス 6907" d="M1760.073,674.73a40.66,40.66,0,1,0,40.656,40.655A40.705,40.705,0,0,0,1760.073,674.73Zm32.878,40.656a32.884,32.884,0,1,1-32.878-32.879A32.882,32.882,0,0,1,1792.952,715.385Z" transform="translate(0 0)" fill="#fff"/>
      <path id="パス_6908" data-name="パス 6908" d="M1988.216,855.431l.01.005-.018.019a5.338,5.338,0,0,1,3,2.771l7.038-7.59a2.056,2.056,0,0,0-.126-2.886,2,2,0,0,0-1.381-.552,2.058,2.058,0,0,0-1.506.667l-5.019,5.421Z" transform="translate(-226.106 -145.075)" fill="#fff"/>
      <path id="パス_6909" data-name="パス 6909" d="M1997.15,949.292c-.058.081-.1.161-.161.23a5.584,5.584,0,0,1-1.14,1.153c-.057.039-.106.092-.165.129l0,0a.1.1,0,0,0-.022.015l12.443,11.293a1.026,1.026,0,0,0,.724.287,1.061,1.061,0,0,0,1.07-1.115,1.09,1.09,0,0,0-.345-.736Z" transform="translate(-232.38 -230.953)" fill="#fff"/>
      <path id="パス_6910" data-name="パス 6910" d="M1870.411,930.523c-.008-.084-.007-.168-.008-.252a.473.473,0,0,1,0-.068l-.007,0c0-.009,0-.017,0-.026L1857.923,934a1.568,1.568,0,0,0-1.035,1.944,1.546,1.546,0,0,0,1.495,1.093,1.858,1.858,0,0,0,.449-.058l9.765-2.989,2.611-.792,0-.006.024-.007A5.247,5.247,0,0,1,1870.411,930.523Z" transform="translate(-115.59 -214.876)" fill="#fff"/>
      <path id="パス_6911" data-name="パス 6911" d="M1960.928,918.573c.04,0,.078-.01.118-.01a2.825,2.825,0,0,0,1.556-.529,2.877,2.877,0,0,0,.7-.685,2.844,2.844,0,0,0,.538-1.8,2.583,2.583,0,0,0-.127-.735,2.879,2.879,0,0,0-2.164-1.988,2.528,2.528,0,0,0-.617-.069h-.107a2.906,2.906,0,0,0-2.781,2.6,2.858,2.858,0,0,0-.01.411,2.9,2.9,0,0,0,2.9,2.8Z" transform="translate(-200.718 -200.221)" fill="#fff"/>
    </g>
  </g>
</svg>
