<svg xmlns="http://www.w3.org/2000/svg" xmlns:xlink="http://www.w3.org/1999/xlink" width="881" height="585.486" viewBox="0 0 881 585.486">
  <defs>
    <clipPath id="clip-path">
      <path id="パス_6936" data-name="パス 6936" stroke="#00c387" d="M-347.994,1218.9V1114.235l-81.4-69.774-81.4,69.774V1218.9Z" fill="none" transform="translate(2082.249 998.214)" stroke-linecap="round" stroke-linejoin="round" stroke-width="8" opacity="0.252"/>
    </clipPath>
  </defs>
  <g id="グループ_3194" data-name="グループ 3194" transform="translate(-242.5 -3287.318)">
    <g id="グループ_3189" data-name="グループ 3189">
      <path id="パス_6999" data-name="パス 6999" stroke="#8dddc4" d="M365.2,1578.179V1254.165l-439-120.89-437,120.89v324.014Z" fill="#f5fdf6" transform="translate(755.801 2156.543)" stroke-linecap="round" stroke-linejoin="round" stroke-width="5" opacity="0.724"/>
      <path id="パス_11921" data-name="パス 11921" d="M-52.29-22.59l.15,3.06c.75-.09,1.68-.18,2.46-.24,1.23-.09,5.73-.33,7.02-.42a115.8,115.8,0,0,1-9.18,7.44c-1.53.18-3.54.45-5.16.63l.27,2.85c3.3-.57,6.99-1.02,9.96-1.26a6.871,6.871,0,0,0-2.88,5.19c0,4.71,4.17,7.02,11.58,6.69l.6-3.09a23.9,23.9,0,0,1-4.35-.06c-2.7-.36-4.86-1.32-4.86-4.02,0-2.64,2.61-4.83,5.4-5.25a43.959,43.959,0,0,1,7.59-.09l-.03-2.79c-3.96,0-9.12.36-13.41.81,2.25-1.77,5.94-4.86,8.1-6.63a18.31,18.31,0,0,1,1.92-1.32L-39-23.28a6.649,6.649,0,0,1-1.8.33c-1.77.21-7.65.48-8.91.48A22.931,22.931,0,0,1-52.29-22.59ZM-1.35-5.37a6.3,6.3,0,0,1-4.2,2.31c-.93,0-1.35-.66-1.35-1.59,0-3.03,1.05-7.83,1.05-10.83,0-2.46-1.44-4.17-4.41-4.17-2.91,0-6.54,2.61-8.85,4.71.03-.42.06-.81.09-1.23.48-.75,1.02-1.59,1.41-2.13l-1.05-1.26c.21-1.92.45-3.51.6-4.26l-3.51-.12a13.226,13.226,0,0,1,.15,2.4c0,.33-.06,1.29-.15,2.58-1.41.21-2.97.39-3.9.45-.84.03-1.47.06-2.22.03l.3,3.06c1.8-.24,4.26-.57,5.64-.75-.06.84-.12,1.71-.18,2.55-1.59,2.4-4.83,6.69-6.48,8.76l1.86,2.61c1.26-1.71,3-4.29,4.38-6.33-.06,3.3-.09,5.01-.12,7.77,0,.48-.06,1.44-.09,1.95h3.24c-.06-.6-.15-1.47-.18-2.01-.15-2.7-.12-4.83-.12-7.41,0-.93.03-1.95.09-3,2.58-2.79,6-5.58,8.31-5.58a2.011,2.011,0,0,1,2.22,2.31c0,2.82-1.11,7.47-1.11,10.74C-9.93-1.17-8.49.27-6.42.27A7.716,7.716,0,0,0-.9-2.1ZM29.31-21.54a42.878,42.878,0,0,0-2.49-4.11l-1.95.81a27.374,27.374,0,0,1,2.46,4.14ZM9.66-23.64a35.315,35.315,0,0,1-.72,6.36c-1.65.15-3.24.27-4.2.3-1.02.03-1.86.06-2.88,0l.3,3.24c.84-.15,2.16-.33,2.94-.42.69-.09,1.89-.21,3.24-.36C7.29-10.5,5.16-4.11,2.19-.15L5.28,1.08c2.94-4.74,5.04-11.55,6.12-15.93,1.11-.09,2.1-.15,2.7-.15,1.89,0,3.03.42,3.03,2.97,0,3.09-.42,6.81-1.32,8.67a2.349,2.349,0,0,1-2.43,1.41,16.12,16.12,0,0,1-3.66-.63L10.23.54a16.554,16.554,0,0,0,3.54.45c2.07,0,3.6-.57,4.59-2.58,1.23-2.55,1.68-7.26,1.68-10.77,0-4.14-2.19-5.34-5.04-5.34-.69,0-1.77.06-2.97.15.27-1.35.54-2.79.69-3.69.12-.66.3-1.41.45-2.04Zm16.17,3.39a43.947,43.947,0,0,0-2.43-4.14l-1.95.81a32.15,32.15,0,0,1,2.4,4.14c-.18-.24-.33-.45-.48-.66l-2.79,1.23c2.1,2.52,4.35,7.74,5.19,10.92l2.97-1.41a56.06,56.06,0,0,0-4.89-10.05Zm7.02,8.85a2.151,2.151,0,0,0,2.16,2.16,2.151,2.151,0,0,0,2.16-2.16,2.151,2.151,0,0,0-2.16-2.16A2.151,2.151,0,0,0,32.85-11.4Zm9.99,0A2.151,2.151,0,0,0,45-9.24a2.151,2.151,0,0,0,2.16-2.16A2.151,2.151,0,0,0,45-13.56,2.151,2.151,0,0,0,42.84-11.4Zm9.99,0a2.151,2.151,0,0,0,2.16,2.16,2.151,2.151,0,0,0,2.16-2.16,2.151,2.151,0,0,0-2.16-2.16A2.151,2.151,0,0,0,52.83-11.4Z" transform="translate(682 3692.604)" fill="#02835b"/>
      <g id="グループ_2361" data-name="グループ 2361" transform="translate(8 1111.605)">
        <path id="パス_11920" data-name="パス 11920" d="M-127.424-6.38a3.148,3.148,0,0,1,2.32.928,3.148,3.148,0,0,1,.928,2.32A2.983,2.983,0,0,1-125.1-.9a3.2,3.2,0,0,1-2.32.9h-19.72a3.1,3.1,0,0,1-2.378-.928,3.338,3.338,0,0,1-.87-2.378,3.6,3.6,0,0,1,1.044-2.552L-136.7-19.372a22.428,22.428,0,0,0,3.393-4.669,9.329,9.329,0,0,0,1.247-4.321,6.282,6.282,0,0,0-1.856-4.524,5.809,5.809,0,0,0-4.292-1.914,6.129,6.129,0,0,0-3.393,1.131,12.555,12.555,0,0,0-3.1,2.987,3.2,3.2,0,0,1-2.668,1.392,3.4,3.4,0,0,1-2.349-.986,2.944,2.944,0,0,1-1.073-2.2,3.255,3.255,0,0,1,.58-1.769,13.121,13.121,0,0,1,1.74-2.059,17.487,17.487,0,0,1,5.1-3.538,13.311,13.311,0,0,1,5.568-1.334,13.539,13.539,0,0,1,6.728,1.624,11.278,11.278,0,0,1,4.466,4.466,13.116,13.116,0,0,1,1.566,6.438,16.127,16.127,0,0,1-1.885,7.279,30.976,30.976,0,0,1-5.075,7.163l-7.366,7.83Zm8.218-9.61,1.35,3.3c2.7-1.11,10.02-4.26,14.67-4.26,3.81,0,5.94,2.31,5.94,5.28,0,5.7-6.66,8.04-14.55,8.22l1.35,3.15c9.75-.51,16.53-4.35,16.53-11.31,0-5.19-4.05-8.16-9.15-8.16-4.38,0-10.29,2.13-12.69,2.88C-116.866-16.56-118.126-16.2-119.206-15.99Zm36.69,11.25c-1.2,0-2.73-1.56-2.73-4.98,0-3.66,3.12-8.31,8.46-9.18a41.161,41.161,0,0,1-1.62,7.65C-79.786-6.66-81.226-4.74-82.516-4.74Zm7.98,5.73c7.26-1.02,11.25-5.34,11.25-11.55,0-6.24-4.53-11.22-11.67-11.22-7.44,0-13.29,5.73-13.29,12.33,0,4.95,2.7,8.28,5.64,8.28,2.97,0,5.43-3.39,7.23-9.45a67.993,67.993,0,0,0,1.77-8.34c4.56.57,7.14,3.96,7.14,8.28,0,4.8-3.39,7.56-7.2,8.43a16.823,16.823,0,0,1-2.64.42Zm21.72-22.08-3.63-.06a14.939,14.939,0,0,1,.21,2.79,78.868,78.868,0,0,0,.33,7.95C-55.1-2.58-52.336.3-49.336.3c2.19,0,4.02-1.77,5.91-6.87l-2.4-2.79c-.66,2.73-1.95,5.97-3.45,5.97-1.98,0-3.18-3.12-3.63-7.8a66.016,66.016,0,0,1-.21-6.69A24.12,24.12,0,0,1-52.816-21.09Zm15.21.75-2.97.99c3,3.54,4.71,9.93,5.19,15.03l3.09-1.2C-32.686-10.35-34.876-16.89-37.606-20.34Zm15.39-.75-3.63-.06a14.939,14.939,0,0,1,.21,2.79,78.868,78.868,0,0,0,.33,7.95C-24.5-2.58-21.736.3-18.736.3c2.19,0,4.02-1.77,5.91-6.87l-2.4-2.79c-.66,2.73-1.95,5.97-3.45,5.97-1.98,0-3.18-3.12-3.63-7.8a66.015,66.015,0,0,1-.21-6.69A24.12,24.12,0,0,1-22.216-21.09Zm15.21.75-2.97.99c3,3.54,4.71,9.93,5.19,15.03l3.09-1.2C-2.086-10.35-4.276-16.89-7.006-20.34Zm30.48-.06a16.663,16.663,0,0,1-2.4,1.56c-1.53.87-4.47,2.34-7.08,3.9a68.387,68.387,0,0,1-3.87-8.55l-2.97,1.2c1.38,3.18,2.88,6.51,4.23,9.03-3.03,2.16-5.04,4.59-5.04,7.74C6.344-.78,10.574.9,16.3.9a55.652,55.652,0,0,0,9.45-.75l.03-3.36a48.32,48.32,0,0,1-9.6,1.02c-4.44,0-6.63-1.35-6.63-3.66,0-2.16,1.65-4.02,4.29-5.73a92.3,92.3,0,0,1,8.7-4.71c.96-.48,1.8-.93,2.55-1.38Zm15.15,2.16c2.37.21,4.92.33,7.98.33,2.76,0,6.21-.21,8.25-.36v-3.12c-2.22.24-5.4.42-8.28.42a75.194,75.194,0,0,1-7.95-.36Zm-1.29,8.88a18.1,18.1,0,0,0-.6,4.2c0,3.87,3.45,6,9.81,6A44.266,44.266,0,0,0,56.774-.18l-.03-3.27a40.65,40.65,0,0,1-10.29,1.14c-4.53,0-6.6-1.47-6.6-3.54a11.445,11.445,0,0,1,.54-3.24Zm39.21-11.43h1.23v2.31h9.51a33.341,33.341,0,0,1-3.24,10.23A37.925,37.925,0,0,1,80.8-18.39l-2.7.54a42.256,42.256,0,0,0,4.26,12.33A17.092,17.092,0,0,1,76.544-.3ZM68.714-4.68V-8.64h5.13V-5.4Zm5.13-16.11v3.48h-5.13v-3.48Zm-5.13,5.97h5.13v3.66h-5.13Zm19.83-6.48-.48.09h-9.51v-2.16h-14.7v2.58h2.19V-4.32c-1.05.12-1.98.27-2.82.36l.51,2.79c2.79-.45,6.48-1.05,10.11-1.65V2.31h2.7V-.15a10.782,10.782,0,0,1,1.74,2.16,20.548,20.548,0,0,0,5.73-4.98,18.862,18.862,0,0,0,5.64,5.04,10.621,10.621,0,0,1,1.92-2.28,16.519,16.519,0,0,1-5.82-5.25c2.31-3.87,3.9-8.91,4.59-15.36Zm11.64-2.58c-.03.78-.12,1.8-.24,2.79a77.707,77.707,0,0,0-.9,9.57,35.8,35.8,0,0,0,.36,4.8l2.91-.21a13.443,13.443,0,0,1-.09-3.42c.24-3.9,3.54-9.24,7.14-9.24,2.85,0,4.38,3.03,4.38,7.65,0,7.35-4.86,9.75-11.37,10.77l1.8,2.7c7.56-1.38,12.75-5.19,12.75-13.47,0-6.39-3-10.38-7.05-10.38-3.57,0-6.45,3.18-7.74,5.91a51.662,51.662,0,0,1,1.29-7.35Zm37.11,16.44h2.46l.9-11.04.09-3.96h-4.41l.09,3.96Zm1.23,7.65a2.6,2.6,0,0,0,2.73-2.61,2.627,2.627,0,0,0-2.73-2.64,2.627,2.627,0,0,0-2.73,2.64A2.6,2.6,0,0,0,138.524.21Z" transform="translate(683 2305)" fill="#02835b"/>
        <path id="パス_6942" data-name="パス 6942" d="M5846.081,293.844l-39.448,39.448" transform="translate(-4971.586 1985.263)" fill="none" stroke="#02835b" stroke-width="4"/>
        <path id="パス_6943" data-name="パス 6943" d="M39.448,0,0,39.448" transform="translate(475 2318.555) rotate(-90)" fill="none" stroke="#02835b" stroke-width="4"/>
      </g>
      <g id="グループ_2362" data-name="グループ 2362" transform="translate(-1 1240.605)">
        <g id="グループ_2284" data-name="グループ 2284" transform="translate(63 10)">
          <g id="グループ_2281" data-name="グループ 2281" transform="translate(-561 28)" opacity="0.893">
            <g id="マスクグループ_29" data-name="マスクグループ 29" transform="translate(-672.448 138.326)" clip-path="url(#clip-path)">
              <g id="グループ_2271" data-name="グループ 2271" transform="translate(-787.352 2259.163)">
                <line id="線_357" data-name="線 357" x1="163.885" y2="189.308" transform="translate(3081.641 -224.495)" fill="none" stroke="#8dddc4" stroke-miterlimit="10" stroke-width="3.163"/>
                <line id="線_358" data-name="線 358" x1="163.885" y2="189.308" transform="translate(3069.756 -224.495)" fill="none" stroke="#8dddc4" stroke-miterlimit="10" stroke-width="3.163"/>
                <line id="線_359" data-name="線 359" x1="163.885" y2="189.308" transform="translate(3057.871 -224.495)" fill="none" stroke="#8dddc4" stroke-miterlimit="10" stroke-width="3.163"/>
                <line id="線_360" data-name="線 360" x1="163.885" y2="189.308" transform="translate(3045.985 -224.495)" fill="none" stroke="#8dddc4" stroke-miterlimit="10" stroke-width="3.163"/>
                <line id="線_361" data-name="線 361" x1="163.885" y2="189.308" transform="translate(3034.1 -224.495)" fill="none" stroke="#8dddc4" stroke-miterlimit="10" stroke-width="3.163"/>
                <line id="線_362" data-name="線 362" x1="163.885" y2="189.308" transform="translate(3022.214 -224.495)" fill="none" stroke="#8dddc4" stroke-miterlimit="10" stroke-width="3.163"/>
                <line id="線_363" data-name="線 363" x1="163.885" y2="189.308" transform="translate(3010.329 -224.495)" fill="none" stroke="#8dddc4" stroke-miterlimit="10" stroke-width="3.163"/>
                <line id="線_364" data-name="線 364" x1="163.885" y2="189.308" transform="translate(2998.444 -224.495)" fill="none" stroke="#8dddc4" stroke-miterlimit="10" stroke-width="3.163"/>
                <line id="線_365" data-name="線 365" x1="163.885" y2="189.308" transform="translate(2986.558 -224.495)" fill="none" stroke="#8dddc4" stroke-miterlimit="10" stroke-width="3.163"/>
                <line id="線_366" data-name="線 366" x1="163.885" y2="189.308" transform="translate(2974.673 -224.495)" fill="none" stroke="#8dddc4" stroke-miterlimit="10" stroke-width="3.163"/>
                <line id="線_367" data-name="線 367" x1="163.885" y2="189.308" transform="translate(2962.787 -224.495)" fill="none" stroke="#8dddc4" stroke-miterlimit="10" stroke-width="3.163"/>
                <line id="線_368" data-name="線 368" x1="163.885" y2="189.308" transform="translate(2950.902 -224.495)" fill="none" stroke="#8dddc4" stroke-miterlimit="10" stroke-width="3.163"/>
                <line id="線_369" data-name="線 369" x1="163.885" y2="189.308" transform="translate(2939.017 -224.495)" fill="none" stroke="#8dddc4" stroke-miterlimit="10" stroke-width="3.163"/>
                <line id="線_370" data-name="線 370" x1="163.885" y2="189.308" transform="translate(2927.131 -224.495)" fill="none" stroke="#8dddc4" stroke-miterlimit="10" stroke-width="3.163"/>
                <line id="線_371" data-name="線 371" x1="163.885" y2="189.308" transform="translate(2915.246 -224.495)" fill="none" stroke="#8dddc4" stroke-miterlimit="10" stroke-width="3.163"/>
                <line id="線_372" data-name="線 372" x1="163.885" y2="189.308" transform="translate(2903.36 -224.495)" fill="none" stroke="#8dddc4" stroke-miterlimit="10" stroke-width="3.163"/>
                <line id="線_373" data-name="線 373" x1="163.886" y2="189.308" transform="translate(2891.475 -224.495)" fill="none" stroke="#8dddc4" stroke-miterlimit="10" stroke-width="3.163"/>
                <line id="線_374" data-name="線 374" x1="163.886" y2="189.308" transform="translate(2879.59 -224.495)" fill="none" stroke="#8dddc4" stroke-miterlimit="10" stroke-width="3.163"/>
                <line id="線_375" data-name="線 375" x1="163.886" y2="189.308" transform="translate(2867.704 -224.495)" fill="none" stroke="#8dddc4" stroke-miterlimit="10" stroke-width="3.163"/>
                <line id="線_376" data-name="線 376" x1="163.886" y2="189.308" transform="translate(2855.819 -224.495)" fill="none" stroke="#8dddc4" stroke-miterlimit="10" stroke-width="3.163"/>
                <line id="線_377" data-name="線 377" x1="163.886" y2="189.308" transform="translate(2843.933 -224.495)" fill="none" stroke="#8dddc4" stroke-miterlimit="10" stroke-width="3.163"/>
                <line id="線_378" data-name="線 378" x1="163.886" y2="189.308" transform="translate(2832.048 -224.495)" fill="none" stroke="#8dddc4" stroke-miterlimit="10" stroke-width="3.163"/>
                <line id="線_379" data-name="線 379" x1="163.886" y2="189.308" transform="translate(2820.162 -224.495)" fill="none" stroke="#8dddc4" stroke-miterlimit="10" stroke-width="3.163"/>
                <line id="線_380" data-name="線 380" x1="163.886" y2="189.308" transform="translate(2808.277 -224.495)" fill="none" stroke="#8dddc4" stroke-miterlimit="10" stroke-width="3.163"/>
                <line id="線_381" data-name="線 381" x1="163.886" y2="189.308" transform="translate(2796.392 -224.495)" fill="none" stroke="#8dddc4" stroke-miterlimit="10" stroke-width="3.163"/>
                <line id="線_382" data-name="線 382" x1="163.886" y2="189.308" transform="translate(2784.506 -224.495)" fill="none" stroke="#8dddc4" stroke-miterlimit="10" stroke-width="3.163"/>
                <line id="線_383" data-name="線 383" x1="163.886" y2="189.308" transform="translate(2772.621 -224.495)" fill="none" stroke="#8dddc4" stroke-miterlimit="10" stroke-width="3.163"/>
                <line id="線_384" data-name="線 384" x1="163.886" y2="189.308" transform="translate(2760.736 -224.495)" fill="none" stroke="#8dddc4" stroke-miterlimit="10" stroke-width="3.163"/>
                <line id="線_385" data-name="線 385" x1="163.886" y2="189.308" transform="translate(2748.85 -224.495)" fill="none" stroke="#8dddc4" stroke-miterlimit="10" stroke-width="3.163"/>
                <line id="線_386" data-name="線 386" x1="163.886" y2="189.308" transform="translate(2736.965 -224.495)" fill="none" stroke="#8dddc4" stroke-miterlimit="10" stroke-width="3.163"/>
                <line id="線_387" data-name="線 387" x1="163.886" y2="189.308" transform="translate(2725.079 -224.495)" fill="none" stroke="#8dddc4" stroke-miterlimit="10" stroke-width="3.163"/>
                <line id="線_388" data-name="線 388" x1="163.886" y2="189.308" transform="translate(2713.194 -224.495)" fill="none" stroke="#8dddc4" stroke-miterlimit="10" stroke-width="3.163"/>
                <line id="線_389" data-name="線 389" x1="163.886" y2="189.308" transform="translate(2701.309 -224.495)" fill="none" stroke="#8dddc4" stroke-miterlimit="10" stroke-width="3.163"/>
                <line id="線_390" data-name="線 390" x1="163.886" y2="189.308" transform="translate(2689.423 -224.495)" fill="none" stroke="#8dddc4" stroke-miterlimit="10" stroke-width="3.163"/>
                <line id="線_391" data-name="線 391" x1="163.886" y2="189.308" transform="translate(2677.538 -224.495)" fill="none" stroke="#8dddc4" stroke-miterlimit="10" stroke-width="3.163"/>
                <line id="線_392" data-name="線 392" x1="163.887" y2="189.308" transform="translate(2665.652 -224.495)" fill="none" stroke="#8dddc4" stroke-miterlimit="10" stroke-width="3.163"/>
                <line id="線_393" data-name="線 393" x1="163.887" y2="189.308" transform="translate(2653.767 -224.495)" fill="none" stroke="#8dddc4" stroke-miterlimit="10" stroke-width="3.163"/>
                <line id="線_394" data-name="線 394" x1="163.887" y2="189.308" transform="translate(2641.881 -224.495)" fill="none" stroke="#8dddc4" stroke-miterlimit="10" stroke-width="3.163"/>
                <line id="線_395" data-name="線 395" x1="163.887" y2="189.308" transform="translate(2629.996 -224.495)" fill="none" stroke="#8dddc4" stroke-miterlimit="10" stroke-width="3.163"/>
                <line id="線_396" data-name="線 396" x1="163.887" y2="189.308" transform="translate(2618.111 -224.495)" fill="none" stroke="#8dddc4" stroke-miterlimit="10" stroke-width="3.163"/>
                <line id="線_397" data-name="線 397" x1="163.887" y2="189.308" transform="translate(2606.225 -224.495)" fill="none" stroke="#8dddc4" stroke-miterlimit="10" stroke-width="3.163"/>
                <line id="線_398" data-name="線 398" x1="163.887" y2="189.308" transform="translate(2594.34 -224.495)" fill="none" stroke="#8dddc4" stroke-miterlimit="10" stroke-width="3.163"/>
                <line id="線_399" data-name="線 399" x1="163.887" y2="189.308" transform="translate(2582.455 -224.495)" fill="none" stroke="#8dddc4" stroke-miterlimit="10" stroke-width="3.163"/>
                <line id="線_400" data-name="線 400" x1="163.887" y2="189.308" transform="translate(2570.569 -224.495)" fill="none" stroke="#8dddc4" stroke-miterlimit="10" stroke-width="3.163"/>
                <line id="線_401" data-name="線 401" x1="163.887" y2="189.308" transform="translate(2558.684 -224.495)" fill="none" stroke="#8dddc4" stroke-miterlimit="10" stroke-width="3.163"/>
                <line id="線_402" data-name="線 402" x1="163.887" y2="189.308" transform="translate(2546.798 -224.495)" fill="none" stroke="#8dddc4" stroke-miterlimit="10" stroke-width="3.163"/>
                <line id="線_403" data-name="線 403" x1="163.887" y2="189.308" transform="translate(2534.913 -224.495)" fill="none" stroke="#8dddc4" stroke-miterlimit="10" stroke-width="3.163"/>
                <line id="線_404" data-name="線 404" x1="163.887" y2="189.308" transform="translate(2523.027 -224.495)" fill="none" stroke="#8dddc4" stroke-miterlimit="10" stroke-width="3.163"/>
                <line id="線_405" data-name="線 405" x1="163.887" y2="189.308" transform="translate(2511.142 -224.495)" fill="none" stroke="#8dddc4" stroke-miterlimit="10" stroke-width="3.163"/>
                <line id="線_406" data-name="線 406" x1="163.887" y2="189.308" transform="translate(2499.257 -224.495)" fill="none" stroke="#8dddc4" stroke-miterlimit="10" stroke-width="3.163"/>
                <line id="線_407" data-name="線 407" x1="163.887" y2="189.308" transform="translate(2487.371 -224.495)" fill="none" stroke="#8dddc4" stroke-miterlimit="10" stroke-width="3.163"/>
                <line id="線_408" data-name="線 408" x1="163.887" y2="189.308" transform="translate(2475.486 -224.495)" fill="none" stroke="#8dddc4" stroke-miterlimit="10" stroke-width="3.163"/>
                <line id="線_409" data-name="線 409" x1="163.887" y2="189.308" transform="translate(2463.6 -224.495)" fill="none" stroke="#8dddc4" stroke-miterlimit="10" stroke-width="3.163"/>
                <line id="線_410" data-name="線 410" x1="163.888" y2="189.308" transform="translate(2451.715 -224.495)" fill="none" stroke="#8dddc4" stroke-miterlimit="10" stroke-width="3.163"/>
                <line id="線_411" data-name="線 411" x1="163.888" y2="189.308" transform="translate(2439.83 -224.495)" fill="none" stroke="#8dddc4" stroke-miterlimit="10" stroke-width="3.163"/>
                <line id="線_412" data-name="線 412" x1="163.888" y2="189.308" transform="translate(2427.944 -224.495)" fill="none" stroke="#8dddc4" stroke-miterlimit="10" stroke-width="3.163"/>
                <line id="線_413" data-name="線 413" x1="163.888" y2="189.308" transform="translate(2416.059 -224.495)" fill="none" stroke="#8dddc4" stroke-miterlimit="10" stroke-width="3.163"/>
                <line id="線_414" data-name="線 414" x1="163.888" y2="189.308" transform="translate(2404.174 -224.495)" fill="none" stroke="#8dddc4" stroke-miterlimit="10" stroke-width="3.163"/>
                <line id="線_415" data-name="線 415" x1="163.888" y2="189.308" transform="translate(2392.288 -224.495)" fill="none" stroke="#8dddc4" stroke-miterlimit="10" stroke-width="3.163"/>
                <line id="線_416" data-name="線 416" x1="163.888" y2="189.308" transform="translate(2380.403 -224.495)" fill="none" stroke="#8dddc4" stroke-miterlimit="10" stroke-width="3.163"/>
                <line id="線_417" data-name="線 417" x1="163.888" y2="189.308" transform="translate(2368.517 -224.495)" fill="none" stroke="#8dddc4" stroke-miterlimit="10" stroke-width="3.163"/>
                <line id="線_418" data-name="線 418" x1="163.888" y2="189.308" transform="translate(2356.632 -224.495)" fill="none" stroke="#8dddc4" stroke-miterlimit="10" stroke-width="3.163"/>
                <line id="線_419" data-name="線 419" x1="163.888" y2="189.308" transform="translate(2344.746 -224.495)" fill="none" stroke="#8dddc4" stroke-miterlimit="10" stroke-width="3.163"/>
                <line id="線_420" data-name="線 420" x1="163.888" y2="189.308" transform="translate(2332.861 -224.495)" fill="none" stroke="#8dddc4" stroke-miterlimit="10" stroke-width="3.163"/>
                <path id="パス_6937" data-name="パス 6937" d="M163.888,0,0,189.308" transform="translate(2320.976 -224.495)" fill="none" stroke="#8dddc4" stroke-width="3.163"/>
                <line id="線_422" data-name="線 422" x1="163.888" y2="189.308" transform="translate(2309.09 -224.495)" fill="none" stroke="#8dddc4" stroke-miterlimit="10" stroke-width="3.163"/>
                <line id="線_423" data-name="線 423" x1="163.888" y2="189.308" transform="translate(2297.205 -224.495)" fill="none" stroke="#8dddc4" stroke-miterlimit="10" stroke-width="3.163"/>
                <line id="線_424" data-name="線 424" x1="163.888" y2="189.308" transform="translate(2285.32 -224.495)" fill="none" stroke="#8dddc4" stroke-miterlimit="10" stroke-width="3.163"/>
                <line id="線_425" data-name="線 425" x1="163.888" y2="189.308" transform="translate(2273.434 -224.495)" fill="none" stroke="#8dddc4" stroke-miterlimit="10" stroke-width="3.163"/>
                <line id="線_426" data-name="線 426" x1="163.888" y2="189.308" transform="translate(2261.549 -224.495)" fill="none" stroke="#8dddc4" stroke-miterlimit="10" stroke-width="3.163"/>
                <line id="線_427" data-name="線 427" x1="163.888" y2="189.308" transform="translate(2249.663 -224.495)" fill="none" stroke="#8dddc4" stroke-miterlimit="10" stroke-width="3.163"/>
                <line id="線_428" data-name="線 428" x1="163.888" y2="189.308" transform="translate(2237.778 -224.495)" fill="none" stroke="#8dddc4" stroke-miterlimit="10" stroke-width="3.163"/>
                <line id="線_429" data-name="線 429" x1="163.889" y2="189.308" transform="translate(2225.892 -224.495)" fill="none" stroke="#8dddc4" stroke-miterlimit="10" stroke-width="3.163"/>
                <line id="線_430" data-name="線 430" x1="163.889" y2="189.308" transform="translate(2214.007 -224.495)" fill="none" stroke="#8dddc4" stroke-miterlimit="10" stroke-width="3.163"/>
                <line id="線_431" data-name="線 431" x1="163.889" y2="189.308" transform="translate(2202.122 -224.495)" fill="none" stroke="#8dddc4" stroke-miterlimit="10" stroke-width="3.163"/>
                <line id="線_432" data-name="線 432" x1="163.889" y2="189.308" transform="translate(2190.236 -224.495)" fill="none" stroke="#8dddc4" stroke-miterlimit="10" stroke-width="3.163"/>
                <line id="線_433" data-name="線 433" x1="163.889" y2="189.308" transform="translate(2178.351 -224.495)" fill="none" stroke="#8dddc4" stroke-miterlimit="10" stroke-width="3.163"/>
                <line id="線_434" data-name="線 434" x1="163.889" y2="189.308" transform="translate(2166.465 -224.495)" fill="none" stroke="#8dddc4" stroke-miterlimit="10" stroke-width="3.163"/>
                <line id="線_435" data-name="線 435" x1="163.889" y2="189.308" transform="translate(2154.58 -224.495)" fill="none" stroke="#8dddc4" stroke-miterlimit="10" stroke-width="3.163"/>
                <line id="線_436" data-name="線 436" x1="163.889" y2="189.308" transform="translate(2142.695 -224.495)" fill="none" stroke="#8dddc4" stroke-miterlimit="10" stroke-width="3.163"/>
                <line id="線_437" data-name="線 437" x1="163.889" y2="189.308" transform="translate(2130.809 -224.495)" fill="none" stroke="#8dddc4" stroke-miterlimit="10" stroke-width="3.163"/>
                <line id="線_438" data-name="線 438" x1="163.889" y2="189.308" transform="translate(2118.924 -224.495)" fill="none" stroke="#8dddc4" stroke-miterlimit="10" stroke-width="3.163"/>
                <line id="線_439" data-name="線 439" x1="163.889" y2="189.308" transform="translate(2107.039 -224.495)" fill="none" stroke="#8dddc4" stroke-miterlimit="10" stroke-width="3.163"/>
                <line id="線_440" data-name="線 440" x1="163.889" y2="189.308" transform="translate(2095.153 -224.495)" fill="none" stroke="#8dddc4" stroke-miterlimit="10" stroke-width="3.163"/>
                <line id="線_441" data-name="線 441" x1="163.889" y2="189.308" transform="translate(2083.268 -224.495)" fill="none" stroke="#8dddc4" stroke-miterlimit="10" stroke-width="3.163"/>
                <line id="線_442" data-name="線 442" x1="163.889" y2="189.308" transform="translate(2071.382 -224.495)" fill="none" stroke="#8dddc4" stroke-miterlimit="10" stroke-width="3.163"/>
                <line id="線_443" data-name="線 443" x1="163.889" y2="189.308" transform="translate(2059.497 -224.495)" fill="none" stroke="#8dddc4" stroke-miterlimit="10" stroke-width="3.163"/>
                <line id="線_444" data-name="線 444" x1="163.889" y2="189.308" transform="translate(2047.611 -224.495)" fill="none" stroke="#8dddc4" stroke-miterlimit="10" stroke-width="3.163"/>
                <line id="線_445" data-name="線 445" x1="163.889" y2="189.308" transform="translate(2035.726 -224.495)" fill="none" stroke="#8dddc4" stroke-miterlimit="10" stroke-width="3.163"/>
                <line id="線_446" data-name="線 446" x1="163.889" y2="189.308" transform="translate(2023.841 -224.495)" fill="none" stroke="#8dddc4" stroke-miterlimit="10" stroke-width="3.163"/>
                <line id="線_447" data-name="線 447" x1="163.89" y2="189.308" transform="translate(2011.955 -224.495)" fill="none" stroke="#8dddc4" stroke-miterlimit="10" stroke-width="3.163"/>
                <line id="線_448" data-name="線 448" x1="163.89" y2="189.308" transform="translate(2000.07 -224.495)" fill="none" stroke="#8dddc4" stroke-miterlimit="10" stroke-width="3.163"/>
                <line id="線_449" data-name="線 449" x1="163.89" y2="189.308" transform="translate(1988.184 -224.495)" fill="none" stroke="#8dddc4" stroke-miterlimit="10" stroke-width="3.163"/>
                <line id="線_450" data-name="線 450" x1="163.89" y2="189.308" transform="translate(1976.299 -224.495)" fill="none" stroke="#8dddc4" stroke-miterlimit="10" stroke-width="3.163"/>
                <line id="線_451" data-name="線 451" x1="163.89" y2="189.308" transform="translate(1964.414 -224.495)" fill="none" stroke="#8dddc4" stroke-miterlimit="10" stroke-width="3.163"/>
                <line id="線_452" data-name="線 452" x1="163.89" y2="189.308" transform="translate(1952.528 -224.495)" fill="none" stroke="#8dddc4" stroke-miterlimit="10" stroke-width="3.163"/>
                <line id="線_453" data-name="線 453" x1="163.89" y2="189.308" transform="translate(1940.643 -224.495)" fill="none" stroke="#8dddc4" stroke-miterlimit="10" stroke-width="3.163"/>
                <line id="線_454" data-name="線 454" x1="163.89" y2="189.308" transform="translate(1928.757 -224.495)" fill="none" stroke="#8dddc4" stroke-miterlimit="10" stroke-width="3.163"/>
                <line id="線_455" data-name="線 455" x1="163.89" y2="189.308" transform="translate(1916.872 -224.495)" fill="none" stroke="#8dddc4" stroke-miterlimit="10" stroke-width="3.163"/>
                <line id="線_456" data-name="線 456" x1="163.89" y2="189.308" transform="translate(1904.986 -224.495)" fill="none" stroke="#8dddc4" stroke-miterlimit="10" stroke-width="3.163"/>
                <line id="線_457" data-name="線 457" x1="163.89" y2="189.308" transform="translate(1893.101 -224.495)" fill="none" stroke="#8dddc4" stroke-miterlimit="10" stroke-width="3.163"/>
                <line id="線_458" data-name="線 458" x1="163.89" y2="189.308" transform="translate(1881.216 -224.495)" fill="none" stroke="#8dddc4" stroke-miterlimit="10" stroke-width="3.163"/>
              </g>
            </g>
            <path id="パス_6938" data-name="パス 6938" d="M-347.994,1218.9V1114.235l-81.4-69.774-81.4,69.774V1218.9Z" transform="translate(1410.301 1136.04)" fill="none" stroke="#8dddc4" stroke-linecap="round" stroke-linejoin="round" stroke-width="8"/>
          </g>
          <path id="パス_11918" data-name="パス 11918" d="M-119.52-15.264a36.228,36.228,0,0,1-6.768,9.288l3.924,2.664a58.451,58.451,0,0,0,6.948-10.044Zm20.628-3.2c1.008,0,2.412.036,3.528.108v-4.716a28.636,28.636,0,0,1-3.564.252h-8.352v-2.844a22.141,22.141,0,0,1,.324-3.168h-5.328A23.924,23.924,0,0,1-112-25.7v2.88h-9.144c-1.116,0-2.376-.144-3.456-.252v4.752c1.008-.108,2.376-.144,3.456-.144H-112v.036c0,1.692,0,13.1-.036,14.436-.036.936-.36,1.3-1.3,1.3a23.464,23.464,0,0,1-4-.4l.432,4.428a51.34,51.34,0,0,0,5.832.324c2.556,0,3.78-1.3,3.78-3.384v-16.74Zm-5,5.22A72.766,72.766,0,0,1-98.028-3.6l4.212-2.3a83.682,83.682,0,0,0-6.156-9.468Zm38.016-9.864c1.26,0,2.628.072,3.888.144v-4.644a28.2,28.2,0,0,1-3.888.252H-80.352a26.823,26.823,0,0,1-3.816-.252v4.644c1.08-.072,2.592-.144,3.852-.144ZM-84.924-18.18c-1.116,0-2.376-.108-3.456-.216v4.716c1.008-.072,2.412-.144,3.456-.144h9.9a15.471,15.471,0,0,1-2.232,7.956A14.954,14.954,0,0,1-83.772-.72l4.212,3.06a17.274,17.274,0,0,0,7.236-6.912,22.838,22.838,0,0,0,2.3-9.252h8.676c1.008,0,2.376.036,3.276.108V-18.4a27.7,27.7,0,0,1-3.276.216ZM-48.888,1.584A20.852,20.852,0,0,0-42.48-8.748c.972-3.636,1.08-11.232,1.08-15.48a22.96,22.96,0,0,1,.252-3.24H-46.44a13.14,13.14,0,0,1,.324,3.276c0,4.356-.036,11.16-1.044,14.256a16.983,16.983,0,0,1-6.12,8.6Zm15.264.108A9.178,9.178,0,0,1-32.04.612a39.638,39.638,0,0,0,12.2-9.828l-2.772-3.96A22.8,22.8,0,0,1-31.5-5.58V-24.408a18.28,18.28,0,0,1,.252-3.132h-5.364a15.96,15.96,0,0,1,.288,3.1V-3.456a13.7,13.7,0,0,1-.288,2.664ZM-8.172-6.48c-1.332,0-2.772-1.764-2.772-5.364A11.178,11.178,0,0,1-1.908-22.176a57.224,57.224,0,0,1-1.908,8.64C-5.256-8.712-6.7-6.48-8.172-6.48ZM1.62,1.476c9-1.368,13.608-6.7,13.608-14.184,0-7.776-5.58-13.932-14.4-13.932-9.252,0-16.416,7.056-16.416,15.264,0,6.012,3.348,10.368,7.272,10.368C-4.428-1.008-1.332-5.4.792-12.6a77.476,77.476,0,0,0,2.124-9.684c4.788.828,7.452,4.5,7.452,9.432,0,5.184-3.528,8.46-8.1,9.54-.936.216-1.944.4-3.312.576ZM34.7-5.724c0,2.34-.828,3.384-3.132,3.384-2.484,0-4.284-.648-4.284-2.412,0-1.512,1.656-2.448,4.428-2.448a19.582,19.582,0,0,1,2.952.252C34.7-6.48,34.7-6.048,34.7-5.724ZM50.112-4.068a28.191,28.191,0,0,0-10.836-6.12c-.18-2.628-.324-5.436-.4-7.6,2.88-.072,7.128-.216,10.116-.5l-.18-4.248c-2.952.324-7.128.468-9.936.54v-2.592c.072-1.4.18-3.132.324-4.176H33.84a22.619,22.619,0,0,1,.36,4.176c.036,1.512.072,3.636.072,5.8,0,1.872.144,4.932.252,7.7A20.459,20.459,0,0,0,32.4-11.2c-6.552,0-9.72,2.952-9.72,6.66,0,4.86,4.176,6.516,9.252,6.516,5.976,0,7.6-3.024,7.6-6.156,0-.36,0-.756-.036-1.224A27.536,27.536,0,0,1,47.376.18Zm29.88-7.776c0,5.58-5.652,8.46-14.508,9.468l2.592,4.464c9.9-1.368,16.956-6.12,16.956-13.752,0-5.58-3.96-8.784-9.612-8.784a49.388,49.388,0,0,0-10.764,1.62,34.954,34.954,0,0,1-3.888.612L62.1-13.14c1.044-.36,2.412-.9,3.456-1.224a31.988,31.988,0,0,1,9.288-1.728C78.192-16.128,79.992-14.184,79.992-11.844ZM66.024-28.98l-.72,4.32c4.1.72,11.844,1.4,16.02,1.692l.72-4.392A100.7,100.7,0,0,1,66.024-28.98Zm60.12,9.324a64.149,64.149,0,0,0-8.784-4.824l-2.3,3.528a47.533,47.533,0,0,1,8.568,5.076Zm-13.428-5.472a37.656,37.656,0,0,1-4.788,1.116c.5-1.908.936-3.708,1.224-4.86l-4.932-.5a30.354,30.354,0,0,1-.972,5.976c-1.08.072-2.16.108-3.2.108a45.317,45.317,0,0,1-4.752-.252l.324,4.176c1.548.072,2.988.108,4.464.108.612,0,1.224,0,1.836-.036A54.394,54.394,0,0,1,94.644-6.7L99-4.5a65.808,65.808,0,0,0,7.632-15.264,52.244,52.244,0,0,0,6.192-1.224Zm.864,19.836c0,1.908-.792,3.312-3.2,3.312-1.944,0-3.06-.9-3.06-2.232,0-1.26,1.332-2.124,3.384-2.124a12.617,12.617,0,0,1,2.88.36ZM113-17.784c.108,2.16.288,5.292.4,7.956-.756-.072-1.584-.144-2.412-.144-4.968,0-7.884,2.7-7.884,6.192,0,3.924,3.492,5.9,7.92,5.9,5.076,0,6.876-2.592,6.876-5.9V-4.1a31.737,31.737,0,0,1,4.824,3.78L125.1-4.14a23.75,23.75,0,0,0-7.38-4.572c-.108-1.764-.18-3.492-.216-4.5-.036-1.584-.108-3.06,0-4.572ZM-20.232,36.94h-14.22V32.728h12.1v-4.1h-12.1V23.908A84.818,84.818,0,0,0-23.508,22l-3.1-3.564c-5.9,1.548-15.768,2.52-24.444,2.88a14.335,14.335,0,0,1,1.08,3.78c3.528-.144,7.308-.36,11.052-.684v4.212H-50.688v4.1h11.772V36.94h-14.22v4.176h14.22v5.8c0,.72-.324.972-1.152,1.008-.792,0-3.816,0-6.48-.108a16.608,16.608,0,0,1,1.764,4.248c3.672.036,6.264-.072,7.992-.72,1.692-.684,2.34-1.8,2.34-4.356V41.116h14.22ZM9.684,43.06h5.544v-3.6H9.684v-4H5.436v4H0v3.6H5.436v4.5H-1.908v3.78H16.848V47.56H9.684ZM10.62,23.8a17.287,17.287,0,0,1-3.132,4.536A17.389,17.389,0,0,1,4.5,23.8ZM-4.824,32.692H-7.488v-2.16h2.664Zm0,4.932H-7.488v-2.2h2.664Zm-8.136-2.2H-10.4v2.2H-12.96Zm0-4.9H-10.4v2.16H-12.96ZM13.212,19.984l-.72.144H-.432V23.8H3.744L.9,24.556a23.788,23.788,0,0,0,3.708,6.228A21.51,21.51,0,0,1-1.62,33.7V27.58h-5.4V25.6h5.652V21.892H-7.02V18.508h-3.816v3.384H-16.38V25.6h5.544v1.98H-16.02v13h5.184v2.16h-5.976V46.48h5.976v5.652H-7.02V46.48h5.94V42.736H-7.02v-2.16h5.4V34.744A18.621,18.621,0,0,1-.072,37.3a26.709,26.709,0,0,0,7.6-3.744,21.176,21.176,0,0,0,7.272,3.6A14.816,14.816,0,0,1,17.352,33.7a21.617,21.617,0,0,1-6.768-2.808,22.883,22.883,0,0,0,5.364-9.864ZM25.56,37.3a24.164,24.164,0,0,0-1.008,5.868c0,4.968,3.852,7.668,11.016,7.668a49.962,49.962,0,0,0,9.612-.864l.108-4.716a39.418,39.418,0,0,1-9.72,1.044c-5.04,0-6.372-1.764-6.372-4.356a16,16,0,0,1,.972-4.248Zm23.256-14a52.153,52.153,0,0,1-6.984,1.8c-.792-1.872-1.476-3.564-2.088-5.436l-5.04.972a27.675,27.675,0,0,1,1.764,3.42c.216.54.468,1.116.756,1.692a60.739,60.739,0,0,1-13.32-.36l.144,4.572a80.1,80.1,0,0,0,15.012,0c1.044,2.232,2.268,4.716,3.132,6.516-1.08-.072-3.024-.288-4.212-.4l-.4,3.672c2.628.324,6.156.9,8.1,1.3l2.52-2.7c-1.548-2.844-3.24-6.228-4.608-9.108,2.16-.432,4.248-.936,6.048-1.44Z" transform="translate(420 2308)"/>
        </g>
        <path id="パス_11922" data-name="パス 11922" d="M16.33-19.78H2.346V-33.764H-2.346V-19.78H-16.33v4.692H-2.346V-1.1H2.346V-15.088H16.33Z" transform="translate(683 2334)" fill="#02835b"/>
        <g id="グループ_2285" data-name="グループ 2285" transform="translate(-82 10)">
          <g id="グループ_2280" data-name="グループ 2280" transform="translate(2 28)" opacity="0.893">
            <g id="マスクグループ_29-2" data-name="マスクグループ 29" transform="translate(-672.448 138.326)" clip-path="url(#clip-path)">
              <g id="グループ_2271-2" data-name="グループ 2271" transform="translate(-787.352 2259.163)">
                <line id="線_357-2" data-name="線 357" x1="163.885" y2="189.308" transform="translate(3081.641 -224.495)" fill="none" stroke="#8dddc4" stroke-miterlimit="10" stroke-width="3.163"/>
                <line id="線_358-2" data-name="線 358" x1="163.885" y2="189.308" transform="translate(3069.756 -224.495)" fill="none" stroke="#8dddc4" stroke-miterlimit="10" stroke-width="3.163"/>
                <line id="線_359-2" data-name="線 359" x1="163.885" y2="189.308" transform="translate(3057.871 -224.495)" fill="none" stroke="#8dddc4" stroke-miterlimit="10" stroke-width="3.163"/>
                <line id="線_360-2" data-name="線 360" x1="163.885" y2="189.308" transform="translate(3045.985 -224.495)" fill="none" stroke="#8dddc4" stroke-miterlimit="10" stroke-width="3.163"/>
                <line id="線_361-2" data-name="線 361" x1="163.885" y2="189.308" transform="translate(3034.1 -224.495)" fill="none" stroke="#8dddc4" stroke-miterlimit="10" stroke-width="3.163"/>
                <line id="線_362-2" data-name="線 362" x1="163.885" y2="189.308" transform="translate(3022.214 -224.495)" fill="none" stroke="#8dddc4" stroke-miterlimit="10" stroke-width="3.163"/>
                <line id="線_363-2" data-name="線 363" x1="163.885" y2="189.308" transform="translate(3010.329 -224.495)" fill="none" stroke="#8dddc4" stroke-miterlimit="10" stroke-width="3.163"/>
                <line id="線_364-2" data-name="線 364" x1="163.885" y2="189.308" transform="translate(2998.444 -224.495)" fill="none" stroke="#8dddc4" stroke-miterlimit="10" stroke-width="3.163"/>
                <line id="線_365-2" data-name="線 365" x1="163.885" y2="189.308" transform="translate(2986.558 -224.495)" fill="none" stroke="#8dddc4" stroke-miterlimit="10" stroke-width="3.163"/>
                <line id="線_366-2" data-name="線 366" x1="163.885" y2="189.308" transform="translate(2974.673 -224.495)" fill="none" stroke="#8dddc4" stroke-miterlimit="10" stroke-width="3.163"/>
                <line id="線_367-2" data-name="線 367" x1="163.885" y2="189.308" transform="translate(2962.787 -224.495)" fill="none" stroke="#8dddc4" stroke-miterlimit="10" stroke-width="3.163"/>
                <line id="線_368-2" data-name="線 368" x1="163.885" y2="189.308" transform="translate(2950.902 -224.495)" fill="none" stroke="#8dddc4" stroke-miterlimit="10" stroke-width="3.163"/>
                <line id="線_369-2" data-name="線 369" x1="163.885" y2="189.308" transform="translate(2939.017 -224.495)" fill="none" stroke="#8dddc4" stroke-miterlimit="10" stroke-width="3.163"/>
                <line id="線_370-2" data-name="線 370" x1="163.885" y2="189.308" transform="translate(2927.131 -224.495)" fill="none" stroke="#8dddc4" stroke-miterlimit="10" stroke-width="3.163"/>
                <line id="線_371-2" data-name="線 371" x1="163.885" y2="189.308" transform="translate(2915.246 -224.495)" fill="none" stroke="#8dddc4" stroke-miterlimit="10" stroke-width="3.163"/>
                <line id="線_372-2" data-name="線 372" x1="163.885" y2="189.308" transform="translate(2903.36 -224.495)" fill="none" stroke="#8dddc4" stroke-miterlimit="10" stroke-width="3.163"/>
                <line id="線_373-2" data-name="線 373" x1="163.886" y2="189.308" transform="translate(2891.475 -224.495)" fill="none" stroke="#8dddc4" stroke-miterlimit="10" stroke-width="3.163"/>
                <line id="線_374-2" data-name="線 374" x1="163.886" y2="189.308" transform="translate(2879.59 -224.495)" fill="none" stroke="#8dddc4" stroke-miterlimit="10" stroke-width="3.163"/>
                <line id="線_375-2" data-name="線 375" x1="163.886" y2="189.308" transform="translate(2867.704 -224.495)" fill="none" stroke="#8dddc4" stroke-miterlimit="10" stroke-width="3.163"/>
                <line id="線_376-2" data-name="線 376" x1="163.886" y2="189.308" transform="translate(2855.819 -224.495)" fill="none" stroke="#8dddc4" stroke-miterlimit="10" stroke-width="3.163"/>
                <line id="線_377-2" data-name="線 377" x1="163.886" y2="189.308" transform="translate(2843.933 -224.495)" fill="none" stroke="#8dddc4" stroke-miterlimit="10" stroke-width="3.163"/>
                <line id="線_378-2" data-name="線 378" x1="163.886" y2="189.308" transform="translate(2832.048 -224.495)" fill="none" stroke="#8dddc4" stroke-miterlimit="10" stroke-width="3.163"/>
                <line id="線_379-2" data-name="線 379" x1="163.886" y2="189.308" transform="translate(2820.162 -224.495)" fill="none" stroke="#8dddc4" stroke-miterlimit="10" stroke-width="3.163"/>
                <line id="線_380-2" data-name="線 380" x1="163.886" y2="189.308" transform="translate(2808.277 -224.495)" fill="none" stroke="#8dddc4" stroke-miterlimit="10" stroke-width="3.163"/>
                <line id="線_381-2" data-name="線 381" x1="163.886" y2="189.308" transform="translate(2796.392 -224.495)" fill="none" stroke="#8dddc4" stroke-miterlimit="10" stroke-width="3.163"/>
                <line id="線_382-2" data-name="線 382" x1="163.886" y2="189.308" transform="translate(2784.506 -224.495)" fill="none" stroke="#8dddc4" stroke-miterlimit="10" stroke-width="3.163"/>
                <line id="線_383-2" data-name="線 383" x1="163.886" y2="189.308" transform="translate(2772.621 -224.495)" fill="none" stroke="#8dddc4" stroke-miterlimit="10" stroke-width="3.163"/>
                <line id="線_384-2" data-name="線 384" x1="163.886" y2="189.308" transform="translate(2760.736 -224.495)" fill="none" stroke="#8dddc4" stroke-miterlimit="10" stroke-width="3.163"/>
                <line id="線_385-2" data-name="線 385" x1="163.886" y2="189.308" transform="translate(2748.85 -224.495)" fill="none" stroke="#8dddc4" stroke-miterlimit="10" stroke-width="3.163"/>
                <line id="線_386-2" data-name="線 386" x1="163.886" y2="189.308" transform="translate(2736.965 -224.495)" fill="none" stroke="#8dddc4" stroke-miterlimit="10" stroke-width="3.163"/>
                <line id="線_387-2" data-name="線 387" x1="163.886" y2="189.308" transform="translate(2725.079 -224.495)" fill="none" stroke="#8dddc4" stroke-miterlimit="10" stroke-width="3.163"/>
                <line id="線_388-2" data-name="線 388" x1="163.886" y2="189.308" transform="translate(2713.194 -224.495)" fill="none" stroke="#8dddc4" stroke-miterlimit="10" stroke-width="3.163"/>
                <line id="線_389-2" data-name="線 389" x1="163.886" y2="189.308" transform="translate(2701.309 -224.495)" fill="none" stroke="#8dddc4" stroke-miterlimit="10" stroke-width="3.163"/>
                <line id="線_390-2" data-name="線 390" x1="163.886" y2="189.308" transform="translate(2689.423 -224.495)" fill="none" stroke="#8dddc4" stroke-miterlimit="10" stroke-width="3.163"/>
                <line id="線_391-2" data-name="線 391" x1="163.886" y2="189.308" transform="translate(2677.538 -224.495)" fill="none" stroke="#8dddc4" stroke-miterlimit="10" stroke-width="3.163"/>
                <line id="線_392-2" data-name="線 392" x1="163.887" y2="189.308" transform="translate(2665.652 -224.495)" fill="none" stroke="#8dddc4" stroke-miterlimit="10" stroke-width="3.163"/>
                <line id="線_393-2" data-name="線 393" x1="163.887" y2="189.308" transform="translate(2653.767 -224.495)" fill="none" stroke="#8dddc4" stroke-miterlimit="10" stroke-width="3.163"/>
                <line id="線_394-2" data-name="線 394" x1="163.887" y2="189.308" transform="translate(2641.881 -224.495)" fill="none" stroke="#8dddc4" stroke-miterlimit="10" stroke-width="3.163"/>
                <line id="線_395-2" data-name="線 395" x1="163.887" y2="189.308" transform="translate(2629.996 -224.495)" fill="none" stroke="#8dddc4" stroke-miterlimit="10" stroke-width="3.163"/>
                <line id="線_396-2" data-name="線 396" x1="163.887" y2="189.308" transform="translate(2618.111 -224.495)" fill="none" stroke="#8dddc4" stroke-miterlimit="10" stroke-width="3.163"/>
                <line id="線_397-2" data-name="線 397" x1="163.887" y2="189.308" transform="translate(2606.225 -224.495)" fill="none" stroke="#8dddc4" stroke-miterlimit="10" stroke-width="3.163"/>
                <line id="線_398-2" data-name="線 398" x1="163.887" y2="189.308" transform="translate(2594.34 -224.495)" fill="none" stroke="#8dddc4" stroke-miterlimit="10" stroke-width="3.163"/>
                <line id="線_399-2" data-name="線 399" x1="163.887" y2="189.308" transform="translate(2582.455 -224.495)" fill="none" stroke="#8dddc4" stroke-miterlimit="10" stroke-width="3.163"/>
                <line id="線_400-2" data-name="線 400" x1="163.887" y2="189.308" transform="translate(2570.569 -224.495)" fill="none" stroke="#8dddc4" stroke-miterlimit="10" stroke-width="3.163"/>
                <line id="線_401-2" data-name="線 401" x1="163.887" y2="189.308" transform="translate(2558.684 -224.495)" fill="none" stroke="#8dddc4" stroke-miterlimit="10" stroke-width="3.163"/>
                <line id="線_402-2" data-name="線 402" x1="163.887" y2="189.308" transform="translate(2546.798 -224.495)" fill="none" stroke="#8dddc4" stroke-miterlimit="10" stroke-width="3.163"/>
                <line id="線_403-2" data-name="線 403" x1="163.887" y2="189.308" transform="translate(2534.913 -224.495)" fill="none" stroke="#8dddc4" stroke-miterlimit="10" stroke-width="3.163"/>
                <line id="線_404-2" data-name="線 404" x1="163.887" y2="189.308" transform="translate(2523.027 -224.495)" fill="none" stroke="#8dddc4" stroke-miterlimit="10" stroke-width="3.163"/>
                <line id="線_405-2" data-name="線 405" x1="163.887" y2="189.308" transform="translate(2511.142 -224.495)" fill="none" stroke="#8dddc4" stroke-miterlimit="10" stroke-width="3.163"/>
                <line id="線_406-2" data-name="線 406" x1="163.887" y2="189.308" transform="translate(2499.257 -224.495)" fill="none" stroke="#8dddc4" stroke-miterlimit="10" stroke-width="3.163"/>
                <line id="線_407-2" data-name="線 407" x1="163.887" y2="189.308" transform="translate(2487.371 -224.495)" fill="none" stroke="#8dddc4" stroke-miterlimit="10" stroke-width="3.163"/>
                <line id="線_408-2" data-name="線 408" x1="163.887" y2="189.308" transform="translate(2475.486 -224.495)" fill="none" stroke="#8dddc4" stroke-miterlimit="10" stroke-width="3.163"/>
                <line id="線_409-2" data-name="線 409" x1="163.887" y2="189.308" transform="translate(2463.6 -224.495)" fill="none" stroke="#8dddc4" stroke-miterlimit="10" stroke-width="3.163"/>
                <line id="線_410-2" data-name="線 410" x1="163.888" y2="189.308" transform="translate(2451.715 -224.495)" fill="none" stroke="#8dddc4" stroke-miterlimit="10" stroke-width="3.163"/>
                <line id="線_411-2" data-name="線 411" x1="163.888" y2="189.308" transform="translate(2439.83 -224.495)" fill="none" stroke="#8dddc4" stroke-miterlimit="10" stroke-width="3.163"/>
                <line id="線_412-2" data-name="線 412" x1="163.888" y2="189.308" transform="translate(2427.944 -224.495)" fill="none" stroke="#8dddc4" stroke-miterlimit="10" stroke-width="3.163"/>
                <line id="線_413-2" data-name="線 413" x1="163.888" y2="189.308" transform="translate(2416.059 -224.495)" fill="none" stroke="#8dddc4" stroke-miterlimit="10" stroke-width="3.163"/>
                <line id="線_414-2" data-name="線 414" x1="163.888" y2="189.308" transform="translate(2404.174 -224.495)" fill="none" stroke="#8dddc4" stroke-miterlimit="10" stroke-width="3.163"/>
                <line id="線_415-2" data-name="線 415" x1="163.888" y2="189.308" transform="translate(2392.288 -224.495)" fill="none" stroke="#8dddc4" stroke-miterlimit="10" stroke-width="3.163"/>
                <line id="線_416-2" data-name="線 416" x1="163.888" y2="189.308" transform="translate(2380.403 -224.495)" fill="none" stroke="#8dddc4" stroke-miterlimit="10" stroke-width="3.163"/>
                <line id="線_417-2" data-name="線 417" x1="163.888" y2="189.308" transform="translate(2368.517 -224.495)" fill="none" stroke="#8dddc4" stroke-miterlimit="10" stroke-width="3.163"/>
                <line id="線_418-2" data-name="線 418" x1="163.888" y2="189.308" transform="translate(2356.632 -224.495)" fill="none" stroke="#8dddc4" stroke-miterlimit="10" stroke-width="3.163"/>
                <line id="線_419-2" data-name="線 419" x1="163.888" y2="189.308" transform="translate(2344.746 -224.495)" fill="none" stroke="#8dddc4" stroke-miterlimit="10" stroke-width="3.163"/>
                <line id="線_420-2" data-name="線 420" x1="163.888" y2="189.308" transform="translate(2332.861 -224.495)" fill="none" stroke="#8dddc4" stroke-miterlimit="10" stroke-width="3.163"/>
                <path id="パス_6937-2" data-name="パス 6937" d="M163.888,0,0,189.308" transform="translate(2320.976 -224.495)" fill="none" stroke="#8dddc4" stroke-width="3.163"/>
                <line id="線_422-2" data-name="線 422" x1="163.888" y2="189.308" transform="translate(2309.09 -224.495)" fill="none" stroke="#8dddc4" stroke-miterlimit="10" stroke-width="3.163"/>
                <line id="線_423-2" data-name="線 423" x1="163.888" y2="189.308" transform="translate(2297.205 -224.495)" fill="none" stroke="#8dddc4" stroke-miterlimit="10" stroke-width="3.163"/>
                <line id="線_424-2" data-name="線 424" x1="163.888" y2="189.308" transform="translate(2285.32 -224.495)" fill="none" stroke="#8dddc4" stroke-miterlimit="10" stroke-width="3.163"/>
                <line id="線_425-2" data-name="線 425" x1="163.888" y2="189.308" transform="translate(2273.434 -224.495)" fill="none" stroke="#8dddc4" stroke-miterlimit="10" stroke-width="3.163"/>
                <line id="線_426-2" data-name="線 426" x1="163.888" y2="189.308" transform="translate(2261.549 -224.495)" fill="none" stroke="#8dddc4" stroke-miterlimit="10" stroke-width="3.163"/>
                <line id="線_427-2" data-name="線 427" x1="163.888" y2="189.308" transform="translate(2249.663 -224.495)" fill="none" stroke="#8dddc4" stroke-miterlimit="10" stroke-width="3.163"/>
                <line id="線_428-2" data-name="線 428" x1="163.888" y2="189.308" transform="translate(2237.778 -224.495)" fill="none" stroke="#8dddc4" stroke-miterlimit="10" stroke-width="3.163"/>
                <line id="線_429-2" data-name="線 429" x1="163.889" y2="189.308" transform="translate(2225.892 -224.495)" fill="none" stroke="#8dddc4" stroke-miterlimit="10" stroke-width="3.163"/>
                <line id="線_430-2" data-name="線 430" x1="163.889" y2="189.308" transform="translate(2214.007 -224.495)" fill="none" stroke="#8dddc4" stroke-miterlimit="10" stroke-width="3.163"/>
                <line id="線_431-2" data-name="線 431" x1="163.889" y2="189.308" transform="translate(2202.122 -224.495)" fill="none" stroke="#8dddc4" stroke-miterlimit="10" stroke-width="3.163"/>
                <line id="線_432-2" data-name="線 432" x1="163.889" y2="189.308" transform="translate(2190.236 -224.495)" fill="none" stroke="#8dddc4" stroke-miterlimit="10" stroke-width="3.163"/>
                <line id="線_433-2" data-name="線 433" x1="163.889" y2="189.308" transform="translate(2178.351 -224.495)" fill="none" stroke="#8dddc4" stroke-miterlimit="10" stroke-width="3.163"/>
                <line id="線_434-2" data-name="線 434" x1="163.889" y2="189.308" transform="translate(2166.465 -224.495)" fill="none" stroke="#8dddc4" stroke-miterlimit="10" stroke-width="3.163"/>
                <line id="線_435-2" data-name="線 435" x1="163.889" y2="189.308" transform="translate(2154.58 -224.495)" fill="none" stroke="#8dddc4" stroke-miterlimit="10" stroke-width="3.163"/>
                <line id="線_436-2" data-name="線 436" x1="163.889" y2="189.308" transform="translate(2142.695 -224.495)" fill="none" stroke="#8dddc4" stroke-miterlimit="10" stroke-width="3.163"/>
                <line id="線_437-2" data-name="線 437" x1="163.889" y2="189.308" transform="translate(2130.809 -224.495)" fill="none" stroke="#8dddc4" stroke-miterlimit="10" stroke-width="3.163"/>
                <line id="線_438-2" data-name="線 438" x1="163.889" y2="189.308" transform="translate(2118.924 -224.495)" fill="none" stroke="#8dddc4" stroke-miterlimit="10" stroke-width="3.163"/>
                <line id="線_439-2" data-name="線 439" x1="163.889" y2="189.308" transform="translate(2107.039 -224.495)" fill="none" stroke="#8dddc4" stroke-miterlimit="10" stroke-width="3.163"/>
                <line id="線_440-2" data-name="線 440" x1="163.889" y2="189.308" transform="translate(2095.153 -224.495)" fill="none" stroke="#8dddc4" stroke-miterlimit="10" stroke-width="3.163"/>
                <line id="線_441-2" data-name="線 441" x1="163.889" y2="189.308" transform="translate(2083.268 -224.495)" fill="none" stroke="#8dddc4" stroke-miterlimit="10" stroke-width="3.163"/>
                <line id="線_442-2" data-name="線 442" x1="163.889" y2="189.308" transform="translate(2071.382 -224.495)" fill="none" stroke="#8dddc4" stroke-miterlimit="10" stroke-width="3.163"/>
                <line id="線_443-2" data-name="線 443" x1="163.889" y2="189.308" transform="translate(2059.497 -224.495)" fill="none" stroke="#8dddc4" stroke-miterlimit="10" stroke-width="3.163"/>
                <line id="線_444-2" data-name="線 444" x1="163.889" y2="189.308" transform="translate(2047.611 -224.495)" fill="none" stroke="#8dddc4" stroke-miterlimit="10" stroke-width="3.163"/>
                <line id="線_445-2" data-name="線 445" x1="163.889" y2="189.308" transform="translate(2035.726 -224.495)" fill="none" stroke="#8dddc4" stroke-miterlimit="10" stroke-width="3.163"/>
                <line id="線_446-2" data-name="線 446" x1="163.889" y2="189.308" transform="translate(2023.841 -224.495)" fill="none" stroke="#8dddc4" stroke-miterlimit="10" stroke-width="3.163"/>
                <line id="線_447-2" data-name="線 447" x1="163.89" y2="189.308" transform="translate(2011.955 -224.495)" fill="none" stroke="#8dddc4" stroke-miterlimit="10" stroke-width="3.163"/>
                <line id="線_448-2" data-name="線 448" x1="163.89" y2="189.308" transform="translate(2000.07 -224.495)" fill="none" stroke="#8dddc4" stroke-miterlimit="10" stroke-width="3.163"/>
                <line id="線_449-2" data-name="線 449" x1="163.89" y2="189.308" transform="translate(1988.184 -224.495)" fill="none" stroke="#8dddc4" stroke-miterlimit="10" stroke-width="3.163"/>
                <line id="線_450-2" data-name="線 450" x1="163.89" y2="189.308" transform="translate(1976.299 -224.495)" fill="none" stroke="#8dddc4" stroke-miterlimit="10" stroke-width="3.163"/>
                <line id="線_451-2" data-name="線 451" x1="163.89" y2="189.308" transform="translate(1964.414 -224.495)" fill="none" stroke="#8dddc4" stroke-miterlimit="10" stroke-width="3.163"/>
                <line id="線_452-2" data-name="線 452" x1="163.89" y2="189.308" transform="translate(1952.528 -224.495)" fill="none" stroke="#8dddc4" stroke-miterlimit="10" stroke-width="3.163"/>
                <line id="線_453-2" data-name="線 453" x1="163.89" y2="189.308" transform="translate(1940.643 -224.495)" fill="none" stroke="#8dddc4" stroke-miterlimit="10" stroke-width="3.163"/>
                <line id="線_454-2" data-name="線 454" x1="163.89" y2="189.308" transform="translate(1928.757 -224.495)" fill="none" stroke="#8dddc4" stroke-miterlimit="10" stroke-width="3.163"/>
                <line id="線_455-2" data-name="線 455" x1="163.89" y2="189.308" transform="translate(1916.872 -224.495)" fill="none" stroke="#8dddc4" stroke-miterlimit="10" stroke-width="3.163"/>
                <line id="線_456-2" data-name="線 456" x1="163.89" y2="189.308" transform="translate(1904.986 -224.495)" fill="none" stroke="#8dddc4" stroke-miterlimit="10" stroke-width="3.163"/>
                <line id="線_457-2" data-name="線 457" x1="163.89" y2="189.308" transform="translate(1893.101 -224.495)" fill="none" stroke="#8dddc4" stroke-miterlimit="10" stroke-width="3.163"/>
                <line id="線_458-2" data-name="線 458" x1="163.89" y2="189.308" transform="translate(1881.216 -224.495)" fill="none" stroke="#8dddc4" stroke-miterlimit="10" stroke-width="3.163"/>
              </g>
            </g>
            <path id="パス_6938-2" data-name="パス 6938" d="M-347.994,1218.9V1114.235l-81.4-69.774-81.4,69.774V1218.9Z" transform="translate(1410.301 1136.04)" fill="none" stroke="#8dddc4" stroke-linecap="round" stroke-linejoin="round" stroke-width="8"/>
          </g>
          <path id="パス_11919" data-name="パス 11919" d="M-162.18-25.056h-8.46v2.988h8.46v1.656h-7.272v2.952h19.332v-2.952h-7.956v-1.656h9.144v-2.988h-9.144v-1.728c2.664-.216,5.184-.5,7.308-.9l-2.16-2.628a123.91,123.91,0,0,1-15.948,1.368,10.57,10.57,0,0,1,.828,2.628c1.872-.036,3.852-.072,5.868-.18Zm-14.112,7.848h4.032V-25.6a27.736,27.736,0,0,0,3.132-3.456l-3.888-1.44a26.081,26.081,0,0,1-9.252,7.02,25.378,25.378,0,0,1,3.1,3.132,30.561,30.561,0,0,0,2.88-1.908ZM-172.4-6.264h15.516v1.476H-172.4Zm0-3.744h15.516v1.44H-172.4Zm0-3.708h15.516v1.4H-172.4ZM-152.532-2.34V-16.164h-24.012V-2.34h4.824A48.875,48.875,0,0,1-181.26.18a27.662,27.662,0,0,1,3.1,3.06,46.009,46.009,0,0,0,11.232-4.284l-2.844-1.3h9.972l-3.1,1.692a65.242,65.242,0,0,1,9.216,3.78l5.148-1.908c-2.34-1.008-6.156-2.448-9.648-3.564Zm14.076-16.092h4.1v-7.632a25.612,25.612,0,0,0,3.06-3.24l-3.888-1.476c-2.3,2.916-6.3,5.58-10.188,7.272a22.073,22.073,0,0,1,3.024,3.06,41.813,41.813,0,0,0,3.888-2.376Zm2.664,11.376h15.624v1.584h-15.624Zm0-3.96h15.624v1.548h-15.624Zm0-3.96h15.624v1.548h-15.624Zm19.944,12.06V-17.46c2.484-.144,3.6-1.08,4.068-4.68a9.269,9.269,0,0,1-3.132-1.476c-.18,1.836-.432,2.412-1.368,2.448a8.475,8.475,0,0,1-5.688-2.556l9.792-.576-.324-3.1-3.708.216,1.26-1.4A24.519,24.519,0,0,0-121.14-30.6l-1.908,2.052a34.3,34.3,0,0,1,4.464,1.512l-5.616.324a11.905,11.905,0,0,1-1.188-3.78h-4a19.1,19.1,0,0,0,.936,4l-4.86.288.324,3.168,6.084-.36a12.865,12.865,0,0,0,9.216,5.868h-22.248V-2.916h5.292a42.272,42.272,0,0,1-9.9,3.024,43.418,43.418,0,0,1,3.168,3.132A44.609,44.609,0,0,0-130.14-1.476l-3.276-1.44H-122.9l-3.24,1.872a70.984,70.984,0,0,1,9.36,4.248l4.968-1.908c-2.448-1.188-6.588-2.916-10.26-4.212Zm20.88-16.6a19.957,19.957,0,0,1,.252,3.24c0,5.9-.864,9.72-5.436,12.888a14.225,14.225,0,0,1-3.78,1.98l4.176,3.42c9.828-5.256,10.008-12.6,10.008-21.528Zm17.028-7.524a17.935,17.935,0,0,1-3.636.324h-19.4a28.54,28.54,0,0,1-4.392-.36v5c1.692-.144,2.88-.252,4.392-.252h18.756a21.409,21.409,0,0,1-6.624,6.7l3.708,2.988c3.564-2.52,6.984-7.056,8.676-9.864a18.126,18.126,0,0,1,1.4-1.872ZM-44.6-25.884a2.09,2.09,0,0,1,2.088-2.088,2.09,2.09,0,0,1,2.088,2.088,2.082,2.082,0,0,1-2.088,2.052A2.082,2.082,0,0,1-44.6-25.884Zm-2.232,0a4.325,4.325,0,0,0,4.32,4.284,4.325,4.325,0,0,0,4.32-4.284,4.333,4.333,0,0,0-4.32-4.32A4.333,4.333,0,0,0-46.836-25.884ZM-66.528-11.2A43.373,43.373,0,0,1-72.144-1.188L-67.1.936a49.5,49.5,0,0,0,5.328-10.3A90.017,90.017,0,0,0-58.716-20.2c.144-.792.54-2.556.864-3.6l-5.256-1.08A51.873,51.873,0,0,1-66.528-11.2Zm17.784-.756A111.235,111.235,0,0,1-45,.756l5.328-1.728c-1.008-3.564-2.916-9.324-4.212-12.564-1.332-3.492-3.816-9-5.292-11.808L-53.964-23.8A100.847,100.847,0,0,1-48.744-11.952Zm15.336.936c1.332-.108,3.744-.18,5.8-.18H-8.28c1.512,0,3.348.144,4.212.18v-5.652c-.936.072-2.556.216-4.212.216H-27.612c-1.872,0-4.5-.108-5.8-.216Zm64.692-2.232a117.577,117.577,0,0,0-15.048-5.58V-24.12a39.151,39.151,0,0,1,.324-4.356H10.944a25.108,25.108,0,0,1,.36,4.356V-3.456a38.521,38.521,0,0,1-.36,5H16.56c-.144-1.44-.324-3.96-.324-5V-13.644a103.981,103.981,0,0,1,13,5.364ZM46.548-6.48c-1.332,0-2.772-1.764-2.772-5.364a11.178,11.178,0,0,1,9.036-10.332,57.224,57.224,0,0,1-1.908,8.64C49.464-8.712,48.024-6.48,46.548-6.48ZM56.34,1.476c9-1.368,13.608-6.7,13.608-14.184,0-7.776-5.58-13.932-14.4-13.932-9.252,0-16.416,7.056-16.416,15.264,0,6.012,3.348,10.368,7.272,10.368,3.888,0,6.984-4.392,9.108-11.592a77.476,77.476,0,0,0,2.124-9.684c4.788.828,7.452,4.5,7.452,9.432,0,5.184-3.528,8.46-8.1,9.54-.936.216-1.944.4-3.312.576Zm33.084-7.2c0,2.34-.828,3.384-3.132,3.384-2.484,0-4.284-.648-4.284-2.412,0-1.512,1.656-2.448,4.428-2.448a19.582,19.582,0,0,1,2.952.252C89.424-6.48,89.424-6.048,89.424-5.724Zm15.408,1.656A28.191,28.191,0,0,0,94-10.188c-.18-2.628-.324-5.436-.4-7.6,2.88-.072,7.128-.216,10.116-.5l-.18-4.248c-2.952.324-7.128.468-9.936.54v-2.592c.072-1.4.18-3.132.324-4.176H88.56a22.619,22.619,0,0,1,.36,4.176c.036,1.512.072,3.636.072,5.8,0,1.872.144,4.932.252,7.7A20.458,20.458,0,0,0,87.12-11.2c-6.552,0-9.72,2.952-9.72,6.66,0,4.86,4.176,6.516,9.252,6.516,5.976,0,7.6-3.024,7.6-6.156,0-.36,0-.756-.036-1.224A27.536,27.536,0,0,1,102.1.18Zm29.88-7.776c0,5.58-5.652,8.46-14.508,9.468L122.8,2.088c9.9-1.368,16.956-6.12,16.956-13.752,0-5.58-3.96-8.784-9.612-8.784a49.388,49.388,0,0,0-10.764,1.62,34.954,34.954,0,0,1-3.888.612l1.332,5.076c1.044-.36,2.412-.9,3.456-1.224a31.988,31.988,0,0,1,9.288-1.728C132.912-16.128,134.712-14.184,134.712-11.844ZM120.744-28.98l-.72,4.32c4.1.72,11.844,1.4,16.02,1.692l.72-4.392A100.7,100.7,0,0,1,120.744-28.98Zm60.12,9.324a64.15,64.15,0,0,0-8.784-4.824l-2.3,3.528a47.533,47.533,0,0,1,8.568,5.076Zm-13.428-5.472a37.656,37.656,0,0,1-4.788,1.116c.5-1.908.936-3.708,1.224-4.86l-4.932-.5a30.354,30.354,0,0,1-.972,5.976c-1.08.072-2.16.108-3.2.108a45.317,45.317,0,0,1-4.752-.252l.324,4.176c1.548.072,2.988.108,4.464.108.612,0,1.224,0,1.836-.036a54.394,54.394,0,0,1-7.272,12.6l4.356,2.2a65.808,65.808,0,0,0,7.632-15.264,52.244,52.244,0,0,0,6.192-1.224ZM168.3-5.292c0,1.908-.792,3.312-3.2,3.312-1.944,0-3.06-.9-3.06-2.232,0-1.26,1.332-2.124,3.384-2.124a12.617,12.617,0,0,1,2.88.36Zm-.576-12.492c.108,2.16.288,5.292.4,7.956-.756-.072-1.584-.144-2.412-.144-4.968,0-7.884,2.7-7.884,6.192,0,3.924,3.492,5.9,7.92,5.9,5.076,0,6.876-2.592,6.876-5.9V-4.1a31.737,31.737,0,0,1,4.824,3.78L179.82-4.14a23.75,23.75,0,0,0-7.38-4.572c-.108-1.764-.18-3.492-.216-4.5-.036-1.584-.108-3.06,0-4.572ZM-45.144,46.336V42.592h17.1v3.744Zm17.1-11.412v3.708h-17.1V34.924Zm0-7.668v3.708h-17.1V27.256Zm-7.776-4.1c.576-1.3,1.152-2.7,1.692-4.14l-5.184-.576a40.743,40.743,0,0,1-.972,4.716H-49.5V52.1h4.356V50.3h17.1V52.06h4.572V23.152ZM2.052,45.976v-6.12H9.936v6.12Zm-12.06-6.12h7.632v6.12h-7.632Zm7.632-10.188V35.68h-7.632V29.668Zm12.312,0V35.68H2.052V29.668Zm-7.884-4.32v-6.8H-2.376v6.8H-14.292V52.132h4.284V50.224H9.936V52.1h4.5V25.348ZM25.56,37.3a24.164,24.164,0,0,0-1.008,5.868c0,4.968,3.852,7.668,11.016,7.668a49.962,49.962,0,0,0,9.612-.864l.108-4.716a39.418,39.418,0,0,1-9.72,1.044c-5.04,0-6.372-1.764-6.372-4.356a16,16,0,0,1,.972-4.248Zm23.256-14a52.153,52.153,0,0,1-6.984,1.8c-.792-1.872-1.476-3.564-2.088-5.436l-5.04.972a27.675,27.675,0,0,1,1.764,3.42c.216.54.468,1.116.756,1.692a60.739,60.739,0,0,1-13.32-.36l.144,4.572a80.1,80.1,0,0,0,15.012,0c1.044,2.232,2.268,4.716,3.132,6.516-1.08-.072-3.024-.288-4.212-.4l-.4,3.672c2.628.324,6.156.9,8.1,1.3l2.52-2.7c-1.548-2.844-3.24-6.228-4.608-9.108,2.16-.432,4.248-.936,6.048-1.44Z" transform="translate(983 2308)"/>
        </g>
      </g>
    </g>
    <path id="パス_11923" data-name="パス 11923" d="M28.05-15.99a48.807,48.807,0,0,0-7.11-3.99l-1.5,2.31a38.15,38.15,0,0,1,6.93,4.14ZM17.07-20.55a31.356,31.356,0,0,1-4.32,1.02c.45-1.68.84-3.33,1.08-4.35l-3.27-.3a23.687,23.687,0,0,1-.87,5.04c-1.05.09-2.07.12-3.06.12-1.2,0-2.61-.06-3.78-.18l.21,2.76c1.2.09,2.43.12,3.57.12.72,0,1.41-.03,2.13-.06A43.058,43.058,0,0,1,2.55-5.55L5.43-4.08a52.152,52.152,0,0,0,6.45-12.63,44.328,44.328,0,0,0,5.28-1.05Zm1.2,16.59c0,1.53-.75,2.79-2.97,2.79-2.04,0-3.06-.87-3.06-2.13,0-1.2,1.29-2.07,3.27-2.07a10.007,10.007,0,0,1,2.73.36C18.27-4.59,18.27-4.26,18.27-3.96Zm-.45-10.71c.06,1.95.21,4.74.33,7.08a13.5,13.5,0,0,0-2.49-.21c-3.69,0-6.21,1.98-6.21,4.77,0,3.09,2.79,4.56,6.24,4.56,3.9,0,5.43-2.04,5.43-4.56v-.81a23.717,23.717,0,0,1,4.44,3.3l1.59-2.55A19.726,19.726,0,0,0,21-6.84c-.09-1.68-.18-3.39-.21-4.35a33.805,33.805,0,0,1,.03-3.48ZM38.16-4.74c-1.2,0-2.73-1.56-2.73-4.98,0-3.66,3.12-8.31,8.46-9.18a41.161,41.161,0,0,1-1.62,7.65C40.89-6.66,39.45-4.74,38.16-4.74ZM46.14.99C53.4-.03,57.39-4.35,57.39-10.56c0-6.24-4.53-11.22-11.67-11.22-7.44,0-13.29,5.73-13.29,12.33,0,4.95,2.7,8.28,5.64,8.28,2.97,0,5.43-3.39,7.23-9.45a67.993,67.993,0,0,0,1.77-8.34c4.56.57,7.14,3.96,7.14,8.28,0,4.8-3.39,7.56-7.2,8.43a16.823,16.823,0,0,1-2.64.42ZM82.05-15.6l-1.8.78a28.369,28.369,0,0,1,2.4,4.2l1.86-.84A41.88,41.88,0,0,0,82.05-15.6Zm3.33-1.29-1.8.81a28.154,28.154,0,0,1,2.52,4.14l1.83-.9A46.946,46.946,0,0,0,85.38-16.89ZM62.37-20.07l.3,3.27c3.33-.72,10.62-1.44,13.2-1.71a11.768,11.768,0,0,0-5.01,9.63c0,6.54,6.09,9.66,11.91,9.96L83.85-2.1c-4.89-.24-9.93-2.01-9.93-7.44a9.822,9.822,0,0,1,6.54-8.91,28.476,28.476,0,0,1,5.79-.42l-.03-3.03c-2.01.06-5.01.24-8.16.51-5.46.45-10.77.96-12.93,1.17C64.53-20.16,63.51-20.1,62.37-20.07ZM101.7-9.93a2.666,2.666,0,0,1,2.67-2.79,2.426,2.426,0,0,1,2.31,1.38c.39,2.82-.75,4.05-2.28,4.05A2.583,2.583,0,0,1,101.7-9.93Zm16.11-10.29h-8.88c0-.6,0-1.11.03-1.47,0-.42.09-1.77.15-2.16h-3.42c.09.42.18,1.41.24,2.16.03.33.03.87.06,1.5-4.23.06-9.75.24-13.11.27l.09,2.88c3.69-.24,8.55-.42,13.05-.48l.03,2.52a5.782,5.782,0,0,0-1.65-.21,5.38,5.38,0,0,0-5.55,5.34,5,5,0,0,0,5.01,5.19,5,5,0,0,0,2.07-.42c-1.44,2.22-4.17,3.51-7.65,4.29l2.55,2.52c7.05-2.04,9.15-6.69,9.15-10.65a7.283,7.283,0,0,0-1.05-3.96c0-1.32,0-3.06-.03-4.65,4.32,0,7.11.06,8.88.15ZM133.77-7.44h2.46l.9-11.04.09-3.96h-4.41l.09,3.96ZM135,.21a2.6,2.6,0,0,0,2.73-2.61A2.627,2.627,0,0,0,135-5.04a2.627,2.627,0,0,0-2.73,2.64A2.6,2.6,0,0,0,135,.21Z" transform="translate(882 3856.604)" fill="#333"/>
    <g id="グループ_2433" data-name="グループ 2433" transform="translate(0 -28)">
      <rect id="長方形_2449" data-name="長方形 2449" width="339" height="80" transform="translate(515 3820.804)" fill="#333"/>
      <g id="長方形_2450" data-name="長方形 2450" transform="translate(512 3817.804)" fill="#fde94c" stroke="#333" stroke-width="5">
        <rect width="339" height="80" stroke="none"/>
        <rect x="2.5" y="2.5" width="334" height="75" fill="none"/>
      </g>
      <g id="グループ_2432" data-name="グループ 2432" transform="translate(-49.886 3272.009)">
        <g id="グループ_2422" data-name="グループ 2422" transform="translate(595.562 568.304)">
          <g id="グループ_2420" data-name="グループ 2420">
            <path id="パス_7271" data-name="パス 7271" d="M1499.186-1358.217a4.2,4.2,0,0,0-2.446.4l-.032.016a7.358,7.358,0,0,1-2.058.713,12.326,12.326,0,0,1-2.245.208,11.511,11.511,0,0,1-3.765-.6,7.8,7.8,0,0,1-2.911-1.774,8.341,8.341,0,0,1-1.943-3.014,12.2,12.2,0,0,1-.718-4.4,11.556,11.556,0,0,1,.638-3.932,8.468,8.468,0,0,1,1.828-3,8.164,8.164,0,0,1,2.906-1.941,10.671,10.671,0,0,1,3.966-.693,10.348,10.348,0,0,1,2.274.245,10.647,10.647,0,0,1,2.061.692,4.51,4.51,0,0,0,2.4.453,3.059,3.059,0,0,0,2.207-1.286,3.8,3.8,0,0,0,.85-3.071,3.4,3.4,0,0,0-1.912-2.584,16.821,16.821,0,0,0-3.776-1.386,17.758,17.758,0,0,0-4.1-.477,18.317,18.317,0,0,0-6.853,1.265,16.631,16.631,0,0,0-5.48,3.544,15.89,15.89,0,0,0-3.6,5.4,17.839,17.839,0,0,0-1.267,6.768,18.775,18.775,0,0,0,1.386,7.438,15.2,15.2,0,0,0,3.832,5.415,16.616,16.616,0,0,0,5.505,3.256,19.237,19.237,0,0,0,6.479,1.093,17.19,17.19,0,0,0,2.724-.215,19.3,19.3,0,0,0,2.634-.617,16.777,16.777,0,0,0,2.546-1.021,3.389,3.389,0,0,0,1.922-2.436,3.729,3.729,0,0,0-.844-3.141A3.345,3.345,0,0,0,1499.186-1358.217Z" transform="translate(-1475.203 1383.867)"/>
            <path id="パス_7272" data-name="パス 7272" d="M1626.582-1382.861a3.823,3.823,0,0,0-2.662,1.054,3.58,3.58,0,0,0-1.18,2.7v9.338h-12.333v-9.338a3.571,3.571,0,0,0-1.148-2.69,3.7,3.7,0,0,0-2.6-1.062,3.836,3.836,0,0,0-2.772,1.073,3.6,3.6,0,0,0-1.115,2.68v26a3.682,3.682,0,0,0,1.05,2.659,3.677,3.677,0,0,0,2.748,1.093,3.825,3.825,0,0,0,2.663-1.054,3.58,3.58,0,0,0,1.18-2.7v-9.473h12.333v9.473a3.566,3.566,0,0,0,1.148,2.689,3.69,3.69,0,0,0,2.6,1.063,3.813,3.813,0,0,0,2.805-1.083,3.644,3.644,0,0,0,1.082-2.67v-26a3.687,3.687,0,0,0-1.051-2.66A3.677,3.677,0,0,0,1626.582-1382.861Z" transform="translate(-1566.016 1383.311)"/>
            <path id="パス_7273" data-name="パス 7273" d="M1749.272-1379.351a15.743,15.743,0,0,0-5.188-3.724,15.921,15.921,0,0,0-6.553-1.348,15.763,15.763,0,0,0-6.532,1.349,15.794,15.794,0,0,0-5.162,3.723,17.1,17.1,0,0,0-3.371,5.471,18.471,18.471,0,0,0-1.191,6.659,18.466,18.466,0,0,0,1.191,6.66,17.09,17.09,0,0,0,3.37,5.471,15.794,15.794,0,0,0,5.163,3.723,15.764,15.764,0,0,0,6.532,1.349,15.917,15.917,0,0,0,6.553-1.348,15.738,15.738,0,0,0,5.188-3.724,17.118,17.118,0,0,0,3.37-5.471,18.473,18.473,0,0,0,1.192-6.66,18.48,18.48,0,0,0-1.192-6.659A17.117,17.117,0,0,0,1749.272-1379.351Zm-11.741,21.918a7.447,7.447,0,0,1-4.336-1.265,8.807,8.807,0,0,1-2.966-3.5,11.384,11.384,0,0,1-1.091-5.025,11.349,11.349,0,0,1,1.089-5.044,8.845,8.845,0,0,1,2.968-3.479,7.451,7.451,0,0,1,4.335-1.265,7.454,7.454,0,0,1,4.336,1.265,9,9,0,0,1,2.993,3.5,11.2,11.2,0,0,1,1.11,5.018,11.2,11.2,0,0,1-1.11,5.018,8.989,8.989,0,0,1-2.992,3.505A7.45,7.45,0,0,1,1737.531-1357.433Z" transform="translate(-1650.382 1384.423)"/>
            <path id="パス_7274" data-name="パス 7274" d="M1867.079-1382.861a3.836,3.836,0,0,0-2.773,1.073,3.6,3.6,0,0,0-1.115,2.68v26a3.684,3.684,0,0,0,1.05,2.659,3.677,3.677,0,0,0,2.747,1.093,3.824,3.824,0,0,0,2.663-1.054,3.579,3.579,0,0,0,1.18-2.7v-26a3.572,3.572,0,0,0-1.148-2.69A3.694,3.694,0,0,0,1867.079-1382.861Z" transform="translate(-1751.413 1383.311)"/>
            <path id="パス_7275" data-name="パス 7275" d="M1936.309-1335.712h-7.827a3.73,3.73,0,0,0-2.648,1.017,3.494,3.494,0,0,0-1.1,2.646,3.566,3.566,0,0,0,1.092,2.657,3.684,3.684,0,0,0,2.661,1.05h7.827a3.734,3.734,0,0,0,2.649-1.017,3.488,3.488,0,0,0,1.1-2.6,3.643,3.643,0,0,0-1.082-2.67A3.645,3.645,0,0,0,1936.309-1335.712Z" transform="translate(-1795.223 1349.745)"/>
            <path id="パス_7276" data-name="パス 7276" d="M2028.264-1367.767a12.146,12.146,0,0,0-3.7-1.9,37.159,37.159,0,0,0-4.868-1.2,25.354,25.354,0,0,1-3.416-.885,4.389,4.389,0,0,1-1.853-1.115,2.22,2.22,0,0,1-.529-1.553,2.1,2.1,0,0,1,.458-1.354,3.51,3.51,0,0,1,1.563-1.03,8.457,8.457,0,0,1,2.909-.431,8.326,8.326,0,0,1,2.244.344,16.47,16.47,0,0,1,2.415.889,7.21,7.21,0,0,1,1.695,1.037l.059.047a2.969,2.969,0,0,0,1.82.607,3.425,3.425,0,0,0,2.532-1.126,3.554,3.554,0,0,0,1.04-2.492,3.966,3.966,0,0,0-1.671-3.162,13.685,13.685,0,0,0-4.378-2.4,17.308,17.308,0,0,0-5.754-.935,15.525,15.525,0,0,0-6.059,1.159,10.466,10.466,0,0,0-4.495,3.484,9.275,9.275,0,0,0-1.7,5.587,10.233,10.233,0,0,0,.7,3.865,8.5,8.5,0,0,0,2.115,3.059,10.962,10.962,0,0,0,3.39,2.085,19.964,19.964,0,0,0,4.51,1.166,18.2,18.2,0,0,1,4,.952,5.215,5.215,0,0,1,2.077,1.314,2.408,2.408,0,0,1,.567,1.638,1.783,1.783,0,0,1-.569,1.3,5.025,5.025,0,0,1-1.878,1.153,7.762,7.762,0,0,1-2.708.454,9.681,9.681,0,0,1-3.765-.639,13.363,13.363,0,0,1-3.162-1.974,3.378,3.378,0,0,0-2.16-.761,3.487,3.487,0,0,0-2.6,1.1,3.566,3.566,0,0,0-1.016,2.513,3.791,3.791,0,0,0,.421,1.709,4.535,4.535,0,0,0,1.143,1.438,14.618,14.618,0,0,0,5.172,2.965,20.07,20.07,0,0,0,5.968.833,15.4,15.4,0,0,0,6.087-1.206,11.407,11.407,0,0,0,4.655-3.553,9.064,9.064,0,0,0,1.827-5.651,11.034,11.034,0,0,0-.754-4.284A7.586,7.586,0,0,0,2028.264-1367.767Z" transform="translate(-1853.135 1384.423)"/>
            <path id="パス_7277" data-name="パス 7277" d="M2136.286-1382.861h-19.973a3.834,3.834,0,0,0-2.625.951,3.393,3.393,0,0,0-1.127,2.622,3.462,3.462,0,0,0,1.115,2.633,3.78,3.78,0,0,0,2.637.984h6.055v22.563a3.6,3.6,0,0,0,1.115,2.68,3.833,3.833,0,0,0,2.772,1.073,3.971,3.971,0,0,0,2.829-1.063,3.566,3.566,0,0,0,1.148-2.69v-22.563h6.054a3.834,3.834,0,0,0,2.625-.95,3.392,3.392,0,0,0,1.127-2.622,3.464,3.464,0,0,0-1.116-2.634A3.784,3.784,0,0,0,2136.286-1382.861Z" transform="translate(-1928.941 1383.311)"/>
            <path id="パス_7278" data-name="パス 7278" d="M2237.388-1381.084a3.654,3.654,0,0,0-1.385-1.79,3.635,3.635,0,0,0-2.019-.646,3.355,3.355,0,0,0-2.209.574,3.926,3.926,0,0,0-1.473,1.845l-11.2,26.9-.035.1a4,4,0,0,0-.177,1.143,3.442,3.442,0,0,0,.831,2.324,3.215,3.215,0,0,0,2.562,1.023,3.363,3.363,0,0,0,2.008-.664,3.772,3.772,0,0,0,1.313-1.77l2.063-4.853h12.082l2.071,4.825a4.206,4.206,0,0,0,1.333,1.761,3.353,3.353,0,0,0,2.071.7,3.5,3.5,0,0,0,2.412-.984,3.517,3.517,0,0,0,1.115-2.678,4.03,4.03,0,0,0-.292-1.441Zm-6.667,17,2.957-6.952,2.984,6.952Z" transform="translate(-2004.636 1383.791)"/>
            <path id="パス_7279" data-name="パス 7279" d="M2354.577-1382.267a3.64,3.64,0,0,0-2.558-1.062,3.693,3.693,0,0,0-3.082,1.789l-6.606,9.665-7.094-9.792a3.7,3.7,0,0,0-3.011-1.663,4.045,4.045,0,0,0-2.568.99,3.447,3.447,0,0,0-1.318,2.763,4.152,4.152,0,0,0,.231,1.307,4.865,4.865,0,0,0,.781,1.414l9.154,12.162v11.252a3.642,3.642,0,0,0,1.082,2.67,3.59,3.59,0,0,0,2.626,1.083,3.488,3.488,0,0,0,2.534-1.083,3.644,3.644,0,0,0,1.083-2.67v-10.648l9.232-13.218a3.76,3.76,0,0,0,.518-1.136,4.275,4.275,0,0,0,.146-1.088A3.621,3.621,0,0,0,2354.577-1382.267Z" transform="translate(-2082.555 1383.645)"/>
          </g>
        </g>
      </g>
    </g>
  </g>
</svg>
