<svg xmlns="http://www.w3.org/2000/svg" xmlns:xlink="http://www.w3.org/1999/xlink" width="345" height="468.555" viewBox="0 0 345 468.555">
  <defs>
    <clipPath id="clip-path">
      <path id="パス_6936" data-name="パス 6936" stroke="#00c387" d="M-399.983,1163.194v-71.24l-55.409-47.493-55.409,47.493v71.24Z" fill="none" transform="translate(510.801 -1044.46)" stroke-linecap="round" stroke-linejoin="round" stroke-width="8" opacity="0.252"/>
    </clipPath>
  </defs>
  <g id="グループ_3196" data-name="グループ 3196" transform="translate(-15 -3833.63)">
    <g id="グループ_3134" data-name="グループ 3134" transform="translate(0 276)">
      <text id="_" data-name="＋" transform="translate(188 3802.604)" fill="#02835b" font-size="32" font-family="NotoSansCJKjp-Bold, Noto Sans CJK JP" font-weight="700" letter-spacing="0.02em"><tspan x="-16" y="0">＋</tspan></text>
      <text id="それが_" data-name="それが…" transform="translate(194.473 3874.604)" fill="#02835b" font-size="16" font-family="NotoSansCJKjp-Medium, Noto Sans CJK JP" font-weight="500"><tspan x="-32" y="0">それが…</tspan></text>
      <g id="グループ_3191" data-name="グループ 3191">
        <g id="パス_11897" data-name="パス 11897" transform="translate(525.801 2370.22)" fill="#f5fdf6" stroke-linecap="round" stroke-linejoin="round" opacity="0.724">
          <path d="M -168.3012542724609 1537.299560546875 L -508.3010864257812 1537.299560546875 L -508.3011474609375 1257.983520507812 L -337.8039245605469 1190.102294921875 L -168.3013000488281 1257.97998046875 L -168.3012542724609 1537.299560546875 Z" stroke="none"/>
          <path d="M -170.8012542724609 1534.799560546875 L -170.8013153076172 1259.671752929688 L -337.8066101074219 1192.794311523438 L -505.8011474609375 1259.679077148438 L -505.8010559082031 1534.799560546875 L -170.8012542724609 1534.799560546875 M -165.8012542724609 1539.799560546875 L -510.8010559082031 1539.799560546875 L -510.8011474609375 1256.2880859375 L -337.80126953125 1187.410400390625 L -165.8013153076172 1256.2880859375 L -165.8012542724609 1539.799560546875 Z" stroke="none" fill="#8dddc4"/>
        </g>
        <g id="グループ_3130" data-name="グループ 3130" transform="translate(-416.845 1378.441)">
          <path id="パス_11924" data-name="パス 11924" d="M-80.656-4.07a2.008,2.008,0,0,1,1.48.592A2.008,2.008,0,0,1-78.584-2a1.9,1.9,0,0,1-.592,1.425A2.042,2.042,0,0,1-80.656,0h-12.58a1.979,1.979,0,0,1-1.517-.592,2.129,2.129,0,0,1-.555-1.517,2.3,2.3,0,0,1,.666-1.628l8.066-8.621a14.308,14.308,0,0,0,2.165-2.979,5.951,5.951,0,0,0,.8-2.757A4.007,4.007,0,0,0-84.8-20.979,3.706,3.706,0,0,0-87.538-22.2a3.91,3.91,0,0,0-2.164.722,8.009,8.009,0,0,0-1.979,1.906,2.042,2.042,0,0,1-1.7.888,2.172,2.172,0,0,1-1.5-.629,1.878,1.878,0,0,1-.685-1.406,2.076,2.076,0,0,1,.37-1.128,8.37,8.37,0,0,1,1.11-1.313,11.156,11.156,0,0,1,3.256-2.257,8.492,8.492,0,0,1,3.552-.851,8.637,8.637,0,0,1,4.292,1.036,7.2,7.2,0,0,1,2.849,2.849,8.367,8.367,0,0,1,1,4.107,10.288,10.288,0,0,1-1.2,4.644,19.761,19.761,0,0,1-3.238,4.569l-4.7,5Zm5.233-6.057.855,2.09c1.71-.7,6.346-2.7,9.291-2.7,2.413,0,3.762,1.463,3.762,3.344,0,3.61-4.218,5.092-9.215,5.206l.855,1.995C-63.7-.513-59.406-2.945-59.406-7.353c0-3.287-2.565-5.168-5.8-5.168-2.774,0-6.517,1.349-8.037,1.824C-73.941-10.488-74.739-10.26-75.423-10.127ZM-52.186-3c-.76,0-1.729-.988-1.729-3.154a6.307,6.307,0,0,1,5.358-5.814,26.069,26.069,0,0,1-1.026,4.845C-50.457-4.218-51.369-3-52.186-3ZM-47.132.627c4.6-.646,7.125-3.382,7.125-7.315,0-3.952-2.869-7.106-7.391-7.106-4.712,0-8.417,3.629-8.417,7.809,0,3.135,1.71,5.244,3.572,5.244,1.881,0,3.439-2.147,4.579-5.985a43.063,43.063,0,0,0,1.121-5.282,4.976,4.976,0,0,1,4.522,5.244,5.4,5.4,0,0,1-4.56,5.339,10.655,10.655,0,0,1-1.672.266Zm13.756-13.984-2.3-.038a9.461,9.461,0,0,1,.133,1.767,49.95,49.95,0,0,0,.209,5.035C-34.82-1.634-33.072.19-31.172.19c1.387,0,2.546-1.121,3.743-4.351l-1.52-1.767c-.418,1.729-1.235,3.781-2.185,3.781-1.254,0-2.014-1.976-2.3-4.94a41.809,41.809,0,0,1-.133-4.237A15.275,15.275,0,0,1-33.376-13.357Zm9.633.475-1.881.627c1.9,2.242,2.983,6.289,3.287,9.519l1.957-.76A19.913,19.913,0,0,0-23.743-12.882ZM-14-13.357l-2.3-.038a9.461,9.461,0,0,1,.133,1.767,49.95,49.95,0,0,0,.209,5.035C-15.44-1.634-13.692.19-11.792.19c1.387,0,2.546-1.121,3.743-4.351l-1.52-1.767C-9.987-4.2-10.8-2.147-11.754-2.147c-1.254,0-2.014-1.976-2.3-4.94a41.809,41.809,0,0,1-.133-4.237A15.276,15.276,0,0,1-14-13.357Zm9.633.475-1.881.627c1.9,2.242,2.983,6.289,3.287,9.519L-1-3.5A19.913,19.913,0,0,0-4.363-12.882Zm19.3-.038a10.553,10.553,0,0,1-1.52.988c-.969.551-2.831,1.482-4.484,2.47a43.312,43.312,0,0,1-2.451-5.415l-1.881.76C5.479-12.1,6.429-9.994,7.284-8.4,5.365-7.03,4.092-5.491,4.092-3.5,4.092-.494,6.771.57,10.4.57A35.246,35.246,0,0,0,16.385.095L16.4-2.033a30.6,30.6,0,0,1-6.08.646c-2.812,0-4.2-.855-4.2-2.318,0-1.368,1.045-2.546,2.717-3.629a58.459,58.459,0,0,1,5.51-2.983c.608-.3,1.14-.589,1.615-.874Zm9.595,1.368c1.5.133,3.116.209,5.054.209,1.748,0,3.933-.133,5.225-.228v-1.976c-1.406.152-3.42.266-5.244.266a47.623,47.623,0,0,1-5.035-.228Zm-.817,5.624a11.463,11.463,0,0,0-.38,2.66c0,2.451,2.185,3.8,6.213,3.8a28.035,28.035,0,0,0,6.479-.646l-.019-2.071a25.745,25.745,0,0,1-6.517.722c-2.869,0-4.18-.931-4.18-2.242a7.249,7.249,0,0,1,.342-2.052Zm24.833-7.239h.779V-11.7h6.023A21.116,21.116,0,0,1,53.3-5.225a24.019,24.019,0,0,1-2.052-6.422l-1.71.342a26.762,26.762,0,0,0,2.7,7.809A10.825,10.825,0,0,1,48.552-.19Zm-4.959,10.2V-5.472h3.249V-3.42Zm3.249-10.2v2.2H43.593v-2.2ZM43.593-9.386h3.249v2.318H43.593Zm12.559-4.1-.3.057H49.825V-14.8h-9.31v1.634H41.9V-2.736c-.665.076-1.254.171-1.786.228l.323,1.767c1.767-.285,4.1-.665,6.4-1.045V1.463h1.71V-.095a6.828,6.828,0,0,1,1.1,1.368,13.014,13.014,0,0,0,3.629-3.154,11.946,11.946,0,0,0,3.572,3.192A6.727,6.727,0,0,1,58.071-.133a10.462,10.462,0,0,1-3.686-3.325,23.751,23.751,0,0,0,2.907-9.728Zm7.372-1.634c-.019.494-.076,1.14-.152,1.767A49.215,49.215,0,0,0,62.8-7.3a22.673,22.673,0,0,0,.228,3.04l1.843-.133a8.514,8.514,0,0,1-.057-2.166c.152-2.47,2.242-5.852,4.522-5.852,1.805,0,2.774,1.919,2.774,4.845,0,4.655-3.078,6.175-7.2,6.821l1.14,1.71c4.788-.874,8.075-3.287,8.075-8.531,0-4.047-1.9-6.574-4.465-6.574-2.261,0-4.085,2.014-4.9,3.743a32.719,32.719,0,0,1,.817-4.655Zm23.5,10.412h1.558l.57-6.992.057-2.508H86.419l.057,2.508ZM87.806.133A1.649,1.649,0,0,0,89.535-1.52a1.664,1.664,0,0,0-1.729-1.672A1.664,1.664,0,0,0,86.077-1.52,1.649,1.649,0,0,0,87.806.133Z" transform="translate(607.034 2284)" fill="#02835b"/>
          <path id="パス_6942" data-name="パス 6942" d="M5832.226,293.844l-25.593,25.593" transform="translate(-5098.042 1973.987)" fill="none" stroke="#02835b" stroke-width="4"/>
          <path id="パス_6943" data-name="パス 6943" d="M25.593,0,0,25.593" transform="translate(475 2293.423) rotate(-90)" fill="none" stroke="#02835b" stroke-width="4"/>
        </g>
        <g id="グループ_2281" data-name="グループ 2281" transform="translate(-848 1527.713)" opacity="0.893">
          <g id="マスクグループ_29" data-name="マスクグループ 29" transform="translate(899 2180.826)" clip-path="url(#clip-path)">
            <g id="グループ_2271" data-name="グループ 2271" transform="translate(-325.08 -5.449)">
              <line id="線_357" data-name="線 357" x1="111.552" y2="128.856" transform="translate(817.099 0)" fill="none" stroke="#8dddc4" stroke-miterlimit="10" stroke-width="3.163"/>
              <line id="線_358" data-name="線 358" x1="111.552" y2="128.856" transform="translate(809.009 0)" fill="none" stroke="#8dddc4" stroke-miterlimit="10" stroke-width="3.163"/>
              <line id="線_359" data-name="線 359" x1="111.552" y2="128.856" transform="translate(800.919 0)" fill="none" stroke="#8dddc4" stroke-miterlimit="10" stroke-width="3.163"/>
              <line id="線_360" data-name="線 360" x1="111.552" y2="128.856" transform="translate(792.829 0)" fill="none" stroke="#8dddc4" stroke-miterlimit="10" stroke-width="3.163"/>
              <line id="線_361" data-name="線 361" x1="111.552" y2="128.856" transform="translate(784.739 0)" fill="none" stroke="#8dddc4" stroke-miterlimit="10" stroke-width="3.163"/>
              <line id="線_362" data-name="線 362" x1="111.552" y2="128.856" transform="translate(776.649 0)" fill="none" stroke="#8dddc4" stroke-miterlimit="10" stroke-width="3.163"/>
              <line id="線_363" data-name="線 363" x1="111.552" y2="128.856" transform="translate(768.559 0)" fill="none" stroke="#8dddc4" stroke-miterlimit="10" stroke-width="3.163"/>
              <line id="線_364" data-name="線 364" x1="111.552" y2="128.856" transform="translate(760.468 0)" fill="none" stroke="#8dddc4" stroke-miterlimit="10" stroke-width="3.163"/>
              <line id="線_365" data-name="線 365" x1="111.552" y2="128.856" transform="translate(752.378 0)" fill="none" stroke="#8dddc4" stroke-miterlimit="10" stroke-width="3.163"/>
              <line id="線_366" data-name="線 366" x1="111.552" y2="128.856" transform="translate(744.288 0)" fill="none" stroke="#8dddc4" stroke-miterlimit="10" stroke-width="3.163"/>
              <line id="線_367" data-name="線 367" x1="111.552" y2="128.856" transform="translate(736.198 0)" fill="none" stroke="#8dddc4" stroke-miterlimit="10" stroke-width="3.163"/>
              <line id="線_368" data-name="線 368" x1="111.552" y2="128.856" transform="translate(728.108 0)" fill="none" stroke="#8dddc4" stroke-miterlimit="10" stroke-width="3.163"/>
              <line id="線_369" data-name="線 369" x1="111.553" y2="128.856" transform="translate(720.018 0)" fill="none" stroke="#8dddc4" stroke-miterlimit="10" stroke-width="3.163"/>
              <line id="線_370" data-name="線 370" x1="111.553" y2="128.856" transform="translate(711.928 0)" fill="none" stroke="#8dddc4" stroke-miterlimit="10" stroke-width="3.163"/>
              <line id="線_371" data-name="線 371" x1="111.553" y2="128.856" transform="translate(703.838 0)" fill="none" stroke="#8dddc4" stroke-miterlimit="10" stroke-width="3.163"/>
              <line id="線_372" data-name="線 372" x1="111.553" y2="128.856" transform="translate(695.748 0)" fill="none" stroke="#8dddc4" stroke-miterlimit="10" stroke-width="3.163"/>
              <line id="線_373" data-name="線 373" x1="111.553" y2="128.856" transform="translate(687.658 0)" fill="none" stroke="#8dddc4" stroke-miterlimit="10" stroke-width="3.163"/>
              <line id="線_374" data-name="線 374" x1="111.553" y2="128.856" transform="translate(679.568 0)" fill="none" stroke="#8dddc4" stroke-miterlimit="10" stroke-width="3.163"/>
              <line id="線_375" data-name="線 375" x1="111.553" y2="128.856" transform="translate(671.477 0)" fill="none" stroke="#8dddc4" stroke-miterlimit="10" stroke-width="3.163"/>
              <line id="線_376" data-name="線 376" x1="111.553" y2="128.856" transform="translate(663.387 0)" fill="none" stroke="#8dddc4" stroke-miterlimit="10" stroke-width="3.163"/>
              <line id="線_377" data-name="線 377" x1="111.553" y2="128.856" transform="translate(655.297 0)" fill="none" stroke="#8dddc4" stroke-miterlimit="10" stroke-width="3.163"/>
              <line id="線_378" data-name="線 378" x1="111.553" y2="128.856" transform="translate(647.207 0)" fill="none" stroke="#8dddc4" stroke-miterlimit="10" stroke-width="3.163"/>
              <line id="線_379" data-name="線 379" x1="111.553" y2="128.856" transform="translate(639.117 0)" fill="none" stroke="#8dddc4" stroke-miterlimit="10" stroke-width="3.163"/>
              <line id="線_380" data-name="線 380" x1="111.553" y2="128.856" transform="translate(631.027 0)" fill="none" stroke="#8dddc4" stroke-miterlimit="10" stroke-width="3.163"/>
              <line id="線_381" data-name="線 381" x1="111.553" y2="128.856" transform="translate(622.937 0)" fill="none" stroke="#8dddc4" stroke-miterlimit="10" stroke-width="3.163"/>
              <line id="線_382" data-name="線 382" x1="111.553" y2="128.856" transform="translate(614.847 0)" fill="none" stroke="#8dddc4" stroke-miterlimit="10" stroke-width="3.163"/>
              <line id="線_383" data-name="線 383" x1="111.553" y2="128.856" transform="translate(606.757 0)" fill="none" stroke="#8dddc4" stroke-miterlimit="10" stroke-width="3.163"/>
              <line id="線_384" data-name="線 384" x1="111.553" y2="128.856" transform="translate(598.667 0)" fill="none" stroke="#8dddc4" stroke-miterlimit="10" stroke-width="3.163"/>
              <line id="線_385" data-name="線 385" x1="111.553" y2="128.856" transform="translate(590.577 0)" fill="none" stroke="#8dddc4" stroke-miterlimit="10" stroke-width="3.163"/>
              <line id="線_386" data-name="線 386" x1="111.553" y2="128.856" transform="translate(582.487 0)" fill="none" stroke="#8dddc4" stroke-miterlimit="10" stroke-width="3.163"/>
              <line id="線_387" data-name="線 387" x1="111.553" y2="128.856" transform="translate(574.396 0)" fill="none" stroke="#8dddc4" stroke-miterlimit="10" stroke-width="3.163"/>
              <line id="線_388" data-name="線 388" x1="111.553" y2="128.856" transform="translate(566.306 0)" fill="none" stroke="#8dddc4" stroke-miterlimit="10" stroke-width="3.163"/>
              <line id="線_389" data-name="線 389" x1="111.553" y2="128.856" transform="translate(558.216 0)" fill="none" stroke="#8dddc4" stroke-miterlimit="10" stroke-width="3.163"/>
              <line id="線_390" data-name="線 390" x1="111.553" y2="128.856" transform="translate(550.126 0)" fill="none" stroke="#8dddc4" stroke-miterlimit="10" stroke-width="3.163"/>
              <line id="線_391" data-name="線 391" x1="111.553" y2="128.856" transform="translate(542.036 0)" fill="none" stroke="#8dddc4" stroke-miterlimit="10" stroke-width="3.163"/>
              <line id="線_392" data-name="線 392" x1="111.553" y2="128.856" transform="translate(533.946 0)" fill="none" stroke="#8dddc4" stroke-miterlimit="10" stroke-width="3.163"/>
              <line id="線_393" data-name="線 393" x1="111.553" y2="128.856" transform="translate(525.856 0)" fill="none" stroke="#8dddc4" stroke-miterlimit="10" stroke-width="3.163"/>
              <line id="線_394" data-name="線 394" x1="111.553" y2="128.856" transform="translate(517.766 0)" fill="none" stroke="#8dddc4" stroke-miterlimit="10" stroke-width="3.163"/>
              <line id="線_395" data-name="線 395" x1="111.553" y2="128.856" transform="translate(509.676 0)" fill="none" stroke="#8dddc4" stroke-miterlimit="10" stroke-width="3.163"/>
              <line id="線_396" data-name="線 396" x1="111.554" y2="128.856" transform="translate(501.585 0)" fill="none" stroke="#8dddc4" stroke-miterlimit="10" stroke-width="3.163"/>
              <line id="線_397" data-name="線 397" x1="111.554" y2="128.856" transform="translate(493.495 0)" fill="none" stroke="#8dddc4" stroke-miterlimit="10" stroke-width="3.163"/>
              <line id="線_398" data-name="線 398" x1="111.554" y2="128.856" transform="translate(485.405 0)" fill="none" stroke="#8dddc4" stroke-miterlimit="10" stroke-width="3.163"/>
              <line id="線_399" data-name="線 399" x1="111.554" y2="128.856" transform="translate(477.315 0)" fill="none" stroke="#8dddc4" stroke-miterlimit="10" stroke-width="3.163"/>
              <line id="線_400" data-name="線 400" x1="111.554" y2="128.856" transform="translate(469.225 0)" fill="none" stroke="#8dddc4" stroke-miterlimit="10" stroke-width="3.163"/>
              <line id="線_401" data-name="線 401" x1="111.554" y2="128.856" transform="translate(461.135 0)" fill="none" stroke="#8dddc4" stroke-miterlimit="10" stroke-width="3.163"/>
              <line id="線_402" data-name="線 402" x1="111.554" y2="128.856" transform="translate(453.045 0)" fill="none" stroke="#8dddc4" stroke-miterlimit="10" stroke-width="3.163"/>
              <line id="線_403" data-name="線 403" x1="111.554" y2="128.856" transform="translate(444.955 0)" fill="none" stroke="#8dddc4" stroke-miterlimit="10" stroke-width="3.163"/>
              <line id="線_404" data-name="線 404" x1="111.554" y2="128.856" transform="translate(436.865 0)" fill="none" stroke="#8dddc4" stroke-miterlimit="10" stroke-width="3.163"/>
              <line id="線_405" data-name="線 405" x1="111.554" y2="128.856" transform="translate(428.775 0)" fill="none" stroke="#8dddc4" stroke-miterlimit="10" stroke-width="3.163"/>
              <line id="線_406" data-name="線 406" x1="111.554" y2="128.856" transform="translate(420.685 0)" fill="none" stroke="#8dddc4" stroke-miterlimit="10" stroke-width="3.163"/>
              <line id="線_407" data-name="線 407" x1="111.554" y2="128.856" transform="translate(412.595 0)" fill="none" stroke="#8dddc4" stroke-miterlimit="10" stroke-width="3.163"/>
              <line id="線_408" data-name="線 408" x1="111.554" y2="128.856" transform="translate(404.504 0)" fill="none" stroke="#8dddc4" stroke-miterlimit="10" stroke-width="3.163"/>
              <line id="線_409" data-name="線 409" x1="111.554" y2="128.856" transform="translate(396.414 0)" fill="none" stroke="#8dddc4" stroke-miterlimit="10" stroke-width="3.163"/>
              <line id="線_410" data-name="線 410" x1="111.554" y2="128.856" transform="translate(388.324 0)" fill="none" stroke="#8dddc4" stroke-miterlimit="10" stroke-width="3.163"/>
              <line id="線_411" data-name="線 411" x1="111.554" y2="128.856" transform="translate(380.234 0)" fill="none" stroke="#8dddc4" stroke-miterlimit="10" stroke-width="3.163"/>
              <line id="線_412" data-name="線 412" x1="111.554" y2="128.856" transform="translate(372.144 0)" fill="none" stroke="#8dddc4" stroke-miterlimit="10" stroke-width="3.163"/>
              <line id="線_413" data-name="線 413" x1="111.554" y2="128.856" transform="translate(364.054 0)" fill="none" stroke="#8dddc4" stroke-miterlimit="10" stroke-width="3.163"/>
              <line id="線_414" data-name="線 414" x1="111.554" y2="128.856" transform="translate(355.964 0)" fill="none" stroke="#8dddc4" stroke-miterlimit="10" stroke-width="3.163"/>
              <line id="線_415" data-name="線 415" x1="111.554" y2="128.856" transform="translate(347.874 0)" fill="none" stroke="#8dddc4" stroke-miterlimit="10" stroke-width="3.163"/>
              <line id="線_416" data-name="線 416" x1="111.554" y2="128.856" transform="translate(339.784 0)" fill="none" stroke="#8dddc4" stroke-miterlimit="10" stroke-width="3.163"/>
              <line id="線_417" data-name="線 417" x1="111.554" y2="128.856" transform="translate(331.694 0)" fill="none" stroke="#8dddc4" stroke-miterlimit="10" stroke-width="3.163"/>
              <line id="線_418" data-name="線 418" x1="111.554" y2="128.856" transform="translate(323.604 0)" fill="none" stroke="#8dddc4" stroke-miterlimit="10" stroke-width="3.163"/>
              <line id="線_419" data-name="線 419" x1="111.554" y2="128.856" transform="translate(315.513 0)" fill="none" stroke="#8dddc4" stroke-miterlimit="10" stroke-width="3.163"/>
              <line id="線_420" data-name="線 420" x1="111.554" y2="128.856" transform="translate(307.423 0)" fill="none" stroke="#8dddc4" stroke-miterlimit="10" stroke-width="3.163"/>
              <path id="パス_6937" data-name="パス 6937" d="M111.554,0,0,128.856" transform="translate(299.333 0)" fill="none" stroke="#8dddc4" stroke-width="3.163"/>
              <line id="線_422" data-name="線 422" x1="111.554" y2="128.856" transform="translate(291.243 0)" fill="none" stroke="#8dddc4" stroke-miterlimit="10" stroke-width="3.163"/>
              <line id="線_423" data-name="線 423" x1="111.555" y2="128.856" transform="translate(283.153 0)" fill="none" stroke="#8dddc4" stroke-miterlimit="10" stroke-width="3.163"/>
              <line id="線_424" data-name="線 424" x1="111.555" y2="128.856" transform="translate(275.063 0)" fill="none" stroke="#8dddc4" stroke-miterlimit="10" stroke-width="3.163"/>
              <line id="線_425" data-name="線 425" x1="111.555" y2="128.856" transform="translate(266.973 0)" fill="none" stroke="#8dddc4" stroke-miterlimit="10" stroke-width="3.163"/>
              <line id="線_426" data-name="線 426" x1="111.555" y2="128.856" transform="translate(258.883 0)" fill="none" stroke="#8dddc4" stroke-miterlimit="10" stroke-width="3.163"/>
              <line id="線_427" data-name="線 427" x1="111.555" y2="128.856" transform="translate(250.793 0)" fill="none" stroke="#8dddc4" stroke-miterlimit="10" stroke-width="3.163"/>
              <line id="線_428" data-name="線 428" x1="111.555" y2="128.856" transform="translate(242.703 0)" fill="none" stroke="#8dddc4" stroke-miterlimit="10" stroke-width="3.163"/>
              <line id="線_429" data-name="線 429" x1="111.555" y2="128.856" transform="translate(234.613 0)" fill="none" stroke="#8dddc4" stroke-miterlimit="10" stroke-width="3.163"/>
              <line id="線_430" data-name="線 430" x1="111.555" y2="128.856" transform="translate(226.522 0)" fill="none" stroke="#8dddc4" stroke-miterlimit="10" stroke-width="3.163"/>
              <line id="線_431" data-name="線 431" x1="111.555" y2="128.856" transform="translate(218.432 0)" fill="none" stroke="#8dddc4" stroke-miterlimit="10" stroke-width="3.163"/>
              <line id="線_432" data-name="線 432" x1="111.555" y2="128.856" transform="translate(210.342 0)" fill="none" stroke="#8dddc4" stroke-miterlimit="10" stroke-width="3.163"/>
              <line id="線_433" data-name="線 433" x1="111.555" y2="128.856" transform="translate(202.252 0)" fill="none" stroke="#8dddc4" stroke-miterlimit="10" stroke-width="3.163"/>
              <line id="線_434" data-name="線 434" x1="111.555" y2="128.856" transform="translate(194.162 0)" fill="none" stroke="#8dddc4" stroke-miterlimit="10" stroke-width="3.163"/>
              <line id="線_435" data-name="線 435" x1="111.555" y2="128.856" transform="translate(186.072 0)" fill="none" stroke="#8dddc4" stroke-miterlimit="10" stroke-width="3.163"/>
              <line id="線_436" data-name="線 436" x1="111.555" y2="128.856" transform="translate(177.982 0)" fill="none" stroke="#8dddc4" stroke-miterlimit="10" stroke-width="3.163"/>
              <line id="線_437" data-name="線 437" x1="111.555" y2="128.856" transform="translate(169.892 0)" fill="none" stroke="#8dddc4" stroke-miterlimit="10" stroke-width="3.163"/>
              <line id="線_438" data-name="線 438" x1="111.555" y2="128.856" transform="translate(161.802 0)" fill="none" stroke="#8dddc4" stroke-miterlimit="10" stroke-width="3.163"/>
              <line id="線_439" data-name="線 439" x1="111.555" y2="128.856" transform="translate(153.712 0)" fill="none" stroke="#8dddc4" stroke-miterlimit="10" stroke-width="3.163"/>
              <line id="線_440" data-name="線 440" x1="111.555" y2="128.856" transform="translate(145.622 0)" fill="none" stroke="#8dddc4" stroke-miterlimit="10" stroke-width="3.163"/>
              <line id="線_441" data-name="線 441" x1="111.555" y2="128.856" transform="translate(137.532 0)" fill="none" stroke="#8dddc4" stroke-miterlimit="10" stroke-width="3.163"/>
              <line id="線_442" data-name="線 442" x1="111.555" y2="128.856" transform="translate(129.441 0)" fill="none" stroke="#8dddc4" stroke-miterlimit="10" stroke-width="3.163"/>
              <line id="線_443" data-name="線 443" x1="111.555" y2="128.856" transform="translate(121.351 0)" fill="none" stroke="#8dddc4" stroke-miterlimit="10" stroke-width="3.163"/>
              <line id="線_444" data-name="線 444" x1="111.555" y2="128.856" transform="translate(113.261 0)" fill="none" stroke="#8dddc4" stroke-miterlimit="10" stroke-width="3.163"/>
              <line id="線_445" data-name="線 445" x1="111.555" y2="128.856" transform="translate(105.171 0)" fill="none" stroke="#8dddc4" stroke-miterlimit="10" stroke-width="3.163"/>
              <line id="線_446" data-name="線 446" x1="111.555" y2="128.856" transform="translate(97.081 0)" fill="none" stroke="#8dddc4" stroke-miterlimit="10" stroke-width="3.163"/>
              <line id="線_447" data-name="線 447" x1="111.555" y2="128.856" transform="translate(88.991 0)" fill="none" stroke="#8dddc4" stroke-miterlimit="10" stroke-width="3.163"/>
              <line id="線_448" data-name="線 448" x1="111.555" y2="128.856" transform="translate(80.901 0)" fill="none" stroke="#8dddc4" stroke-miterlimit="10" stroke-width="3.163"/>
              <line id="線_449" data-name="線 449" x1="111.555" y2="128.856" transform="translate(72.811 0)" fill="none" stroke="#8dddc4" stroke-miterlimit="10" stroke-width="3.163"/>
              <line id="線_450" data-name="線 450" x1="111.556" y2="128.856" transform="translate(64.721 0)" fill="none" stroke="#8dddc4" stroke-miterlimit="10" stroke-width="3.163"/>
              <line id="線_451" data-name="線 451" x1="111.556" y2="128.856" transform="translate(56.631 0)" fill="none" stroke="#8dddc4" stroke-miterlimit="10" stroke-width="3.163"/>
              <line id="線_452" data-name="線 452" x1="111.556" y2="128.856" transform="translate(48.541 0)" fill="none" stroke="#8dddc4" stroke-miterlimit="10" stroke-width="3.163"/>
              <line id="線_453" data-name="線 453" x1="111.556" y2="128.856" transform="translate(40.45 0)" fill="none" stroke="#8dddc4" stroke-miterlimit="10" stroke-width="3.163"/>
              <line id="線_454" data-name="線 454" x1="111.556" y2="128.856" transform="translate(32.36 0)" fill="none" stroke="#8dddc4" stroke-miterlimit="10" stroke-width="3.163"/>
              <line id="線_455" data-name="線 455" x1="111.556" y2="128.856" transform="translate(24.27 0)" fill="none" stroke="#8dddc4" stroke-miterlimit="10" stroke-width="3.163"/>
              <line id="線_456" data-name="線 456" x1="111.556" y2="128.856" transform="translate(16.18 0)" fill="none" stroke="#8dddc4" stroke-miterlimit="10" stroke-width="3.163"/>
              <line id="線_457" data-name="線 457" x1="111.556" y2="128.856" transform="translate(8.09 0)" fill="none" stroke="#8dddc4" stroke-miterlimit="10" stroke-width="3.163"/>
              <line id="線_458" data-name="線 458" x1="111.556" y2="128.856" transform="translate(0 0)" fill="none" stroke="#8dddc4" stroke-miterlimit="10" stroke-width="3.163"/>
            </g>
          </g>
          <path id="パス_6938" data-name="パス 6938" d="M-399.983,1163.194v-71.24l-55.409-47.493-55.409,47.493v71.24Z" transform="translate(1410.127 1136.04)" fill="none" stroke="#8dddc4" stroke-linecap="round" stroke-linejoin="round" stroke-width="6"/>
        </g>
        <g id="グループ_3132" data-name="グループ 3132" transform="translate(-686 1527.713)" opacity="0.893">
          <g id="マスクグループ_29-2" data-name="マスクグループ 29" transform="translate(899 2180.826)" clip-path="url(#clip-path)">
            <g id="グループ_2271-2" data-name="グループ 2271" transform="translate(-325.08 -5.449)">
              <line id="線_357-2" data-name="線 357" x1="111.552" y2="128.856" transform="translate(817.099 0)" fill="none" stroke="#8dddc4" stroke-miterlimit="10" stroke-width="3.163"/>
              <line id="線_358-2" data-name="線 358" x1="111.552" y2="128.856" transform="translate(809.009 0)" fill="none" stroke="#8dddc4" stroke-miterlimit="10" stroke-width="3.163"/>
              <line id="線_359-2" data-name="線 359" x1="111.552" y2="128.856" transform="translate(800.919 0)" fill="none" stroke="#8dddc4" stroke-miterlimit="10" stroke-width="3.163"/>
              <line id="線_360-2" data-name="線 360" x1="111.552" y2="128.856" transform="translate(792.829 0)" fill="none" stroke="#8dddc4" stroke-miterlimit="10" stroke-width="3.163"/>
              <line id="線_361-2" data-name="線 361" x1="111.552" y2="128.856" transform="translate(784.739 0)" fill="none" stroke="#8dddc4" stroke-miterlimit="10" stroke-width="3.163"/>
              <line id="線_362-2" data-name="線 362" x1="111.552" y2="128.856" transform="translate(776.649 0)" fill="none" stroke="#8dddc4" stroke-miterlimit="10" stroke-width="3.163"/>
              <line id="線_363-2" data-name="線 363" x1="111.552" y2="128.856" transform="translate(768.559 0)" fill="none" stroke="#8dddc4" stroke-miterlimit="10" stroke-width="3.163"/>
              <line id="線_364-2" data-name="線 364" x1="111.552" y2="128.856" transform="translate(760.468 0)" fill="none" stroke="#8dddc4" stroke-miterlimit="10" stroke-width="3.163"/>
              <line id="線_365-2" data-name="線 365" x1="111.552" y2="128.856" transform="translate(752.378 0)" fill="none" stroke="#8dddc4" stroke-miterlimit="10" stroke-width="3.163"/>
              <line id="線_366-2" data-name="線 366" x1="111.552" y2="128.856" transform="translate(744.288 0)" fill="none" stroke="#8dddc4" stroke-miterlimit="10" stroke-width="3.163"/>
              <line id="線_367-2" data-name="線 367" x1="111.552" y2="128.856" transform="translate(736.198 0)" fill="none" stroke="#8dddc4" stroke-miterlimit="10" stroke-width="3.163"/>
              <line id="線_368-2" data-name="線 368" x1="111.552" y2="128.856" transform="translate(728.108 0)" fill="none" stroke="#8dddc4" stroke-miterlimit="10" stroke-width="3.163"/>
              <line id="線_369-2" data-name="線 369" x1="111.553" y2="128.856" transform="translate(720.018 0)" fill="none" stroke="#8dddc4" stroke-miterlimit="10" stroke-width="3.163"/>
              <line id="線_370-2" data-name="線 370" x1="111.553" y2="128.856" transform="translate(711.928 0)" fill="none" stroke="#8dddc4" stroke-miterlimit="10" stroke-width="3.163"/>
              <line id="線_371-2" data-name="線 371" x1="111.553" y2="128.856" transform="translate(703.838 0)" fill="none" stroke="#8dddc4" stroke-miterlimit="10" stroke-width="3.163"/>
              <line id="線_372-2" data-name="線 372" x1="111.553" y2="128.856" transform="translate(695.748 0)" fill="none" stroke="#8dddc4" stroke-miterlimit="10" stroke-width="3.163"/>
              <line id="線_373-2" data-name="線 373" x1="111.553" y2="128.856" transform="translate(687.658 0)" fill="none" stroke="#8dddc4" stroke-miterlimit="10" stroke-width="3.163"/>
              <line id="線_374-2" data-name="線 374" x1="111.553" y2="128.856" transform="translate(679.568 0)" fill="none" stroke="#8dddc4" stroke-miterlimit="10" stroke-width="3.163"/>
              <line id="線_375-2" data-name="線 375" x1="111.553" y2="128.856" transform="translate(671.477 0)" fill="none" stroke="#8dddc4" stroke-miterlimit="10" stroke-width="3.163"/>
              <line id="線_376-2" data-name="線 376" x1="111.553" y2="128.856" transform="translate(663.387 0)" fill="none" stroke="#8dddc4" stroke-miterlimit="10" stroke-width="3.163"/>
              <line id="線_377-2" data-name="線 377" x1="111.553" y2="128.856" transform="translate(655.297 0)" fill="none" stroke="#8dddc4" stroke-miterlimit="10" stroke-width="3.163"/>
              <line id="線_378-2" data-name="線 378" x1="111.553" y2="128.856" transform="translate(647.207 0)" fill="none" stroke="#8dddc4" stroke-miterlimit="10" stroke-width="3.163"/>
              <line id="線_379-2" data-name="線 379" x1="111.553" y2="128.856" transform="translate(639.117 0)" fill="none" stroke="#8dddc4" stroke-miterlimit="10" stroke-width="3.163"/>
              <line id="線_380-2" data-name="線 380" x1="111.553" y2="128.856" transform="translate(631.027 0)" fill="none" stroke="#8dddc4" stroke-miterlimit="10" stroke-width="3.163"/>
              <line id="線_381-2" data-name="線 381" x1="111.553" y2="128.856" transform="translate(622.937 0)" fill="none" stroke="#8dddc4" stroke-miterlimit="10" stroke-width="3.163"/>
              <line id="線_382-2" data-name="線 382" x1="111.553" y2="128.856" transform="translate(614.847 0)" fill="none" stroke="#8dddc4" stroke-miterlimit="10" stroke-width="3.163"/>
              <line id="線_383-2" data-name="線 383" x1="111.553" y2="128.856" transform="translate(606.757 0)" fill="none" stroke="#8dddc4" stroke-miterlimit="10" stroke-width="3.163"/>
              <line id="線_384-2" data-name="線 384" x1="111.553" y2="128.856" transform="translate(598.667 0)" fill="none" stroke="#8dddc4" stroke-miterlimit="10" stroke-width="3.163"/>
              <line id="線_385-2" data-name="線 385" x1="111.553" y2="128.856" transform="translate(590.577 0)" fill="none" stroke="#8dddc4" stroke-miterlimit="10" stroke-width="3.163"/>
              <line id="線_386-2" data-name="線 386" x1="111.553" y2="128.856" transform="translate(582.487 0)" fill="none" stroke="#8dddc4" stroke-miterlimit="10" stroke-width="3.163"/>
              <line id="線_387-2" data-name="線 387" x1="111.553" y2="128.856" transform="translate(574.396 0)" fill="none" stroke="#8dddc4" stroke-miterlimit="10" stroke-width="3.163"/>
              <line id="線_388-2" data-name="線 388" x1="111.553" y2="128.856" transform="translate(566.306 0)" fill="none" stroke="#8dddc4" stroke-miterlimit="10" stroke-width="3.163"/>
              <line id="線_389-2" data-name="線 389" x1="111.553" y2="128.856" transform="translate(558.216 0)" fill="none" stroke="#8dddc4" stroke-miterlimit="10" stroke-width="3.163"/>
              <line id="線_390-2" data-name="線 390" x1="111.553" y2="128.856" transform="translate(550.126 0)" fill="none" stroke="#8dddc4" stroke-miterlimit="10" stroke-width="3.163"/>
              <line id="線_391-2" data-name="線 391" x1="111.553" y2="128.856" transform="translate(542.036 0)" fill="none" stroke="#8dddc4" stroke-miterlimit="10" stroke-width="3.163"/>
              <line id="線_392-2" data-name="線 392" x1="111.553" y2="128.856" transform="translate(533.946 0)" fill="none" stroke="#8dddc4" stroke-miterlimit="10" stroke-width="3.163"/>
              <line id="線_393-2" data-name="線 393" x1="111.553" y2="128.856" transform="translate(525.856 0)" fill="none" stroke="#8dddc4" stroke-miterlimit="10" stroke-width="3.163"/>
              <line id="線_394-2" data-name="線 394" x1="111.553" y2="128.856" transform="translate(517.766 0)" fill="none" stroke="#8dddc4" stroke-miterlimit="10" stroke-width="3.163"/>
              <line id="線_395-2" data-name="線 395" x1="111.553" y2="128.856" transform="translate(509.676 0)" fill="none" stroke="#8dddc4" stroke-miterlimit="10" stroke-width="3.163"/>
              <line id="線_396-2" data-name="線 396" x1="111.554" y2="128.856" transform="translate(501.585 0)" fill="none" stroke="#8dddc4" stroke-miterlimit="10" stroke-width="3.163"/>
              <line id="線_397-2" data-name="線 397" x1="111.554" y2="128.856" transform="translate(493.495 0)" fill="none" stroke="#8dddc4" stroke-miterlimit="10" stroke-width="3.163"/>
              <line id="線_398-2" data-name="線 398" x1="111.554" y2="128.856" transform="translate(485.405 0)" fill="none" stroke="#8dddc4" stroke-miterlimit="10" stroke-width="3.163"/>
              <line id="線_399-2" data-name="線 399" x1="111.554" y2="128.856" transform="translate(477.315 0)" fill="none" stroke="#8dddc4" stroke-miterlimit="10" stroke-width="3.163"/>
              <line id="線_400-2" data-name="線 400" x1="111.554" y2="128.856" transform="translate(469.225 0)" fill="none" stroke="#8dddc4" stroke-miterlimit="10" stroke-width="3.163"/>
              <line id="線_401-2" data-name="線 401" x1="111.554" y2="128.856" transform="translate(461.135 0)" fill="none" stroke="#8dddc4" stroke-miterlimit="10" stroke-width="3.163"/>
              <line id="線_402-2" data-name="線 402" x1="111.554" y2="128.856" transform="translate(453.045 0)" fill="none" stroke="#8dddc4" stroke-miterlimit="10" stroke-width="3.163"/>
              <line id="線_403-2" data-name="線 403" x1="111.554" y2="128.856" transform="translate(444.955 0)" fill="none" stroke="#8dddc4" stroke-miterlimit="10" stroke-width="3.163"/>
              <line id="線_404-2" data-name="線 404" x1="111.554" y2="128.856" transform="translate(436.865 0)" fill="none" stroke="#8dddc4" stroke-miterlimit="10" stroke-width="3.163"/>
              <line id="線_405-2" data-name="線 405" x1="111.554" y2="128.856" transform="translate(428.775 0)" fill="none" stroke="#8dddc4" stroke-miterlimit="10" stroke-width="3.163"/>
              <line id="線_406-2" data-name="線 406" x1="111.554" y2="128.856" transform="translate(420.685 0)" fill="none" stroke="#8dddc4" stroke-miterlimit="10" stroke-width="3.163"/>
              <line id="線_407-2" data-name="線 407" x1="111.554" y2="128.856" transform="translate(412.595 0)" fill="none" stroke="#8dddc4" stroke-miterlimit="10" stroke-width="3.163"/>
              <line id="線_408-2" data-name="線 408" x1="111.554" y2="128.856" transform="translate(404.504 0)" fill="none" stroke="#8dddc4" stroke-miterlimit="10" stroke-width="3.163"/>
              <line id="線_409-2" data-name="線 409" x1="111.554" y2="128.856" transform="translate(396.414 0)" fill="none" stroke="#8dddc4" stroke-miterlimit="10" stroke-width="3.163"/>
              <line id="線_410-2" data-name="線 410" x1="111.554" y2="128.856" transform="translate(388.324 0)" fill="none" stroke="#8dddc4" stroke-miterlimit="10" stroke-width="3.163"/>
              <line id="線_411-2" data-name="線 411" x1="111.554" y2="128.856" transform="translate(380.234 0)" fill="none" stroke="#8dddc4" stroke-miterlimit="10" stroke-width="3.163"/>
              <line id="線_412-2" data-name="線 412" x1="111.554" y2="128.856" transform="translate(372.144 0)" fill="none" stroke="#8dddc4" stroke-miterlimit="10" stroke-width="3.163"/>
              <line id="線_413-2" data-name="線 413" x1="111.554" y2="128.856" transform="translate(364.054 0)" fill="none" stroke="#8dddc4" stroke-miterlimit="10" stroke-width="3.163"/>
              <line id="線_414-2" data-name="線 414" x1="111.554" y2="128.856" transform="translate(355.964 0)" fill="none" stroke="#8dddc4" stroke-miterlimit="10" stroke-width="3.163"/>
              <line id="線_415-2" data-name="線 415" x1="111.554" y2="128.856" transform="translate(347.874 0)" fill="none" stroke="#8dddc4" stroke-miterlimit="10" stroke-width="3.163"/>
              <line id="線_416-2" data-name="線 416" x1="111.554" y2="128.856" transform="translate(339.784 0)" fill="none" stroke="#8dddc4" stroke-miterlimit="10" stroke-width="3.163"/>
              <line id="線_417-2" data-name="線 417" x1="111.554" y2="128.856" transform="translate(331.694 0)" fill="none" stroke="#8dddc4" stroke-miterlimit="10" stroke-width="3.163"/>
              <line id="線_418-2" data-name="線 418" x1="111.554" y2="128.856" transform="translate(323.604 0)" fill="none" stroke="#8dddc4" stroke-miterlimit="10" stroke-width="3.163"/>
              <line id="線_419-2" data-name="線 419" x1="111.554" y2="128.856" transform="translate(315.513 0)" fill="none" stroke="#8dddc4" stroke-miterlimit="10" stroke-width="3.163"/>
              <line id="線_420-2" data-name="線 420" x1="111.554" y2="128.856" transform="translate(307.423 0)" fill="none" stroke="#8dddc4" stroke-miterlimit="10" stroke-width="3.163"/>
              <path id="パス_6937-2" data-name="パス 6937" d="M111.554,0,0,128.856" transform="translate(299.333 0)" fill="none" stroke="#8dddc4" stroke-width="3.163"/>
              <line id="線_422-2" data-name="線 422" x1="111.554" y2="128.856" transform="translate(291.243 0)" fill="none" stroke="#8dddc4" stroke-miterlimit="10" stroke-width="3.163"/>
              <line id="線_423-2" data-name="線 423" x1="111.555" y2="128.856" transform="translate(283.153 0)" fill="none" stroke="#8dddc4" stroke-miterlimit="10" stroke-width="3.163"/>
              <line id="線_424-2" data-name="線 424" x1="111.555" y2="128.856" transform="translate(275.063 0)" fill="none" stroke="#8dddc4" stroke-miterlimit="10" stroke-width="3.163"/>
              <line id="線_425-2" data-name="線 425" x1="111.555" y2="128.856" transform="translate(266.973 0)" fill="none" stroke="#8dddc4" stroke-miterlimit="10" stroke-width="3.163"/>
              <line id="線_426-2" data-name="線 426" x1="111.555" y2="128.856" transform="translate(258.883 0)" fill="none" stroke="#8dddc4" stroke-miterlimit="10" stroke-width="3.163"/>
              <line id="線_427-2" data-name="線 427" x1="111.555" y2="128.856" transform="translate(250.793 0)" fill="none" stroke="#8dddc4" stroke-miterlimit="10" stroke-width="3.163"/>
              <line id="線_428-2" data-name="線 428" x1="111.555" y2="128.856" transform="translate(242.703 0)" fill="none" stroke="#8dddc4" stroke-miterlimit="10" stroke-width="3.163"/>
              <line id="線_429-2" data-name="線 429" x1="111.555" y2="128.856" transform="translate(234.613 0)" fill="none" stroke="#8dddc4" stroke-miterlimit="10" stroke-width="3.163"/>
              <line id="線_430-2" data-name="線 430" x1="111.555" y2="128.856" transform="translate(226.522 0)" fill="none" stroke="#8dddc4" stroke-miterlimit="10" stroke-width="3.163"/>
              <line id="線_431-2" data-name="線 431" x1="111.555" y2="128.856" transform="translate(218.432 0)" fill="none" stroke="#8dddc4" stroke-miterlimit="10" stroke-width="3.163"/>
              <line id="線_432-2" data-name="線 432" x1="111.555" y2="128.856" transform="translate(210.342 0)" fill="none" stroke="#8dddc4" stroke-miterlimit="10" stroke-width="3.163"/>
              <line id="線_433-2" data-name="線 433" x1="111.555" y2="128.856" transform="translate(202.252 0)" fill="none" stroke="#8dddc4" stroke-miterlimit="10" stroke-width="3.163"/>
              <line id="線_434-2" data-name="線 434" x1="111.555" y2="128.856" transform="translate(194.162 0)" fill="none" stroke="#8dddc4" stroke-miterlimit="10" stroke-width="3.163"/>
              <line id="線_435-2" data-name="線 435" x1="111.555" y2="128.856" transform="translate(186.072 0)" fill="none" stroke="#8dddc4" stroke-miterlimit="10" stroke-width="3.163"/>
              <line id="線_436-2" data-name="線 436" x1="111.555" y2="128.856" transform="translate(177.982 0)" fill="none" stroke="#8dddc4" stroke-miterlimit="10" stroke-width="3.163"/>
              <line id="線_437-2" data-name="線 437" x1="111.555" y2="128.856" transform="translate(169.892 0)" fill="none" stroke="#8dddc4" stroke-miterlimit="10" stroke-width="3.163"/>
              <line id="線_438-2" data-name="線 438" x1="111.555" y2="128.856" transform="translate(161.802 0)" fill="none" stroke="#8dddc4" stroke-miterlimit="10" stroke-width="3.163"/>
              <line id="線_439-2" data-name="線 439" x1="111.555" y2="128.856" transform="translate(153.712 0)" fill="none" stroke="#8dddc4" stroke-miterlimit="10" stroke-width="3.163"/>
              <line id="線_440-2" data-name="線 440" x1="111.555" y2="128.856" transform="translate(145.622 0)" fill="none" stroke="#8dddc4" stroke-miterlimit="10" stroke-width="3.163"/>
              <line id="線_441-2" data-name="線 441" x1="111.555" y2="128.856" transform="translate(137.532 0)" fill="none" stroke="#8dddc4" stroke-miterlimit="10" stroke-width="3.163"/>
              <line id="線_442-2" data-name="線 442" x1="111.555" y2="128.856" transform="translate(129.441 0)" fill="none" stroke="#8dddc4" stroke-miterlimit="10" stroke-width="3.163"/>
              <line id="線_443-2" data-name="線 443" x1="111.555" y2="128.856" transform="translate(121.351 0)" fill="none" stroke="#8dddc4" stroke-miterlimit="10" stroke-width="3.163"/>
              <line id="線_444-2" data-name="線 444" x1="111.555" y2="128.856" transform="translate(113.261 0)" fill="none" stroke="#8dddc4" stroke-miterlimit="10" stroke-width="3.163"/>
              <line id="線_445-2" data-name="線 445" x1="111.555" y2="128.856" transform="translate(105.171 0)" fill="none" stroke="#8dddc4" stroke-miterlimit="10" stroke-width="3.163"/>
              <line id="線_446-2" data-name="線 446" x1="111.555" y2="128.856" transform="translate(97.081 0)" fill="none" stroke="#8dddc4" stroke-miterlimit="10" stroke-width="3.163"/>
              <line id="線_447-2" data-name="線 447" x1="111.555" y2="128.856" transform="translate(88.991 0)" fill="none" stroke="#8dddc4" stroke-miterlimit="10" stroke-width="3.163"/>
              <line id="線_448-2" data-name="線 448" x1="111.555" y2="128.856" transform="translate(80.901 0)" fill="none" stroke="#8dddc4" stroke-miterlimit="10" stroke-width="3.163"/>
              <line id="線_449-2" data-name="線 449" x1="111.555" y2="128.856" transform="translate(72.811 0)" fill="none" stroke="#8dddc4" stroke-miterlimit="10" stroke-width="3.163"/>
              <line id="線_450-2" data-name="線 450" x1="111.556" y2="128.856" transform="translate(64.721 0)" fill="none" stroke="#8dddc4" stroke-miterlimit="10" stroke-width="3.163"/>
              <line id="線_451-2" data-name="線 451" x1="111.556" y2="128.856" transform="translate(56.631 0)" fill="none" stroke="#8dddc4" stroke-miterlimit="10" stroke-width="3.163"/>
              <line id="線_452-2" data-name="線 452" x1="111.556" y2="128.856" transform="translate(48.541 0)" fill="none" stroke="#8dddc4" stroke-miterlimit="10" stroke-width="3.163"/>
              <line id="線_453-2" data-name="線 453" x1="111.556" y2="128.856" transform="translate(40.45 0)" fill="none" stroke="#8dddc4" stroke-miterlimit="10" stroke-width="3.163"/>
              <line id="線_454-2" data-name="線 454" x1="111.556" y2="128.856" transform="translate(32.36 0)" fill="none" stroke="#8dddc4" stroke-miterlimit="10" stroke-width="3.163"/>
              <line id="線_455-2" data-name="線 455" x1="111.556" y2="128.856" transform="translate(24.27 0)" fill="none" stroke="#8dddc4" stroke-miterlimit="10" stroke-width="3.163"/>
              <line id="線_456-2" data-name="線 456" x1="111.556" y2="128.856" transform="translate(16.18 0)" fill="none" stroke="#8dddc4" stroke-miterlimit="10" stroke-width="3.163"/>
              <line id="線_457-2" data-name="線 457" x1="111.556" y2="128.856" transform="translate(8.09 0)" fill="none" stroke="#8dddc4" stroke-miterlimit="10" stroke-width="3.163"/>
              <line id="線_458-2" data-name="線 458" x1="111.556" y2="128.856" transform="translate(0 0)" fill="none" stroke="#8dddc4" stroke-miterlimit="10" stroke-width="3.163"/>
            </g>
          </g>
          <path id="パス_6938-2" data-name="パス 6938" d="M-399.983,1163.194v-71.24l-55.409-47.493-55.409,47.493v71.24Z" transform="translate(1410.127 1136.04)" fill="none" stroke="#8dddc4" stroke-linecap="round" stroke-linejoin="round" stroke-width="6"/>
        </g>
        <path id="パス_11925" data-name="パス 11925" d="M-28.16-9.328A22.139,22.139,0,0,1-32.3-3.652l2.4,1.628a35.72,35.72,0,0,0,4.246-6.138Zm12.606-1.958c.616,0,1.474.022,2.156.066V-14.1a17.5,17.5,0,0,1-2.178.154h-5.1v-1.738a13.53,13.53,0,0,1,.2-1.936h-3.256a14.62,14.62,0,0,1,.176,1.914v1.76H-29.15c-.682,0-1.452-.088-2.112-.154v2.9c.616-.066,1.452-.088,2.112-.088h5.588v.022c0,1.034,0,8.008-.022,8.822-.022.572-.22.792-.792.792a14.339,14.339,0,0,1-2.442-.242l.264,2.706a31.374,31.374,0,0,0,3.564.2c1.562,0,2.31-.792,2.31-2.068v-10.23ZM-18.612-8.1a44.468,44.468,0,0,1,3.586,5.9l2.574-1.408a51.139,51.139,0,0,0-3.762-5.786ZM4.62-14.124c.77,0,1.606.044,2.376.088v-2.838a17.236,17.236,0,0,1-2.376.154H-4.224a16.392,16.392,0,0,1-2.332-.154v2.838c.66-.044,1.584-.088,2.354-.088ZM-7.018-11.11c-.682,0-1.452-.066-2.112-.132V-8.36c.616-.044,1.474-.088,2.112-.088h6.05A9.454,9.454,0,0,1-2.332-3.586,9.139,9.139,0,0,1-6.314-.44L-3.74,1.43A10.556,10.556,0,0,0,.682-2.794,13.957,13.957,0,0,0,2.09-8.448h5.3c.616,0,1.452.022,2,.066v-2.86a16.928,16.928,0,0,1-2,.132ZM15,.968A12.743,12.743,0,0,0,18.92-5.346c.594-2.222.66-6.864.66-9.46a14.031,14.031,0,0,1,.154-1.98H16.5a8.03,8.03,0,0,1,.2,2c0,2.662-.022,6.82-.638,8.712A10.378,10.378,0,0,1,12.32-.814Zm9.328.066A5.609,5.609,0,0,1,25.3.374a24.223,24.223,0,0,0,7.458-6.006l-1.694-2.42A13.931,13.931,0,0,1,25.63-3.41V-14.916a11.171,11.171,0,0,1,.154-1.914H22.506a9.753,9.753,0,0,1,.176,1.892V-2.112a8.372,8.372,0,0,1-.176,1.628Zm-83.5,27.726c-.666,0-1.386-.882-1.386-2.682a5.589,5.589,0,0,1,4.518-5.166,28.611,28.611,0,0,1-.954,4.32C-57.708,27.644-58.428,28.76-59.166,28.76Zm4.9,3.978c4.5-.684,6.8-3.348,6.8-7.092a6.8,6.8,0,0,0-7.2-6.966,7.949,7.949,0,0,0-8.208,7.632c0,3.006,1.674,5.184,3.636,5.184,1.944,0,3.492-2.2,4.554-5.8a38.738,38.738,0,0,0,1.062-4.842A4.412,4.412,0,0,1-49.9,25.574a4.826,4.826,0,0,1-4.05,4.77c-.468.108-.972.2-1.656.288Zm16.542-3.6c0,1.17-.414,1.692-1.566,1.692-1.242,0-2.142-.324-2.142-1.206,0-.756.828-1.224,2.214-1.224a9.791,9.791,0,0,1,1.476.126C-37.728,28.76-37.728,28.976-37.728,29.138Zm7.7.828a14.1,14.1,0,0,0-5.418-3.06c-.09-1.314-.162-2.718-.2-3.8,1.44-.036,3.564-.108,5.058-.252l-.09-2.124c-1.476.162-3.564.234-4.968.27v-1.3c.036-.7.09-1.566.162-2.088H-38.16a11.31,11.31,0,0,1,.18,2.088c.018.756.036,1.818.036,2.9,0,.936.072,2.466.126,3.852A10.229,10.229,0,0,0-38.88,26.4c-3.276,0-4.86,1.476-4.86,3.33,0,2.43,2.088,3.258,4.626,3.258,2.988,0,3.8-1.512,3.8-3.078,0-.18,0-.378-.018-.612a13.768,13.768,0,0,1,3.942,2.79Zm14.94-3.888c0,2.79-2.826,4.23-7.254,4.734l1.3,2.232c4.95-.684,8.478-3.06,8.478-6.876,0-2.79-1.98-4.392-4.806-4.392a24.694,24.694,0,0,0-5.382.81,17.476,17.476,0,0,1-1.944.306l.666,2.538c.522-.18,1.206-.45,1.728-.612a15.994,15.994,0,0,1,4.644-.864C-15.984,23.936-15.084,24.908-15.084,26.078Zm-6.984-8.568-.36,2.16c2.052.36,5.922.7,8.01.846l.36-2.2A50.35,50.35,0,0,1-22.068,17.51Zm30.06,4.662A32.074,32.074,0,0,0,3.6,19.76L2.448,21.524a23.766,23.766,0,0,1,4.284,2.538ZM1.278,19.436a18.828,18.828,0,0,1-2.394.558c.252-.954.468-1.854.612-2.43l-2.466-.252A15.177,15.177,0,0,1-3.456,20.3c-.54.036-1.08.054-1.6.054a22.658,22.658,0,0,1-2.376-.126l.162,2.088c.774.036,1.494.054,2.232.054.306,0,.612,0,.918-.018a27.2,27.2,0,0,1-3.636,6.3l2.178,1.1a32.9,32.9,0,0,0,3.816-7.632,26.122,26.122,0,0,0,3.1-.612Zm.432,9.918c0,.954-.4,1.656-1.6,1.656-.972,0-1.53-.45-1.53-1.116,0-.63.666-1.062,1.692-1.062a6.309,6.309,0,0,1,1.44.18Zm-.288-6.246c.054,1.08.144,2.646.2,3.978-.378-.036-.792-.072-1.206-.072-2.484,0-3.942,1.35-3.942,3.1,0,1.962,1.746,2.952,3.96,2.952,2.538,0,3.438-1.3,3.438-2.952v-.162a15.869,15.869,0,0,1,2.412,1.89L7.47,29.93a11.875,11.875,0,0,0-3.69-2.286c-.054-.882-.09-1.746-.108-2.25-.018-.792-.054-1.53,0-2.286ZM26.6,25.97h-7.11V23.864h6.048V21.812H19.494V19.454a42.409,42.409,0,0,0,5.472-.954l-1.548-1.782A66.841,66.841,0,0,1,11.2,18.158a7.168,7.168,0,0,1,.54,1.89c1.764-.072,3.654-.18,5.526-.342v2.106H11.376v2.052h5.886V25.97h-7.11v2.088h7.11v2.9c0,.36-.162.486-.576.5-.4,0-1.908,0-3.24-.054a8.3,8.3,0,0,1,.882,2.124,12.242,12.242,0,0,0,4-.36c.846-.342,1.17-.9,1.17-2.178V28.058H26.6Zm14.958,3.06h2.772v-1.8H41.562v-2H39.438v2H36.72v1.8h2.718v2.25H35.766v1.89h9.378V31.28H41.562Zm.468-9.63a8.643,8.643,0,0,1-1.566,2.268A8.694,8.694,0,0,1,38.97,19.4Zm-7.722,4.446H32.976v-1.08h1.332Zm0,2.466H32.976v-1.1h1.332Zm-4.068-1.1h1.278v1.1H30.24Zm0-2.448h1.278v1.08H30.24Zm13.086-5.274-.36.072H36.5V19.4h2.088l-1.422.378a11.894,11.894,0,0,0,1.854,3.114A10.755,10.755,0,0,1,35.91,24.35V21.29h-2.7V20.3h2.826V18.446H33.21V16.754H31.3v1.692H28.53V20.3H31.3v.99H28.71v6.5H31.3v1.08H28.314V30.74H31.3v2.826H33.21V30.74h2.97V28.868H33.21v-1.08h2.7V24.872a9.311,9.311,0,0,1,.774,1.278,13.354,13.354,0,0,0,3.8-1.872,10.588,10.588,0,0,0,3.636,1.8A7.408,7.408,0,0,1,45.4,24.35a10.809,10.809,0,0,1-3.384-1.4,11.441,11.441,0,0,0,2.682-4.932ZM49.5,26.15a12.082,12.082,0,0,0-.5,2.934c0,2.484,1.926,3.834,5.508,3.834a24.981,24.981,0,0,0,4.806-.432l.054-2.358a19.709,19.709,0,0,1-4.86.522c-2.52,0-3.186-.882-3.186-2.178a8,8,0,0,1,.486-2.124Zm11.628-7a26.076,26.076,0,0,1-3.492.9c-.4-.936-.738-1.782-1.044-2.718l-2.52.486a13.837,13.837,0,0,1,.882,1.71c.108.27.234.558.378.846a30.37,30.37,0,0,1-6.66-.18l.072,2.286a40.048,40.048,0,0,0,7.506,0c.522,1.116,1.134,2.358,1.566,3.258-.54-.036-1.512-.144-2.106-.2l-.2,1.836c1.314.162,3.078.45,4.05.648l1.26-1.35c-.774-1.422-1.62-3.114-2.3-4.554,1.08-.216,2.124-.468,3.024-.72Z" transform="translate(107 3781.604)"/>
        <path id="パス_11926" data-name="パス 11926" d="M-54.23-15.312H-59.4v1.826h5.17v1.012h-4.444v1.8H-46.86v-1.8h-4.862v-1.012h5.588v-1.826h-5.588v-1.056c1.628-.132,3.168-.308,4.466-.55l-1.32-1.606a75.723,75.723,0,0,1-9.746.836,6.459,6.459,0,0,1,.506,1.606c1.144-.022,2.354-.044,3.586-.11Zm-8.624,4.8h2.464v-5.126a16.95,16.95,0,0,0,1.914-2.112l-2.376-.88a15.939,15.939,0,0,1-5.654,4.29,15.509,15.509,0,0,1,1.892,1.914,18.677,18.677,0,0,0,1.76-1.166Zm2.376,6.688H-51v.9h-9.482Zm0-2.288H-51v.88h-9.482Zm0-2.266H-51v.858h-9.482ZM-48.334-1.43V-9.878H-63.008V-1.43h2.948A29.868,29.868,0,0,1-65.89.11,16.9,16.9,0,0,1-64,1.98,28.117,28.117,0,0,0-57.134-.638l-1.738-.792h6.094L-54.67-.4a39.87,39.87,0,0,1,5.632,2.31L-45.892.748c-1.43-.616-3.762-1.5-5.9-2.178Zm8.6-9.834h2.508v-4.664a15.652,15.652,0,0,0,1.87-1.98l-2.376-.9a16.853,16.853,0,0,1-6.226,4.444,13.489,13.489,0,0,1,1.848,1.87,25.554,25.554,0,0,0,2.376-1.452ZM-38.1-4.312h9.548v.968H-38.1Zm0-2.42h9.548v.946H-38.1Zm0-2.42h9.548v.946H-38.1Zm12.188,7.37V-10.67c1.518-.088,2.2-.66,2.486-2.86a5.664,5.664,0,0,1-1.914-.9c-.11,1.122-.264,1.474-.836,1.5A5.179,5.179,0,0,1-29.656-14.5l5.984-.352-.2-1.892-2.266.132.77-.858A14.984,14.984,0,0,0-29.15-18.7l-1.166,1.254a20.96,20.96,0,0,1,2.728.924l-3.432.2a7.275,7.275,0,0,1-.726-2.31h-2.442a11.671,11.671,0,0,0,.572,2.442l-2.97.176.2,1.936,3.718-.22a7.862,7.862,0,0,0,5.632,3.586h-13.6v8.932H-37.4A25.833,25.833,0,0,1-43.45.066,26.534,26.534,0,0,1-41.514,1.98,27.261,27.261,0,0,0-34.65-.9l-2-.88h6.424l-1.98,1.144a43.379,43.379,0,0,1,5.72,2.6L-23.452.792c-1.5-.726-4.026-1.782-6.27-2.574Zm12.76-10.142A12.2,12.2,0,0,1-13-9.944c0,3.608-.528,5.94-3.322,7.876a8.693,8.693,0,0,1-2.31,1.21l2.552,2.09c6.006-3.212,6.116-7.7,6.116-13.156Zm10.406-4.6a10.96,10.96,0,0,1-2.222.2H-16.83a17.441,17.441,0,0,1-2.684-.22v3.058c1.034-.088,1.76-.154,2.684-.154H-5.368A13.083,13.083,0,0,1-9.416-9.548L-7.15-7.722a22.137,22.137,0,0,0,5.3-6.028A11.077,11.077,0,0,1-.99-14.894Zm20.372.7A1.277,1.277,0,0,1,18.9-17.094a1.277,1.277,0,0,1,1.276,1.276A1.272,1.272,0,0,1,18.9-14.564,1.272,1.272,0,0,1,17.622-15.818Zm-1.364,0A2.643,2.643,0,0,0,18.9-13.2a2.643,2.643,0,0,0,2.64-2.618,2.648,2.648,0,0,0-2.64-2.64A2.648,2.648,0,0,0,16.258-15.818ZM4.224-6.842A26.506,26.506,0,0,1,.792-.726l3.08,1.3A30.248,30.248,0,0,0,7.128-5.72,55.011,55.011,0,0,0,9-12.342c.088-.484.33-1.562.528-2.2L6.314-15.2A31.7,31.7,0,0,1,4.224-6.842ZM15.092-7.3A67.977,67.977,0,0,1,17.38.462L20.636-.594c-.616-2.178-1.782-5.7-2.574-7.678-.814-2.134-2.332-5.5-3.234-7.216l-2.926.946A61.629,61.629,0,0,1,15.092-7.3Zm9.372.572c.814-.066,2.288-.11,3.542-.11H39.82c.924,0,2.046.088,2.574.11v-3.454c-.572.044-1.562.132-2.574.132H28.006c-1.144,0-2.75-.066-3.542-.132ZM64-8.1a71.853,71.853,0,0,0-9.2-3.41V-14.74A23.925,23.925,0,0,1,55-17.4H51.568a15.344,15.344,0,0,1,.22,2.662V-2.112a23.541,23.541,0,0,1-.22,3.058H55c-.088-.88-.2-2.42-.2-3.058V-8.338A63.544,63.544,0,0,1,62.744-5.06ZM-59.166,28.76c-.666,0-1.386-.882-1.386-2.682a5.589,5.589,0,0,1,4.518-5.166,28.611,28.611,0,0,1-.954,4.32C-57.708,27.644-58.428,28.76-59.166,28.76Zm4.9,3.978c4.5-.684,6.8-3.348,6.8-7.092a6.8,6.8,0,0,0-7.2-6.966,7.949,7.949,0,0,0-8.208,7.632c0,3.006,1.674,5.184,3.636,5.184,1.944,0,3.492-2.2,4.554-5.8a38.738,38.738,0,0,0,1.062-4.842A4.412,4.412,0,0,1-49.9,25.574a4.826,4.826,0,0,1-4.05,4.77c-.468.108-.972.2-1.656.288Zm16.542-3.6c0,1.17-.414,1.692-1.566,1.692-1.242,0-2.142-.324-2.142-1.206,0-.756.828-1.224,2.214-1.224a9.791,9.791,0,0,1,1.476.126C-37.728,28.76-37.728,28.976-37.728,29.138Zm7.7.828a14.1,14.1,0,0,0-5.418-3.06c-.09-1.314-.162-2.718-.2-3.8,1.44-.036,3.564-.108,5.058-.252l-.09-2.124c-1.476.162-3.564.234-4.968.27v-1.3c.036-.7.09-1.566.162-2.088H-38.16a11.31,11.31,0,0,1,.18,2.088c.018.756.036,1.818.036,2.9,0,.936.072,2.466.126,3.852A10.229,10.229,0,0,0-38.88,26.4c-3.276,0-4.86,1.476-4.86,3.33,0,2.43,2.088,3.258,4.626,3.258,2.988,0,3.8-1.512,3.8-3.078,0-.18,0-.378-.018-.612a13.768,13.768,0,0,1,3.942,2.79Zm14.94-3.888c0,2.79-2.826,4.23-7.254,4.734l1.3,2.232c4.95-.684,8.478-3.06,8.478-6.876,0-2.79-1.98-4.392-4.806-4.392a24.694,24.694,0,0,0-5.382.81,17.476,17.476,0,0,1-1.944.306l.666,2.538c.522-.18,1.206-.45,1.728-.612a15.994,15.994,0,0,1,4.644-.864C-15.984,23.936-15.084,24.908-15.084,26.078Zm-6.984-8.568-.36,2.16c2.052.36,5.922.7,8.01.846l.36-2.2A50.35,50.35,0,0,1-22.068,17.51Zm30.06,4.662A32.074,32.074,0,0,0,3.6,19.76L2.448,21.524a23.766,23.766,0,0,1,4.284,2.538ZM1.278,19.436a18.828,18.828,0,0,1-2.394.558c.252-.954.468-1.854.612-2.43l-2.466-.252A15.177,15.177,0,0,1-3.456,20.3c-.54.036-1.08.054-1.6.054a22.658,22.658,0,0,1-2.376-.126l.162,2.088c.774.036,1.494.054,2.232.054.306,0,.612,0,.918-.018a27.2,27.2,0,0,1-3.636,6.3l2.178,1.1a32.9,32.9,0,0,0,3.816-7.632,26.122,26.122,0,0,0,3.1-.612Zm.432,9.918c0,.954-.4,1.656-1.6,1.656-.972,0-1.53-.45-1.53-1.116,0-.63.666-1.062,1.692-1.062a6.309,6.309,0,0,1,1.44.18Zm-.288-6.246c.054,1.08.144,2.646.2,3.978-.378-.036-.792-.072-1.206-.072-2.484,0-3.942,1.35-3.942,3.1,0,1.962,1.746,2.952,3.96,2.952,2.538,0,3.438-1.3,3.438-2.952v-.162a15.869,15.869,0,0,1,2.412,1.89L7.47,29.93a11.875,11.875,0,0,0-3.69-2.286c-.054-.882-.09-1.746-.108-2.25-.018-.792-.054-1.53,0-2.286Zm12.726,7.56V28.8H22.7v1.872Zm8.55-5.706v1.854h-8.55V24.962Zm0-3.834v1.854h-8.55V21.128ZM18.81,19.076c.288-.648.576-1.35.846-2.07l-2.592-.288a20.372,20.372,0,0,1-.486,2.358H11.97V33.548h2.178v-.9H22.7v.882h2.286V19.076ZM37.746,30.488v-3.06h3.942v3.06Zm-6.03-3.06h3.816v3.06H31.716Zm3.816-5.094V25.34H31.716V22.334Zm6.156,0V25.34H37.746V22.334Zm-3.942-2.16v-3.4H35.532v3.4H29.574V33.566h2.142v-.954h9.972v.936h2.25V20.174ZM49.5,26.15a12.082,12.082,0,0,0-.5,2.934c0,2.484,1.926,3.834,5.508,3.834a24.981,24.981,0,0,0,4.806-.432l.054-2.358a19.709,19.709,0,0,1-4.86.522c-2.52,0-3.186-.882-3.186-2.178a8,8,0,0,1,.486-2.124Zm11.628-7a26.076,26.076,0,0,1-3.492.9c-.4-.936-.738-1.782-1.044-2.718l-2.52.486a13.837,13.837,0,0,1,.882,1.71c.108.27.234.558.378.846a30.37,30.37,0,0,1-6.66-.18l.072,2.286a40.048,40.048,0,0,0,7.506,0c.522,1.116,1.134,2.358,1.566,3.258-.54-.036-1.512-.144-2.106-.2l-.2,1.836c1.314.162,3.078.45,4.05.648l1.26-1.35c-.774-1.422-1.62-3.114-2.3-4.554,1.08-.216,2.124-.468,3.024-.72Z" transform="translate(269 3781.604)"/>
        <path id="パス_11927" data-name="パス 11927" d="M-27.888-12.048l.08,1.632c.4-.048.9-.1,1.312-.128.656-.048,3.056-.176,3.744-.224a61.762,61.762,0,0,1-4.9,3.968c-.816.1-1.888.24-2.752.336l.144,1.52c1.76-.3,3.728-.544,5.312-.672A3.665,3.665,0,0,0-26.48-2.848C-26.48-.336-24.256.9-20.3.72l.32-1.648A12.744,12.744,0,0,1-22.3-.96c-1.44-.192-2.592-.7-2.592-2.144a3.2,3.2,0,0,1,2.88-2.8,23.445,23.445,0,0,1,4.048-.048l-.016-1.488c-2.112,0-4.864.192-7.152.432,1.2-.944,3.168-2.592,4.32-3.536a9.765,9.765,0,0,1,1.024-.7L-20.8-12.416a3.546,3.546,0,0,1-.96.176c-.944.112-4.08.256-4.752.256A12.23,12.23,0,0,1-27.888-12.048ZM-.72-2.864A3.361,3.361,0,0,1-2.96-1.632c-.5,0-.72-.352-.72-.848,0-1.616.56-4.176.56-5.776A2.09,2.09,0,0,0-5.472-10.48c-1.552,0-3.488,1.392-4.72,2.512.016-.224.032-.432.048-.656.256-.4.544-.848.752-1.136l-.56-.672c.112-1.024.24-1.872.32-2.272l-1.872-.064a7.054,7.054,0,0,1,.08,1.28c0,.176-.032.688-.08,1.376-.752.112-1.584.208-2.08.24-.448.016-.784.032-1.184.016l.16,1.632c.96-.128,2.272-.3,3.008-.4-.032.448-.064.912-.1,1.36-.848,1.28-2.576,3.568-3.456,4.672L-14.16-1.2c.672-.912,1.6-2.288,2.336-3.376-.032,1.76-.048,2.672-.064,4.144,0,.256-.032.768-.048,1.04h1.728c-.032-.32-.08-.784-.1-1.072-.08-1.44-.064-2.576-.064-3.952,0-.5.016-1.04.048-1.6C-8.944-7.5-7.12-8.992-5.888-8.992A1.072,1.072,0,0,1-4.7-7.76c0,1.5-.592,3.984-.592,5.728C-5.3-.624-4.528.144-3.424.144A4.115,4.115,0,0,0-.48-1.12Zm16.352-8.624A22.868,22.868,0,0,0,14.3-13.68l-1.04.432a14.6,14.6,0,0,1,1.312,2.208Zm-10.48-1.12a18.835,18.835,0,0,1-.384,3.392c-.88.08-1.728.144-2.24.16-.544.016-.992.032-1.536,0l.16,1.728C1.6-7.408,2.3-7.5,2.72-7.552c.368-.048,1.008-.112,1.728-.192A24.434,24.434,0,0,1,1.168-.08L2.816.576A32.312,32.312,0,0,0,6.08-7.92C6.672-7.968,7.2-8,7.52-8c1.008,0,1.616.224,1.616,1.584a12.721,12.721,0,0,1-.7,4.624,1.253,1.253,0,0,1-1.3.752,8.6,8.6,0,0,1-1.952-.336L5.456.288a8.829,8.829,0,0,0,1.888.24A2.389,2.389,0,0,0,9.792-.848a15.589,15.589,0,0,0,.9-5.744C10.688-8.8,9.52-9.44,8-9.44c-.368,0-.944.032-1.584.08.144-.72.288-1.488.368-1.968.064-.352.16-.752.24-1.088ZM13.776-10.8a23.438,23.438,0,0,0-1.3-2.208l-1.04.432a17.147,17.147,0,0,1,1.28,2.208c-.1-.128-.176-.24-.256-.352l-1.488.656A18.426,18.426,0,0,1,13.744-4.24l1.584-.752a29.9,29.9,0,0,0-2.608-5.36ZM17.52-6.08a1.147,1.147,0,0,0,1.152,1.152A1.147,1.147,0,0,0,19.824-6.08a1.147,1.147,0,0,0-1.152-1.152A1.147,1.147,0,0,0,17.52-6.08Zm5.328,0A1.147,1.147,0,0,0,24-4.928,1.147,1.147,0,0,0,25.152-6.08,1.147,1.147,0,0,0,24-7.232,1.147,1.147,0,0,0,22.848-6.08Zm5.328,0a1.147,1.147,0,0,0,1.152,1.152A1.147,1.147,0,0,0,30.48-6.08a1.147,1.147,0,0,0-1.152-1.152A1.147,1.147,0,0,0,28.176-6.08Z" transform="translate(194.473 3874.604)" fill="#02835b"/>
      </g>
    </g>
    <g id="グループ_3133" data-name="グループ 3133" transform="translate(-15 313)">
      <g id="グループ_3131" data-name="グループ 3131" transform="translate(110 3914.08)">
        <rect id="長方形_2449" data-name="長方形 2449" width="183.285" height="43.253" transform="translate(1.622 1.622)" fill="#333"/>
        <g id="長方形_2450" data-name="長方形 2450" transform="translate(0)" fill="#fde94c" stroke="#333" stroke-width="3">
          <rect width="183.285" height="43.253" stroke="none"/>
          <rect x="1.5" y="1.5" width="180.285" height="40.253" fill="none"/>
        </g>
        <g id="グループ_2432" data-name="グループ 2432" transform="translate(18.207 12.169)">
          <g id="グループ_2422" data-name="グループ 2422" transform="translate(0 0)">
            <g id="グループ_2420" data-name="グループ 2420">
              <path id="パス_7271" data-name="パス 7271" d="M1488.17-1369.9a2.274,2.274,0,0,0-1.322.217l-.017.009a3.98,3.98,0,0,1-1.113.385,6.657,6.657,0,0,1-1.214.113,6.226,6.226,0,0,1-2.036-.323,4.219,4.219,0,0,1-1.574-.959,4.511,4.511,0,0,1-1.051-1.63,6.594,6.594,0,0,1-.388-2.38,6.249,6.249,0,0,1,.345-2.126,4.579,4.579,0,0,1,.988-1.621,4.416,4.416,0,0,1,1.571-1.049,5.768,5.768,0,0,1,2.144-.374,5.6,5.6,0,0,1,1.229.132,5.762,5.762,0,0,1,1.114.374,2.438,2.438,0,0,0,1.3.245,1.654,1.654,0,0,0,1.193-.7,2.054,2.054,0,0,0,.46-1.66,1.84,1.84,0,0,0-1.034-1.4,9.1,9.1,0,0,0-2.042-.749,9.6,9.6,0,0,0-2.218-.258,9.9,9.9,0,0,0-3.705.684,8.991,8.991,0,0,0-2.963,1.916,8.589,8.589,0,0,0-1.947,2.92,9.644,9.644,0,0,0-.685,3.659,10.152,10.152,0,0,0,.749,4.021,8.218,8.218,0,0,0,2.072,2.928,8.989,8.989,0,0,0,2.977,1.76,10.4,10.4,0,0,0,3.5.591,9.305,9.305,0,0,0,1.473-.116,10.459,10.459,0,0,0,1.424-.333,9.06,9.06,0,0,0,1.376-.552,1.832,1.832,0,0,0,1.04-1.317,2.016,2.016,0,0,0-.456-1.7A1.809,1.809,0,0,0,1488.17-1369.9Z" transform="translate(-1475.203 1383.764)"/>
              <path id="パス_7272" data-name="パス 7272" d="M1615.643-1382.861a2.067,2.067,0,0,0-1.439.57,1.936,1.936,0,0,0-.638,1.459v5.048H1606.9v-5.048a1.931,1.931,0,0,0-.62-1.454,2,2,0,0,0-1.408-.574,2.074,2.074,0,0,0-1.5.58,1.948,1.948,0,0,0-.6,1.449v14.057a1.991,1.991,0,0,0,.567,1.438,1.988,1.988,0,0,0,1.485.591,2.068,2.068,0,0,0,1.44-.57,1.936,1.936,0,0,0,.638-1.459v-5.122h6.668v5.122a1.928,1.928,0,0,0,.62,1.454,2,2,0,0,0,1.408.575,2.062,2.062,0,0,0,1.517-.585,1.97,1.97,0,0,0,.585-1.443v-14.057a1.993,1.993,0,0,0-.568-1.438A1.988,1.988,0,0,0,1615.643-1382.861Z" transform="translate(-1582.897 1383.104)"/>
              <path id="パス_7273" data-name="パス 7273" d="M1736.412-1381.681a8.51,8.51,0,0,0-2.805-2.013,8.608,8.608,0,0,0-3.543-.729,8.522,8.522,0,0,0-3.532.729,8.539,8.539,0,0,0-2.791,2.013,9.244,9.244,0,0,0-1.822,2.958,9.985,9.985,0,0,0-.644,3.6,9.982,9.982,0,0,0,.644,3.6,9.237,9.237,0,0,0,1.822,2.958,8.537,8.537,0,0,0,2.791,2.013,8.522,8.522,0,0,0,3.532.729,8.6,8.6,0,0,0,3.543-.729,8.507,8.507,0,0,0,2.805-2.013,9.256,9.256,0,0,0,1.822-2.958,9.989,9.989,0,0,0,.644-3.6,9.993,9.993,0,0,0-.644-3.6A9.255,9.255,0,0,0,1736.412-1381.681Zm-6.348,11.85a4.026,4.026,0,0,1-2.344-.684,4.761,4.761,0,0,1-1.6-1.891,6.154,6.154,0,0,1-.59-2.717,6.136,6.136,0,0,1,.589-2.727,4.782,4.782,0,0,1,1.6-1.881,4.028,4.028,0,0,1,2.344-.684,4.029,4.029,0,0,1,2.344.684,4.868,4.868,0,0,1,1.618,1.895,6.057,6.057,0,0,1,.6,2.713,6.053,6.053,0,0,1-.6,2.713,4.86,4.86,0,0,1-1.618,1.9A4.028,4.028,0,0,1,1730.064-1369.831Z" transform="translate(-1682.946 1384.423)"/>
              <path id="パス_7274" data-name="パス 7274" d="M1865.293-1382.861a2.075,2.075,0,0,0-1.5.58,1.949,1.949,0,0,0-.6,1.449v14.057a1.992,1.992,0,0,0,.568,1.438,1.988,1.988,0,0,0,1.485.591,2.068,2.068,0,0,0,1.44-.57,1.935,1.935,0,0,0,.638-1.459v-14.057a1.931,1.931,0,0,0-.621-1.454A2,2,0,0,0,1865.293-1382.861Z" transform="translate(-1802.757 1383.104)"/>
              <path id="パス_7275" data-name="パス 7275" d="M1930.99-1335.712h-4.232a2.017,2.017,0,0,0-1.432.55,1.888,1.888,0,0,0-.6,1.43,1.928,1.928,0,0,0,.59,1.437,1.992,1.992,0,0,0,1.438.568h4.232a2.019,2.019,0,0,0,1.432-.55,1.886,1.886,0,0,0,.6-1.406,1.969,1.969,0,0,0-.585-1.444A1.97,1.97,0,0,0,1930.99-1335.712Z" transform="translate(-1854.71 1343.299)"/>
              <path id="パス_7276" data-name="パス 7276" d="M2018.073-1375.418a6.569,6.569,0,0,0-2-1.025,20.113,20.113,0,0,0-2.632-.649,13.71,13.71,0,0,1-1.847-.479,2.37,2.37,0,0,1-1-.6,1.2,1.2,0,0,1-.286-.84,1.138,1.138,0,0,1,.248-.732,1.9,1.9,0,0,1,.845-.557,4.572,4.572,0,0,1,1.573-.233,4.5,4.5,0,0,1,1.213.186,8.877,8.877,0,0,1,1.306.481,3.9,3.9,0,0,1,.916.56l.032.026a1.6,1.6,0,0,0,.984.328,1.852,1.852,0,0,0,1.369-.609,1.922,1.922,0,0,0,.562-1.347,2.144,2.144,0,0,0-.9-1.709,7.4,7.4,0,0,0-2.367-1.3,9.356,9.356,0,0,0-3.111-.505,8.392,8.392,0,0,0-3.276.627,5.657,5.657,0,0,0-2.43,1.884,5.014,5.014,0,0,0-.919,3.021,5.534,5.534,0,0,0,.381,2.09,4.6,4.6,0,0,0,1.144,1.654,5.924,5.924,0,0,0,1.833,1.127,10.8,10.8,0,0,0,2.438.63,9.844,9.844,0,0,1,2.163.515,2.819,2.819,0,0,1,1.123.711,1.3,1.3,0,0,1,.307.885.964.964,0,0,1-.307.7,2.716,2.716,0,0,1-1.015.624,4.2,4.2,0,0,1-1.465.246,5.235,5.235,0,0,1-2.036-.345,7.226,7.226,0,0,1-1.709-1.067,1.827,1.827,0,0,0-1.168-.411,1.886,1.886,0,0,0-1.406.6,1.929,1.929,0,0,0-.549,1.359,2.05,2.05,0,0,0,.227.924,2.45,2.45,0,0,0,.618.778,7.9,7.9,0,0,0,2.8,1.6,10.852,10.852,0,0,0,3.226.45,8.327,8.327,0,0,0,3.291-.652,6.168,6.168,0,0,0,2.517-1.921,4.9,4.9,0,0,0,.988-3.055,5.963,5.963,0,0,0-.408-2.316A4.1,4.1,0,0,0,2018.073-1375.418Z" transform="translate(-1923.387 1384.423)"/>
              <path id="パス_7277" data-name="パス 7277" d="M2125.388-1382.861h-10.8a2.073,2.073,0,0,0-1.419.514,1.835,1.835,0,0,0-.61,1.417,1.872,1.872,0,0,0,.6,1.424,2.044,2.044,0,0,0,1.426.532h3.273v12.2a1.948,1.948,0,0,0,.6,1.449,2.072,2.072,0,0,0,1.5.58,2.147,2.147,0,0,0,1.529-.575,1.928,1.928,0,0,0,.621-1.454v-12.2h3.273a2.073,2.073,0,0,0,1.419-.514,1.834,1.834,0,0,0,.609-1.418,1.873,1.873,0,0,0-.6-1.424A2.046,2.046,0,0,0,2125.388-1382.861Z" transform="translate(-2013.284 1383.104)"/>
              <path id="パス_7278" data-name="パス 7278" d="M2228.89-1382.21a1.975,1.975,0,0,0-.749-.968,1.964,1.964,0,0,0-1.092-.349,1.813,1.813,0,0,0-1.194.311,2.123,2.123,0,0,0-.8,1L2219-1367.675l-.019.054a2.157,2.157,0,0,0-.1.618,1.861,1.861,0,0,0,.449,1.257,1.738,1.738,0,0,0,1.385.553,1.818,1.818,0,0,0,1.086-.359,2.04,2.04,0,0,0,.71-.957l1.115-2.624h6.532l1.12,2.609a2.276,2.276,0,0,0,.72.952,1.813,1.813,0,0,0,1.12.379,1.893,1.893,0,0,0,1.3-.532,1.9,1.9,0,0,0,.6-1.448,2.18,2.18,0,0,0-.158-.779Zm-3.6,9.189,1.6-3.759,1.613,3.759Z" transform="translate(-2103.05 1383.673)"/>
              <path id="パス_7279" data-name="パス 7279" d="M2342.525-1382.755a1.968,1.968,0,0,0-1.383-.574,2,2,0,0,0-1.666.967l-3.572,5.225-3.835-5.294a2,2,0,0,0-1.628-.9,2.186,2.186,0,0,0-1.389.535,1.864,1.864,0,0,0-.713,1.494,2.241,2.241,0,0,0,.125.706,2.629,2.629,0,0,0,.422.764l4.949,6.576v6.083a1.969,1.969,0,0,0,.585,1.444,1.941,1.941,0,0,0,1.419.585,1.885,1.885,0,0,0,1.37-.585,1.969,1.969,0,0,0,.585-1.444v-5.757l4.991-7.146a2.025,2.025,0,0,0,.28-.614,2.3,2.3,0,0,0,.079-.588A1.958,1.958,0,0,0,2342.525-1382.755Z" transform="translate(-2195.453 1383.5)"/>
            </g>
          </g>
        </g>
      </g>
    </g>
    <path id="パス_11928" data-name="パス 11928" d="M-25.04-8.528a26.03,26.03,0,0,0-3.792-2.128l-.8,1.232a20.347,20.347,0,0,1,3.7,2.208ZM-30.9-10.96a16.723,16.723,0,0,1-2.3.544c.24-.9.448-1.776.576-2.32l-1.744-.16a12.633,12.633,0,0,1-.464,2.688c-.56.048-1.1.064-1.632.064-.64,0-1.392-.032-2.016-.1l.112,1.472c.64.048,1.3.064,1.9.064.384,0,.752-.016,1.136-.032A22.964,22.964,0,0,1-38.64-2.96l1.536.784a27.814,27.814,0,0,0,3.44-6.736,23.642,23.642,0,0,0,2.816-.56Zm.64,8.848A1.376,1.376,0,0,1-31.84-.624c-1.088,0-1.632-.464-1.632-1.136,0-.64.688-1.1,1.744-1.1a5.337,5.337,0,0,1,1.456.192C-30.256-2.448-30.256-2.272-30.256-2.112Zm-.24-5.712c.032,1.04.112,2.528.176,3.776a7.2,7.2,0,0,0-1.328-.112c-1.968,0-3.312,1.056-3.312,2.544,0,1.648,1.488,2.432,3.328,2.432,2.08,0,2.9-1.088,2.9-2.432v-.432a12.649,12.649,0,0,1,2.368,1.76l.848-1.36a10.521,10.521,0,0,0-3.28-2c-.048-.9-.1-1.808-.112-2.32A18.029,18.029,0,0,1-28.9-7.824Zm10.848,5.3c-.64,0-1.456-.832-1.456-2.656a5.311,5.311,0,0,1,4.512-4.9A21.953,21.953,0,0,1-17.456-6C-18.192-3.552-18.96-2.528-19.648-2.528ZM-15.392.528c3.872-.544,6-2.848,6-6.16a5.872,5.872,0,0,0-6.224-5.984A6.886,6.886,0,0,0-22.7-5.04c0,2.64,1.44,4.416,3.008,4.416,1.584,0,2.9-1.808,3.856-5.04a36.263,36.263,0,0,0,.944-4.448A4.19,4.19,0,0,1-11.088-5.7a4.551,4.551,0,0,1-3.84,4.5,8.972,8.972,0,0,1-1.408.224ZM3.76-8.32,2.8-7.9a15.13,15.13,0,0,1,1.28,2.24l.992-.448A22.337,22.337,0,0,0,3.76-8.32Zm1.776-.688-.96.432A15.016,15.016,0,0,1,5.92-6.368l.976-.48A25.036,25.036,0,0,0,5.536-9.008ZM-6.736-10.7l.16,1.744C-4.8-9.344-.912-9.728.464-9.872A6.276,6.276,0,0,0-2.208-4.736C-2.208-1.248,1.04.416,4.144.576l.576-1.7c-2.608-.128-5.3-1.072-5.3-3.968A5.238,5.238,0,0,1,2.912-9.84,15.187,15.187,0,0,1,6-10.064L5.984-11.68c-1.072.032-2.672.128-4.352.272-2.912.24-5.744.512-6.9.624C-5.584-10.752-6.128-10.72-6.736-10.7ZM14.24-5.3a1.422,1.422,0,0,1,1.424-1.488,1.294,1.294,0,0,1,1.232.736c.208,1.5-.4,2.16-1.216,2.16A1.378,1.378,0,0,1,14.24-5.3Zm8.592-5.488H18.1c0-.32,0-.592.016-.784,0-.224.048-.944.08-1.152H16.368c.048.224.1.752.128,1.152.016.176.016.464.032.8-2.256.032-5.2.128-6.992.144l.048,1.536c1.968-.128,4.56-.224,6.96-.256L16.56-8a3.084,3.084,0,0,0-.88-.112,2.869,2.869,0,0,0-2.96,2.848A2.665,2.665,0,0,0,15.392-2.5a2.665,2.665,0,0,0,1.1-.224c-.768,1.184-2.224,1.872-4.08,2.288L13.776.912c3.76-1.088,4.88-3.568,4.88-5.68A3.884,3.884,0,0,0,18.1-6.88c0-.7,0-1.632-.016-2.48,2.3,0,3.792.032,4.736.08Zm8.512,6.816h1.312l.48-5.888.048-2.112H30.832l.048,2.112ZM32,.112A1.388,1.388,0,0,0,33.456-1.28,1.4,1.4,0,0,0,32-2.688,1.4,1.4,0,0,0,30.544-1.28,1.388,1.388,0,0,0,32,.112Z" transform="translate(187.045 4301.273)" fill="#333"/>
  </g>
</svg>
