<svg xmlns="http://www.w3.org/2000/svg" width="160" height="160" viewBox="0 0 160 160">
  <g id="グループ_3186" data-name="グループ 3186" transform="translate(-749 -912)">
    <circle id="楕円形_288" data-name="楕円形 288" cx="80" cy="80" r="80" transform="translate(749 912)" fill="#00d392"/>
    <g id="グループ_2257" data-name="グループ 2257" transform="translate(-446.157 898.673)">
      <path id="パス_6888" data-name="パス 6888" d="M1302.584,90.561c.017-.057.031-.115.044-.173a7.4,7.4,0,0,0,.2-1.706c0-6.089-3.076-11.729-8.658-15.884a28.109,28.109,0,0,0-3.938-2.44l-.1-.053-.246-.119-.047-.033c.134-.074.265-.152.395-.239a8.994,8.994,0,0,0,.782-.529,3.8,3.8,0,0,0,1.52-2.68,3.839,3.839,0,0,0-.973-2.933,3.792,3.792,0,0,0-2.8-1.223,3.965,3.965,0,0,0-2.32.756,3.46,3.46,0,0,1-.532.32c-.014,0-.025.012-.039.017a6.493,6.493,0,0,0-3.5-4.532,6.951,6.951,0,0,0-3.111-.76,5.7,5.7,0,0,0-4.237,1.792c-.019.021-.042.039-.062.061a5.679,5.679,0,0,0-4.292-1.853,6.952,6.952,0,0,0-3.111.76,6.533,6.533,0,0,0-3.424,4.238c-.025.1-.057.2-.077.3a3.551,3.551,0,0,1-.566-.34,3.966,3.966,0,0,0-2.32-.756,3.791,3.791,0,0,0-2.8,1.223,3.839,3.839,0,0,0-.973,2.933,3.8,3.8,0,0,0,1.52,2.68,8.432,8.432,0,0,0,.787.529c.088.059.179.109.269.162.041.03.084.053.125.088-.1.043-.2.094-.3.146-.031.018-.067.031-.1.049a27.911,27.911,0,0,0-3.943,2.445c-5.582,4.151-8.658,9.791-8.658,15.88a7.372,7.372,0,0,0,.2,1.706c.014.058.027.116.045.173a24.169,24.169,0,0,0-7.2,16.858c0,15.3,15.587,21.929,34.817,21.929s34.814-6.627,34.814-21.929A24.17,24.17,0,0,0,1302.584,90.561Zm-39.8,18.338a10.011,10.011,0,0,1,1.076.7l.122.092a9.15,9.15,0,0,1,.923.815c.04.041.081.081.12.122a8.09,8.09,0,0,1,.7.84c.057.079.112.158.166.238a4.888,4.888,0,0,1,.668,4.759c-1.231,2.676-5.253,3.462-8.987,1.746s-5.76-5.271-4.533-7.951,5.253-3.467,8.986-1.751c.2.092.391.19.58.292C1262.66,108.832,1262.721,108.865,1262.781,108.9ZM1259.8,88.681a4.579,4.579,0,0,1-9.12.057l0-.067-.009-.035c.022-6.462,4.658-12.511,12.111-15.787.676-.3,1.347-.56,2.045-.809l.044-.014h0l.138-.049a30.52,30.52,0,0,1,6.022-1.369c.111-.014.218-.026.329-.036.7-.08,1.4-.138,2.089-.164.489-.027,1-.04,1.52-.04s1.026.013,1.524.04c.685.027,1.382.085,2.08.164.111.009.223.022.334.036a30.193,30.193,0,0,1,6.022,1.373l.054.018c.04.014.08.027.12.045.7.24,1.4.516,2.058.8,7.449,3.28,12.089,9.32,12.111,15.773l-.009.071v.04a4.579,4.579,0,0,1-9.12-.053c0-5.382-6.947-9.929-15.173-9.929S1259.8,83.3,1259.8,88.681Zm.56-23.116a1.107,1.107,0,0,1,.822-.351,1.293,1.293,0,0,1,.751.245,6.389,6.389,0,0,0,3.773,1.235,6.264,6.264,0,0,0,.951-.071c.169-.024.329-.07.492-.11.1-.018.2-.038.294-.051a.127.127,0,0,1-.011-.011l.025-.005a2.336,2.336,0,0,1-.547-.711c-.738-1.444.1-3.347,1.871-4.249a4.23,4.23,0,0,1,1.9-.471,2.871,2.871,0,0,1,2.645,1.453c.68,1.337-.707,3.253-1.542,4.044a.482.482,0,0,1-.053.049s0,0-.009.009l-.271.244a.432.432,0,0,0-.045.04l0,0c-.027.022-.04.036-.04.036l-.142.115a.818.818,0,0,0-.1.009,33.748,33.748,0,0,0-7.529,1.685c-.227-.058-.458-.125-.68-.2a8.715,8.715,0,0,1-2.382-1.258A1.137,1.137,0,0,1,1260.357,65.565Zm22.68.169a2.331,2.331,0,0,1-.427.583,1.477,1.477,0,0,1-.114.107l.011,0c-.006.006-.011.014-.017.019a6.031,6.031,0,0,0,.8.178,6.261,6.261,0,0,0,.951.071,6.39,6.39,0,0,0,3.774-1.235,1.292,1.292,0,0,1,.751-.245,1.107,1.107,0,0,1,.822.351,1.139,1.139,0,0,1-.16,1.68,8.885,8.885,0,0,1-2.391,1.258c-.227.075-.449.142-.68.2a33.548,33.548,0,0,0-7.529-1.685c-.031,0-.067,0-.1-.009h0l-.185-.155-.316-.284a.009.009,0,0,0-.009-.009.461.461,0,0,1-.049-.049c-.835-.787-2.226-2.707-1.542-4.044a2.86,2.86,0,0,1,2.64-1.453,4.232,4.232,0,0,1,1.9.471C1282.939,62.388,1283.775,64.29,1283.037,65.734Z" fill="#fff"/>
      <path id="パス_6889" data-name="パス 6889" d="M1514.918,117.832l.181.162c-.028-.023-.06-.051-.093-.083S1514.946,117.86,1514.918,117.832Z" transform="translate(-236.663 -50.892)" fill="#fff"/>
    </g>
  </g>
</svg>
