<svg xmlns="http://www.w3.org/2000/svg" width="160" height="160" viewBox="0 0 160 160">
  <g id="グループ_3184" data-name="グループ 3184" transform="translate(-166 -912)">
    <path id="パス_6883" data-name="パス 6883" d="M80,0A80,80,0,1,1,0,80,80,80,0,0,1,80,0Z" transform="translate(166 912)" fill="#00d392"/>
    <g id="グループ_2255" data-name="グループ 2255" transform="translate(119.66 946.803)">
      <path id="パス_6884" data-name="パス 6884" d="M157.847,136.686h-8.493l-2-.006a.022.022,0,0,0,0,.006h-.023a31.136,31.136,0,0,1,.73,4.386l1.449,1.779a4.853,4.853,0,0,1,1.077,3.042v4.351a4.837,4.837,0,0,1-4.832,4.832h-5.371a4.836,4.836,0,0,1-4.832-4.832v-4.351a4.859,4.859,0,0,1,1.083-3.042l1.142-1.414a26.957,26.957,0,0,0-1.084-4.751H116.854a26.436,26.436,0,0,0-1.107,4.954l.985,1.211a4.85,4.85,0,0,1,1.077,3.042v4.351a4.837,4.837,0,0,1-4.832,4.832h-5.371a4.837,4.837,0,0,1-4.832-4.832v-4.351a4.856,4.856,0,0,1,1.084-3.042l1.657-2.045c.077-.766.208-1.673.4-2.693.094-.465.181-.927.3-1.4h0l0-.022H95.515a5.176,5.176,0,0,0-5.174,5.261l.689,39.828a5.191,5.191,0,0,0,.84,2.746l2.15,3.28a5.175,5.175,0,0,0,4.328,2.341h56.665a5.175,5.175,0,0,0,4.328-2.341l2.15-3.28a5.191,5.191,0,0,0,.846-2.746l.684-39.828A5.169,5.169,0,0,0,157.847,136.686Zm-14.305,45.7a.083.083,0,0,0,.023-.017,40.729,40.729,0,0,0,11.339-12.6.783.783,0,0,1,.7-.417.815.815,0,0,1,.828.834l-.209,12.092a.766.766,0,0,1-.134.434l-.51.782a.823.823,0,0,1-.69.371H144.028A.818.818,0,0,1,143.541,182.388Z" transform="translate(0 -110.568)" fill="#fff"/>
      <path id="パス_6885" data-name="パス 6885" d="M198.341,35.325v4.351a1.939,1.939,0,0,0,1.935,1.935h5.371a1.939,1.939,0,0,0,1.935-1.935V35.325a1.92,1.92,0,0,0-.435-1.217L205.92,32.59a1.932,1.932,0,0,1-.429-1.391,27.662,27.662,0,0,1,1.008-5.081c.1-.371.226-.759.353-1.159.122-.376.255-.759.4-1.159.371-1.048.823-2.184,1.362-3.4,2.4-5.383,6.043-8.112,10.829-8.112s8.436,2.729,10.835,8.112c.539,1.211.99,2.347,1.361,3.4.145.4.272.782.394,1.159.127.4.249.788.353,1.159a27.887,27.887,0,0,1,.985,4.849,1.917,1.917,0,0,1-.417,1.414l-1.4,1.726a1.952,1.952,0,0,0-.435,1.217v4.351a1.939,1.939,0,0,0,1.935,1.935h5.371a1.935,1.935,0,0,0,1.935-1.935V35.325a1.92,1.92,0,0,0-.435-1.217L238.3,32.1a1.9,1.9,0,0,1-.423-1.055,30.353,30.353,0,0,0-.852-4.925c-.093-.371-.2-.759-.313-1.159-.11-.376-.226-.759-.354-1.159a49.948,49.948,0,0,0-1.993-5.215C230.4,9.692,224.061,7.82,219.443,7.82S208.492,9.692,204.53,18.585a50.585,50.585,0,0,0-1.993,5.215c-.133.4-.249.782-.353,1.159-.111.394-.215.782-.313,1.159a30.647,30.647,0,0,0-.829,4.67,1.928,1.928,0,0,1-.423,1.048l-1.842,2.271A1.953,1.953,0,0,0,198.341,35.325Z" transform="translate(-92.669 0)" fill="#fff"/>
    </g>
  </g>
</svg>
