<svg xmlns="http://www.w3.org/2000/svg" width="583" height="138.28" viewBox="0 0 583 138.28">
  <g id="グループ_3180" data-name="グループ 3180" transform="translate(-391 -1690.99)">
    <g id="パス_6998" data-name="パス 6998" transform="translate(-72.005 -376.389)" fill="#fde94c" stroke-linejoin="round">
      <path d="M 756.0171508789062 2200.34912109375 L 741.3497314453125 2178.833740234375 L 740.45654296875 2177.5234375 L 738.8709106445312 2177.5234375 L 466.0054931640625 2177.5234375 L 466.0074768066406 2070.37890625 L 1043.005126953125 2070.378662109375 L 1043.00537109375 2177.5234375 L 773.3023071289062 2177.5234375 L 771.7250366210938 2177.5234375 L 770.8309326171875 2178.82275390625 L 756.0171508789062 2200.34912109375 Z" stroke="none"/>
      <path d="M 756.02880859375 2195.04052734375 L 768.359619140625 2177.1220703125 C 769.4791259765625 2175.495361328125 771.3274536132812 2174.5234375 773.3023071289062 2174.5234375 L 1040.00537109375 2174.5234375 L 1040.005126953125 2073.378662109375 L 469.0074157714844 2073.37890625 L 469.0055541992188 2174.5234375 L 738.8709106445312 2174.5234375 C 740.8550415039062 2174.5234375 742.7109375 2175.50439453125 743.8285522460938 2177.143798828125 L 756.02880859375 2195.04052734375 M 756.0054321289062 2205.658203125 L 738.8709106445312 2180.5234375 L 463.0054626464844 2180.5234375 L 463.0075378417969 2067.37890625 L 1046.005126953125 2067.378662109375 L 1046.00537109375 2180.5234375 L 773.3023071289062 2180.5234375 L 756.0054321289062 2205.658203125 Z" stroke="none" fill="#3b4043"/>
    </g>
    <g id="グループ_2429" data-name="グループ 2429" transform="translate(0 -48)">
      <text id="のおすすめポイント_" data-name="のおすすめポイント！" transform="translate(775 1806)" fill="#333" font-size="28" font-family="NotoSansCJKjp-Bold, Noto Sans CJK JP" font-weight="700" letter-spacing="0.08em"><tspan x="-150.08" y="0">のおすすめポイント！</tspan></text>
      <g id="グループ_2379" data-name="グループ 2379" transform="translate(-154.863 1216.05)">
        <g id="グループ_2422" data-name="グループ 2422" transform="translate(595.562 568.304)">
          <g id="グループ_2420" data-name="グループ 2420">
            <path id="パス_7271" data-name="パス 7271" d="M1490.764-1367.146a2.727,2.727,0,0,0-1.587.261l-.021.01a4.773,4.773,0,0,1-1.335.462,7.978,7.978,0,0,1-1.456.135,7.473,7.473,0,0,1-2.443-.387,5.065,5.065,0,0,1-1.889-1.151,5.415,5.415,0,0,1-1.261-1.956,7.912,7.912,0,0,1-.466-2.856,7.5,7.5,0,0,1,.414-2.551,5.5,5.5,0,0,1,1.186-1.945,5.292,5.292,0,0,1,1.885-1.259,6.918,6.918,0,0,1,2.573-.449,6.7,6.7,0,0,1,1.475.159,6.9,6.9,0,0,1,1.337.449,2.925,2.925,0,0,0,1.556.294,1.984,1.984,0,0,0,1.432-.834,2.465,2.465,0,0,0,.552-1.992,2.208,2.208,0,0,0-1.24-1.677,10.907,10.907,0,0,0-2.45-.9,11.518,11.518,0,0,0-2.661-.31,11.886,11.886,0,0,0-4.447.821,10.791,10.791,0,0,0-3.556,2.3,10.309,10.309,0,0,0-2.337,3.5,11.575,11.575,0,0,0-.822,4.391,12.182,12.182,0,0,0,.9,4.826,9.856,9.856,0,0,0,2.486,3.513,10.776,10.776,0,0,0,3.572,2.113,12.477,12.477,0,0,0,4.2.709,11.158,11.158,0,0,0,1.767-.14,12.527,12.527,0,0,0,1.709-.4,10.9,10.9,0,0,0,1.652-.663,2.2,2.2,0,0,0,1.247-1.581,2.42,2.42,0,0,0-.547-2.038A2.171,2.171,0,0,0,1490.764-1367.146Z" transform="translate(-1475.203 1383.789)" fill="#333"/>
            <path id="パス_7272" data-name="パス 7272" d="M1618.218-1382.861a2.48,2.48,0,0,0-1.727.684,2.323,2.323,0,0,0-.766,1.751v6.058h-8v-6.058a2.317,2.317,0,0,0-.745-1.745,2.4,2.4,0,0,0-1.69-.689,2.488,2.488,0,0,0-1.8.7,2.339,2.339,0,0,0-.723,1.739v16.869a2.39,2.39,0,0,0,.681,1.725,2.386,2.386,0,0,0,1.783.709,2.482,2.482,0,0,0,1.728-.684,2.323,2.323,0,0,0,.765-1.751v-6.146h8v6.146a2.312,2.312,0,0,0,.745,1.745,2.394,2.394,0,0,0,1.69.69,2.474,2.474,0,0,0,1.82-.7,2.364,2.364,0,0,0,.7-1.732v-16.869a2.393,2.393,0,0,0-.682-1.726A2.386,2.386,0,0,0,1618.218-1382.861Z" transform="translate(-1578.922 1383.153)" fill="#333"/>
            <path id="パス_7273" data-name="パス 7273" d="M1739.44-1381.133a10.216,10.216,0,0,0-3.366-2.416,10.33,10.33,0,0,0-4.251-.875,10.228,10.228,0,0,0-4.239.875,10.25,10.25,0,0,0-3.349,2.415,11.1,11.1,0,0,0-2.187,3.55,11.987,11.987,0,0,0-.773,4.321,11.984,11.984,0,0,0,.773,4.321,11.1,11.1,0,0,0,2.187,3.55,10.248,10.248,0,0,0,3.35,2.415,10.226,10.226,0,0,0,4.239.875,10.328,10.328,0,0,0,4.251-.874,10.213,10.213,0,0,0,3.366-2.416,11.106,11.106,0,0,0,2.186-3.55,11.985,11.985,0,0,0,.773-4.321,11.989,11.989,0,0,0-.773-4.321A11.11,11.11,0,0,0,1739.44-1381.133Zm-7.618,14.221a4.832,4.832,0,0,1-2.813-.821,5.715,5.715,0,0,1-1.925-2.27,7.386,7.386,0,0,1-.708-3.26,7.363,7.363,0,0,1,.707-3.273,5.74,5.74,0,0,1,1.926-2.257,4.834,4.834,0,0,1,2.813-.82,4.835,4.835,0,0,1,2.813.82,5.84,5.84,0,0,1,1.942,2.274,7.271,7.271,0,0,1,.72,3.256,7.266,7.266,0,0,1-.72,3.256,5.832,5.832,0,0,1-1.942,2.274A4.834,4.834,0,0,1,1731.822-1366.912Z" transform="translate(-1675.278 1384.423)" fill="#333"/>
            <path id="パス_7274" data-name="パス 7274" d="M1865.714-1382.861a2.489,2.489,0,0,0-1.8.7,2.339,2.339,0,0,0-.724,1.739v16.869a2.39,2.39,0,0,0,.681,1.725,2.386,2.386,0,0,0,1.783.709,2.48,2.48,0,0,0,1.727-.684,2.322,2.322,0,0,0,.766-1.751v-16.869a2.318,2.318,0,0,0-.745-1.745A2.4,2.4,0,0,0,1865.714-1382.861Z" transform="translate(-1790.668 1383.153)" fill="#333"/>
            <path id="パス_7275" data-name="パス 7275" d="M1932.243-1335.712h-5.078a2.42,2.42,0,0,0-1.718.66,2.266,2.266,0,0,0-.716,1.716,2.313,2.313,0,0,0,.708,1.724,2.389,2.389,0,0,0,1.726.682h5.078a2.423,2.423,0,0,0,1.719-.66,2.263,2.263,0,0,0,.716-1.687,2.364,2.364,0,0,0-.7-1.732A2.365,2.365,0,0,0,1932.243-1335.712Z" transform="translate(-1840.703 1344.817)" fill="#333"/>
            <path id="パス_7276" data-name="パス 7276" d="M2020.473-1373.617a7.884,7.884,0,0,0-2.4-1.23,24.1,24.1,0,0,0-3.158-.78,16.435,16.435,0,0,1-2.216-.574,2.846,2.846,0,0,1-1.2-.724,1.439,1.439,0,0,1-.344-1.008,1.366,1.366,0,0,1,.3-.879,2.278,2.278,0,0,1,1.014-.668,5.487,5.487,0,0,1,1.887-.28,5.406,5.406,0,0,1,1.456.224,10.677,10.677,0,0,1,1.567.577,4.68,4.68,0,0,1,1.1.672l.038.031a1.927,1.927,0,0,0,1.181.394,2.223,2.223,0,0,0,1.643-.73,2.305,2.305,0,0,0,.674-1.616,2.573,2.573,0,0,0-1.084-2.052,8.881,8.881,0,0,0-2.841-1.557,11.23,11.23,0,0,0-3.734-.606,10.074,10.074,0,0,0-3.931.752,6.791,6.791,0,0,0-2.916,2.261,6.016,6.016,0,0,0-1.1,3.625,6.64,6.64,0,0,0,.457,2.508,5.512,5.512,0,0,0,1.373,1.985,7.115,7.115,0,0,0,2.2,1.353,12.963,12.963,0,0,0,2.926.756,11.815,11.815,0,0,1,2.6.618,3.383,3.383,0,0,1,1.348.853,1.562,1.562,0,0,1,.368,1.063,1.158,1.158,0,0,1-.369.842,3.262,3.262,0,0,1-1.219.748,5.037,5.037,0,0,1-1.757.295,6.278,6.278,0,0,1-2.443-.415,8.671,8.671,0,0,1-2.052-1.281,2.191,2.191,0,0,0-1.4-.494,2.263,2.263,0,0,0-1.687.716,2.314,2.314,0,0,0-.659,1.631,2.462,2.462,0,0,0,.273,1.109,2.943,2.943,0,0,0,.741.933,9.489,9.489,0,0,0,3.356,1.924,13.023,13.023,0,0,0,3.872.541,9.993,9.993,0,0,0,3.949-.782,7.4,7.4,0,0,0,3.02-2.3,5.882,5.882,0,0,0,1.186-3.667,7.158,7.158,0,0,0-.489-2.779A4.922,4.922,0,0,0,2020.473-1373.617Z" transform="translate(-1906.845 1384.423)" fill="#333"/>
            <path id="パス_7277" data-name="パス 7277" d="M2127.954-1382.861H2115a2.488,2.488,0,0,0-1.7.617,2.2,2.2,0,0,0-.731,1.7,2.245,2.245,0,0,0,.723,1.708,2.452,2.452,0,0,0,1.711.639h3.928v14.639a2.337,2.337,0,0,0,.723,1.739,2.486,2.486,0,0,0,1.8.7,2.577,2.577,0,0,0,1.835-.689,2.314,2.314,0,0,0,.745-1.745V-1378.2h3.928a2.487,2.487,0,0,0,1.7-.617,2.2,2.2,0,0,0,.731-1.7,2.248,2.248,0,0,0-.724-1.709A2.455,2.455,0,0,0,2127.954-1382.861Z" transform="translate(-1993.425 1383.153)" fill="#333"/>
            <path id="パス_7278" data-name="パス 7278" d="M2230.891-1381.945a2.371,2.371,0,0,0-.9-1.162,2.357,2.357,0,0,0-1.31-.419,2.177,2.177,0,0,0-1.433.373,2.549,2.549,0,0,0-.956,1.2l-7.268,17.453-.023.064a2.6,2.6,0,0,0-.115.742,2.234,2.234,0,0,0,.539,1.508,2.087,2.087,0,0,0,1.662.664,2.181,2.181,0,0,0,1.3-.431,2.441,2.441,0,0,0,.852-1.148l1.339-3.148h7.839l1.343,3.131a2.733,2.733,0,0,0,.865,1.143,2.175,2.175,0,0,0,1.344.455,2.274,2.274,0,0,0,1.565-.638,2.283,2.283,0,0,0,.723-1.738,2.621,2.621,0,0,0-.189-.935Zm-4.325,11.027,1.918-4.511,1.936,4.511Z" transform="translate(-2079.877 1383.701)" fill="#333"/>
            <path id="パス_7279" data-name="パス 7279" d="M2345.363-1382.641a2.362,2.362,0,0,0-1.66-.689,2.4,2.4,0,0,0-2,1.161l-4.286,6.271-4.6-6.353a2.4,2.4,0,0,0-1.954-1.079,2.626,2.626,0,0,0-1.667.642,2.238,2.238,0,0,0-.855,1.793,2.7,2.7,0,0,0,.15.848,3.154,3.154,0,0,0,.507.917l5.939,7.891v7.3a2.362,2.362,0,0,0,.7,1.732,2.329,2.329,0,0,0,1.7.7,2.263,2.263,0,0,0,1.644-.7,2.364,2.364,0,0,0,.7-1.732v-6.909l5.99-8.576a2.447,2.447,0,0,0,.336-.737,2.776,2.776,0,0,0,.095-.706A2.349,2.349,0,0,0,2345.363-1382.641Z" transform="translate(-2168.869 1383.534)" fill="#333"/>
          </g>
        </g>
      </g>
    </g>
  </g>
</svg>
