<svg xmlns="http://www.w3.org/2000/svg" width="142.2" height="128.214" viewBox="0 0 142.2 128.214">
  <g id="グループ_2792" data-name="グループ 2792" transform="translate(-920.96 -4809.79)">
    <path id="パス_9604" data-name="パス 9604" d="M-31.78,1.4q-11.76,0-19.88-6.51T-63.91-23.03A76.007,76.007,0,0,1-68.04-49a76.459,76.459,0,0,1,4.13-26.11q4.13-11.41,12.25-17.85t19.88-6.44q11.76,0,19.81,6.44T.28-75.11A75.3,75.3,0,0,1,4.48-49,74.856,74.856,0,0,1,.28-23.03Q-3.92-11.62-11.97-5.11T-31.78,1.4Zm0-14.14a16.31,16.31,0,0,0,11.27-4.2q4.69-4.2,7.28-12.32A65.53,65.53,0,0,0-10.64-49a66.081,66.081,0,0,0-2.59-19.88Q-15.82-77-20.51-81.2a16.31,16.31,0,0,0-11.27-4.2,16.567,16.567,0,0,0-11.34,4.2Q-47.88-77-50.4-68.88A67.8,67.8,0,0,0-52.92-49,67.233,67.233,0,0,0-50.4-29.26q2.52,8.12,7.28,12.32A16.567,16.567,0,0,0-31.78-12.74ZM55.3,0a7.343,7.343,0,0,1-5.32-2.03,6.809,6.809,0,0,1-2.1-5.11V-82.18l1.82,2.52L36.26-71.68a6.434,6.434,0,0,1-3.64,1.12,6.514,6.514,0,0,1-5.11-2.31,7.4,7.4,0,0,1-2.03-4.97,6.806,6.806,0,0,1,3.64-6.02L51.1-97.02A9.917,9.917,0,0,1,56.28-98a6.307,6.307,0,0,1,4.83,2.03A7.207,7.207,0,0,1,63-90.86V-7.14a6.7,6.7,0,0,1-2.17,5.11A7.773,7.773,0,0,1,55.3,0Z" transform="translate(989 4936.604)" fill="#00d392" opacity="0.304"/>
    <path id="パス_9605" data-name="パス 9605" d="M-63.063.21a8.855,8.855,0,0,1-2.646-.367,6.339,6.339,0,0,1-2.247-1.292,1.657,1.657,0,0,1-.42-.525,1.3,1.3,0,0,1-.147-.588,1.2,1.2,0,0,1,.347-.85,1.147,1.147,0,0,1,.871-.368,1.112,1.112,0,0,1,.714.252,6.678,6.678,0,0,0,1.585.987,4.956,4.956,0,0,0,1.943.336,4.076,4.076,0,0,0,1.428-.242,2.8,2.8,0,0,0,1.05-.651,1.3,1.3,0,0,0,.4-.935A1.59,1.59,0,0,0-60.564-5.1a2.871,2.871,0,0,0-1.155-.745,8.889,8.889,0,0,0-1.974-.473,8.811,8.811,0,0,1-1.995-.515,4.633,4.633,0,0,1-1.438-.882A3.487,3.487,0,0,1-68-8.977a4.294,4.294,0,0,1-.294-1.627,3.852,3.852,0,0,1,.7-2.331,4.406,4.406,0,0,1,1.9-1.47,6.752,6.752,0,0,1,2.646-.5,7.583,7.583,0,0,1,2.531.409,5.892,5.892,0,0,1,1.9,1.04A1.4,1.4,0,0,1-58-12.348a1.2,1.2,0,0,1-.357.84,1.119,1.119,0,0,1-.84.378.921.921,0,0,1-.567-.189,3.792,3.792,0,0,0-.9-.557,8.1,8.1,0,0,0-1.2-.441,4.328,4.328,0,0,0-1.176-.179,4.383,4.383,0,0,0-1.522.231,2.081,2.081,0,0,0-.935.63,1.449,1.449,0,0,0-.315.924,1.5,1.5,0,0,0,.367,1.04,2.5,2.5,0,0,0,1.061.651,12.252,12.252,0,0,0,1.659.431,16.816,16.816,0,0,1,2.215.546,5.182,5.182,0,0,1,1.585.808A3.061,3.061,0,0,1-57.981-6a4.665,4.665,0,0,1,.315,1.816,3.755,3.755,0,0,1-.756,2.352A4.84,4.84,0,0,1-60.406-.315,6.689,6.689,0,0,1-63.063.21Zm19.152-14.2a1.115,1.115,0,0,1,.641.861,1.294,1.294,0,0,1-.3,1.071.955.955,0,0,1-.7.42,1.634,1.634,0,0,1-.872-.168,5.4,5.4,0,0,0-1.061-.357,5.264,5.264,0,0,0-1.165-.126,5.42,5.42,0,0,0-2.027.357,4.253,4.253,0,0,0-1.522,1.019,4.4,4.4,0,0,0-.956,1.564,5.847,5.847,0,0,0-.326,2,6.129,6.129,0,0,0,.368,2.226A4.347,4.347,0,0,0-50.82-3.549a4.1,4.1,0,0,0,1.533.934,5.819,5.819,0,0,0,1.911.3,6.216,6.216,0,0,0,1.134-.105,3.892,3.892,0,0,0,1.092-.378,1.492,1.492,0,0,1,.872-.147,1.1,1.1,0,0,1,.724.441,1.267,1.267,0,0,1,.3,1.082,1.107,1.107,0,0,1-.64.809,7.385,7.385,0,0,1-1.124.451,8.521,8.521,0,0,1-1.166.273,7.532,7.532,0,0,1-1.2.094,8.47,8.47,0,0,1-2.867-.483A7.259,7.259,0,0,1-52.658-1.7a6.6,6.6,0,0,1-1.669-2.362,8.267,8.267,0,0,1-.609-3.286,7.825,7.825,0,0,1,.556-2.982A6.925,6.925,0,0,1-52.8-12.694a7.262,7.262,0,0,1,2.4-1.554,8.042,8.042,0,0,1,3.024-.556,7.77,7.77,0,0,1,1.806.21A7.337,7.337,0,0,1-43.911-13.986ZM-38.7-14.7h7.035a1.28,1.28,0,0,1,.914.347,1.172,1.172,0,0,1,.368.892,1.082,1.082,0,0,1-.368.851,1.328,1.328,0,0,1-.914.325h-5.88l.189-.357v4.1l-.168-.168h4.914a1.28,1.28,0,0,1,.914.347,1.172,1.172,0,0,1,.367.892,1.082,1.082,0,0,1-.367.851,1.328,1.328,0,0,1-.914.325h-4.851l.1-.168v4.242l-.168-.189h5.859a1.24,1.24,0,0,1,.914.368,1.168,1.168,0,0,1,.368.85,1.114,1.114,0,0,1-.368.861A1.3,1.3,0,0,1-31.668,0H-38.7a1.24,1.24,0,0,1-.913-.368,1.24,1.24,0,0,1-.368-.914V-13.419a1.24,1.24,0,0,1,.368-.914A1.24,1.24,0,0,1-38.7-14.7Zm22.932,0a1.071,1.071,0,0,1,.819.336,1.181,1.181,0,0,1,.315.84V-1.281A1.24,1.24,0,0,1-15-.368,1.24,1.24,0,0,1-15.918,0a1.753,1.753,0,0,1-.557-.094A.961.961,0,0,1-16.9-.357l-8.253-10.479.546-.336v10a1.159,1.159,0,0,1-.326.84A1.131,1.131,0,0,1-25.788,0a1.071,1.071,0,0,1-.819-.336,1.181,1.181,0,0,1-.315-.84V-13.419a1.24,1.24,0,0,1,.367-.914,1.24,1.24,0,0,1,.914-.367,1.765,1.765,0,0,1,.609.115.885.885,0,0,1,.462.347l8,10.206-.357.252v-9.744a1.181,1.181,0,0,1,.315-.84A1.1,1.1,0,0,1-15.771-14.7Zm6.615,0h7.035a1.28,1.28,0,0,1,.914.347,1.172,1.172,0,0,1,.367.892,1.082,1.082,0,0,1-.367.851,1.328,1.328,0,0,1-.914.325H-8l.189-.357v4.1l-.168-.168h4.914a1.28,1.28,0,0,1,.913.347,1.172,1.172,0,0,1,.367.892,1.082,1.082,0,0,1-.367.851,1.328,1.328,0,0,1-.913.325H-7.917l.105-.168v4.242l-.168-.189h5.859a1.24,1.24,0,0,1,.914.368A1.168,1.168,0,0,1-.84-1.2a1.114,1.114,0,0,1-.367.861A1.3,1.3,0,0,1-2.121,0H-9.156a1.24,1.24,0,0,1-.913-.368,1.24,1.24,0,0,1-.368-.914V-13.419a1.24,1.24,0,0,1,.368-.914A1.24,1.24,0,0,1-9.156-14.7Z" transform="translate(1064 4824.7)" fill="#00d392" opacity="0.305"/>
  </g>
</svg>
