<svg xmlns="http://www.w3.org/2000/svg" width="150.25" height="130.214" viewBox="0 0 150.25 130.214">
  <g id="グループ_3201" data-name="グループ 3201" transform="translate(-912.91 -5357.79)">
    <path id="パス_9613" data-name="パス 9613" d="M-39.83,1.4q-11.76,0-19.88-6.51T-71.96-23.03A76.007,76.007,0,0,1-76.09-49a76.459,76.459,0,0,1,4.13-26.11q4.13-11.41,12.25-17.85t19.88-6.44q11.76,0,19.81,6.44T-7.77-75.11A75.3,75.3,0,0,1-3.57-49a74.856,74.856,0,0,1-4.2,25.97q-4.2,11.41-12.25,17.92T-39.83,1.4Zm0-14.14a16.31,16.31,0,0,0,11.27-4.2q4.69-4.2,7.28-12.32A65.53,65.53,0,0,0-18.69-49a66.081,66.081,0,0,0-2.59-19.88Q-23.87-77-28.56-81.2a16.31,16.31,0,0,0-11.27-4.2,16.567,16.567,0,0,0-11.34,4.2q-4.76,4.2-7.28,12.32A67.8,67.8,0,0,0-60.97-49a67.233,67.233,0,0,0,2.52,19.74q2.52,8.12,7.28,12.32A16.567,16.567,0,0,0-39.83-12.74ZM35.21.98A40.495,40.495,0,0,1,23.94-.7a27.045,27.045,0,0,1-9.87-5.04,8.308,8.308,0,0,1-2.38-3.22,9.577,9.577,0,0,1-.84-3.78,5.684,5.684,0,0,1,1.75-3.85,6.257,6.257,0,0,1,4.83-1.89q2.24,0,5.18,2.24a34.181,34.181,0,0,0,5.95,3.08,17.375,17.375,0,0,0,6.51,1.26,25.572,25.572,0,0,0,11.97-2.8,21.8,21.8,0,0,0,8.54-7.77,19.875,19.875,0,0,0,3.15-10.85,19.078,19.078,0,0,0-2.66-10.29,18.345,18.345,0,0,0-7.21-6.65,21.563,21.563,0,0,0-10.15-2.38,21.367,21.367,0,0,0-8.19,1.47,67.874,67.874,0,0,0-6.3,2.94,10.654,10.654,0,0,1-4.97,1.47,8.318,8.318,0,0,1-5.53-1.61,6.934,6.934,0,0,1-2.38-3.92,12.224,12.224,0,0,1-.21-4.27l4.9-35.84a6.617,6.617,0,0,1,2.31-3.99A6.981,6.981,0,0,1,23.03-98H64.05a6.368,6.368,0,0,1,4.69,1.89,6.368,6.368,0,0,1,1.89,4.69,6.139,6.139,0,0,1-1.89,4.62,6.5,6.5,0,0,1-4.69,1.82H26.53l1.54-1.26-4.48,30.8-2.1-4.2a12.7,12.7,0,0,1,4.27-2.73,39.451,39.451,0,0,1,6.86-2.24,33.668,33.668,0,0,1,7.77-.91,33.275,33.275,0,0,1,16.59,4.13A30.143,30.143,0,0,1,68.53-49.98a32.454,32.454,0,0,1,4.2,16.52,31.713,31.713,0,0,1-2.94,13.58A34.19,34.19,0,0,1,61.67-8.89,37.629,37.629,0,0,1,49.7-1.61,40.31,40.31,0,0,1,35.21.98Z" transform="translate(989 5486.604)" fill="#00d392" opacity="0.304"/>
    <path id="パス_9612" data-name="パス 9612" d="M-63.063.21a8.855,8.855,0,0,1-2.646-.367,6.339,6.339,0,0,1-2.247-1.292,1.657,1.657,0,0,1-.42-.525,1.3,1.3,0,0,1-.147-.588,1.2,1.2,0,0,1,.347-.85,1.147,1.147,0,0,1,.871-.368,1.112,1.112,0,0,1,.714.252,6.678,6.678,0,0,0,1.585.987,4.956,4.956,0,0,0,1.943.336,4.076,4.076,0,0,0,1.428-.242,2.8,2.8,0,0,0,1.05-.651,1.3,1.3,0,0,0,.4-.935A1.59,1.59,0,0,0-60.564-5.1a2.871,2.871,0,0,0-1.155-.745,8.889,8.889,0,0,0-1.974-.473,8.811,8.811,0,0,1-1.995-.515,4.633,4.633,0,0,1-1.438-.882A3.487,3.487,0,0,1-68-8.977a4.294,4.294,0,0,1-.294-1.627,3.852,3.852,0,0,1,.7-2.331,4.406,4.406,0,0,1,1.9-1.47,6.752,6.752,0,0,1,2.646-.5,7.583,7.583,0,0,1,2.531.409,5.892,5.892,0,0,1,1.9,1.04A1.4,1.4,0,0,1-58-12.348a1.2,1.2,0,0,1-.357.84,1.119,1.119,0,0,1-.84.378.921.921,0,0,1-.567-.189,3.792,3.792,0,0,0-.9-.557,8.1,8.1,0,0,0-1.2-.441,4.328,4.328,0,0,0-1.176-.179,4.383,4.383,0,0,0-1.522.231,2.081,2.081,0,0,0-.935.63,1.449,1.449,0,0,0-.315.924,1.5,1.5,0,0,0,.367,1.04,2.5,2.5,0,0,0,1.061.651,12.252,12.252,0,0,0,1.659.431,16.816,16.816,0,0,1,2.215.546,5.182,5.182,0,0,1,1.585.808A3.061,3.061,0,0,1-57.981-6a4.665,4.665,0,0,1,.315,1.816,3.755,3.755,0,0,1-.756,2.352A4.84,4.84,0,0,1-60.406-.315,6.689,6.689,0,0,1-63.063.21Zm19.152-14.2a1.115,1.115,0,0,1,.641.861,1.294,1.294,0,0,1-.3,1.071.955.955,0,0,1-.7.42,1.634,1.634,0,0,1-.872-.168,5.4,5.4,0,0,0-1.061-.357,5.264,5.264,0,0,0-1.165-.126,5.42,5.42,0,0,0-2.027.357,4.253,4.253,0,0,0-1.522,1.019,4.4,4.4,0,0,0-.956,1.564,5.847,5.847,0,0,0-.326,2,6.129,6.129,0,0,0,.368,2.226A4.347,4.347,0,0,0-50.82-3.549a4.1,4.1,0,0,0,1.533.934,5.819,5.819,0,0,0,1.911.3,6.216,6.216,0,0,0,1.134-.105,3.892,3.892,0,0,0,1.092-.378,1.492,1.492,0,0,1,.872-.147,1.1,1.1,0,0,1,.724.441,1.267,1.267,0,0,1,.3,1.082,1.107,1.107,0,0,1-.64.809,7.385,7.385,0,0,1-1.124.451,8.521,8.521,0,0,1-1.166.273,7.532,7.532,0,0,1-1.2.094,8.47,8.47,0,0,1-2.867-.483A7.259,7.259,0,0,1-52.658-1.7a6.6,6.6,0,0,1-1.669-2.362,8.267,8.267,0,0,1-.609-3.286,7.825,7.825,0,0,1,.556-2.982A6.925,6.925,0,0,1-52.8-12.694a7.262,7.262,0,0,1,2.4-1.554,8.042,8.042,0,0,1,3.024-.556,7.77,7.77,0,0,1,1.806.21A7.337,7.337,0,0,1-43.911-13.986ZM-38.7-14.7h7.035a1.28,1.28,0,0,1,.914.347,1.172,1.172,0,0,1,.368.892,1.082,1.082,0,0,1-.368.851,1.328,1.328,0,0,1-.914.325h-5.88l.189-.357v4.1l-.168-.168h4.914a1.28,1.28,0,0,1,.914.347,1.172,1.172,0,0,1,.367.892,1.082,1.082,0,0,1-.367.851,1.328,1.328,0,0,1-.914.325h-4.851l.1-.168v4.242l-.168-.189h5.859a1.24,1.24,0,0,1,.914.368,1.168,1.168,0,0,1,.368.85,1.114,1.114,0,0,1-.368.861A1.3,1.3,0,0,1-31.668,0H-38.7a1.24,1.24,0,0,1-.913-.368,1.24,1.24,0,0,1-.368-.914V-13.419a1.24,1.24,0,0,1,.368-.914A1.24,1.24,0,0,1-38.7-14.7Zm22.932,0a1.071,1.071,0,0,1,.819.336,1.181,1.181,0,0,1,.315.84V-1.281A1.24,1.24,0,0,1-15-.368,1.24,1.24,0,0,1-15.918,0a1.753,1.753,0,0,1-.557-.094A.961.961,0,0,1-16.9-.357l-8.253-10.479.546-.336v10a1.159,1.159,0,0,1-.326.84A1.131,1.131,0,0,1-25.788,0a1.071,1.071,0,0,1-.819-.336,1.181,1.181,0,0,1-.315-.84V-13.419a1.24,1.24,0,0,1,.367-.914,1.24,1.24,0,0,1,.914-.367,1.765,1.765,0,0,1,.609.115.885.885,0,0,1,.462.347l8,10.206-.357.252v-9.744a1.181,1.181,0,0,1,.315-.84A1.1,1.1,0,0,1-15.771-14.7Zm6.615,0h7.035a1.28,1.28,0,0,1,.914.347,1.172,1.172,0,0,1,.367.892,1.082,1.082,0,0,1-.367.851,1.328,1.328,0,0,1-.914.325H-8l.189-.357v4.1l-.168-.168h4.914a1.28,1.28,0,0,1,.913.347,1.172,1.172,0,0,1,.367.892,1.082,1.082,0,0,1-.367.851,1.328,1.328,0,0,1-.913.325H-7.917l.105-.168v4.242l-.168-.189h5.859a1.24,1.24,0,0,1,.914.368A1.168,1.168,0,0,1-.84-1.2a1.114,1.114,0,0,1-.367.861A1.3,1.3,0,0,1-2.121,0H-9.156a1.24,1.24,0,0,1-.913-.368,1.24,1.24,0,0,1-.368-.914V-13.419a1.24,1.24,0,0,1,.368-.914A1.24,1.24,0,0,1-9.156-14.7Z" transform="translate(1064 5372.7)" fill="#00d392" opacity="0.305"/>
  </g>
</svg>
