<svg xmlns="http://www.w3.org/2000/svg" width="583" height="138.279" viewBox="0 0 583 138.279">
  <g id="グループ_3198" data-name="グループ 3198" transform="translate(-391 -4668.99)">
    <g id="パス_7002" data-name="パス 7002" transform="translate(-72.005 2601.611)" fill="#fde94c" stroke-linejoin="round">
      <path d="M 756.0171508789062 2200.34912109375 L 741.3497314453125 2178.833740234375 L 740.45654296875 2177.5234375 L 738.8709106445312 2177.5234375 L 466.0054931640625 2177.5234375 L 466.0073852539062 2070.37890625 L 1043.005126953125 2070.378662109375 L 1043.00537109375 2177.5234375 L 773.30224609375 2177.5234375 L 771.7249755859375 2177.5234375 L 770.830810546875 2178.82275390625 L 756.0171508789062 2200.34912109375 Z" stroke="none"/>
      <path d="M 756.02880859375 2195.04052734375 L 768.3594970703125 2177.1220703125 C 769.47900390625 2175.495361328125 771.327392578125 2174.5234375 773.30224609375 2174.5234375 L 1040.00537109375 2174.5234375 L 1040.005126953125 2073.378662109375 L 469.0073547363281 2073.37890625 L 469.0055541992188 2174.5234375 L 738.8709106445312 2174.5234375 C 740.8550415039062 2174.5234375 742.7109375 2175.50439453125 743.8285522460938 2177.143798828125 L 756.02880859375 2195.04052734375 M 756.0054321289062 2205.658203125 L 738.8709106445312 2180.5234375 L 463.0054626464844 2180.5234375 L 463.0074462890625 2067.37890625 L 1046.005126953125 2067.378662109375 L 1046.00537109375 2180.5234375 L 773.30224609375 2180.5234375 L 756.0054321289062 2205.658203125 Z" stroke="none" fill="#3b4043"/>
    </g>
    <path id="パス_11929" data-name="パス 11929" d="M-249.06-16.6c2.268.168,4.676.308,7.588.308,2.632,0,6.076-.2,8.008-.336v-3.724c-2.128.224-5.292.392-8.036.392a72.671,72.671,0,0,1-7.56-.336Zm-1.288,7.728a17.835,17.835,0,0,0-.56,4c0,3.808,3.192,5.936,9.548,5.936a42.336,42.336,0,0,0,9.632-.952l-.028-3.892A39.32,39.32,0,0,1-241.5-2.688c-4,0-5.684-1.288-5.684-3.052a11.5,11.5,0,0,1,.476-2.8Zm33.012,3.836c-1.036,0-2.156-1.372-2.156-4.172a8.694,8.694,0,0,1,7.028-8.036,44.508,44.508,0,0,1-1.484,6.72C-215.068-6.776-216.188-5.04-217.336-5.04Zm7.616,6.188c7-1.064,10.584-5.208,10.584-11.032,0-6.048-4.34-10.836-11.2-10.836-7.2,0-12.768,5.488-12.768,11.872,0,4.676,2.6,8.064,5.656,8.064,3.024,0,5.432-3.416,7.084-9.016a60.262,60.262,0,0,0,1.652-7.532c3.724.644,5.8,3.5,5.8,7.336,0,4.032-2.744,6.58-6.3,7.42-.728.168-1.512.308-2.576.448Zm27.412-5.6c0,1.82-.644,2.632-2.436,2.632-1.932,0-3.332-.5-3.332-1.876,0-1.176,1.288-1.9,3.444-1.9a15.231,15.231,0,0,1,2.3.2C-182.308-5.04-182.308-4.7-182.308-4.452Zm11.984,1.288a21.926,21.926,0,0,0-8.428-4.76c-.14-2.044-.252-4.228-.308-5.908,2.24-.056,5.544-.168,7.868-.392l-.14-3.3c-2.3.252-5.544.364-7.728.42v-2.016c.056-1.092.14-2.436.252-3.248h-4.172a17.592,17.592,0,0,1,.28,3.248c.028,1.176.056,2.828.056,4.508,0,1.456.112,3.836.2,5.992a15.912,15.912,0,0,0-1.652-.084c-5.1,0-7.56,2.3-7.56,5.18,0,3.78,3.248,5.068,7.2,5.068,4.648,0,5.908-2.352,5.908-4.788,0-.28,0-.588-.028-.952A21.417,21.417,0,0,1-172.452.14Zm24.92-6.048c0,4.34-4.4,6.58-11.284,7.364l2.016,3.472c7.7-1.064,13.188-4.76,13.188-10.7,0-4.34-3.08-6.832-7.476-6.832a38.413,38.413,0,0,0-8.372,1.26,27.186,27.186,0,0,1-3.024.476l1.036,3.948c.812-.28,1.876-.7,2.688-.952a24.88,24.88,0,0,1,7.224-1.344C-146.8-12.544-145.4-11.032-145.4-9.212ZM-156.268-22.54l-.56,3.36c3.192.56,9.212,1.092,12.46,1.316l.56-3.416A78.322,78.322,0,0,1-156.268-22.54Zm48.44,7.252a49.894,49.894,0,0,0-6.832-3.752l-1.792,2.744a36.97,36.97,0,0,1,6.664,3.948Zm-10.444-4.256a29.288,29.288,0,0,1-3.724.868c.392-1.484.728-2.884.952-3.78l-3.836-.392a23.609,23.609,0,0,1-.756,4.648c-.84.056-1.68.084-2.492.084a35.245,35.245,0,0,1-3.7-.2l.252,3.248c1.2.056,2.324.084,3.472.084.476,0,.952,0,1.428-.028a42.307,42.307,0,0,1-5.656,9.8L-128.94-3.5A51.184,51.184,0,0,0-123-15.372a40.634,40.634,0,0,0,4.816-.952Zm.672,15.428c0,1.484-.616,2.576-2.492,2.576-1.512,0-2.38-.7-2.38-1.736,0-.98,1.036-1.652,2.632-1.652a9.814,9.814,0,0,1,2.24.28Zm-.448-9.716c.084,1.68.224,4.116.308,6.188-.588-.056-1.232-.112-1.876-.112-3.864,0-6.132,2.1-6.132,4.816,0,3.052,2.716,4.592,6.16,4.592,3.948,0,5.348-2.016,5.348-4.592v-.252a24.685,24.685,0,0,1,3.752,2.94l1.848-2.968a18.472,18.472,0,0,0-5.74-3.556c-.084-1.372-.14-2.716-.168-3.5-.028-1.232-.084-2.38,0-3.556Zm22.68-8.344-2.044,3.08c1.848,1.036,4.76,2.94,6.328,4.032l2.1-3.108C-90.44-19.18-93.52-21.14-95.368-22.176ZM-100.576-2.3l2.1,3.7a34.07,34.07,0,0,0,9.352-3.472A33.808,33.808,0,0,0-77.98-12.124l-2.156-3.808a28.543,28.543,0,0,1-10.892,10.5A31.07,31.07,0,0,1-100.576-2.3Zm.9-13.5-2.044,3.108A73.128,73.128,0,0,1-95.34-8.708l2.044-3.136C-94.724-12.852-97.8-14.784-99.68-15.792ZM-71.2-8.568c1.036-.084,2.912-.14,4.508-.14H-51.66c1.176,0,2.6.112,3.276.14v-4.4c-.728.056-1.988.168-3.276.168H-66.7c-1.456,0-3.5-.084-4.508-.168ZM-38.192-21.28l-2.632,2.8a58.219,58.219,0,0,1,7,6.048l2.856-2.94A58.8,58.8,0,0,0-38.192-21.28Zm-3.5,18.648,2.352,3.7A30.323,30.323,0,0,0-28.952-2.884a29.774,29.774,0,0,0,10.36-10.36l-2.184-3.948A26.55,26.55,0,0,1-30.968-6.3,28.859,28.859,0,0,1-41.692-2.632ZM6.02-14.56l-2.072.868A21.6,21.6,0,0,1,6.132-9.8l2.128-.952A36.7,36.7,0,0,0,6.02-14.56Zm3.136-1.288L7.112-14.9a24.632,24.632,0,0,1,2.3,3.78l2.1-1.008A41.882,41.882,0,0,0,9.156-15.848Zm-21.812-3.3.364,3.808c3.22-.7,9.044-1.316,11.452-1.568a11,11,0,0,0-4.088,8.54c0,6.02,5.488,9.156,11.312,9.52L7.672-2.688c-4.7-.224-8.96-1.876-8.96-6.44a8.417,8.417,0,0,1,5.852-7.756,28.634,28.634,0,0,1,5.348-.364l-.028-3.584c-1.96.084-4.984.252-7.84.476-5.068.448-9.66.868-11.984,1.064C-10.472-19.236-11.536-19.18-12.656-19.152ZM19.8-8.6a18.514,18.514,0,0,0-.532,4c0,3.808,3.164,5.936,9.52,5.936A44.23,44.23,0,0,0,38.416.42L38.388-3.5a39.32,39.32,0,0,1-9.744,1.092c-4,0-5.656-1.288-5.656-3.052a11.41,11.41,0,0,1,.448-2.8ZM35.28-22.064a21.307,21.307,0,0,1,1.2,2.016c-2.128.2-5.18.364-7.84.364a71.72,71.72,0,0,1-7.532-.336v3.7c2.24.168,4.648.308,7.56.308,2.632,0,6.076-.2,8.008-.336v-3.332c.28.56.56,1.092.784,1.54l2.268-.98c-.532-1.036-1.54-2.8-2.24-3.836Zm3.3-1.26a29.686,29.686,0,0,1,2.268,3.864l2.212-.952A30.909,30.909,0,0,0,40.8-24.22ZM55.636-12.376h4.816v-3.052H55.636V-19.6a36.4,36.4,0,0,0,4.732-1.456l-2.352-2.576A47.285,47.285,0,0,1,46.76-20.748a10.447,10.447,0,0,1,.952,2.6c1.512-.2,3.108-.448,4.7-.756v3.472H47.1v3.052h4.676a27.122,27.122,0,0,1-5.32,8.064,18.74,18.74,0,0,1,1.68,3.248,27.857,27.857,0,0,0,4.284-6.58V2.38h3.22V-7.28C56.756-6.132,57.932-4.872,58.6-4L60.536-6.86c-.756-.588-3.528-2.968-4.9-4Zm9.38-7.952H61.768V-4.676h3.248Zm3.36-2.856V-1.652c0,.5-.224.672-.756.7-.588,0-2.38,0-4.2-.084a12.779,12.779,0,0,1,1.148,3.444c2.548.028,4.424-.084,5.572-.644,1.148-.532,1.54-1.456,1.54-3.388v-21.56ZM91.98-8.876V-12.32h5.908v3.444Zm-8.708,0c.056-1.036.084-2.044.084-2.94v-.5H88.62v3.444Zm5.348-9.8v3.248H83.356v-3.248Zm9.268,3.248H91.98v-3.248h5.908Zm3.3-6.412H80.052v10c0,3.92-.252,8.9-3.3,12.264A12.3,12.3,0,0,1,79.38,2.576,16.035,16.035,0,0,0,82.908-5.74H88.62V2.072h3.36V-5.74h5.908v4.2c0,.5-.2.672-.728.672-.5,0-2.352.028-3.92-.056A12.588,12.588,0,0,1,94.3,2.268c2.52.028,4.228-.028,5.376-.588,1.12-.5,1.512-1.4,1.512-3.192Zm22.316-1.148a19.152,19.152,0,0,1-2.128,2.324c-1.876,1.848-5.684,4.928-7.84,6.692-2.772,2.3-3,3.836-.252,6.16,2.548,2.156,6.776,5.768,8.288,7.364.784.84,1.652,1.708,2.436,2.576l3.22-2.968c-2.744-2.66-8.092-6.888-10.164-8.652-1.512-1.288-1.54-1.6-.056-2.856,1.848-1.6,5.516-4.424,7.308-5.88.644-.5,1.568-1.232,2.436-1.876Zm36.6,5.6a38.515,38.515,0,0,0-2.212-3.836l-2.212.924a31.349,31.349,0,0,1,2.184,3.892Zm-9.52,7.084a46.23,46.23,0,0,1,5.348-.308,39.725,39.725,0,0,1,4.76.364l.084-3.36a48.007,48.007,0,0,0-4.872-.224,52.236,52.236,0,0,0-5.32.28Zm2.184-8.876c-1.512.364-3.08.672-4.648.9l.224-1.036c.14-.616.392-1.848.588-2.632l-4.228-.336a14.608,14.608,0,0,1-.112,2.828c-.056.42-.14.98-.252,1.568-.84.056-1.652.084-2.464.084a26.86,26.86,0,0,1-3.5-.2l.084,3.444c.98.056,2.016.112,3.36.112.56,0,1.176-.028,1.82-.056-.168.784-.392,1.568-.588,2.324A61.775,61.775,0,0,1,138.264.308L142.156,1.6a90.63,90.63,0,0,0,4.4-12.824c.308-1.148.588-2.38.84-3.556a49.91,49.91,0,0,0,5.376-.924ZM148.876-6.888a18.477,18.477,0,0,0-.476,3.7c0,2.8,2.38,4.424,7.056,4.424A44.37,44.37,0,0,0,161.112.84l.14-3.556a34.928,34.928,0,0,1-5.768.56c-2.968,0-3.668-.924-3.668-2.128a9.816,9.816,0,0,1,.392-2.324Zm10.108-14.7a29.685,29.685,0,0,1,2.268,3.864l2.212-.952a33.135,33.135,0,0,0-2.268-3.808ZM172.06-9.1a18.794,18.794,0,0,0-.784,4.564c0,3.864,3,5.964,8.568,5.964A38.859,38.859,0,0,0,187.32.756l.084-3.668a30.658,30.658,0,0,1-7.56.812c-3.92,0-4.956-1.372-4.956-3.388a12.444,12.444,0,0,1,.756-3.3Zm18.088-10.892a40.563,40.563,0,0,1-5.432,1.4c-.616-1.456-1.148-2.772-1.624-4.228l-3.92.756a21.524,21.524,0,0,1,1.372,2.66c.168.42.364.868.588,1.316a47.241,47.241,0,0,1-10.36-.28l.112,3.556a62.3,62.3,0,0,0,11.676,0c.812,1.736,1.764,3.668,2.436,5.068-.84-.056-2.352-.224-3.276-.308L181.412-7.2c2.044.252,4.788.7,6.3,1.008l1.96-2.1c-1.2-2.212-2.52-4.844-3.584-7.084,1.68-.336,3.3-.728,4.7-1.12Zm14.168.056-4.256-.056a16.07,16.07,0,0,1,.2,2.8c0,1.708.056,4.928.308,7.476.784,7.448,3.444,10.192,6.468,10.192,2.24,0,3.976-1.708,5.824-6.524l-2.8-3.36c-.532,2.184-1.624,5.432-2.94,5.432-1.736,0-2.576-2.716-2.968-6.72-.168-1.988-.2-4.088-.168-5.88A21.972,21.972,0,0,1,204.316-19.936Zm13.86.588-3.528,1.176c3.024,3.416,4.508,9.94,4.928,14.392l3.668-1.4C222.936-9.436,220.808-16.128,218.176-19.348ZM239.792-7.2h2.884l.98-9.576.14-4.172h-5.124l.112,4.172ZM241.22.252a2.739,2.739,0,0,0,2.912-2.744,2.777,2.777,0,0,0-2.912-2.772,2.777,2.777,0,0,0-2.912,2.772A2.739,2.739,0,0,0,241.22.252Z" transform="translate(684 4737.604)" fill="#333"/>
  </g>
</svg>
