<svg xmlns="http://www.w3.org/2000/svg" xmlns:xlink="http://www.w3.org/1999/xlink" width="323.38" height="149.455" viewBox="0 0 323.38 149.455">
  <defs>
    <linearGradient id="linear-gradient" x1="0.242" y1="1.345" x2="0.956" y2="0.328" gradientUnits="objectBoundingBox">
      <stop offset="0" stop-color="#20aee5"/>
      <stop offset="0.389" stop-color="#1dace4"/>
      <stop offset="0.554" stop-color="#0aa5df"/>
      <stop offset="0.677" stop-color="#0099d5"/>
      <stop offset="0.778" stop-color="#0089c6"/>
      <stop offset="0.867" stop-color="#0075b5"/>
      <stop offset="0.945" stop-color="#005fa0"/>
      <stop offset="1" stop-color="#004d8f"/>
    </linearGradient>
  </defs>
  <g id="グループ_5957" data-name="グループ 5957" transform="translate(-521 -2047.936)">
    <g id="グループ_5955" data-name="グループ 5955" transform="translate(521 2096.238)">
      <g id="グループ_82" data-name="グループ 82" transform="translate(0 4.262)">
        <path id="パス_416" data-name="パス 416" d="M54.559,43.34l1.209,5.345H81.473v-.2h0V22.517h-18.3v-11.1h18.3L80.264,6.068H54.559v5.347h0v11.1h0v5.345h18.3V43.34Z" transform="translate(-54.559 -6.067)" fill="#fff"/>
        <path id="パス_417" data-name="パス 417" d="M114.762,48.831H131.85l1.213-5.345h-18.3V11.415h18.3L131.85,6.068h-25.7V48.831h8.613Z" transform="translate(2.311 -6.067)" fill="#fff"/>
        <path id="パス_418" data-name="パス 418" d="M149.755,11.415l-1.211-5.347h-25.7v5.347h0v11.1h0v5.345h0V43.486h0v5.345h25.7l1.211-5.345h-18.3V27.862h14.937l-1.213-5.345H131.456v-11.1Z" transform="translate(20.712 -6.067)" fill="#fff"/>
        <path id="パス_419" data-name="パス 419" d="M90.346,48.831h8.611V6.068H90.346V43.486h-9.69V6.068H72.043V48.831h18.3Z" transform="translate(-35.286 -6.067)" fill="#fff"/>
        <path id="パス_420" data-name="パス 420" d="M98.067,48.831h17.092l1.211-5.345h-18.3V11.415h18.3l-1.211-5.347H89.454V48.831Z" transform="translate(-16.093 -6.067)" fill="#fff"/>
        <path id="パス_421" data-name="パス 421" d="M176.432,28.395c-6.517-5.228-10.764-8.894-10.764-8.894a5.718,5.718,0,0,1-2.155-4.332c0-3.756,3.887-3.67,4.392-3.67h6.212c3.872.347,6.387,2.013,4.678,9.213l2.969-12.5c.561-2.209-.437-2.142-1-2.142h-15.1s-10.8-.334-10.8,9.614c0,7.714,4.417,10.04,10.8,15.326,5.937,4.912,7.5,5.841,7.5,8.986,0,2.871-2.832,3.382-4.829,3.472-.641,0-1.278.01-1.9.021h-2.493c-4.564-.127-7.835-1.324-5.943-9.284l-2.969,12.5c-.561,2.209.435,2.142,1,2.142h2.144l.023-.013h10.165s13.457.841,13.457-10.689C181.816,38.142,181.881,32.764,176.432,28.395Z" transform="translate(56.012 -6.067)" fill="#fff"/>
        <path id="パス_422" data-name="パス 422" d="M166.175,8.211c.559-2.209-.433-2.142-1-2.142h-15.1s-10.8-.334-10.8,9.614c0,7.714,4.417,10.04,10.8,15.326,5.937,4.912,7.505,5.841,7.505,8.986,0,2.875-2.838,3.382-4.838,3.472-.643,0-1.289.01-1.919.021h-2.462c-4.57-.125-7.844-1.319-5.952-9.284l-2.969,12.5c-.563,2.209.433,2.142.994,2.142h2.142l.025-.013h10.163s13.457.841,13.457-10.689c0,0,.065-5.378-5.382-9.75-6.515-5.228-10.766-8.894-10.766-8.894a5.718,5.718,0,0,1-2.155-4.332c0-3.756,3.889-3.67,4.394-3.67h6.212c3.875.347,6.385,2.013,4.676,9.213Z" transform="translate(38.828 -6.067)" fill="#fff"/>
      </g>
      <g id="グループ_83" data-name="グループ 83" transform="translate(0.372 58.388)">
        <rect id="長方形_9841" data-name="長方形 9841" width="8.613" height="42.765" transform="translate(112.236)" fill="#fff"/>
        <path id="パス_423" data-name="パス 423" d="M266.968,6.071h-8.613v0h-9.686v0h-8.615V48.834h8.615V11.418h9.686V48.834h8.613V11.418h0V6.073h0Z" transform="translate(-107.905 -6.071)" fill="#fff"/>
        <path id="パス_424" data-name="パス 424" d="M238.933,6.071h-8.615v0H220.63v0h-8.613V48.836h8.613V27.865h9.688V48.834h8.615V27.865h0V22.52h0v-11.1h0l0-5.347ZM230.32,22.52h-9.688v-11.1h9.688Z" transform="translate(-138.811 -6.071)" fill="#fff"/>
        <path id="パス_425" data-name="パス 425" d="M205.252,6.071H177.2v5.347h0V43.491h0v5.345h29.673L198.68,27.867ZM185.809,43.489V11.418H194.9l-5.367,16.449,6.1,15.624h-9.818Z" transform="translate(-177.196 -6.071)" fill="#fff"/>
        <path id="パス_426" data-name="パス 426" d="M222.663,6.071H194.607v5.347h0V48.836h8.615V11.418h9.084l-5.367,16.447,8.187,20.971h9.154l-8.189-20.971Z" transform="translate(-158.003 -6.071)" fill="#fff"/>
      </g>
      <g id="グループ_86" data-name="グループ 86" transform="translate(152.287)">
        <g id="グループ_84" data-name="グループ 84" transform="translate(26.082)">
          <path id="パス_427" data-name="パス 427" d="M112.077,0C156.345,99.412,13.916,100.979,6.857,101H143.191c.783,0,13.239-.317,6.871-14.772Z" transform="translate(-6.857)" fill="url(#linear-gradient)"/>
        </g>
        <g id="グループ_85" data-name="グループ 85">
          <path id="パス_430" data-name="パス 430" d="M144.558,89.148,105.286,0C149.554,99.412,7.125,100.979.066,101H162.444C152.181,101,146.8,93.45,144.558,89.148Z" transform="translate(-0.066)" fill="#fff"/>
        </g>
      </g>
    </g>
    <g id="グループ_5956" data-name="グループ 5956" transform="translate(280.963 26.04)">
      <path id="パス_3352" data-name="パス 3352" d="M242.1,2033.052c-.049-.065-.065-.081-.065-.114s.016-.032.049-.032c.081,0,.422.032.5.032,1.46.065,1.736.081,2.222.081h3.325c.519,0,.519-.146.519-1.363,0-.5-.114-.584-.487-.584h-2.482c-1.427,0-1.849.016-2.011.032-.049,0-.341.049-.39.049s-.081-.049-.146-.114l-.308-.373c-.065-.065-.065-.081-.065-.1a.043.043,0,0,1,.049-.049c.114,0,.616.065.714.065.795.032,1.508.049,2.238.049h2.4c.5,0,.519-.178.519-1.135,0-.681,0-.843-.47-.843h-2.741a.386.386,0,0,0-.454.292.873.873,0,0,1-.892.665c-.373,0-.422-.211-.422-.422,0-.13.049-.649.049-.746.081-1.589.1-2.465.1-2.627a16.607,16.607,0,0,0-.1-2.044c-.016-.1-.146-.535-.146-.616,0-.1.065-.113.146-.113a8.832,8.832,0,0,1,1.444.551,2.772,2.772,0,0,0,1.054.195h6.569a1.168,1.168,0,0,0,.714-.162c.1-.049.487-.389.584-.389.341,0,1.168.7,1.168.957,0,.114-.1.21-.357.373-.162.114-.162.162-.195.6-.032.535-.032,1.541-.032,1.849s.032,1.606.016,1.881c-.016.292-.114.633-.811.633-.454,0-.5-.146-.535-.471-.032-.341-.146-.405-.5-.405h-2.546c-.5,0-.5.259-.5.811,0,1.054,0,1.168.519,1.168h2.5c.762,0,.843,0,1.038-.259.357-.519.405-.568.551-.568a3.546,3.546,0,0,1,1.4,1.038c0,.227-.325.227-.876.227h-4.623c-.162,0-.487,0-.487.422,0,1.427,0,1.525.535,1.525h3.163c.73,0,.779-.032.908-.146.114-.114.551-.762.681-.762a4.521,4.521,0,0,1,1.314,1.152c0,.146-.146.179-.876.179H244.729c-.5,0-.551,0-.551.113,0,.016.081.276.1.308a2.6,2.6,0,0,1,.114.762c0,1.022-.568,2.611-1.622,2.611a.5.5,0,0,1-.535-.5c0-.276.114-.422.568-.876a3.572,3.572,0,0,0,1.152-2.109c0-.292-.1-.292-.243-.292-.162,0-1.006.065-1.152.065-.049,0-.1-.049-.146-.1Zm6.132-4.834c.454,0,.454-.211.454-.892,0-.7,0-.941-.47-.941h-2.725c-.47,0-.47.194-.47,1.07,0,.5,0,.763.454.763Zm-.049-2.255c.486,0,.486-.211.486-.99,0-.5,0-.762-.486-.762h-2.66c-.487,0-.487.194-.487,1.006,0,.47,0,.746.487.746Zm-2,7.624a3.11,3.11,0,0,1,2.222,2.547.766.766,0,0,1-.714.859c-.389,0-.535-.373-.6-.762a4.645,4.645,0,0,0-.681-2.254c-.032-.049-.308-.26-.308-.325C246.108,2033.6,246.157,2033.587,246.189,2033.587Zm6.8-5.369c.454,0,.519-.146.519-1.087,0-.5,0-.746-.5-.746h-2.66c-.5,0-.5.194-.5.957,0,.7,0,.876.5.876Zm-2.628-4.007c-.487,0-.487.146-.487,1.33a.4.4,0,0,0,.47.422h2.693c.486,0,.486-.259.486-.778,0-.746,0-.974-.486-.974Zm-.373,9.408c.243,0,2.32,1.1,2.32,2.563,0,.827-.584.892-.681.892-.406,0-.584-.422-.649-.714a6.008,6.008,0,0,0-.973-2.531c-.016-.016-.114-.113-.114-.146A.093.093,0,0,1,249.985,2033.62Zm3.633-.065c.065,0,2.563,1.217,2.563,2.693a.868.868,0,0,1-.795.974c-.438,0-.535-.292-.7-1.3a4.656,4.656,0,0,0-1.054-2.141c-.049-.048-.114-.146-.1-.178C253.554,2033.555,253.586,2033.555,253.618,2033.555Z" transform="translate(-2 -0.84)" fill="#fff"/>
      <path id="パス_3353" data-name="パス 3353" d="M319.128,2031.425c-1.427,0-1.882.032-2.044.048-.049,0-.292.049-.341.049-.065,0-.1-.049-.146-.114l-.308-.373c-.065-.065-.081-.081-.081-.1,0-.032.032-.048.065-.048.114,0,.616.064.714.064.795.049,1.46.049,2.222.049h3.082c.179,0,.47,0,.47-.487,0-.179-.146-1.152-.146-1.217s.081-.081.114-.081c.016,0,.714.146.843.146.422,0,1.525-1.655,1.525-1.833,0-.146-.146-.146-.308-.146h-3.131c-1.411,0-1.882.032-2.044.048-.049,0-.292.033-.341.033-.065,0-.1-.033-.146-.1l-.308-.373c-.065-.081-.081-.081-.081-.113s.032-.032.065-.032c.114,0,.616.048.714.048.795.033,1.46.065,2.222.065h2.806a2.1,2.1,0,0,0,1.038-.13c.081-.033.357-.422.454-.422a3.2,3.2,0,0,1,1.363,1.379c0,.195-.178.178-.649.195-.211,0-.373.146-.973.6-.243.195-1.508,1.038-1.606,1.119a.892.892,0,0,0-.243.73c0,.276,0,.568.47.568h3.147c.5,0,.568,0,.763-.162.162-.13.73-.86.908-.86.211,0,1.444.909,1.444,1.233,0,.211-.308.211-.86.211h-5.369a.4.4,0,0,0-.47.438c0,.065.065,2.3.065,2.741,0,.924,0,1.411-.535,1.8a2.147,2.147,0,0,1-1.249.389c-.178,0-.178,0-.357-.292a2.837,2.837,0,0,0-.941-.957c-.195-.13-.26-.162-.26-.243a.043.043,0,0,1,.049-.049c.13,0,.941.1,1.119.1.681,0,.844-.114.892-.276a17.89,17.89,0,0,0,.081-1.914c0-1.589,0-1.735-.487-1.735Zm8.646-6.975a.759.759,0,0,0,.617-.243c.276-.276.373-.357.535-.357.195,0,.292.081.73.487.827.762.924.844.924,1.054a.276.276,0,0,1-.292.308c-.113,0-.665-.114-.795-.114a1.82,1.82,0,0,0-.795.211c-.162.065-.86.438-.957.438a.076.076,0,0,1-.081-.081c0-.017.195-.373.211-.389a2.1,2.1,0,0,0,.26-.7c0-.178-.13-.178-.243-.178h-9.57c-.1,0-.26,0-.292.324-.114.908-.551,1.509-1.168,1.509a.6.6,0,0,1-.6-.584c0-.13.049-.211.243-.519a7.168,7.168,0,0,0,.811-1.736c.049-.195.065-.211.114-.211.081,0,.276.341.373.5.178.276.292.276.471.276h4.055a.4.4,0,0,0,.422-.454,6.241,6.241,0,0,0-.13-1.233c-.016-.1-.146-.535-.146-.649,0-.1.13-.1.195-.1.243,0,1.281.195,1.427.227.1.016.308.13.308.308,0,.081-.016.1-.276.308a.888.888,0,0,0-.227.649c0,.73,0,.941.47.941Z" transform="translate(-55.455 -0.088)" fill="#fff"/>
      <path id="パス_3354" data-name="パス 3354" d="M396.228,2027.557c-.114.341-.178,5.531-.178,6.764,0,.227.049,1.249.016,1.46a1.121,1.121,0,0,1-.908.876c-.357,0-.357-.406-.357-.568,0-.308.1-1.687.114-1.979.016-.422.162-4.006.162-5.061,0-1.2-.032-1.249-.162-1.249-.081,0-.146.1-.454.5-.47.616-1.8,2.352-2.093,2.352a.1.1,0,0,1-.1-.1c0-.065,1.508-2.514,1.768-3a29.89,29.89,0,0,0,2.287-5.158c.114-.5.114-.5.211-.5.081,0,1.638.682,1.638.941,0,.114-.47.406-.535.47a10.054,10.054,0,0,0-1.249,1.979,4.323,4.323,0,0,0-.519,1.087c0,.178.114.276.276.357.227.114.341.195.341.373C396.487,2027.184,396.244,2027.492,396.228,2027.557Zm9.7-1.557a1.5,1.5,0,0,0-.973.406,25.193,25.193,0,0,1-3.1,2.174c-.438.259-1.119.649-1.233.957-.065.211-.081,3.033-.081,3.552,0,2.222,0,2.271,2.255,2.271,2.028,0,2.255-.114,2.433-.405a4.324,4.324,0,0,0,.292-1.655c.049-.519.049-.584.178-.584.1,0,.1.016.162.584a4.334,4.334,0,0,0,.438,1.541,3.507,3.507,0,0,1,.389.681c0,.925-2.076.925-2.985.925-4.25,0-4.25-.438-4.25-2.19,0-1.525.1-8.224.1-9.619a13.993,13.993,0,0,0-.065-1.9c-.016-.081-.081-.5-.081-.6,0-.146.049-.195.114-.195a8.374,8.374,0,0,1,.925.308c.584.211.649.227.649.373a.2.2,0,0,1-.065.13c-.227.211-.243.227-.276.389-.065.276-.13,4.136-.13,4.9,0,.146,0,.486.195.486.405,0,2.644-2.174,3.942-3.86.049-.081.276-.373.324-.373s1.428,1.184,1.266,1.541C406.285,2025.967,406.041,2026,405.928,2026Z" transform="translate(-111.904)" fill="#fff"/>
      <path id="パス_3355" data-name="パス 3355" d="M470.012,2033.21c0-.487.454-1.006,1.557-2.287a7.466,7.466,0,0,0,1.379-2.417c0-.1-.114-.114-.179-.114-.162,0-.827.13-.973.13a1.721,1.721,0,0,1-1.443-1.428c0-.048,0-.113.1-.113a3.64,3.64,0,0,1,.616.308,2.575,2.575,0,0,0,1.071.292c1.33,0,1.33-.438,1.33-.763a1.3,1.3,0,0,0-.13-.568c-.049-.081-.389-.373-.389-.47,0-.13.422-.26.713-.26.39,0,.795.146.827.5.016.211.081.244.73.292.114,0,.73.081.73.421,0,.536-1.184.99-1.93,1.282-.243.1-.26.13-.616.957a12.618,12.618,0,0,1-.876,1.752c-.081.146-.114.195-.114.26a.059.059,0,0,0,.065.065,3.2,3.2,0,0,0,.5-.179,1.522,1.522,0,0,1,.633-.129,1.462,1.462,0,0,1,1.379.99c.114.275.13.308.162.308a7.606,7.606,0,0,0,.665-.876c.535-.747,1.589-2.222,3-2.222a1.53,1.53,0,0,1,1.525,1.444c0,.762-1.281,1.3-2.287,1.735-.405.179-2.238.908-2.53,1.087-.26.162-.276.34-.276.681,0,.146.033.827.033.973,0,.26,0,1.184-.6,1.184-.438,0-.5-.535-.5-.827,0-.162.049-.941.049-.957,0-.065,0-.194-.114-.194-.13,0-1.573,1.005-1.573,1.93,0,1.119,1.622,1.119,2.092,1.119a5.025,5.025,0,0,0,1.038-.1c.227-.033,1.265-.292,1.476-.292.341,0,.795.162.795.551,0,1.006-2.514,1.071-2.9,1.071-2.06,0-3.147-.843-3.147-2.125,0-1.038.616-1.557,2.141-2.79a.692.692,0,0,0,.243-.568c0-.73-.13-1.638-.779-1.638a2.792,2.792,0,0,0-2,1.719c-.178.406-.357.795-.876.795C470.32,2033.745,470.012,2033.648,470.012,2033.21Zm4.136-6.131c.032,0,.811-.211.811-.389,0-.211-.405-.243-.551-.243-.227,0-.292.454-.292.519S474.116,2027.078,474.148,2027.078Zm1.476,5.255c0,.032.016.081.065.081s3.244-1.3,3.244-2.368a.5.5,0,0,0-.568-.487C477.019,2029.56,475.624,2032.074,475.624,2032.334Z" transform="translate(-168.24 -2.652)" fill="#fff"/>
      <path id="パス_3356" data-name="パス 3356" d="M532.683,2028.777c-.065-.081-.065-.081-.065-.114s.016-.032.049-.032c.081,0,.422.032.5.032,1.46.065,1.622.081,2.174.081h2.044c.162,0,.357,0,.438-.178.065-.1.065-1.963.065-2.287,0-.389-.065-.519-.47-.519h-3.26c-1.427,0-1.9.033-2.044.049-.065,0-.292.032-.341.032-.065,0-.1-.032-.146-.114l-.324-.373c-.049-.065-.065-.081-.065-.1,0-.033.016-.033.065-.033.113,0,.6.049.714.049.795.032,1.46.049,2.222.049h3.147c.227,0,.47,0,.47-.39s-.081-1.784-.114-2.157c0-.016-.016-.146-.016-.179a.091.091,0,0,1,.081-.1,14.29,14.29,0,0,1,1.525.357.234.234,0,0,1,.211.243c0,.081-.114.195-.227.308-.162.162-.26.5-.26,1.525,0,.39.26.39.5.39h3c.73,0,.811,0,1.038-.26.454-.552.5-.6.649-.6.114,0,1.525.86,1.525,1.071,0,.195-.178.227-.827.227h-5.434c-.227,0-.357,0-.454.162a10.9,10.9,0,0,0-.065,1.493c0,1.281.065,1.33.486,1.33h1.379a1.094,1.094,0,0,0,.876-.34c.389-.438.422-.487.535-.487a6.265,6.265,0,0,1,1.411.973.3.3,0,0,1,.146.244c0,.145-.065.162-.632.292-.276.065-.325.13-.908.811a22.4,22.4,0,0,1-2.4,2.628c-.195.179-.422.389-.422.487,0,.243.357.422,1.022.746a13.743,13.743,0,0,0,4.542,1.314c.519,0,.584,0,.584.065,0,.114-.892.487-1.038.633-.081.081-.454.535-.535.616a.259.259,0,0,1-.179.081,19.178,19.178,0,0,1-4.736-2.255,2.007,2.007,0,0,0-.714-.373c-.162,0-.227.032-.827.422a16.554,16.554,0,0,1-5.856,2.336c-.178,0-.227-.1-.227-.13s.114-.065.325-.13a20.985,20.985,0,0,0,4.947-2.628c.454-.324.714-.519.714-.746,0-.113-.065-.194-.568-.843a11.406,11.406,0,0,1-1.46-2.806c-.179-.487-.438-.487-.844-.487-.227,0-1.249.081-1.476.081-.049,0-.081-.032-.146-.1Zm3.488.389c-.146,0-.406,0-.406.276,0,.487,1.946,3.147,2.628,3.147.568,0,2.822-2.806,2.822-3.179,0-.244-.162-.244-.584-.244Z" transform="translate(-213.031 -0.442)" fill="#fff"/>
      <path id="パス_3357" data-name="パス 3357" d="M611.371,2025.878c-.211,0-.47,0-.551.292-.016.114-.016,2-.016,2.3a.293.293,0,0,0,.308.292c.13,0,1.509-.73,1.671-.73.016,0,.065,0,.065.049,0,.114-.227.292-1.59,1.33a.916.916,0,0,0-.438.746c0,.6.1,3.552.1,4.217a2.234,2.234,0,0,1-1.606,2.368.385.385,0,0,1-.276-.162c-.049-.065-.26-.422-.308-.487-.114-.13-.795-.665-.795-.763,0-.065.114-.065.243-.065s.714.017.844.017c.681,0,.762,0,.762-2.466,0-.243-.016-1.46-.033-1.671a.3.3,0,0,0-.292-.308,2.191,2.191,0,0,0-.86.7c-.032.065-.13.194-.227.194-.259,0-.876-1.314-.876-1.476,0-.081.114-.1.211-.114.276-.048,1.768-.357,2-.973.049-.13.049-2.271.049-2.644s0-.633-.454-.633c-.195,0-1.184.065-1.33.065-.065,0-.1-.033-.146-.1l-.325-.373c-.065-.081-.065-.081-.065-.114s.032-.033.065-.033c.243,0,1.46.1,1.736.1.5,0,.5-.308.5-.665,0-.438,0-1.59-.049-1.963-.016-.1-.211-.5-.211-.616s.13-.146.195-.146.811.227.957.26c.471.114.746.195.746.406,0,.1-.389.422-.454.5a7.741,7.741,0,0,0-.113,1.671c0,.227,0,.568.519.568.454,0,.486-.049.681-.276.146-.178.34-.406.5-.406a2.209,2.209,0,0,1,.876.892c0,.211-.324.211-.86.211Zm.844,3.357a.245.245,0,0,1-.065-.1.043.043,0,0,1,.049-.049c.1,0,.5.049.584.049.211.016,1.541.065,1.9.065.308,0,.486,0,.567-.227a8.581,8.581,0,0,0,.162-1.233c0-.1-.032-.405-.487-.405-.146,0-.86.065-.99.065-.049,0-.081-.049-.13-.1l-.325-.373c-.049-.065-.065-.081-.065-.114s.016-.032.065-.032c.1,0,.6.049.714.049.795.032,1.46.064,2.222.064h1.817c.681,0,.746,0,.876-.113s.584-.665.73-.665c.081,0,1.346.762,1.346.973,0,.227-.325.227-.876.227h-3.179c-.471,0-.471.308-.5.535-.032.211-.162.892-.162,1.006a.313.313,0,0,0,.357.341h2.336c.681,0,.746,0,.876-.114s.632-.746.779-.746a4.408,4.408,0,0,1,1.428,1.07c0,.227-.325.227-.86.227h-4.59a.619.619,0,0,0-.584.308c-.032.065-.211.682-.211.7,0,.178.13.276.325.276h2.741a.836.836,0,0,0,.649-.227c.1-.081.26-.227.325-.227a10.261,10.261,0,0,1,1.184.73c.081.065.146.1.146.211,0,.179-.1.211-.487.341-.162.065-.26.146-.438.471a9.626,9.626,0,0,1-1.152,1.557.283.283,0,0,0-.081.227c0,.244.406.471,1.1.795a11.353,11.353,0,0,0,1.768.568c.065.016.243.081.243.146a7.387,7.387,0,0,1-.827.535,2.1,2.1,0,0,0-.47.454c-.081.1-.1.13-.162.13a7.125,7.125,0,0,1-2.3-1.444.474.474,0,0,0-.373-.145.688.688,0,0,0-.438.162,11.473,11.473,0,0,1-4.493,1.492c-.049,0-.178,0-.178-.065,0-.081.049-.1.568-.292a11.664,11.664,0,0,0,3.471-1.882.453.453,0,0,0,.195-.357c0-.114-.13-.276-.227-.422a15.553,15.553,0,0,1-1.119-1.865.2.2,0,0,0-.211-.146c-.162,0-.195.049-.5.568a9.267,9.267,0,0,1-4.2,3.942c-.016,0-.032-.033-.032-.049a2.8,2.8,0,0,1,.438-.487,12.675,12.675,0,0,0,3.066-4.088,6.178,6.178,0,0,0,.519-1.508c0-.406-.422-.406-.616-.406-.065,0-1.119.016-1.525.049-.032,0-.195.032-.227.032-.065,0-.1-.048-.146-.114Zm4.282-5.515c-.568.033-1.865.081-2.417.081-.081,0-1.135-.016-1.135-.162,0-.1.081-.114.795-.195a31.844,31.844,0,0,0,5.223-.973,4.719,4.719,0,0,1,.843-.454,9.911,9.911,0,0,1,1.622,1.022.235.235,0,0,1,.032.114c0,.26-.373.26-.73.26C620.422,2023.412,617.113,2023.671,616.5,2023.72Zm-2.109,2.823c-.422,0-.438-.26-.519-1.249a2.927,2.927,0,0,0-.195-.746,1.328,1.328,0,0,1-.081-.357c0-.032.016-.048.065-.048a1.752,1.752,0,0,1,1.3,1.622C614.955,2026.153,614.761,2026.542,614.388,2026.542Zm2.206,4.818c-.195,0-.325.1-.325.276a4.965,4.965,0,0,0,1.882,1.736c.162,0,.34-.243.714-.73a4.6,4.6,0,0,0,.535-1.022.227.227,0,0,0-.243-.26Zm.681-5.045c-.373,0-.373-.114-.471-1.184a8.92,8.92,0,0,0-.178-.989c-.016-.065-.081-.179-.081-.211,0-.016,0-.065.049-.065s1.395.957,1.395,1.719A.8.8,0,0,1,617.275,2026.315Zm4.1-2.109c.13.081.146.146.146.179,0,.1-.454.227-.519.292-.162.162-.843.941-1.006,1.07a10.916,10.916,0,0,1-.941.682.035.035,0,0,1-.033-.033c0-.227,1.006-2.109,1.006-2.352,0-.049-.032-.227-.032-.259,0-.065.016-.146.13-.146a2.6,2.6,0,0,1,.746.308C620.957,2024,621.314,2024.158,621.379,2024.207Z" transform="translate(-268.499 -0.088)" fill="#fff"/>
      <path id="パス_3358" data-name="パス 3358" d="M685.12,2027.98a32.83,32.83,0,0,0,4.412-.551c.843-.146.941-.162.941-.584a9.68,9.68,0,0,0-.227-2.206c-.016-.081-.276-.373-.276-.454,0-.114.243-.114.341-.114.714,0,1.346.292,1.346.811,0,.081-.065.422-.065.5,0,.373.47.616,1.427,1.022a3.56,3.56,0,0,0,1.427.325c.162,0,.844-.081.973-.081.211,0,.924.065.924.633,0,.422-.308.568-.876.568-.341,0-1.849-.146-2.157-.146a7.588,7.588,0,0,0-1.752.162c-.227.1-.26.325-.26,1.752a2.116,2.116,0,0,0,.211,1.054,5.144,5.144,0,0,1,.47,2.19c0,3.147-2.449,5.158-2.952,5.158-.033,0-.081-.016-.081-.065,0-.032.665-.811.779-.973a5.277,5.277,0,0,0,.908-2.384c0-.049,0-.227-.162-.227-.049,0-.292.032-.341.032-.876,0-1.654-.827-1.654-2.125,0-.211,0-1.995,1.573-2.238.454-.065.454-.162.454-.99,0-.876,0-.973-.324-.973a20.048,20.048,0,0,0-2.871.649,15.1,15.1,0,0,1-1.736.649c-.357,0-1.7-.681-1.7-1.346,0-.065.032-.146.081-.162C684.115,2027.883,684.893,2027.98,685.12,2027.98Zm4.818,2.693c-.405,0-.924.665-.924,1.492a1.176,1.176,0,0,0,1.054,1.3c.632,0,.649-.974.649-1.233a3.146,3.146,0,0,0-.211-1.135A.685.685,0,0,0,689.938,2030.673Zm1.492-3.877c0,.26.065.308.292.308.065,0,1.119-.032,1.119-.276a3.517,3.517,0,0,0-1.233-.86C691.495,2026,691.43,2026.374,691.43,2026.8Z" transform="translate(-324.153 -1.591)" fill="#fff"/>
      <path id="パス_3359" data-name="パス 3359" d="M763.972,2035.543a2.568,2.568,0,0,0-2.741-2.466c-2.141,0-3.52,2.222-3.812,2.725-.325.552-.487.86-.924.86a.447.447,0,0,1-.471-.454c0-.406.13-.762,1.282-2.109a53.443,53.443,0,0,0,3.666-4.882c.535-.762.762-1.1.762-1.282,0-.114-.114-.227-.308-.227-.6,0-1.557.811-1.833,1.038-.649.535-.876.584-1.152.584-.762,0-1.266-1.038-1.266-1.12,0-.048.049-.048.39-.048a7.868,7.868,0,0,0,2.514-.584c1.006-.438,1.119-.487,1.476-.487.649,0,1.7.406,1.7,1.119,0,.471-.373.73-1.152,1.266a9.885,9.885,0,0,0-2.6,3.325c0,.049.049.114.1.114.1-.033.308-.114.406-.146a3.924,3.924,0,0,1,1.427-.259,3.5,3.5,0,0,1,3.65,3.374c0,2.06-1.995,3.5-4.055,3.5-1.606,0-2.758-.859-2.758-1.671a1.562,1.562,0,0,1,1.606-1.314,2.4,2.4,0,0,1,1.849,1.038c.227.292.324.438.551.438A2.4,2.4,0,0,0,763.972,2035.543ZM759.8,2037a.663.663,0,0,0-.681.568c0,.422.7.762,1.4.762a.268.268,0,0,0,.276-.292A1.1,1.1,0,0,0,759.8,2037Z" transform="translate(-377.474 -3.801)" fill="#fff"/>
      <path id="パス_3360" data-name="パス 3360" d="M821.827,2038.116c.26-.049,1.671-.389,1.7-.389.34,0,2.092,1.33,2.092,2.141,0,.227-.243.308-.633.357-.876.114-1.038.243-2.449,1.427-.227.195-.762.584-1.054.892a.38.38,0,0,0-.081.162c0,.129.065.194.551.73a1.829,1.829,0,0,1,.5,1.119.568.568,0,0,1-.552.633c-.422,0-.519-.114-1.46-1.168a11.767,11.767,0,0,0-2.4-2.044c-.162-.114-.179-.13-.179-.195a.132.132,0,0,1,.146-.13c.438,0,2.628.779,2.725.779.487,0,2.644-3.05,2.644-3.52,0-.195-.195-.211-.325-.211a50.332,50.332,0,0,0-6.618,1.314c-.211.065-1.216.535-1.265.535-.26,0-1.573-.86-1.573-1.622,0-.032,0-.259.113-.259a5.644,5.644,0,0,1,.535.195,4.515,4.515,0,0,0,.941.081A58.8,58.8,0,0,0,821.827,2038.116Z" transform="translate(-419.596 -11.581)" fill="#fff"/>
      <path id="パス_3361" data-name="パス 3361" d="M883.24,2028.395a8.355,8.355,0,0,0,.925.065,12.465,12.465,0,0,0,3.536-.714c.47-.292.519-.324.665-.324a1.446,1.446,0,0,1,1.022.795c0,.1-.032.13-.341.324-.276.179-.341.292-1.152,1.4a2.957,2.957,0,0,0-.357.551c0,.13.1.146.227.179.178.048.714.292.714.681,0,.114-.13.633-.146.746a5.364,5.364,0,0,0-.081,1.184c0,.406.016,1.736.049,2.4,0,.179.049.99.049,1.152,0,.779-.211.908-.422.908-.519,0-.941-1.135-.941-1.46,0-.13.13-.665.146-.763a13.764,13.764,0,0,0,.26-2.449,5.406,5.406,0,0,0-.179-1.573.382.382,0,0,0-.308-.179.364.364,0,0,0-.243.13,15.273,15.273,0,0,1-4.9,3.747,2.564,2.564,0,0,1-.584.211c-.032,0-.065-.016-.065-.049,0-.081,1.752-1.427,2.076-1.7a15.941,15.941,0,0,0,3.423-3.812,4.58,4.58,0,0,0,.486-.908.124.124,0,0,0-.13-.13c-.13,0-2.806.924-2.985.924a2.252,2.252,0,0,1-1.233-.681,1.978,1.978,0,0,1-.26-.632.143.143,0,0,1,.146-.13C882.737,2028.281,883.159,2028.378,883.24,2028.395Zm5.385-2.6a.681.681,0,0,1-.616.649c-.373,0-.568-.324-1.006-1.006a4.432,4.432,0,0,0-1.476-1.265c-.032-.032-.113-.1-.113-.146,0-.081.243-.081.308-.081C887.084,2023.95,888.625,2024.809,888.625,2025.8Zm4.493,7.494c0,.211-.195.682-.616.682-.308,0-.487-.179-.795-.763a8.009,8.009,0,0,0-1.249-1.606,1.89,1.89,0,0,1-.308-.454c0-.049.114-.049.13-.049C891.756,2031.1,893.118,2032.417,893.118,2033.293Z" transform="translate(-468.985 -1.503)" fill="#fff"/>
      <path id="パス_3362" data-name="パス 3362" d="M954.972,2030.633c0,.34-.227.811-.616.811-.243,0-.324-.1-.568-.5a4.2,4.2,0,0,0-1.476-1.33c-.049-.032-.162-.1-.162-.162,0-.243,1.038-.243,1.135-.243C953.983,2029.206,954.972,2029.838,954.972,2030.633Zm-1.914,4.98c-.049-.1-.308-.438-.341-.519a.663.663,0,0,1-.081-.292.119.119,0,0,1,.13-.13c.049,0,.778.26.941.26.876,0,5.288-2.417,8.143-5.045.178-.178,1.119-1.135,1.168-1.135a.1.1,0,0,1,.1.1c0,.033-.811,2.547-7.17,6.553-.989.616-1.055.665-1.184.762-.6.47-.665.519-.843.519C953.577,2036.683,953.383,2036.31,953.058,2035.613Zm3.877-8.224c0,.422-.276.762-.535.762-.179,0-.243-.081-.811-.746a2.746,2.746,0,0,0-1.411-.876c-.227-.081-.244-.081-.244-.146,0-.178.746-.34,1.233-.34a2.234,2.234,0,0,1,.827.162A1.417,1.417,0,0,1,956.935,2027.389Zm5.434-.746c0,.195-.211.616-.519.616-.243,0-.39-.178-.795-.811a5.055,5.055,0,0,0-1.038-1.087c-.065-.048-.211-.195-.211-.26,0-.1.195-.114.292-.114C961.039,2024.988,962.369,2025.783,962.369,2026.643Zm1.7-1.1a.477.477,0,0,1-.438.519c-.341,0-.568-.341-.795-.714a4.075,4.075,0,0,0-1.314-1.054c-.146-.081-.179-.162-.179-.194,0-.146.325-.146.617-.146C962.385,2023.95,964.072,2024.42,964.072,2025.54Z" transform="translate(-520.951 -1.503)" fill="#fff"/>
      <path id="パス_3363" data-name="パス 3363" d="M1017.713,2032.733a8.744,8.744,0,0,0,1.022.438c.34,0,.811-1.135,1.006-1.606a8,8,0,0,0,.6-1.946.724.724,0,0,0-.114-.373c-.049-.1-.1-.146-.1-.195a.132.132,0,0,1,.13-.146,2.525,2.525,0,0,1,1.087.519,2.13,2.13,0,0,1,.7,1.168c0,.13-.049.146-.405.324-.179.1-.227.178-.649.973-.276.535-.584,1.087-.925,1.622a.744.744,0,0,0-.162.405.646.646,0,0,0,.276.438c1.395,1.233,1.59,2.109,1.59,2.514a.509.509,0,0,1-.519.536c-.584,0-.827-.422-1.395-1.428-.162-.292-.47-.844-.7-.844a.466.466,0,0,0-.341.227,16.415,16.415,0,0,1-6.359,5.093c-.048,0-.114-.016-.114-.081s.308-.308.5-.47a26.046,26.046,0,0,0,4.3-3.974,7.653,7.653,0,0,0,1.168-1.736c0-.341-1.492-1.233-2.109-1.573-.308-.162-.341-.178-.341-.259,0-.065.033-.13.146-.13A6.522,6.522,0,0,1,1017.713,2032.733Z" transform="translate(-564.986 -5.128)" fill="#fff"/>
      <path id="パス_3364" data-name="パス 3364" d="M1085.726,2039.714a11.329,11.329,0,0,0-1.59,1.33c-.308.373-.341.406-.584.406-.876,0-2.076-1.038-2.076-1.687,0-.114.016-.86.162-.86a4.039,4.039,0,0,1,.486.308,2.685,2.685,0,0,0,1.1.373c.795,0,5.093-2.871,7.786-5.531.259-.26.714-.714.746-.714a.1.1,0,0,1,.081.081C1091.841,2033.566,1089.943,2036.6,1085.726,2039.714Zm-1.33-5.337c-.438,0-.6-.26-1.135-1.071a3.649,3.649,0,0,0-1.476-1.33c-.065-.033-.146-.081-.146-.146s.13-.146.357-.146c1.736,0,3.1.925,3.1,1.882A.716.716,0,0,1,1084.4,2034.377Z" transform="translate(-615.56 -7.16)" fill="#fff"/>
      <path id="パス_3365" data-name="パス 3365" d="M1152.125,2026.911c.584,0,1.752.519,1.752,1.038a4.708,4.708,0,0,1-.194.681,20.987,20.987,0,0,0-.146,2.255c0,.357.065.405.535.519.989.227,3.5,1.411,3.5,2.628a.555.555,0,0,1-.584.568c-.406,0-.454-.065-1.541-1.476-.454-.6-1.217-1.363-1.719-1.363-.162,0-.227,0-.227,1.2,0,1.719.016,2.579.081,4.039.016.178.032.584.032.827,0,.405,0,1.476-.471,1.476-.486,0-.908-1.1-.908-1.525,0-.065.065-.405.065-.47a33.545,33.545,0,0,0,.146-3.763c0-4.639,0-5.158-.195-5.678a1.8,1.8,0,0,0-.551-.746l-.033-.065C1151.687,2026.911,1152.109,2026.911,1152.125,2026.911Z" transform="translate(-666.912 -3.669)" fill="#fff"/>
      <path id="パス_3366" data-name="パス 3366" d="M1208.718,2025.617c.584,0,1.752.519,1.752,1.038,0,.114-.162.584-.178.681a20.748,20.748,0,0,0-.162,2.271c0,.34.081.406.535.5,1.038.243,3.52,1.427,3.52,2.628a.568.568,0,0,1-.6.568c-.389,0-.405-.033-1.525-1.476-.454-.584-1.216-1.362-1.719-1.362-.178,0-.227,0-.227,1.2,0,1.719.016,2.579.081,4.039.016.178.032.584.032.827,0,.389,0,1.476-.47,1.476-.5,0-.909-1.1-.909-1.525,0-.065.065-.405.065-.47a21.751,21.751,0,0,0,.146-3.763c0-4.8,0-5.159-.195-5.678a1.8,1.8,0,0,0-.568-.746.123.123,0,0,1-.032-.065C1208.3,2025.633,1208.7,2025.617,1208.718,2025.617Zm6.829,2.774c0,.211-.178.617-.5.617-.244,0-.39-.162-.811-.779a4.547,4.547,0,0,0-1.054-1.055c-.065-.049-.227-.195-.227-.259,0-.081.146-.114.292-.114C1214.4,2026.8,1215.547,2027.661,1215.547,2028.391Zm1.314-1.849c0,.179-.13.487-.422.487-.357,0-.552-.26-.844-.633a4.093,4.093,0,0,0-1.395-.925c-.162-.065-.211-.146-.211-.179,0-.1.195-.194.616-.194C1215.774,2025.1,1216.861,2025.747,1216.861,2026.542Z" transform="translate(-708.313 -2.343)" fill="#fff"/>
      <path id="パス_3367" data-name="パス 3367" d="M1266.418,2029.429c0-.163.227-.163.357-.163a1.516,1.516,0,0,1,1.509.909c0,.195-.162.406-.487.811-.081.114-.13.178-.13.26,0,.13.195.13.259.13a9.193,9.193,0,0,0,2.466-.649,3.012,3.012,0,0,1,.762-.26c.146,0,.227.048.892.438.1.049.519.276.6.325a.587.587,0,0,1,.308.406c0,.227-.114.292-.649.616-.178.114-.243.211-.811,1.087a19.834,19.834,0,0,1-5.807,6.1,11.1,11.1,0,0,1-3.228,1.557.145.145,0,0,1-.146-.146c0-.065.048-.1.552-.373,4.947-2.725,8.029-8.256,8.029-8.759a.175.175,0,0,0-.178-.178c-.032,0-2.271.5-2.66.5-.1,0-.535-.049-.633-.049-.308,0-.341.033-1.022.811a12.186,12.186,0,0,1-2.206,2.109,4.96,4.96,0,0,1-1.557.86c-.081,0-.113-.048-.113-.1a13.758,13.758,0,0,1,1.281-1.217c1.314-1.314,2.855-3.552,2.725-4.526C1266.515,2029.851,1266.418,2029.494,1266.418,2029.429Z" transform="translate(-747.853 -5.392)" fill="#fff"/>
      <path id="パス_3368" data-name="パス 3368" d="M1323.62,2039.942c3.325-1.881,5.547-4.525,5.547-5.028s-1.93-1.736-2.336-1.736c-.373,0-2.336,2.125-2.871,2.125a.075.075,0,0,1-.081-.081,5.334,5.334,0,0,1,.584-.7c1.93-2.092,3.26-4.379,3.26-5.3,0-.13-.259-.649-.259-.762,0-.1.211-.1.308-.1a1.448,1.448,0,0,1,1.46.957c0,.1-.179.535-.179.633,0,.243.341.276.552.276a9.928,9.928,0,0,0,2.433-.389,3.881,3.881,0,0,1,.6-.357c.162,0,1.33.73,1.33,1.249,0,.243-.114.292-.406.422-.243.114-.308.195-.795.957-.227.357-1.33,1.9-1.525,2.222-.146.227-.178.276-.178.406,0,.146.016.178.308.552a2.263,2.263,0,0,1,.681,1.427.7.7,0,0,1-.7.778c-.341,0-.406-.114-1.022-1.151-.033-.065-.211-.373-.373-.373-.146,0-.243.114-.568.454a14,14,0,0,1-5.985,3.909c-.032,0-.178,0-.146-.146C1323.279,2040.121,1323.312,2040.121,1323.62,2039.942Zm8.256-8.986c0-.179-.162-.227-.276-.227-.243,0-1.671.211-1.963.211a1.475,1.475,0,0,1-.487-.065,1.092,1.092,0,0,0-.389-.065.255.255,0,0,0-.195.065,13.242,13.242,0,0,0-1.379,1.817c0,.227.146.276.552.438a18.135,18.135,0,0,1,1.784.827.915.915,0,0,0,.373.113A8.16,8.16,0,0,0,1331.876,2030.956Z" transform="translate(-792.438 -4.729)" fill="#fff"/>
      <path id="パス_3369" data-name="パス 3369" d="M1397.928,2046.867c.1,0,.276-.016.357-.016.99,0,1.135.6,1.135.714,0,.455-.665.5-1.346.5-.373,0-2-.032-2.32-.032-2.239,0-5.953.211-6.342.292-.195.033-1.07.292-1.265.292-.7,0-1.444-1.006-1.444-1.557,0-.1.049-.195.13-.195s.47.178.552.195a8.848,8.848,0,0,0,1.979.145C1389.9,2047.207,1395.56,2047,1397.928,2046.867Z" transform="translate(-838.851 -18.256)" fill="#fff"/>
    </g>
  </g>
</svg>
