<svg xmlns="http://www.w3.org/2000/svg" width="338.76" height="69.926" viewBox="0 0 338.76 69.926">
  <path id="パス_3209" data-name="パス 3209" d="M-331.541-41.544c-.079.026-.131.158-.131.263,0,1.077,2.18,2.18,2.758,2.18a24.413,24.413,0,0,0,2.81-1.051,32.527,32.527,0,0,1,4.649-1.051c.525,0,.525.158.525,1.576,0,1.34,0,1.5-.735,1.6-2.548.394-2.548,3.283-2.548,3.624,0,2.1,1.261,3.441,2.679,3.441.079,0,.473-.053.552-.053.263,0,.263.289.263.368a8.544,8.544,0,0,1-1.471,3.861c-.184.263-1.261,1.523-1.261,1.576,0,.079.079.105.131.105.814,0,4.78-3.257,4.78-8.352A8.326,8.326,0,0,0-319.3-37a3.43,3.43,0,0,1-.341-1.707c0-2.311.053-2.679.42-2.837a12.253,12.253,0,0,1,2.837-.263c.5,0,2.942.236,3.493.236.919,0,1.418-.236,1.418-.919,0-.919-1.156-1.024-1.5-1.024-.21,0-1.313.131-1.576.131a5.772,5.772,0,0,1-2.311-.525c-1.55-.657-2.311-1.051-2.311-1.655,0-.131.105-.683.105-.814,0-.84-1.024-1.313-2.18-1.313-.158,0-.552,0-.552.184,0,.131.42.6.446.735a15.69,15.69,0,0,1,.368,3.572c0,.683-.158.709-1.523.946a53.084,53.084,0,0,1-7.144.893C-330.018-41.36-331.279-41.518-331.541-41.544Zm12.4-3.073a5.694,5.694,0,0,1,2,1.392c0,.394-1.707.446-1.812.446-.368,0-.473-.079-.473-.5C-319.433-43.961-319.328-44.565-319.144-44.617Zm-1.786,8.3a5.106,5.106,0,0,1,.341,1.839c0,.42-.026,2-1.051,2a1.9,1.9,0,0,1-1.707-2.1c0-1.339.84-2.416,1.5-2.416A1.11,1.11,0,0,1-320.93-36.318Zm27.578-4.412c-.919,0-1.418.184-3.625,1.944a10.181,10.181,0,0,1-4.281,2.022c-.447.079-.5.079-.5.184,0,.446,1.55,1.681,2.548,1.681a.727.727,0,0,0,.42-.131c.053-.026,1.97-1.839,2.154-2.022,2.154-2.1,2.39-2.338,3.257-2.338.42,0,.867.341,1.471.919.578.552,3.388,3.388,4.018,3.992,3.861,3.677,6.225,3.835,6.514,3.835.735,0,.972-.84.972-1,0-.762-1.1-1.366-2.311-1.891A23.233,23.233,0,0,1-290.07-38.6C-291.8-40.336-292.67-40.73-293.353-40.73Zm10.086-4.071c-.473-.079-1,0-1,.21,0,.053.026.158.289.315a6.35,6.35,0,0,1,2.049,1.786c.368.6.709,1.182,1.287,1.182a.775.775,0,0,0,.709-.84C-279.932-43.3-281.219-44.512-283.267-44.8Zm-3.388,2.6c-.21,0-.446.079-.446.21,0,.105.236.315.341.394a8.086,8.086,0,0,1,1.733,1.707c.709,1,.945,1.234,1.339,1.234.473,0,.814-.63.814-1C-282.873-40.783-284.659-42.2-286.655-42.2Zm16.547.026c-.315.368.919,2.127,2.233,2.127a1.9,1.9,0,0,0,.919-.341c.841-.473,6.3-2.81,7.8-2.81.052,0,.158,0,.158.053a4.711,4.711,0,0,1-.63.552c-3.808,3.388-3.835,8.956-3.835,10.112,0,1.234,0,5.621,5.384,5.621.158,0,3.047,0,3.047-1.392,0-.63-.5-.972-1.313-.972-.21,0-2.1.158-2.5.158-1.55,0-3.2-.289-3.2-4.7,0-6.776,3.729-9.849,7.065-9.849.315,0,1.812.289,2.154.289a1.043,1.043,0,0,0,1.051-.972c0-.893-1.182-1.261-2.1-1.261-1.76,0-7.748,1.707-10.086,2.364-3.6,1.024-3.992,1.129-5.122,1.129C-269.216-42.07-270-42.306-270.109-42.175Zm40.132-2.311c7.17,0,7.275,6.251,7.275,7.275,0,6.54-5.7,8.8-8.431,9.875-.657.263-.709.289-.709.368,0,.158.158.184.263.184a16.144,16.144,0,0,0,4.36-.972A9.8,9.8,0,0,0-220.6-37a8.232,8.232,0,0,0-4.57-7.643,8.556,8.556,0,0,0-4.229-.84,10.866,10.866,0,0,0-8.378,3.414,9.252,9.252,0,0,0-2.915,6.7c0,3.2,1.55,5.91,3.283,5.91,1.051,0,2.39-.63,4.491-3.835,2.311-3.493,2.705-5.936,2.705-7.7a20.136,20.136,0,0,0-.263-2.837c0-.105-.053-.21-.053-.289C-230.528-44.276-230.5-44.486-229.977-44.486Zm-1.471.079c.341,0,.446.131.446,1.707a15.023,15.023,0,0,1-2.574,7.643c-1.812,2.731-2.443,3.047-3.2,3.047-1.6,0-2.285-2.338-2.285-4.045C-239.064-41.019-233.942-44.407-231.447-44.407Zm33.33,10.506c-.184,0-.63,0-.762-.315a7.084,7.084,0,0,1-.053-1.655c0-1.891,0-2.1.473-2.39.236-.158.525-.368.525-.709,0-.21-.105-.341-.447-.446a15.848,15.848,0,0,0-2.81-.6c-.131,0-.341.026-.341.184a6.842,6.842,0,0,0,.42.893c.184.578.263,1.182.263,4.307,0,.735-.079,6.881-.131,7.065a.644.644,0,0,1-.709.5h-2.626c-.21,0-.63,0-.788-.315a20.423,20.423,0,0,1-.079-2.285c0-.6,0-3.414.079-3.782a.758.758,0,0,1,.341-.5c.341-.263.5-.368.5-.63,0-.6-2.705-1.024-2.758-1.024a.27.27,0,0,0-.315.289c0,.184.263,1.051.289,1.234.026.578.053,3.414.053,4.1,0,2.626,0,2.915-.788,2.915-.263,0-2.18-.053-2.784-.079-.158-.026-1-.105-1.182-.105-.079,0-.1.026-.1.053a.334.334,0,0,0,.1.184l.525.6c.079.105.131.158.21.158.105,0,.473-.053.578-.053.919-.079,2.705-.079,3.309-.079h16.888c.867,0,1.418,0,1.418-.341a7,7,0,0,0-2.285-1.891c-.289,0-1.182,1.156-1.418,1.366-.21.184-.341.184-1.418.184h-4.15c-.236,0-.6,0-.762-.315-.053-.131-.053-1.55-.053-2.338,0-.368-.053-2.18-.053-2.6,0-.6.131-.893.841-.893h4.728c1.234,0,1.392,0,1.392-.341a5.2,5.2,0,0,0-2.1-1.865c-.236,0-.315.105-.814.972-.341.552-.552.552-1.628.552Zm-2.022-12.371c.236,0,.447.315.525.473,3.6,6.356,8.746,9.114,9.271,9.114a.439.439,0,0,0,.341-.184,3.755,3.755,0,0,1,1.445-1.261,8.5,8.5,0,0,0,.972-.473c0-.053-.447-.158-.578-.184a18.537,18.537,0,0,1-6.986-3.362c-1.917-1.5-4.071-4.018-4.071-4.386,0-.105.236-.552.236-.657,0-.263-.236-.446-.735-.657a9.769,9.769,0,0,0-2-.735c-.184,0-.263.053-.341.552-.131,1.077-3.94,7.065-9.508,11.215-.079.053-1.051.788-1.051.814a.113.113,0,0,0,.105.105c.788,0,7.643-3.887,11.478-9.455C-200.481-46.167-200.4-46.272-200.14-46.272Zm40.369,14.393c.867,0,1.392,0,1.392-.368,0-.447-2-1.733-2.259-1.733-.315,0-1.208,1.208-1.445,1.313a5.025,5.025,0,0,1-1.287.079H-168.7c-.63,0-.63-.341-.63-.657,0-1.208,0-1.418.657-1.418h5.752c.84,0,1.313,0,1.313-.42s-1.576-1.707-2.022-1.707c-.289,0-.368.105-1.129,1-.368.42-.5.42-1.655.42h-2.18c-.735,0-.735-.368-.735-1.051,0-1.024,0-1.339.788-1.339h7.328c1.208,0,1.339,0,1.339-.341,0-.42-1.891-1.733-2-1.733-.263,0-1,1.024-1.182,1.182-.21.184-.341.184-1.418.184h-2.364c-.184,0-.5,0-.5-.236,0-.341,1.156-1.392,1.76-1.733.368-.184.473-.263.473-.446,0-.263-.105-.315-.972-.814-.525-.315-.578-.341-.578-.446,0-.131.184-.131.289-.131h6.015c.893,0,1.418,0,1.418-.368a6.966,6.966,0,0,0-2.259-1.681c-.236,0-1,1-1.182,1.129-.263.21-.525.236-1.523.236h-1.287c-.1,0-.315-.026-.315-.158a11.961,11.961,0,0,1,2.259-1.655,11.6,11.6,0,0,1,1.077-.683c.552-.21.6-.21.6-.394,0-.5-1.944-1.55-2-1.55-.131,0-.158.053-.447.735-.42.972-2.311,3.7-2.784,3.7-.236,0-.263-.21-.263-.394-.026-1.339-.053-1.471-.053-2.968a1.09,1.09,0,0,1,.289-.919c.236-.315.289-.368.289-.473,0-.236-.263-.42-.42-.473a10.858,10.858,0,0,0-1.812-.473c-.184,0-.263.158-.263.368a4.364,4.364,0,0,0,.079.578c.026.473.079,1.786.079,2.5,0,2.049,0,2.259-.762,2.259h-.946c-.735,0-.788,0-.788-3.519,0-.578.053-.788.236-1a.929.929,0,0,0,.263-.42c0-.578-2.127-.735-2.18-.735-.158,0-.263,0-.263.315,0,.263.158,1.366.184,1.6.026.709.053,2.574.053,3.047,0,.236,0,.709-.578.709h-.788c-.079,0-.289,0-.289-.21a.551.551,0,0,1,.131-.368,1.376,1.376,0,0,0,.184-.657c0-1.707-2.837-2.469-3.493-2.469-.158,0-.263.105-.263.184,0,0,.919.893,1.077,1.077a6.908,6.908,0,0,1,1.051,2.127c0,.315-.158.315-.552.315-1.5,0-2.863-.079-3.624-.105-.184,0-.972-.079-1.156-.079-.026,0-.079,0-.079.053s0,.053.105.184l.525.6c.079.105.131.158.21.158.105,0,.473-.053.578-.053.5-.053,2.259-.079,3.309-.079h.657c.5,0,.841.053,1.366.919a11.175,11.175,0,0,1,1.077,2.679c0,.21-.158.21-.289.21h-.972c-1.471,0-2.837-.053-3.6-.079-.184,0-1-.105-1.156-.105a.084.084,0,0,0-.079.079c0,.026,0,.026.105.158l.5.6c.105.131.158.184.236.184s.473-.053.552-.053c.919-.079,2.705-.079,3.336-.079h3.178c.683,0,.683.552.683,1.1,0,.972,0,1.287-.762,1.287h-1.655c-1.182,0-2.863-.053-3.6-.079-.184,0-1-.105-1.156-.105-.053,0-.105.026-.105.079,0,.026,0,.026.105.158l.525.63c.105.105.131.158.236.158.079,0,.63-.079.709-.079.578-.053,2.18-.053,3.152-.053h1.891c.63,0,.657.315.657.6,0,1.234,0,1.471-.552,1.471h-5.148c-1.1,0-2.863-.053-3.624-.079-.184,0-.972-.105-1.156-.105a.084.084,0,0,0-.079.079c0,.026,0,.026.105.158l.5.6c.105.131.158.184.236.184.105,0,.63-.079.709-.079.683-.053,2.311-.053,3.178-.053h3.467c.184,0,.447,0,.447.263,0,.525-4.15,4.176-8.667,6.172-.026.026-.552.263-.552.341,0,.105.131.131.184.131A26.173,26.173,0,0,0-171.984-29.8a2.764,2.764,0,0,1,.63-.394c.21,0,.21.236.21.341,0,.683,0,1.523-.026,2.206-.026.394-.158,2.364-.158,2.416,0,.578.263.657.578.657a1.645,1.645,0,0,0,1.182-.525c.263-.289.263-.5.263-1.445,0-.552-.026-2.968-.026-3.467,0-.158-.026-.946-.026-1.051,0-.079.026-.315.236-.315.131,0,.158.053.762.788a17.013,17.013,0,0,0,7.223,5.253,7.54,7.54,0,0,0,1.287.446c.079,0,.263-.315.341-.5a2.512,2.512,0,0,1,1.418-1.313c.42-.105.552-.131.552-.289s-.079-.158-.709-.236a18.947,18.947,0,0,1-8.9-3.467c-.84-.63-.945-.683-.945-.919,0-.263.289-.263.657-.263Zm-8.221-10.4c.446,0,.552.079.552.341a8.9,8.9,0,0,1-.5,2.39c-.289.867-.446,1.077-1.208,1.077h-2.915c-.105,0-.289,0-.289-.131a.5.5,0,0,1,.053-.21,1.567,1.567,0,0,0,.184-.683c0-.578-.341-1.287-1.6-2.206-.105-.053-.552-.368-.552-.446,0-.131.158-.131.21-.131Zm33.7,11.661c.473-.236,1.839.867,2.6,1.786.63.788.709.893,1.024.893a1.033,1.033,0,0,0,.946-1.051c0-1.55-2.758-2.784-4.045-3.336-.657-.289-.735-.473-.841-1.445-.079-.709-.263-3.677-.263-4.255,0-1.129,0-1.156.972-1.576s2.731-1.182,2.731-2.416c0-1.1-.867-1.129-2.022-1.182-.158,0-1.523-.053-1.523-.84a1.138,1.138,0,0,1,.158-.552c.263-.42.289-.473.289-.657,0-1-1.76-1.366-2.285-1.366-.552,0-.893.289-.893.447,0,.184.709.762.814.893.5.6.5,1.339.5,2.994,0,1.733,0,1.733-1.445,1.733a7.86,7.86,0,0,1-2.942-.525,4.572,4.572,0,0,0-.709-.368c-.105,0-.131.105-.131.184,0,.263.919,2.338,3.887,2.338a8.71,8.71,0,0,1,1.208.053.873.873,0,0,1,.21.63c.026.735.105,3.519.105,3.677,0,1.628,0,1.812-.657,1.812-5.384.079-5.384,2.863-5.384,3.231,0,1.55,1.523,2.626,3.283,2.626a4.331,4.331,0,0,0,3.913-2.5C-134.715-29.568-134.479-30.539-134.295-30.618Zm-.368-12.16a.559.559,0,0,1,.315-.105c.368,0,1.234.341,1.234.814,0,.6-1,.919-1.366.919-.184,0-.394,0-.394-1A.8.8,0,0,1-134.663-42.779Zm-3.441,11.4c1.681,0,2.049.21,2.049.657,0,.893-1.6,2.154-3.152,2.154-.919,0-1.733-.446-1.733-1.156C-140.94-30.487-139.6-31.38-138.1-31.38Zm-7.485.972c0-.762.735-4.544.735-5.384,0-.053,0-.236-.105-.236a13.227,13.227,0,0,0-1.077,2.626c-.473,1.445-.5,1.55-.735,1.55-.63,0-.63-1.681-.63-1.839a17.548,17.548,0,0,1,.945-5.279c.21-.657,1.366-3.887,1.366-4.1,0-.473-1.313-3.1-2.784-3.1-.158,0-.473.053-.473.21a5.275,5.275,0,0,0,.5.919,3.718,3.718,0,0,1,.6,2.18c0,.814-.053.946-.788,4.176a20.064,20.064,0,0,0-.683,5.148c0,4.071,1.313,6.7,2.627,6.7.6,0,.867-.5.867-1.077C-145.221-28.281-145.589-30.014-145.589-30.408Zm29.994,4.045c0-2.443-4.465-3.808-5.384-3.808-.21,0-.289.105-.289.184s.289.263.368.315a7.426,7.426,0,0,1,2.758,2.81c.867,1.576.972,1.76,1.523,1.76A1.262,1.262,0,0,0-115.594-26.363Zm-260.255,46.1c.5,0,.63.341.63.5.026.315.079.762.709.762,1.129,0,1.313-.972,1.313-1.576,0-.184-.184-3.6-.184-4.281a13.08,13.08,0,0,1,.131-2.416c.053-.053.368-.263.42-.315a.5.5,0,0,0,.236-.394c0-.473-1.471-1.733-1.865-1.733-.236,0-.341.184-.6.552a1.169,1.169,0,0,1-.919.446h-5.91a2.868,2.868,0,0,1-1.208-.263,4.578,4.578,0,0,0-1.681-.552c-.21,0-.21.079-.21.184,0,.158.184.814.21.946.079.473.079,4.754.079,5.8,0,.735,0,1.339-.026,1.681-.053.525-.105.972-.105,1.1,0,.473.079,1,.6,1a1.283,1.283,0,0,0,1.366-.972c0-.053.105-.473.893-.473Zm.026-7.774c.735,0,.735.21.735,1.97,0,.552,0,1.051-.735,1.051h-6.33c-.735,0-.735-.184-.735-1.944,0-.578,0-1.077.735-1.077Zm-.053,3.73c.762,0,.788.5.788.814,0,2.311,0,2.521-.814,2.521h-6.146a.672.672,0,0,1-.683-.289,14.363,14.363,0,0,1-.158-2.416c0-.63.63-.63.762-.63Zm-2.915-10.847c.105.105.158.184.236.184.105,0,.945-.105,1.1-.105a.417.417,0,0,1,.394.446,13.059,13.059,0,0,1-.341,1.471,8.576,8.576,0,0,1-1.865,3.257c-.053.053-.42.525-.289.525.079,0,.131,0,.578-.315a7.425,7.425,0,0,0,3.309-4.938c.026-.079.052-.21.21-.21.21,0,.21.079.368.84.394,2.1,3.02,4.964,3.467,4.964a1.234,1.234,0,0,0,.315-.236,2.942,2.942,0,0,1,1.129-.63,5.733,5.733,0,0,0,1.1-.315c0-.053-1.261-.6-1.5-.735-3.073-1.523-4.176-3.572-4.176-3.808s.158-.341.394-.341h2.732c.919,0,1.418,0,1.418-.394a3.124,3.124,0,0,0-1.55-1.523c-.236,0-.945,1.024-1.182,1.129a13.769,13.769,0,0,1-1.891.079.544.544,0,0,1-.525-.525c0-.289.158-1.261.21-1.628a.657.657,0,0,1,.735-.552h2.285c.919,0,1.418,0,1.418-.368A3.024,3.024,0,0,0-372.251-.4c-.236,0-.919,1.024-1.156,1.129A3.462,3.462,0,0,1-374.484.8a.529.529,0,0,1-.5-.552,13.85,13.85,0,0,1,.1-1.445c.026-.131.525-.735.525-.919,0-.447-2.232-.762-2.364-.762-.184,0-.289.053-.289.236s.184,1,.21,1.182c.053.447.105,1.261.105,1.707a.516.516,0,0,1-.5.5c-.341,0-2.022-.131-2.416-.131-.053,0-.079.026-.079.053,0,.053,0,.079.105.184l.5.6c.1.105.158.158.236.158.184,0,1.392-.105,1.6-.105a.573.573,0,0,1,.552.552c0,.053-.079,1.392-.131,1.628a.557.557,0,0,1-.552.447c-.289,0-1.76-.131-1.944-.131a.07.07,0,0,0-.079.079c0,.026,0,.053.105.158Zm-2.285,0c.919,0,1.418,0,1.418-.368,0-.42-1.182-1.523-1.523-1.523-.184,0-.236.079-.762.762a.847.847,0,0,1-.6.394.354.354,0,0,1-.341-.368c0-.053.236-1.917.236-1.944a.573.573,0,0,1,.63-.394h.788c.893,0,1.392,0,1.392-.368C-379.842.646-381-.4-381.286-.4c-.131,0-.289.053-.683.709-.105.158-.21.263-.341.263-.184,0-.21-.105-.21-.263a5.973,5.973,0,0,1,.158-1.55c.053-.131.552-.63.552-.788,0-.683-2.154-.84-2.6-.84-.158,0-.263.131-.263.315s.236.946.263,1.129c.053.341.131,1.182.131,1.5a.6.6,0,0,1-.552.6c-.394,0-2.075-.158-2.416-.158-.053,0-.105.026-.105.079,0,.026.026.053.131.158l.5.6c.079.105.131.184.236.184s1.471-.131,1.734-.131a.511.511,0,0,1,.473.5c0,.63-.105,1.707-.105,1.707a.661.661,0,0,1-.657.5c-.394,0-2.127-.131-2.469-.131-.052,0-.105,0-.105.053,0,.026.026.053.105.158l.525.6c.079.131.131.184.236.184s1.445-.105,1.681-.105a.415.415,0,0,1,.368.446,11.9,11.9,0,0,1-2.364,4.78c-.158.184-.919,1.077-.919,1.129,0,.026.053.026.079.026a11.368,11.368,0,0,0,4.124-4.36c.289-.63.315-.657.5-.657.394,0,1.024.893,1.339,1.576.762,1.733.867,1.917,1.339,1.917s.63-.578.63-1.024c0-1.523-1.5-2.311-2.731-2.679-.394-.131-.578-.184-.578-.42a.712.712,0,0,1,.762-.762Zm-9.14-6.514a4.51,4.51,0,0,0-1.628-.5c-.079,0-.131,0-.131.053a2.618,2.618,0,0,0,.315.5A12.364,12.364,0,0,1-390.3.988c.263.709.473.84.867.84.525,0,.919-.42.919-1.129A2.864,2.864,0,0,0-390.216-1.665Zm-1.313,6.356a7.114,7.114,0,0,0-2.1-.814c-.026,0-.053.026-.053.079a3.13,3.13,0,0,0,.236.394,13.1,13.1,0,0,1,1.34,2.206c.394.919.6,1.445,1.1,1.445.184,0,.867-.131.867-1.129A2.59,2.59,0,0,0-391.529,4.691Zm3.336,1.917c-.709,1.392-1.786,3.6-2.469,4.964-.762,1.523-1.628,2.705-2.705,2.942-.263.053-.394.105-.394.184s.368.184.446.21c1,.263,1.839.525,1.839,2.837,0,.184-.052,1.051-.052,1.261,0,.42,0,1.839,1.208,1.839a1.418,1.418,0,0,0,1.287-1.445,5.61,5.61,0,0,0-.236-1.392,10.2,10.2,0,0,1-.683-3.1c0-1.55,2.574-8.615,2.574-9.324,0-.131-.053-.184-.131-.184-.105,0-.21.184-.236.263C-387.826,5.794-388.115,6.451-388.194,6.608Zm46.725-3.231c.893,0,1.418,0,1.418-.394,0-.315-2.311-1.733-2.469-1.733-.236,0-.315.105-1.05.972-.394.446-.5.446-1.681.446h-6.409c-.131,0-.578,0-.578-.368a15.033,15.033,0,0,1,1.392-2.994c.105-.105.735-.5.735-.657,0-.394-2.548-1.313-2.837-1.313-.105,0-.236.026-.236.184,0,.053.105.263.105.315a26.662,26.662,0,0,1-1.234,4.045c-.368.788-.735.788-1.523.788h-1.944c-1.234,0-2.338-.026-3.625-.079-.158-.026-.972-.105-1.156-.105a.07.07,0,0,0-.079.079.4.4,0,0,0,.105.158l.5.6c.079.105.158.184.236.184a3.982,3.982,0,0,0,.552-.079c.263-.026,1.024-.053,3.336-.053h1.891c.473,0,.788.053.788.5A22.721,22.721,0,0,1-357.6,8.6c-.105.158-.158.158-.447.158-.21,0-.21.079-.21.6,0,.709-2.6,3.651-3.572,4.728-.368.394-.893,1-1.129,1.234,0,.053.026.079.105.079.552,0,3.782-2.837,4.176-3.336a.434.434,0,0,1,.341-.21c.315,0,.368.131.368,2.915,0,1.024,0,3.441-.053,4.334,0,.263-.079,1.129-.079,1.287a.561.561,0,0,0,.63.6,1.192,1.192,0,0,0,1.34-1.129,5.658,5.658,0,0,0-.053-.735c-.079-1.024-.131-2.626-.131-3.887,0-.683,0-4.36.131-4.7.053-.105.5-.473.5-.6,0-.184-.131-.236-.473-.446a.23.23,0,0,1-.158-.236.349.349,0,0,1,.079-.184,28.4,28.4,0,0,0,2.39-3.966c.84-1.576.945-1.733,1.944-1.733Zm-.867,7.59c.893,0,1.418,0,1.418-.368,0-.315-2.285-1.733-2.469-1.733-.236,0-.315.105-1.051.972-.368.446-.5.446-1.681.446h-.473c-.263,0-.762,0-.814-.578V6.714c0-.657.053-1.1.447-1.366.315-.184.368-.21.368-.315,0-.184-.184-.263-.368-.315a17.976,17.976,0,0,0-2.206-.473c-.158,0-.184.105-.184.263,0,.079.184,4.045.184,4.806,0,.919-.315.972-.919.972-.5,0-2.521-.079-2.863-.079-.158-.026-1-.105-1.182-.105-.052,0-.105.026-.105.053,0,.053.079.105.131.184l.5.6c.079.105.131.158.236.158.053,0,.683-.053.788-.053.893-.053,1.812-.079,2.732-.079a.662.662,0,0,1,.63.315,36.448,36.448,0,0,1,.131,3.94,19.612,19.612,0,0,1-.184,3.6c-.131.236-.341.263-.709.263-1.156,0-1.917,0-4.018-.079-.158,0-.972-.105-1.156-.105-.053,0-.105.026-.105.079,0,.026.079.105.131.158l.5.6c.079.105.131.184.236.184a4.642,4.642,0,0,0,.552-.079c.263,0,1.024-.053,3.309-.053h9.14c.893,0,1.418,0,1.418-.368,0-.341-2.285-1.733-2.469-1.733-.236,0-.315.079-1.051.972-.368.42-.5.42-1.681.42h-1.392c-.762,0-.788-.158-.788-1.077,0-.893-.079-5.305-.079-6.3,0-.735.5-.735.84-.735Zm13.552-.735c-.84,0-.84-.341-.84-1.208,0-1.077,0-1.392.788-1.392h3.572c.735,0,.735.42.735,1.051,0,1.5-.053,1.55-.841,1.55Zm3.414,3.966c.814,0,.814.236.814,1.707,0,2.81,0,2.968-.84,2.968-.21,0-1.208-.105-1.418-.105a.176.176,0,0,0-.184.158c0,.184.841.525.946.63a2.031,2.031,0,0,1,.762,1.051c.079.236.131.368.315.368a2.258,2.258,0,0,0,2.18-2.521c0-.814-.105-4.465-.105-5.227,0-.63.053-3.94.053-3.966a2.881,2.881,0,0,1,.079-.919c.052-.131.525-.683.525-.814,0-.446-1.392-1.392-1.523-1.392-.105,0-.5.42-.683.578a.941.941,0,0,1-.735.21h-3.73a2.081,2.081,0,0,1-1.024-.236c-1.051-.552-1.156-.6-1.418-.6-.079,0-.184.026-.184.158,0,.315.158,1.681.158,2.022.026.42.053,1.681.053,3.835,0,2.285-.026,4.623-.131,6.461,0,.263-.079,1.418-.079,1.655,0,.263.026.657.63.657,1.34,0,1.34-1.261,1.34-1.786v-4.2c0-.683.5-.683.762-.683Zm-3.414-.709c-.814,0-.814-.315-.814-1.339,0-.814,0-1.208.814-1.208h3.414c.814,0,.814.21.814,1.733,0,.788-.394.814-.814.814Zm5.174-10.874c0,.21-.105.21-.972.289-1.024.079-2.758.105-3.808.105-.184,0-.473,0-.473-.236a28.6,28.6,0,0,1,1.891-3.309c.105-.158.945-.683.945-.893,0-.315-.368-.446-.919-.657-.236-.079-1.471-.63-1.6-.63s-.131.053-.131.5a15.388,15.388,0,0,1-1.1,4.307c-.263.683-.368.919-.893.919-.236,0-1.366-.184-1.628-.184s-.394.105-.394.394c0,.394.289,1.944.762,1.944a3.515,3.515,0,0,0,.6-.341c.026,0,1.445-.289,1.576-.315.972-.21,5.909-1.287,6.093-1.287.315,0,.341.158.446.42.315.893.5,1.392.946,1.392s.788-.525.788-1.129c0-1.891-2.942-3.7-3.309-3.7a.113.113,0,0,0-.1.105A22.779,22.779,0,0,1-323.609,2.616Zm5.778,1c.052-.026.84-.315.972-.368A48.865,48.865,0,0,1-311.58,1.2c.552-.079.735-.184.735-.368A6.512,6.512,0,0,0-312.71-.693c-.184,0-.84.762-1,.919a16.329,16.329,0,0,1-4.1,2.732c-.236,0-.236-.105-.236-1.051a19.928,19.928,0,0,1,.079-2.232c.052-.158.657-.683.657-.867,0-.525-2.285-.867-2.364-.867s-.21,0-.21.105c0,.131.079.735.079.867.026.6,0,3.6,0,4.255,0,4.36.263,5.122,4.518,5.122,1.655,0,5.437,0,5.437-1.733,0-.158-.158-.341-.341-.578a2.254,2.254,0,0,1-.446-1.024c-.053-.158-.053-1.182-.236-1.182-.105,0-.236.236-.289.368a8.551,8.551,0,0,1-.552,1.287c-.315.63-.578,1.208-3.493,1.208-2.837,0-2.837-.735-2.837-2.338A.892.892,0,0,1-317.831,3.614Zm6.934,9.061a6.08,6.08,0,0,0-1.917-1.523c-.236,0-.972.893-1.156,1.024a17.43,17.43,0,0,1-3.861,2.574c-.21,0-.21-.236-.21-.315a23.83,23.83,0,0,1,.158-3.388,7.671,7.671,0,0,0,.446-.709c0-.552-2.18-.814-2.232-.814-.105,0-.315,0-.315.131s.079.735.079.84c0,1.024-.026,5.568-.026,6.487.053,2.863.972,3.467,4.833,3.467,3.178,0,4.176-.105,4.964-.657a1.713,1.713,0,0,0,.893-1.234,10.837,10.837,0,0,0-.63-1.366,6.74,6.74,0,0,1-.368-1.681c-.026-.131-.079-.315-.184-.315-.131,0-.158.105-.341.735-.867,2.81-1.156,2.81-4.2,2.81-2.837,0-3.1-.315-3.1-2.39,0-.84.131-.893,1.182-1.234.84-.263,5.174-2.075,5.253-2.075C-311.108,12.965-310.9,12.886-310.9,12.676Zm26.5-8.4c.84,0,.84.368.84,1a81.1,81.1,0,0,1-.578,9.928c-.341,2.338-.788,3.125-2.232,3.125a16.192,16.192,0,0,1-1.917-.21c-.158-.026-.893-.21-.972-.21a.147.147,0,0,0-.158.131c0,.105.052.158.657.5,1.812,1.051,2,1.156,2,1.97,0,.394,0,.6.473.6a4.255,4.255,0,0,0,3.125-2.049c1.208-2.154,1.366-7.564,1.6-13.605a1.012,1.012,0,0,1,.315-.788c.368-.315.473-.394.473-.63,0-.447-1.681-1.418-2-1.418-.158,0-.236.079-.552.552-.236.341-.473.394-.945.394h-5.752c-.788,0-.814-.341-.814-1.182,0-.42.184-2.443.21-2.889.026-.42.105-.657.42-.814.552-.236.6-.263.6-.5,0-.63-2.942-.946-3.2-.946-.21,0-.263.026-.263.263,0,.131.079.735.079.867.026.289.158,2.285.158,3.283,0,1.655-.079,1.917-.84,1.917h-2.994c-1.234,0-2.311-.026-3.6-.079-.158-.026-.972-.105-1.156-.105a.07.07,0,0,0-.079.079c0,.026,0,.053.105.158l.5.6c.105.105.131.184.236.184a3.984,3.984,0,0,0,.552-.079c.263,0,1.024-.053,3.309-.053h3.1c.709,0,.735.42.735.735a34.144,34.144,0,0,1-.867,6.382,14.637,14.637,0,0,1-6.908,9.271c-.552.315-.6.341-.6.446s.079.158.184.158a14.966,14.966,0,0,0,4.806-2.521c3.414-2.626,4.78-6.356,5.358-13.027.1-1.261.1-1.445.919-1.445Zm16.573,7.722c.84,0,1.129-.63,1.418-1.287.683-1.576,2.232-2.784,3.23-2.784,1.051,0,1.261,1.471,1.261,2.653a1.119,1.119,0,0,1-.394.919c-2.469,2-3.467,2.837-3.467,4.517,0,2.075,1.76,3.441,5.1,3.441.63,0,4.7-.105,4.7-1.733,0-.63-.735-.893-1.287-.893-.341,0-2.022.42-2.39.473a8.128,8.128,0,0,1-1.681.158c-.762,0-3.388,0-3.388-1.812,0-1.5,2.338-3.125,2.548-3.125.184,0,.184.21.184.315,0,.026-.079,1.287-.079,1.55,0,.473.105,1.339.814,1.339.972,0,.972-1.5.972-1.917,0-.236-.052-1.339-.052-1.576,0-.552.026-.84.446-1.1.473-.289,3.441-1.471,4.1-1.76,1.628-.709,3.7-1.576,3.7-2.81a2.478,2.478,0,0,0-2.469-2.338c-2.285,0-3.992,2.39-4.859,3.6A12.335,12.335,0,0,1-260.5,9.235c-.053,0-.079-.053-.263-.5a2.369,2.369,0,0,0-2.232-1.6,2.454,2.454,0,0,0-1.024.21,5.248,5.248,0,0,1-.814.289.1.1,0,0,1-.105-.105c0-.105.053-.184.184-.42a20.365,20.365,0,0,0,1.418-2.837c.578-1.339.6-1.392,1-1.55,1.208-.473,3.125-1.208,3.125-2.075,0-.552-1-.683-1.182-.683-1.051-.079-1.156-.131-1.182-.473-.053-.578-.709-.814-1.339-.814-.473,0-1.156.21-1.156.42,0,.158.552.63.63.762a2.106,2.106,0,0,1,.21.919c0,.525,0,1.234-2.154,1.234a4.174,4.174,0,0,1-1.733-.473,5.9,5.9,0,0,0-1-.5c-.158,0-.158.105-.158.184a2.787,2.787,0,0,0,2.338,2.311c.236,0,1.313-.21,1.576-.21.105,0,.289.026.289.184A12.085,12.085,0,0,1-266.3,7.423c-1.786,2.075-2.521,2.915-2.521,3.7C-268.822,11.835-268.323,11.993-267.824,11.993Zm5.647-10.979c0-.105.105-.84.473-.84.236,0,.893.053.893.394,0,.289-1.261.63-1.313.63S-262.177,1.119-262.177,1.014Zm6.881,4.2a.808.808,0,0,1,.919.788c0,1.733-5.174,3.835-5.253,3.835s-.105-.079-.105-.131C-259.734,9.287-257.475,5.216-255.3,5.216Zm17.65,11.583c.263,0,.683,0,.762.6.053.315.079.657.709.657a1.689,1.689,0,0,0,1.051-.394c.184-.158.21-.341.21-.735,0-2.259-.158-12.292-.158-14.314,0-2.154.053-2.206.447-2.443.289-.158.394-.236.394-.368,0-.21-.131-.341-.42-.5-.21-.131-1.156-.919-1.418-.919-.236,0-.368.236-.552.525-.315.5-.63.5-1.129.5h-.84a2.109,2.109,0,0,1-1.366-.394c-.683-.447-.946-.63-1.234-.63-.158,0-.158.184-.158.263,0,.184.131.972.158,1.129.131,1.208.131,3.651.131,4.911,0,3.336-.105,9.14-.263,12.633,0,.315-.158,1.681-.158,1.97,0,.263.079.657.762.657,1.339,0,1.339-1.024,1.339-1.523,0-1.418,0-1.628.814-1.628Zm.105-10.926a.773.773,0,0,1,.6.21c.184.184.184.368.184,2.311,0,2.548,0,2.574-.788,2.574h-1.129c-.814,0-.814-.184-.814-2.521,0-2.548,0-2.574.788-2.574Zm.026-5.778c.788,0,.788.236.788,2.154,0,2.915,0,2.942-.788,2.942H-238.7c-.814,0-.814-.315-.814-1.812a13.972,13.972,0,0,1,.079-2.915A.746.746,0,0,1-238.7.095Zm-.026,11.556a.659.659,0,0,1,.762.709c0,1.129,0,3.178-.079,3.388a.669.669,0,0,1-.709.368h-1.051c-.841,0-.841-.21-.841-2.863,0-1.234,0-1.6.814-1.6Zm17.65-1.6c1.261,0,1.392,0,1.392-.315,0-.473-2.18-2.18-2.5-2.18s-.394.131-1,1.234c-.315.552-.446.578-1.576.578h-.84a.814.814,0,0,1-.972-.735c-.079-.394-.236-2.758-.236-2.968,0-.473.131-.788.788-.788h1.628c.184,0,.683,0,.762.446.079.394.131.63.525.63a1.417,1.417,0,0,0,1.523-1.339c0-.236-.079-1.208-.105-1.418-.053-1-.053-1.891-.053-2.18,0-.972,0-1.1.315-1.261.42-.236.473-.263.473-.446,0-.341-1.786-1.55-1.97-1.55-.236,0-.893.788-1.051.919a1.547,1.547,0,0,1-1.077.263h-5.568a3.738,3.738,0,0,1-1.917-.394c-1.1-.578-1.156-.6-1.471-.6-.184,0-.184.158-.184.236,0,.21.184,1.024.184,1.182.079.946.184,9.639.184,10.033s-.052,7.906-.105,8.221a.527.527,0,0,1-.578.446,4.213,4.213,0,0,1-.762-.079,4.053,4.053,0,0,0-.446-.131c-.105,0-.131.053-.131.105,0,.026.788,2.1.84,2.232.263.657.289.709.525.709s.341-.105.657-.473.5-.446,2.1-1.129c.762-.315,4.124-1.76,4.806-2.049a4.367,4.367,0,0,1,.972-.289c.289,0,.446.21.762.6,1.6,1.97,3.782,3.388,4.754,3.388a.826.826,0,0,0,.867-.867c0-.315-.053-.394-.368-1a2.937,2.937,0,0,1-.184-1.051c0-.42.6-3.519.6-3.861,0-.053,0-.131-.053-.131A23.157,23.157,0,0,0-219.5,16.09c-.788,1.55-.867,1.707-1.261,1.707-.525,0-2.6-1.55-3.7-4.57a14.207,14.207,0,0,1-.709-2.705c0-.473.447-.473.867-.473Zm-8.273-5.174c.341,0,.6.079.709.42.026.105.315,3.1.315,3.362,0,.709-.368.709-.735.709h-2.364c-.368,0-.683-.053-.762-.473-.052-.184-.052-2.626-.052-3.047,0-.63,0-.972.867-.972ZM-223.2-.378c.814,0,.814.184.814,1.917,0,2.39,0,2.653-.841,2.653h-7.039c-.788,0-.788-.341-.788-1.681a20.832,20.832,0,0,1,.079-2.521c.105-.315.473-.368.709-.368Zm-4.728,10.427c.709,0,.919.21,1.051.735a20.547,20.547,0,0,0,1.392,4.386c.341.657.394.84.394,1,0,.21-.158.368-.867.525-.762.184-4.176,1-4.544,1-.525,0-.525-.184-.525-1.944V10.89c0-.552.105-.84.84-.84ZM-201.69-1.56c-.079.079,0,.236.053.341a1.934,1.934,0,0,1,.447,1.182c0,.762-.63,1.024-2.1,1.628a3.229,3.229,0,0,0-2.39,3.152c-.079.972-.709,5.8-.709,6.908,0,2.022.893,3.283,2,3.283.893,0,1.182-.446,2.39-2.154a3.989,3.989,0,0,1,3.414-1.97,2.739,2.739,0,0,1,2.915,2.915c0,2.469-2.469,4.544-5.752,5.279-.184.053-.762.184-.762.315,0,.21.368.21.709.21,3.808,0,7.984-2.127,7.984-5.332,0-2.154-2-4.124-4.806-4.124-1.681,0-2.679.63-4.281,1.681a3.864,3.864,0,0,1-1.523.63c-.657,0-.683-.814-.683-1.208,0-.657.21-2.889.341-3.861.052-.368.315-1.917.315-2.154s-.184-1.366-.184-1.6a1.749,1.749,0,0,1,1.865-1.733,3.6,3.6,0,0,1,1.234.263,4.759,4.759,0,0,0,1.55.447,1.291,1.291,0,0,0,1.34-1.261C-198.328-.194-201.506-1.717-201.69-1.56Zm36.9,3.047A2.125,2.125,0,0,0-167.02-.352c-.131,0-.578.026-.578.289,0,.053.473.946.5.972a3.87,3.87,0,0,1,.315,1.812c0,.341-.052,1.6-.131,2.127-.105.552-.289.578-1.917.84-.683.105-3.992.84-4.176.84-.341,0-.341-.21-.341-.762a14.483,14.483,0,0,1,.131-2.022,5.379,5.379,0,0,0,.131-.814c0-.919-1.628-1.655-2.259-1.655-.315,0-.762.131-.762.368,0,.105.525,1.024.6,1.234a6.4,6.4,0,0,1,.42,2.758c0,.972-.026,1.208-.446,1.339a12.3,12.3,0,0,1-3.336.368c-.236,0-1.339-.105-1.6-.105-.236,0-.341.026-.341.368,0,1.445,2.127,1.944,2.705,1.944.394,0,2.206-.814,2.653-.814.473,0,.473.263.473,2.469,0,4.99,0,7.091,7.512,7.091.6,0,2.994,0,2.994-1.234a1.367,1.367,0,0,0-1.418-1.129,8.291,8.291,0,0,0-1.261.184,11.83,11.83,0,0,1-2.311.21c-3.677,0-4.15-1.234-4.15-3.7,0-.079.052-2.469.079-3.336a2.112,2.112,0,0,1,.236-1.077c.341-.578,5.1-1.628,5.647-1.628.394,0,.394.131.394.341a11.668,11.668,0,0,1-.762,2.994.946.946,0,0,1-.893.683c-.236,0-1.418-.473-1.707-.473-.052,0-.131,0-.131.053a3.145,3.145,0,0,0,.341.552,9.543,9.543,0,0,1,.5,1.156c.236.762.341,1.051,1.234,1.051.945,0,2.364-1.339,2.863-5.227.158-1.366.184-1.418,1.707-1.418.473,0,2.758.289,3.283.289s1.287-.184,1.287-.867c0-.525-.394-.946-2.049-1.418a14.15,14.15,0,0,0-1.891-.473c-.053,0-.21,0-.21.105a.216.216,0,0,0,.105.158c.473.447.525.5.525.657,0,.289-.236.315-.814.368-.21,0-1.129.105-1.234.105-.079,0-.289,0-.289-.131,0-.158.026-.341.21-2.1C-165.156,2.748-164.788,1.539-164.788,1.487Zm15.5,2.075c-.315.368.919,2.127,2.233,2.127a1.9,1.9,0,0,0,.919-.341c.84-.473,6.3-2.81,7.8-2.81.052,0,.158,0,.158.053a4.7,4.7,0,0,1-.63.552c-3.808,3.388-3.835,8.956-3.835,10.112,0,1.234,0,5.621,5.384,5.621.158,0,3.047,0,3.047-1.392,0-.63-.5-.972-1.313-.972-.21,0-2.1.158-2.5.158-1.55,0-3.2-.289-3.2-4.7,0-6.776,3.73-9.849,7.065-9.849.315,0,1.812.289,2.154.289a1.043,1.043,0,0,0,1.051-.972c0-.893-1.182-1.261-2.1-1.261-1.76,0-7.748,1.707-10.086,2.364-3.6,1.024-3.992,1.129-5.122,1.129C-148.4,3.667-149.187,3.43-149.292,3.562Zm31.334-1.707c-.053,0-.158.026-.158.105a3.543,3.543,0,0,0,.21.893,7.3,7.3,0,0,1,.184,1.523c0,.683-.368,3.913-.368,4.649,0,5.017,3.309,7.774,4.99,7.774.446,0,1-.289,1-.814a6.579,6.579,0,0,0-.21-.867,3.547,3.547,0,0,1-.158-1.051,7.368,7.368,0,0,1,.341-2,3.16,3.16,0,0,0,.079-.525c0-.105-.053-.21-.131-.21-.21,0-.657.63-.814.893-.788,1.313-.893,1.445-1.339,1.445-.814,0-2.18-1.917-2.18-4.57a9.277,9.277,0,0,1,.63-3.388,3.6,3.6,0,0,0,.315-1.051C-115.568,3.956-116.75,1.855-117.958,1.855Zm12.528,2.416c-.131,0-.236.053-.236.131,0,.158,1.051.972,1.261,1.182,1.392,1.392,1.392,2.5,1.392,4.675,0,.341,0,1.76,1.287,1.76,1.261,0,1.313-1.234,1.313-1.733a6.537,6.537,0,0,0-2.338-5.017A5.112,5.112,0,0,0-105.43,4.271Zm28.55,12.554c-.368,0-.525-.236-.893-.709a3.878,3.878,0,0,0-2.994-1.681,2.528,2.528,0,0,0-2.6,2.127c0,1.313,1.865,2.705,4.465,2.705,3.336,0,6.566-2.338,6.566-5.673a5.669,5.669,0,0,0-5.91-5.463,6.353,6.353,0,0,0-2.311.42c-.158.053-.5.184-.657.236-.079,0-.158-.105-.158-.184a16.016,16.016,0,0,1,4.2-5.384c1.261-.867,1.865-1.287,1.865-2.049,0-1.156-1.707-1.812-2.758-1.812-.578,0-.762.079-2.39.788a12.735,12.735,0,0,1-4.071.946c-.552,0-.63,0-.63.079,0,.131.814,1.812,2.049,1.812.447,0,.814-.079,1.865-.946.446-.368,2-1.681,2.968-1.681.315,0,.5.184.5.368,0,.289-.368.84-1.234,2.075a86.521,86.521,0,0,1-5.936,7.906c-1.865,2.18-2.075,2.758-2.075,3.414a.724.724,0,0,0,.762.735c.709,0,.972-.5,1.5-1.392.473-.814,2.705-4.412,6.172-4.412a4.157,4.157,0,0,1,4.439,3.992C-74.149,15.223-75.988,16.825-76.881,16.825Zm-2.416.263a.435.435,0,0,1-.446.473c-1.129,0-2.259-.552-2.259-1.234a1.074,1.074,0,0,1,1.1-.919A1.787,1.787,0,0,1-79.3,17.088ZM-57.918,14.8a2.9,2.9,0,0,0-2.915,2.889,2.906,2.906,0,0,0,2.889,2.942A2.929,2.929,0,0,0-55,17.718,2.924,2.924,0,0,0-57.918,14.8Zm-.026.735a2.2,2.2,0,0,1,2.232,2.206,2.168,2.168,0,0,1-2.18,2.154A2.2,2.2,0,0,1-60.1,17.692,2.125,2.125,0,0,1-57.944,15.538Z" transform="translate(393.762 48.662)" fill="#fff"/>
</svg>
