<svg xmlns="http://www.w3.org/2000/svg" width="854" height="176.281" viewBox="0 0 854 176.281">
  <path id="パス_488" data-name="パス 488" d="M-236.906-30.719c-.2.066-.331.4-.331.662,0,2.715,5.5,5.5,6.952,5.5,1.126,0,5.959-2.317,7.085-2.648a82.008,82.008,0,0,1,11.719-2.648c1.324,0,1.324.4,1.324,3.973,0,3.377,0,3.774-1.854,4.039-6.423.993-6.423,8.276-6.423,9.137,0,5.3,3.178,8.674,6.754,8.674.2,0,1.192-.132,1.39-.132.662,0,.662.728.662.927,0,2.847-1.986,7.151-3.708,9.733-.464.662-3.178,3.84-3.178,3.973,0,.2.2.265.331.265,2.053,0,12.051-8.21,12.051-21.055a20.989,20.989,0,0,0-1.92-8.939,8.647,8.647,0,0,1-.861-4.3c0-5.827.132-6.754,1.059-7.151,1.258-.53,5.562-.662,7.151-.662,1.258,0,7.416.6,8.806.6,2.317,0,3.575-.6,3.575-2.317,0-2.317-2.913-2.582-3.774-2.582-.53,0-3.311.331-3.973.331a14.549,14.549,0,0,1-5.827-1.324c-3.906-1.655-5.827-2.648-5.827-4.171,0-.331.265-1.722.265-2.053,0-2.119-2.582-3.311-5.5-3.311-.4,0-1.39,0-1.39.463,0,.331,1.059,1.523,1.126,1.854a39.547,39.547,0,0,1,.927,9c0,1.722-.4,1.788-3.84,2.384-4.833.861-13.441,2.251-18.01,2.251C-233.066-30.255-236.244-30.652-236.906-30.719Zm31.252-7.747c.6-.132,5.032,2.98,5.032,3.509,0,.993-4.3,1.126-4.569,1.126-.927,0-1.192-.2-1.192-1.258C-206.383-36.81-206.118-38.333-205.654-38.465Zm-4.5,20.923a12.874,12.874,0,0,1,.861,4.635c0,1.059-.066,5.032-2.648,5.032-1.721,0-4.3-1.589-4.3-5.3,0-3.377,2.119-6.091,3.774-6.091A2.8,2.8,0,0,1-210.157-17.542Zm69.522-11.124c-2.317,0-3.575.463-9.137,4.9a25.665,25.665,0,0,1-10.793,5.1c-1.126.2-1.258.2-1.258.463,0,1.126,3.906,4.238,6.423,4.238a1.832,1.832,0,0,0,1.059-.331c.132-.066,4.966-4.635,5.429-5.1,5.429-5.3,6.025-5.893,8.21-5.893,1.059,0,2.185.861,3.708,2.317,1.457,1.39,8.541,8.541,10.13,10.064,9.733,9.27,15.692,9.667,16.421,9.667,1.854,0,2.45-2.119,2.45-2.516,0-1.92-2.781-3.443-5.827-4.767A58.571,58.571,0,0,1-132.358-23.3C-136.728-27.673-138.913-28.666-140.634-28.666Zm25.425-10.263c-1.192-.2-2.516,0-2.516.53,0,.132.066.4.728.795a16.008,16.008,0,0,1,5.165,4.5c.927,1.523,1.788,2.98,3.244,2.98a1.953,1.953,0,0,0,1.788-2.119C-106.8-35.155-110.044-38.2-115.209-38.929Zm-8.541,6.555c-.53,0-1.126.2-1.126.53,0,.265.6.795.861.993a20.376,20.376,0,0,1,4.37,4.3c1.788,2.516,2.384,3.112,3.377,3.112,1.192,0,2.053-1.589,2.053-2.516C-114.216-28.8-118.718-32.374-123.75-32.374Zm41.713.066c-.795.927,2.317,5.363,5.628,5.363a4.788,4.788,0,0,0,2.317-.861C-71.973-29-58.2-34.89-54.426-34.89c.132,0,.4,0,.4.132a11.865,11.865,0,0,1-1.589,1.39c-9.6,8.541-9.667,22.578-9.667,25.492,0,3.112,0,14.169,13.573,14.169.4,0,7.681,0,7.681-3.509,0-1.589-1.258-2.45-3.311-2.45-.53,0-5.3.4-6.29.4C-57.538.732-61.71,0-61.71-11.12c0-17.083,9.4-24.829,17.811-24.829.795,0,4.569.728,5.429.728a2.629,2.629,0,0,0,2.648-2.45c0-2.251-2.98-3.178-5.3-3.178-4.436,0-19.532,4.3-25.425,5.959-9.071,2.582-10.064,2.847-12.911,2.847C-79.786-32.043-81.772-32.639-82.037-32.308ZM19.135-38.134c18.076,0,18.341,15.758,18.341,18.341,0,16.487-14.368,22.181-21.254,24.9-1.655.662-1.788.728-1.788.927,0,.4.4.463.662.463a40.7,40.7,0,0,0,10.991-2.45A24.693,24.693,0,0,0,42.772-19.264c0-8.674-4.37-15.758-11.521-19.268-1.854-.927-4.635-2.119-10.66-2.119A27.4,27.4,0,0,0-.53-32.043c-6.621,6.687-7.35,13.375-7.35,16.884C-7.88-7.081-3.973-.261.4-.261c2.648,0,6.025-1.589,11.322-9.667,5.827-8.806,6.82-14.964,6.82-19.4a50.754,50.754,0,0,0-.662-7.151c0-.265-.132-.53-.132-.728C17.744-37.6,17.811-38.134,19.135-38.134Zm-3.708.2c.861,0,1.126.331,1.126,4.3,0,6.555-2.98,13.9-6.489,19.268C5.5-7.478,3.906-6.684,1.986-6.684c-4.039,0-5.76-5.893-5.76-10.2C-3.774-29.394,9.137-37.936,15.427-37.936ZM99.45-11.451c-.463,0-1.589,0-1.92-.795-.132-.4-.132-.728-.132-4.171,0-4.767,0-5.3,1.192-6.025.6-.4,1.324-.927,1.324-1.788,0-.53-.265-.861-1.126-1.126A39.958,39.958,0,0,0,91.7-26.878c-.331,0-.861.066-.861.463A17.238,17.238,0,0,0,91.9-24.164c.463,1.457.662,2.98.662,10.859,0,1.854-.2,17.347-.331,17.811a1.624,1.624,0,0,1-1.788,1.258H83.824c-.53,0-1.589,0-1.986-.795a51.487,51.487,0,0,1-.2-5.76c0-1.523,0-8.608.2-9.535a1.911,1.911,0,0,1,.861-1.258c.861-.662,1.258-.927,1.258-1.589,0-1.523-6.82-2.582-6.952-2.582a.682.682,0,0,0-.795.728c0,.463.662,2.648.728,3.112.066,1.457.132,8.608.132,10.329,0,6.621,0,7.35-1.986,7.35-.662,0-5.5-.132-7.018-.2-.4-.066-2.516-.265-2.98-.265-.2,0-.265.066-.265.132a.841.841,0,0,0,.265.463L66.41,7.419c.2.265.331.4.53.4.265,0,1.192-.132,1.457-.132,2.317-.2,6.82-.2,8.343-.2h42.574c2.185,0,3.575,0,3.575-.861,0-.728-4.966-4.767-5.76-4.767-.728,0-2.98,2.913-3.575,3.443-.53.463-.861.463-3.575.463H99.516c-.6,0-1.523,0-1.92-.795-.132-.331-.132-3.906-.132-5.893,0-.927-.132-5.5-.132-6.555,0-1.523.331-2.251,2.119-2.251h11.918c3.112,0,3.509,0,3.509-.861,0-.795-4.238-4.7-5.3-4.7-.6,0-.795.265-2.053,2.45-.861,1.39-1.39,1.39-4.105,1.39Zm-5.1-31.186c.6,0,1.126.795,1.324,1.192,9.071,16.023,22.049,22.976,23.373,22.976a1.106,1.106,0,0,0,.861-.463,9.467,9.467,0,0,1,3.642-3.178A21.433,21.433,0,0,0,126-23.3c0-.132-1.126-.4-1.457-.463a46.729,46.729,0,0,1-17.612-8.475C102.1-36.016,96.669-42.372,96.669-43.3c0-.265.6-1.39.6-1.655,0-.662-.6-1.126-1.854-1.655-4.039-1.589-4.5-1.854-5.032-1.854-.463,0-.662.132-.861,1.39-.331,2.715-9.932,17.811-23.969,28.272-.2.132-2.648,1.986-2.648,2.053a.285.285,0,0,0,.265.265c1.986,0,19.268-9.8,28.935-23.836C93.491-42.372,93.689-42.637,94.351-42.637ZM196.119-6.353c2.185,0,3.509,0,3.509-.927,0-1.126-5.032-4.37-5.694-4.37-.795,0-3.046,3.046-3.642,3.311a12.667,12.667,0,0,1-3.244.2H173.607c-1.589,0-1.589-.861-1.589-1.655,0-3.046,0-3.575,1.655-3.575h14.5c2.119,0,3.311,0,3.311-1.059s-3.973-4.3-5.1-4.3c-.728,0-.927.265-2.847,2.516-.927,1.059-1.258,1.059-4.171,1.059h-5.5c-1.854,0-1.854-.927-1.854-2.648,0-2.582,0-3.377,1.986-3.377h18.473c3.046,0,3.377,0,3.377-.861,0-1.059-4.767-4.37-5.032-4.37-.662,0-2.516,2.582-2.98,2.98-.53.463-.861.463-3.575.463h-5.959c-.463,0-1.258,0-1.258-.6,0-.861,2.913-3.509,4.436-4.37.927-.463,1.192-.662,1.192-1.126,0-.662-.265-.795-2.45-2.053-1.324-.795-1.457-.861-1.457-1.126,0-.331.463-.331.728-.331h15.163c2.251,0,3.575,0,3.575-.927,0-.662-4.966-4.238-5.694-4.238-.6,0-2.516,2.516-2.98,2.847-.662.53-1.324.6-3.84.6h-3.244c-.265,0-.795-.066-.795-.4,0-.6,5.032-3.774,5.694-4.171a29.233,29.233,0,0,1,2.715-1.722c1.39-.53,1.523-.53,1.523-.993,0-1.258-4.9-3.907-5.032-3.907-.331,0-.4.132-1.126,1.854-1.059,2.45-5.827,9.336-7.018,9.336-.6,0-.662-.53-.662-.993-.066-3.377-.132-3.708-.132-7.482a2.749,2.749,0,0,1,.728-2.317c.6-.795.728-.927.728-1.192,0-.6-.662-1.059-1.059-1.192-3.708-1.059-4.171-1.192-4.569-1.192-.463,0-.662.4-.662.927a10.994,10.994,0,0,0,.2,1.457c.066,1.192.2,4.5.2,6.29,0,5.165,0,5.694-1.92,5.694h-2.384c-1.854,0-1.986,0-1.986-8.872,0-1.457.132-1.986.6-2.516a2.343,2.343,0,0,0,.662-1.059c0-1.457-5.363-1.854-5.5-1.854-.4,0-.662,0-.662.795,0,.662.4,3.443.463,4.039.066,1.788.132,6.489.132,7.681,0,.6,0,1.788-1.457,1.788h-1.986c-.2,0-.728,0-.728-.53a1.389,1.389,0,0,1,.331-.927,3.469,3.469,0,0,0,.463-1.655c0-4.3-7.151-6.224-8.806-6.224-.4,0-.662.265-.662.463,0,0,2.317,2.251,2.715,2.715.927,1.258,2.648,4.436,2.648,5.363,0,.795-.4.795-1.39.795-3.774,0-7.217-.2-9.137-.265-.463,0-2.45-.2-2.913-.2-.066,0-.2,0-.2.132s0,.132.265.463l1.324,1.523c.2.265.331.4.53.4.265,0,1.192-.132,1.457-.132,1.258-.132,5.694-.2,8.343-.2h1.655c1.258,0,2.119.132,3.443,2.317.861,1.457,2.715,5.76,2.715,6.754,0,.53-.4.53-.728.53h-2.45c-3.708,0-7.151-.132-9.071-.2-.463,0-2.516-.265-2.913-.265a.211.211,0,0,0-.2.2c0,.066,0,.066.265.4l1.258,1.523c.265.331.4.463.6.463s1.192-.132,1.39-.132c2.317-.2,6.82-.2,8.409-.2h8.012c1.722,0,1.722,1.39,1.722,2.781,0,2.45,0,3.244-1.92,3.244h-4.171c-2.98,0-7.217-.132-9.071-.2-.463,0-2.516-.265-2.913-.265-.132,0-.265.066-.265.2,0,.066,0,.066.265.4l1.324,1.589c.265.265.331.4.6.4.2,0,1.589-.2,1.788-.2,1.457-.132,5.5-.132,7.945-.132h4.767c1.589,0,1.655.795,1.655,1.523,0,3.112,0,3.708-1.39,3.708H153.148c-2.781,0-7.217-.132-9.137-.2-.463,0-2.45-.265-2.913-.265a.211.211,0,0,0-.2.2c0,.066,0,.066.265.4l1.258,1.523c.265.331.4.463.6.463.265,0,1.589-.2,1.788-.2,1.722-.132,5.827-.132,8.012-.132h8.74c.463,0,1.126,0,1.126.662,0,1.324-10.461,10.528-21.85,15.56-.066.066-1.39.662-1.39.861,0,.265.331.331.463.331,1.059,0,12.58-2.715,25.425-12.183a6.968,6.968,0,0,1,1.589-.993c.53,0,.53.6.53.861,0,1.722,0,3.84-.066,5.562-.066.993-.4,5.959-.4,6.091,0,1.457.662,1.655,1.457,1.655a4.147,4.147,0,0,0,2.98-1.324c.662-.728.662-1.258.662-3.642,0-1.39-.066-7.482-.066-8.74,0-.4-.066-2.384-.066-2.648,0-.2.066-.795.6-.795.331,0,.4.132,1.92,1.986,3.443,4.238,8.409,9.2,18.208,13.242a19.006,19.006,0,0,0,3.244,1.126c.2,0,.662-.795.861-1.258a6.332,6.332,0,0,1,3.575-3.311c1.059-.265,1.39-.331,1.39-.728s-.2-.4-1.788-.6a47.763,47.763,0,0,1-22.446-8.74c-2.119-1.589-2.384-1.722-2.384-2.317,0-.662.728-.662,1.655-.662Zm-20.724-26.22c1.126,0,1.39.2,1.39.861a22.434,22.434,0,0,1-1.258,6.025c-.728,2.185-1.126,2.715-3.046,2.715h-7.35c-.265,0-.728,0-.728-.331a1.247,1.247,0,0,1,.132-.53A3.951,3.951,0,0,0,165-25.554c0-1.457-.861-3.244-4.039-5.562-.265-.132-1.39-.927-1.39-1.126,0-.331.4-.331.53-.331Zm84.95,29.4c1.192-.6,4.635,2.185,6.555,4.5,1.589,1.986,1.788,2.251,2.582,2.251A2.6,2.6,0,0,0,271.865.931c0-3.906-6.952-7.018-10.2-8.409-1.655-.728-1.854-1.192-2.119-3.642-.2-1.788-.662-9.27-.662-10.726,0-2.847,0-2.913,2.45-3.973s6.886-2.98,6.886-6.091c0-2.781-2.185-2.847-5.1-2.98-.4,0-3.84-.132-3.84-2.119a2.871,2.871,0,0,1,.4-1.39c.662-1.059.728-1.192.728-1.655,0-2.516-4.436-3.443-5.76-3.443-1.39,0-2.251.728-2.251,1.126,0,.463,1.788,1.92,2.053,2.251,1.258,1.523,1.258,3.377,1.258,7.548,0,4.37,0,4.37-3.642,4.37a19.815,19.815,0,0,1-7.416-1.324,11.514,11.514,0,0,0-1.788-.927c-.265,0-.331.265-.331.463,0,.662,2.317,5.893,9.8,5.893a21.961,21.961,0,0,1,3.046.132,2.2,2.2,0,0,1,.53,1.589c.066,1.854.265,8.872.265,9.27,0,4.105,0,4.569-1.655,4.569-13.573.2-13.573,7.217-13.573,8.144,0,3.906,3.84,6.621,8.276,6.621a10.919,10.919,0,0,0,9.866-6.29C259.285-.526,259.881-2.976,260.345-3.174Zm-.927-30.656a1.411,1.411,0,0,1,.795-.265c.927,0,3.112.861,3.112,2.053,0,1.523-2.516,2.317-3.443,2.317-.464,0-.993,0-.993-2.516A2.007,2.007,0,0,1,259.418-33.831ZM250.744-5.095c4.238,0,5.165.53,5.165,1.655,0,2.251-4.039,5.429-7.945,5.429-2.317,0-4.37-1.126-4.37-2.913C243.593-2.843,246.97-5.095,250.744-5.095Zm-18.87,2.45c0-1.92,1.854-11.455,1.854-13.573,0-.132,0-.6-.265-.6-.464,0-2.45,5.76-2.715,6.621-1.192,3.642-1.258,3.906-1.854,3.906-1.589,0-1.589-4.238-1.589-4.635a44.241,44.241,0,0,1,2.384-13.309c.53-1.655,3.443-9.8,3.443-10.329,0-1.192-3.311-7.813-7.018-7.813-.4,0-1.192.132-1.192.53a13.3,13.3,0,0,0,1.258,2.317,9.373,9.373,0,0,1,1.523,5.5c0,2.053-.132,2.384-1.986,10.528a50.574,50.574,0,0,0-1.721,12.978c0,10.263,3.311,16.884,6.621,16.884,1.523,0,2.185-1.258,2.185-2.715C232.8,2.718,231.873-1.652,231.873-2.645Zm75.614,10.2c0-6.158-11.256-9.6-13.573-9.6-.53,0-.728.265-.728.463s.728.662.927.795a18.717,18.717,0,0,1,6.952,7.085c2.185,3.973,2.45,4.436,3.84,4.436C306.163,10.73,307.487,9.141,307.487,7.552ZM-348.606,123.779c1.258,0,1.589.861,1.589,1.258.066.795.2,1.92,1.788,1.92,2.847,0,3.311-2.45,3.311-3.973,0-.463-.463-9.071-.463-10.793,0-1.192,0-5.694.331-6.091.132-.132.927-.662,1.059-.795a1.259,1.259,0,0,0,.6-.993c0-1.192-3.708-4.37-4.7-4.37-.6,0-.861.463-1.523,1.39a2.948,2.948,0,0,1-2.317,1.126h-14.9a7.231,7.231,0,0,1-3.046-.662c-1.788-.795-3.046-1.39-4.238-1.39-.53,0-.53.2-.53.463,0,.4.464,2.053.53,2.384.2,1.192.2,11.984.2,14.633,0,1.854,0,3.377-.066,4.238-.132,1.324-.265,2.45-.265,2.781,0,1.192.2,2.516,1.523,2.516a3.235,3.235,0,0,0,3.443-2.45c0-.132.265-1.192,2.251-1.192Zm.066-19.6c1.854,0,1.854.53,1.854,4.966,0,1.39,0,2.648-1.854,2.648H-364.5c-1.854,0-1.854-.463-1.854-4.9,0-1.457,0-2.715,1.854-2.715Zm-.132,9.4c1.92,0,1.986,1.258,1.986,2.053,0,5.827,0,6.356-2.053,6.356h-15.494a1.7,1.7,0,0,1-1.722-.728c-.331-.53-.4-5.363-.4-6.091,0-1.589,1.589-1.589,1.92-1.589Zm-7.35-27.345c.265.265.4.463.6.463.265,0,2.384-.265,2.781-.265a1.052,1.052,0,0,1,.993,1.126,32.906,32.906,0,0,1-.861,3.708,21.623,21.623,0,0,1-4.7,8.21c-.132.132-1.059,1.324-.728,1.324.2,0,.331,0,1.457-.795,4.5-2.98,7.747-7.813,8.343-12.448.066-.2.132-.53.53-.53.53,0,.53.2.927,2.119.993,5.3,7.614,12.514,8.74,12.514a3.113,3.113,0,0,0,.795-.6,7.416,7.416,0,0,1,2.847-1.589,14.457,14.457,0,0,0,2.781-.795c0-.132-3.178-1.523-3.774-1.854-7.747-3.84-10.528-9-10.528-9.6s.4-.861.993-.861h6.886c2.317,0,3.575,0,3.575-.993,0-.927-2.98-3.84-3.906-3.84-.6,0-2.384,2.582-2.98,2.847a34.712,34.712,0,0,1-4.767.2,1.371,1.371,0,0,1-1.324-1.324c0-.728.4-3.178.53-4.105a1.657,1.657,0,0,1,1.854-1.39h5.76c2.317,0,3.575,0,3.575-.927s-2.913-3.84-3.906-3.84c-.6,0-2.317,2.582-2.913,2.847a8.729,8.729,0,0,1-2.715.2,1.334,1.334,0,0,1-1.258-1.39,34.934,34.934,0,0,1,.265-3.642c.066-.331,1.324-1.854,1.324-2.317,0-1.126-5.628-1.92-5.959-1.92-.464,0-.728.132-.728.6s.463,2.516.53,2.98c.132,1.126.265,3.178.265,4.3a1.3,1.3,0,0,1-1.258,1.258c-.861,0-5.1-.331-6.091-.331-.132,0-.2.066-.2.132,0,.132,0,.2.265.463l1.258,1.523c.265.265.4.4.6.4.463,0,3.509-.265,4.039-.265a1.444,1.444,0,0,1,1.39,1.39c0,.132-.2,3.509-.331,4.105a1.4,1.4,0,0,1-1.39,1.126c-.728,0-4.436-.331-4.9-.331a.176.176,0,0,0-.2.2c0,.066,0,.132.265.4Zm-5.76,0c2.317,0,3.575,0,3.575-.927,0-1.059-2.98-3.84-3.84-3.84-.464,0-.6.2-1.92,1.92a2.135,2.135,0,0,1-1.523.993.892.892,0,0,1-.861-.927c0-.132.6-4.833.6-4.9a1.445,1.445,0,0,1,1.589-.993h1.986c2.251,0,3.509,0,3.509-.927,0-.993-2.913-3.642-3.642-3.642-.331,0-.728.132-1.721,1.788-.265.4-.53.662-.861.662-.464,0-.53-.265-.53-.662a15.052,15.052,0,0,1,.4-3.906c.132-.331,1.39-1.589,1.39-1.986,0-1.722-5.429-2.119-6.555-2.119-.4,0-.662.331-.662.795s.6,2.384.662,2.847c.132.861.331,2.98.331,3.774a1.521,1.521,0,0,1-1.39,1.523c-.993,0-5.231-.4-6.091-.4-.132,0-.265.066-.265.2,0,.066.066.132.331.4l1.258,1.523c.2.265.331.463.6.463s3.708-.331,4.37-.331a1.289,1.289,0,0,1,1.192,1.258c0,1.589-.265,4.3-.265,4.3a1.665,1.665,0,0,1-1.655,1.258c-.993,0-5.363-.331-6.224-.331-.132,0-.265,0-.265.132,0,.066.066.132.265.4l1.324,1.523c.2.331.331.463.6.463s3.642-.265,4.238-.265a1.045,1.045,0,0,1,.927,1.126c0,1.39-2.119,7.151-5.959,12.051-.4.463-2.317,2.715-2.317,2.847,0,.066.132.066.2.066.4,0,7.416-4.7,10.4-10.991.728-1.589.795-1.655,1.258-1.655.993,0,2.582,2.251,3.377,3.973,1.92,4.37,2.185,4.833,3.377,4.833S-359,97.1-359,95.97c0-3.84-3.774-5.827-6.886-6.754-.993-.331-1.457-.463-1.457-1.059a1.8,1.8,0,0,1,1.92-1.92Zm-23.042-16.421a11.372,11.372,0,0,0-4.105-1.258c-.2,0-.331,0-.331.132a6.6,6.6,0,0,0,.794,1.258,31.166,31.166,0,0,1,3.443,6.555c.662,1.788,1.192,2.119,2.185,2.119,1.324,0,2.317-1.059,2.317-2.847C-380.52,72.2-383.83,70.346-384.823,69.816Zm-3.311,16.023c-.993-.6-4.171-2.053-5.3-2.053-.066,0-.132.066-.132.2a7.886,7.886,0,0,0,.6.993,33.025,33.025,0,0,1,3.377,5.562c.993,2.317,1.523,3.642,2.781,3.642.463,0,2.185-.331,2.185-2.847C-384.625,89.547-385.552,87.428-388.134,85.839Zm8.409,4.833c-1.788,3.509-4.5,9.071-6.224,12.514-1.92,3.84-4.105,6.82-6.82,7.416-.662.132-.993.265-.993.463s.927.463,1.126.53c2.516.662,4.635,1.324,4.635,7.151,0,.463-.132,2.648-.132,3.178,0,1.059,0,4.635,3.046,4.635a3.574,3.574,0,0,0,3.244-3.642,14.151,14.151,0,0,0-.6-3.509c-1.523-5.231-1.722-6.091-1.722-7.813,0-3.906,6.489-21.717,6.489-23.505,0-.331-.132-.463-.331-.463-.265,0-.53.463-.6.662C-378.8,88.62-379.526,90.275-379.725,90.673Zm117.791-8.144c2.251,0,3.575,0,3.575-.993,0-.795-5.827-4.37-6.224-4.37-.6,0-.795.265-2.648,2.45-.993,1.126-1.258,1.126-4.238,1.126h-16.156c-.331,0-1.457,0-1.457-.927,0-.331,2.384-6.224,3.509-7.548.265-.265,1.854-1.258,1.854-1.655,0-.993-6.423-3.311-7.151-3.311-.265,0-.6.066-.6.463,0,.132.265.662.265.795,0,1.39-2.582,9-3.112,10.2-.927,1.986-1.854,1.986-3.84,1.986h-4.9c-3.112,0-5.893-.066-9.137-.2-.4-.066-2.45-.265-2.913-.265a.176.176,0,0,0-.2.2,1.007,1.007,0,0,0,.265.4l1.258,1.523c.2.265.4.463.6.463a10.043,10.043,0,0,0,1.39-.2c.662-.066,2.582-.132,8.409-.132h4.767c1.192,0,1.986.132,1.986,1.258,0,1.258-3.708,8.409-5.959,11.918-.265.4-.4.4-1.126.4-.53,0-.53.2-.53,1.523,0,1.788-6.555,9.2-9,11.918-.927.993-2.251,2.516-2.847,3.112,0,.132.066.2.265.2,1.391,0,9.535-7.151,10.528-8.409a1.094,1.094,0,0,1,.861-.53c.795,0,.927.331.927,7.35,0,2.582,0,8.674-.132,10.925,0,.662-.2,2.847-.2,3.244a1.413,1.413,0,0,0,1.589,1.523c1.722,0,3.377-.927,3.377-2.847a14.283,14.283,0,0,0-.133-1.854c-.2-2.582-.331-6.621-.331-9.8,0-1.722,0-10.991.331-11.852.133-.265,1.258-1.192,1.258-1.523,0-.463-.331-.6-1.192-1.126a.579.579,0,0,1-.4-.6.88.88,0,0,1,.2-.463,71.578,71.578,0,0,0,6.025-10c2.119-3.973,2.384-4.37,4.9-4.37Zm-2.185,19.135c2.251,0,3.575,0,3.575-.927,0-.795-5.76-4.37-6.224-4.37-.6,0-.795.265-2.648,2.45-.927,1.126-1.258,1.126-4.238,1.126h-1.192c-.662,0-1.92,0-2.053-1.457V90.938c0-1.655.132-2.781,1.126-3.443.795-.463.927-.53.927-.795,0-.463-.464-.662-.927-.795a45.312,45.312,0,0,0-5.562-1.192c-.4,0-.463.265-.463.662,0,.2.463,10.2.463,12.117,0,2.317-.795,2.45-2.317,2.45-1.258,0-6.356-.2-7.217-.2-.4-.066-2.516-.265-2.98-.265-.132,0-.265.066-.265.132,0,.132.2.265.331.463l1.258,1.523c.2.265.331.4.6.4.132,0,1.721-.132,1.986-.132,2.251-.132,4.569-.2,6.886-.2a1.669,1.669,0,0,1,1.589.795c.331.53.331,8.608.331,9.932,0,2.45,0,8.276-.463,9.071-.331.6-.861.662-1.788.662-2.913,0-4.833,0-10.13-.2-.4,0-2.45-.265-2.913-.265-.132,0-.265.066-.265.2,0,.066.2.265.331.4l1.258,1.523c.2.265.331.463.6.463a11.7,11.7,0,0,0,1.39-.2c.662,0,2.582-.132,8.343-.132h23.042c2.251,0,3.575,0,3.575-.927,0-.861-5.76-4.37-6.224-4.37-.6,0-.795.2-2.648,2.45-.927,1.059-1.258,1.059-4.238,1.059h-3.509c-1.92,0-1.986-.4-1.986-2.715,0-2.251-.2-13.375-.2-15.891,0-1.854,1.258-1.854,2.119-1.854Zm34.165-1.854c-2.119,0-2.119-.861-2.119-3.046,0-2.715,0-3.509,1.986-3.509h9c1.854,0,1.854,1.059,1.854,2.648,0,3.774-.132,3.906-2.119,3.906Zm8.608,10c2.053,0,2.053.6,2.053,4.3,0,7.085,0,7.482-2.119,7.482-.53,0-3.046-.265-3.575-.265a.443.443,0,0,0-.463.4c0,.463,2.119,1.324,2.384,1.589a5.119,5.119,0,0,1,1.92,2.648c.2.6.331.927.795.927,2.781,0,5.5-2.119,5.5-6.356,0-2.053-.265-11.256-.265-13.176,0-1.589.132-9.932.132-10a7.263,7.263,0,0,1,.2-2.317c.132-.331,1.324-1.722,1.324-2.053,0-1.126-3.509-3.509-3.84-3.509-.265,0-1.258,1.059-1.721,1.457a2.373,2.373,0,0,1-1.854.53h-9.4a5.248,5.248,0,0,1-2.582-.6c-2.648-1.39-2.913-1.523-3.575-1.523-.2,0-.463.066-.463.4,0,.795.4,4.238.4,5.1.066,1.059.132,4.238.132,9.667,0,5.76-.066,11.653-.331,16.288,0,.662-.2,3.575-.2,4.171,0,.662.066,1.655,1.589,1.655,3.377,0,3.377-3.178,3.377-4.5V111.529c0-1.722,1.258-1.722,1.92-1.722Zm-8.608-1.788c-2.053,0-2.053-.795-2.053-3.377,0-2.053,0-3.046,2.053-3.046h8.608c2.053,0,2.053.53,2.053,4.37,0,1.986-.993,2.053-2.053,2.053Zm13.044-27.412c0,.53-.265.53-2.45.728-2.582.2-6.952.265-9.6.265-.463,0-1.192,0-1.192-.6,0-.53,4.238-7.747,4.767-8.343.265-.4,2.384-1.722,2.384-2.251,0-.795-.927-1.126-2.317-1.655-.6-.2-3.708-1.589-4.039-1.589s-.331.132-.331,1.258c0,3.509-2.185,9.336-2.781,10.859-.662,1.722-.927,2.317-2.251,2.317-.6,0-3.443-.463-4.105-.463s-.993.265-.993.993c0,.993.728,4.9,1.92,4.9a8.863,8.863,0,0,0,1.523-.861c.066,0,3.642-.728,3.973-.795,2.45-.53,14.9-3.244,15.361-3.244.795,0,.861.4,1.126,1.059.795,2.251,1.258,3.509,2.384,3.509s1.986-1.324,1.986-2.847c0-4.767-7.416-9.336-8.343-9.336a.285.285,0,0,0-.265.265C-220.155,75.113-216.91,79.748-216.91,80.609Zm14.567,2.516c.132-.066,2.119-.795,2.45-.927,1.92-.728,11.057-4.9,13.309-5.165,1.39-.2,1.854-.463,1.854-.927,0-.6-4.238-3.84-4.7-3.84s-2.119,1.92-2.516,2.317c-5.562,4.767-10.064,6.886-10.329,6.886-.6,0-.6-.265-.6-2.648a50.243,50.243,0,0,1,.2-5.628c.132-.4,1.655-1.722,1.655-2.185,0-1.324-5.76-2.185-5.959-2.185s-.53,0-.53.265c0,.331.2,1.854.2,2.185.066,1.523,0,9.071,0,10.726,0,10.991.662,12.911,11.388,12.911,4.171,0,13.706,0,13.706-4.37,0-.4-.4-.861-.861-1.457A5.684,5.684,0,0,1-184.2,86.5c-.132-.4-.132-2.98-.6-2.98-.265,0-.6.6-.728.927a21.571,21.571,0,0,1-1.39,3.244c-.795,1.589-1.457,3.046-8.806,3.046-7.151,0-7.151-1.854-7.151-5.893A2.25,2.25,0,0,1-202.344,83.125Zm17.48,22.843c0-.6-4.238-3.84-4.833-3.84s-2.45,2.251-2.913,2.582c-4.039,3.311-8.939,6.489-9.733,6.489-.53,0-.53-.6-.53-.795,0-1.258,0-7.482.4-8.541a19.351,19.351,0,0,0,1.126-1.788c0-1.39-5.5-2.053-5.628-2.053-.265,0-.795,0-.795.331s.2,1.854.2,2.119c0,2.582-.066,14.037-.066,16.354.132,7.217,2.45,8.74,12.183,8.74,8.012,0,10.528-.265,12.514-1.655,1.788-1.192,2.251-2.516,2.251-3.112s-1.457-2.98-1.589-3.443a17,17,0,0,1-.927-4.238c-.066-.331-.2-.795-.463-.795-.331,0-.4.265-.861,1.854-2.185,7.085-2.913,7.085-10.594,7.085-7.151,0-7.813-.795-7.813-6.025,0-2.119.331-2.251,2.98-3.112,2.119-.662,13.044-5.231,13.242-5.231C-185.393,106.7-184.864,106.5-184.864,105.968Zm66.808-21.188c2.119,0,2.119.927,2.119,2.516a204.467,204.467,0,0,1-1.457,25.028c-.861,5.893-1.986,7.879-5.628,7.879a40.821,40.821,0,0,1-4.833-.53c-.4-.066-2.251-.53-2.45-.53a.371.371,0,0,0-.4.331c0,.265.132.4,1.655,1.258,4.569,2.648,5.032,2.913,5.032,4.966,0,.993,0,1.523,1.192,1.523a10.728,10.728,0,0,0,7.879-5.165c3.046-5.429,3.443-19.069,4.039-34.3a2.55,2.55,0,0,1,.795-1.986c.927-.795,1.192-.993,1.192-1.589,0-1.126-4.238-3.575-5.032-3.575-.4,0-.6.2-1.39,1.39-.6.861-1.192.993-2.384.993h-14.5c-1.986,0-2.053-.861-2.053-2.98,0-1.059.464-6.158.53-7.283.066-1.059.265-1.655,1.059-2.053,1.39-.6,1.523-.662,1.523-1.258,0-1.589-7.416-2.384-8.078-2.384-.53,0-.662.066-.662.662,0,.331.2,1.854.2,2.185.066.728.4,5.76.4,8.276,0,4.171-.2,4.833-2.119,4.833h-7.548c-3.112,0-5.827-.066-9.071-.2-.4-.066-2.45-.265-2.913-.265a.176.176,0,0,0-.2.2c0,.066,0,.132.265.4l1.258,1.523c.265.265.331.463.6.463a10.043,10.043,0,0,0,1.39-.2c.662,0,2.582-.132,8.343-.132h7.813c1.788,0,1.854,1.059,1.854,1.854a86.075,86.075,0,0,1-2.185,16.089A36.9,36.9,0,0,1-159.24,126.1c-1.39.795-1.523.861-1.523,1.126s.2.4.463.4a37.733,37.733,0,0,0,12.117-6.356c8.608-6.621,12.051-16.023,13.507-32.841.265-3.178.265-3.642,2.317-3.642Zm41.78,19.466c2.119,0,2.847-1.589,3.575-3.244,1.722-3.973,5.628-7.018,8.144-7.018,2.648,0,3.178,3.708,3.178,6.687a2.821,2.821,0,0,1-.993,2.317c-6.224,5.032-8.74,7.151-8.74,11.388,0,5.231,4.436,8.674,12.845,8.674,1.589,0,11.852-.265,11.852-4.37,0-1.589-1.854-2.251-3.244-2.251-.861,0-5.1,1.059-6.025,1.192a20.493,20.493,0,0,1-4.238.4c-1.92,0-8.541,0-8.541-4.569,0-3.774,5.893-7.879,6.423-7.879.464,0,.464.53.464.795,0,.066-.2,3.244-.2,3.906,0,1.192.265,3.377,2.053,3.377,2.45,0,2.45-3.774,2.45-4.833,0-.6-.132-3.377-.132-3.973,0-1.39.066-2.119,1.126-2.781,1.192-.728,8.674-3.708,10.329-4.436,4.105-1.788,9.336-3.973,9.336-7.085a6.246,6.246,0,0,0-6.224-5.893c-5.76,0-10.064,6.025-12.249,9.071A31.09,31.09,0,0,1-57.8,97.294c-.132,0-.2-.132-.662-1.258C-60.187,92.129-63.233,92-64.093,92a6.188,6.188,0,0,0-2.582.53,13.222,13.222,0,0,1-2.053.728.243.243,0,0,1-.265-.265c0-.265.132-.463.463-1.059a51.346,51.346,0,0,0,3.575-7.151c1.457-3.377,1.523-3.509,2.516-3.906,3.046-1.192,7.879-3.046,7.879-5.231,0-1.39-2.516-1.721-2.98-1.721-2.648-.2-2.913-.331-2.98-1.192-.132-1.457-1.788-2.053-3.377-2.053-1.192,0-2.913.53-2.913,1.059,0,.4,1.39,1.589,1.589,1.92a5.308,5.308,0,0,1,.53,2.317c0,1.324,0,3.112-5.429,3.112a10.524,10.524,0,0,1-4.37-1.192A14.872,14.872,0,0,0-77,76.636c-.4,0-.4.265-.4.463,0,2.582,3.377,5.827,5.893,5.827.6,0,3.311-.53,3.973-.53.265,0,.728.066.728.463,0,.927-2.648,6.423-5.628,9.866-4.5,5.231-6.356,7.35-6.356,9.336C-78.792,103.849-77.534,104.246-76.276,104.246ZM-62.041,76.57c0-.265.265-2.119,1.192-2.119.6,0,2.251.132,2.251.993,0,.728-3.178,1.589-3.311,1.589S-62.041,76.834-62.041,76.57Zm17.347,10.594a2.037,2.037,0,0,1,2.317,1.986c0,4.37-13.044,9.667-13.242,9.667s-.265-.2-.265-.331C-55.883,97.426-50.189,87.164-44.693,87.164ZM-.2,116.363c.662,0,1.722,0,1.92,1.523.132.795.2,1.655,1.788,1.655a4.259,4.259,0,0,0,2.648-.993c.463-.4.53-.861.53-1.854,0-5.694-.4-30.987-.4-36.085,0-5.429.132-5.562,1.126-6.158.728-.4.993-.6.993-.927,0-.53-.331-.861-1.059-1.258-.53-.331-2.913-2.317-3.575-2.317-.6,0-.927.6-1.39,1.324C1.589,72.531.794,72.531-.464,72.531H-2.583a5.318,5.318,0,0,1-3.443-.993c-1.722-1.126-2.384-1.589-3.112-1.589-.4,0-.4.463-.4.662,0,.463.331,2.45.4,2.847.331,3.046.331,9.2.331,12.382,0,8.409-.265,23.042-.662,31.848,0,.795-.4,4.238-.4,4.966,0,.662.2,1.655,1.92,1.655,3.377,0,3.377-2.582,3.377-3.84,0-3.575,0-4.105,2.053-4.105ZM.066,88.819a1.949,1.949,0,0,1,1.523.53c.463.463.463.927.463,5.827,0,6.423,0,6.489-1.986,6.489H-2.781c-2.053,0-2.053-.463-2.053-6.356,0-6.423,0-6.489,1.986-6.489ZM.132,74.252c1.986,0,1.986.6,1.986,5.429,0,7.35,0,7.416-1.986,7.416h-2.98C-4.9,87.1-4.9,86.3-4.9,82.529c0-6.091,0-6.82.2-7.35a1.88,1.88,0,0,1,1.854-.927ZM.066,103.385a1.661,1.661,0,0,1,1.92,1.788c0,2.847,0,8.012-.2,8.541A1.687,1.687,0,0,1,0,114.641H-2.649c-2.119,0-2.119-.53-2.119-7.217,0-3.112,0-4.039,2.053-4.039ZM44.56,99.347c3.178,0,3.509,0,3.509-.795,0-1.192-5.5-5.5-6.29-5.5s-.993.331-2.516,3.112c-.795,1.39-1.126,1.457-3.973,1.457H33.172a2.053,2.053,0,0,1-2.45-1.854c-.2-.993-.6-6.952-.6-7.482,0-1.192.331-1.986,1.986-1.986h4.105c.463,0,1.722,0,1.92,1.126.2.993.331,1.589,1.324,1.589,1.788,0,3.84-1.126,3.84-3.377,0-.6-.2-3.046-.265-3.575-.132-2.516-.132-4.767-.132-5.5,0-2.45,0-2.781.795-3.178,1.059-.6,1.192-.662,1.192-1.126,0-.861-4.5-3.906-4.966-3.906-.6,0-2.251,1.986-2.648,2.317a3.9,3.9,0,0,1-2.715.662H20.525a9.424,9.424,0,0,1-4.833-.993c-2.781-1.457-2.913-1.523-3.708-1.523-.463,0-.463.4-.463.6,0,.53.463,2.582.463,2.98.2,2.384.463,24.3.463,25.293s-.132,19.93-.265,20.724a1.328,1.328,0,0,1-1.457,1.126,10.621,10.621,0,0,1-1.92-.2,10.213,10.213,0,0,0-1.126-.331c-.265,0-.331.132-.331.265,0,.066,1.986,5.3,2.119,5.628.662,1.655.728,1.788,1.324,1.788s.861-.265,1.655-1.192,1.258-1.126,5.3-2.847c1.92-.795,10.4-4.436,12.117-5.165a11.008,11.008,0,0,1,2.45-.728c.728,0,1.126.53,1.92,1.523,4.039,4.966,9.535,8.541,11.984,8.541a2.082,2.082,0,0,0,2.185-2.185c0-.795-.132-.993-.927-2.516a7.4,7.4,0,0,1-.463-2.648c0-1.059,1.523-8.872,1.523-9.733,0-.132,0-.331-.132-.331a58.431,58.431,0,0,0-2.847,5.165c-1.986,3.906-2.185,4.3-3.178,4.3-1.324,0-6.555-3.906-9.336-11.521a35.829,35.829,0,0,1-1.788-6.82c0-1.192,1.126-1.192,2.185-1.192ZM23.7,86.3c.861,0,1.523.2,1.788,1.059.066.265.795,7.813.795,8.475,0,1.788-.927,1.788-1.854,1.788H18.473c-.927,0-1.722-.132-1.92-1.192-.132-.463-.132-6.621-.132-7.681,0-1.589,0-2.45,2.185-2.45ZM36.218,73.06c2.053,0,2.053.463,2.053,4.833,0,6.025,0,6.687-2.119,6.687H18.407c-1.986,0-1.986-.861-1.986-4.238a52.48,52.48,0,0,1,.2-6.356c.265-.795,1.192-.927,1.788-.927ZM24.3,99.347c1.788,0,2.317.53,2.648,1.854.993,4.171,1.986,8.078,3.509,11.057.861,1.655.993,2.119.993,2.516,0,.53-.4.927-2.185,1.324-1.92.463-10.528,2.516-11.455,2.516-1.324,0-1.324-.463-1.324-4.9V101.465c0-1.39.265-2.119,2.119-2.119ZM90.445,70.081c-.2.2,0,.6.132.861a4.876,4.876,0,0,1,1.126,2.98c0,1.92-1.589,2.582-5.3,4.105-5.562,2.251-5.827,5.628-6.025,7.945-.2,2.45-1.788,14.633-1.788,17.414,0,5.1,2.251,8.276,5.032,8.276,2.251,0,2.98-1.126,6.025-5.429,2.913-4.238,6.29-4.966,8.608-4.966,1.324,0,7.35.4,7.35,7.35,0,6.224-6.224,11.455-14.5,13.309-.463.132-1.92.463-1.92.795,0,.53.927.53,1.788.53,9.6,0,20.128-5.363,20.128-13.441,0-5.429-5.032-10.4-12.117-10.4-4.238,0-6.754,1.589-10.793,4.238-.662.4-2.582,1.589-3.84,1.589-1.655,0-1.722-2.053-1.722-3.046,0-1.655.53-7.283.861-9.733.132-.927.795-4.833.795-5.429s-.463-3.443-.463-4.039a4.41,4.41,0,0,1,4.7-4.37,9.062,9.062,0,0,1,3.112.662c2.98,1.059,3.311,1.126,3.907,1.126a3.255,3.255,0,0,0,3.377-3.178C98.92,73.524,90.908,69.684,90.445,70.081Zm93.028,7.681a5.358,5.358,0,0,0-5.628-4.635c-.331,0-1.457.066-1.457.728,0,.132,1.192,2.384,1.258,2.45a9.757,9.757,0,0,1,.795,4.569c0,.861-.132,4.039-.331,5.363-.265,1.39-.728,1.457-4.833,2.119-1.721.265-10.064,2.119-10.528,2.119-.861,0-.861-.53-.861-1.92a36.534,36.534,0,0,1,.331-5.1,13.543,13.543,0,0,0,.331-2.053c0-2.317-4.105-4.171-5.694-4.171-.795,0-1.92.331-1.92.927,0,.265,1.324,2.582,1.523,3.112.728,1.722,1.059,3.377,1.059,6.952,0,2.45-.066,3.046-1.126,3.377a31.012,31.012,0,0,1-8.409.927c-.6,0-3.377-.265-4.039-.265-.6,0-.861.066-.861.927,0,3.642,5.363,4.9,6.82,4.9.993,0,5.562-2.053,6.687-2.053,1.192,0,1.192.662,1.192,6.224,0,12.58,0,17.877,18.937,17.877,1.523,0,7.548,0,7.548-3.112,0-1.457-1.722-2.847-3.575-2.847a20.9,20.9,0,0,0-3.178.463,29.824,29.824,0,0,1-5.827.53c-9.27,0-10.461-3.112-10.461-9.336,0-.2.132-6.224.2-8.409a5.324,5.324,0,0,1,.6-2.715c.861-1.457,12.845-4.105,14.236-4.105.993,0,.993.331.993.861a29.409,29.409,0,0,1-1.92,7.548,2.384,2.384,0,0,1-2.251,1.722c-.6,0-3.575-1.192-4.3-1.192-.132,0-.331,0-.331.132a7.931,7.931,0,0,0,.861,1.39,24.048,24.048,0,0,1,1.258,2.913c.6,1.92.861,2.648,3.112,2.648,2.384,0,5.959-3.377,7.217-13.176.4-3.443.463-3.575,4.3-3.575,1.192,0,6.952.728,8.276.728s3.244-.463,3.244-2.185c0-1.324-.993-2.384-5.165-3.575a35.665,35.665,0,0,0-4.767-1.192c-.132,0-.53,0-.53.265a.544.544,0,0,0,.265.4c1.192,1.126,1.324,1.258,1.324,1.655,0,.728-.6.795-2.053.927-.53,0-2.847.265-3.112.265-.2,0-.728,0-.728-.331,0-.4.066-.861.53-5.3C182.546,80.94,183.473,77.894,183.473,77.761Zm39.065,5.231c-.795.927,2.317,5.363,5.628,5.363a4.788,4.788,0,0,0,2.317-.861c2.119-1.192,15.891-7.085,19.665-7.085.132,0,.4,0,.4.132a11.865,11.865,0,0,1-1.589,1.39c-9.6,8.541-9.667,22.578-9.667,25.492,0,3.112,0,14.169,13.573,14.169.4,0,7.681,0,7.681-3.509,0-1.589-1.258-2.45-3.311-2.45-.53,0-5.3.4-6.29.4-3.907,0-8.078-.728-8.078-11.852,0-17.083,9.4-24.829,17.811-24.829.795,0,4.569.728,5.429.728a2.629,2.629,0,0,0,2.648-2.45c0-2.251-2.98-3.178-5.3-3.178-4.436,0-19.532,4.3-25.425,5.959-9.071,2.582-10.064,2.847-12.911,2.847C224.789,83.257,222.8,82.661,222.538,82.992Zm78.991-4.3c-.132,0-.4.066-.4.265a8.944,8.944,0,0,0,.53,2.251,18.4,18.4,0,0,1,.464,3.84c0,1.721-.927,9.866-.927,11.719,0,12.646,8.343,19.6,12.58,19.6,1.126,0,2.516-.728,2.516-2.053a16.608,16.608,0,0,0-.53-2.185,8.936,8.936,0,0,1-.4-2.648c0-1.39.132-1.986.861-5.032a7.943,7.943,0,0,0,.2-1.324c0-.265-.132-.53-.331-.53-.53,0-1.655,1.589-2.053,2.251-1.986,3.311-2.251,3.642-3.377,3.642-2.053,0-5.5-4.833-5.5-11.521a23.386,23.386,0,0,1,1.589-8.541c.662-1.92.795-2.119.795-2.648C307.553,83.985,304.574,78.688,301.528,78.688Zm31.583,6.091c-.331,0-.6.132-.6.331,0,.4,2.648,2.45,3.178,2.98,3.509,3.509,3.509,6.29,3.509,11.786,0,.861,0,4.436,3.244,4.436,3.178,0,3.311-3.112,3.311-4.37A16.479,16.479,0,0,0,339.865,87.3,12.887,12.887,0,0,0,333.111,84.78Zm71.972,31.649c-.927,0-1.324-.6-2.251-1.788-1.854-2.384-4.436-4.238-7.548-4.238-3.774,0-6.555,2.98-6.555,5.363,0,3.311,4.7,6.82,11.256,6.82,8.409,0,16.553-5.893,16.553-14.3,0-7.482-6.423-13.772-14.9-13.772a16.017,16.017,0,0,0-5.827,1.059c-.4.132-1.258.463-1.655.6-.2,0-.4-.265-.4-.463,0-1.126,5.827-10.2,10.594-13.573,3.178-2.185,4.7-3.244,4.7-5.165,0-2.913-4.3-4.569-6.952-4.569-1.457,0-1.92.2-6.025,1.986a32.1,32.1,0,0,1-10.263,2.384c-1.39,0-1.589,0-1.589.2,0,.331,2.053,4.569,5.165,4.569,1.126,0,2.053-.2,4.7-2.384,1.126-.927,5.032-4.238,7.482-4.238.795,0,1.258.463,1.258.927,0,.728-.927,2.119-3.112,5.231-10,14.037-10.66,14.9-14.964,19.93-4.7,5.5-5.231,6.952-5.231,8.608a1.825,1.825,0,0,0,1.92,1.854c1.788,0,2.45-1.258,3.774-3.509,1.192-2.053,6.82-11.124,15.56-11.124,6.621,0,11.19,4.635,11.19,10.064C411.97,112.39,407.335,116.429,405.084,116.429Zm-6.091.662a1.1,1.1,0,0,1-1.126,1.192c-2.847,0-5.694-1.39-5.694-3.112a2.706,2.706,0,0,1,2.781-2.317C397.4,112.854,398.992,115.5,398.992,117.091Zm53.9-5.76a7.35,7.35,0,0,0-.066,14.7,7.35,7.35,0,1,0,.066-14.7Zm-.066,1.854a5.553,5.553,0,0,1,5.628,5.562,5.465,5.465,0,0,1-5.5,5.429,5.553,5.553,0,0,1-5.562-5.562A5.357,5.357,0,0,1,452.822,113.185Z" transform="translate(393.762 48.662)" fill="#fff"/>
</svg>
