<svg xmlns="http://www.w3.org/2000/svg" width="148.24" height="147.749" viewBox="0 0 148.24 147.749">
  <g id="グループ_1931" data-name="グループ 1931" transform="translate(-1199.889 -604.108)">
    <path id="パス_3337" data-name="パス 3337" d="M-815.5,300.328l-13.8,14.547,16.047,12.718-18.239,8.542,10.481,17.692-20.205,1.34,3.494,20.32-19.437-6.085-3.971,20.245-16.037-12.731-10.9,17.48-10.468-17.7-16.37,12.4-3.478-20.322-19.631,5.681,3.986-20.242-20.246-1.759,10.918-17.471-18.132-8.918,16.38-12.383-13.575-14.83,19.636-5.665-7.189-18.7L-926,276.261l.162-19.995,18.125,8.932,7.486-18.55,13.563,14.841,13.793-14.558,7.174,18.7,18.232-8.556-.178,19.995,20.2-1.356-7.5,18.544Z" transform="translate(2161.385 357.46)" fill="#c10011"/>
    <g id="グループ_1930" data-name="グループ 1930" transform="translate(0 6)">
      <g id="グループ_1929" data-name="グループ 1929" transform="translate(1100.28 145.811)">
        <path id="パス_3338" data-name="パス 3338" d="M145.038,520.524l-2.564,2.465h-4.831l-2.465-2.465v-9.859l2.465-2.465h4.93l2.465,2.465V511.9h-2.465v-.222l-1.01-1.01h-2.908l-1.011,1.01v7.838l1.011,1.01h2.908l1.01-1.01v-.222h2.465Z" fill="#fff"/>
        <path id="パス_3339" data-name="パス 3339" d="M171.287,520.524l-2.564,2.465h-4.831l-2.464-2.465v-9.859l2.464-2.465h4.93l2.465,2.465Zm-2.465-1.01v-7.838l-1.01-1.01H164.9l-1.011,1.01v7.838l1.011,1.01h2.908Z" transform="translate(-14.418)" fill="#fff"/>
        <path id="パス_3340" data-name="パス 3340" d="M197.535,522.989H195.07l-4.93-9.416v9.416h-2.465V508.2l2.465.025,4.93,9.416V508.2h2.465Z" transform="translate(-28.836)" fill="#fff"/>
        <path id="パス_3341" data-name="パス 3341" d="M223.784,510.665h-3.7v12.324h-2.465V510.665h-3.7V508.2h9.859Z" transform="translate(-43.254)" fill="#fff"/>
        <path id="パス_3342" data-name="パス 3342" d="M245.608,522.989H243.07l-.617-2.465h-3.5l-.616,2.465H235.8l3.573-14.789h2.662Zm-3.771-4.93L240.7,513.5l-1.134,4.56Z" transform="translate(-55.269)" fill="#fff"/>
        <path id="パス_3343" data-name="パス 3343" d="M270.812,520.524l-2.563,2.465h-4.831l-2.465-2.465v-9.859l2.465-2.465h4.929l2.465,2.465V511.9h-2.465v-.222l-1.011-1.01h-2.908l-1.011,1.01v7.838l1.011,1.01h2.908l1.011-1.01v-.222h2.465Z" transform="translate(-69.085)" fill="#fff"/>
        <path id="パス_3344" data-name="パス 3344" d="M295.967,510.665h-3.7v12.324H289.8V510.665h-3.7V508.2h9.859Z" transform="translate(-82.902)" fill="#fff"/>
      </g>
      <path id="パス_8023" data-name="パス 8023" d="M-20.566-7.14H-21.63V-8.932h1.064Zm0,3.262H-21.63V-5.656h1.064Zm-5.88-1.778h1.008v1.778h-1.008Zm3.43,0v1.778h-1.036V-5.656ZM-24.052-7.14V-8.932h1.036V-7.14Zm-2.394-1.792h1.008V-7.14h-1.008Zm-1.47,1.792h-1.876v1.484h1.876v1.778h-1.666v1.484h12.166V-3.878H-19.04V-5.656h1.82V-7.14h-1.82V-8.932h1.316V-10.4h-8.4a7.537,7.537,0,0,0,.546-.98l-1.624-.476a8.609,8.609,0,0,1-2.9,3.346A15.418,15.418,0,0,1-28.742-7.42a9.62,9.62,0,0,0,.826-.728Zm-.434,8.372a7.661,7.661,0,0,0,1.6-2.94l-1.61-.392A6.9,6.9,0,0,1-29.932.588Zm2.492-2.842a17.772,17.772,0,0,1,.266,2.674l1.624-.238A18.129,18.129,0,0,0-24.3-1.792Zm2.772.028a14.919,14.919,0,0,1,.714,2.66l1.666-.322a15.6,15.6,0,0,0-.812-2.6Zm2.772-.07a18.032,18.032,0,0,1,1.652,2.87l1.708-.574a18.989,18.989,0,0,0-1.764-2.8Zm15.54-7.756A10.521,10.521,0,0,0-7-11.1l-.8,1.12a11.264,11.264,0,0,1,2.17,1.82ZM-8.442-6.454a11.821,11.821,0,0,1,2.3,1.736l.84-1.33a12.3,12.3,0,0,0-2.352-1.61ZM-9.7-11.088a23.811,23.811,0,0,1-.77,3.276l1.05.294c.35-.812.756-2.142,1.12-3.262Zm-2.716,3.276a14.037,14.037,0,0,0-.714-3.206l-1.162.308a13.875,13.875,0,0,1,.63,3.22ZM-8.6-3.206c-.294-.392-1.624-1.96-2.03-2.366v-.1h2.072V-7.224h-2.072V-11.8h-1.54v4.578H-14.28V-5.67h1.6a12.961,12.961,0,0,1-1.848,3.626,9.893,9.893,0,0,1,.756,1.722,14.368,14.368,0,0,0,1.61-3.444V1.176h1.54V-3.738a18.7,18.7,0,0,1,1.008,1.82Zm7.406.322-.252-1.554-1.428.266v-7.7H-4.438v7.98L-8.6-3.15-8.344-1.6l3.906-.7V1.2H-2.87v-3.78ZM5.11-7.42H6.86V-8.988H5.11v-2.87h-1.6v2.87h-2V-7.42H3.318a13.623,13.623,0,0,1-2.17,4.676,8.2,8.2,0,0,1,.784,1.568,12.007,12.007,0,0,0,1.582-3.15V1.2h1.6V-4.62c.392.63.8,1.288,1.008,1.736L7.07-4.242c-.28-.35-1.47-1.792-1.96-2.324Zm3.836,6.2V-3.01h3.29v1.792ZM12.236-6.3v1.778H8.946V-6.3Zm0-3.234V-7.8H8.946V-9.534ZM7.35-11.1V1.092h1.6v-.8h3.29v.714h1.68V-11.1Zm20.958-.014A12.3,12.3,0,0,1,27.3-8.834l1.232.476c.392-.588.9-1.442,1.358-2.254Zm1.708,4.494A29.108,29.108,0,0,0,26.7-8.792a14.77,14.77,0,0,0,.35-3.052h-1.61c-.112,2.772-.336,4.368-3.248,5.278a4.08,4.08,0,0,1,.924,1.316,5.271,5.271,0,0,0,3-2.142,20.96,20.96,0,0,1,2.8,2.03Zm-6.65,4.788a5.348,5.348,0,0,0,1.3-2.856l-1.456-.294A4.476,4.476,0,0,1,21.994-2.52Zm.014-9.2a4.531,4.531,0,0,1-1.05,2.31l1.3.56a4.991,4.991,0,0,0,1.106-2.59ZM21.8-11.424H17.682v1.26H21.8Zm.5,1.876h-5.32v1.316H22.3ZM21.84-7.6h-4.2v1.274h4.2Zm-4.2,3.164h4.2V-5.684h-4.2Zm2.8,2v1.61H19v-1.61Zm1.414-1.316H17.6V1.022H19V.476h2.856ZM28.546-2.17a26.928,26.928,0,0,0,1.47-2.408l-1.638-.5A15.136,15.136,0,0,1,27.272-2.66a3.016,3.016,0,0,1-.266-1.176V-5.95H25.312v2.114c0,.938-.714,2.772-3.388,3.71a6.978,6.978,0,0,1,.91,1.358,5.58,5.58,0,0,0,3.332-3.08,5.18,5.18,0,0,0,3.024,3.08,13.155,13.155,0,0,1,.952-1.414,4.783,4.783,0,0,1-2.87-2.45Z" transform="translate(1274 690)" fill="#fff"/>
    </g>
  </g>
</svg>
