<svg xmlns="http://www.w3.org/2000/svg" width="327.877" height="24.542" viewBox="0 0 327.877 24.542">
  <g id="グループ_1928" data-name="グループ 1928" transform="translate(-96.983 -287.955)">
    <rect id="長方形_75" data-name="長方形 75" width="22.066" height="1.736" transform="translate(268.346 298.685)" fill="#fff"/>
    <rect id="長方形_76" data-name="長方形 76" width="16.787" height="1.736" transform="translate(151.18 290.341)" fill="#fff"/>
    <path id="パス_3316" data-name="パス 3316" d="M170.936,297.059h-7.969v-6.482H159.7v6.482H148.679V298.8h10.949c-.318,3.726-1.95,10.235-8.768,12.205v1.736A14.793,14.793,0,0,0,162.909,298.8h8.027Z" transform="translate(-25.496 -1.293)" fill="#fff"/>
    <path id="パス_3317" data-name="パス 3317" d="M220.778,303.366H198.521V305.1h9.9v1.573c0,5.75-2.293,10.144-8.836,10.958v1.41s12.107.6,12.107-12.368V305.1h9.087Z" transform="translate(-50.077 -7.6)" fill="#fff"/>
    <path id="パス_3318" data-name="パス 3318" d="M283.04,292.663V294.4h18.982v.434c0,5.718-5.171,7.285-6.686,7.622.019-.343.032-.694.032-1.059v-3.77H292.1v4.069c0,5.75-2.293,9.845-8.835,10.659v1.41s10.379.282,11.912-9.771c4.583-.126,10.15-3.669,10.15-8.89v-2.441Z" transform="translate(-91.76 -2.322)" fill="#fff"/>
    <path id="パス_3319" data-name="パス 3319" d="M108.419,295.221v-4.644h-3.271v4.644H97.626v1.743h7.522v.312c0,2.414.084,10.55-8.165,13.724v1.736s11.436-1.844,11.436-15.46v-.312h7.3v4.678c0,3.066-.293,8.422-1.7,8.768a9.719,9.719,0,0,1-3.569-.1v1.7a12.37,12.37,0,0,0,3.953.722c2.111,0,4.306-1.161,4.586-10.573v-6.942Z" transform="translate(0 -1.293)" fill="#fff"/>
    <path id="パス_3320" data-name="パス 3320" d="M406.532,293.685h-9.868v-3.77h-3.272v3.77H383.385v1.736h10.008v13.911c0,1.1-3.858.454-3.858.454v1.791a25.056,25.056,0,0,0,4.718.888,2.312,2.312,0,0,0,2.412-2.6v-14.44h9.868Z" transform="translate(-141.249 -0.967)" fill="#fff"/>
    <path id="パス_3321" data-name="パス 3321" d="M259.832,299.192h-3.691c-4.25,7.16-12.918,9.33-12.918,9.33v1.411a31.272,31.272,0,0,0,8.7-3.186v10.238h2.712V305A16.769,16.769,0,0,0,259.832,299.192Z" transform="translate(-72.123 -5.542)" fill="#fff"/>
    <path id="パス_3322" data-name="パス 3322" d="M334.744,315.818V319.2s15.308-1.017,21.39-15.46H354.2S349.647,314.57,334.744,315.818Z" transform="translate(-117.26 -7.783)" fill="#fff"/>
    <path id="パス_3323" data-name="パス 3323" d="M388.208,307.7s-3.088,6.123-5.872,10.538h-1.968s3.449-7.344,4.027-10.538Z" transform="translate(-139.761 -9.738)" fill="#fff"/>
    <path id="パス_3324" data-name="パス 3324" d="M425.539,318.239a75.645,75.645,0,0,0-5.2-10.538H418.37a92.611,92.611,0,0,1,3.355,10.538Z" transform="translate(-158.503 -9.738)" fill="#fff"/>
    <path id="パス_3325" data-name="パス 3325" d="M335.24,292.995a61.168,61.168,0,0,1,10.82,1.993v3.418a31.742,31.742,0,0,0-10.82-3.675Z" transform="translate(-117.504 -2.486)" fill="#fff"/>
    <path id="パス_3326" data-name="パス 3326" d="M501.291,312.732s-2.753-6.252-5.536-11.012h-1.969s1.042,2.532,2.031,5.332c-5.536.833-10,1.3-13.187,1.559,6.073-12.062,7.208-17.713,7.208-17.713h-4.026a109.02,109.02,0,0,1-5.586,17.888c-2.064.132-3.166.148-3.166.148v3.31a156.883,156.883,0,0,0,19.193-3.931,32.363,32.363,0,0,1,1.224,4.419Z" transform="translate(-187.448 -1.451)" fill="#fff"/>
    <rect id="長方形_77" data-name="長方形 77" width="1.258" height="3.25" transform="translate(169.503 289.472)" fill="#fff"/>
    <rect id="長方形_78" data-name="長方形 78" width="1.258" height="3.25" transform="translate(172.304 289.472)" fill="#fff"/>
    <g id="グループ_1927" data-name="グループ 1927" transform="translate(315.68 288.389)">
      <path id="パス_3327" data-name="パス 3327" d="M535.678,288.811v5.263h3.113v1.175h-3.033a17,17,0,0,0,3.417,7.777l-.749,1.062a21.583,21.583,0,0,1-2.749-3.62V312.84h-2.664V301.565a20.932,20.932,0,0,1-3.731,5.31l-.789-1.108a22.043,22.043,0,0,0,4.331-10.517h-3.578v-1.175h3.767v-5.263Z" transform="translate(-528.494 -288.811)" fill="#fff"/>
    </g>
    <path id="パス_3328" data-name="パス 3328" d="M553.676,290.115a30.27,30.27,0,0,1-1.561,3.548h2.906v-4.847h2.448v4.847h5.246v1.174h-5.246V299.7h5.77v1.174h-4.333a20.293,20.293,0,0,0,4.963,8.249l-.434,1.356a18.821,18.821,0,0,1-5.965-7.106v9.464h-2.448v-9.464a22.353,22.353,0,0,1-7.5,7.628l-.329-1.5a19.6,19.6,0,0,0,6.348-8.629h-5.08V299.7h6.565v-4.868h-3.606a18.334,18.334,0,0,1-2.529,3.21l-1.183-.678a17.072,17.072,0,0,0,3.177-7.633Z" transform="translate(-222.034 -0.425)" fill="#fff"/>
    <path id="パス_3329" data-name="パス 3329" d="M623.883,292.484a34.436,34.436,0,0,0-2.538-4.067l1.531-.462a26.444,26.444,0,0,1,3.663,3.688Z" transform="translate(-258.607)" fill="#fff"/>
    <path id="パス_3330" data-name="パス 3330" d="M611.062,307.422c-1,3.237-1.964,5.481-4.278,5.481-2.179,0-3.847-2.3-4.17-2.766-2.663-3.837-3.632-8.885-4.17-15.305H585.61v-1.174h12.753c-.021-.535-.1-3.989-.157-4.847h3.02c-.021.19-.064,2.4-.064,2.743,0,.757,0,.85.054,2.1h9.255v1.174H601.3c.538,6.5,1.507,10.79,3.9,13.973.619.809,1.077,1.175,1.56,1.175.592,0,1.6-.15,2.745-3.431Z" transform="translate(-240.983 -0.423)" fill="#fff"/>
    <path id="パス_3331" data-name="パス 3331" d="M585.631,320.7a43.7,43.7,0,0,0,4.691-.885V311.48h-4.079V310.3h11.085v1.176H593.12v7.628c.511-.131,2.582-.674,5.891-1.665l-.012,1.44a99.492,99.492,0,0,1-13.368,4.555Z" transform="translate(-240.993 -11.022)" fill="#fff"/>
    <path id="パス_3332" data-name="パス 3332" d="M660.339,322.352c-5.424,1.021-11.47,1.937-17.173,2.546l-.4-2.621c.351.018.987.039,1.956.039.591,0,.9-.013,1.328-.039.161-.261,2.421-4.45,3.632-7.294h-8.219v-1.174h23.7v1.174H653.31a72.975,72.975,0,0,1-5,7.19c6.026-.392,7.24-.529,11.561-.977Z" transform="translate(-268.527 -12.751)" fill="#fff"/>
    <path id="パス_3333" data-name="パス 3333" d="M671.563,319.558l1.409-.457a50.777,50.777,0,0,1,5.928,7.648l-3.142,1.108A39.651,39.651,0,0,0,671.563,319.558Z" transform="translate(-283.373 -15.361)" fill="#fff"/>
    <path id="パス_3334" data-name="パス 3334" d="M654.4,288.46c2.277,3.971,6.05,6.334,10.741,8l-.537,1.348c-5.349-1.665-8.916-3.36-12.29-7.071-3.238,3.758-8.065,5.858-12.1,7.047l-.59-1.277c4.061-1.57,8.684-4.407,10.659-8.046Z" transform="translate(-267.621 -0.249)" fill="#fff"/>
    <path id="パス_3335" data-name="パス 3335" d="M722.82,288.811V296.8h5.4v1.173h-5.4v13.157h5.887v1.173H713.075v-1.173H720.1V297.975h-5.116V296.8H720.1v-7.991Z" transform="translate(-303.846 -0.422)" fill="#fff"/>
    <path id="パス_3336" data-name="パス 3336" d="M701.14,288.821v5.258h3.39a19.894,19.894,0,0,1-2.821,5.639,14.443,14.443,0,0,0,4.166,4.144l-.35,1.09a17.013,17.013,0,0,1-4.359-2.766v10.657H698.53v-9.9a28.589,28.589,0,0,1-4.251,3.106l-.5-1.3a18.593,18.593,0,0,0,7.09-9.495h-6.4v-1.176h4.007v-5.258Z" transform="translate(-294.331 -0.427)" fill="#fff"/>
    <rect id="長方形_79" data-name="長方形 79" width="14.833" height="1.175" transform="translate(377.364 296.378)" fill="#fff"/>
  </g>
</svg>
