<svg xmlns="http://www.w3.org/2000/svg" width="255.222" height="21.985" viewBox="0 0 255.222 21.985">
  <g id="グループ_15" data-name="グループ 15" transform="translate(8.077 146.63)">
    <path id="パス_27" data-name="パス 27" d="M16.057-125l2.13-5.87,6.934.007,1.864,5.862H32.9L25-146.245H18.662L11.949-128.8c-2.562.02-6.034-.016-7.761-.016-3.666,0-6.344-2.707-6.344-6.844,0-4.291,2.469-7,6.344-7a10.216,10.216,0,0,1,5,1.218l.281-4.138a17.33,17.33,0,0,0-6.483-1.036c-5,0-11.068,3.1-11.068,10.893,0,6.723,4.765,10.712,11.5,10.712Zm2.75-8.339,2.926-8.822H21.8l2.54,8.822Z" fill="#980e1a"/>
    <path id="パス_28" data-name="パス 28" d="M70.977-130.872l-6.934-.007-2.13,5.87H56.341l8.176-21.239h6.341l7.9,21.239H72.841Zm-3.32-11.3h-.071L64.66-133.35h5.534Z" fill="#980e1a"/>
    <path id="パス_29" data-name="パス 29" d="M126.216-130.872l-6.932-.007-2.131,5.87h-5.567l8.176-21.239h6.344L134-125.009h-5.919Zm-3.318-11.3h-.071L119.9-133.35h5.537Z" fill="#980e1a"/>
    <path id="パス_30" data-name="パス 30" d="M35.091-146.248h6.767l7.154,14.725h.071v-14.725h5.076v21.235H47.32L40.238-140.38h-.073v15.367H35.091Z" fill="#980e1a"/>
    <path id="パス_31" data-name="パス 31" d="M80.975-146.248h8.742c5.532,0,11,2.8,11,10.8,0,7.333-5.534,10.439-11.736,10.439h-8Zm5.78,17.525H88.59c4.193,0,6.06-2.86,6.06-6.725,0-4.38-1.936-7.089-6.414-7.089H86.755Z" fill="#980e1a"/>
    <path id="パス_32" data-name="パス 32" d="M103.59-146.248h5.782v21.235H103.59Z" fill="#980e1a"/>
    <path id="パス_33" data-name="パス 33" d="M136.187-146.248h6.766l7.154,14.725h.071v-14.725h5.074v21.235h-6.836l-7.082-15.363h-.071v15.363h-5.076Z" fill="#980e1a"/>
    <path id="パス_34" data-name="パス 34" d="M178.429-133.835h-5.992v8.822h-5.781v-21.235h5.781v9.708h5.992v-9.708h5.778v21.235h-5.778Z" fill="#980e1a"/>
    <path id="パス_35" data-name="パス 35" d="M197.282-146.614c7.085,0,10.466,4.747,10.466,10.983s-3.381,10.986-10.466,10.986-10.432-4.749-10.432-10.986S190.2-146.614,197.282-146.614Zm0,18.377c3.348,0,4.543-3.317,4.543-7.394s-1.195-7.393-4.543-7.393-4.513,3.319-4.513,7.393S193.932-128.237,197.282-128.237Z" fill="#980e1a"/>
    <path id="パス_36" data-name="パス 36" d="M247.145-125.013v-3.71H236.636v-5.4H246.3v-2.7h-9.664v-5.714h10.085v-3.711H228.028l-4.88,13.659h-.07L219.1-146.248h-8.707v21.235h5.287v-16.8h.073l5.321,16.8h3.8l6.115-16.8h.071v16.8h16.089Z" fill="#980e1a"/>
  </g>
</svg>
