<svg id="スケジュールカレンダーのアイコン素材" xmlns="http://www.w3.org/2000/svg" width="29.135" height="31.417" viewBox="0 0 29.135 31.417">
  <rect id="長方形_194" data-name="長方形 194" width="3.193" height="3.193" transform="translate(5.987 13.257)" fill="#980e1a"/>
  <rect id="長方形_203" data-name="長方形 203" width="3.193" height="3.193" transform="translate(10.605 13.257)" fill="#980e1a"/>
  <rect id="長方形_195" data-name="長方形 195" width="3.193" height="3.193" transform="translate(19.955 13.257)" fill="#980e1a"/>
  <rect id="長方形_196" data-name="長方形 196" width="3.193" height="3.193" transform="translate(15.299 13.257)" fill="#980e1a"/>
  <rect id="長方形_197" data-name="長方形 197" width="3.193" height="3.193" transform="translate(5.987 18.246)" fill="#980e1a"/>
  <rect id="長方形_198" data-name="長方形 198" width="3.193" height="3.193" transform="translate(15.299 18.246)" fill="#980e1a"/>
  <rect id="長方形_204" data-name="長方形 204" width="3.193" height="3.193" transform="translate(19.917 18.246)" fill="#980e1a"/>
  <rect id="長方形_199" data-name="長方形 199" width="3.193" height="3.193" transform="translate(10.643 18.246)" fill="#980e1a"/>
  <rect id="長方形_200" data-name="長方形 200" width="3.193" height="3.193" transform="translate(19.955 23.235)" fill="#980e1a"/>
  <rect id="長方形_201" data-name="長方形 201" width="3.193" height="3.193" transform="translate(15.299 23.235)" fill="#980e1a"/>
  <rect id="長方形_202" data-name="長方形 202" width="3.193" height="3.193" transform="translate(10.643 23.235)" fill="#980e1a"/>
  <rect id="長方形_205" data-name="長方形 205" width="3.193" height="3.193" transform="translate(6.025 23.235)" fill="#980e1a"/>
  <path id="パス_7848" data-name="パス 7848" d="M49.921,55.046h-2.6v2.489a1.7,1.7,0,0,1-1.706,1.684h-3.39a1.7,1.7,0,0,1-1.706-1.684V55.046h-4.21v2.466a1.718,1.718,0,0,1-1.725,1.708H31.236a1.718,1.718,0,0,1-1.725-1.708V55.046h-2.6a3.052,3.052,0,0,0-3.062,3.034V80.686a3.052,3.052,0,0,0,3.062,3.034H49.921a3.054,3.054,0,0,0,3.067-3.034V58.08A3.054,3.054,0,0,0,49.921,55.046Zm.872,25.581a.85.85,0,0,1-.9.9H26.946a.85.85,0,0,1-.9-.9V62.767H50.793Z" transform="translate(-23.853 -52.303)" fill="#980e1a"/>
  <path id="パス_7849" data-name="パス 7849" d="M133.724,5.009h2.609a.4.4,0,0,0,.4-.4V1a1.007,1.007,0,0,0-1.01-1h-1.391a1.007,1.007,0,0,0-1.01,1v3.61A.4.4,0,0,0,133.724,5.009Z" transform="translate(-125.969 0)" fill="#980e1a"/>
  <path id="パス_7850" data-name="パス 7850" d="M133.724,5.009h2.609a.4.4,0,0,0,.4-.4V1a1.007,1.007,0,0,0-1.01-1h-1.391a1.007,1.007,0,0,0-1.01,1v3.61A.4.4,0,0,0,133.724,5.009Z" transform="translate(-114.809 0)" fill="#980e1a"/>
</svg>
