<svg xmlns="http://www.w3.org/2000/svg" width="364" height="245" viewBox="0 0 364 245">
  <g id="グループ_2606" data-name="グループ 2606" transform="translate(2145 -2596)">
    <rect id="長方形_254" data-name="長方形 254" width="364" height="245" transform="translate(-2145 2596)" fill="#faf2f2"/>
    <g id="グループ_15" data-name="グループ 15" transform="translate(-2105.923 2852.545)">
      <path id="パス_27" data-name="パス 27" d="M20.443-121.075l2.517-6.937,8.194.008,2.2,6.927h7l-9.336-25.1h-7.5l-7.933,20.609c-3.028.024-7.13-.019-9.171-.019-4.332,0-7.5-3.2-7.5-8.088,0-5.071,2.918-8.272,7.5-8.272a12.073,12.073,0,0,1,5.914,1.439l.332-4.89A20.48,20.48,0,0,0,5-146.619c-5.914,0-13.079,3.663-13.079,12.872,0,7.945,5.631,12.659,13.59,12.659Zm3.25-9.854,3.458-10.425h.08l3,10.425Z" fill="#980e1a"/>
      <path id="パス_28" data-name="パス 28" d="M73.637-128.078l-8.194-.008-2.517,6.937H56.341L66-146.248H73.5l9.336,25.1H75.839Zm-3.923-13.353h-.084l-3.458,10.425h6.54Z" transform="translate(11.706 0.069)" fill="#980e1a"/>
      <path id="パス_29" data-name="パス 29" d="M128.875-128.078l-8.192-.008-2.518,6.937h-6.579l9.662-25.1h7.5l9.328,25.1h-6.995Zm-3.921-13.353h-.084l-3.458,10.425h6.543Z" transform="translate(21.745 0.069)" fill="#980e1a"/>
      <path id="パス_30" data-name="パス 30" d="M35.091-146.248h8l8.454,17.4h.084v-17.4h6v25.094H49.542l-8.369-18.159h-.086v18.159h-6Z" transform="translate(7.844 0.069)" fill="#980e1a"/>
      <path id="パス_31" data-name="パス 31" d="M80.975-146.248H91.306c6.537,0,13,3.309,13,12.763,0,8.666-6.54,12.336-13.869,12.336H80.982Zm6.83,20.71h2.168c4.955,0,7.161-3.38,7.161-7.947,0-5.176-2.288-8.377-7.58-8.377h-1.75Z" transform="translate(16.182 0.069)" fill="#980e1a"/>
      <path id="パス_32" data-name="パス 32" d="M103.59-146.248h6.833v25.094H103.59Z" transform="translate(20.292 0.069)" fill="#980e1a"/>
      <path id="パス_33" data-name="パス 33" d="M136.187-146.248h8l8.454,17.4h.084v-17.4h6v25.094h-8.078l-8.369-18.155h-.084v18.155h-6Z" transform="translate(26.215 0.069)" fill="#980e1a"/>
      <path id="パス_34" data-name="パス 34" d="M180.568-131.579h-7.081v10.425h-6.831v-25.094h6.831v11.472h7.081v-11.472H187.4v25.094h-6.828Z" transform="translate(31.752 0.069)" fill="#980e1a"/>
      <path id="パス_35" data-name="パス 35" d="M199.178-146.614c8.372,0,12.368,5.61,12.368,12.979s-4,12.982-12.368,12.982-12.328-5.612-12.328-12.982S190.805-146.614,199.178-146.614Zm0,21.716c3.956,0,5.368-3.92,5.368-8.738s-1.412-8.736-5.368-8.736-5.333,3.922-5.333,8.736S195.219-124.9,199.178-124.9Z" transform="translate(35.421 0.003)" fill="#980e1a"/>
      <path id="パス_36" data-name="パス 36" d="M253.824-121.154v-4.384H241.405v-6.381h11.42v-3.191h-11.42v-6.752h11.918v-4.385h-22.09l-5.767,16.141h-.083l-4.706-16.141H210.389v25.094h6.248v-19.853h.086l6.288,19.853h4.49l7.226-19.853h.084v19.853h19.013Z" transform="translate(39.699 0.069)" fill="#980e1a"/>
    </g>
  </g>
</svg>
