<svg xmlns="http://www.w3.org/2000/svg" width="56.444" height="12.744" viewBox="0 0 56.444 12.744">
  <path id="パス_3264" data-name="パス 3264" d="M-25.643-7.924a.928.928,0,0,0,.98-.924.937.937,0,0,0-.98-.924.941.941,0,0,0-.994.924A.932.932,0,0,0-25.643-7.924ZM-26.651.112a3.233,3.233,0,0,0,2.058-1.148l-.14-.182a2.021,2.021,0,0,1-1.106.56c-.21,0-.322-.084-.322-.364.014-.126.028-.294.07-.518l.98-5.068-.1-.168-2.618.448-.042.168.378.084c.6.14.63.462.5,1.092l-.7,3.7C-27.869-.35-27.533.112-26.651.112Zm5.362.07c1.414,0,2.828-.84,2.828-2.212,0-.91-.616-1.316-1.848-1.932-.91-.462-1.2-.7-1.2-1.2a1.454,1.454,0,0,1,1.456-1.358.974.974,0,0,1,.224.028c.126,1.022.434,1.554.882,1.554.406,0,.854-.336.854-.672,0-.644-.742-1.2-2.1-1.2-1.638,0-2.73,1.008-2.73,2.212,0,.924.6,1.372,1.652,1.876.938.462,1.386.756,1.386,1.288a1.392,1.392,0,0,1-1.568,1.3,1.582,1.582,0,0,1-.49-.07c-.154-.994-.392-1.568-.924-1.568-.406,0-.868.336-.868.714C-23.739-.406-22.857.182-21.289.182Zm6.51,0c1.414,0,2.828-.84,2.828-2.212,0-.91-.616-1.316-1.848-1.932-.91-.462-1.2-.7-1.2-1.2a1.454,1.454,0,0,1,1.456-1.358.974.974,0,0,1,.224.028c.126,1.022.434,1.554.882,1.554.406,0,.854-.336.854-.672,0-.644-.742-1.2-2.1-1.2-1.638,0-2.73,1.008-2.73,2.212,0,.924.6,1.372,1.652,1.876.938.462,1.386.756,1.386,1.288a1.392,1.392,0,0,1-1.568,1.3,1.582,1.582,0,0,1-.49-.07c-.154-.994-.392-1.568-.924-1.568-.406,0-.868.336-.868.714C-17.229-.406-16.347.182-14.779.182Zm6.02-.014c1.218,0,2.226-1.638,2.94-2.856l-.14.756C-6.2-.616-6.085.112-5.077.112A3.106,3.106,0,0,0-3.019-1.05l-.126-.168a1.954,1.954,0,0,1-1.12.56c-.322,0-.364-.266-.238-.882l.98-5.082h-1.54l-.658,3.4C-6.169-2.366-7.429-.812-8.1-.812c-.266,0-.392-.182-.392-.434A6.194,6.194,0,0,1-8.381-2l.9-4.592-.1-.168-2.618.434-.042.168.378.084c.658.154.644.42.518,1.05L-9.963-1.89a4.148,4.148,0,0,0-.1.756A1.186,1.186,0,0,0-8.759.168Zm8.54-3.234c2.884-.154,4.466-.812,4.466-2.156,0-.91-.686-1.6-2.24-1.6A4.161,4.161,0,0,0-1.829-2.632,2.56,2.56,0,0,0,.915.168a3.726,3.726,0,0,0,2.744-1.26L3.5-1.26A2.554,2.554,0,0,1,1.867-.7C.7-.7-.205-1.442-.219-3.066Zm0-.252C-.135-5,.817-6.426,1.727-6.426c.574,0,.84.476.812,1.162C2.511-4.27,1.965-3.6-.219-3.318ZM6.109.084a.986.986,0,0,0,.98-.994.974.974,0,0,0-.98-.98.977.977,0,0,0-.994.98A.989.989,0,0,0,6.109.084Zm7.346.132c2.718,0,4.68-2.448,5.292-6.012a11.6,11.6,0,0,0,.2-2.034c0-2.646-1.044-4.7-3.78-4.7-2.718,0-4.68,2.448-5.292,6.03a12.61,12.61,0,0,0-.2,2.124C9.675-1.782,10.755.216,13.455.216Zm-.018-.45c-1.224,0-1.728-1.044-1.728-2.88a20.614,20.614,0,0,1,.4-3.546c.648-3.618,1.566-5.418,3.06-5.418,1.206,0,1.746,1.044,1.746,2.88a21.55,21.55,0,0,1-.4,3.6C15.867-2,14.949-.234,13.437-.234ZM26.325,0l1.71-3.438h-.27l-.342.432c-1.044,1.314-1.656,1.494-3.564,1.53l-2.628.054,3.618-3.024c2.52-2.106,3.726-3.2,3.726-5.328,0-1.638-1.134-2.718-3.042-2.718-1.944,0-3.312,1.386-4.464,3.132l.27.2c1.134-1.26,1.962-1.944,3.222-1.944A1.814,1.814,0,0,1,26.595-9.2c0,1.692-.882,2.862-3.2,5.076l-4.1,3.888L19.4,0Z" transform="translate(27.869 12.528)" fill="#004d8f"/>
</svg>
