<svg xmlns="http://www.w3.org/2000/svg" width="56.426" height="12.744" viewBox="0 0 56.426 12.744">
  <path id="パス_3265" data-name="パス 3265" d="M-25.544-7.924a.928.928,0,0,0,.98-.924.937.937,0,0,0-.98-.924.941.941,0,0,0-.994.924A.932.932,0,0,0-25.544-7.924ZM-26.552.112a3.233,3.233,0,0,0,2.058-1.148l-.14-.182a2.021,2.021,0,0,1-1.106.56c-.21,0-.322-.084-.322-.364.014-.126.028-.294.07-.518l.98-5.068-.1-.168-2.618.448-.042.168.378.084c.6.14.63.462.5,1.092l-.7,3.7C-27.77-.35-27.434.112-26.552.112Zm5.362.07c1.414,0,2.828-.84,2.828-2.212,0-.91-.616-1.316-1.848-1.932-.91-.462-1.2-.7-1.2-1.2a1.454,1.454,0,0,1,1.456-1.358.974.974,0,0,1,.224.028c.126,1.022.434,1.554.882,1.554.406,0,.854-.336.854-.672,0-.644-.742-1.2-2.1-1.2-1.638,0-2.73,1.008-2.73,2.212,0,.924.6,1.372,1.652,1.876.938.462,1.386.756,1.386,1.288a1.392,1.392,0,0,1-1.568,1.3,1.582,1.582,0,0,1-.49-.07C-22-1.2-22.24-1.778-22.772-1.778c-.406,0-.868.336-.868.714C-23.64-.406-22.758.182-21.19.182Zm6.51,0c1.414,0,2.828-.84,2.828-2.212,0-.91-.616-1.316-1.848-1.932-.91-.462-1.2-.7-1.2-1.2a1.454,1.454,0,0,1,1.456-1.358.974.974,0,0,1,.224.028c.126,1.022.434,1.554.882,1.554.406,0,.854-.336.854-.672,0-.644-.742-1.2-2.1-1.2-1.638,0-2.73,1.008-2.73,2.212,0,.924.6,1.372,1.652,1.876.938.462,1.386.756,1.386,1.288a1.392,1.392,0,0,1-1.568,1.3,1.582,1.582,0,0,1-.49-.07c-.154-.994-.392-1.568-.924-1.568-.406,0-.868.336-.868.714C-17.13-.406-16.248.182-14.68.182ZM-8.66.168c1.218,0,2.226-1.638,2.94-2.856l-.14.756C-6.1-.616-5.986.112-4.978.112A3.106,3.106,0,0,0-2.92-1.05l-.126-.168a1.954,1.954,0,0,1-1.12.56c-.322,0-.364-.266-.238-.882l.98-5.082h-1.54l-.658,3.4C-6.07-2.366-7.33-.812-8-.812c-.266,0-.392-.182-.392-.434A6.194,6.194,0,0,1-8.282-2l.9-4.592-.1-.168-2.618.434-.042.168.378.084c.658.154.644.42.518,1.05L-9.864-1.89a4.148,4.148,0,0,0-.1.756A1.186,1.186,0,0,0-8.66.168ZM-.12-3.066c2.884-.154,4.466-.812,4.466-2.156,0-.91-.686-1.6-2.24-1.6A4.161,4.161,0,0,0-1.73-2.632,2.56,2.56,0,0,0,1.014.168a3.726,3.726,0,0,0,2.744-1.26L3.6-1.26A2.554,2.554,0,0,1,1.966-.7C.8-.7-.106-1.442-.12-3.066Zm0-.252C-.036-5,.916-6.426,1.826-6.426c.574,0,.84.476.812,1.162C2.61-4.27,2.064-3.6-.12-3.318ZM6.208.084a.986.986,0,0,0,.98-.994.974.974,0,0,0-.98-.98.977.977,0,0,0-.994.98A.989.989,0,0,0,6.208.084Zm7.346.132c2.718,0,4.68-2.448,5.292-6.012a11.6,11.6,0,0,0,.2-2.034c0-2.646-1.044-4.7-3.78-4.7-2.718,0-4.68,2.448-5.292,6.03a12.61,12.61,0,0,0-.2,2.124C9.774-1.782,10.854.216,13.554.216Zm-.018-.45c-1.224,0-1.728-1.044-1.728-2.88a20.614,20.614,0,0,1,.4-3.546c.648-3.618,1.566-5.418,3.06-5.418,1.206,0,1.746,1.044,1.746,2.88a21.55,21.55,0,0,1-.4,3.6C15.966-2,15.048-.234,13.536-.234ZM21.8.2c2.61,0,6.1-2,6.1-5.058,0-1.314-.9-2.106-2.538-2.25,2.07-.936,3.294-1.872,3.294-3.42,0-1.1-.9-1.944-2.538-1.944a6.177,6.177,0,0,0-4.392,2.214l.2.252a5,5,0,0,1,3.06-1.26c1.134,0,1.71.63,1.71,1.4,0,1.224-.9,2.106-4.554,3.888l.108.36a4.869,4.869,0,0,1,1.62-.288c1.368,0,2.25.648,2.25,1.926A3.668,3.668,0,0,1,22.788-.4c-.576-1.008-1.062-1.44-1.836-1.44A1.048,1.048,0,0,0,19.908-.828C19.908-.234,20.61.2,21.8.2Z" transform="translate(27.77 12.528)" fill="#004d8f"/>
</svg>
