<svg xmlns="http://www.w3.org/2000/svg" width="53.6" height="12.798" viewBox="0 0 53.6 12.798">
  <path id="パス_3263" data-name="パス 3263" d="M-24.518-7.924a.928.928,0,0,0,.98-.924.937.937,0,0,0-.98-.924.941.941,0,0,0-.994.924A.932.932,0,0,0-24.518-7.924ZM-25.526.112a3.233,3.233,0,0,0,2.058-1.148l-.14-.182a2.021,2.021,0,0,1-1.106.56c-.21,0-.322-.084-.322-.364.014-.126.028-.294.07-.518l.98-5.068-.1-.168-2.618.448-.042.168.378.084c.6.14.63.462.5,1.092l-.7,3.7C-26.744-.35-26.408.112-25.526.112Zm5.362.07c1.414,0,2.828-.84,2.828-2.212,0-.91-.616-1.316-1.848-1.932-.91-.462-1.2-.7-1.2-1.2a1.454,1.454,0,0,1,1.456-1.358.974.974,0,0,1,.224.028c.126,1.022.434,1.554.882,1.554.406,0,.854-.336.854-.672,0-.644-.742-1.2-2.1-1.2-1.638,0-2.73,1.008-2.73,2.212,0,.924.6,1.372,1.652,1.876.938.462,1.386.756,1.386,1.288a1.392,1.392,0,0,1-1.568,1.3,1.582,1.582,0,0,1-.49-.07c-.154-.994-.392-1.568-.924-1.568-.406,0-.868.336-.868.714C-22.614-.406-21.732.182-20.164.182Zm6.51,0c1.414,0,2.828-.84,2.828-2.212,0-.91-.616-1.316-1.848-1.932-.91-.462-1.2-.7-1.2-1.2a1.454,1.454,0,0,1,1.456-1.358A.974.974,0,0,1-12.2-6.5c.126,1.022.434,1.554.882,1.554.406,0,.854-.336.854-.672,0-.644-.742-1.2-2.1-1.2-1.638,0-2.73,1.008-2.73,2.212,0,.924.6,1.372,1.652,1.876.938.462,1.386.756,1.386,1.288a1.392,1.392,0,0,1-1.568,1.3,1.582,1.582,0,0,1-.49-.07c-.154-.994-.392-1.568-.924-1.568-.406,0-.868.336-.868.714C-16.1-.406-15.222.182-13.654.182Zm6.02-.014c1.218,0,2.226-1.638,2.94-2.856l-.14.756C-5.072-.616-4.96.112-3.952.112A3.106,3.106,0,0,0-1.894-1.05l-.126-.168a1.954,1.954,0,0,1-1.12.56c-.322,0-.364-.266-.238-.882l.98-5.082h-1.54L-4.6-3.22C-5.044-2.366-6.3-.812-6.976-.812c-.266,0-.392-.182-.392-.434A6.194,6.194,0,0,1-7.256-2l.9-4.592-.1-.168-2.618.434-.042.168.378.084c.658.154.644.42.518,1.05L-8.838-1.89a4.148,4.148,0,0,0-.1.756A1.186,1.186,0,0,0-7.634.168ZM.906-3.066C3.79-3.22,5.372-3.878,5.372-5.222c0-.91-.686-1.6-2.24-1.6A4.161,4.161,0,0,0-.7-2.632,2.56,2.56,0,0,0,2.04.168a3.726,3.726,0,0,0,2.744-1.26L4.63-1.26A2.554,2.554,0,0,1,2.992-.7C1.83-.7.92-1.442.906-3.066Zm0-.252C.99-5,1.942-6.426,2.852-6.426c.574,0,.84.476.812,1.162C3.636-4.27,3.09-3.6.906-3.318ZM7.234.084a.986.986,0,0,0,.98-.994.974.974,0,0,0-.98-.98.977.977,0,0,0-.994.98A.989.989,0,0,0,7.234.084ZM14.58.216c2.718,0,4.68-2.448,5.292-6.012a11.6,11.6,0,0,0,.2-2.034c0-2.646-1.044-4.7-3.78-4.7-2.718,0-4.68,2.448-5.292,6.03a12.61,12.61,0,0,0-.2,2.124C10.8-1.782,11.88.216,14.58.216Zm-.018-.45c-1.224,0-1.728-1.044-1.728-2.88a20.614,20.614,0,0,1,.4-3.546c.648-3.618,1.566-5.418,3.06-5.418,1.206,0,1.746,1.044,1.746,2.88a21.55,21.55,0,0,1-.4,3.6C16.992-2,16.074-.234,14.562-.234Zm6.084.252c.342,0,2.34-.036,3.006-.036s2.5.036,2.844.036l.036-.27L25.9-.36c-.954-.162-1.1-.486-.7-2.718l1.656-9.36-.216-.144a22.874,22.874,0,0,1-3.888.9l-.054.288h.5c1.188,0,1.44.234,1.08,2.268L23.2-3.078c-.4,2.25-.63,2.556-1.746,2.718L20.7-.252Z" transform="translate(26.744 12.582)" fill="#004d8f"/>
</svg>
