<svg xmlns="http://www.w3.org/2000/svg" width="156.871" height="103.68" viewBox="0 0 156.871 103.68">
  <g id="グループ_5972" data-name="グループ 5972" transform="translate(-348 0)">
    <path id="パス_3249" data-name="パス 3249" d="M3.69-30.33c0-17.37-6.39-32.22-24.03-32.22-16.56,0-23.49,13.68-23.49,31.32C-43.83-13.86-37.44.99-19.8.99-3.24.99,3.69-12.69,3.69-30.33ZM-10.8-28.62c0,17.37-1.89,26.37-8.73,26.37-8.1,0-9.81-10.71-9.81-30.69,0-17.37,1.89-26.37,8.73-26.37C-12.51-59.31-10.8-48.6-10.8-28.62ZM45.9-1.71l-3.69-.63c-4.5-.81-5.31-2.61-5.31-16.2V-61.83l-1.62-.99c-4.32,1.62-15.39,4.05-21.51,4.68v1.89h2.61c5.22,0,6.93,1.26,6.93,12.78v24.93c0,13.68-.54,15.3-6.03,16.2l-3.87.63V.09c1.71,0,13.32-.18,16.56-.18S44.19.09,45.9.09Z" transform="translate(424 102.69)" fill="#004d8f"/>
    <g id="グループ_5696" data-name="グループ 5696" transform="translate(356 -2.514)">
      <path id="パス_3250" data-name="パス 3250" d="M-24.75-3.564c0-2-1.1-2.988-3.69-3.852-1.98-.666-2.664-1.242-2.664-2.52a2.052,2.052,0,0,1,2.286-2.088,3.1,3.1,0,0,1,2.97,2.16l.306.648h.342l-.432-2.736a7.433,7.433,0,0,0-3.06-.522c-2.3,0-4.158,1.476-4.158,3.528,0,2.034,1.17,2.934,3.528,3.744,2.088.72,2.808,1.368,2.808,2.628,0,1.422-.99,2.286-2.736,2.286A3.355,3.355,0,0,1-32.508-2.43l-.324-.63h-.324l.432,2.628a7.967,7.967,0,0,0,3.33.594C-26.874.162-24.75-1.332-24.75-3.564Zm15.1-9.126c-.558.36-.774.432-5.868.432-4.9,0-5.04-.072-5.508-.432h-.324l-.414,3.42h.288l.432-.882c.558-1.134,1.1-1.53,2.79-1.566l1.62-.036v8.676c0,2.25-.2,2.538-1.35,2.718l-.666.108v.27c.342,0,2.394-.036,3.06-.036.684,0,2.736.036,3.078.036v-.27l-.666-.108c-1.152-.18-1.35-.468-1.35-2.718v-8.676l1.854.036c1.638.036,2.088.414,2.322,1.566l.18.882h.288l.54-3.42ZM4.7-.27,4.266-.342C3.564-.468,3.15-.99,2.754-2.016L-1.314-12.6h-.36l-1.224.882L-6.606-2.412C-7.128-1.08-7.7-.45-8.478-.306l-.288.054v.27c.36,0,1.494-.036,2.16-.036s1.764.036,2.124.036v-.27l-.54-.072a.981.981,0,0,1-.99-1.044,5.161,5.161,0,0,1,.378-1.584L-5-4.644H-.468L.4-2.3A3.638,3.638,0,0,1,.648-1.188c0,.486-.252.774-.99.864l-.576.072v.27c.342,0,2.358-.036,3.024-.036S4.338.018,4.7.018ZM-4.788-5.22l2.07-5.508L-.684-5.22Zm24.606.162c-.4,0-1.782.036-2.448.036s-2.466-.036-2.826-.036v.27l.684.108c1.026.162,1.26.576,1.26,2.286v.27c0,1.224-.522,1.854-2.2,1.854-2.844,0-4.536-2.106-4.536-6.156,0-3.474,1.566-5.616,4.122-5.616a4.057,4.057,0,0,1,3.762,2.5l.378.7h.324l-.414-2.826a8.226,8.226,0,0,0-3.834-.846c-3.456,0-6.75,2.358-6.75,6.318C7.344-2.07,10.26.2,14.094.2a13.7,13.7,0,0,0,5-.882V-.9c-.738-.288-.846-.486-.846-1.584V-2.7c0-1.35.144-1.836,1.044-2l.522-.09ZM33.048-2.61l-.414.594A2.9,2.9,0,0,1,29.628-.468h-.7c-1.62,0-1.908-.342-1.908-2.25v-3.4l1.368.036c1.944.054,2.3.4,2.412,1.512l.036.36h.342c0-.4-.036-1.512-.036-2.2,0-.666.036-1.8.036-2.178h-.342L30.78-8.1c-.126,1.062-.5,1.368-2.394,1.422l-1.368.036v-5.022a8.156,8.156,0,0,1,1.764-.18h.36a2.945,2.945,0,0,1,2.97,1.476l.468.666h.288l-.54-2.61H30.852c-.342,0-3.546.018-4.212.018s-3.042-.036-3.42-.036v.27l.63.108c.882.144,1.044.594,1.044,2.718v6.156c0,2.124-.162,2.574-1.044,2.718l-.63.108v.27c.378,0,2.682-.036,3.33-.036.684,0,3.276.018,4.32.018H32.8l.558-2.61Z" transform="translate(71 15.204)" fill="#004d8f"/>
      <g id="グループ_5687" data-name="グループ 5687" transform="translate(122.704 3.511)">
        <path id="パス_481" data-name="パス 481" d="M625,934l7.694,10.708h8.09L633.09,934H625Z" transform="translate(-625 -934)" fill="#004d8f"/>
        <path id="パス_482" data-name="パス 482" d="M625,934l7.694,10.708h8.09L633.09,934H625Z" transform="translate(-614.617 -934)" fill="#3495d6"/>
      </g>
      <g id="グループ_5697" data-name="グループ 5697" transform="translate(-8 3.511)">
        <path id="パス_481-2" data-name="パス 481" d="M625,934l7.694,10.708h8.09L633.09,934H625Z" transform="translate(-625 -934)" fill="#004d8f"/>
        <path id="パス_482-2" data-name="パス 482" d="M625,934l7.694,10.708h8.09L633.09,934H625Z" transform="translate(-614.617 -934)" fill="#3495d6"/>
      </g>
    </g>
  </g>
</svg>
