<svg xmlns="http://www.w3.org/2000/svg" width="114.619" height="75.848" viewBox="0 0 114.619 75.848">
  <g id="グループ_5972" data-name="グループ 5972" transform="translate(-101.162 0)">
    <path id="パス_3251" data-name="パス 3251" d="M-1.353-22.242c0-12.738-4.686-23.628-17.622-23.628C-31.119-45.87-36.2-35.838-36.2-22.9-36.2-10.164-31.515.726-18.579.726-6.435.726-1.353-9.306-1.353-22.242Zm-10.626,1.254c0,12.738-1.386,19.338-6.4,19.338-5.94,0-7.194-7.854-7.194-22.506,0-12.738,1.386-19.338,6.4-19.338C-13.233-43.494-11.979-35.64-11.979-20.988Zm47.916,7.722-.66.858C31.779-7.92,29.667-7.392,23-7.062L14.487-6.6,25.839-16.83c6.468-5.874,9.9-10.626,9.9-16.7,0-7.788-4.752-12.078-13.068-12.078-7.524,0-12.276,5.28-15.84,11.748l1.452.924c3.234-3.894,5.478-6.072,10.23-6.072,4.818,0,7.656,3.5,7.656,8.052,0,5.016-2.244,9.306-6.93,14.784L6.3-1.122,6.963,0H33.1l4.29-13.266Z" transform="translate(155.893 75.122)" fill="#004d8f"/>
    <g id="グループ_5696" data-name="グループ 5696" transform="translate(101.162 -1.042)">
      <path id="パス_3252" data-name="パス 3252" d="M-17.875-2.574c0-1.443-.793-2.158-2.665-2.782-1.43-.481-1.924-.9-1.924-1.82a1.482,1.482,0,0,1,1.651-1.508,2.238,2.238,0,0,1,2.145,1.56l.221.468h.247l-.312-1.976a5.368,5.368,0,0,0-2.21-.377,2.751,2.751,0,0,0-3,2.548c0,1.469.845,2.119,2.548,2.7,1.508.52,2.028.988,2.028,1.9,0,1.027-.715,1.651-1.976,1.651a2.423,2.423,0,0,1-2.353-1.547l-.234-.455h-.234l.312,1.9a5.754,5.754,0,0,0,2.405.429C-19.409.117-17.875-.962-17.875-2.574ZM-6.968-9.165c-.4.26-.559.312-4.238.312-3.536,0-3.64-.052-3.978-.312h-.234l-.3,2.47h.208l.312-.637c.4-.819.793-1.105,2.015-1.131l1.17-.026v6.266c0,1.625-.143,1.833-.975,1.963l-.481.078v.2c.247,0,1.729-.026,2.21-.026s1.976.026,2.223.026v-.2L-9.516-.26c-.832-.13-.975-.338-.975-1.963V-8.489l1.339.026c1.183.026,1.508.3,1.677,1.131l.13.637h.208l.39-2.47ZM3.393-.195,3.081-.247c-.507-.091-.806-.468-1.092-1.209L-.949-9.1h-.26l-.884.637L-4.771-1.742C-5.148-.78-5.564-.325-6.123-.221l-.208.039v.2c.26,0,1.079-.026,1.56-.026S-3.5.013-3.237.013v-.2l-.39-.052a.708.708,0,0,1-.715-.754,3.728,3.728,0,0,1,.273-1.144l.455-1.222H-.338l.624,1.69a2.628,2.628,0,0,1,.182.806c0,.351-.182.559-.715.624l-.416.052v.2c.247,0,1.7-.026,2.184-.026S3.133.013,3.393.013ZM-3.458-3.77l1.495-3.978L-.494-3.77Zm17.771.117c-.286,0-1.287.026-1.768.026s-1.781-.026-2.041-.026v.195L11-3.38c.741.117.91.416.91,1.651v.195c0,.884-.377,1.339-1.586,1.339-2.054,0-3.276-1.521-3.276-4.446C7.046-7.15,8.177-8.7,10.023-8.7A2.93,2.93,0,0,1,12.74-6.89l.273.507h.234l-.3-2.041a5.941,5.941,0,0,0-2.769-.611A4.628,4.628,0,0,0,5.3-4.472C5.3-1.5,7.41.143,10.179.143a9.9,9.9,0,0,0,3.614-.637V-.65c-.533-.208-.611-.351-.611-1.144V-1.95c0-.975.1-1.326.754-1.443l.377-.065Zm9.555,1.768-.3.429A2.1,2.1,0,0,1,21.4-.338h-.507c-1.17,0-1.378-.247-1.378-1.625V-4.42l.988.026c1.4.039,1.664.286,1.742,1.092l.026.26h.247c0-.286-.026-1.092-.026-1.586s.026-1.3.026-1.573h-.247l-.039.351c-.091.767-.364.988-1.729,1.027l-.988.026V-8.424a5.89,5.89,0,0,1,1.274-.13h.26a2.127,2.127,0,0,1,2.145,1.066l.338.481h.208l-.39-1.885H22.282c-.247,0-2.561.013-3.042.013s-2.2-.026-2.47-.026v.195l.455.078c.637.1.754.429.754,1.963v4.446c0,1.534-.117,1.859-.754,1.963l-.455.078v.2c.273,0,1.937-.026,2.405-.026.494,0,2.366.013,3.12.013h1.391l.4-1.885Z" transform="translate(56.731 12)" fill="#004d8f"/>
      <g id="グループ_5687" data-name="グループ 5687" transform="translate(95.5 1.043)">
        <path id="パス_481" data-name="パス 481" d="M625,934l5.622,7.824h5.911L630.911,934H625Z" transform="translate(-625 -934)" fill="#004d8f"/>
        <path id="パス_482" data-name="パス 482" d="M625,934l5.622,7.824h5.911L630.911,934H625Z" transform="translate(-617.413 -934)" fill="#3495d6"/>
      </g>
      <g id="グループ_5697" data-name="グループ 5697" transform="translate(0 1.043)">
        <path id="パス_481-2" data-name="パス 481" d="M625,934l5.622,7.824h5.911L630.911,934H625Z" transform="translate(-625 -934)" fill="#004d8f"/>
        <path id="パス_482-2" data-name="パス 482" d="M625,934l5.622,7.824h5.911L630.911,934H625Z" transform="translate(-617.413 -934)" fill="#3495d6"/>
      </g>
    </g>
  </g>
</svg>
