<svg xmlns="http://www.w3.org/2000/svg" width="462.024" height="49.734" viewBox="0 0 462.024 49.734">
  <path id="パス_434" data-name="パス 434" d="M-213.084-36.45c.432,3.24-4.7,10.692-9.072,15.066-.648.648-4.266,3.672-4.266,4.05,0,.162.108.324.378.324.648,0,2.97-1.242,5.184-2.862,2.7-1.944,4.05-3.348,7.344-7.02,2.268-2.592,2.376-2.7,3.4-2.7.324,0,1.782.162,2.106.162,1.3,0,8.748-1.674,8.856-1.674a.584.584,0,0,1,.594.594c0,1.674-10.26,20.088-26.73,29.16-1.674.918-1.836,1.026-1.836,1.242a.484.484,0,0,0,.486.486c.324,0,4.806-1.3,10.746-5.184a66.031,66.031,0,0,0,19.332-20.3c1.89-2.916,2.106-3.24,2.7-3.618,1.782-1.08,2.16-1.3,2.16-2.052a1.957,1.957,0,0,0-1.026-1.35c-.27-.162-1.674-.918-2-1.08-2.214-1.3-2.484-1.458-2.97-1.458a10.089,10.089,0,0,0-2.538.864,30.564,30.564,0,0,1-8.208,2.16c-.216,0-.864,0-.864-.432,0-.27.162-.486.432-.864,1.08-1.35,1.62-2.052,1.62-2.7,0-.216-1.242-3.024-5.022-3.024-.432,0-1.188,0-1.188.54C-213.462-37.908-213.138-36.72-213.084-36.45Zm51.948-1.188c-.216,0-.324.108-.324.378,0,.378,1.62,4.05,4.482,4.05.378,0,11.988-1.026,12.852-1.134,3.132-.27,5.022-.432,5.022-2.106,0-1.566-2.376-2.052-3.294-2.052-.756,0-4.482.918-5.292,1.08a51.654,51.654,0,0,1-8.64.594,13.274,13.274,0,0,1-2.862-.216C-159.516-37.1-160.812-37.638-161.136-37.638Zm-1.35,36.882a.579.579,0,0,0-.108.324.43.43,0,0,0,.486.432,38.166,38.166,0,0,0,9.558-3.51c7.614-3.888,10.962-7.938,15.228-14.418,1.458-2.268,2-3.078,2.916-3.834,1.242-1.026,1.458-1.242,1.458-2.052,0-1.242-3.834-4.428-4.752-4.428a9.276,9.276,0,0,0-1.566.594c-.054,0-3.618.324-3.726.324-2,.216-12.744,1.62-17.172,1.62a15.156,15.156,0,0,1-5.346-.918,7.65,7.65,0,0,0-.972-.432.3.3,0,0,0-.324.27c0,1.512,3.834,6.156,6.156,6.156a23.093,23.093,0,0,0,2.484-.918c2.376-.7,15.93-3.078,17.766-3.078.756,0,1.134.378,1.134,1.026,0,1.134-4.428,12.8-21.276,21.87C-160.866-1.566-162.378-.864-162.486-.756Zm73.062-25.92c1.026-1.3,2.754-3.24,3.672-4.536,2-2.916,2.214-3.24,3.672-4.428a1.362,1.362,0,0,0,.486-1.08c0-2.052-5.454-4.32-6.264-4.32a.533.533,0,0,0-.54.432,6,6,0,0,0,.378.864,3.054,3.054,0,0,1,.432,1.512c0,1.512-4.212,10.692-16.956,21.6-.864.756-2.376,2-3.78,3.24a.49.49,0,0,0-.162.378c0,.216.108.324.27.324.972,0,10.044-5.238,15.336-10.314.432-.432.648-.648.918-.648,1.4,0,1.4,5.67,1.4,7.614,0,2.862-.216,7.02-.54,9.936-.054.54-.594,2.916-.594,3.456,0,1.458,1.836,3.78,3.348,3.78,1.3,0,1.3-1.836,1.3-2.376,0-.7-.324-3.834-.378-4.482-.108-2.106-.162-5.022-.162-6.48,0-7.452.108-8.586.324-9.558.054-.324.648-1.836.648-2.16,0-.486-.216-.7-2.322-2A.872.872,0,0,1-89.424-26.676ZM-49.9-33.8c-.27,0-.378.108-.378.216,0,1.89,4.212,5.346,5.508,5.346a41.166,41.166,0,0,0,4.536-1.566,94.536,94.536,0,0,1,19.278-3.348c.7,0,1.026.432,1.026.81,0,1.4-5.184,6.588-6.7,6.588a16.05,16.05,0,0,1-2.106-.7,8.142,8.142,0,0,0-2.916-.486c-.324,0-1.134.054-1.134.486,0,.216.054.324.486,1.188a6.9,6.9,0,0,1,.7,3.186c0,2.484-1.08,7.074-4.05,11.826A36.78,36.78,0,0,1-45.306-.216c-.972.756-1.08.864-1.08,1.026s.108.27.324.27A14.059,14.059,0,0,0-42.336-.486,29.486,29.486,0,0,0-28.728-17.172c1.89-5.346,2.106-5.994,2.754-6.912C-24.84-25.6-16.578-28.62-14.688-29c1.89-.432,1.89-1.026,1.89-1.4,0-1.836-5.13-7.02-6.372-7.02a18.7,18.7,0,0,0-2.214,1.242c-1.512.594-17.55,3.132-22.356,3.132a23.49,23.49,0,0,1-3.4-.216C-47.574-33.318-49.734-33.8-49.9-33.8ZM25.65-30.24c0-3.186-4.536-6.264-10.314-6.264-.756,0-1.188.27-1.188.486s.27.378.486.486A12.163,12.163,0,0,1,19.548-31.1c1.782,2.7,2.322,3.564,3.78,3.564C24.732-27.54,25.65-28.62,25.65-30.24Zm22.464-.486a.347.347,0,0,0-.27-.27c-.108,0-1.62,1.512-2.484,2.376C36.4-19.764,22.086-10.206,19.44-10.206a8.938,8.938,0,0,1-3.672-1.242,13.444,13.444,0,0,0-1.62-1.026c-.486,0-.54,2.484-.54,2.862,0,2.16,4,5.616,6.912,5.616.81,0,.918-.108,1.944-1.35a37.71,37.71,0,0,1,5.292-4.428C41.8-20.142,48.114-30.24,48.114-30.726ZM80.3-40.284l.108.216a5.991,5.991,0,0,1,1.836,2.484c.648,1.728.648,3.456.648,18.9A111.767,111.767,0,0,1,82.4-6.156c0,.216-.216,1.35-.216,1.566,0,1.4,1.4,5.076,3.024,5.076,1.566,0,1.566-3.564,1.566-4.914,0-.81-.054-2.16-.108-2.754-.216-4.86-.27-7.722-.27-13.446,0-4,.216-4,.756-4,1.674,0,4.212,2.538,5.724,4.536,3.618,4.7,3.78,4.914,5.13,4.914a1.848,1.848,0,0,0,1.944-1.89c0-4.05-8.37-7.992-11.664-8.748-1.566-.378-1.782-.54-1.782-1.728a70.045,70.045,0,0,1,.486-7.506,15.648,15.648,0,0,0,.648-2.268c0-1.728-3.888-3.456-5.832-3.456C81.756-40.77,80.352-40.77,80.3-40.284ZM142.236-26.46c2.268,0,2.268.648,2.268,1.728,0,3.672-.486,4.428-2.268,4.428h-2.214c-2.7,0-5.94-.108-7.074-.162-.378-.054-2.268-.216-2.7-.216-.108,0-.216.054-.216.108s.216.27.27.324l1.134,1.4c.162.162.162.216.432.216.324,0,1.836-.162,2.214-.162,2-.108,4.1-.108,5.67-.108h2.538c1.3,0,1.674.27,1.674,1.08,0,3.672-.864,5.13-2.484,5.13H133.6c-1.458,0-4.59,0-6.318-.108-.54-.054-3.24-.27-3.456-.27-.108,0-.216.054-.216.162a.777.777,0,0,0,.108.162l1.3,1.512c.108.108.216.27.432.27.324,0,1.836-.216,2.214-.216,1.782-.054,4.428-.054,5.67-.054h7.884c.27,0,.864.054.864.648,0,1.62-4.1,10.368-16.254,13.014-1.4.324-1.458.324-1.458.594,0,.378.54.378.864.378a39.339,39.339,0,0,0,7.614-1.35A20.436,20.436,0,0,0,145.422-8.856c.918-2.052,1.08-2.376,2.052-2.376a2.029,2.029,0,0,1,1.674,1.134,30.487,30.487,0,0,0,3.942,5.346c6.1,6.75,13.068,8.208,13.392,8.208.216,0,.27-.162.432-.54a6.55,6.55,0,0,1,1.458-2c.324-.324,2.376-2,2.376-2,0-.216-.216-.216-1.35-.216-10.8,0-18.414-7.992-18.414-9.45,0-.486.918-.486.972-.486h15.12c1.782,0,2.862,0,2.862-.756,0-.432-3.348-3.618-4.158-3.618-.54,0-.7.216-2.214,2-.756.918-2.214.918-3.888.918H148.446c-.81,0-1.3-.216-1.3-1.08,0-.108.648-3.942.648-4,.324-1.026,2.16-1.134,3.294-1.134h8.1c1.944,0,2.916,0,2.916-.864,0-.918-3.294-3.24-4-3.24a.836.836,0,0,0-.432.108c-.162.162-1.188,1.4-1.4,1.674-.81.918-1.08.918-3.672.918h-2.052c-.918,0-2.538-.108-2.538-1.836,0-4.266.378-4.32,2.862-4.32h11.178c1.4,0,2.916,0,2.916-.864,0-.918-3.618-3.456-4.32-3.456-.486,0-2.214,2.16-2.646,2.538s-.7.378-2.916.378H149.85c-1.4,0-1.728-.486-1.728-1.944,0-1.188.216-1.728.81-2.106.594-.432.864-.594.864-.864,0-.594-.756-.756-1.458-.918-1.35-.27-3.672-.594-3.942-.594s-.378.162-.378.432a4.573,4.573,0,0,0,.216.918,19.072,19.072,0,0,1,.378,3.564c0,.864-.216,1.512-2.16,1.512h-5.13c-1.458,0-4.59,0-6.318-.108-.54-.054-3.24-.27-3.456-.27-.108,0-.216.054-.216.108a.409.409,0,0,0,.108.216l1.3,1.458a.481.481,0,0,0,.432.27c.324,0,1.836-.162,2.214-.162,1.782-.108,4.428-.108,5.67-.108ZM161.514-37.1c1.08,0,1.458,0,1.458.7a4.742,4.742,0,0,1-1.134,2.268,6.643,6.643,0,0,0-.972,1.512c0,.162.162.162.27.162.162,0,1.89-.918,2.16-1.026a7.561,7.561,0,0,1,4.158-1.026c.324,0,1.89.108,2.268.108.648,0,1.242-.27,1.242-1.026,0-1.35-4.59-4.482-5.022-4.482-.324,0-2,1.08-2.376,1.188a10.3,10.3,0,0,1-2.592.216h-10.1c-2.268,0-2.592-.756-2.592-2.592a2.15,2.15,0,0,1,.324-1.35c.108-.162.972-1.026.972-1.3,0-.432-.594-.594-.972-.648-.486-.108-4.212-.972-4.536-.972s-.378.216-.378.324c0,.216.486,1.242.54,1.458a18.577,18.577,0,0,1,.162,2.484c0,2.16-.648,2.592-3.078,2.592H130.95c-1.566,0-1.782-.27-2.268-1.026-1.188-2-1.35-2.214-1.62-2.214-.162,0-.216.108-.216,1.026a9.417,9.417,0,0,1-2.322,6.426c-1.674,1.836-1.89,2-1.89,2.7a2.183,2.183,0,0,0,2.214,2c.486,0,2.754,0,4.212-5.076.7-2.322.7-2.43,2.538-2.43ZM213.246-22.95a4.861,4.861,0,0,1-2.592-.594,10.126,10.126,0,0,0-2.646-1.188c-.216,0-.216.432-.216.648,0,.594.27,3.24.27,3.78,0,.27.162,5.886.162,6.48,0,1.242-.27,6.7-.27,7.83,0,.594.054,1.35,1.242,1.35.864,0,2.16-.378,2.484-1.35.324-.81.54-.918,1.4-.918H224.64c.594,0,.972.054,1.134.648.216.756.378,1.242,1.458,1.242.432,0,2.214-.162,2.214-1.944,0-1.08-.108-5.67-.108-6.642,0-.594.162-3.4.162-3.942,0-1.89,0-2.106.216-2.322,1.134-.81,1.3-.918,1.3-1.3a1.122,1.122,0,0,0-.27-.648c-.378-.216-3.4-2.322-3.672-2.322-.378,0-.54.162-.918.594-.432.594-.972.594-1.674.594Zm11.286,6.21c1.4,0,1.458.432,1.458,1.674s0,1.728-1.458,1.728h-11.61c-1.4,0-1.458-.432-1.458-1.674s0-1.728,1.458-1.728Zm-11.61-1.4c-1.35,0-1.4-.486-1.4-1.728s.108-1.62,1.4-1.62h11.61c1.35,0,1.4.486,1.4,1.728s-.108,1.62-1.4,1.62Zm.108,9.774c-1.35,0-1.35-.378-1.35-2.16,0-1.242.324-1.4,1.35-1.4h11.61c.648,0,1.3,0,1.3,1.188,0,2.106,0,2.376-1.35,2.376ZM201.42-20.52c.324.108.324.216.594,1.134.162.486.756,1.242,1.4,1.242a2.088,2.088,0,0,0,1.836-2.16c0-3.726-5.94-6.75-5.994-6.75a.116.116,0,0,0-.108.108c0,.108,1.728,3.4,1.728,4.1,0,.918-.864.918-5.454.918-.378,0-1.242,0-1.242-.486,0-.432,3.078-3.726,3.618-4.428,4.32-5.562,4.428-5.67,5.616-6.21.972-.432,1.08-.486,1.08-.81,0-.81-3.942-3.024-4.212-3.024-.54,0-.594.54-.7,1.35-.324,2.322-3.834,8.262-5.562,10.692-2,2.916-2.538,2.916-3.888,2.916a8.726,8.726,0,0,1-2.754-.27c-.324-.054-1.62-.648-1.89-.648-.162,0-.486,0-.486.378,0,.108.7,1.89,1.08,2.862a10.828,10.828,0,0,0,.648,2,1.119,1.119,0,0,0,.7.486c.324,0,1.512-1.08,1.782-1.188a27.366,27.366,0,0,1,3.834-.81c1.026,0,1.026.918,1.026,1.566,0,8.532-.108,13.986-.216,18.09-.054.324-.108,1.836-.108,2.16,0,1.674.432,1.674,1.242,1.674,2.484,0,2.592-1.242,2.592-3.888,0-1.89-.108-10.1-.108-11.772,0-1.35,0-7.776.108-8.046C197.964-20.466,201.042-20.682,201.42-20.52Zm-7.128-9.072a3.142,3.142,0,0,0-1.188-2.16c-.756-.7-.972-.918-.972-1.35,0-.81,5.454-8.046,5.832-8.208,1.026-.486,1.3-.594,1.3-1.026,0-.54-.54-.81-.864-.972a27.9,27.9,0,0,0-3.942-1.782c-.216,0-.27.378-.27.54a15.637,15.637,0,0,1-.324,2.214c-.7,3.294-2.916,8.262-4.1,8.262-.162,0-3.4-.972-4.05-.972-.108,0-.378,0-.378.162,0,.216.594.756.864,1.026a29.04,29.04,0,0,1,4.266,4.644c1.512,1.944,1.62,2.106,2.214,2.106C193.7-27.108,194.292-28.4,194.292-29.592Zm27.7,1.242c-1.512,0-1.512-.27-1.512-2.916,0-1.134.27-1.62,1.512-1.62h6.7c1.782,0,2.916,0,2.916-.756,0-.594-3.78-3.078-4.212-3.078-.486,0-.918.432-1.836,1.512-.756.918-1.026.918-3.456.918-1.728,0-1.728-.432-1.728-2.97,0-1.08.918-1.08,1.566-1.08H230.9c1.836,0,2.916,0,2.916-.756,0-.378-3.186-3.51-4.158-3.51-.648,0-.864.432-1.566,1.944-.378.864-1.4.864-3.4.864h-2.808c-.972,0-1.566-.162-1.566-1.3a1.565,1.565,0,0,1,.648-1.35,1.837,1.837,0,0,0,.648-1.08c0-.918-3.942-1.674-4.7-1.674-.54,0-.648.27-.648.7,0,.27.27,1.62.324,1.944a10.317,10.317,0,0,1,.108,1.62c0,1.134-.864,1.134-1.35,1.134-2.16,0-2.43.054-6.318-.108-.54,0-3.186-.27-3.4-.27-.162,0-.216.054-.216.162,0,.054,0,.108.216.324l1.08,1.242c.162.27.27.378.432.378a8.967,8.967,0,0,0,1.188-.162c1.89-.108,5.562-.108,6.8-.108,1.62,0,1.62.216,1.62,2.808,0,1.242-.972,1.242-1.458,1.242-.81,0-5.076-.162-5.94-.216-.324,0-1.944-.162-2.268-.162-.162,0-.216,0-.216.108s.054.108.216.378l1.08,1.242c.162.216.27.324.486.324.162,0,.918-.108,1.134-.108,1.566-.108,3.834-.162,5.454-.162,1.4,0,1.512.486,1.512,1.89,0,2.106,0,2.7-1.458,2.7H214c-2.484,0-4.914-.108-7.4-.216-.324,0-2-.216-2.376-.216-.108,0-.216.054-.216.162,0,.054.054.108.27.324L205.308-27c.162.27.27.378.486.378a8.192,8.192,0,0,0,1.134-.162c1.89-.108,5.616-.108,6.8-.108h18.306c1.782,0,2.862,0,2.862-.756,0-.432-3.456-3.51-4.212-3.51-.648,0-.864.432-1.728,1.944-.486.864-1.3.864-3.456.864ZM199.638-14.58c-.108.108.216.864.216.972,1.512,3.51,1.836,4.752,2.052,6.264.216,1.836.378,2.754,1.35,2.754,2.106,0,2.214-2.646,2.214-2.97,0-2.052-1.944-3.834-3.726-5.508C200.016-14.634,199.854-14.85,199.638-14.58Zm-11.286.162a3.63,3.63,0,0,1,.216,1.3c0,3.834-2.538,11.61-3.4,13.554-.486,1.08-.486,1.188-.378,1.188.756,0,3.942-4.32,6.858-11.394.378-.864.594-1.188,1.134-1.458.594-.378.81-.486.81-.972,0-.432-.162-.918-2-1.62a18.371,18.371,0,0,0-3.024-1.134C188.244-14.958,188.244-14.8,188.352-14.418ZM220.1-5.076c0,.162.27.324.432.432a24.737,24.737,0,0,1,7.776,6.264c1.134,1.3,1.728,1.4,2.268,1.4.81,0,2.052-.432,2.052-1.566C232.632-2.484,220.266-5.454,220.1-5.076Zm-6.7-.324a11.383,11.383,0,0,0-.756,1.188c-1.134,1.944-6.75,5.184-7.668,5.724a32.008,32.008,0,0,0-3.726,2.322c0,.108.324.108.432.108a40.233,40.233,0,0,0,7.992-2.592c1.026-.432,6.048-2.754,6.426-2.808,1.134-.054,1.458-.054,1.458-.648C217.566-2.916,213.786-5.508,213.408-5.4Z" transform="translate(227.124 45.36)" fill="#fff"/>
</svg>
