<svg xmlns="http://www.w3.org/2000/svg" width="264.483" height="28.47" viewBox="0 0 264.483 28.47">
  <path id="パス_3177" data-name="パス 3177" d="M-219.087-40.26c.247,1.855-2.689,6.121-5.193,8.624a26.219,26.219,0,0,0-2.442,2.318c0,.093.062.185.216.185a9.447,9.447,0,0,0,2.968-1.638,23.238,23.238,0,0,0,4.2-4.019c1.3-1.484,1.36-1.546,1.947-1.546.185,0,1.02.093,1.206.093.742,0,5.008-.958,5.07-.958a.334.334,0,0,1,.34.34c0,.958-5.873,11.5-15.3,16.693-.958.526-1.051.587-1.051.711a.277.277,0,0,0,.278.278,21.145,21.145,0,0,0,6.152-2.968,37.8,37.8,0,0,0,11.067-11.623c1.082-1.669,1.206-1.855,1.546-2.071,1.02-.618,1.236-.742,1.236-1.175a1.12,1.12,0,0,0-.587-.773c-.155-.093-.958-.525-1.144-.618-1.267-.742-1.422-.835-1.7-.835a5.776,5.776,0,0,0-1.453.495,17.5,17.5,0,0,1-4.7,1.236c-.124,0-.495,0-.495-.247,0-.155.093-.278.247-.495.618-.773.927-1.175.927-1.546a2.888,2.888,0,0,0-2.875-1.731c-.247,0-.68,0-.68.309C-219.3-41.094-219.118-40.414-219.087-40.26Zm29.737-.68c-.124,0-.185.062-.185.216,0,.216.927,2.318,2.566,2.318.216,0,6.862-.587,7.357-.649,1.793-.155,2.875-.247,2.875-1.206,0-.9-1.36-1.175-1.886-1.175-.433,0-2.566.526-3.029.618a29.568,29.568,0,0,1-4.946.34,7.6,7.6,0,0,1-1.638-.124C-188.422-40.63-189.164-40.94-189.349-40.94Zm-.773,21.113a.331.331,0,0,0-.062.185.246.246,0,0,0,.278.247,21.848,21.848,0,0,0,5.471-2.009c4.359-2.226,6.275-4.544,8.717-8.254a8.66,8.66,0,0,1,1.669-2.195c.711-.587.835-.711.835-1.175,0-.711-2.195-2.535-2.72-2.535a5.31,5.31,0,0,0-.9.34c-.031,0-2.071.185-2.133.185-1.144.124-7.3.927-9.83.927a8.676,8.676,0,0,1-3.06-.526,4.38,4.38,0,0,0-.556-.247.173.173,0,0,0-.185.155c0,.866,2.195,3.524,3.524,3.524a13.217,13.217,0,0,0,1.422-.526c1.36-.4,9.119-1.762,10.17-1.762.433,0,.649.216.649.587,0,.649-2.535,7.326-12.179,12.519C-189.195-20.29-190.06-19.888-190.122-19.827ZM-148.3-34.664c.587-.742,1.577-1.855,2.1-2.6a8.829,8.829,0,0,1,2.1-2.535.78.78,0,0,0,.278-.618c0-1.175-3.122-2.473-3.586-2.473a.305.305,0,0,0-.309.247,3.436,3.436,0,0,0,.216.495,1.749,1.749,0,0,1,.247.866c0,.866-2.411,6.121-9.706,12.365-.495.433-1.36,1.144-2.164,1.855a.281.281,0,0,0-.093.216c0,.124.062.185.155.185.556,0,5.75-3,8.779-5.9.247-.247.371-.371.526-.371.8,0,.8,3.246.8,4.359,0,1.638-.124,4.019-.309,5.688-.031.309-.34,1.669-.34,1.978,0,.835,1.051,2.164,1.917,2.164.742,0,.742-1.051.742-1.36,0-.4-.185-2.195-.216-2.566-.062-1.206-.093-2.875-.093-3.709,0-4.266.062-4.915.185-5.471.031-.185.371-1.051.371-1.236,0-.278-.124-.4-1.329-1.144A.5.5,0,0,1-148.3-34.664Zm22.628-4.08c-.155,0-.216.062-.216.124,0,1.082,2.411,3.06,3.153,3.06a23.565,23.565,0,0,0,2.6-.9A54.117,54.117,0,0,1-109.1-38.374c.4,0,.587.247.587.464,0,.8-2.968,3.771-3.833,3.771a9.188,9.188,0,0,1-1.206-.4,4.661,4.661,0,0,0-1.669-.278c-.185,0-.649.031-.649.278,0,.124.031.185.278.68a3.951,3.951,0,0,1,.4,1.824,14.108,14.108,0,0,1-2.318,6.77,21.054,21.054,0,0,1-5.533,5.75c-.556.433-.618.495-.618.587s.062.155.185.155a8.048,8.048,0,0,0,2.133-.9,16.879,16.879,0,0,0,7.79-9.552c1.082-3.06,1.206-3.431,1.577-3.957.649-.866,5.379-2.6,6.461-2.813,1.082-.247,1.082-.587,1.082-.8,0-1.051-2.937-4.019-3.648-4.019a10.705,10.705,0,0,0-1.267.711,92.1,92.1,0,0,1-12.8,1.793,13.447,13.447,0,0,1-1.947-.124C-124.341-38.467-125.578-38.745-125.671-38.745Zm43.246,2.04c0-1.824-2.6-3.586-5.9-3.586-.433,0-.68.155-.68.278s.155.216.278.278A6.963,6.963,0,0,1-85.918-37.2c1.02,1.546,1.329,2.04,2.164,2.04A1.365,1.365,0,0,0-82.425-36.7Zm12.859-.278a.2.2,0,0,0-.155-.155c-.062,0-.927.866-1.422,1.36-5.131,5.07-13.323,10.541-14.838,10.541a5.117,5.117,0,0,1-2.1-.711,7.7,7.7,0,0,0-.927-.587c-.278,0-.309,1.422-.309,1.638,0,1.236,2.287,3.215,3.957,3.215.464,0,.526-.062,1.113-.773a21.587,21.587,0,0,1,3.029-2.535C-73.182-30.924-69.565-36.7-69.565-36.983Zm18.424-5.471.062.124a3.429,3.429,0,0,1,1.051,1.422c.371.989.371,1.978.371,10.819a63.979,63.979,0,0,1-.278,7.172c0,.124-.124.773-.124.9,0,.8.8,2.906,1.731,2.906.9,0,.9-2.04.9-2.813,0-.464-.031-1.236-.062-1.577-.124-2.782-.155-4.42-.155-7.7,0-2.287.124-2.287.433-2.287.958,0,2.411,1.453,3.277,2.6C-41.868-28.2-41.775-28.08-41-28.08a1.058,1.058,0,0,0,1.113-1.082c0-2.318-4.791-4.575-6.677-5.008-.9-.216-1.02-.309-1.02-.989a40.1,40.1,0,0,1,.278-4.3,8.957,8.957,0,0,0,.371-1.3c0-.989-2.226-1.978-3.339-1.978C-50.307-42.732-51.111-42.732-51.142-42.454Zm35.456,7.913c1.3,0,1.3.371,1.3.989,0,2.1-.278,2.535-1.3,2.535h-1.267c-1.546,0-3.4-.062-4.049-.093-.216-.031-1.3-.124-1.546-.124-.062,0-.124.031-.124.062s.124.155.155.185l.649.8c.093.093.093.124.247.124.185,0,1.051-.093,1.267-.093,1.144-.062,2.349-.062,3.246-.062h1.453c.742,0,.958.155.958.618,0,2.1-.495,2.937-1.422,2.937h-4.513c-.835,0-2.628,0-3.617-.062-.309-.031-1.855-.155-1.978-.155-.062,0-.124.031-.124.093a.444.444,0,0,0,.062.093l.742.866c.062.062.124.155.247.155.185,0,1.051-.124,1.267-.124,1.02-.031,2.535-.031,3.246-.031h4.513c.155,0,.495.031.495.371,0,.927-2.349,5.935-9.3,7.45-.8.185-.835.185-.835.34,0,.216.309.216.495.216a22.519,22.519,0,0,0,4.359-.773,11.7,11.7,0,0,0,7.2-6.244c.526-1.175.618-1.36,1.175-1.36a1.162,1.162,0,0,1,.958.649,17.452,17.452,0,0,0,2.257,3.06,14.81,14.81,0,0,0,7.666,4.7c.124,0,.155-.093.247-.309a3.75,3.75,0,0,1,.835-1.144c.185-.185,1.36-1.144,1.36-1.144,0-.124-.124-.124-.773-.124-6.182,0-10.541-4.575-10.541-5.41,0-.278.526-.278.556-.278h8.655c1.02,0,1.638,0,1.638-.433a6.838,6.838,0,0,0-2.38-2.071c-.309,0-.4.124-1.267,1.144-.433.526-1.267.526-2.226.526h-6.43c-.464,0-.742-.124-.742-.618,0-.062.371-2.257.371-2.287.185-.587,1.236-.649,1.886-.649h4.637c1.113,0,1.669,0,1.669-.495,0-.526-1.886-1.855-2.287-1.855a.479.479,0,0,0-.247.062c-.093.093-.68.8-.8.958-.464.526-.618.526-2.1.526h-1.175c-.526,0-1.453-.062-1.453-1.051,0-2.442.216-2.473,1.638-2.473h6.4c.8,0,1.669,0,1.669-.495,0-.526-2.071-1.978-2.473-1.978-.278,0-1.267,1.236-1.515,1.453s-.4.216-1.669.216h-3c-.8,0-.989-.278-.989-1.113,0-.68.124-.989.464-1.206.34-.247.495-.34.495-.495,0-.34-.433-.433-.835-.526-.773-.155-2.1-.34-2.257-.34s-.216.093-.216.247a2.618,2.618,0,0,0,.124.526,10.918,10.918,0,0,1,.216,2.04c0,.495-.124.866-1.236.866H-18.5c-.835,0-2.628,0-3.617-.062-.309-.031-1.855-.155-1.978-.155-.062,0-.124.031-.124.062a.234.234,0,0,0,.062.124l.742.835a.275.275,0,0,0,.247.155c.185,0,1.051-.093,1.267-.093,1.02-.062,2.535-.062,3.246-.062ZM-4.65-40.63c.618,0,.835,0,.835.4a2.715,2.715,0,0,1-.649,1.3,3.8,3.8,0,0,0-.556.866c0,.093.093.093.155.093.093,0,1.082-.526,1.236-.587a4.328,4.328,0,0,1,2.38-.587c.185,0,1.082.062,1.3.062.371,0,.711-.155.711-.587,0-.773-2.628-2.566-2.875-2.566-.185,0-1.144.618-1.36.68a5.9,5.9,0,0,1-1.484.124H-10.74c-1.3,0-1.484-.433-1.484-1.484a1.231,1.231,0,0,1,.185-.773c.062-.093.556-.587.556-.742,0-.247-.34-.34-.556-.371-.278-.062-2.411-.556-2.6-.556s-.216.124-.216.185c0,.124.278.711.309.835a10.634,10.634,0,0,1,.093,1.422c0,1.236-.371,1.484-1.762,1.484h-5.935c-.9,0-1.02-.155-1.3-.587-.68-1.144-.773-1.267-.927-1.267-.093,0-.124.062-.124.587a5.391,5.391,0,0,1-1.329,3.679c-.958,1.051-1.082,1.144-1.082,1.546a1.25,1.25,0,0,0,1.267,1.144c.278,0,1.577,0,2.411-2.906.4-1.329.4-1.391,1.453-1.391Zm29.614,8.1a2.783,2.783,0,0,1-1.484-.34,5.8,5.8,0,0,0-1.515-.68c-.124,0-.124.247-.124.371,0,.34.155,1.855.155,2.164,0,.155.093,3.369.093,3.709,0,.711-.155,3.833-.155,4.482,0,.34.031.773.711.773.495,0,1.236-.216,1.422-.773.185-.464.309-.526.8-.526h6.615c.34,0,.556.031.649.371.124.433.216.711.835.711.247,0,1.267-.093,1.267-1.113,0-.618-.062-3.246-.062-3.8,0-.34.093-1.947.093-2.257,0-1.082,0-1.206.124-1.329.649-.464.742-.526.742-.742a.642.642,0,0,0-.155-.371c-.216-.124-1.947-1.329-2.1-1.329-.216,0-.309.093-.526.34-.247.34-.556.34-.958.34Zm6.461,3.555c.8,0,.835.247.835.958s0,.989-.835.989H24.778c-.8,0-.835-.247-.835-.958s0-.989.835-.989Zm-6.646-.8c-.773,0-.8-.278-.8-.989s.062-.927.8-.927h6.646c.773,0,.8.278.8.989s-.062.927-.8.927Zm.062,5.6c-.773,0-.773-.216-.773-1.236,0-.711.185-.8.773-.8h6.646c.371,0,.742,0,.742.68,0,1.206,0,1.36-.773,1.36ZM18.194-31.14c.185.062.185.124.34.649.093.278.433.711.8.711a1.2,1.2,0,0,0,1.051-1.236c0-2.133-3.4-3.864-3.431-3.864a.066.066,0,0,0-.062.062,16.3,16.3,0,0,1,.989,2.349c0,.526-.495.526-3.122.526-.216,0-.711,0-.711-.278a25.121,25.121,0,0,1,2.071-2.535C18.6-37.941,18.658-38,19.338-38.312c.556-.247.618-.278.618-.464,0-.464-2.257-1.731-2.411-1.731-.309,0-.34.309-.4.773-.185,1.329-2.195,4.73-3.184,6.121-1.144,1.669-1.453,1.669-2.226,1.669a5,5,0,0,1-1.577-.155c-.185-.031-.927-.371-1.082-.371-.093,0-.278,0-.278.216,0,.062.4,1.082.618,1.638a6.2,6.2,0,0,0,.371,1.144.641.641,0,0,0,.4.278c.185,0,.866-.618,1.02-.68a15.666,15.666,0,0,1,2.195-.464c.587,0,.587.526.587.9,0,4.884-.062,8.006-.124,10.356-.031.185-.062,1.051-.062,1.236,0,.958.247.958.711.958C15.937-16.89,16-17.6,16-19.116c0-1.082-.062-5.781-.062-6.739,0-.773,0-4.451.062-4.606C16.216-31.11,17.978-31.233,18.194-31.14Zm-4.08-5.193a1.8,1.8,0,0,0-.68-1.236c-.433-.4-.556-.526-.556-.773,0-.464,3.122-4.606,3.339-4.7.587-.278.742-.34.742-.587,0-.309-.309-.464-.495-.556a15.97,15.97,0,0,0-2.257-1.02c-.124,0-.155.216-.155.309a8.951,8.951,0,0,1-.185,1.267c-.4,1.886-1.669,4.73-2.349,4.73-.093,0-1.947-.556-2.318-.556-.062,0-.216,0-.216.093,0,.124.34.433.495.587a16.624,16.624,0,0,1,2.442,2.658c.866,1.113.927,1.206,1.267,1.206C13.773-34.912,14.114-35.654,14.114-36.334Zm15.858.711c-.866,0-.866-.155-.866-1.669,0-.649.155-.927.866-.927H33.8c1.02,0,1.669,0,1.669-.433,0-.34-2.164-1.762-2.411-1.762-.278,0-.525.247-1.051.866-.433.526-.587.526-1.978.526-.989,0-.989-.247-.989-1.7,0-.618.526-.618.9-.618h5.131c1.051,0,1.669,0,1.669-.433,0-.216-1.824-2.009-2.38-2.009-.371,0-.495.247-.9,1.113-.216.495-.8.495-1.947.495H29.91c-.556,0-.9-.093-.9-.742a.9.9,0,0,1,.371-.773,1.051,1.051,0,0,0,.371-.618c0-.526-2.257-.958-2.689-.958-.309,0-.371.155-.371.4,0,.155.155.927.185,1.113a5.906,5.906,0,0,1,.062.927c0,.649-.495.649-.773.649-1.236,0-1.391.031-3.617-.062-.309,0-1.824-.155-1.947-.155-.093,0-.124.031-.124.093,0,.031,0,.062.124.185l.618.711c.093.155.155.216.247.216a5.133,5.133,0,0,0,.68-.093c1.082-.062,3.184-.062,3.895-.062.927,0,.927.124.927,1.607,0,.711-.556.711-.835.711-.464,0-2.906-.093-3.4-.124-.185,0-1.113-.093-1.3-.093-.093,0-.124,0-.124.062s.031.062.124.216l.618.711c.093.124.155.185.278.185.093,0,.526-.062.649-.062.9-.062,2.195-.093,3.122-.093.8,0,.866.278.866,1.082,0,1.206,0,1.546-.835,1.546H25.4c-1.422,0-2.813-.062-4.235-.124-.185,0-1.144-.124-1.36-.124-.062,0-.124.031-.124.093,0,.031.031.062.155.185l.587.711c.093.155.155.216.278.216a4.69,4.69,0,0,0,.649-.093c1.082-.062,3.215-.062,3.895-.062H35.721c1.02,0,1.638,0,1.638-.433a7.107,7.107,0,0,0-2.411-2.009c-.371,0-.495.247-.989,1.113-.278.495-.742.495-1.978.495Zm-12.8,7.883c-.062.062.124.495.124.556A12.742,12.742,0,0,1,18.472-23.6c.124,1.051.216,1.577.773,1.577,1.206,0,1.267-1.515,1.267-1.7,0-1.175-1.113-2.195-2.133-3.153C17.39-27.771,17.3-27.895,17.174-27.74Zm-6.461.093a2.078,2.078,0,0,1,.124.742c0,2.195-1.453,6.646-1.947,7.759-.278.618-.278.68-.216.68.433,0,2.257-2.473,3.926-6.522.216-.495.34-.68.649-.835.34-.216.464-.278.464-.556,0-.247-.093-.526-1.144-.927a10.517,10.517,0,0,0-1.731-.649C10.651-27.957,10.651-27.864,10.713-27.647ZM28.889-22.3c0,.093.155.185.247.247a14.161,14.161,0,0,1,4.451,3.586c.649.742.989.8,1.3.8.464,0,1.175-.247,1.175-.9C36.061-20.816,28.982-22.516,28.889-22.3Zm-3.833-.185a6.516,6.516,0,0,0-.433.68c-.649,1.113-3.864,2.968-4.39,3.277A18.323,18.323,0,0,0,18.1-17.2c0,.062.185.062.247.062a23.031,23.031,0,0,0,4.575-1.484c.587-.247,3.462-1.577,3.679-1.607.649-.031.835-.031.835-.371C27.437-21.063,25.273-22.547,25.056-22.485Z" transform="translate(227.124 45.36)" fill="#fff"/>
</svg>
