<svg xmlns="http://www.w3.org/2000/svg" width="299.495" height="69.809" viewBox="0 0 299.495 69.809">
  <g id="グループ_5924" data-name="グループ 5924" transform="translate(-38 -2243.315)">
    <g id="グループ_5804" data-name="グループ 5804" transform="translate(38 2242.219)">
      <path id="パス_321" data-name="パス 321" d="M1202.22,2446.466c.486-.092,3.133-.731,3.195-.731.639,0,3.925,2.5,3.925,4.017,0,.426-.456.578-1.187.669-1.643.213-1.947.456-4.595,2.678-.426.365-1.43,1.095-1.978,1.673a.719.719,0,0,0-.152.3c0,.243.122.365,1.035,1.369a3.432,3.432,0,0,1,.943,2.1,1.064,1.064,0,0,1-1.034,1.187c-.791,0-.974-.212-2.739-2.191a22.03,22.03,0,0,0-4.5-3.833c-.3-.214-.335-.244-.335-.366a.247.247,0,0,1,.275-.243c.821,0,4.93,1.46,5.112,1.46.913,0,4.96-5.721,4.96-6.6,0-.365-.366-.395-.609-.395a94.637,94.637,0,0,0-12.416,2.464c-.4.123-2.282,1-2.374,1-.486,0-2.952-1.612-2.952-3.042,0-.061,0-.488.213-.488a10.38,10.38,0,0,1,1,.366,8.456,8.456,0,0,0,1.765.152A110.388,110.388,0,0,0,1202.22,2446.466Z" transform="translate(-1186.791 -2437.702)" fill="#fff"/>
      <path id="パス_322" data-name="パス 322" d="M1251.468,2441.135a15.65,15.65,0,0,0,1.734.121,23.393,23.393,0,0,0,6.634-1.338c.882-.547.973-.609,1.248-.609A2.713,2.713,0,0,1,1263,2440.8c0,.183-.061.243-.639.609-.517.334-.639.548-2.161,2.617a5.556,5.556,0,0,0-.669,1.035c0,.243.182.274.426.335.334.091,1.339.548,1.339,1.278,0,.213-.243,1.187-.273,1.4a10.033,10.033,0,0,0-.153,2.222c0,.761.031,3.256.091,4.5,0,.335.092,1.856.092,2.161,0,1.461-.4,1.7-.792,1.7-.973,0-1.765-2.13-1.765-2.738,0-.244.244-1.247.275-1.43a25.889,25.889,0,0,0,.486-4.6,10.151,10.151,0,0,0-.334-2.951.715.715,0,0,0-.578-.335.681.681,0,0,0-.456.243c-2.556,2.617-4.93,5.082-9.19,7.03a4.832,4.832,0,0,1-1.1.395c-.06,0-.122-.03-.122-.091,0-.152,3.286-2.678,3.9-3.2a29.907,29.907,0,0,0,6.422-7.151,8.62,8.62,0,0,0,.913-1.7.232.232,0,0,0-.244-.243c-.243,0-5.264,1.734-5.6,1.734a4.225,4.225,0,0,1-2.312-1.279,3.722,3.722,0,0,1-.487-1.187.268.268,0,0,1,.274-.243C1250.524,2440.922,1251.315,2441.1,1251.468,2441.135Zm10.1-4.868a1.277,1.277,0,0,1-1.156,1.216c-.7,0-1.065-.608-1.887-1.886a8.3,8.3,0,0,0-2.769-2.374c-.061-.061-.212-.183-.212-.274,0-.152.456-.152.578-.152C1258.679,2432.8,1261.57,2434.41,1261.57,2436.267Zm8.429,14.058c0,.4-.366,1.278-1.157,1.278-.578,0-.913-.335-1.491-1.43a15.057,15.057,0,0,0-2.343-3.013,3.537,3.537,0,0,1-.578-.852c0-.092.212-.092.243-.092C1267.443,2446.217,1270,2448.682,1270,2450.325Z" transform="translate(-1214.936 -2431.701)" fill="#fff"/>
      <path id="パス_323" data-name="パス 323" d="M1316.786,2445.334c0,.638-.426,1.521-1.156,1.521-.457,0-.609-.183-1.065-.944a7.892,7.892,0,0,0-2.769-2.5c-.091-.061-.3-.182-.3-.3,0-.457,1.947-.457,2.13-.457C1314.93,2442.656,1316.786,2443.843,1316.786,2445.334Zm-3.591,9.343c-.092-.183-.578-.823-.639-.975a1.238,1.238,0,0,1-.152-.547.223.223,0,0,1,.243-.244c.092,0,1.461.487,1.765.487,1.643,0,9.92-4.534,15.276-9.464.335-.335,2.1-2.13,2.191-2.13a.2.2,0,0,1,.182.183c0,.061-1.521,4.778-13.45,12.293-1.856,1.156-1.978,1.249-2.222,1.43-1.126.884-1.247.975-1.582.975C1314.168,2456.685,1313.8,2455.985,1313.2,2454.677Zm7.273-15.429c0,.792-.517,1.43-1,1.43-.335,0-.456-.152-1.522-1.4a5.146,5.146,0,0,0-2.647-1.644c-.426-.152-.456-.152-.456-.274,0-.334,1.4-.639,2.313-.639a4.192,4.192,0,0,1,1.552.3A2.657,2.657,0,0,1,1320.468,2439.248Zm10.194-1.4c0,.365-.4,1.156-.974,1.156-.457,0-.73-.334-1.491-1.521a9.491,9.491,0,0,0-1.948-2.039c-.122-.091-.4-.365-.4-.487,0-.183.366-.213.548-.213C1328.167,2434.745,1330.662,2436.235,1330.662,2437.848Zm3.195-2.07a.9.9,0,0,1-.821.974c-.638,0-1.065-.639-1.491-1.339a7.621,7.621,0,0,0-2.465-1.978c-.274-.152-.335-.3-.335-.365,0-.274.609-.274,1.156-.274C1330.693,2432.8,1333.857,2433.679,1333.857,2435.779Z" transform="translate(-1244.622 -2431.701)" fill="#fff"/>
      <path id="パス_324" data-name="パス 324" d="M1375.393,2444.632a16.591,16.591,0,0,0,1.917.822c.639,0,1.521-2.131,1.886-3.012a15,15,0,0,0,1.127-3.652,1.353,1.353,0,0,0-.213-.7c-.092-.182-.183-.274-.183-.366a.249.249,0,0,1,.244-.274,4.747,4.747,0,0,1,2.038.975,4,4,0,0,1,1.309,2.191c0,.244-.092.274-.761.609-.335.182-.426.334-1.218,1.826-.517,1-1.1,2.038-1.735,3.042a1.407,1.407,0,0,0-.3.762,1.212,1.212,0,0,0,.517.822c2.617,2.312,2.983,3.956,2.983,4.716a.955.955,0,0,1-.974,1c-1.1,0-1.552-.791-2.617-2.679-.3-.547-.883-1.582-1.309-1.582a.875.875,0,0,0-.639.427c-5.569,6.968-11.655,9.554-11.929,9.554-.092,0-.213-.029-.213-.151s.578-.578.944-.883a48.8,48.8,0,0,0,8.063-7.456c.73-.913,2.191-2.8,2.191-3.256,0-.639-2.8-2.313-3.956-2.952-.578-.3-.639-.334-.639-.487,0-.121.061-.243.274-.243A12.245,12.245,0,0,1,1375.393,2444.632Z" transform="translate(-1269.585 -2433.859)" fill="#fff"/>
      <path id="パス_325" data-name="パス 325" d="M1435.538,2455.124a21.182,21.182,0,0,0-2.983,2.5c-.578.7-.639.761-1.1.761-1.643,0-3.9-1.948-3.9-3.165,0-.213.031-1.614.3-1.614a7.613,7.613,0,0,1,.913.579,5.033,5.033,0,0,0,2.068.7c1.492,0,9.556-5.386,14.607-10.376.487-.487,1.339-1.339,1.4-1.339a.2.2,0,0,1,.152.152C1447.01,2443.591,1443.45,2449.281,1435.538,2455.124Zm-2.5-10.012c-.821,0-1.126-.487-2.129-2.008a6.86,6.86,0,0,0-2.769-2.5c-.122-.061-.274-.152-.274-.273s.243-.274.669-.274c3.256,0,5.813,1.734,5.813,3.53A1.344,1.344,0,0,1,1433.042,2445.112Z" transform="translate(-1298.452 -2435.07)" fill="#fff"/>
      <path id="パス_326" data-name="パス 326" d="M1491.656,2435.577c1.1,0,3.286.975,3.286,1.948a8.854,8.854,0,0,1-.365,1.278,39.573,39.573,0,0,0-.274,4.229c0,.67.122.761,1,.975,1.856.426,6.573,2.646,6.573,4.929a1.041,1.041,0,0,1-1.1,1.065c-.76,0-.852-.122-2.891-2.77-.852-1.125-2.282-2.556-3.226-2.556-.3,0-.426,0-.426,2.251,0,3.226.03,4.839.152,7.577.031.335.061,1.1.061,1.553,0,.761,0,2.769-.883,2.769-.912,0-1.7-2.069-1.7-2.86,0-.123.122-.761.122-.883a63.064,63.064,0,0,0,.274-7.061c0-8.7,0-9.676-.365-10.65a3.378,3.378,0,0,0-1.034-1.4l-.061-.122C1490.833,2435.577,1491.625,2435.577,1491.656,2435.577Z" transform="translate(-1327.779 -2432.991)" fill="#fff"/>
      <path id="パス_327" data-name="パス 327" d="M1542.148,2434.849c1.1,0,3.287.974,3.287,1.948,0,.213-.305,1.1-.335,1.278a38.943,38.943,0,0,0-.3,4.26c0,.639.152.76,1,.943,1.948.457,6.6,2.678,6.6,4.93a1.065,1.065,0,0,1-1.126,1.064c-.73,0-.76-.06-2.86-2.769-.852-1.1-2.282-2.557-3.225-2.557-.334,0-.426,0-.426,2.252,0,3.226.03,4.839.152,7.577.03.335.061,1.1.061,1.552,0,.73,0,2.77-.883,2.77-.943,0-1.7-2.069-1.7-2.861,0-.122.121-.761.121-.883a40.8,40.8,0,0,0,.274-7.06c0-9.006,0-9.676-.365-10.65a3.383,3.383,0,0,0-1.065-1.4.233.233,0,0,1-.061-.122C1541.356,2434.879,1542.117,2434.849,1542.148,2434.849Zm12.811,5.2c0,.4-.335,1.156-.943,1.156-.457,0-.73-.3-1.522-1.461a8.521,8.521,0,0,0-1.978-1.978c-.122-.091-.427-.365-.427-.487,0-.152.274-.212.548-.212C1552.8,2437.071,1554.959,2438.683,1554.959,2440.052Zm2.465-3.469c0,.335-.243.913-.791.913-.67,0-1.034-.487-1.582-1.186a7.655,7.655,0,0,0-2.617-1.734c-.3-.123-.4-.274-.4-.335,0-.183.365-.365,1.156-.365C1555.385,2433.875,1557.423,2435.093,1557.423,2436.583Z" transform="translate(-1351.195 -2432.202)" fill="#fff"/>
      <path id="パス_328" data-name="パス 328" d="M1597.071,2438.095c0-.3.425-.3.669-.3a2.842,2.842,0,0,1,2.83,1.7c0,.365-.3.761-.913,1.521-.152.213-.243.334-.243.487,0,.243.364.243.487.243a17.241,17.241,0,0,0,4.625-1.217,5.67,5.67,0,0,1,1.431-.487c.274,0,.425.091,1.674.821.182.091.973.518,1.126.609a1.106,1.106,0,0,1,.578.761c0,.426-.214.548-1.218,1.156-.334.214-.456.4-1.521,2.039a37.206,37.206,0,0,1-10.894,11.442,20.807,20.807,0,0,1-6.056,2.922.273.273,0,0,1-.273-.274c0-.122.091-.183,1.035-.7,9.28-5.112,15.063-15.489,15.063-16.432a.33.33,0,0,0-.335-.335c-.061,0-4.261.943-4.991.943-.182,0-1-.091-1.187-.091-.578,0-.639.062-1.917,1.522a22.861,22.861,0,0,1-4.139,3.955,9.3,9.3,0,0,1-2.921,1.614c-.152,0-.213-.092-.213-.183a25.663,25.663,0,0,1,2.4-2.282c2.465-2.465,5.355-6.665,5.112-8.49C1597.252,2438.886,1597.071,2438.217,1597.071,2438.095Z" transform="translate(-1373.491 -2434.018)" fill="#fff"/>
      <path id="パス_329" data-name="パス 329" d="M1644.6,2458.667c6.238-3.53,10.408-8.49,10.408-9.434s-3.622-3.255-4.382-3.255c-.7,0-4.382,3.987-5.387,3.987a.142.142,0,0,1-.152-.153,9.99,9.99,0,0,1,1.1-1.309c3.621-3.926,6.116-8.216,6.116-9.951,0-.243-.487-1.217-.487-1.43,0-.183.4-.183.578-.183,1.613,0,2.738,1.187,2.738,1.8,0,.182-.334,1-.334,1.186,0,.457.64.518,1.034.518a18.669,18.669,0,0,0,4.565-.73,7.248,7.248,0,0,1,1.125-.67c.3,0,2.495,1.37,2.495,2.343,0,.457-.212.548-.76.791-.457.214-.579.365-1.492,1.8-.427.669-2.495,3.561-2.86,4.168-.274.426-.335.517-.335.761,0,.273.031.334.578,1.035a4.245,4.245,0,0,1,1.279,2.677,1.311,1.311,0,0,1-1.309,1.461c-.639,0-.76-.214-1.917-2.161-.061-.122-.4-.7-.7-.7-.274,0-.457.213-1.065.853a26.273,26.273,0,0,1-11.23,7.333c-.061,0-.334,0-.273-.273C1643.966,2459,1644.027,2459,1644.6,2458.667Zm15.489-16.857c0-.335-.3-.427-.517-.427-.456,0-3.134.4-3.682.4a2.761,2.761,0,0,1-.912-.122,2.056,2.056,0,0,0-.73-.121.48.48,0,0,0-.366.121,24.88,24.88,0,0,0-2.587,3.408c0,.427.274.518,1.034.822a33.983,33.983,0,0,1,3.348,1.552,1.726,1.726,0,0,0,.7.213C1657.052,2447.53,1660.094,2442.843,1660.094,2441.809Z" transform="translate(-1398.792 -2433.623)" fill="#fff"/>
      <path id="パス_330" data-name="パス 330" d="M1721.867,2454.335c.182,0,.516-.029.669-.029,1.856,0,2.13,1.125,2.13,1.338,0,.852-1.248.943-2.526.943-.7,0-3.744-.061-4.352-.061-4.2,0-11.168.4-11.9.548-.365.061-2.009.548-2.373.548-1.309,0-2.708-1.886-2.708-2.921,0-.184.091-.366.243-.366s.883.335,1.034.366a16.622,16.622,0,0,0,3.713.274C1706.8,2454.974,1717.424,2454.578,1721.867,2454.335Z" transform="translate(-1425.171 -2441.677)" fill="#fff"/>
    </g>
    <g id="グループ_5805" data-name="グループ 5805" transform="translate(9733.429 1173)">
      <path id="パス_3153" data-name="パス 3153" d="M1778.333,2439.26c0,.091.061.213.061.335a23.444,23.444,0,0,1,.3,3.286c0,2.039-.457,4.869-3.133,8.916-2.435,3.713-3.986,4.443-5.2,4.443-2.008,0-3.8-3.134-3.8-6.847a10.718,10.718,0,0,1,3.378-7.759,12.59,12.59,0,0,1,9.707-3.957,9.914,9.914,0,0,1,4.9.974,9.537,9.537,0,0,1,5.294,8.855,11.348,11.348,0,0,1-7.668,10.711,18.676,18.676,0,0,1-5.052,1.126c-.121,0-.3-.031-.3-.212,0-.092.061-.123.821-.427,3.165-1.248,9.769-3.864,9.769-11.441,0-1.187-.122-8.43-8.429-8.43C1778.363,2438.834,1778.333,2439.078,1778.333,2439.26Zm-9.89,9.343c0,1.978.791,4.687,2.648,4.687.881,0,1.613-.366,3.712-3.53a17.413,17.413,0,0,0,2.982-8.856c0-1.825-.122-1.978-.517-1.978C1774.377,2438.925,1768.442,2442.85,1768.442,2448.6Z" transform="translate(-11385.984 -1321.746)" fill="#fff"/>
      <path id="パス_3154" data-name="パス 3154" d="M1841.1,2436.733a1.249,1.249,0,0,0,1.065-.366c.913-.821,1-.942,1.248-.942.609,0,2.04,1.612,2.04,2.069,0,.3-.153.426-.761.913-.213.152-.334.274-.456.944a47.667,47.667,0,0,1-2.922,9.4c-.273.7-.334.761-.334.943,0,.456.639,1.126,1.035,1.522a14.893,14.893,0,0,0,10.8,4.23,37.764,37.764,0,0,0,7.456-.852,9.174,9.174,0,0,1,.974-.243c.152,0,.213.091.213.152,0,.091-.425.365-.486.427a8.355,8.355,0,0,0-1.218,1.551,6.022,6.022,0,0,1-.425.913c-.3.4-3.317.426-3.956.426-2.283,0-9.86-.03-14.3-5.538-.609-.73-.669-.791-.853-.791s-.243.091-.943,1.156a16.246,16.246,0,0,1-5.934,5.508c-.091,0-.212-.03-.212-.152,0-.031,1.49-1.583,1.7-1.826a26.471,26.471,0,0,0,4.2-6.725,16.849,16.849,0,0,0-.639-1.674,29.66,29.66,0,0,1-1.856-5.873,5.494,5.494,0,0,0-.365-1.187c-.061,0-2.312,3.347-2.951,3.347a.143.143,0,0,1-.154-.153c0-.091.7-1.309.823-1.552a37.832,37.832,0,0,0,3.2-8.855,9.163,9.163,0,0,0,.182-2.282c0-.122,0-.244.122-.244.275,0,3.135.883,3.135,1.4,0,.213-.091.243-.669.608-.64.365-1.431,3.256-1.431,3.377,0,.366.244.366.517.366Zm-2.678.821c-1,0-1.338,1.583-1.338,1.948,0,2.039,2.008,8.034,2.646,8.034.67,0,2.466-8.308,2.466-9.373,0-.609-.457-.609-1.035-.609Zm12.476-2.951c-.669,0-.882.213-.912.822a47.536,47.536,0,0,1-.275,5.386c-.851,8.124-5.051,9.707-5.081,9.707-.061,0-.152-.031-.152-.122s1.065-1.521,1.248-1.826c1.948-3.1,2.16-7.821,2.16-10.042a35.252,35.252,0,0,0-.273-4.169c-.03-.273-.153-.761-.153-.914,0-.243.091-.4.274-.4a13.558,13.558,0,0,1,1.49.578,3.515,3.515,0,0,0,1.218.152h2.282a1.289,1.289,0,0,0,1.065-.3c.3-.3.487-.427.73-.427.273,0,1.856,1.1,1.856,1.491a7.784,7.784,0,0,1-.639,1c-.273.7-.273,7.942-.273,9.373a17.313,17.313,0,0,0,.182,3.317c.212.365.639.4,1.126.4,1.308,0,1.37-.061,1.8-1.157.669-1.734.761-1.948.913-1.948.182,0,.182.213.182.548a7.328,7.328,0,0,0,.275,1.825c.487.792.578.913.578,1.278,0,1.4-2.313,1.4-2.8,1.4-4.2,0-4.26-.274-4.26-3.956,0-1.582.152-9.373.152-11.137,0-.883-.517-.883-.882-.883Z" transform="translate(-11416.83 -1318.641)" fill="#fff"/>
      <path id="パス_3155" data-name="パス 3155" d="M1905.122,2438.378c-.7,0-2.8,0-3.865.061a4.507,4.507,0,0,1-.64.091c-.091,0-.152-.091-.273-.214l-.578-.7c-.121-.122-.121-.153-.121-.183a.081.081,0,0,1,.091-.092c.213,0,1.157.092,1.369.122,1.37.061,2.739.092,4.17.092h5.964c.882,0,.882-.4.882-2.13a19.127,19.127,0,0,0-.152-2.8c-.031-.183-.213-.913-.213-1.065,0-.182.213-.182.335-.182s3.225.639,3.225,1.339c0,.3-.061.335-.578.821-.4.335-.427,1.127-.427,1.614,0,2.282.182,2.4.974,2.4h6.055c1.126,0,1.43,0,1.826-.456.182-.274.974-1.7,1.278-1.7a8.019,8.019,0,0,1,2.89,2.526c0,.457-.578.457-1.612.457H1912.06c-.335,0-.457,0-.457.122,0,.213.122.213,1.309.4.455.061,1.338.243,1.338.669,0,.244-.853,1-.944,1.217a8.469,8.469,0,0,0-.487,2.221c0,.608.639.608.761.608h6.725a1.446,1.446,0,0,0,1.278-.456,3.61,3.61,0,0,1,.7-.609c.153,0,2.648,1.522,2.648,1.947,0,.244-.791.944-.882,1.127a30.093,30.093,0,0,0-.852,4.26c-.943,4.351-1.886,5.964-2.83,7.06a6.019,6.019,0,0,1-3.5,2.009c-.366,0-.366-.213-.366-.487,0-1.309-1.583-2.283-2.526-2.77-.7-.365-.791-.4-.791-.487,0-.061.03-.244.3-.244a5.132,5.132,0,0,1,1.247.334,9.153,9.153,0,0,0,2.4.4c1.278,0,2.678-.761,3.652-4.777a31.264,31.264,0,0,0,.791-5.691c0-.791-.518-.791-.974-.791h-7.151c-.852,0-.912.152-1.278,1.734-2.373,9.89-10.133,11.777-10.529,11.777-.091,0-.273,0-.273-.091,0-.122.365-.335.73-.517a18.044,18.044,0,0,0,6.543-7.334,28.571,28.571,0,0,0,2.221-9.615c0-2.009-.517-2.009-1.126-2.009Z" transform="translate(-11447.706 -1318.825)" fill="#fff"/>
      <path id="パス_3156" data-name="パス 3156" d="M1976.483,2433.646c1.156,0,1.217-.062,1.339-.213.182-.213.974-1.4,1.247-1.4.153,0,2.1,1.613,2.1,1.977,0,.426-.487.426-1.248.426h-3.9c-.122,0-.274,0-.274.123,0,.091.031.121.487.578,1.461,1.369,1.461,2.069,1.461,2.4,0,.213-.03,1.552-1.278,1.552-.578,0-.578-.183-.67-1.309a12.986,12.986,0,0,0-.487-2.982.612.612,0,0,0-.639-.366H1973.5a.741.741,0,0,0-.669.305c-2.374,2.951-4.2,4.32-4.473,4.32a.066.066,0,0,1-.061-.061c.031-.03.091-.122.121-.151,1.065-1.309,3.8-5.691,3.8-7.669,0-.213,0-.334.182-.334.091,0,2.587.791,2.587,1.217,0,.152-.669.517-.76.639a4.541,4.541,0,0,0-.457.761c0,.183.183.183.3.183Zm15.672,16.34c-.152.031-.366.061-.366.213,0,.274,1.278,1.217,1.278,1.552,0,.243-.425.334-.638.365a1.72,1.72,0,0,0-1,.335,27.981,27.981,0,0,1-3.834,1.977c-.183.091-.487.243-.487.426,0,.122.122.3.487.456a14.269,14.269,0,0,0,5.143,1.218c.852,0,1-.335,1.582-1.7a12.227,12.227,0,0,1,.548-1.309c.121,0,.121.213.121.457.031,1.521.183,1.734.518,2.159.608.852.73,1.035.73,1.308,0,1.157-1.613,1.157-2.252,1.157-1.1,0-4.017-.031-8.734-2.374a2.964,2.964,0,0,0-1.429-.366,3.272,3.272,0,0,0-.7.091,44.438,44.438,0,0,1-11.5,1.4c-.335,0-2.556,0-2.556-.213,0-.152.153-.152.487-.152,2.83,0,12.72-1.8,12.72-2.739a.645.645,0,0,0-.213-.4,23.373,23.373,0,0,1-1.857-2.161c-.487-.639-.608-.822-1.307-.76l-4.474.3c-1.492.091-2.527.182-3.56.3a8.442,8.442,0,0,1-.913.151.424.424,0,0,1-.274-.151l-.639-.67a.457.457,0,0,1-.121-.183c0-.091.091-.091.152-.091.153,0,.822.031.974.031,1.035,0,3.438-.152,4.474-.213l4.047-.274c.213,0,.487-.061.487-.365,0-.274-1.035-2.738-1.035-2.86s.274-.122.3-.122c.3,0,1.734.183,2.07.183.426.031.76.061.76.335,0,.151-.547.822-.547,1,0,.761.365,1.673,1.308,1.613l8.064-.578c1.369-.091,1.522-.091,1.856-.427.152-.182.548-.578.548-.729s-.213-.183-.334-.183a16.916,16.916,0,0,1-7.06-2.161c-.853-.456-1.005-.547-1.522-.547a1.774,1.774,0,0,0-.487.061,41.168,41.168,0,0,1-9.068,1c-.547,0-4.594-.061-4.594-.456,0-.062.243-.062.456-.062,2.708,0,12.355-1.034,12.355-1.977,0-.274-1.035-1.248-1.217-1.522-.578-.822-.7-.973-1.431-.913l-5.142.365c-2.618.182-3.408.274-3.834.335a4.76,4.76,0,0,1-.639.121c-.091,0-.183-.091-.274-.182l-.639-.67c-.091-.09-.121-.121-.121-.182s.03-.061.182-.061h.852c1,0,3.591-.121,4.565-.183l4.96-.334c.4-.03.4-.152.4-.4,0-.335-.943-2.678-.943-2.77s.121-.121.151-.121c.152,0,2.739.426,2.739.913,0,.122-.365.67-.365.822a6.794,6.794,0,0,0,.3.944.738.738,0,0,0,.852.365l2.556-.183c.061,0,.182,0,.182-.091a.412.412,0,0,0-.091-.153,17.7,17.7,0,0,0-1.277-1.825c-.091-.092-.791-.427-.791-.579,0-.122.061-.182.273-.182,1.035,0,3.378.334,3.378,1.734,0,.153-.243.852-.243.914,0,.091.122.091.183.091l2.83-.213c1.369-.091,1.521-.091,1.917-.639.791-1.1.882-1.218,1.156-1.218.152,0,2.951,1.4,2.951,1.857,0,.4-.548.4-1.583.487l-3.621.274c-.062,0-.305.031-.305.152,0,.335,1.431,1.125,1.431,1.461,0,.182-1.065.4-1.248.486-1.521.7-2.616,1.156-3.256,1.4-.182.062-.334.214-.334.336,0,.577,3.59,1.612,5.781,1.612,1.279,0,1.37-.244,2.191-2.373.122-.3.122-.365.183-.365.091,0,.091.121.091.882a2.642,2.642,0,0,0,.334,1.644c.091.121.669.7.669.852,0,.577-.609,1-1.369,1.125-.152.031-.73.122-.73.244,0,.091.152.213.456.426.821.578.913.639.913.852,0,.335-.426.4-.73.426Zm-.578-16.34c1.1,0,1.156-.091,1.278-.213.212-.213.944-1.43,1.217-1.43.153,0,2.252,1.612,2.252,2.007,0,.426-.517.426-1.308.426h-5.508c-.122,0-.3.031-.3.183a1.012,1.012,0,0,0,.243.335,3.969,3.969,0,0,1,1.583,2.525,1.522,1.522,0,0,1-1.461,1.4c-.578,0-.609-.425-.609-.852,0-.882,0-3.591-1.308-3.591h-2.375a.847.847,0,0,0-.76.336,31.9,31.9,0,0,1-2.86,3.073.1.1,0,0,1-.091-.092c0-.061.182-.274.243-.4a19.7,19.7,0,0,0,2.4-6.056c.031-.152.091-.548.4-.548.244,0,2.4,1,2.4,1.37,0,.212-.3.365-.7.577a1.538,1.538,0,0,0-.64.731c0,.213.184.213.306.213Zm-8.977,17.01c-.153,0-.517.062-.517.3,0,.3,1.885,2.5,2.738,2.5,1,0,5.66-2.556,5.66-3.165,0-.183-.335-.153-.457-.153Zm.547-9.494c-.153,0-.518.061-.518.274,0,.3,1.338,1.795,2.038,1.795.822,0,4.018-1.674,4.018-2.281,0-.154-.3-.154-.365-.154Zm3.439,7.3a.964.964,0,0,1-.822,1.034c-.455,0-.76-.365-1.187-.883a6.464,6.464,0,0,0-1.459-1.369c-.123-.09-.183-.152-.183-.242,0-.183.548-.183.669-.183C1984.273,2446.822,1986.586,2446.822,1986.586,2448.465Z" transform="translate(-11479.544 -1318.535)" fill="#fff"/>
    </g>
  </g>
</svg>
