<svg xmlns="http://www.w3.org/2000/svg" width="833.77" height="52.037" viewBox="0 0 833.77 52.037">
  <g id="グループ_48" data-name="グループ 48" transform="translate(-1186.791 -2430.754)">
    <path id="パス_321" data-name="パス 321" d="M1215.563,2447.1c.907-.171,5.843-1.363,5.958-1.363,1.191,0,7.32,4.654,7.32,7.491,0,.795-.851,1.079-2.214,1.249-3.064.4-3.631.85-8.568,4.993-.795.681-2.667,2.043-3.689,3.121a1.343,1.343,0,0,0-.284.568c0,.453.227.681,1.93,2.553a6.4,6.4,0,0,1,1.759,3.916,1.986,1.986,0,0,1-1.929,2.213c-1.476,0-1.817-.4-5.108-4.086a41.136,41.136,0,0,0-8.4-7.149c-.568-.4-.625-.455-.625-.682a.461.461,0,0,1,.512-.454c1.531,0,9.193,2.724,9.533,2.724,1.7,0,9.25-10.669,9.25-12.314,0-.681-.682-.737-1.135-.737-2.5,0-18.613,3.121-23.153,4.595-.738.228-4.256,1.873-4.427,1.873-.907,0-5.5-3.007-5.5-5.674,0-.114,0-.909.4-.909a19.4,19.4,0,0,1,1.873.682,15.785,15.785,0,0,0,3.291.283C1197.176,2449.991,1210.171,2448.062,1215.563,2447.1Z" fill="#fff"/>
    <path id="パス_322" data-name="パス 322" d="M1254.915,2448.346a29.062,29.062,0,0,0,3.235.226c3.007,0,11.008-1.589,12.371-2.5,1.645-1.021,1.815-1.136,2.327-1.136,1.418,0,3.574,2.1,3.574,2.782,0,.34-.113.454-1.192,1.134-.964.624-1.191,1.022-4.029,4.88a10.366,10.366,0,0,0-1.248,1.93c0,.454.34.511.8.624.623.171,2.5,1.022,2.5,2.384,0,.4-.453,2.213-.51,2.61a18.737,18.737,0,0,0-.284,4.143c0,1.419.057,6.072.17,8.4,0,.624.171,3.462.171,4.029,0,2.724-.738,3.178-1.477,3.178-1.815,0-3.291-3.972-3.291-5.107,0-.454.455-2.326.512-2.667a48.217,48.217,0,0,0,.907-8.569c0-.454,0-4.313-.624-5.5a1.335,1.335,0,0,0-1.078-.624,1.266,1.266,0,0,0-.851.454c-4.767,4.88-9.194,9.476-17.138,13.108a8.971,8.971,0,0,1-2.043.737c-.113,0-.228-.056-.228-.17,0-.284,6.129-4.994,7.264-5.959a55.764,55.764,0,0,0,11.975-13.335,16.08,16.08,0,0,0,1.7-3.177.434.434,0,0,0-.454-.454c-.453,0-9.817,3.234-10.442,3.234a7.878,7.878,0,0,1-4.312-2.384,6.932,6.932,0,0,1-.908-2.213.5.5,0,0,1,.51-.454C1253.156,2447.948,1254.631,2448.289,1254.915,2448.346Zm18.841-9.079a2.383,2.383,0,0,1-2.157,2.269c-1.306,0-1.986-1.135-3.519-3.518-.737-1.135-1.645-2.1-5.164-4.426-.113-.113-.4-.341-.4-.511,0-.284.851-.284,1.078-.284C1268.364,2432.8,1273.756,2435.8,1273.756,2439.267Zm15.719,26.216c0,.738-.682,2.384-2.157,2.384-1.078,0-1.7-.625-2.781-2.667-.8-1.475-1.135-1.873-4.369-5.618a6.583,6.583,0,0,1-1.078-1.589c0-.171.4-.171.453-.171C1284.707,2457.822,1289.475,2462.419,1289.475,2465.483Z" fill="#fff"/>
    <path id="パス_323" data-name="パス 323" d="M1321.365,2456.177c0,1.191-.8,2.838-2.156,2.838-.852,0-1.135-.341-1.986-1.76a14.709,14.709,0,0,0-5.164-4.653c-.17-.114-.568-.34-.568-.568,0-.851,3.632-.851,3.972-.851C1317.9,2451.183,1321.365,2453.4,1321.365,2456.177Zm-6.7,17.422c-.171-.341-1.078-1.533-1.192-1.817a2.307,2.307,0,0,1-.284-1.021.416.416,0,0,1,.454-.454c.171,0,2.724.908,3.292.908,3.064,0,18.5-8.455,28.487-17.649.625-.624,3.916-3.972,4.086-3.972a.363.363,0,0,1,.34.341c0,.113-2.836,8.909-25.082,22.925-3.461,2.157-3.688,2.328-4.143,2.667-2.1,1.647-2.326,1.817-2.951,1.817C1316.484,2477.344,1315.8,2476.038,1314.669,2473.6Zm13.562-28.772c0,1.476-.964,2.667-1.872,2.667-.625,0-.851-.283-2.838-2.61-1.361-1.589-2.5-2.213-4.937-3.065-.794-.283-.851-.283-.851-.51,0-.624,2.611-1.192,4.313-1.192a7.785,7.785,0,0,1,2.893.568C1326.416,2441.309,1328.231,2442.784,1328.231,2444.827Zm19.011-2.61c0,.681-.738,2.156-1.816,2.156-.852,0-1.362-.624-2.78-2.837a17.691,17.691,0,0,0-3.632-3.8c-.227-.171-.739-.681-.739-.908,0-.341.682-.4,1.022-.4C1342.588,2436.429,1347.242,2439.209,1347.242,2442.217Zm5.958-3.859a1.669,1.669,0,0,1-1.532,1.816c-1.191,0-1.986-1.192-2.78-2.5a14.22,14.22,0,0,0-4.6-3.688c-.511-.284-.624-.567-.624-.681,0-.511,1.135-.511,2.156-.511C1347.3,2432.8,1353.2,2434.442,1353.2,2438.358Z" fill="#fff"/>
    <path id="パス_324" data-name="パス 324" d="M1384.1,2450.843a30.943,30.943,0,0,0,3.575,1.532c1.192,0,2.837-3.973,3.518-5.618,1.022-2.441,2.1-5.675,2.1-6.81a2.526,2.526,0,0,0-.4-1.3c-.171-.34-.341-.511-.341-.681a.464.464,0,0,1,.455-.511,8.84,8.84,0,0,1,3.8,1.817,7.45,7.45,0,0,1,2.441,4.085c0,.454-.171.51-1.419,1.135-.624.34-.794.624-2.271,3.405-.964,1.873-2.043,3.8-3.234,5.674a2.615,2.615,0,0,0-.567,1.419,2.26,2.26,0,0,0,.964,1.533c4.88,4.312,5.562,7.377,5.562,8.795a1.78,1.78,0,0,1-1.816,1.873c-2.043,0-2.9-1.476-4.88-4.994-.568-1.021-1.646-2.951-2.441-2.951a1.631,1.631,0,0,0-1.191.795c-10.385,13-21.734,17.818-22.245,17.818-.171,0-.4-.056-.4-.284s1.078-1.078,1.76-1.645c9.647-7.547,13.449-11.974,15.037-13.9,1.362-1.7,4.086-5.22,4.086-6.071,0-1.192-5.221-4.313-7.377-5.5-1.078-.567-1.191-.624-1.191-.908,0-.226.113-.454.511-.454A22.821,22.821,0,0,1,1384.1,2450.843Z" fill="#fff"/>
    <path id="パス_325" data-name="パス 325" d="M1442.434,2468.15a39.561,39.561,0,0,0-5.562,4.654c-1.079,1.3-1.192,1.419-2.043,1.419-3.064,0-7.264-3.632-7.264-5.9,0-.4.057-3.008.568-3.008a14.243,14.243,0,0,1,1.7,1.079,9.378,9.378,0,0,0,3.857,1.3c2.782,0,17.82-10.044,27.24-19.35.908-.908,2.5-2.5,2.61-2.5a.366.366,0,0,1,.284.284C1463.827,2446.644,1457.188,2457.255,1442.434,2468.15Zm-4.655-18.67c-1.531,0-2.1-.908-3.971-3.745a12.79,12.79,0,0,0-5.164-4.653c-.228-.113-.511-.284-.511-.511s.454-.51,1.248-.51c6.072,0,10.84,3.234,10.84,6.583C1440.221,2448.346,1439.256,2449.48,1437.779,2449.48Z" fill="#fff"/>
    <path id="パス_326" data-name="パス 326" d="M1492.393,2435.577c2.043,0,6.128,1.817,6.128,3.632a16.542,16.542,0,0,1-.681,2.384,73.809,73.809,0,0,0-.511,7.887c0,1.249.228,1.419,1.873,1.817,3.462.794,12.257,4.936,12.257,9.192a1.943,1.943,0,0,1-2.043,1.987c-1.418,0-1.588-.227-5.391-5.164-1.588-2.1-4.255-4.767-6.015-4.767-.567,0-.794,0-.794,4.2,0,6.016.056,9.024.284,14.13.057.625.113,2.043.113,2.9,0,1.419,0,5.164-1.646,5.164-1.7,0-3.178-3.859-3.178-5.334,0-.228.228-1.419.228-1.646a117.553,117.553,0,0,0,.51-13.166c0-16.229,0-18.046-.681-19.861a6.293,6.293,0,0,0-1.929-2.611l-.114-.227C1490.859,2435.577,1492.336,2435.577,1492.393,2435.577Z" fill="#fff"/>
    <path id="パス_327" data-name="パス 327" d="M1542.885,2435.691c2.043,0,6.129,1.816,6.129,3.632,0,.4-.569,2.043-.625,2.383a72.623,72.623,0,0,0-.568,7.945c0,1.192.284,1.418,1.872,1.759,3.633.852,12.315,4.994,12.315,9.194a1.986,1.986,0,0,1-2.1,1.985c-1.361,0-1.418-.113-5.334-5.163-1.589-2.043-4.256-4.768-6.015-4.768-.623,0-.794,0-.794,4.2,0,6.016.056,9.024.284,14.131.056.624.113,2.043.113,2.894,0,1.362,0,5.164-1.646,5.164-1.759,0-3.178-3.858-3.178-5.334,0-.228.227-1.419.227-1.646.681-5.107.511-6.185.511-13.166,0-16.8,0-18.045-.681-19.861a6.31,6.31,0,0,0-1.987-2.61.434.434,0,0,1-.113-.227C1541.408,2435.748,1542.828,2435.691,1542.885,2435.691Zm23.89,9.7c0,.738-.625,2.157-1.759,2.157-.852,0-1.362-.569-2.838-2.725a15.878,15.878,0,0,0-3.688-3.688c-.227-.17-.8-.681-.8-.909,0-.283.511-.4,1.022-.4C1562.746,2439.834,1566.775,2442.841,1566.775,2445.4Zm4.6-6.469c0,.624-.453,1.7-1.475,1.7-1.249,0-1.929-.908-2.951-2.213a14.3,14.3,0,0,0-4.881-3.234c-.566-.228-.737-.511-.737-.624,0-.341.681-.682,2.156-.682C1567.569,2433.875,1571.371,2436.146,1571.371,2438.926Z" fill="#fff"/>
    <path id="パス_328" data-name="パス 328" d="M1603.729,2438.358c0-.567.792-.567,1.248-.567,3.972,0,5.277,2.95,5.277,3.178,0,.68-.568,1.419-1.7,2.837-.283.4-.453.624-.453.908,0,.454.679.454.908.454a32.129,32.129,0,0,0,8.625-2.27,10.6,10.6,0,0,1,2.668-.908c.51,0,.793.17,3.121,1.532.34.17,1.814.965,2.1,1.135a2.062,2.062,0,0,1,1.078,1.419c0,.794-.4,1.022-2.272,2.156-.623.4-.849.738-2.836,3.8a69.378,69.378,0,0,1-20.316,21.337c-6.242,4.086-10.952,5.448-11.293,5.448a.508.508,0,0,1-.51-.51c0-.228.17-.341,1.93-1.306,17.306-9.533,28.09-28.884,28.09-30.644a.615.615,0,0,0-.625-.624c-.114,0-7.946,1.759-9.307,1.759-.34,0-1.873-.17-2.213-.17-1.078,0-1.191.114-3.574,2.838-3.463,3.859-4.881,5.334-7.719,7.377-2.326,1.7-4.766,3.008-5.447,3.008-.284,0-.4-.171-.4-.341,0-.4,3.8-3.575,4.484-4.256,4.6-4.6,9.986-12.428,9.533-15.833C1604.068,2439.834,1603.729,2438.585,1603.729,2438.358Z" fill="#fff"/>
    <path id="パス_329" data-name="パス 329" d="M1645.191,2477.457c11.633-6.583,19.409-15.832,19.409-17.592s-6.754-6.071-8.172-6.071c-1.3,0-8.172,7.434-10.045,7.434a.264.264,0,0,1-.283-.285,18.626,18.626,0,0,1,2.043-2.439c6.753-7.321,11.406-15.322,11.406-18.557,0-.454-.908-2.27-.908-2.667,0-.341.738-.341,1.078-.341,3.008,0,5.107,2.213,5.107,3.349,0,.34-.623,1.872-.623,2.213,0,.851,1.192.965,1.928.965a34.794,34.794,0,0,0,8.514-1.362,13.493,13.493,0,0,1,2.1-1.249c.567,0,4.652,2.554,4.652,4.37,0,.851-.4,1.021-1.417,1.475-.852.4-1.079.681-2.782,3.348-.8,1.249-4.652,6.64-5.334,7.774-.511.795-.625.965-.625,1.419,0,.511.057.624,1.078,1.93,1.364,1.759,2.385,3.008,2.385,4.993a2.445,2.445,0,0,1-2.441,2.725c-1.192,0-1.418-.4-3.574-4.03-.114-.227-.739-1.3-1.305-1.3-.512,0-.852.4-1.986,1.589-9.649,10.384-20.543,13.676-20.942,13.676-.113,0-.623,0-.51-.51C1644,2478.081,1644.113,2478.081,1645.191,2477.457Zm28.885-31.437c0-.625-.568-.795-.965-.795-.851,0-5.845.737-6.867.737a5.158,5.158,0,0,1-1.7-.227,3.817,3.817,0,0,0-1.361-.226.9.9,0,0,0-.682.226c-.057,0-4.824,5.675-4.824,6.356,0,.795.512.965,1.929,1.532a63.387,63.387,0,0,1,6.243,2.9,3.2,3.2,0,0,0,1.3.4C1668.4,2456.688,1674.076,2447.948,1674.076,2446.02Z" fill="#fff"/>
    <path id="パス_330" data-name="パス 330" d="M1740.078,2454.361c.34,0,.963-.056,1.248-.056,3.461,0,3.973,2.1,3.973,2.5,0,1.589-2.328,1.76-4.711,1.76-1.305,0-6.981-.115-8.115-.115-7.83,0-20.827.739-22.188,1.022-.681.114-3.746,1.021-4.426,1.021-2.441,0-5.05-3.517-5.05-5.447,0-.341.17-.681.453-.681s1.646.624,1.929.681a30.95,30.95,0,0,0,6.924.511C1711.986,2455.553,1731.793,2454.815,1740.078,2454.361Z" fill="#fff"/>
    <path id="パス_331" data-name="パス 331" d="M1788.518,2440.628c0,.17.113.4.113.624a43.664,43.664,0,0,1,.566,6.129c0,3.8-.851,9.08-5.843,16.627-4.541,6.924-7.434,8.285-9.706,8.285-3.744,0-7.093-5.845-7.093-12.768,0-3.007.625-8.739,6.3-14.47a23.478,23.478,0,0,1,18.1-7.378c5.164,0,7.547,1.021,9.137,1.816,6.129,3.008,9.873,9.079,9.873,16.514a21.161,21.161,0,0,1-14.3,19.974,34.82,34.82,0,0,1-9.422,2.1c-.226,0-.566-.057-.566-.4,0-.171.113-.228,1.531-.8,5.9-2.327,18.217-7.207,18.217-21.337,0-2.213-.227-15.719-15.719-15.719C1788.574,2439.834,1788.518,2440.288,1788.518,2440.628Zm-18.444,17.422c0,3.688,1.475,8.739,4.938,8.739,1.644,0,3.008-.682,6.922-6.583,3.007-4.6,5.562-10.9,5.562-16.514,0-3.4-.228-3.688-.965-3.688C1781.141,2440,1770.074,2447.324,1770.074,2458.05Z" fill="#fff"/>
    <path id="パス_332" data-name="パス 332" d="M1848.051,2441.706a2.334,2.334,0,0,0,1.986-.681c1.7-1.532,1.873-1.758,2.326-1.758,1.135,0,3.8,3.006,3.8,3.858,0,.567-.285.794-1.42,1.7-.4.284-.623.511-.85,1.76-1.08,6.582-4.085,14.243-5.449,17.534-.509,1.306-.623,1.419-.623,1.76,0,.85,1.192,2.1,1.93,2.837,5.221,5.391,12.654,7.888,20.144,7.888a70.455,70.455,0,0,0,13.9-1.589,17,17,0,0,1,1.816-.454c.283,0,.4.17.4.284,0,.17-.793.68-.907.8a15.557,15.557,0,0,0-2.271,2.893,11.3,11.3,0,0,1-.793,1.7c-.568.739-6.186.795-7.377.795-4.258,0-18.387-.056-26.672-10.328-1.135-1.361-1.248-1.475-1.59-1.475s-.453.17-1.758,2.156a30.3,30.3,0,0,1-11.066,10.271c-.17,0-.4-.056-.4-.283,0-.057,2.779-2.951,3.177-3.405,3.8-4.256,7.83-11.747,7.83-12.541a31.352,31.352,0,0,0-1.191-3.121,55.291,55.291,0,0,1-3.461-10.952,10.2,10.2,0,0,0-.682-2.213c-.113,0-4.312,6.242-5.5,6.242a.266.266,0,0,1-.286-.284c0-.17,1.307-2.441,1.534-2.9a70.59,70.59,0,0,0,5.959-16.513,17.076,17.076,0,0,0,.339-4.255c0-.228,0-.455.227-.455.512,0,5.846,1.646,5.846,2.611,0,.4-.17.454-1.248,1.135-1.194.68-2.668,6.071-2.668,6.3,0,.681.455.681.964.681Zm-4.994,1.532c-1.873,0-2.5,2.951-2.5,3.632,0,3.8,3.744,14.982,4.935,14.982,1.25,0,4.6-15.493,4.6-17.479,0-1.135-.852-1.135-1.93-1.135Zm23.265-5.5c-1.248,0-1.644.4-1.7,1.533a88.661,88.661,0,0,1-.512,10.044c-1.588,15.151-9.42,18.1-9.476,18.1-.113,0-.283-.057-.283-.227s1.986-2.837,2.326-3.405c3.633-5.788,4.029-14.584,4.029-18.726a65.665,65.665,0,0,0-.51-7.775c-.056-.51-.285-1.419-.285-1.7,0-.453.17-.737.512-.737a25.173,25.173,0,0,1,2.779,1.078,6.562,6.562,0,0,0,2.272.284h4.256a2.4,2.4,0,0,0,1.986-.567c.566-.568.908-.795,1.361-.795.51,0,3.461,2.043,3.461,2.78a14.525,14.525,0,0,1-1.191,1.873c-.51,1.305-.51,14.812-.51,17.479,0,1.474,0,5.674.34,6.185.4.681,1.191.738,2.1.738,2.44,0,2.555-.114,3.348-2.157,1.248-3.234,1.42-3.632,1.7-3.632.34,0,.34.4.34,1.022a13.7,13.7,0,0,0,.512,3.4c.908,1.476,1.078,1.7,1.078,2.384,0,2.61-4.313,2.61-5.221,2.61-7.832,0-7.945-.51-7.945-7.377,0-2.951.283-17.478.283-20.769,0-1.646-.965-1.646-1.644-1.646Z" fill="#fff"/>
    <path id="パス_333" data-name="パス 333" d="M1909.859,2444.43c-1.306,0-5.222,0-7.207.114a8.569,8.569,0,0,1-1.193.17c-.17,0-.283-.17-.51-.4l-1.078-1.3c-.226-.228-.226-.284-.226-.341a.15.15,0,0,1,.169-.17c.4,0,2.157.17,2.553.227,2.555.113,5.108.17,7.776.17h11.121c1.646,0,1.646-.738,1.646-3.972a35.689,35.689,0,0,0-.283-5.221c-.057-.341-.4-1.7-.4-1.986,0-.34.4-.34.625-.34s6.015,1.191,6.015,2.5c0,.567-.113.625-1.078,1.532-.738.624-.8,2.1-.8,3.008,0,4.256.34,4.483,1.817,4.483H1940.1c2.1,0,2.666,0,3.405-.851.34-.511,1.816-3.178,2.383-3.178.851,0,5.39,3.915,5.39,4.71,0,.851-1.078.851-3.006.851H1922.8c-.625,0-.852,0-.852.227,0,.4.227.4,2.442.738.849.114,2.5.454,2.5,1.249,0,.454-1.59,1.872-1.76,2.269a15.79,15.79,0,0,0-.908,4.143c0,1.134,1.191,1.134,1.42,1.134h12.541a2.7,2.7,0,0,0,2.383-.85,6.69,6.69,0,0,1,1.3-1.136c.285,0,4.938,2.838,4.938,3.632,0,.454-1.475,1.76-1.645,2.1-.625,1.134-1.363,6.809-1.59,7.944-1.759,8.114-3.517,11.122-5.277,13.165a11.224,11.224,0,0,1-6.525,3.745c-.682,0-.682-.4-.682-.907,0-2.441-2.951-4.257-4.711-5.164-1.3-.682-1.475-.739-1.475-.908,0-.114.057-.455.569-.455a9.6,9.6,0,0,1,2.326.624,17.119,17.119,0,0,0,4.482.739c2.383,0,4.995-1.419,6.811-8.909a58.284,58.284,0,0,0,1.475-10.613c0-1.475-.965-1.475-1.817-1.475h-13.336c-1.588,0-1.7.284-2.383,3.234-4.425,18.443-18.9,21.962-19.634,21.962-.17,0-.51,0-.51-.171,0-.227.68-.624,1.361-.964a33.648,33.648,0,0,0,12.2-13.677,53.274,53.274,0,0,0,4.143-17.931c0-3.746-.965-3.746-2.1-3.746Z" fill="#fff"/>
    <path id="パス_334" data-name="パス 334" d="M1983.563,2436.146c2.156,0,2.269-.115,2.5-.4.339-.4,1.816-2.61,2.326-2.61.285,0,3.916,3.008,3.916,3.688,0,.794-.908.794-2.326.794h-7.264c-.227,0-.512,0-.512.228,0,.17.057.226.908,1.078,2.725,2.553,2.725,3.858,2.725,4.483,0,.4-.057,2.894-2.383,2.894-1.078,0-1.078-.341-1.25-2.441a24.161,24.161,0,0,0-.908-5.56,1.141,1.141,0,0,0-1.191-.682H1978a1.383,1.383,0,0,0-1.248.568c-4.426,5.5-7.83,8.058-8.342,8.058a.122.122,0,0,1-.113-.113c.057-.057.17-.228.226-.284,1.987-2.44,7.094-10.612,7.094-14.3,0-.4,0-.624.34-.624.17,0,4.824,1.475,4.824,2.269,0,.285-1.248.965-1.418,1.192a8.387,8.387,0,0,0-.851,1.419c0,.341.34.341.566.341Zm29.224,30.472c-.283.057-.682.113-.682.4,0,.51,2.383,2.269,2.383,2.894,0,.453-.793.624-1.191.681a3.21,3.21,0,0,0-1.871.624,51.991,51.991,0,0,1-7.151,3.688c-.341.171-.908.454-.908.795,0,.227.227.568.908.851,4.483,1.76,7.434,2.27,9.59,2.27,1.588,0,1.873-.624,2.951-3.177a22.786,22.786,0,0,1,1.022-2.441c.226,0,.226.4.226.852.057,2.837.34,3.234.965,4.028,1.135,1.589,1.362,1.93,1.362,2.44,0,2.157-3.008,2.157-4.2,2.157-2.043,0-7.49-.057-16.287-4.426a5.535,5.535,0,0,0-2.666-.682,6.1,6.1,0,0,0-1.3.171,82.911,82.911,0,0,1-21.452,2.611c-.625,0-4.767,0-4.767-.4,0-.284.285-.284.908-.284,5.277,0,23.721-3.348,23.721-5.107a1.2,1.2,0,0,0-.4-.738,43.469,43.469,0,0,1-3.463-4.029c-.908-1.192-1.134-1.532-2.439-1.418l-8.342.567c-2.781.17-4.711.34-6.639.568a15.385,15.385,0,0,1-1.7.283.786.786,0,0,1-.511-.283l-1.192-1.249a.873.873,0,0,1-.226-.34c0-.171.17-.171.283-.171.285,0,1.533.058,1.816.058,1.93,0,6.412-.285,8.342-.4l7.547-.511c.4,0,.908-.113.908-.681,0-.511-1.93-5.107-1.93-5.334s.512-.227.569-.227c.566,0,3.234.34,3.859.34.793.058,1.418.114,1.418.625,0,.283-1.021,1.532-1.021,1.872,0,1.419.681,3.121,2.439,3.008l15.039-1.078c2.553-.17,2.838-.17,3.461-.795.283-.34,1.022-1.078,1.022-1.361s-.4-.341-.623-.341a31.561,31.561,0,0,1-13.166-4.03c-1.59-.85-1.874-1.021-2.838-1.021a3.269,3.269,0,0,0-.909.114,76.779,76.779,0,0,1-16.91,1.872c-1.021,0-8.568-.113-8.568-.85,0-.115.453-.115.851-.115,5.049,0,23.04-1.928,23.04-3.688,0-.511-1.93-2.326-2.27-2.837-1.078-1.532-1.307-1.816-2.668-1.7l-9.59.681c-4.881.339-6.355.51-7.15.624a8.946,8.946,0,0,1-1.192.226c-.17,0-.341-.17-.511-.34l-1.192-1.249c-.17-.17-.226-.226-.226-.34s.056-.113.34-.113h1.589c1.873,0,6.7-.227,8.512-.341l9.25-.624c.738-.056.738-.284.738-.738,0-.624-1.759-4.993-1.759-5.164s.226-.227.283-.227c.283,0,5.107.794,5.107,1.7,0,.227-.681,1.249-.681,1.532a12.643,12.643,0,0,0,.568,1.759,1.373,1.373,0,0,0,1.588.681l4.767-.341c.114,0,.34,0,.34-.17a.76.76,0,0,0-.17-.284,33.378,33.378,0,0,0-2.382-3.4c-.17-.171-1.475-.795-1.475-1.078,0-.228.113-.341.51-.341,1.929,0,6.3.624,6.3,3.234,0,.285-.454,1.589-.454,1.7,0,.17.227.17.34.17l5.278-.4c2.554-.17,2.838-.17,3.576-1.191,1.474-2.043,1.644-2.271,2.156-2.271.283,0,5.5,2.61,5.5,3.462,0,.737-1.022.737-2.951.908l-6.752.511c-.115,0-.569.057-.569.283,0,.625,2.668,2.1,2.668,2.725,0,.34-1.986.737-2.328.907-2.836,1.306-4.879,2.156-6.072,2.61-.34.115-.623.4-.623.625,0,1.078,6.7,3.007,10.781,3.007,2.385,0,2.555-.454,4.086-4.426.227-.567.227-.68.342-.68.17,0,.17.226.17,1.645a4.923,4.923,0,0,0,.623,3.065c.17.226,1.248,1.3,1.248,1.589,0,1.078-1.135,1.872-2.553,2.1-.283.057-1.361.227-1.361.454,0,.17.283.4.851.794,1.532,1.078,1.7,1.192,1.7,1.589,0,.624-.8.738-1.362.795Zm-1.078-30.472c2.043,0,2.156-.171,2.383-.4.4-.4,1.76-2.667,2.269-2.667.285,0,4.2,3.007,4.2,3.745,0,.794-.965.794-2.44.794H2007.85c-.227,0-.567.057-.567.341a1.886,1.886,0,0,0,.453.624c1.647,1.532,2.952,3.121,2.952,4.71,0,1.93-2.043,2.61-2.725,2.61-1.078,0-1.135-.794-1.135-1.589,0-1.645,0-6.7-2.439-6.7h-4.428a1.582,1.582,0,0,0-1.418.625,59.535,59.535,0,0,1-5.334,5.732.182.182,0,0,1-.17-.171c0-.114.34-.511.453-.738a36.74,36.74,0,0,0,4.485-11.293c.056-.283.169-1.021.736-1.021.455,0,4.484,1.873,4.484,2.554,0,.4-.568.681-1.306,1.078a2.865,2.865,0,0,0-1.192,1.362c0,.4.342.4.569.4Zm-16.74,31.721c-.285,0-.965.113-.965.568,0,.567,3.517,4.653,5.107,4.653,1.871,0,10.555-4.767,10.555-5.9,0-.34-.625-.284-.852-.284Zm1.021-17.7c-.285,0-.965.113-.965.511,0,.567,2.5,3.348,3.8,3.348,1.533,0,7.492-3.122,7.492-4.256,0-.285-.568-.285-.681-.285Zm6.412,13.619a1.8,1.8,0,0,1-1.533,1.929c-.849,0-1.418-.681-2.213-1.646a12.063,12.063,0,0,0-2.722-2.553c-.229-.17-.342-.283-.342-.453,0-.341,1.021-.341,1.248-.341C1998.09,2460.717,2002.4,2460.717,2002.4,2463.781Z" fill="#fff"/>
  </g>
</svg>
