<svg xmlns="http://www.w3.org/2000/svg" width="722.464" height="49.257" viewBox="0 0 722.464 49.257">
  <g id="グループ_47" data-name="グループ 47" transform="translate(-1185.202 -2111.16)">
    <path id="パス_31" data-name="パス 31" d="M1193.657,2126.539a22.464,22.464,0,0,0,4.767.567,66.038,66.038,0,0,0,14.187-2.27c.51-.113,2.667-1.191,3.178-1.191,1.759,0,5.561,1.191,5.561,2.894,0,1.078-1.588,1.135-2.951,1.191-1.305.057-7.093.852-8.285.965-.227,0-.851.114-.851.624a1.381,1.381,0,0,0,.51.852c1.363,1.418,1.533,1.589,1.533,2.043,0,.34-.4,1.815-.454,2.1-.227,2.27-.624,5.221-.965,7.832,0,.283-.057.51-.057.624,0,.851.4,1.078,1.7,1.078,1.135,0,8.285-.511,9.817-.568.681-.056,3.576-.4,4.2-.4,1.533,0,5.619,2.554,5.619,4.2,0,1.022-1.93,1.192-2.1,1.192-.455,0-2.894-.681-3.576-.851a23.228,23.228,0,0,0-6.865-.738c-7.606,0-17.365.908-24.572,2.894-.511.113-2.611.965-3.065.965-.226,0-5.788-2.44-5.788-5.221a.358.358,0,0,1,.4-.4,13.984,13.984,0,0,1,1.645.341,27.073,27.073,0,0,0,4.937.51,121.989,121.989,0,0,0,13.562-1.588c1.135-.511,1.135-3.689,1.135-6.527,0-6.7-.453-8.172-2.043-8.172-1.191,0-7.093,1.7-7.32,1.7a9.841,9.841,0,0,1-3.688-2.553c-.568-.795-1.192-2.043-.965-2.271A2.006,2.006,0,0,1,1193.657,2126.539Z" fill="#fff"/>
    <path id="パス_32" data-name="パス 32" d="M1264.659,2118.991c0-.567.794-.567,1.248-.567,3.973,0,5.279,2.951,5.279,3.178,0,.68-.569,1.419-1.7,2.837-.283.4-.454.624-.454.908,0,.454.681.454.909.454a32.124,32.124,0,0,0,8.626-2.27,10.577,10.577,0,0,1,2.666-.908c.511,0,.794.17,3.121,1.532.341.17,1.816.965,2.1,1.135a2.058,2.058,0,0,1,1.078,1.419c0,.795-.4,1.021-2.27,2.156-.623.4-.851.739-2.837,3.8A69.391,69.391,0,0,1,1262.1,2154c-6.242,4.085-10.953,5.447-11.292,5.447a.508.508,0,0,1-.511-.511c0-.226.171-.34,1.929-1.3,17.308-9.534,28.09-28.885,28.09-30.644a.614.614,0,0,0-.624-.625c-.113,0-7.945,1.76-9.306,1.76-.341,0-1.873-.171-2.213-.171-1.078,0-1.192.114-3.576,2.838-3.461,3.858-4.879,5.334-7.717,7.377-2.326,1.7-4.768,3.008-5.447,3.008-.286,0-.4-.17-.4-.341,0-.4,3.8-3.575,4.483-4.256,4.6-4.6,9.988-12.428,9.535-15.833C1265,2120.467,1264.659,2119.219,1264.659,2118.991Zm26.728,1.93c0,.965-.681,2.213-1.646,2.213-.794,0-1.249-.341-3.007-2.441a17.946,17.946,0,0,0-4.029-3.347c-.284-.17-.851-.568-.851-.795s.454-.511.964-.511C1290.082,2116.04,1291.387,2120.24,1291.387,2120.921Zm1.362-8.569c2.327,1.362,2.327,2.667,2.327,3.235a1.535,1.535,0,0,1-1.42,1.645c-1.191,0-1.758-.567-3.007-1.873a13.332,13.332,0,0,0-5.22-2.781c-.568-.17-.738-.453-.738-.624,0-.454,1.475-.794,2.043-.794C1288.947,2111.16,1290.819,2111.16,1292.749,2112.352Z" fill="#fff"/>
    <path id="パス_33" data-name="パス 33" d="M1309.8,2134.257a12.618,12.618,0,0,0,2.1.17c2.269,0,3.234-.284,11.859-2.554,1.533-.4,1.646-.852,1.646-3.859,0-6.128-.681-7.093-2.043-9.136a11.445,11.445,0,0,1-.681-1.078c0-.511,2.1-.965,2.611-.965.852,0,1.135.17,3.915,2.5.171.17,1.193,1.135,1.193,1.7a17.207,17.207,0,0,1-1.079,2.554,47.17,47.17,0,0,0-.851,5.447,1,1,0,0,0,1.135,1.079,68.753,68.753,0,0,0,8.511-2.384,16.222,16.222,0,0,1,2.441-1.191c1.532,0,7.6,4.369,7.6,6.7,0,.4-.284.851-1.021.851-.227,0-1.306-.113-1.532-.113-1.193,0-1.816.4-3.859,1.645a47.242,47.242,0,0,1-4.257,2.554.328.328,0,0,1-.341-.341c0-.057.965-1.645,1.079-1.872a9.728,9.728,0,0,0,1.589-4.71c0-.341-.056-1.135-.681-1.135-.113,0-8.625,2.781-9.363,3.007a2.132,2.132,0,0,0-1.759,2.441c0,4.766,0,9.874.113,10.952.454,4.483,3.632,4.994,7.036,4.994a50.205,50.205,0,0,0,6.242-.568,25.617,25.617,0,0,1,4.711-.794,2.2,2.2,0,0,1,2.383,1.816c0,3.632-9.533,3.632-12.6,3.632-9.817,0-11.008-2.554-11.008-11.974,0-1.136.113-6.072.113-7.037,0-.908-.341-1.306-1.135-1.306a46.4,46.4,0,0,0-5.335,1.59c-3.347,1.759-3.687,1.929-4.936,1.929-2.894,0-5.164-4.313-5.164-4.539,0-.171.227-.228.34-.228A3.31,3.31,0,0,1,1309.8,2134.257Zm41.652-8.967c0,.965-.738,2.156-1.645,2.156-.794,0-1.249-.34-3.008-2.5-.965-1.249-1.589-1.76-3.972-3.405-.227-.17-.851-.624-.851-.852s.51-.453,1.021-.453C1349.518,2120.24,1351.447,2124.1,1351.447,2125.29Zm5.959-4.6a1.673,1.673,0,0,1-1.476,1.817c-1.305,0-2.043-1.249-2.78-2.554a14.211,14.211,0,0,0-4.484-3.858c-.51-.285-.623-.569-.623-.682,0-.511,1.361-.567,2.213-.454C1354.229,2115.587,1357.406,2117.913,1357.406,2120.693Z" fill="#fff"/>
    <path id="パス_34" data-name="パス 34" d="M1384.717,2118.311c0-.568.795-.568,1.248-.568,3.973,0,5.278,2.95,5.278,3.178,0,.681-.567,1.419-1.7,2.837-.284.4-.455.624-.455.908,0,.454.682.454.908.454a32.111,32.111,0,0,0,8.626-2.269,10.554,10.554,0,0,1,2.667-.909c.511,0,.8.17,3.121,1.533.341.17,1.817.964,2.1,1.134a2.056,2.056,0,0,1,1.078,1.419c0,.794-.4,1.022-2.27,2.157-.625.4-.851.737-2.837,3.8a69.387,69.387,0,0,1-20.315,21.337c-6.242,4.086-10.953,5.448-11.293,5.448a.509.509,0,0,1-.512-.51c0-.228.171-.341,1.93-1.306,17.309-9.533,28.09-28.884,28.09-30.643a.613.613,0,0,0-.624-.624c-.113,0-7.944,1.758-9.306,1.758-.342,0-1.873-.17-2.214-.17-1.078,0-1.192.114-3.575,2.838-3.461,3.859-4.881,5.334-7.718,7.377-2.327,1.7-4.766,3.008-5.448,3.008-.283,0-.4-.171-.4-.341,0-.4,3.8-3.575,4.482-4.256,4.6-4.6,9.988-12.427,9.534-15.833C1385.058,2119.786,1384.717,2118.537,1384.717,2118.311Z" fill="#fff"/>
    <path id="パス_35" data-name="パス 35" d="M1454.277,2136.98c0,.4-1.362,1.476-1.533,1.759-.17.228-2.326,5.449-2.836,6.413-5.448,10.952-14.3,14.584-15.039,14.584-.226,0-.34-.114-.34-.284a38.5,38.5,0,0,1,3.008-2.837,38.273,38.273,0,0,0,11.122-21.394c0-.681-.114-1.7-1.362-1.7a69.931,69.931,0,0,0-9.023,1.7,35.59,35.59,0,0,1-4.086,1.021c-2.836,0-4.483-3.064-4.483-4.312,0-.341.113-.568.4-.568a4.942,4.942,0,0,1,.85.284,17.685,17.685,0,0,0,3.576.4c3.631,0,18.329-1.589,22.3-2.156.682-.114,3.633-1.022,4.257-1.022.681,0,7.149,1.249,7.149,3.575,0,1.022-.907,1.363-1.644,1.363-.625,0-3.405-.454-3.973-.511-1.191-.114-2.781-.284-4.029-.284a48.94,48.94,0,0,0-5.732.17.688.688,0,0,0-.4.851C1452.518,2134.2,1454.277,2136.47,1454.277,2136.98Zm-12.6-16.683c1.758,0,2.383-.171,8.057-1.419a23.177,23.177,0,0,1,4.54-.681c1.192,0,3.235.227,3.235,1.872s-.965,1.76-4.313,2.1c-2.894.341-6.7,1.078-7.548,1.249-.284.057-2.5.511-2.667.511-2.781,0-4.54-3.973-4.255-4.086C1439.068,2119.9,1441.338,2120.3,1441.68,2120.3Z" fill="#fff"/>
    <path id="パス_36" data-name="パス 36" d="M1501.722,2136.7c.965.624,2.156,1.193,2.156,1.93,0,.283-.511,1.589-.567,1.93-.114.737-.227,1.645-.227,8.171,0,1.475,0,3.292.113,5.448,0,.567.34,3.462.34,4.086,0,.454,0,2.156-1.248,2.156-1.361,0-2.838-2.213-2.838-3.349a12,12,0,0,1,.284-2.042,71.014,71.014,0,0,0,.624-9.76c0-1.419,0-6.243-1.134-6.243-.17,0-.284.114-1.192.908-6.639,6.129-12.371,8.512-12.711,8.512a.322.322,0,0,1-.342-.34c0-.284,1.7-1.7,2.271-2.157,11.293-9.306,15.662-18.046,15.662-19.464a2.977,2.977,0,0,0-.4-1.362,6.738,6.738,0,0,1-.453-.908.617.617,0,0,1,.624-.567c.624,0,5.448,1.986,5.448,3.916a1.34,1.34,0,0,1-.455,1.021,6.465,6.465,0,0,0-1.759,1.815c-1.249,1.874-1.589,2.27-4.427,5.9A.568.568,0,0,0,1501.722,2136.7Z" fill="#fff"/>
    <path id="パス_37" data-name="パス 37" d="M1534.072,2123.3a13.385,13.385,0,0,0,4.709,1.192c2.327,0,18.954-1.589,21.4-2.667,1.759-.8,1.986-.908,2.383-.908,1.248,0,2.156.794,3.916,2.326,2.553,2.271,2.894,2.9,2.894,3.689,0,.738-.284,1.021-1.306,2.043-.908.851-1.134,1.3-2.213,3.575-8.909,18.5-28.713,26.444-29.282,26.444a.377.377,0,0,1-.4-.34c0-.227.17-.341.737-.738,9.874-6.923,17.876-14.414,22.415-22.472a32.072,32.072,0,0,0,3.86-9.591c0-.964-.965-1.021-1.249-1.021-.568,0-16.968,2.725-20.429,4.086a20.51,20.51,0,0,1-2.838,1.249c-1.3,0-5.845-2.838-5.845-5.959,0-1.078.171-1.248.511-1.248C1533.447,2122.964,1533.958,2123.3,1534.072,2123.3Zm41.6-.227c0,.794-.738,2.156-1.76,2.156-.908,0-1.361-.567-2.894-2.723a16.853,16.853,0,0,0-3.688-3.689c-.227-.171-.8-.681-.8-.908s.511-.4,1.022-.4C1571.582,2117.516,1575.668,2120.467,1575.668,2123.077Zm4.312-4.312c0,.624-.454,1.7-1.475,1.7-1.249,0-1.929-1.022-2.894-2.327a14.1,14.1,0,0,0-4.711-3.461c-.566-.284-.737-.511-.737-.682,0-.567,1.7-.567,2.156-.567C1574.7,2113.43,1579.98,2115.132,1579.98,2118.765Z" fill="#fff"/>
    <path id="パス_38" data-name="パス 38" d="M1610.8,2131.135c2.213,1.362,2.439,1.59,2.439,2.1,0,.34-.623,1.929-.679,2.27-.229,1.021-.342,2.213-.342,10.044,0,1.532.056,4.6.17,6.809.056.682.4,3.973.4,4.71,0,.569,0,2.5-1.361,2.5-1.59,0-3.52-2.439-3.52-3.971,0-.568.569-3.065.625-3.632.34-3.065.567-7.435.567-10.441,0-2.043,0-8-1.475-8-.283,0-.512.227-.965.68-5.561,5.335-15.095,10.839-16.117,10.839-.17,0-.283-.113-.283-.34a.514.514,0,0,1,.17-.4c1.476-1.306,3.064-2.611,3.972-3.405,13.393-11.463,17.819-21.11,17.819-22.7a3.22,3.22,0,0,0-.453-1.59,6.28,6.28,0,0,1-.4-.907.562.562,0,0,1,.569-.454c.851,0,6.582,2.383,6.582,4.54a1.434,1.434,0,0,1-.51,1.135c-1.533,1.248-1.76,1.589-3.86,4.653-.964,1.362-2.781,3.405-3.859,4.767A.918.918,0,0,0,1610.8,2131.135Z" fill="#fff"/>
    <path id="パス_39" data-name="パス 39" d="M1662.1,2148.1a39.551,39.551,0,0,0-5.561,4.653c-1.078,1.306-1.191,1.419-2.043,1.419-3.064,0-7.264-3.632-7.264-5.9,0-.4.057-3.007.567-3.007a13.99,13.99,0,0,1,1.7,1.078,9.4,9.4,0,0,0,3.859,1.3c2.782,0,17.819-10.044,27.239-19.35.908-.908,2.5-2.5,2.611-2.5a.365.365,0,0,1,.283.284C1683.5,2126.6,1676.855,2137.207,1662.1,2148.1Zm-4.653-18.67c-1.533,0-2.1-.909-3.972-3.745a12.782,12.782,0,0,0-5.164-4.654c-.227-.113-.512-.284-.512-.511s.455-.51,1.25-.51c6.072,0,10.838,3.234,10.838,6.583C1659.889,2128.3,1658.924,2129.433,1657.449,2129.433Z" fill="#fff"/>
    <path id="パス_40" data-name="パス 40" d="M1697.574,2157.409c11.633-6.583,19.406-15.832,19.406-17.592s-6.751-6.071-8.169-6.071c-1.307,0-8.172,7.434-10.045,7.434a.265.265,0,0,1-.284-.284,18.464,18.464,0,0,1,2.043-2.44c6.752-7.321,11.407-15.322,11.407-18.557,0-.454-.909-2.27-.909-2.667,0-.34.737-.34,1.079-.34,3.007,0,5.107,2.212,5.107,3.348,0,.34-.625,1.872-.625,2.213,0,.851,1.191.965,1.93.965a34.764,34.764,0,0,0,8.511-1.362,13.633,13.633,0,0,1,2.1-1.248c.568,0,4.654,2.553,4.654,4.369,0,.851-.4,1.021-1.42,1.475-.851.4-1.078.681-2.779,3.348-.795,1.249-4.654,6.64-5.336,7.774-.51.8-.623.965-.623,1.419,0,.511.057.624,1.078,1.93,1.362,1.759,2.383,3.008,2.383,4.993a2.444,2.444,0,0,1-2.439,2.725c-1.192,0-1.42-.4-3.577-4.029-.113-.228-.736-1.306-1.3-1.306-.51,0-.852.4-1.987,1.589-9.646,10.384-20.543,13.676-20.939,13.676-.113,0-.625,0-.51-.51C1696.383,2158.033,1696.5,2158.033,1697.574,2157.409Zm28.885-31.437c0-.625-.568-.795-.965-.795-.851,0-5.846.737-6.867.737a5.2,5.2,0,0,1-1.7-.226,3.813,3.813,0,0,0-1.361-.227.9.9,0,0,0-.682.227c-.057,0-4.822,5.674-4.822,6.355,0,.795.509.965,1.929,1.532a63.587,63.587,0,0,1,6.242,2.9,3.2,3.2,0,0,0,1.305.4C1720.783,2136.64,1726.459,2127.9,1726.459,2125.972Z" fill="#fff"/>
    <path id="パス_41" data-name="パス 41" d="M1761.986,2120.637a2.353,2.353,0,0,1,.963,1.475c0,.511-.906,2.724-.963,3.235-.228,1.986-.341,7.037-.341,9.421a.949.949,0,0,0,1.078,1.02c1.134,0,13.506-6.015,13.506-9.079,0-.341-.4-1.93-.4-2.1,0-.227.4-.227.795-.227,3.857,0,5.844,3.348,5.844,4.767,0,1.305-.852,1.476-2.5,1.816-1.3.284-6.412,2.838-7.491,3.292-1.589.681-9.988,3.688-10.271,3.858-.682.454-.682.738-.682,2.9,0,7.433,1.078,8.966,8.512,8.966a36.153,36.153,0,0,0,8.285-1.022,33.378,33.378,0,0,1,3.916-.681,2.2,2.2,0,0,1,2.27,1.986c0,4.257-10.9,4.257-14.414,4.257-11.746,0-12.03-5.051-12.03-13.11,0-2.043.17-10.952.17-12.824,0-4.653-.851-6.753-1.474-7.945a11.555,11.555,0,0,1-.965-1.872c0-.341.793-.511,1.3-.511C1758.75,2118.254,1759.545,2118.65,1761.986,2120.637Zm28.657,3.348c0,.681-.623,2.157-1.7,2.157-.851,0-1.363-.511-2.894-2.667a16.3,16.3,0,0,0-3.746-3.689c-.227-.171-.8-.625-.8-.851,0-.285.512-.455,1.021-.455C1786.9,2118.48,1790.643,2121.6,1790.643,2123.985Zm4.767-5.731a1.577,1.577,0,0,1-1.42,1.7c-1.191,0-1.871-.737-3.006-2.043a14.425,14.425,0,0,0-5.05-3.008c-.569-.17-.739-.454-.739-.624,0-.454,1.418-.738,2.1-.738C1794.275,2113.543,1795.41,2117.232,1795.41,2118.254Z" fill="#fff"/>
    <path id="パス_42" data-name="パス 42" d="M1819.361,2136.242c2.838,0,10.953-2.1,11.635-2.326a13.059,13.059,0,0,1,1.815-.852c1.646,0,4.427,2.328,4.427,3.122,0,.4-1.25,1.7-1.42,1.986-1.078,2.269-1.986,9.25-1.986,10.895,0,.454.113.8.908.8,1.022,0,5.5-1.078,6.412-1.078,2.328,0,5.9,1.759,5.9,3.859,0,.567-.17,1.419-1.248,1.419a27.874,27.874,0,0,1-3.121-.682,23.835,23.835,0,0,0-5.79-.624,113.444,113.444,0,0,0-21.392,2.384,20.928,20.928,0,0,1-2.5.737c-.51,0-4.709-1.986-4.709-5.051,0-.283.113-.4.4-.4a13.353,13.353,0,0,1,1.418.4,16.069,16.069,0,0,0,4.086.682c1.42,0,14.358-.965,15.039-1.249.623-.283.739-.907.909-2.156.113-1.079,1.361-10.044,1.361-10.158,0-.851-.453-.851-.738-.851a91.021,91.021,0,0,0-9.364,2.384,14.439,14.439,0,0,1-1.986.793c-1.3,0-3.348-2.667-3.348-3.745,0-.34.17-.4.512-.4C1816.752,2136.129,1818.908,2136.242,1819.361,2136.242Z" fill="#fff"/>
    <path id="パス_43" data-name="パス 43" d="M1902.445,2134.313c.34,0,.963-.056,1.248-.056,3.461,0,3.973,2.1,3.973,2.5,0,1.589-2.328,1.76-4.711,1.76-1.3,0-6.98-.115-8.115-.115-7.83,0-20.826.739-22.188,1.022-.681.114-3.746,1.021-4.425,1.021-2.442,0-5.051-3.517-5.051-5.447,0-.341.17-.681.453-.681s1.646.625,1.93.681a30.924,30.924,0,0,0,6.923.511C1874.354,2135.5,1894.16,2134.768,1902.445,2134.313Z" fill="#fff"/>
  </g>
</svg>
