<svg xmlns="http://www.w3.org/2000/svg" width="220.175" height="69.152" viewBox="0 0 220.175 69.152">
  <g id="グループ_5797" data-name="グループ 5797" transform="translate(-66.424 -1522.66)">
    <g id="グループ_5796" data-name="グループ 5796" transform="translate(88.61 1566.145)">
      <path id="パス_38" data-name="パス 38" d="M1601.713,2124.107c1.235.76,1.361.887,1.361,1.171,0,.189-.347,1.076-.379,1.266-.127.569-.191,1.235-.191,5.6,0,.854.031,2.564.095,3.8.031.38.222,2.216.222,2.628,0,.317,0,1.392-.759,1.392-.887,0-1.963-1.36-1.963-2.215,0-.316.318-1.709.349-2.025.19-1.709.316-4.146.316-5.823,0-1.14,0-4.463-.823-4.463-.158,0-.286.127-.538.379-3.1,2.975-8.418,6.045-8.989,6.045-.095,0-.158-.063-.158-.19a.286.286,0,0,1,.095-.221c.823-.729,1.709-1.456,2.215-1.9,7.469-6.394,9.938-11.774,9.938-12.661a1.792,1.792,0,0,0-.253-.886,3.514,3.514,0,0,1-.223-.505.314.314,0,0,1,.317-.254c.475,0,3.671,1.329,3.671,2.532a.8.8,0,0,1-.284.633,9.039,9.039,0,0,0-2.153,2.6c-.537.759-1.551,1.9-2.152,2.659A.512.512,0,0,0,1601.713,2124.107Z" transform="translate(-1590.256 -2114.296)" fill="#fff"/>
      <path id="パス_39" data-name="パス 39" d="M1655.526,2135.68a22.038,22.038,0,0,0-3.1,2.595c-.6.729-.664.792-1.139.792-1.709,0-4.051-2.026-4.051-3.291,0-.222.032-1.677.316-1.677a7.8,7.8,0,0,1,.95.6,5.235,5.235,0,0,0,2.153.727c1.551,0,9.938-5.6,15.191-10.791.506-.507,1.393-1.393,1.456-1.393a.2.2,0,0,1,.158.158C1667.458,2123.685,1663.755,2129.6,1655.526,2135.68Zm-2.6-10.413c-.855,0-1.17-.507-2.215-2.089a7.137,7.137,0,0,0-2.88-2.6c-.127-.063-.286-.158-.286-.285s.254-.284.7-.284c3.386,0,6.045,1.8,6.045,3.672A1.4,1.4,0,0,1,1652.931,2125.267Z" transform="translate(-1615.457 -2116.405)" fill="#fff"/>
      <path id="パス_40" data-name="パス 40" d="M1697.015,2139.49c6.488-3.671,10.823-8.83,10.823-9.812s-3.765-3.385-4.556-3.385c-.729,0-4.557,4.146-5.6,4.146a.147.147,0,0,1-.158-.158,10.283,10.283,0,0,1,1.14-1.361c3.766-4.083,6.362-8.545,6.362-10.349,0-.253-.507-1.266-.507-1.487,0-.19.411-.19.6-.19,1.677,0,2.848,1.234,2.848,1.867,0,.19-.349,1.044-.349,1.235,0,.474.664.538,1.077.538a19.352,19.352,0,0,0,4.747-.76,7.656,7.656,0,0,1,1.171-.7c.317,0,2.6,1.425,2.6,2.437,0,.475-.222.57-.792.823-.475.223-.6.38-1.55,1.867-.443.7-2.6,3.7-2.976,4.335-.285.444-.348.539-.348.792,0,.285.032.347.6,1.076a4.416,4.416,0,0,1,1.329,2.784,1.363,1.363,0,0,1-1.36,1.52c-.665,0-.792-.222-1.995-2.247-.063-.127-.411-.729-.727-.729-.285,0-.475.221-1.108.886a27.319,27.319,0,0,1-11.678,7.627c-.063,0-.349,0-.284-.284C1696.351,2139.836,1696.414,2139.836,1697.015,2139.49Zm16.109-17.533c0-.348-.317-.444-.538-.444-.475,0-3.261.412-3.83.412a2.87,2.87,0,0,1-.95-.127,2.145,2.145,0,0,0-.759-.127.5.5,0,0,0-.38.127,25.918,25.918,0,0,0-2.689,3.545c0,.444.284.538,1.076.855a35.537,35.537,0,0,1,3.481,1.615,1.78,1.78,0,0,0,.728.221C1709.959,2127.906,1713.125,2123.031,1713.125,2121.956Z" transform="translate(-1637.162 -2115.024)" fill="#fff"/>
      <path id="パス_41" data-name="パス 41" d="M1759.251,2117.5a1.314,1.314,0,0,1,.537.823c0,.284-.505,1.519-.537,1.8-.127,1.108-.19,3.925-.19,5.254a.529.529,0,0,0,.6.569c.632,0,7.532-3.355,7.532-5.063,0-.19-.222-1.076-.222-1.171,0-.127.222-.127.443-.127a3.259,3.259,0,0,1,3.26,2.659c0,.728-.475.823-1.392,1.013-.728.158-3.576,1.583-4.178,1.836-.886.38-5.571,2.057-5.728,2.152-.38.253-.38.411-.38,1.615,0,4.145.6,5,4.747,5a20.174,20.174,0,0,0,4.621-.57,18.581,18.581,0,0,1,2.184-.38,1.225,1.225,0,0,1,1.266,1.108c0,2.375-6.076,2.375-8.039,2.375-6.551,0-6.709-2.818-6.709-7.312,0-1.14.095-6.108.095-7.152a9.007,9.007,0,0,0-.822-4.432,6.392,6.392,0,0,1-.538-1.044c0-.19.442-.284.727-.284C1757.446,2116.171,1757.889,2116.391,1759.251,2117.5Zm15.982,1.868c0,.38-.347,1.2-.949,1.2-.475,0-.76-.285-1.614-1.487a9.066,9.066,0,0,0-2.089-2.058c-.127-.1-.444-.349-.444-.475,0-.159.286-.253.569-.253C1773.144,2116.3,1775.233,2118.038,1775.233,2119.367Zm2.659-3.2a.88.88,0,0,1-.792.949c-.664,0-1.043-.411-1.677-1.139a8.042,8.042,0,0,0-2.817-1.678c-.317-.094-.412-.253-.412-.348,0-.253.791-.412,1.172-.412C1777.259,2113.543,1777.892,2115.6,1777.892,2116.171Z" transform="translate(-1663.474 -2113.543)" fill="#fff"/>
      <path id="パス_42" data-name="パス 42" d="M1814.468,2134.836a39.964,39.964,0,0,0,6.489-1.3,7.269,7.269,0,0,1,1.012-.476,3.536,3.536,0,0,1,2.469,1.741c0,.221-.7.949-.792,1.108a24.075,24.075,0,0,0-1.107,6.076c0,.253.063.444.506.444.57,0,3.07-.6,3.576-.6,1.3,0,3.292.981,3.292,2.152,0,.317-.095.792-.7.792a15.788,15.788,0,0,1-1.741-.38,13.265,13.265,0,0,0-3.229-.348,63.266,63.266,0,0,0-11.93,1.33,11.742,11.742,0,0,1-1.393.41c-.285,0-2.626-1.107-2.626-2.817,0-.158.063-.22.221-.22a7.494,7.494,0,0,1,.791.22,8.956,8.956,0,0,0,2.279.38c.792,0,8.008-.538,8.388-.7.347-.158.412-.506.507-1.2.063-.6.759-5.6.759-5.666,0-.474-.252-.474-.412-.474a50.709,50.709,0,0,0-5.222,1.329,8.118,8.118,0,0,1-1.107.442c-.728,0-1.867-1.487-1.867-2.089,0-.189.095-.221.285-.221C1813.013,2134.773,1814.215,2134.836,1814.468,2134.836Z" transform="translate(-1686.693 -2122.176)" fill="#fff"/>
      <path id="パス_43" data-name="パス 43" d="M1885.077,2134.288c.19,0,.537-.031.7-.031,1.93,0,2.216,1.171,2.216,1.392,0,.885-1.3.981-2.628.981-.727,0-3.893-.064-4.526-.064-4.367,0-11.615.413-12.375.571-.38.064-2.089.569-2.468.569-1.362,0-2.817-1.962-2.817-3.038,0-.19.095-.38.253-.38s.918.349,1.076.38a17.24,17.24,0,0,0,3.861.285C1869.41,2134.953,1880.457,2134.542,1885.077,2134.288Z" transform="translate(-1710.964 -2122.704)" fill="#fff"/>
    </g>
    <g id="グループ_5795" data-name="グループ 5795" transform="translate(66.424 1522.66)">
      <path id="パス_3145" data-name="パス 3145" d="M1189.918,2125.259a12.523,12.523,0,0,0,2.659.316,36.834,36.834,0,0,0,7.912-1.266c.284-.063,1.487-.664,1.772-.664.981,0,3.1.664,3.1,1.614,0,.6-.886.633-1.646.664-.728.032-3.956.475-4.621.538-.127,0-.474.064-.474.349a.768.768,0,0,0,.284.474c.76.792.855.886.855,1.139,0,.19-.222,1.013-.253,1.171-.127,1.266-.348,2.912-.538,4.368,0,.157-.032.285-.032.348,0,.475.222.6.949.6.633,0,4.621-.285,5.476-.317.38-.031,1.994-.221,2.341-.221.855,0,3.134,1.424,3.134,2.342,0,.57-1.076.665-1.171.665-.254,0-1.614-.379-1.994-.474a12.95,12.95,0,0,0-3.829-.412,56.6,56.6,0,0,0-13.7,1.614c-.285.063-1.456.539-1.709.539-.126,0-3.228-1.361-3.228-2.912a.2.2,0,0,1,.222-.221,7.788,7.788,0,0,1,.917.19,15.113,15.113,0,0,0,2.753.284,68.091,68.091,0,0,0,7.564-.885c.633-.285.633-2.057.633-3.64,0-3.735-.253-4.558-1.139-4.558-.665,0-3.956.95-4.083.95a5.493,5.493,0,0,1-2.057-1.424c-.317-.443-.665-1.139-.538-1.267A1.12,1.12,0,0,1,1189.918,2125.259Z" transform="translate(-1185.202 -2116.682)" fill="#fff"/>
      <path id="パス_3146" data-name="パス 3146" d="M1258.309,2115.527c0-.316.443-.316.7-.316a2.957,2.957,0,0,1,2.944,1.773c0,.379-.317.791-.95,1.582-.157.221-.253.349-.253.507,0,.253.38.253.507.253a17.945,17.945,0,0,0,4.811-1.266,5.875,5.875,0,0,1,1.487-.507c.285,0,.443.094,1.741.854.19.095,1.013.538,1.171.633a1.149,1.149,0,0,1,.6.791c0,.444-.222.569-1.266,1.2-.347.222-.474.412-1.582,2.12a38.706,38.706,0,0,1-11.33,11.9,21.664,21.664,0,0,1-6.3,3.038.283.283,0,0,1-.285-.285c0-.126.1-.19,1.076-.727,9.653-5.317,15.666-16.11,15.666-17.091a.343.343,0,0,0-.348-.349c-.063,0-4.431.981-5.19.981-.19,0-1.045-.1-1.235-.1-.6,0-.665.063-1.994,1.583a23.79,23.79,0,0,1-4.3,4.115,9.7,9.7,0,0,1-3.038,1.678c-.16,0-.222-.095-.222-.191a26.878,26.878,0,0,1,2.5-2.373c2.564-2.564,5.57-6.931,5.318-8.83C1258.5,2116.351,1258.309,2115.654,1258.309,2115.527Zm14.906,1.076c0,.539-.379,1.234-.918,1.234-.443,0-.7-.19-1.677-1.361a10.006,10.006,0,0,0-2.247-1.866c-.159-.094-.475-.317-.475-.444s.253-.285.538-.285C1272.488,2113.881,1273.216,2116.224,1273.216,2116.6Zm.76-4.779c1.3.76,1.3,1.487,1.3,1.8a.856.856,0,0,1-.792.917c-.665,0-.981-.315-1.677-1.044a7.432,7.432,0,0,0-2.911-1.552c-.317-.094-.411-.252-.411-.347,0-.253.822-.443,1.139-.443A5.838,5.838,0,0,1,1273.976,2111.825Z" transform="translate(-1213.995 -2111.16)" fill="#fff"/>
      <path id="パス_3147" data-name="パス 3147" d="M1309.193,2125.7a7.018,7.018,0,0,0,1.171.094c1.265,0,1.8-.158,6.614-1.424.855-.221.918-.475.918-2.153,0-3.417-.38-3.955-1.139-5.1a6.366,6.366,0,0,1-.38-.6c0-.284,1.171-.539,1.456-.539.475,0,.633.1,2.183,1.393.1.095.666.633.666.949a9.564,9.564,0,0,1-.6,1.425,26.3,26.3,0,0,0-.475,3.037.559.559,0,0,0,.633.6,38.368,38.368,0,0,0,4.747-1.33,9,9,0,0,1,1.361-.664c.854,0,4.241,2.436,4.241,3.734,0,.222-.158.475-.569.475-.127,0-.729-.063-.854-.063-.665,0-1.013.222-2.152.918a26.388,26.388,0,0,1-2.374,1.424.182.182,0,0,1-.19-.19c0-.032.538-.917.6-1.044a5.422,5.422,0,0,0,.886-2.627c0-.19-.031-.633-.38-.633-.063,0-4.81,1.551-5.222,1.677a1.189,1.189,0,0,0-.981,1.361c0,2.658,0,5.507.063,6.107.253,2.5,2.025,2.785,3.924,2.785a27.985,27.985,0,0,0,3.481-.317,14.288,14.288,0,0,1,2.627-.442,1.226,1.226,0,0,1,1.329,1.012c0,2.027-5.317,2.027-7.026,2.027-5.475,0-6.139-1.425-6.139-6.678,0-.633.063-3.386.063-3.925,0-.507-.19-.729-.633-.729a25.9,25.9,0,0,0-2.975.887c-1.867.981-2.056,1.076-2.753,1.076-1.614,0-2.88-2.406-2.88-2.531,0-.1.127-.128.19-.128A1.84,1.84,0,0,1,1309.193,2125.7Zm23.23-5c0,.538-.411,1.2-.917,1.2-.443,0-.7-.189-1.678-1.392a7.959,7.959,0,0,0-2.215-1.9c-.126-.094-.475-.347-.475-.475s.284-.253.569-.253C1331.347,2117.884,1332.423,2120.036,1332.423,2120.7Zm3.323-2.563a.933.933,0,0,1-.823,1.013c-.728,0-1.139-.7-1.55-1.424a7.924,7.924,0,0,0-2.5-2.152c-.285-.159-.347-.317-.347-.381,0-.284.759-.316,1.234-.253C1333.974,2115.289,1335.746,2116.586,1335.746,2118.137Z" transform="translate(-1239.705 -2112.82)" fill="#fff"/>
      <path id="パス_3148" data-name="パス 3148" d="M1378.367,2118.06c0-.317.443-.317.7-.317a2.956,2.956,0,0,1,2.943,1.773c0,.38-.316.792-.949,1.582-.158.222-.254.349-.254.507,0,.253.38.253.506.253a17.915,17.915,0,0,0,4.811-1.265,5.9,5.9,0,0,1,1.487-.507c.285,0,.444.1,1.741.855.19.094,1.013.538,1.171.632a1.147,1.147,0,0,1,.6.792c0,.443-.222.57-1.266,1.2-.349.221-.474.411-1.582,2.119a38.7,38.7,0,0,1-11.33,11.9,21.666,21.666,0,0,1-6.3,3.038.284.284,0,0,1-.286-.284c0-.127.1-.19,1.076-.729,9.654-5.316,15.666-16.109,15.666-17.09a.342.342,0,0,0-.348-.348c-.063,0-4.431.98-5.19.98-.191,0-1.045-.094-1.235-.094-.6,0-.665.064-1.994,1.583a23.813,23.813,0,0,1-4.3,4.114,9.667,9.667,0,0,1-3.038,1.678c-.158,0-.221-.1-.221-.191a26.952,26.952,0,0,1,2.5-2.373c2.564-2.563,5.57-6.931,5.317-8.83C1378.557,2118.883,1378.367,2118.186,1378.367,2118.06Z" transform="translate(-1267.094 -2114.072)" fill="#fff"/>
      <path id="パス_3149" data-name="パス 3149" d="M1443.409,2128.673c0,.222-.76.823-.855.981-.095.127-1.3,3.039-1.582,3.576-3.038,6.108-7.976,8.134-8.387,8.134-.126,0-.19-.064-.19-.159a21.534,21.534,0,0,1,1.678-1.582,21.344,21.344,0,0,0,6.2-11.932c0-.38-.063-.949-.76-.949a38.967,38.967,0,0,0-5.032.949,19.751,19.751,0,0,1-2.279.57,2.77,2.77,0,0,1-2.5-2.4c0-.19.063-.317.222-.317a2.769,2.769,0,0,1,.474.158,9.891,9.891,0,0,0,1.994.221c2.025,0,10.222-.886,12.438-1.2.38-.063,2.026-.569,2.374-.569.38,0,3.987.7,3.987,1.994,0,.57-.505.76-.917.76-.349,0-1.9-.253-2.216-.285-.664-.064-1.551-.158-2.247-.158a27.379,27.379,0,0,0-3.2.094.384.384,0,0,0-.222.475A9.805,9.805,0,0,1,1443.409,2128.673Zm-7.026-9.3c.98,0,1.329-.1,4.494-.792a12.886,12.886,0,0,1,2.532-.38c.665,0,1.8.126,1.8,1.044s-.538.982-2.406,1.171c-1.614.19-3.735.6-4.209.7-.158.032-1.393.285-1.488.285-1.551,0-2.532-2.216-2.373-2.279C1434.927,2119.146,1436.193,2119.369,1436.384,2119.369Z" transform="translate(-1293.342 -2114.273)" fill="#fff"/>
      <path id="パス_3150" data-name="パス 3150" d="M1494.318,2130.924c.538.348,1.2.665,1.2,1.076,0,.157-.285.886-.316,1.076a32.543,32.543,0,0,0-.127,4.558c0,.822,0,1.836.063,3.038,0,.316.19,1.93.19,2.278,0,.254,0,1.2-.7,1.2-.759,0-1.583-1.235-1.583-1.868a6.689,6.689,0,0,1,.158-1.139,39.575,39.575,0,0,0,.348-5.443c0-.792,0-3.482-.632-3.482-.095,0-.158.063-.665.507a22.718,22.718,0,0,1-7.089,4.747.179.179,0,0,1-.191-.189c0-.158.951-.95,1.267-1.2,6.3-5.191,8.735-10.065,8.735-10.856a1.66,1.66,0,0,0-.221-.76,3.8,3.8,0,0,1-.253-.506.344.344,0,0,1,.348-.316c.348,0,3.038,1.107,3.038,2.184a.746.746,0,0,1-.254.569,3.6,3.6,0,0,0-.981,1.012c-.7,1.046-.886,1.266-2.469,3.292A.317.317,0,0,0,1494.318,2130.924Z" transform="translate(-1317.789 -2116.682)" fill="#fff"/>
      <path id="パス_3151" data-name="パス 3151" d="M1533.52,2118.937a7.465,7.465,0,0,0,2.626.665c1.3,0,10.571-.886,11.932-1.488.981-.444,1.108-.506,1.329-.506.7,0,1.2.443,2.184,1.3,1.424,1.267,1.614,1.615,1.614,2.057,0,.412-.158.569-.728,1.139a5.247,5.247,0,0,0-1.234,1.994c-4.969,10.318-16.014,14.749-16.331,14.749a.21.21,0,0,1-.221-.19c0-.127.095-.19.411-.412,5.507-3.861,9.97-8.038,12.5-12.532a17.886,17.886,0,0,0,2.153-5.349c0-.538-.538-.57-.7-.57-.317,0-9.463,1.52-11.394,2.279a11.438,11.438,0,0,1-1.583.7c-.728,0-3.26-1.583-3.26-3.323,0-.6.1-.7.285-.7C1533.171,2118.748,1533.456,2118.937,1533.52,2118.937Zm23.2-.127c0,.443-.412,1.2-.982,1.2-.506,0-.759-.316-1.614-1.519a9.4,9.4,0,0,0-2.057-2.057c-.127-.1-.444-.38-.444-.507s.285-.221.57-.221C1554.44,2115.709,1556.719,2117.356,1556.719,2118.811Zm2.4-2.405c0,.348-.253.95-.822.95-.7,0-1.076-.571-1.614-1.3a7.87,7.87,0,0,0-2.627-1.931c-.316-.158-.411-.285-.411-.38,0-.316.949-.316,1.2-.316C1556.18,2113.43,1559.123,2114.38,1559.123,2116.405Z" transform="translate(-1338.949 -2112.164)" fill="#fff"/>
    </g>
  </g>
</svg>
