<svg xmlns="http://www.w3.org/2000/svg" width="345.601" height="81.513" viewBox="0 0 345.601 81.513">
  <g id="グループ_5970" data-name="グループ 5970" transform="translate(-14.399 -331.159)">
    <g id="グループ_5932" data-name="グループ 5932" transform="translate(32.754 331.159)">
      <path id="パス_3269" data-name="パス 3269" d="M242.187,1381.2c-.113-.151-.15-.188-.15-.263s.037-.075.113-.075c.188,0,.978.075,1.166.075,3.385.15,4.025.188,5.153.188h7.71c1.2,0,1.2-.339,1.2-3.16,0-1.166-.263-1.354-1.129-1.354H250.5c-3.31,0-4.288.037-4.663.075-.113,0-.79.113-.9.113s-.188-.113-.338-.263l-.715-.865c-.151-.15-.151-.188-.151-.225a.1.1,0,0,1,.113-.113c.263,0,1.429.15,1.655.15,1.843.075,3.5.113,5.19.113h5.567c1.166,0,1.2-.413,1.2-2.632,0-1.58,0-1.956-1.091-1.956h-6.357a.9.9,0,0,0-1.053.677,2.024,2.024,0,0,1-2.068,1.542c-.865,0-.979-.489-.979-.978,0-.3.113-1.5.113-1.73.188-3.686.225-5.716.225-6.093a38.5,38.5,0,0,0-.225-4.739c-.038-.226-.339-1.241-.339-1.429,0-.226.151-.263.339-.263a20.458,20.458,0,0,1,3.348,1.279,6.429,6.429,0,0,0,2.444.451h15.233a2.708,2.708,0,0,0,1.655-.376c.225-.113,1.128-.9,1.354-.9.79,0,2.708,1.617,2.708,2.219,0,.263-.226.489-.828.865-.376.263-.376.376-.451,1.391-.075,1.241-.075,3.573-.075,4.288s.075,3.724.038,4.363c-.038.677-.263,1.467-1.88,1.467-1.053,0-1.166-.339-1.241-1.091-.075-.79-.339-.94-1.166-.94h-5.9c-1.166,0-1.166.6-1.166,1.88,0,2.445,0,2.708,1.2,2.708h5.793c1.768,0,1.956,0,2.407-.6.827-1.2.94-1.317,1.279-1.317.565,0,3.235,1.993,3.235,2.407,0,.527-.753.527-2.031.527H261.257c-.376,0-1.129,0-1.129.978,0,3.31,0,3.536,1.241,3.536H268.7c1.692,0,1.805-.075,2.106-.339.263-.263,1.279-1.768,1.58-1.768a10.482,10.482,0,0,1,3.046,2.67c0,.339-.339.414-2.031.414H248.28c-1.166,0-1.279,0-1.279.263,0,.037.188.639.225.715a6.032,6.032,0,0,1,.263,1.768c0,2.37-1.317,6.055-3.761,6.055a1.167,1.167,0,0,1-1.241-1.166c0-.639.263-.978,1.316-2.031,1.279-1.279,2.67-3.272,2.67-4.889,0-.677-.226-.677-.565-.677-.376,0-2.332.151-2.67.151-.113,0-.225-.113-.339-.226Zm14.218-11.209c1.053,0,1.053-.489,1.053-2.068,0-1.617,0-2.182-1.091-2.182h-6.319c-1.091,0-1.091.451-1.091,2.482,0,1.166,0,1.768,1.053,1.768Zm-.113-5.228c1.128,0,1.128-.489,1.128-2.294,0-1.166,0-1.768-1.128-1.768h-6.169c-1.129,0-1.129.451-1.129,2.332,0,1.091,0,1.73,1.129,1.73Zm-4.627,17.678c.941,0,5.153,2.445,5.153,5.905a1.776,1.776,0,0,1-1.655,1.993c-.9,0-1.241-.865-1.392-1.768-.489-2.934-.677-4.025-1.58-5.228-.075-.113-.715-.6-.715-.753C251.477,1382.478,251.591,1382.441,251.665,1382.441Zm15.759-12.45c1.053,0,1.2-.339,1.2-2.52,0-1.166,0-1.73-1.166-1.73h-6.169c-1.166,0-1.166.451-1.166,2.219,0,1.617,0,2.031,1.166,2.031Zm-6.093-9.29c-1.129,0-1.129.338-1.129,3.084a.933.933,0,0,0,1.091.978h6.244c1.128,0,1.128-.6,1.128-1.805,0-1.731,0-2.257-1.128-2.257Zm-.865,21.815c.564,0,5.379,2.557,5.379,5.943,0,1.918-1.354,2.068-1.58,2.068-.941,0-1.354-.978-1.5-1.655-.6-2.369-1.166-4.852-2.257-5.867-.037-.037-.263-.263-.263-.339A.216.216,0,0,1,260.467,1382.516Zm8.425-.151c.151,0,5.943,2.821,5.943,6.243a2.012,2.012,0,0,1-1.843,2.257c-1.015,0-1.241-.677-1.617-3.009a10.794,10.794,0,0,0-2.445-4.965c-.113-.112-.263-.339-.225-.414C268.741,1382.365,268.817,1382.365,268.892,1382.365Z" transform="translate(-242.037 -1357.278)" fill="#fff"/>
      <path id="パス_3270" data-name="パス 3270" d="M315.727,1378.78c-3.31,0-4.363.075-4.739.113-.113,0-.677.113-.79.113-.151,0-.226-.113-.339-.263l-.715-.865c-.151-.151-.188-.188-.188-.226,0-.075.075-.113.15-.113.263,0,1.43.15,1.655.15,1.843.113,3.385.113,5.153.113h7.146c.414,0,1.091,0,1.091-1.128,0-.414-.339-2.671-.339-2.821s.189-.188.263-.188c.038,0,1.655.339,1.956.339.978,0,3.535-3.837,3.535-4.25,0-.339-.338-.339-.715-.339h-7.259c-3.272,0-4.363.075-4.739.113-.113,0-.677.075-.79.075-.151,0-.226-.075-.339-.225l-.715-.865c-.151-.188-.188-.188-.188-.263s.075-.075.151-.075c.263,0,1.429.113,1.654.113,1.843.075,3.386.151,5.153.151h6.507a4.869,4.869,0,0,0,2.407-.3c.188-.075.828-.979,1.053-.979.6,0,3.16,2.483,3.16,3.2,0,.451-.414.413-1.5.451-.489,0-.865.339-2.257,1.391-.564.452-3.5,2.408-3.724,2.6a2.069,2.069,0,0,0-.564,1.693c0,.639,0,1.316,1.091,1.316h7.3c1.166,0,1.316,0,1.768-.376.376-.3,1.693-1.994,2.106-1.994.489,0,3.348,2.106,3.348,2.858,0,.489-.715.489-1.993.489h-12.45a.938.938,0,0,0-1.091,1.015c0,.151.15,5.342.15,6.357,0,2.144,0,3.272-1.241,4.175a4.983,4.983,0,0,1-2.9.9c-.414,0-.414,0-.828-.677a6.583,6.583,0,0,0-2.181-2.219c-.451-.3-.6-.376-.6-.565a.1.1,0,0,1,.113-.113c.3,0,2.182.226,2.6.226,1.579,0,1.956-.263,2.068-.64a41.493,41.493,0,0,0,.188-4.438c0-3.686,0-4.024-1.129-4.024Zm20.048-16.173a1.759,1.759,0,0,0,1.429-.564c.639-.639.865-.828,1.241-.828.451,0,.677.189,1.693,1.129,1.918,1.768,2.144,1.956,2.144,2.445a.641.641,0,0,1-.677.714c-.263,0-1.542-.263-1.842-.263a4.223,4.223,0,0,0-1.843.489c-.376.151-1.994,1.016-2.219,1.016a.176.176,0,0,1-.188-.188c0-.038.451-.865.489-.9a4.854,4.854,0,0,0,.6-1.617c0-.413-.3-.413-.564-.413H313.846c-.226,0-.6,0-.677.752-.263,2.107-1.279,3.5-2.708,3.5a1.381,1.381,0,0,1-1.392-1.354c0-.3.113-.489.564-1.2a16.637,16.637,0,0,0,1.881-4.025c.113-.451.15-.488.263-.488.188,0,.639.79.865,1.166.414.639.677.639,1.091.639h9.4a.92.92,0,0,0,.978-1.053,14.469,14.469,0,0,0-.3-2.858c-.037-.226-.338-1.241-.338-1.5,0-.226.3-.226.451-.226.564,0,2.971.452,3.31.527.226.038.715.3.715.715,0,.189-.037.226-.639.715a2.057,2.057,0,0,0-.527,1.5c0,1.693,0,2.181,1.091,2.181Z" transform="translate(-267.302 -1356.89)" fill="#fff"/>
      <path id="パス_3271" data-name="パス 3271" d="M386.946,1369.971c-.263.79-.414,12.826-.414,15.684,0,.527.113,2.9.037,3.385a2.6,2.6,0,0,1-2.106,2.031c-.828,0-.828-.941-.828-1.317,0-.715.226-3.912.263-4.589.038-.978.376-9.29.376-11.734,0-2.784-.075-2.9-.376-2.9-.188,0-.339.226-1.053,1.166-1.091,1.429-4.175,5.454-4.851,5.454a.241.241,0,0,1-.226-.226c0-.15,3.5-5.829,4.1-6.958a69.26,69.26,0,0,0,5.3-11.961c.263-1.166.263-1.166.489-1.166.188,0,3.8,1.579,3.8,2.181,0,.263-1.091.94-1.241,1.091-.715.791-.941,1.167-2.9,4.589a10.045,10.045,0,0,0-1.2,2.52c0,.414.263.639.64.827.526.263.789.451.789.865C387.547,1369.106,386.983,1369.821,386.946,1369.971Zm22.492-3.611a3.469,3.469,0,0,0-2.257.94,58.515,58.515,0,0,1-7.184,5.04c-1.015.6-2.6,1.5-2.858,2.219-.151.489-.188,7.033-.188,8.237,0,5.153,0,5.265,5.228,5.265,4.7,0,5.228-.263,5.641-.94.339-.526.451-1.391.677-3.836.113-1.2.113-1.354.414-1.354.225,0,.225.037.376,1.354a10.059,10.059,0,0,0,1.015,3.573,8.153,8.153,0,0,1,.9,1.579c0,2.145-4.815,2.145-6.921,2.145-9.854,0-9.854-1.016-9.854-5.078,0-3.536.226-19.069.226-22.3a32.45,32.45,0,0,0-.151-4.4c-.037-.188-.188-1.167-.188-1.392,0-.339.113-.451.263-.451a19.37,19.37,0,0,1,2.144.715c1.354.489,1.5.527,1.5.865a.465.465,0,0,1-.151.3c-.527.489-.564.526-.639.9-.151.64-.3,9.592-.3,11.359,0,.338,0,1.128.451,1.128.94,0,6.131-5.04,9.14-8.952.113-.188.639-.865.753-.865s3.31,2.745,2.934,3.573C410.265,1366.285,409.7,1366.361,409.438,1366.361Z" transform="translate(-293.281 -1356.845)" fill="#fff"/>
      <path id="パス_3272" data-name="パス 3272" d="M448.259,1378.3c0-1.128,1.053-2.332,3.611-5.3a17.309,17.309,0,0,0,3.2-5.6c0-.225-.263-.263-.414-.263-.376,0-1.918.3-2.256.3a3.991,3.991,0,0,1-3.348-3.31c0-.113,0-.263.226-.263a8.475,8.475,0,0,1,1.429.715,5.974,5.974,0,0,0,2.482.677c3.084,0,3.084-1.015,3.084-1.768a3.018,3.018,0,0,0-.3-1.316c-.113-.188-.9-.865-.9-1.091,0-.3.978-.6,1.655-.6.9,0,1.842.339,1.918,1.166.038.489.188.565,1.692.677.263,0,1.693.188,1.693.978,0,1.241-2.746,2.294-4.476,2.972-.564.225-.6.3-1.429,2.219a29.145,29.145,0,0,1-2.031,4.062c-.188.339-.263.451-.263.6a.138.138,0,0,0,.151.15,7.505,7.505,0,0,0,1.166-.414,3.514,3.514,0,0,1,1.467-.3,3.392,3.392,0,0,1,3.2,2.294c.263.639.3.714.377.714a17.692,17.692,0,0,0,1.542-2.031c1.241-1.73,3.686-5.153,6.959-5.153a3.548,3.548,0,0,1,3.536,3.348c0,1.767-2.972,3.009-5.3,4.024-.941.414-5.191,2.106-5.868,2.52-.6.377-.639.79-.639,1.58,0,.338.075,1.918.075,2.257,0,.6,0,2.746-1.392,2.746-1.015,0-1.166-1.241-1.166-1.919,0-.376.113-2.181.113-2.219,0-.151,0-.451-.263-.451-.3,0-3.649,2.332-3.649,4.476,0,2.595,3.762,2.595,4.852,2.595a11.622,11.622,0,0,0,2.407-.226c.527-.075,2.934-.676,3.423-.676.79,0,1.843.376,1.843,1.278,0,2.332-5.83,2.483-6.733,2.483-4.777,0-7.3-1.956-7.3-4.927,0-2.407,1.429-3.61,4.965-6.469a1.6,1.6,0,0,0,.565-1.317c0-1.693-.3-3.8-1.806-3.8-1.429,0-3.648,1.73-4.626,3.987-.414.94-.827,1.842-2.031,1.842C448.974,1379.539,448.259,1379.314,448.259,1378.3Zm9.591-14.217c.075,0,1.881-.489,1.881-.9,0-.489-.941-.565-1.279-.565-.527,0-.677,1.053-.677,1.2S457.775,1364.081,457.85,1364.081Zm3.423,12.187c0,.075.037.188.151.188s7.523-3.009,7.523-5.491a1.158,1.158,0,0,0-1.317-1.129C464.508,1369.835,461.273,1375.665,461.273,1376.267Z" transform="translate(-319.893 -1358.214)" fill="#fff"/>
      <path id="パス_3273" data-name="パス 3273" d="M505.584,1372c-.151-.188-.151-.188-.151-.263s.038-.075.113-.075c.188,0,.978.075,1.167.075,3.385.151,3.761.188,5.039.188h4.739c.376,0,.827,0,1.015-.413.151-.226.151-4.551.151-5.3,0-.9-.151-1.2-1.091-1.2h-7.56c-3.31,0-4.4.075-4.739.113-.151,0-.677.075-.79.075-.151,0-.226-.075-.339-.263l-.752-.865c-.113-.151-.151-.189-.151-.226,0-.075.037-.075.151-.075.263,0,1.391.113,1.654.113,1.843.075,3.386.113,5.153.113h7.3c.527,0,1.091,0,1.091-.9s-.188-4.137-.263-5c0-.037-.037-.339-.037-.414a.21.21,0,0,1,.188-.225,33.024,33.024,0,0,1,3.536.827.543.543,0,0,1,.489.564c0,.189-.263.452-.526.715-.376.376-.6,1.166-.6,3.535,0,.9.6.9,1.166.9h6.959c1.692,0,1.88,0,2.407-.6,1.053-1.279,1.166-1.392,1.5-1.392.263,0,3.536,1.994,3.536,2.482,0,.451-.414.527-1.918.527h-12.6c-.527,0-.828,0-1.053.376a25.217,25.217,0,0,0-.151,3.46c0,2.972.151,3.084,1.129,3.084h3.2a2.536,2.536,0,0,0,2.031-.789c.9-1.016.978-1.128,1.241-1.128.339,0,1.467.865,3.272,2.257a.7.7,0,0,1,.339.564c0,.338-.151.376-1.467.677-.639.151-.752.3-2.106,1.881a51.908,51.908,0,0,1-5.567,6.093c-.451.414-.978.9-.978,1.129,0,.564.828.978,2.37,1.729,1.392.677,7,3.047,10.531,3.047,1.2,0,1.354,0,1.354.151,0,.263-2.068,1.128-2.407,1.467-.188.188-1.053,1.241-1.241,1.429a.6.6,0,0,1-.414.188,44.5,44.5,0,0,1-10.983-5.229,4.66,4.66,0,0,0-1.654-.865c-.376,0-.527.075-1.918.978a38.383,38.383,0,0,1-13.578,5.416c-.414,0-.527-.226-.527-.3s.263-.151.752-.3a48.643,48.643,0,0,0,11.472-6.094c1.053-.752,1.655-1.2,1.655-1.729,0-.263-.151-.451-1.317-1.956a26.422,26.422,0,0,1-3.385-6.507c-.413-1.128-1.015-1.128-1.956-1.128-.527,0-2.9.189-3.422.189-.113,0-.188-.076-.339-.226Zm8.086.9c-.339,0-.94,0-.94.64,0,1.128,4.513,7.3,6.093,7.3,1.317,0,6.545-6.507,6.545-7.372,0-.564-.376-.564-1.354-.564Z" transform="translate(-340.272 -1357.073)" fill="#fff"/>
      <path id="パス_3274" data-name="パス 3274" d="M580.314,1365.917c-.489,0-1.091,0-1.279.676-.038.263-.038,4.626-.038,5.341a.681.681,0,0,0,.715.677c.3,0,3.5-1.693,3.874-1.693.038,0,.151,0,.151.113,0,.263-.527.677-3.686,3.084a2.125,2.125,0,0,0-1.015,1.73c0,1.391.225,8.237.225,9.779,0,4.551-3.535,5.491-3.724,5.491a.892.892,0,0,1-.639-.376c-.113-.151-.6-.978-.715-1.129-.263-.3-1.843-1.542-1.843-1.768,0-.151.263-.151.565-.151s1.655.038,1.956.038c1.58,0,1.768,0,1.768-5.717,0-.564-.038-3.385-.075-3.874a.684.684,0,0,0-.677-.715,5.075,5.075,0,0,0-1.993,1.617c-.075.15-.3.451-.527.451-.6,0-2.031-3.046-2.031-3.423,0-.188.263-.225.489-.263.64-.113,4.1-.827,4.627-2.256.113-.3.113-5.266.113-6.13s0-1.467-1.053-1.467c-.451,0-2.746.151-3.084.151-.151,0-.225-.075-.339-.226l-.752-.865c-.151-.188-.151-.188-.151-.263s.075-.075.151-.075c.564,0,3.385.226,4.024.226,1.166,0,1.166-.715,1.166-1.542,0-1.016,0-3.686-.113-4.551-.037-.225-.489-1.166-.489-1.429s.3-.338.451-.338,1.88.526,2.219.6c1.091.263,1.73.451,1.73.94,0,.225-.9.978-1.053,1.166a17.925,17.925,0,0,0-.263,3.874c0,.527,0,1.317,1.2,1.317,1.053,0,1.129-.113,1.58-.64.339-.413.79-.94,1.166-.94a5.118,5.118,0,0,1,2.031,2.068c0,.489-.752.489-1.994.489Zm1.956,7.785a.573.573,0,0,1-.15-.225.1.1,0,0,1,.113-.112c.226,0,1.166.112,1.354.112.489.037,3.574.151,4.4.151.715,0,1.129,0,1.317-.527a19.882,19.882,0,0,0,.376-2.859c0-.225-.075-.94-1.129-.94-.338,0-1.993.151-2.294.151-.113,0-.188-.113-.3-.226l-.752-.865c-.113-.151-.151-.188-.151-.263s.037-.075.151-.075c.225,0,1.391.113,1.654.113,1.843.075,3.385.15,5.153.15h4.213c1.58,0,1.73,0,2.031-.263s1.354-1.542,1.692-1.542c.188,0,3.122,1.768,3.122,2.256,0,.527-.752.527-2.031.527h-7.372c-1.09,0-1.09.714-1.166,1.241-.075.489-.376,2.069-.376,2.332a.726.726,0,0,0,.827.79h5.416c1.58,0,1.73,0,2.031-.263s1.467-1.731,1.806-1.731,3.31,2.031,3.31,2.482c0,.527-.753.527-1.994.527H592.876a1.433,1.433,0,0,0-1.354.714c-.075.151-.489,1.58-.489,1.617,0,.414.3.64.753.64h6.357a1.939,1.939,0,0,0,1.5-.527c.225-.188.6-.526.752-.526a23.843,23.843,0,0,1,2.746,1.692c.188.151.339.225.339.489,0,.414-.226.489-1.129.79-.376.151-.6.339-1.015,1.091a22.384,22.384,0,0,1-2.67,3.61.655.655,0,0,0-.188.526c0,.565.94,1.091,2.557,1.843a26.3,26.3,0,0,0,4.1,1.317c.15.038.564.188.564.339a17.172,17.172,0,0,1-1.918,1.241,4.848,4.848,0,0,0-1.091,1.053c-.188.225-.225.3-.376.3s-1.956-.6-5.341-3.348a1.1,1.1,0,0,0-.865-.339,1.6,1.6,0,0,0-1.016.376,26.586,26.586,0,0,1-10.418,3.46c-.113,0-.414,0-.414-.151,0-.188.113-.225,1.316-.677a27.076,27.076,0,0,0,8.049-4.363,1.054,1.054,0,0,0,.451-.827c0-.263-.3-.64-.527-.978a35.908,35.908,0,0,1-2.595-4.326.473.473,0,0,0-.489-.339c-.376,0-.451.113-1.166,1.317-3.573,6.244-9.215,9.139-9.742,9.139-.038,0-.075-.075-.075-.112a6.5,6.5,0,0,1,1.015-1.129,29.391,29.391,0,0,0,7.109-9.478,14.328,14.328,0,0,0,1.2-3.5c0-.941-.978-.941-1.429-.941-.151,0-2.6.037-3.536.113-.075,0-.451.075-.527.075-.15,0-.225-.113-.339-.263Zm9.93-12.788c-1.316.075-4.325.188-5.6.188-.188,0-2.632-.037-2.632-.376,0-.226.188-.263,1.843-.451,2.708-.339,10.118-1.354,12.111-2.257a11.011,11.011,0,0,1,1.956-1.053,22.958,22.958,0,0,1,3.761,2.37.547.547,0,0,1,.075.263c0,.6-.865.6-1.693.6C601.3,1360.2,593.629,1360.8,592.2,1360.915Zm-4.89,6.544c-.978,0-1.015-.6-1.2-2.9a6.81,6.81,0,0,0-.451-1.73,3.064,3.064,0,0,1-.188-.828c0-.075.037-.113.15-.113a4.063,4.063,0,0,1,3.009,3.761C588.626,1366.557,588.175,1367.459,587.309,1367.459Zm5.115,11.171c-.451,0-.752.226-.752.639,0,.753,3.648,4.025,4.363,4.025.376,0,.79-.565,1.655-1.693a10.679,10.679,0,0,0,1.241-2.37.527.527,0,0,0-.565-.6Zm1.58-11.7c-.865,0-.865-.263-1.091-2.746a20.875,20.875,0,0,0-.414-2.294c-.037-.151-.188-.414-.188-.489,0-.038,0-.151.113-.151s3.235,2.219,3.235,3.987A1.859,1.859,0,0,1,594,1366.932Zm9.516-4.89c.3.188.339.339.339.414,0,.225-1.053.526-1.2.677-.377.376-1.956,2.182-2.332,2.482a25.447,25.447,0,0,1-2.181,1.58.081.081,0,0,1-.075-.075c0-.527,2.332-4.889,2.332-5.454,0-.113-.075-.526-.075-.6,0-.151.038-.339.3-.339a6.02,6.02,0,0,1,1.73.715C602.542,1361.554,603.37,1361.93,603.52,1362.043Z" transform="translate(-366.299 -1356.89)" fill="#fff"/>
      <path id="パス_3275" data-name="パス 3275" d="M643.262,1368.084a76.07,76.07,0,0,0,10.23-1.279c1.956-.339,2.182-.377,2.182-1.354a22.469,22.469,0,0,0-.527-5.115c-.037-.188-.639-.865-.639-1.053,0-.263.564-.263.79-.263,1.655,0,3.122.677,3.122,1.88,0,.188-.151.978-.151,1.166,0,.865,1.091,1.429,3.31,2.37a8.261,8.261,0,0,0,3.31.753c.376,0,1.956-.189,2.256-.189.489,0,2.145.151,2.145,1.467,0,.978-.715,1.317-2.031,1.317-.79,0-4.288-.339-5-.339a17.562,17.562,0,0,0-4.062.376c-.527.226-.6.752-.6,4.062a4.914,4.914,0,0,0,.489,2.445,11.924,11.924,0,0,1,1.091,5.077c0,7.3-5.679,11.961-6.845,11.961-.075,0-.188-.037-.188-.15,0-.075,1.542-1.881,1.805-2.257a12.236,12.236,0,0,0,2.106-5.529c0-.113,0-.526-.376-.526-.113,0-.677.075-.79.075-2.031,0-3.836-1.918-3.836-4.927,0-.489,0-4.626,3.648-5.191,1.053-.15,1.053-.376,1.053-2.294,0-2.031,0-2.256-.752-2.256a46.581,46.581,0,0,0-6.657,1.5,34.978,34.978,0,0,1-4.024,1.5c-.828,0-3.949-1.58-3.949-3.122,0-.151.075-.339.188-.376C640.93,1367.859,642.736,1368.084,643.262,1368.084Zm11.171,6.244c-.941,0-2.144,1.542-2.144,3.46a2.725,2.725,0,0,0,2.444,3.009c1.467,0,1.5-2.257,1.5-2.859a7.315,7.315,0,0,0-.489-2.632A1.59,1.59,0,0,0,654.433,1374.328Zm3.46-8.99c0,.6.151.715.677.715.15,0,2.6-.075,2.6-.639a8.16,8.16,0,0,0-2.858-1.993C658.044,1363.5,657.893,1364.361,657.893,1365.339Z" transform="translate(-392.422 -1357.666)" fill="#fff"/>
      <path id="パス_3276" data-name="パス 3276" d="M723.7,1381.637c0-3.084-2.6-5.717-6.357-5.717-4.965,0-8.162,5.153-8.839,6.319-.752,1.279-1.128,1.994-2.144,1.994a1.037,1.037,0,0,1-1.091-1.053c0-.94.3-1.768,2.971-4.889,2.445-2.859,2.821-3.348,8.5-11.321,1.241-1.768,1.768-2.558,1.768-2.972,0-.263-.263-.527-.715-.527-1.391,0-3.61,1.881-4.25,2.407-1.5,1.241-2.031,1.354-2.67,1.354-1.768,0-2.934-2.407-2.934-2.6,0-.112.113-.112.9-.112a18.241,18.241,0,0,0,5.83-1.354c2.332-1.016,2.6-1.129,3.423-1.129,1.5,0,3.949.941,3.949,2.595,0,1.091-.865,1.693-2.67,2.934-2.708,1.918-6.018,7.071-6.018,7.711,0,.113.113.263.226.263.225-.075.715-.263.94-.339a9.1,9.1,0,0,1,3.31-.6c4.814,0,8.462,3.573,8.462,7.823,0,4.777-4.626,8.125-9.4,8.125-3.724,0-6.394-1.993-6.394-3.874,0-1.354,1.58-3.046,3.724-3.046a5.553,5.553,0,0,1,4.288,2.407c.527.677.752,1.016,1.279,1.016C721.065,1387.053,723.7,1384.759,723.7,1381.637Zm-9.666,3.386a1.537,1.537,0,0,0-1.58,1.316c0,.978,1.617,1.767,3.235,1.767a.622.622,0,0,0,.639-.676A2.558,2.558,0,0,0,714.032,1385.022Z" transform="translate(-416.925 -1358.807)" fill="#fff"/>
    </g>
    <g id="グループ_5931" data-name="グループ 5931" transform="translate(14.399 380.703)">
      <path id="パス_3277" data-name="パス 3277" d="M774.664,1373.578c.6-.113,3.874-.9,3.95-.9.79,0,4.852,3.084,4.852,4.965,0,.526-.564.715-1.467.827-2.031.263-2.407.564-5.679,3.31-.527.451-1.768,1.354-2.444,2.068a.887.887,0,0,0-.189.376c0,.3.151.451,1.279,1.692a4.241,4.241,0,0,1,1.166,2.6,1.316,1.316,0,0,1-1.279,1.466c-.978,0-1.2-.263-3.386-2.708a27.25,27.25,0,0,0-5.566-4.739c-.376-.263-.414-.3-.414-.452a.305.305,0,0,1,.339-.3c1.015,0,6.093,1.805,6.319,1.805,1.129,0,6.131-7.071,6.131-8.162,0-.451-.451-.489-.752-.489a116.809,116.809,0,0,0-15.346,3.047c-.489.15-2.82,1.241-2.934,1.241-.6,0-3.648-1.994-3.648-3.761,0-.075,0-.6.263-.6a12.868,12.868,0,0,1,1.241.451,10.5,10.5,0,0,0,2.182.188C762.478,1375.5,771.091,1374.218,774.664,1373.578Z" transform="translate(-755.595 -1364.1)" fill="#fff"/>
      <path id="パス_3278" data-name="パス 3278" d="M820.783,1369.2a19.131,19.131,0,0,0,2.144.151c1.994,0,7.3-1.053,8.2-1.655,1.09-.677,1.2-.752,1.542-.752a3.354,3.354,0,0,1,2.37,1.843c0,.225-.075.3-.79.752-.639.414-.79.677-2.67,3.235a6.827,6.827,0,0,0-.827,1.279c0,.3.225.338.527.414.413.113,1.655.677,1.655,1.58,0,.263-.3,1.467-.339,1.73a12.438,12.438,0,0,0-.188,2.746c0,.941.038,4.025.113,5.567,0,.414.113,2.294.113,2.67,0,1.806-.489,2.106-.978,2.106-1.2,0-2.182-2.633-2.182-3.385,0-.3.3-1.542.339-1.768a31.921,31.921,0,0,0,.6-5.679,12.541,12.541,0,0,0-.414-3.649.887.887,0,0,0-.715-.413.843.843,0,0,0-.564.3c-3.16,3.235-6.093,6.281-11.359,8.688a5.929,5.929,0,0,1-1.354.489c-.075,0-.151-.038-.151-.113,0-.188,4.062-3.31,4.815-3.95a36.967,36.967,0,0,0,7.936-8.839,10.606,10.606,0,0,0,1.129-2.106.287.287,0,0,0-.3-.3c-.3,0-6.507,2.144-6.921,2.144a5.223,5.223,0,0,1-2.859-1.58,4.606,4.606,0,0,1-.6-1.467.332.332,0,0,1,.339-.3C819.618,1368.941,820.6,1369.167,820.783,1369.2Zm12.487-6.017a1.579,1.579,0,0,1-1.429,1.5c-.865,0-1.316-.752-2.332-2.332-.489-.752-1.091-1.392-3.423-2.934-.075-.075-.263-.226-.263-.339,0-.188.564-.188.715-.188C829.7,1358.9,833.271,1360.892,833.271,1363.187Zm10.419,17.377c0,.489-.451,1.58-1.429,1.58-.715,0-1.129-.414-1.843-1.768-.527-.979-.753-1.241-2.9-3.724a4.349,4.349,0,0,1-.715-1.053c0-.113.263-.113.3-.113C840.53,1375.486,843.689,1378.533,843.689,1380.564Z" transform="translate(-778.346 -1358.899)" fill="#fff"/>
      <path id="パス_3279" data-name="パス 3279" d="M886.185,1374.4c0,.79-.527,1.881-1.429,1.881-.564,0-.752-.225-1.316-1.166a9.754,9.754,0,0,0-3.422-3.084c-.113-.075-.377-.225-.377-.376,0-.564,2.407-.564,2.633-.564C883.89,1371.085,886.185,1372.552,886.185,1374.4Zm-4.438,11.547c-.113-.225-.714-1.015-.79-1.2a1.528,1.528,0,0,1-.188-.677.276.276,0,0,1,.3-.3c.113,0,1.806.6,2.182.6,2.031,0,12.262-5.6,18.881-11.7.414-.414,2.6-2.633,2.708-2.633a.24.24,0,0,1,.225.225c0,.075-1.88,5.905-16.624,15.2-2.294,1.429-2.445,1.542-2.746,1.768-1.392,1.091-1.543,1.2-1.956,1.2C882.95,1388.424,882.5,1387.56,881.746,1385.942Zm8.99-19.069c0,.978-.64,1.768-1.241,1.768-.414,0-.564-.188-1.881-1.73a6.36,6.36,0,0,0-3.272-2.03c-.526-.189-.564-.189-.564-.339,0-.414,1.73-.79,2.858-.79a5.185,5.185,0,0,1,1.918.376A3.288,3.288,0,0,1,890.736,1366.873Zm12.6-1.729c0,.451-.489,1.429-1.2,1.429-.564,0-.9-.414-1.843-1.881a11.743,11.743,0,0,0-2.408-2.52c-.15-.113-.489-.451-.489-.6,0-.225.451-.263.677-.263C900.252,1361.306,903.336,1363.149,903.336,1365.143Zm3.949-2.558a1.107,1.107,0,0,1-1.016,1.2c-.79,0-1.317-.79-1.843-1.654a9.433,9.433,0,0,0-3.046-2.445c-.339-.188-.414-.376-.414-.451,0-.339.753-.339,1.429-.339C903.373,1358.9,907.285,1359.99,907.285,1362.585Z" transform="translate(-802.427 -1358.899)" fill="#fff"/>
      <path id="パス_3280" data-name="パス 3280" d="M945.034,1372.73a20.346,20.346,0,0,0,2.369,1.016c.79,0,1.881-2.633,2.332-3.723a18.555,18.555,0,0,0,1.391-4.514,1.672,1.672,0,0,0-.263-.865c-.113-.226-.225-.339-.225-.451a.307.307,0,0,1,.3-.339,5.855,5.855,0,0,1,2.52,1.2,4.938,4.938,0,0,1,1.617,2.708c0,.3-.113.339-.941.753-.413.225-.526.413-1.5,2.256-.639,1.241-1.354,2.52-2.144,3.761a1.723,1.723,0,0,0-.376.94,1.5,1.5,0,0,0,.639,1.016c3.235,2.858,3.686,4.889,3.686,5.829a1.18,1.18,0,0,1-1.2,1.242c-1.354,0-1.918-.978-3.234-3.31-.377-.677-1.091-1.956-1.618-1.956a1.081,1.081,0,0,0-.789.527c-6.883,8.613-14.406,11.81-14.744,11.81-.113,0-.263-.037-.263-.188s.714-.714,1.166-1.091c6.394-5,8.914-7.936,9.967-9.215.9-1.129,2.708-3.46,2.708-4.025,0-.79-3.46-2.858-4.889-3.648-.715-.376-.79-.413-.79-.6,0-.15.075-.3.339-.3A15.124,15.124,0,0,1,945.034,1372.73Z" transform="translate(-822.415 -1360.77)" fill="#fff"/>
      <path id="パス_3281" data-name="パス 3281" d="M1004.319,1385.251a26.293,26.293,0,0,0-3.686,3.084c-.715.865-.79.94-1.354.94-2.031,0-4.814-2.407-4.814-3.911,0-.263.037-1.994.376-1.994a9.362,9.362,0,0,1,1.129.715,6.228,6.228,0,0,0,2.558.865c1.843,0,11.81-6.657,18.053-12.826.6-.6,1.655-1.654,1.73-1.654a.241.241,0,0,1,.188.188C1018.5,1371,1014.1,1378.03,1004.319,1385.251Zm-3.084-12.374c-1.015,0-1.392-.6-2.633-2.482a8.469,8.469,0,0,0-3.422-3.084c-.151-.075-.339-.188-.339-.339s.3-.339.827-.339c4.025,0,7.184,2.144,7.184,4.363A1.661,1.661,0,0,1,1001.235,1372.877Z" transform="translate(-845.777 -1361.819)" fill="#fff"/>
      <path id="パス_3282" data-name="パス 3282" d="M1058.462,1361.86c1.354,0,4.062,1.2,4.062,2.407a10.907,10.907,0,0,1-.451,1.58,48.767,48.767,0,0,0-.338,5.228c0,.827.15.94,1.241,1.2,2.294.527,8.124,3.271,8.124,6.093a1.287,1.287,0,0,1-1.354,1.317c-.941,0-1.053-.151-3.573-3.422-1.053-1.392-2.821-3.16-3.987-3.16-.376,0-.526,0-.526,2.783,0,3.987.037,5.981.188,9.365.037.414.076,1.354.076,1.919,0,.94,0,3.422-1.091,3.422-1.128,0-2.106-2.558-2.106-3.536,0-.15.15-.94.15-1.091a77.867,77.867,0,0,0,.339-8.726c0-10.758,0-11.961-.451-13.165a4.18,4.18,0,0,0-1.279-1.73l-.075-.15C1057.446,1361.86,1058.424,1361.86,1058.462,1361.86Z" transform="translate(-869.541 -1360.017)" fill="#fff"/>
      <path id="パス_3283" data-name="パス 3283" d="M1107.8,1361.251c1.354,0,4.062,1.2,4.062,2.407,0,.263-.376,1.354-.414,1.58a48.191,48.191,0,0,0-.376,5.265c0,.79.188.941,1.241,1.166,2.407.565,8.162,3.31,8.162,6.093a1.316,1.316,0,0,1-1.392,1.316c-.9,0-.94-.075-3.535-3.423-1.053-1.354-2.821-3.159-3.987-3.159-.414,0-.527,0-.527,2.783,0,3.987.037,5.981.188,9.366.037.414.075,1.354.075,1.918,0,.9,0,3.422-1.091,3.422-1.166,0-2.106-2.558-2.106-3.536,0-.15.151-.94.151-1.091a50.465,50.465,0,0,0,.339-8.726c0-11.133,0-11.961-.451-13.164a4.188,4.188,0,0,0-1.317-1.73.286.286,0,0,1-.075-.15C1106.826,1361.288,1107.767,1361.251,1107.8,1361.251Zm15.835,6.431c0,.489-.414,1.43-1.166,1.43-.565,0-.9-.376-1.881-1.806a10.535,10.535,0,0,0-2.444-2.445c-.151-.113-.527-.451-.527-.6,0-.188.339-.263.677-.263C1120.969,1364,1123.639,1365.99,1123.639,1367.682Zm3.046-4.287c0,.414-.3,1.128-.978,1.128-.827,0-1.279-.6-1.956-1.467a9.48,9.48,0,0,0-3.234-2.144c-.377-.151-.489-.339-.489-.414,0-.225.451-.451,1.429-.451C1124.166,1360.047,1126.685,1361.551,1126.685,1363.395Z" transform="translate(-888.169 -1359.332)" fill="#fff"/>
      <path id="パス_3284" data-name="パス 3284" d="M1163.066,1364.593c0-.377.527-.377.828-.377a3.515,3.515,0,0,1,3.5,2.106c0,.451-.376.941-1.128,1.881-.188.263-.3.414-.3.6,0,.3.451.3.6.3a21.292,21.292,0,0,0,5.717-1.5,7.014,7.014,0,0,1,1.768-.6c.339,0,.527.113,2.069,1.015.225.113,1.2.64,1.391.752a1.364,1.364,0,0,1,.715.94c0,.527-.263.677-1.5,1.43-.413.263-.564.489-1.88,2.52a45.992,45.992,0,0,1-13.465,14.142,25.736,25.736,0,0,1-7.484,3.61.336.336,0,0,1-.339-.338c0-.15.113-.226,1.279-.865,11.472-6.319,18.618-19.145,18.618-20.311a.407.407,0,0,0-.413-.413c-.075,0-5.266,1.166-6.169,1.166-.225,0-1.241-.112-1.467-.112-.715,0-.79.075-2.37,1.88a28.27,28.27,0,0,1-5.115,4.89,11.491,11.491,0,0,1-3.611,1.994c-.188,0-.263-.113-.263-.226a31.92,31.92,0,0,1,2.972-2.821c3.046-3.046,6.62-8.237,6.319-10.493C1163.292,1365.57,1163.066,1364.743,1163.066,1364.593Z" transform="translate(-905.838 -1360.906)" fill="#fff"/>
      <path id="パス_3285" data-name="パス 3285" d="M1208.082,1390.165c7.71-4.363,12.864-10.494,12.864-11.659s-4.476-4.025-5.417-4.025c-.865,0-5.416,4.927-6.657,4.927a.175.175,0,0,1-.188-.188,12.393,12.393,0,0,1,1.354-1.618c4.476-4.851,7.56-10.155,7.56-12.3,0-.3-.6-1.5-.6-1.768,0-.226.489-.226.715-.226,1.994,0,3.385,1.467,3.385,2.219,0,.226-.413,1.241-.413,1.467,0,.564.789.639,1.279.639a23.041,23.041,0,0,0,5.642-.9,8.979,8.979,0,0,1,1.391-.828c.377,0,3.084,1.692,3.084,2.9,0,.564-.263.677-.94.978-.564.263-.715.451-1.843,2.219-.527.828-3.084,4.4-3.536,5.153-.339.526-.414.64-.414.94,0,.339.038.414.715,1.279.9,1.167,1.58,1.994,1.58,3.31a1.619,1.619,0,0,1-1.617,1.8c-.79,0-.94-.263-2.37-2.67-.075-.151-.489-.865-.865-.865-.338,0-.564.263-1.317,1.053a32.461,32.461,0,0,1-13.878,9.064c-.076,0-.414,0-.339-.338C1207.292,1390.579,1207.367,1390.579,1208.082,1390.165Zm19.144-20.837c0-.414-.376-.527-.639-.527-.564,0-3.874.489-4.551.489a3.417,3.417,0,0,1-1.129-.151,2.533,2.533,0,0,0-.9-.151.592.592,0,0,0-.451.151c-.038,0-3.2,3.761-3.2,4.213,0,.526.339.639,1.279,1.015a41.977,41.977,0,0,1,4.137,1.918,2.119,2.119,0,0,0,.865.263C1223.465,1376.4,1227.226,1370.607,1227.226,1369.328Z" transform="translate(-926.109 -1360.564)" fill="#fff"/>
      <path id="パス_3286" data-name="パス 3286" d="M1289.465,1381.838c.226,0,.639-.038.828-.038,2.294,0,2.632,1.392,2.632,1.655,0,1.053-1.542,1.166-3.121,1.166-.865,0-4.626-.075-5.379-.075-5.19,0-13.8.489-14.706.677-.451.075-2.482.677-2.934.677-1.617,0-3.348-2.332-3.348-3.61,0-.226.113-.451.3-.451s1.09.413,1.279.451a20.5,20.5,0,0,0,4.589.338C1270.847,1382.627,1283.973,1382.138,1289.465,1381.838Z" transform="translate(-947.324 -1367.545)" fill="#fff"/>
    </g>
  </g>
</svg>
