<svg xmlns="http://www.w3.org/2000/svg" width="978.653" height="50.515" viewBox="0 0 978.653 50.515">
  <g id="グループ_5920" data-name="グループ 5920" transform="translate(-242.037 -1356.845)">
    <path id="パス_3269" data-name="パス 3269" d="M242.258,1392.131c-.166-.222-.221-.277-.221-.387s.055-.111.166-.111c.277,0,1.439.111,1.715.111,4.979.221,5.921.276,7.58.276H262.84c1.771,0,1.771-.5,1.771-4.648,0-1.715-.387-1.992-1.66-1.992h-8.465c-4.869,0-6.307.055-6.86.111-.167,0-1.162.166-1.329.166s-.277-.166-.5-.387L244.748,1384c-.222-.221-.222-.277-.222-.331a.146.146,0,0,1,.166-.166c.387,0,2.1.221,2.435.221,2.711.111,5.145.166,7.635.166h8.189c1.715,0,1.771-.608,1.771-3.872,0-2.324,0-2.877-1.6-2.877h-9.351a1.318,1.318,0,0,0-1.549,1,2.978,2.978,0,0,1-3.043,2.269c-1.273,0-1.439-.72-1.439-1.438,0-.443.167-2.213.167-2.546.277-5.422.331-8.41.331-8.964a56.639,56.639,0,0,0-.331-6.971c-.056-.332-.5-1.826-.5-2.1,0-.332.222-.387.5-.387a30.1,30.1,0,0,1,4.925,1.881,9.462,9.462,0,0,0,3.6.664h22.408a3.982,3.982,0,0,0,2.435-.553c.331-.166,1.66-1.328,1.992-1.328,1.162,0,3.984,2.379,3.984,3.264,0,.387-.332.719-1.218,1.273-.553.387-.553.553-.664,2.047-.111,1.826-.111,5.257-.111,6.308s.111,5.478.056,6.418c-.056,1-.387,2.158-2.766,2.158-1.549,0-1.715-.5-1.826-1.605-.111-1.162-.5-1.383-1.716-1.383H270.31c-1.715,0-1.715.884-1.715,2.766,0,3.6,0,3.983,1.77,3.983h8.521c2.6,0,2.877,0,3.541-.885,1.217-1.771,1.383-1.937,1.881-1.937.831,0,4.759,2.932,4.759,3.541,0,.775-1.107.775-2.988.775H270.31c-.553,0-1.66,0-1.66,1.439,0,4.869,0,5.2,1.826,5.2h10.789c2.49,0,2.655-.111,3.1-.5.387-.387,1.881-2.6,2.324-2.6.608,0,4.481,3.431,4.481,3.928s-.5.609-2.988.609h-36.96c-1.715,0-1.881,0-1.881.387,0,.055.277.94.331,1.051a8.872,8.872,0,0,1,.387,2.6c0,3.486-1.937,8.908-5.533,8.908a1.717,1.717,0,0,1-1.826-1.715c0-.94.387-1.438,1.937-2.988,1.881-1.881,3.928-4.814,3.928-7.193,0-1-.332-1-.831-1-.553,0-3.43.221-3.928.221-.166,0-.331-.166-.5-.332Zm20.915-16.489c1.549,0,1.549-.719,1.549-3.043,0-2.379,0-3.209-1.6-3.209h-9.3c-1.6,0-1.6.664-1.6,3.652,0,1.715,0,2.6,1.549,2.6Zm-.166-7.691c1.659,0,1.659-.719,1.659-3.375,0-1.715,0-2.6-1.659-2.6h-9.074c-1.66,0-1.66.664-1.66,3.431,0,1.6,0,2.545,1.66,2.545Zm-6.806,26.005c1.384,0,7.581,3.6,7.581,8.687a2.612,2.612,0,0,1-2.435,2.932c-1.328,0-1.826-1.273-2.047-2.6-.719-4.316-1-5.921-2.324-7.691-.11-.166-1.051-.885-1.051-1.107C255.924,1394.012,256.091,1393.957,256.2,1393.957Zm23.183-18.315c1.549,0,1.771-.5,1.771-3.707,0-1.715,0-2.546-1.715-2.546h-9.074c-1.715,0-1.715.664-1.715,3.264,0,2.379,0,2.988,1.715,2.988Zm-8.963-13.666c-1.66,0-1.66.5-1.66,4.537a1.373,1.373,0,0,0,1.6,1.439h9.185c1.659,0,1.659-.885,1.659-2.656,0-2.546,0-3.32-1.659-3.32Zm-1.273,32.092c.83,0,7.912,3.762,7.912,8.742,0,2.821-1.993,3.043-2.324,3.043-1.384,0-1.992-1.439-2.213-2.435-.885-3.485-1.715-7.137-3.32-8.631-.055-.055-.387-.387-.387-.5A.318.318,0,0,1,269.148,1394.068Zm12.394-.222c.222,0,8.742,4.15,8.742,9.184,0,2.435-1.66,3.32-2.711,3.32-1.493,0-1.826-1-2.379-4.426a15.877,15.877,0,0,0-3.6-7.3c-.166-.166-.387-.5-.331-.609C281.321,1393.846,281.431,1393.846,281.542,1393.846Z" transform="translate(0 -0.097)" fill="#fff"/>
    <path id="パス_3270" data-name="パス 3270" d="M318.916,1389.057c-4.869,0-6.418.111-6.971.166-.167,0-1,.166-1.162.166-.222,0-.332-.166-.5-.387l-1.051-1.272c-.222-.222-.277-.277-.277-.332,0-.111.111-.166.221-.166.387,0,2.1.221,2.435.221,2.711.167,4.979.167,7.58.167h10.513c.609,0,1.6,0,1.6-1.66,0-.609-.5-3.928-.5-4.15s.277-.277.387-.277c.056,0,2.435.5,2.878.5,1.439,0,5.2-5.644,5.2-6.252,0-.5-.5-.5-1.051-.5H327.547c-4.814,0-6.418.111-6.971.166-.166,0-1,.111-1.162.111-.222,0-.332-.111-.5-.331l-1.051-1.273c-.222-.276-.277-.276-.277-.387s.111-.111.222-.111c.387,0,2.1.166,2.434.166,2.711.111,4.98.222,7.581.222H337.4c2.213,0,2.988-.111,3.541-.442.277-.111,1.218-1.439,1.549-1.439.885,0,4.648,3.653,4.648,4.7,0,.664-.609.608-2.213.664-.72,0-1.273.5-3.32,2.047-.83.665-5.145,3.542-5.478,3.818a3.044,3.044,0,0,0-.83,2.49c0,.94,0,1.937,1.6,1.937h10.734c1.715,0,1.937,0,2.6-.553.553-.443,2.49-2.933,3.1-2.933.72,0,4.925,3.1,4.925,4.2,0,.72-1.051.72-2.932.72H337.009a1.38,1.38,0,0,0-1.6,1.493c0,.222.221,7.858.221,9.351,0,3.154,0,4.814-1.826,6.141a7.327,7.327,0,0,1-4.26,1.328c-.609,0-.609,0-1.218-1a9.684,9.684,0,0,0-3.209-3.264c-.664-.443-.885-.553-.885-.831a.146.146,0,0,1,.166-.166c.443,0,3.209.333,3.818.333,2.323,0,2.877-.387,3.043-.941a61.044,61.044,0,0,0,.277-6.529c0-5.422,0-5.92-1.66-5.92Zm29.491-23.792a2.588,2.588,0,0,0,2.1-.83c.94-.94,1.272-1.218,1.826-1.218.664,0,1,.277,2.49,1.66,2.822,2.6,3.154,2.877,3.154,3.6a.943.943,0,0,1-1,1.051c-.387,0-2.268-.387-2.71-.387a6.214,6.214,0,0,0-2.711.719c-.553.222-2.933,1.495-3.264,1.495a.258.258,0,0,1-.277-.276c0-.056.664-1.273.719-1.329a7.142,7.142,0,0,0,.885-2.379c0-.608-.442-.608-.83-.608H316.15c-.332,0-.885,0-1,1.106-.387,3.1-1.881,5.146-3.983,5.146a2.031,2.031,0,0,1-2.047-1.993c0-.442.166-.719.83-1.77a24.481,24.481,0,0,0,2.767-5.921c.166-.664.221-.719.387-.719.276,0,.94,1.162,1.272,1.715.609.94,1,.94,1.605.94h13.832a1.353,1.353,0,0,0,1.439-1.549,21.286,21.286,0,0,0-.443-4.2c-.055-.332-.5-1.826-.5-2.213,0-.332.442-.332.664-.332.83,0,4.371.665,4.869.775.332.056,1.051.443,1.051,1.051,0,.277-.055.332-.94,1.052a3.026,3.026,0,0,0-.775,2.213c0,2.49,0,3.208,1.6,3.208Z" transform="translate(-5.643 -0.01)" fill="#fff"/>
    <path id="パス_3271" data-name="パス 3271" d="M391.269,1376.155c-.387,1.162-.609,18.868-.609,23.073,0,.774.166,4.26.055,4.979a3.824,3.824,0,0,1-3.1,2.988c-1.218,0-1.218-1.384-1.218-1.937,0-1.051.332-5.754.387-6.75.056-1.439.553-13.666.553-17.262,0-4.095-.11-4.261-.553-4.261-.277,0-.5.333-1.549,1.715-1.6,2.1-6.141,8.023-7.137,8.023a.354.354,0,0,1-.332-.333c0-.22,5.145-8.575,6.031-10.235,5.09-9.462,7.47-16.267,7.8-17.595.387-1.715.387-1.715.72-1.715.277,0,5.588,2.323,5.588,3.208,0,.387-1.605,1.384-1.826,1.6-1.051,1.163-1.384,1.716-4.261,6.75-.553.941-1.771,3.044-1.771,3.708,0,.608.387.94.941,1.217.774.387,1.161.664,1.161,1.273C392.153,1374.882,391.324,1375.933,391.269,1376.155Zm33.087-5.312a5.1,5.1,0,0,0-3.32,1.384c-6.087,4.592-7.358,5.588-10.568,7.414-1.493.885-3.817,2.213-4.2,3.264-.222.719-.277,10.346-.277,12.117,0,7.58,0,7.746,7.691,7.746,6.916,0,7.691-.387,8.3-1.384.5-.774.664-2.047,1-5.643.166-1.77.166-1.992.609-1.992.331,0,.331.055.553,1.992a14.8,14.8,0,0,0,1.493,5.257,12,12,0,0,1,1.329,2.323c0,3.155-7.083,3.155-10.181,3.155-14.5,0-14.5-1.495-14.5-7.47,0-5.2.332-28.052.332-32.811a47.724,47.724,0,0,0-.222-6.473c-.055-.278-.277-1.716-.277-2.048,0-.5.166-.664.387-.664a28.552,28.552,0,0,1,3.154,1.051c1.992.719,2.213.775,2.213,1.273a.683.683,0,0,1-.222.442c-.775.72-.83.774-.94,1.328-.222.941-.442,14.11-.442,16.71,0,.5,0,1.659.664,1.659,1.383,0,9.019-7.414,13.445-13.168.166-.276.94-1.272,1.107-1.272s4.869,4.038,4.316,5.256C425.573,1370.732,424.743,1370.843,424.356,1370.843Z" transform="translate(-11.445)" fill="#fff"/>
    <path id="パス_3272" data-name="パス 3272" d="M448.259,1386.7c0-1.659,1.549-3.43,5.312-7.8,2.49-2.877,4.7-7.469,4.7-8.244,0-.332-.387-.387-.609-.387-.553,0-2.821.443-3.319.443-2.1,0-4.924-2.711-4.924-4.869,0-.166,0-.387.332-.387a12.477,12.477,0,0,1,2.1,1.051,8.786,8.786,0,0,0,3.652,1c4.537,0,4.537-1.493,4.537-2.6a4.441,4.441,0,0,0-.443-1.937c-.166-.277-1.328-1.273-1.328-1.6,0-.442,1.439-.885,2.435-.885,1.328,0,2.71.5,2.821,1.715.056.72.277.831,2.49,1,.387,0,2.491.276,2.491,1.438,0,1.826-4.039,3.375-6.585,4.371-.83.332-.885.442-2.1,3.263a42.86,42.86,0,0,1-2.988,5.976c-.277.5-.387.664-.387.885a.2.2,0,0,0,.222.221,11.051,11.051,0,0,0,1.715-.609,5.168,5.168,0,0,1,2.157-.442,4.989,4.989,0,0,1,4.7,3.375c.387.94.443,1.051.554,1.051a26.017,26.017,0,0,0,2.268-2.988c1.826-2.546,5.423-7.58,10.236-7.58a5.22,5.22,0,0,1,5.2,4.925c0,2.6-4.371,4.427-7.8,5.92-1.384.609-7.636,3.1-8.632,3.707-.885.554-.94,1.162-.94,2.324,0,.5.111,2.822.111,3.32,0,.885,0,4.039-2.047,4.039-1.493,0-1.715-1.826-1.715-2.822,0-.553.167-3.208.167-3.264,0-.222,0-.664-.387-.664-.443,0-5.368,3.43-5.368,6.585,0,3.817,5.533,3.817,7.138,3.817a17.109,17.109,0,0,0,3.541-.332c.775-.111,4.316-1,5.035-1,1.162,0,2.711.553,2.711,1.881,0,3.43-8.576,3.652-9.9,3.652-7.027,0-10.734-2.877-10.734-7.249,0-3.541,2.1-5.311,7.3-9.517a2.355,2.355,0,0,0,.831-1.937c0-2.49-.443-5.587-2.656-5.587-2.1,0-5.367,2.545-6.805,5.865-.609,1.383-1.217,2.71-2.988,2.71C449.31,1388.522,448.259,1388.19,448.259,1386.7Zm14.109-20.914c.111,0,2.767-.72,2.767-1.328,0-.72-1.384-.831-1.882-.831-.775,0-1,1.549-1,1.771S462.258,1365.782,462.368,1365.782Zm5.035,17.927c0,.11.055.277.222.277s11.066-4.427,11.066-8.078a1.7,1.7,0,0,0-1.937-1.66C472.162,1374.247,467.4,1382.823,467.4,1383.709Z" transform="translate(-17.389 -0.306)" fill="#fff"/>
    <path id="パス_3273" data-name="パス 3273" d="M507.161,1378.861c-.222-.276-.222-.276-.222-.387s.056-.111.166-.111c.277,0,1.439.111,1.716.111,4.979.222,5.533.276,7.413.276h6.972c.553,0,1.217,0,1.493-.608.222-.332.222-6.7.222-7.8,0-1.328-.222-1.771-1.6-1.771H512.195c-4.869,0-6.473.111-6.971.167-.222,0-1,.11-1.162.11-.222,0-.332-.11-.5-.387l-1.106-1.272c-.167-.222-.222-.277-.222-.332,0-.111.055-.111.222-.111.387,0,2.047.166,2.434.166,2.711.111,4.98.167,7.581.167h10.734c.775,0,1.6,0,1.6-1.328s-.276-6.086-.387-7.359c0-.055-.055-.5-.055-.609a.31.31,0,0,1,.276-.332,48.586,48.586,0,0,1,5.2,1.217.8.8,0,0,1,.719.83c0,.278-.386.665-.774,1.052-.554.553-.885,1.715-.885,5.2,0,1.328.885,1.328,1.715,1.328h10.236c2.49,0,2.766,0,3.541-.885,1.549-1.881,1.715-2.047,2.213-2.047.387,0,5.2,2.933,5.2,3.652,0,.664-.609.775-2.822.775H530.454c-.775,0-1.218,0-1.549.553a37.072,37.072,0,0,0-.222,5.09c0,4.371.222,4.537,1.66,4.537h4.7a3.731,3.731,0,0,0,2.988-1.161c1.328-1.494,1.438-1.66,1.826-1.66.5,0,2.157,1.272,4.814,3.319a1.036,1.036,0,0,1,.5.831c0,.5-.222.553-2.158,1-.94.222-1.106.443-3.1,2.766a76.339,76.339,0,0,1-8.189,8.964c-.664.609-1.439,1.328-1.439,1.66,0,.83,1.218,1.438,3.486,2.545,2.047,1,10.291,4.482,15.492,4.482,1.771,0,1.992,0,1.992.222,0,.387-3.043,1.659-3.541,2.157-.276.276-1.549,1.826-1.826,2.1a.886.886,0,0,1-.609.277c-.83,0-10.014-3.486-16.156-7.692a6.86,6.86,0,0,0-2.434-1.272c-.553,0-.775.111-2.822,1.439-9.572,6.086-19.2,7.967-19.974,7.967-.609,0-.775-.333-.775-.442s.387-.222,1.106-.443a71.559,71.559,0,0,0,16.876-8.964c1.549-1.106,2.435-1.77,2.435-2.545,0-.387-.222-.664-1.937-2.877a38.865,38.865,0,0,1-4.98-9.573c-.608-1.66-1.493-1.66-2.877-1.66-.775,0-4.26.278-5.034.278-.167,0-.277-.111-.5-.333Zm11.9,1.328c-.5,0-1.383,0-1.383.941,0,1.659,6.639,10.734,8.963,10.734,1.937,0,9.627-9.573,9.627-10.844,0-.83-.553-.83-1.992-.83Z" transform="translate(-21.94 -0.051)" fill="#fff"/>
    <path id="パス_3274" data-name="パス 3274" d="M584.619,1370.134c-.719,0-1.6,0-1.881,1-.056.387-.056,6.805-.056,7.858a1,1,0,0,0,1.052,1c.442,0,5.145-2.49,5.7-2.49.056,0,.222,0,.222.166,0,.387-.775,1-5.423,4.537a3.126,3.126,0,0,0-1.493,2.546c0,2.047.331,12.117.331,14.385,0,6.694-5.2,8.078-5.478,8.078a1.313,1.313,0,0,1-.94-.553c-.166-.222-.885-1.439-1.051-1.66-.387-.442-2.711-2.268-2.711-2.6,0-.222.387-.222.831-.222s2.434.056,2.877.056c2.324,0,2.6,0,2.6-8.411,0-.83-.056-4.979-.111-5.7a1,1,0,0,0-1-1.051,7.466,7.466,0,0,0-2.932,2.379c-.111.221-.443.664-.775.664-.885,0-2.988-4.481-2.988-5.035,0-.276.387-.332.719-.387.941-.166,6.032-1.217,6.806-3.319.166-.443.166-7.747.166-9.019s0-2.158-1.549-2.158c-.664,0-4.039.222-4.537.222-.222,0-.331-.111-.5-.332l-1.106-1.273c-.222-.276-.222-.276-.222-.387s.111-.111.222-.111c.83,0,4.979.332,5.92.332,1.715,0,1.715-1.051,1.715-2.268,0-1.494,0-5.423-.166-6.7-.055-.332-.719-1.715-.719-2.1s.442-.5.664-.5,2.766.775,3.264.885c1.6.387,2.545.664,2.545,1.384,0,.332-1.328,1.439-1.549,1.715-.387.719-.387,4.592-.387,5.7,0,.775,0,1.937,1.771,1.937,1.549,0,1.66-.167,2.324-.941.5-.608,1.162-1.383,1.715-1.383.609,0,2.988,2.49,2.988,3.043,0,.72-1.106.72-2.933.72Zm2.877,11.452a.844.844,0,0,1-.221-.332.146.146,0,0,1,.166-.166c.332,0,1.715.166,1.992.166.72.055,5.257.222,6.474.222,1.051,0,1.66,0,1.937-.775a29.238,29.238,0,0,0,.553-4.206c0-.332-.111-1.383-1.66-1.383-.5,0-2.932.222-3.375.222-.166,0-.277-.167-.442-.333l-1.106-1.273c-.167-.222-.222-.276-.222-.387s.055-.111.222-.111c.331,0,2.047.167,2.434.167,2.711.11,4.979.221,7.58.221h6.2c2.324,0,2.546,0,2.988-.387s1.992-2.268,2.49-2.268c.277,0,4.592,2.6,4.592,3.319,0,.775-1.106.775-2.988.775H604.261c-1.6,0-1.6,1.051-1.715,1.826-.111.72-.553,3.044-.553,3.431a1.068,1.068,0,0,0,1.217,1.162h7.967c2.324,0,2.546,0,2.988-.387s2.158-2.546,2.656-2.546,4.869,2.988,4.869,3.652c0,.775-1.107.775-2.933.775H603.1a2.108,2.108,0,0,0-1.992,1.051c-.111.222-.72,2.324-.72,2.379,0,.609.443.941,1.107.941h9.351a2.853,2.853,0,0,0,2.213-.775c.331-.277.885-.775,1.106-.775a35.066,35.066,0,0,1,4.039,2.49c.277.222.5.331.5.719,0,.609-.332.72-1.66,1.162-.553.222-.885.5-1.493,1.605a32.893,32.893,0,0,1-3.928,5.311.965.965,0,0,0-.276.775c0,.831,1.383,1.605,3.762,2.711a38.694,38.694,0,0,0,6.032,1.937c.221.056.83.277.83.5a25.292,25.292,0,0,1-2.822,1.826,7.129,7.129,0,0,0-1.6,1.549c-.276.331-.331.442-.553.442s-2.877-.885-7.857-4.925a1.618,1.618,0,0,0-1.273-.5,2.353,2.353,0,0,0-1.494.554c-4.647,3.154-13.223,5.09-15.326,5.09-.167,0-.609,0-.609-.222,0-.277.166-.331,1.937-1a39.834,39.834,0,0,0,11.841-6.418,1.551,1.551,0,0,0,.664-1.217c0-.387-.443-.941-.775-1.439a52.817,52.817,0,0,1-3.817-6.363.7.7,0,0,0-.72-.5c-.553,0-.664.167-1.715,1.937-5.256,9.185-13.556,13.445-14.33,13.445-.056,0-.111-.111-.111-.166a9.574,9.574,0,0,1,1.493-1.66c3.209-3.1,7.249-6.971,10.458-13.943a21.08,21.08,0,0,0,1.77-5.145c0-1.384-1.439-1.384-2.1-1.384-.222,0-3.817.055-5.2.166-.111,0-.664.111-.775.111-.221,0-.331-.166-.5-.387Zm14.608-18.812c-1.937.111-6.363.276-8.245.276-.277,0-3.872-.055-3.872-.553,0-.332.276-.387,2.71-.664,3.984-.5,14.884-1.992,17.816-3.32a16.191,16.191,0,0,1,2.877-1.549c.167,0,4.925,2.711,5.533,3.486a.805.805,0,0,1,.111.387c0,.885-1.273.885-2.491.885C615.493,1361.724,604.206,1362.609,602.1,1362.775Zm-7.194,9.627c-1.439,0-1.493-.885-1.77-4.261a10.019,10.019,0,0,0-.664-2.545,4.5,4.5,0,0,1-.277-1.218c0-.11.055-.166.221-.166a5.977,5.977,0,0,1,4.426,5.533C596.847,1371.075,596.183,1372.4,594.91,1372.4Zm7.525,16.433c-.664,0-1.106.332-1.106.94,0,1.107,5.367,5.921,6.418,5.921.553,0,1.162-.831,2.435-2.49.11-.167,1.826-2.822,1.826-3.486a.775.775,0,0,0-.831-.885Zm2.324-17.208c-1.273,0-1.273-.387-1.6-4.039a30.685,30.685,0,0,0-.609-3.375c-.055-.221-.277-.609-.277-.719,0-.056,0-.222.166-.222s4.759,3.264,4.759,5.865A2.735,2.735,0,0,1,604.759,1371.628Zm14-7.193c.443.277.5.5.5.609,0,.332-1.549.774-1.77,1-.554.553-2.877,3.209-3.431,3.652a37.423,37.423,0,0,1-3.208,2.324.119.119,0,0,1-.111-.111c0-.775,3.43-7.193,3.43-8.023,0-.166-.111-.774-.111-.885,0-.221.056-.5.443-.5a8.86,8.86,0,0,1,2.545,1.051C617.319,1363.715,618.537,1364.269,618.757,1364.435Z" transform="translate(-27.753 -0.01)" fill="#fff"/>
    <path id="パス_3275" data-name="パス 3275" d="M644.627,1372.354c3.817,0,11.01-1.162,15.049-1.881,2.877-.5,3.209-.554,3.209-1.992a33.064,33.064,0,0,0-.775-7.524c-.055-.276-.94-1.273-.94-1.549,0-.387.83-.387,1.162-.387,2.434,0,4.592,1,4.592,2.766,0,.277-.222,1.439-.222,1.715,0,1.273,1.605,2.1,4.87,3.486a12.156,12.156,0,0,0,4.869,1.107c.553,0,2.877-.278,3.319-.278.72,0,3.155.222,3.155,2.158,0,1.439-1.051,1.937-2.988,1.937-1.162,0-6.308-.5-7.359-.5-1.328,0-4.924.111-5.976.553-.775.332-.885,1.107-.885,5.976a7.229,7.229,0,0,0,.719,3.6,17.541,17.541,0,0,1,1.6,7.469c0,10.734-8.355,17.595-10.07,17.595-.111,0-.277-.055-.277-.221,0-.111,2.268-2.767,2.656-3.32,1.439-2.158,3.1-5.754,3.1-8.133,0-.167,0-.775-.553-.775-.166,0-1,.11-1.162.11-2.988,0-5.643-2.821-5.643-7.248,0-.72,0-6.805,5.367-7.636,1.549-.221,1.549-.553,1.549-3.375,0-2.988,0-3.319-1.107-3.319a68.529,68.529,0,0,0-9.793,2.213c-.94.276-4.98,2.213-5.92,2.213-1.218,0-5.81-2.324-5.81-4.592,0-.222.111-.5.277-.554C641.2,1372.023,643.852,1372.354,644.627,1372.354Zm16.433,9.185c-1.384,0-3.154,2.268-3.154,5.09,0,3.1,2.157,4.426,3.6,4.426,2.158,0,2.213-3.32,2.213-4.206a10.762,10.762,0,0,0-.719-3.872A2.34,2.34,0,0,0,661.059,1381.539Zm5.09-13.224c0,.885.222,1.051,1,1.051.221,0,3.818-.111,3.818-.94,0-.442-3.708-3.043-4.2-2.932C666.371,1365.6,666.15,1366.876,666.15,1368.315Z" transform="translate(-33.587 -0.183)" fill="#fff"/>
    <path id="パス_3276" data-name="パス 3276" d="M732.379,1390.867c0-4.536-3.817-8.41-9.351-8.41-7.3,0-12.006,7.58-13,9.3-1.106,1.882-1.659,2.933-3.154,2.933a1.525,1.525,0,0,1-1.6-1.549c0-1.384.442-2.6,4.371-7.193,3.6-4.206,4.15-4.925,12.5-16.654,1.826-2.6,2.6-3.763,2.6-4.371,0-.387-.387-.775-1.051-.775-2.047,0-5.311,2.767-6.252,3.541-2.213,1.826-2.988,1.993-3.928,1.993-2.6,0-4.316-3.541-4.316-3.818,0-.166.166-.166,1.328-.166a26.832,26.832,0,0,0,8.576-1.992c3.43-1.494,3.817-1.66,5.035-1.66,2.213,0,5.809,1.384,5.809,3.817,0,1.605-1.272,2.491-3.928,4.316-3.983,2.822-8.853,10.4-8.853,11.344,0,.166.166.387.332.387.331-.111,1.051-.387,1.383-.5a13.391,13.391,0,0,1,4.87-.885c7.082,0,12.449,5.256,12.449,11.508,0,7.027-6.805,11.951-13.832,11.951-5.478,0-9.406-2.932-9.406-5.7,0-1.992,2.324-4.481,5.478-4.481a8.168,8.168,0,0,1,6.307,3.541c.775,1,1.107,1.494,1.882,1.494C728.506,1398.836,732.379,1395.461,732.379,1390.867Zm-14.22,4.98a2.262,2.262,0,0,0-2.324,1.937c0,1.438,2.379,2.6,4.759,2.6a.915.915,0,0,0,.94-1C721.535,1398.061,720.207,1395.848,718.16,1395.848Z" transform="translate(-39.06 -0.438)" fill="#fff"/>
    <path id="パス_3277" data-name="パス 3277" d="M783.647,1374c.885-.166,5.7-1.328,5.81-1.328,1.162,0,7.138,4.537,7.138,7.3,0,.775-.83,1.051-2.158,1.217-2.988.387-3.541.83-8.355,4.87-.775.664-2.6,1.992-3.6,3.043a1.3,1.3,0,0,0-.277.553c0,.443.222.664,1.882,2.49a6.237,6.237,0,0,1,1.715,3.818,1.936,1.936,0,0,1-1.881,2.157c-1.439,0-1.771-.387-4.98-3.983a40.1,40.1,0,0,0-8.188-6.972c-.554-.387-.609-.442-.609-.664a.449.449,0,0,1,.5-.442c1.493,0,8.963,2.656,9.3,2.656,1.66,0,9.019-10.4,9.019-12.006,0-.664-.664-.72-1.106-.72-2.435,0-18.149,3.044-22.575,4.482-.719.221-4.149,1.826-4.316,1.826-.885,0-5.367-2.933-5.367-5.533,0-.11,0-.885.387-.885a18.96,18.96,0,0,1,1.826.664,15.441,15.441,0,0,0,3.209.276C765.721,1376.826,778.391,1374.944,783.647,1374Z" transform="translate(-43.304 -1.335)" fill="#fff"/>
    <path id="パス_3278" data-name="パス 3278" d="M823.1,1374.059a28.146,28.146,0,0,0,3.154.222c2.933,0,10.734-1.549,12.062-2.435,1.6-1,1.77-1.106,2.268-1.106,1.384,0,3.486,2.048,3.486,2.711,0,.331-.111.442-1.162,1.106-.94.609-1.162,1-3.928,4.759a10.05,10.05,0,0,0-1.217,1.881c0,.443.331.5.775.609.608.166,2.434,1,2.434,2.324,0,.387-.442,2.157-.5,2.545a18.3,18.3,0,0,0-.276,4.039c0,1.384.056,5.921.167,8.189,0,.609.166,3.375.166,3.928,0,2.656-.72,3.1-1.439,3.1-1.771,0-3.209-3.873-3.209-4.979,0-.442.443-2.269.5-2.6a46.95,46.95,0,0,0,.885-8.355c0-.443,0-4.2-.609-5.368a1.305,1.305,0,0,0-1.051-.608,1.241,1.241,0,0,0-.83.442c-4.648,4.759-8.964,9.24-16.71,12.781a8.734,8.734,0,0,1-1.992.72c-.111,0-.222-.056-.222-.166,0-.277,5.976-4.87,7.083-5.81a54.378,54.378,0,0,0,11.674-13,15.6,15.6,0,0,0,1.66-3.1.423.423,0,0,0-.442-.442c-.443,0-9.573,3.154-10.181,3.154a7.681,7.681,0,0,1-4.206-2.324,6.771,6.771,0,0,1-.885-2.157.488.488,0,0,1,.5-.443C821.389,1373.672,822.828,1374,823.1,1374.059Zm18.369-8.852a2.323,2.323,0,0,1-2.1,2.212c-1.273,0-1.937-1.106-3.43-3.43-.72-1.106-1.605-2.047-5.035-4.316-.111-.111-.387-.332-.387-.5,0-.276.83-.276,1.051-.276C836.218,1358.9,841.474,1361.831,841.474,1365.207Zm15.327,25.562c0,.719-.664,2.324-2.1,2.324-1.052,0-1.66-.609-2.711-2.6-.775-1.439-1.107-1.826-4.261-5.478a6.408,6.408,0,0,1-1.051-1.549c0-.167.387-.167.442-.167C852.153,1383.3,856.8,1387.781,856.8,1390.769Z" transform="translate(-48.385 -0.173)" fill="#fff"/>
    <path id="パス_3279" data-name="パス 3279" d="M889.267,1381.695c0,1.162-.775,2.766-2.1,2.766-.83,0-1.106-.331-1.937-1.715a14.348,14.348,0,0,0-5.034-4.537c-.167-.111-.554-.332-.554-.553,0-.83,3.541-.83,3.873-.83C885.892,1376.826,889.267,1378.983,889.267,1381.695Zm-6.529,16.986c-.166-.331-1.051-1.494-1.162-1.77a2.248,2.248,0,0,1-.276-1,.405.405,0,0,1,.442-.442c.167,0,2.656.885,3.209.885,2.988,0,18.038-8.245,27.775-17.207.609-.609,3.818-3.873,3.984-3.873a.353.353,0,0,1,.331.331c0,.111-2.766,8.687-24.455,22.354-3.375,2.1-3.6,2.268-4.039,2.6-2.047,1.6-2.269,1.77-2.877,1.77C884.51,1402.332,883.846,1401.06,882.739,1398.681Zm13.224-28.052c0,1.439-.941,2.6-1.826,2.6-.609,0-.83-.276-2.767-2.546a9.357,9.357,0,0,0-4.814-2.987c-.775-.277-.83-.277-.83-.5,0-.609,2.546-1.162,4.2-1.162a7.624,7.624,0,0,1,2.822.553C894.192,1367.2,895.963,1368.637,895.963,1370.629Zm18.535-2.545c0,.664-.72,2.1-1.771,2.1-.83,0-1.328-.609-2.71-2.767a17.272,17.272,0,0,0-3.542-3.707c-.221-.166-.719-.664-.719-.885,0-.331.664-.387,1-.387C909.961,1362.44,914.5,1365.151,914.5,1368.084Zm5.81-3.763a1.628,1.628,0,0,1-1.494,1.77c-1.162,0-1.937-1.162-2.711-2.434a13.877,13.877,0,0,0-4.481-3.6c-.5-.276-.609-.553-.609-.664,0-.5,1.107-.5,2.1-.5C914.553,1358.9,920.308,1360.5,920.308,1364.322Z" transform="translate(-53.763 -0.173)" fill="#fff"/>
    <path id="パス_3280" data-name="パス 3280" d="M950.9,1376.912a29.948,29.948,0,0,0,3.485,1.494c1.162,0,2.767-3.873,3.431-5.478,1-2.38,2.047-5.533,2.047-6.64a2.46,2.46,0,0,0-.387-1.273c-.166-.332-.331-.5-.331-.664a.452.452,0,0,1,.442-.5,8.616,8.616,0,0,1,3.708,1.771,7.265,7.265,0,0,1,2.379,3.983c0,.442-.166.5-1.384,1.107-.608.331-.775.608-2.213,3.319-.94,1.826-1.992,3.707-3.154,5.533a2.535,2.535,0,0,0-.553,1.383,2.2,2.2,0,0,0,.94,1.494c4.759,4.2,5.423,7.193,5.423,8.575a1.736,1.736,0,0,1-1.771,1.827c-1.992,0-2.821-1.439-4.758-4.87-.554-1-1.605-2.877-2.38-2.877a1.591,1.591,0,0,0-1.161.775c-10.126,12.67-21.191,17.373-21.69,17.373-.166,0-.387-.055-.387-.276s1.051-1.051,1.715-1.6c9.406-7.359,13.113-11.675,14.663-13.556,1.328-1.66,3.983-5.09,3.983-5.921,0-1.162-5.09-4.2-7.193-5.367-1.051-.553-1.162-.608-1.162-.885,0-.221.111-.442.5-.442A22.252,22.252,0,0,1,950.9,1376.912Z" transform="translate(-58.228 -0.591)" fill="#fff"/>
    <path id="パス_3281" data-name="パス 3281" d="M1008.961,1394.022a38.676,38.676,0,0,0-5.423,4.536c-1.051,1.273-1.162,1.384-1.992,1.384-2.988,0-7.082-3.541-7.082-5.754,0-.387.055-2.933.553-2.933a13.771,13.771,0,0,1,1.66,1.052,9.158,9.158,0,0,0,3.763,1.272c2.71,0,17.373-9.793,26.557-18.868.885-.884,2.435-2.434,2.546-2.434a.355.355,0,0,1,.276.277C1029.82,1373.052,1023.346,1383.4,1008.961,1394.022Zm-4.537-18.2c-1.493,0-2.047-.885-3.873-3.652a12.458,12.458,0,0,0-5.034-4.537c-.222-.111-.5-.277-.5-.5s.442-.5,1.217-.5c5.921,0,10.568,3.155,10.568,6.419C1006.8,1374.711,1005.862,1375.818,1004.424,1375.818Z" transform="translate(-63.445 -0.825)" fill="#fff"/>
    <path id="パス_3282" data-name="パス 3282" d="M1058.958,1361.86c1.992,0,5.975,1.77,5.975,3.541a16.026,16.026,0,0,1-.664,2.324,71.774,71.774,0,0,0-.5,7.691c0,1.217.221,1.383,1.826,1.771,3.375.775,11.95,4.813,11.95,8.963a1.894,1.894,0,0,1-1.991,1.937c-1.384,0-1.549-.222-5.256-5.034-1.549-2.047-4.15-4.648-5.865-4.648-.554,0-.775,0-.775,4.094,0,5.865.055,8.8.276,13.777.055.609.111,1.992.111,2.822,0,1.383,0,5.034-1.605,5.034-1.659,0-3.1-3.763-3.1-5.2,0-.221.221-1.383.221-1.6a114.534,114.534,0,0,0,.5-12.836c0-15.825,0-17.595-.664-19.366a6.146,6.146,0,0,0-1.881-2.546l-.111-.221C1057.464,1361.86,1058.9,1361.86,1058.958,1361.86Z" transform="translate(-68.753 -0.423)" fill="#fff"/>
    <path id="パス_3283" data-name="パス 3283" d="M1108.3,1361.818c1.992,0,5.976,1.77,5.976,3.541,0,.387-.553,1.992-.609,2.324a70.876,70.876,0,0,0-.553,7.746c0,1.162.276,1.384,1.826,1.715,3.541.831,12.006,4.87,12.006,8.964a1.936,1.936,0,0,1-2.047,1.937c-1.328,0-1.383-.111-5.2-5.035-1.549-1.992-4.15-4.647-5.865-4.647-.609,0-.775,0-.775,4.094,0,5.865.055,8.8.277,13.777.055.609.111,1.992.111,2.822,0,1.328,0,5.035-1.605,5.035-1.715,0-3.1-3.763-3.1-5.2,0-.221.222-1.383.222-1.6.664-4.979.5-6.031.5-12.837,0-16.377,0-17.595-.664-19.365a6.158,6.158,0,0,0-1.937-2.546.421.421,0,0,1-.111-.221C1106.862,1361.873,1108.245,1361.818,1108.3,1361.818Zm23.294,9.461c0,.72-.609,2.1-1.715,2.1-.83,0-1.328-.554-2.767-2.656a15.5,15.5,0,0,0-3.6-3.6c-.222-.166-.775-.664-.775-.885,0-.277.5-.387,1-.387C1127.666,1365.857,1131.594,1368.789,1131.594,1371.279Zm4.481-6.307c0,.609-.442,1.66-1.439,1.66-1.217,0-1.881-.885-2.877-2.158a13.943,13.943,0,0,0-4.758-3.154c-.554-.222-.72-.5-.72-.609,0-.331.664-.664,2.1-.664C1132.369,1360.047,1136.076,1362.26,1136.076,1364.972Z" transform="translate(-72.914 -0.27)" fill="#fff"/>
    <path id="パス_3284" data-name="パス 3284" d="M1167.548,1364.77c0-.554.775-.554,1.218-.554,3.872,0,5.145,2.878,5.145,3.1,0,.664-.553,1.384-1.66,2.766-.277.387-.442.609-.442.885,0,.443.664.443.885.443a31.329,31.329,0,0,0,8.41-2.213,10.314,10.314,0,0,1,2.6-.885c.5,0,.775.166,3.044,1.493.331.167,1.77.941,2.047,1.107a2,2,0,0,1,1.051,1.383c0,.775-.387,1-2.213,2.1-.608.386-.83.719-2.766,3.707a67.655,67.655,0,0,1-19.808,20.8c-6.087,3.983-10.679,5.311-11.01,5.311a.5.5,0,0,1-.5-.5c0-.222.166-.332,1.881-1.273,16.876-9.3,27.388-28.163,27.388-29.879a.6.6,0,0,0-.608-.608c-.111,0-7.747,1.715-9.074,1.715-.331,0-1.826-.166-2.157-.166-1.052,0-1.162.111-3.486,2.766-3.375,3.763-4.759,5.2-7.525,7.193-2.268,1.66-4.648,2.933-5.312,2.933-.276,0-.387-.166-.387-.332,0-.387,3.708-3.486,4.371-4.15,4.481-4.481,9.738-12.117,9.3-15.437C1167.88,1366.208,1167.548,1364.991,1167.548,1364.77Z" transform="translate(-76.86 -0.622)" fill="#fff"/>
    <path id="パス_3285" data-name="パス 3285" d="M1208.476,1402.815c11.343-6.418,18.923-15.437,18.923-17.151s-6.585-5.921-7.968-5.921c-1.272,0-7.967,7.249-9.793,7.249a.258.258,0,0,1-.276-.276,18.2,18.2,0,0,1,1.992-2.38c6.585-7.137,11.122-14.938,11.122-18.092,0-.443-.885-2.213-.885-2.6,0-.332.719-.332,1.051-.332,2.933,0,4.979,2.158,4.979,3.264,0,.332-.608,1.826-.608,2.158,0,.829,1.161.94,1.881.94a33.892,33.892,0,0,0,8.3-1.328,13.213,13.213,0,0,1,2.047-1.218c.554,0,4.537,2.49,4.537,4.261,0,.83-.387,1-1.383,1.439-.83.387-1.051.664-2.711,3.264-.775,1.218-4.537,6.474-5.2,7.58-.5.775-.609.941-.609,1.384,0,.5.056.609,1.051,1.881,1.328,1.716,2.324,2.933,2.324,4.87a2.382,2.382,0,0,1-2.379,2.656c-1.162,0-1.384-.387-3.486-3.928-.111-.222-.719-1.273-1.273-1.273-.5,0-.829.387-1.937,1.549-9.406,10.126-20.029,13.334-20.416,13.334-.111,0-.609,0-.5-.5C1207.314,1403.424,1207.425,1403.424,1208.476,1402.815Zm28.163-30.652c0-.609-.553-.775-.94-.775-.83,0-5.7.72-6.694.72a5.032,5.032,0,0,1-1.66-.222,3.724,3.724,0,0,0-1.328-.222.87.87,0,0,0-.664.222c-.056,0-4.7,5.532-4.7,6.2,0,.774.5.94,1.881,1.493a61.7,61.7,0,0,1,6.086,2.822,3.123,3.123,0,0,0,1.273.386C1231.106,1382.565,1236.639,1374.044,1236.639,1372.163Z" transform="translate(-81.387 -0.545)" fill="#fff"/>
    <path id="パス_3286" data-name="パス 3286" d="M1301.725,1381.856c.333,0,.94-.056,1.218-.056,3.375,0,3.872,2.047,3.872,2.435,0,1.549-2.268,1.715-4.592,1.715-1.273,0-6.805-.111-7.912-.111-7.635,0-20.306.719-21.634,1-.664.111-3.652,1-4.316,1-2.379,0-4.924-3.43-4.924-5.311,0-.333.167-.664.443-.664s1.6.608,1.881.664a30.17,30.17,0,0,0,6.75.5C1274.337,1383.017,1293.647,1382.3,1301.725,1381.856Z" transform="translate(-86.125 -2.104)" fill="#fff"/>
  </g>
</svg>
