<svg xmlns="http://www.w3.org/2000/svg" width="22.163" height="90.582" viewBox="0 0 22.163 90.582">
  <g id="グループ_5919" data-name="グループ 5919" transform="translate(-675.887 -668.5)">
    <path id="パス_3269" data-name="パス 3269" d="M-20.862-6.084a1.244,1.244,0,0,0,.369.9,5.208,5.208,0,0,0,1.071.792q.684.4,1.017.621a2.253,2.253,0,0,1,.6.63,1.728,1.728,0,0,1,.27.981,2.3,2.3,0,0,1-.306,1.152,2.267,2.267,0,0,1-.918.873A3.008,3.008,0,0,1-20.214.2a3.821,3.821,0,0,1-1.872-.486A.311.311,0,0,1-22.194-.5l-.036-1.782q0-.054.1-.063t.117.027a3.564,3.564,0,0,0,.954,1.53,1.978,1.978,0,0,0,1.35.63.8.8,0,0,0,.6-.234.949.949,0,0,0,.225-.684,1.442,1.442,0,0,0-.378-1.053,4.98,4.98,0,0,0-1.116-.8q-.63-.342-.954-.558a2.026,2.026,0,0,1-.576-.612,1.775,1.775,0,0,1-.252-.972A1.727,1.727,0,0,1-21.4-6.633a3.312,3.312,0,0,1,1.854-.495,4.693,4.693,0,0,1,.747.054,3.713,3.713,0,0,1,.747.216.2.2,0,0,1,.162.2q0,.45-.018.7l-.018.9q0,.054-.108.054t-.108-.054a1.32,1.32,0,0,0-.288-.747,2.593,2.593,0,0,0-.747-.693,1.756,1.756,0,0,0-.945-.288Q-20.862-6.786-20.862-6.084Zm9.594,6.3A3.709,3.709,0,0,1-13.275-.3,3.26,3.26,0,0,1-14.5-1.629a3.83,3.83,0,0,1-.4-1.719,3.263,3.263,0,0,1,.63-1.989,4.153,4.153,0,0,1,1.611-1.314,4.689,4.689,0,0,1,2.007-.459A3.327,3.327,0,0,1-9.1-6.75a1.1,1.1,0,0,1,.693.99.771.771,0,0,1-.261.585,1.029,1.029,0,0,1-.729.243.99.99,0,0,1-.684-.225,1.623,1.623,0,0,1-.414-.693,2.3,2.3,0,0,0-.315-.693.674.674,0,0,0-.549-.189,1.39,1.39,0,0,0-1.233.765,3.908,3.908,0,0,0-.459,2.025,3.892,3.892,0,0,0,.666,2.385,2.478,2.478,0,0,0,2.124.891,2.864,2.864,0,0,0,.837-.108,7.266,7.266,0,0,0,.891-.36h.018a.129.129,0,0,1,.1.054q.045.054.009.09a5.015,5.015,0,0,1-1.332.909A3.723,3.723,0,0,1-11.268.216Zm10.26-7.344a1.3,1.3,0,0,1,.8.3A.875.875,0,0,1,.18-6.12.859.859,0,0,1-.054-5.5a.811.811,0,0,1-.612.243.814.814,0,0,1-.441-.108,1.556,1.556,0,0,1-.351-.324,1.731,1.731,0,0,0-.279-.261.478.478,0,0,0-.279-.081.718.718,0,0,0-.387.135,4.792,4.792,0,0,0-.639.567v3.87A1.173,1.173,0,0,0-2.7-.477a2.186,2.186,0,0,0,1.26.261q.072,0,.072.108T-1.44,0q-.63,0-.99-.018L-3.888-.036-4.95-.018Q-5.22,0-5.688,0q-.054,0-.054-.108t.054-.108a.9.9,0,0,0,.756-.261,1.722,1.722,0,0,0,.2-.981V-4.842a1.871,1.871,0,0,0-.135-.819.446.446,0,0,0-.423-.261,2.315,2.315,0,0,0-.864.252h-.036q-.054,0-.081-.09t.009-.108l2.5-1.224a.752.752,0,0,1,.126-.036q.2,0,.369.369a2.8,2.8,0,0,1,.207,1A7.635,7.635,0,0,1-1.845-6.822,1.615,1.615,0,0,1-1.008-7.128ZM5.922.234A3.662,3.662,0,0,1,3.969-.279,3.45,3.45,0,0,1,2.682-1.665a4.083,4.083,0,0,1-.45-1.9,3.3,3.3,0,0,1,.594-1.989A3.665,3.665,0,0,1,4.338-6.777a4.637,4.637,0,0,1,1.89-.4,3.568,3.568,0,0,1,1.944.522A3.5,3.5,0,0,1,9.441-5.283a3.929,3.929,0,0,1,.441,1.827,3.458,3.458,0,0,1-.54,1.917A3.713,3.713,0,0,1,7.893-.234,4.243,4.243,0,0,1,5.922.234Zm.54-.378A1.161,1.161,0,0,0,7.533-.837,4.316,4.316,0,0,0,7.9-2.826a6.4,6.4,0,0,0-.324-2.16,3.222,3.222,0,0,0-.846-1.359A1.665,1.665,0,0,0,5.616-6.8q-1.44,0-1.44,2.574A6.8,6.8,0,0,0,4.482-2.1,3.535,3.535,0,0,0,5.31-.657,1.613,1.613,0,0,0,6.462-.144ZM12.528,0q-.036,0-.036-.108t.036-.108a.932.932,0,0,0,.765-.261,1.661,1.661,0,0,0,.207-.981l.018-9.144a2.467,2.467,0,0,0-.117-.9.411.411,0,0,0-.405-.27,1.9,1.9,0,0,0-.684.2h-.018q-.054,0-.1-.1t-.009-.117l2.646-1.242.072-.018a.34.34,0,0,1,.2.081q.108.081.108.153V-1.458a1.722,1.722,0,0,0,.2.981.9.9,0,0,0,.756.261q.072,0,.072.108T16.164,0q-.45,0-.72-.018l-1.1-.018-1.08.018Q13,0,12.528,0Zm6.264,0q-.036,0-.036-.108t.036-.108a.932.932,0,0,0,.765-.261,1.661,1.661,0,0,0,.207-.981l.018-9.144a2.467,2.467,0,0,0-.117-.9.411.411,0,0,0-.405-.27,1.9,1.9,0,0,0-.684.2h-.018q-.054,0-.1-.1t-.009-.117L21.1-13.032l.072-.018a.34.34,0,0,1,.2.081q.108.081.108.153V-1.458a1.722,1.722,0,0,0,.2.981.9.9,0,0,0,.756.261q.072,0,.072.108T22.428,0q-.45,0-.72-.018l-1.1-.018-1.08.018Q19.26,0,18.792,0Z" transform="translate(685 694) rotate(90)" fill="#fff"/>
    <path id="パス_8" data-name="パス 8" d="M683,668.5v90.4L690.108,741H675.887" fill="none" stroke="#fff" stroke-width="1"/>
  </g>
</svg>
