<svg xmlns="http://www.w3.org/2000/svg" width="622.887" height="53.96" viewBox="0 0 622.887 53.96">
  <g id="グループ_94" data-name="グループ 94" transform="translate(-71.59 -498.768)">
    <path id="パス_457" data-name="パス 457" d="M85.567,522.672c-1.769,0-1.828.058-1.828,6.547,0,.354.058,5.956.058,6.9.058.3.119.589.531.589,1.062,0,7.548-2.771,8.254-2.771.119,0,.177.058.177.117,0,1.534-16.45,8.729-17.453,9.495-.237.237-1.12,1.357-1.357,1.357-.708,0-2.359-4.54-2.359-5.308,0-.531.235-.531,2.712-.708,5.6-.352,5.6-1,5.6-2.948v-11.2c0-1.357-.119-2.065-1.83-2.065a27.015,27.015,0,0,0-2.948.119c-.237,0-1.3.177-1.476.177-.235,0-.294-.119-.47-.414l-1-1.353c-.179-.237-.179-.3-.179-.416,0-.058.058-.117.179-.117.294,0,4.952.414,5.9.414,1.888,0,1.888-.768,1.888-3.953,0-1.532,0-9.495-.177-10.377s-.945-1-1.769-1c-.708,0-4.659.3-4.659.3-.235,0-.354-.058-.531-.354l-1-1.355c-.119-.235-.235-.3-.235-.414s.058-.119.177-.119c.414,0,2.063.177,2.419.177,2.475.121,4.834.237,7.251.237h1.122c2.24,0,2.475,0,2.95-.414.412-.471,2.063-2.771,2.652-2.771.354,0,4.954,3.185,4.954,3.893,0,.824-1.062.824-2.831.824H85.508a1.423,1.423,0,0,0-1.534.826c-.177.531-.177,6.014-.177,7.136v6.31c0,.294,0,1.062.824,1.062a1.99,1.99,0,0,0,1.357-.65c.354-.354,1.828-2.535,2.3-2.535.352,0,4.659,3.185,4.659,3.891,0,.885-1,.885-2.654.885Zm29.719-19.93a3.38,3.38,0,0,0,2.6-.826,6.7,6.7,0,0,1,1.711-1.3c.412,0,4.54,1.769,4.54,3.006,0,.475-.3.651-1.241,1.239a1.992,1.992,0,0,0-1,1.83c-.058.706-.175,6.131-.175,8.845,0,1.651.175,8.962.175,10.438a2.509,2.509,0,0,1-2.771,2.831c-1,0-1.062-.177-1.83-1.888-.352-.826-1.06-.826-1.769-.826h-3.832c-1.767,0-1.767.471-1.767,4.484a45.27,45.27,0,0,0,.177,5.069c.235.533.708.533,2.065.533,1.709,0,2.063-.119,2.357-.414.414-.412,2.123-2.771,2.654-2.771.356,0,5.013,3.185,5.013,3.891,0,.824-1.062.824-2.891.824h-7.607c-1.767,0-1.767.768-1.767,3.893,0,4.011,0,4.482.06,4.836.177.885,1,1.064,1.707,1.064h3.953c2.652,0,2.771,0,3.893-1.653,1.237-1.886,1.414-2.121,1.886-2.121.943,0,4.657,3.949,4.657,4.657,0,.647-.294.647-2.71.647H95.59c-1.474,0-4.186,0-6.308.119-.179.058-1.476.179-1.592.179-.177,0-.3-.121-.475-.356l-1-1.355a.752.752,0,0,1-.235-.414c0-.058.058-.117.177-.117.354,0,2.063.175,2.359.175,3.951.239,5.779.239,7.313.239h8.491c1.828,0,1.828-.887,1.828-4.188,0-5.248,0-5.6-1.886-5.6h-1.416c-2.656,0-5.308.06-6.724.177-.177,0-.943.121-1.12.121s-.3-.121-.473-.356l-1.06-1.355c-.177-.3-.235-.3-.235-.414,0-.058.117-.117.235-.117.352,0,2,.177,2.359.177,3.537.177,5.425.237,7.311.237h1.122c1.826,0,1.826-.475,1.826-4.838,0-3.714,0-4.186-.177-4.6-.354-.649-1.237-.649-1.769-.649h-3.832c-1.355,0-1.769,0-2,1.239-.294,1.946-.589,3.6-3.241,3.6-.826,0-1.122-.352-1.122-1.593,0-.589.235-3.185.235-3.714.06-1.653.3-12.384.3-13.092,0-4.836-.3-8.079-.412-9.257-.06-.354-.3-1.888-.3-2.182,0-.177,0-.354.235-.354.3,0,2.833,1.295,3.362,1.474a8.745,8.745,0,0,0,3.6.531Zm-10.967,21.816c1.828,0,1.828-.589,1.828-5.954,0-3.125,0-3.834-1.828-3.834h-4.247c-1.828,0-1.828.235-1.828,5.839,0,3.243,0,3.949,1.828,3.949Zm0-11.32c1.767,0,1.767-.531,1.767-5.129,0-3.185,0-3.774-1.767-3.774h-4.247c-1.769,0-1.769.589-1.769,3.832,0,4.834,0,5.071,1.769,5.071Zm7.548-8.9c-1.946,0-1.946.117-1.946,5.069,0,3.3,0,3.834,1.946,3.834h4.07c1.944,0,1.944-.473,1.944-4.482s0-4.422-1.944-4.422Zm0,10.436c-1.946,0-1.946.649-1.946,4.186,0,5.308,0,5.6,1.946,5.6h3.774c1.888,0,2.063-.294,2.063-6.014,0-3.064,0-3.774-1.944-3.774Z" transform="translate(0 1.87)" fill="#fff"/>
    <path id="パス_458" data-name="パス 458" d="M133.812,505.576c-7.371,9.259-23.292,17.1-25.239,17.1-.235,0-.3-.119-.3-.235s2.242-1.651,2.654-2c10.908-8.316,19.991-16.57,20.461-19.816.06-.529.237-.766.473-.766.177,0,3.008,1.476,3.539,1.711,1.709.885,1.886.943,1.886,1.474,0,.3-.119.531-.531.766-.471.237-.591.412-.591.589,0,.945,9.792,9.967,21.054,13.86.708.235,4.6,1.178,4.6,1.295,0,.06-1.769.652-2.063.768a7.2,7.2,0,0,0-3.008,2,1.166,1.166,0,0,1-.766.354c-.531,0-7.667-2.771-13.269-8.373a50.494,50.494,0,0,1-6.841-8.316c-.177-.354-.531-1-1-1.118C134.462,504.809,134.048,505.282,133.812,505.576Zm-19.106,30.193c1.239,1.769,1.474,4.48,1.474,6.545,0,6.133-2.714,7.963-4.659,7.963a2.04,2.04,0,0,1-2.123-1.888c0-.885.294-1.239,1.534-2.831a16.516,16.516,0,0,0,3.3-8.964c0-.177-.177-1.12-.058-1.237C114.294,535.357,114.469,535.415,114.706,535.769Zm24.825-12.621c2.123,0,2.6,0,3.185-.824s.708-1,1.122-1c.471,0,4.717,2.361,4.717,3.42,0,.414-.177.531-1.83,1.122-1.416.531-2.652,2.948-3.6,4.834-1.06,2.182-1.944,3.893-3.774,3.893-.824,0-2.534-.471-2.534-1.651s4.3-6.251,4.3-7.609c0-.647-.529-.647-1-.647h-10.2c-1.651,0-5.721.058-7.43.177-.177,0-1.062.119-1.239.119-.237,0-.354-.119-.531-.354l-1.178-1.357c-.235-.294-.235-.294-.235-.412s.117-.119.235-.119c.354,0,2.182.177,2.594.177,1.651.06,5.425.235,8.077.235Zm-12.263,13.741c0,.472-.119.589-1.416,1.59-.589.474-.766.887-.766,2.065,0,.649,0,4.719.058,5.013.294,2.182,2.536,2.182,5.306,2.182,11.439,0,12.384-1.711,13.564-3.774a16.37,16.37,0,0,0,1.355-3.064c0-.119.117-.475.414-.475s.294.475.294.71c0,.177,0,4.3,1.3,5.425.768.647.826.708.826,1.12,0,3.949-11.912,3.949-13.977,3.949-10.792,0-13.032-.529-13.032-7.665V536.3c0-.175-.179-1.06-.179-1.237,0-.649.414-.885,1.064-.768C123.258,534.53,127.267,535.65,127.267,536.889Zm5.483-18.989c-1.3,0-3.479,0-5.248.121-.119,0-1.239.177-1.3.177-.117,0-.235-.177-.352-.414l-.885-1.355c-.179-.237-.179-.3-.179-.414,0-.06.06-.119.179-.119.058,0,1.3.177,1.59.177,1.651.179,4.777.237,6.37.237,2.477,0,2.771,0,3.3-1.062.237-.473.943-1.653,1.592-1.653,1,0,3.891,2.833,3.891,3.6,0,.706-1,.706-2.359.706Zm1.946,17.693c3.893,2,4.3,3.3,4.3,4.717a2.167,2.167,0,0,1-2.123,2.419c-1.357,0-1.828-.945-3.185-3.774a23.963,23.963,0,0,0-3.185-4.307c-.177-.177-.177-.354-.119-.412A13.481,13.481,0,0,1,134.7,535.592Zm23.881,9.434c0,1.77-.824,3.066-2.24,3.066-1.3,0-1.534-.766-2.417-3.479a21.184,21.184,0,0,0-4.363-6.959c-.3-.352-.651-.824-.533-.943C149.084,536.651,158.578,539.012,158.578,545.026Z" transform="translate(37.082 1.099)" fill="#fff"/>
    <path id="パス_459" data-name="パス 459" d="M153.168,508.131a2.44,2.44,0,0,1,1,1.534c0,.529-.945,2.831-1,3.36-.237,2.065-.354,7.313-.354,9.79a.987.987,0,0,0,1.12,1.062c1.178,0,14.035-6.251,14.035-9.436,0-.354-.412-2-.412-2.182,0-.237.412-.237.824-.237,4.009,0,6.074,3.481,6.074,4.954,0,1.357-.885,1.534-2.6,1.888-1.355.294-6.662,2.948-7.784,3.42-1.651.706-10.377,3.832-10.673,4.009-.708.47-.708.766-.708,3.006,0,7.727,1.122,9.318,8.847,9.318a37.6,37.6,0,0,0,8.608-1.06,34.763,34.763,0,0,1,4.068-.71,2.285,2.285,0,0,1,2.361,2.065c0,4.424-11.322,4.424-14.978,4.424-12.207,0-12.5-5.25-12.5-13.623,0-2.121.177-11.381.177-13.327,0-4.836-.883-7.017-1.534-8.256a12.073,12.073,0,0,1-1-1.946c0-.354.824-.531,1.357-.531C149.746,505.654,150.633,506.066,153.168,508.131Zm33.495-.943a5.691,5.691,0,1,1-11.381.058,5.649,5.649,0,0,1,5.779-5.66A5.52,5.52,0,0,1,186.663,507.188Zm-9.436.177a3.713,3.713,0,0,0,3.834,3.6,3.673,3.673,0,0,0,3.655-3.6,3.953,3.953,0,0,0-3.774-3.774A3.837,3.837,0,0,0,177.227,507.365Z" transform="translate(75.957 2.848)" fill="#fff"/>
    <path id="パス_460" data-name="パス 460" d="M184.337,543.59c18.4-9.9,23.234-22.643,23.234-23.884,0-.706-.412-1.118-1.237-1.118-2.007,0-16.808,2.594-19.4,3.362a25.454,25.454,0,0,1-2.71,1c-2.538,0-6.724-5.073-6.724-6.724a.331.331,0,0,1,.354-.3,8.078,8.078,0,0,1,1.062.475,16.594,16.594,0,0,0,5.837,1c4.838,0,16.572-1.534,18.754-1.769.117,0,4.009-.354,4.068-.354a10.245,10.245,0,0,1,1.711-.647c1,0,5.19,3.479,5.19,4.834,0,.887-.235,1.122-1.593,2.24-1,.828-1.592,1.711-3.185,4.188-4.659,7.076-8.314,11.5-16.631,15.746a41.724,41.724,0,0,1-10.436,3.832.47.47,0,0,1-.531-.472.617.617,0,0,1,.119-.352C182.333,544.535,183.986,543.767,184.337,543.59Zm1.476-38.564a14.522,14.522,0,0,0,3.125.235,56.4,56.4,0,0,0,9.434-.649c.885-.177,4.954-1.178,5.779-1.178,1,0,3.6.529,3.6,2.24,0,1.828-2.063,2-5.485,2.3-.941.119-13.621,1.241-14.033,1.241-3.127,0-4.9-4.011-4.9-4.426,0-.294.119-.412.356-.412C184.044,504.375,185.457,504.966,185.813,505.027Z" transform="translate(107.044 4.716)" fill="#fff"/>
    <path id="パス_461" data-name="パス 461" d="M232.333,545.334c-1.418,0-1.769-.354-4.9-3.833-3.832-4.188-9.73-7.548-15.39-9.611-1.357-.474-1.476-.533-1.476-.828,0-.529.824-.529,1.064-.529,5.542,0,23.467,4.834,23.467,11.912A2.772,2.772,0,0,1,232.333,545.334Zm-3.716-23.117a2.358,2.358,0,0,1-2.065,2.3c-1.3,0-1.767-.356-5.66-3.3-1.474-1.122-2.889-1.888-8.552-3.893-.354-.117-.706-.235-.706-.589,0-.531.352-.531,3.774-.473C218.3,516.26,228.617,517.264,228.617,522.216Zm-11.381-19.164c5.481,0,16.273,1.416,16.273,7.194a1.945,1.945,0,0,1-1.767,2.063c-.708,0-2.065-.941-4.363-2.534-3.481-2.419-3.893-2.6-11.206-5.367-1.3-.531-1.355-.531-1.355-.943C214.818,503.229,215.761,503.052,217.237,503.052Z" transform="translate(140.473 4.33)" fill="#fff"/>
    <path id="パス_462" data-name="パス 462" d="M245.111,522.366a2.143,2.143,0,0,1-2,2.242c-1.295,0-1.709-1.357-2.121-2.654A21.1,21.1,0,0,0,237.563,516c-.294-.414-.412-.591-.412-.768,0-.352.354-.529.768-.529C239.333,514.7,245.111,517.649,245.111,522.366Zm18.223-12.149a3.677,3.677,0,0,1-.119-.529.4.4,0,0,1,.412-.412,13.127,13.127,0,0,1,2.656,1.474c.941.47,3.3,1.886,3.3,3.6,0,.471-.235.531-1.237,1.12-.47.294-2.538,4.3-3.008,5.071-9.022,14.978-23.528,20.817-24,20.817a.38.38,0,0,1-.352-.354c0-.3,2.773-2.065,3.3-2.479,12.561-9.611,19.46-20.7,19.46-25.768A6.013,6.013,0,0,0,263.335,510.217Zm-9.2,5.721c0,1.711-.943,3.008-2,3.008-1.3,0-1.592-1.474-1.769-2.475-.412-1.888-.589-2.419-2.182-5.6a6.7,6.7,0,0,1-.649-1.3c0-.177.3-.354.589-.294C250.892,509.688,254.136,512.636,254.136,515.938Z" transform="translate(167.338 10.609)" fill="#fff"/>
    <path id="パス_463" data-name="パス 463" d="M270.642,503.209c2.125,0,6.37,1.886,6.37,3.774,0,.414-.589,2.123-.65,2.477a75.91,75.91,0,0,0-.589,8.256c0,1.239.3,1.474,1.946,1.828,3.774.885,12.8,5.19,12.8,9.553a2.062,2.062,0,0,1-2.182,2.063c-1.416,0-1.474-.117-5.544-5.367-1.651-2.121-4.422-4.953-6.249-4.953-.649,0-.826,0-.826,4.363,0,6.251.058,9.376.294,14.685.06.647.119,2.123.119,3.008,0,1.414,0,5.365-1.711,5.365-1.828,0-3.3-4.009-3.3-5.544,0-.235.235-1.472.235-1.709.708-5.306.531-6.428.531-13.681,0-17.455,0-18.752-.708-20.64a6.559,6.559,0,0,0-2.063-2.71.442.442,0,0,1-.119-.237C269.112,503.267,270.583,503.209,270.642,503.209Zm24.829,10.084c0,.766-.649,2.242-1.828,2.242-.885,0-1.416-.589-2.95-2.831-1-1.474-1.651-2.007-3.832-3.834-.235-.177-.824-.706-.824-.943,0-.294.529-.412,1.06-.412C291.282,507.514,295.47,510.639,295.47,513.293Zm4.776-6.722c0,.649-.471,1.769-1.534,1.769-1.295,0-2-.943-3.064-2.3a14.9,14.9,0,0,0-5.071-3.362c-.589-.235-.766-.531-.766-.647,0-.354.706-.71,2.24-.71C296.295,501.321,300.246,503.682,300.246,506.571Z" transform="translate(199.522 2.58)" fill="#fff"/>
    <path id="パス_464" data-name="パス 464" d="M310.294,508.015a9.223,9.223,0,1,1-9.221-9.247A9.238,9.238,0,0,1,310.294,508.015Zm-17.821,0a8.6,8.6,0,1,0,8.6-8.622A8.6,8.6,0,0,0,292.473,508.015Zm8.55-5.708c.8,0,4.335.1,4.335,2.7a3.1,3.1,0,0,1-2.1,2.745c-.529.265-.6.292-.6.459a27.453,27.453,0,0,0,1.613,3.758,1.982,1.982,0,0,0,1.854,1.253c.169,0,.458,0,.458.239s-.458.241-.529.241h-1.88c-.481,0-.649-.191-2.023-3.42-.6-1.4-.939-2.141-1.54-2.141h-.869a.374.374,0,0,0-.384.36c-.026.193-.026,2-.026,2.336,0,1.974,0,2.385,1.422,2.385.121,0,.338,0,.338.239s-.288.241-.456.241h-3.855c-.145,0-.386-.022-.386-.241,0-.239.217-.239.434-.239.239,0,.987,0,1.18-.6.143-.384.143-5.25.143-6.046,0-3.563,0-3.756-1.371-3.756-.121,0-.434,0-.434-.265,0-.241.289-.241.483-.241Zm-.553.507c-1.134,0-1.134.7-1.134,2.336,0,2.24,0,2.481.41,2.481h1.277c1.518,0,2.841-.842,2.841-2.481,0-1.108-.625-2.336-2.624-2.336Z" transform="translate(222.622)" fill="#fff"/>
    <path id="パス_465" data-name="パス 465" d="M313.53,529.481c1.769-1.653,2.538-2.417,2.538-3.183a14.843,14.843,0,0,0-.531-1.83,18.959,18.959,0,0,1-1-6.9c0-1.357.3-8.2.3-9.73,0-2.95-.824-3.833-1.769-4.777-1.237-1.3-1.416-1.472-1.416-1.651,0-.235,1.416-.3,1.592-.3,3.362,0,6.37,2.714,6.37,4.424,0,.531-.71,3.183-.826,3.774a55.269,55.269,0,0,0-.531,7.784c0,2.242,0,7.018,1.534,7.018.824,0,1.178-.235,4.363-2.242.647-.412,4.363-2.769,6.072-2.769a2.261,2.261,0,0,1,2.24,2.18c0,1.769-2.417,2.713-4.538,3.539-14.035,5.662-16.04,9.965-16.04,13.8,0,4.009,3.418,5.483,8.2,5.483a26.347,26.347,0,0,0,7.078-1.062,16.022,16.022,0,0,1,4.422-.885c2,0,3.891,1.357,3.891,2.831,0,3.008-12.028,3.3-15.155,3.3-2.71,0-11.262,0-11.262-9.258A13.363,13.363,0,0,1,313.53,529.481Z" transform="translate(240.009 2.373)" fill="#fff"/>
    <path id="パス_466" data-name="パス 466" d="M344.163,544.011c0,1.3-.589,2.419-1.946,2.419-2.948,0-5.9-5.9-5.9-15.036a45.02,45.02,0,0,1,1.534-11.558c1.651-7.255,1.769-7.548,1.769-9.376a8.354,8.354,0,0,0-1.357-4.9,11.839,11.839,0,0,1-1.12-2.063c0-.354.708-.473,1.062-.473,3.3,0,6.249,5.9,6.249,6.957,0,.474-2.594,7.727-3.064,9.2a39.359,39.359,0,0,0-2.123,11.853c0,.354,0,4.128,1.414,4.128.533,0,.591-.235,1.653-3.481.237-.766,2-5.9,2.419-5.9.235,0,.235.412.235.529,0,1.888-1.651,10.381-1.651,12.091C343.338,539.3,344.163,543.187,344.163,544.011Zm23.411-3.3a9.727,9.727,0,0,1-8.787,5.6c-3.951,0-7.371-2.419-7.371-5.9,0-.826,0-7.076,12.091-7.253,1.472,0,1.472-.414,1.472-4.07,0-.354-.177-6.605-.235-8.256a1.965,1.965,0,0,0-.47-1.416,19.45,19.45,0,0,0-2.712-.119c-6.664,0-8.729-4.657-8.729-5.246,0-.179.06-.414.3-.414a10.2,10.2,0,0,1,1.592.826,17.679,17.679,0,0,0,6.6,1.178c3.243,0,3.243,0,3.243-3.893,0-3.714,0-5.365-1.118-6.722-.239-.294-1.83-1.592-1.83-2,0-.352.766-1,2-1,1.178,0,5.129.829,5.129,3.068,0,.412-.058.529-.647,1.474a2.557,2.557,0,0,0-.354,1.237c0,1.769,3.066,1.888,3.42,1.888,2.594.117,4.54.177,4.54,2.654,0,2.771-3.951,4.482-6.133,5.425s-2.182,1-2.182,3.537c0,1.3.412,7.963.589,9.555.237,2.182.412,2.594,1.888,3.241,2.889,1.241,9.081,4.011,9.081,7.49a2.318,2.318,0,0,1-2.121,2.359c-.71,0-.887-.235-2.3-2-1.707-2.063-4.775-4.54-5.837-4.009C368.282,538.116,367.751,540.3,367.574,540.711Zm-13.8-.768c0,1.592,1.828,2.6,3.895,2.6,3.477,0,7.074-2.831,7.074-4.836,0-1-.824-1.476-4.6-1.476C356.782,536.227,353.774,538.232,353.774,539.943ZM367.4,512.052c0,2.24.472,2.24.885,2.24.826,0,3.066-.71,3.066-2.063,0-1.064-1.946-1.83-2.773-1.83a1.252,1.252,0,0,0-.706.237A1.787,1.787,0,0,0,367.4,512.052Z" transform="translate(267.571 3.292)" fill="#fff"/>
    <path id="パス_467" data-name="パス 467" d="M381.6,504.766c-1.769,0-4.009.708-4.009,2.477,0,.294.119.826.119,1.12a2.932,2.932,0,0,1-2.95,3.243,3.109,3.109,0,0,1-3.241-3.3c0-3.3,3.833-5.9,8.725-5.9A10.683,10.683,0,0,1,391.33,513.2a9.969,9.969,0,0,1-8.964,10.321c-2.3.235-2.594.3-2.594,2.242v6.6c0,.354,0,1.355-1,1.355s-1-.941-1-1.355v-11.97c0-1.3.47-1.357,2.771-1.534,6.312-.531,7.665-4.422,7.665-7.253A6.539,6.539,0,0,0,381.6,504.766Zm-5.483,39.686a3.184,3.184,0,1,1,6.368,0,3.184,3.184,0,1,1-6.368,0Z" transform="translate(303.147 3.678)" fill="#fff"/>
  </g>
</svg>
