<svg id="グループ_5787" data-name="グループ 5787" xmlns="http://www.w3.org/2000/svg" width="313.147" height="27.128" viewBox="0 0 313.147 27.128">
  <path id="パス_457" data-name="パス 457" d="M78.617,511.705c-.89,0-.919.029-.919,3.291,0,.178.029,2.994.029,3.468.029.148.06.3.267.3.534,0,3.795-1.393,4.15-1.393.06,0,.089.029.089.059,0,.771-8.27,4.388-8.774,4.773-.119.119-.563.682-.682.682-.356,0-1.186-2.282-1.186-2.669,0-.267.118-.267,1.364-.356,2.817-.177,2.817-.5,2.817-1.482v-5.633c0-.682-.06-1.038-.92-1.038a13.583,13.583,0,0,0-1.482.06c-.119,0-.653.089-.742.089-.118,0-.148-.06-.237-.208l-.5-.68c-.09-.119-.09-.15-.09-.209,0-.029.029-.059.09-.059.148,0,2.49.208,2.964.208.949,0,.949-.386.949-1.987,0-.77,0-4.773-.089-5.217s-.475-.5-.89-.5c-.356,0-2.342.149-2.342.149-.118,0-.178-.029-.267-.178l-.5-.681c-.06-.118-.118-.149-.118-.208s.029-.06.089-.06c.208,0,1.037.089,1.216.089,1.244.061,2.43.119,3.645.119H77.1c1.126,0,1.244,0,1.483-.208.207-.237,1.037-1.393,1.333-1.393.178,0,2.491,1.6,2.491,1.957,0,.414-.534.414-1.423.414h-2.4a.715.715,0,0,0-.771.415c-.089.267-.089,3.024-.089,3.588v3.172c0,.148,0,.534.414.534a1,1,0,0,0,.682-.327c.178-.178.919-1.275,1.156-1.275.177,0,2.342,1.6,2.342,1.956,0,.445-.5.445-1.334.445Zm14.941-10.02a1.7,1.7,0,0,0,1.305-.415,3.37,3.37,0,0,1,.86-.652c.207,0,2.283.889,2.283,1.511,0,.239-.149.327-.624.623a1,1,0,0,0-.5.92c-.029.355-.088,3.082-.088,4.447,0,.83.088,4.505.088,5.247a1.261,1.261,0,0,1-1.393,1.423c-.5,0-.534-.089-.92-.949-.177-.415-.533-.415-.89-.415H91.749c-.889,0-.889.237-.889,2.254a22.759,22.759,0,0,0,.089,2.548c.118.268.356.268,1.038.268.859,0,1.037-.06,1.185-.208.208-.207,1.067-1.393,1.334-1.393.179,0,2.52,1.6,2.52,1.956,0,.415-.534.415-1.454.415H91.749c-.889,0-.889.386-.889,1.957,0,2.017,0,2.253.03,2.431.089.445.5.535.858.535h1.987c1.333,0,1.393,0,1.957-.831.622-.948.711-1.066.948-1.066.474,0,2.341,1.985,2.341,2.341,0,.325-.148.325-1.363.325H83.656c-.741,0-2.1,0-3.171.06-.09.029-.742.09-.8.09-.089,0-.149-.061-.239-.179l-.5-.681a.378.378,0,0,1-.118-.208c0-.029.029-.059.089-.059.178,0,1.037.088,1.186.088,1.986.12,2.905.12,3.677.12h4.269c.919,0,.919-.446.919-2.106,0-2.638,0-2.817-.948-2.817H87.3c-1.335,0-2.669.03-3.38.089-.089,0-.474.061-.563.061s-.149-.061-.238-.179l-.533-.681c-.089-.148-.118-.148-.118-.208,0-.029.059-.059.118-.059.177,0,1.008.089,1.186.089,1.778.089,2.727.119,3.676.119h.564c.918,0,.918-.239.918-2.432a8.37,8.37,0,0,0-.089-2.312c-.178-.327-.622-.327-.89-.327H86.027c-.681,0-.89,0-1.008.623-.148.978-.3,1.808-1.63,1.808-.415,0-.564-.177-.564-.8,0-.3.118-1.6.118-1.867.03-.831.149-6.226.149-6.582,0-2.431-.149-4.062-.207-4.654-.03-.178-.149-.949-.149-1.1,0-.089,0-.178.118-.178.149,0,1.424.651,1.69.741a4.4,4.4,0,0,0,1.808.267Zm-5.513,10.968c.919,0,.919-.3.919-2.993,0-1.571,0-1.928-.919-1.928H85.909c-.919,0-.919.118-.919,2.936,0,1.63,0,1.985.919,1.985Zm0-5.691c.889,0,.889-.267.889-2.579,0-1.6,0-1.9-.889-1.9H85.909c-.89,0-.89.3-.89,1.927,0,2.43,0,2.549.89,2.549Zm3.795-4.476c-.979,0-.979.059-.979,2.548,0,1.661,0,1.928.979,1.928h2.046c.978,0,.978-.238.978-2.253s0-2.223-.978-2.223Zm0,5.246c-.979,0-.979.326-.979,2.1,0,2.669,0,2.816.979,2.816h1.9c.949,0,1.037-.148,1.037-3.023,0-1.54,0-1.9-.978-1.9Z" transform="translate(-71.59 -498.748)" fill="#fff"/>
  <path id="パス_458" data-name="パス 458" d="M121.115,502.731c-3.706,4.655-11.71,8.6-12.688,8.6-.118,0-.149-.06-.149-.118s1.127-.83,1.334-1.008c5.484-4.181,10.05-8.331,10.287-9.962.03-.266.119-.385.238-.385.089,0,1.512.742,1.779.86.859.445.948.474.948.741,0,.149-.06.267-.267.385-.237.119-.3.207-.3.3,0,.475,4.923,5.011,10.585,6.968.356.118,2.312.592,2.312.651,0,.03-.89.328-1.037.386a3.621,3.621,0,0,0-1.512,1.008.586.586,0,0,1-.385.178,18.092,18.092,0,0,1-6.671-4.209,25.387,25.387,0,0,1-3.439-4.181c-.089-.178-.267-.5-.5-.562C121.441,502.346,121.233,502.583,121.115,502.731ZM111.51,517.91a6.043,6.043,0,0,1,.741,3.29c0,3.083-1.365,4-2.342,4a1.026,1.026,0,0,1-1.067-.949c0-.445.148-.623.771-1.423a8.3,8.3,0,0,0,1.66-4.506c0-.089-.089-.563-.029-.622C111.3,517.7,111.39,517.732,111.51,517.91Zm12.48-6.345c1.067,0,1.305,0,1.6-.414s.356-.5.564-.5c.237,0,2.371,1.187,2.371,1.72,0,.208-.089.267-.92.564-.712.267-1.333,1.482-1.808,2.43-.533,1.1-.978,1.957-1.9,1.957-.414,0-1.274-.237-1.274-.83s2.163-3.143,2.163-3.825c0-.325-.266-.325-.5-.325h-5.129c-.83,0-2.876.029-3.735.089-.089,0-.534.06-.623.06-.119,0-.178-.06-.267-.178l-.592-.682c-.118-.148-.118-.148-.118-.207s.059-.06.118-.06c.178,0,1.1.089,1.3.089.83.03,2.727.118,4.061.118Zm-6.165,6.908c0,.238-.06.3-.712.8-.3.239-.385.446-.385,1.038,0,.326,0,2.372.029,2.52.148,1.1,1.275,1.1,2.668,1.1,5.751,0,6.226-.86,6.819-1.9a8.229,8.229,0,0,0,.681-1.541c0-.06.059-.239.208-.239s.148.239.148.357c0,.089,0,2.163.652,2.727.386.326.415.356.415.563,0,1.985-5.988,1.985-7.027,1.985-5.425,0-6.551-.266-6.551-3.853v-3.854c0-.088-.09-.533-.09-.622,0-.326.208-.445.535-.386C115.809,517.287,117.825,517.85,117.825,518.473Zm2.757-9.547c-.652,0-1.749,0-2.638.061-.06,0-.623.089-.653.089-.059,0-.118-.089-.177-.208l-.445-.681c-.09-.119-.09-.149-.09-.208,0-.03.03-.06.09-.06.029,0,.652.089.8.089.83.09,2.4.119,3.2.119,1.245,0,1.393,0,1.66-.534.119-.238.474-.831.8-.831a3.9,3.9,0,0,1,1.956,1.809c0,.355-.5.355-1.186.355Zm.979,8.895c1.957,1.008,2.164,1.661,2.164,2.371a1.09,1.09,0,0,1-1.067,1.216c-.682,0-.919-.475-1.6-1.9a12.046,12.046,0,0,0-1.6-2.165c-.089-.089-.089-.178-.06-.207A6.775,6.775,0,0,1,121.56,517.821Zm12.006,4.743c0,.89-.414,1.542-1.126,1.542-.653,0-.771-.385-1.215-1.749a10.649,10.649,0,0,0-2.194-3.5c-.15-.177-.328-.415-.268-.474C128.792,518.354,133.566,519.541,133.566,522.564Z" transform="translate(-71.191 -498.756)" fill="#fff"/>
  <path id="パス_459" data-name="パス 459" d="M149.972,504.876a1.227,1.227,0,0,1,.5.771c0,.266-.475,1.423-.5,1.689-.119,1.038-.178,3.677-.178,4.922a.5.5,0,0,0,.563.534c.592,0,7.056-3.143,7.056-4.744,0-.178-.207-1.008-.207-1.1,0-.119.207-.119.414-.119a3.054,3.054,0,0,1,3.054,2.491c0,.682-.445.771-1.3.949-.681.148-3.349,1.482-3.913,1.72-.83.355-5.217,1.927-5.366,2.016-.356.237-.356.385-.356,1.511,0,3.885.564,4.684,4.448,4.684a18.9,18.9,0,0,0,4.328-.533,17.5,17.5,0,0,1,2.045-.357,1.149,1.149,0,0,1,1.187,1.038c0,2.224-5.692,2.224-7.53,2.224-6.137,0-6.286-2.639-6.286-6.849,0-1.066.089-5.722.089-6.7a8.4,8.4,0,0,0-.771-4.151,6.067,6.067,0,0,1-.5-.978c0-.178.414-.267.682-.267C148.251,503.631,148.7,503.838,149.972,504.876Zm16.839-.474a2.861,2.861,0,1,1-5.721.029,2.84,2.84,0,0,1,2.905-2.846A2.775,2.775,0,0,1,166.811,504.4Zm-4.744.089a1.867,1.867,0,0,0,1.928,1.808,1.847,1.847,0,0,0,1.838-1.808,1.987,1.987,0,0,0-1.9-1.9A1.929,1.929,0,0,0,162.067,504.491Z" transform="translate(-70.773 -498.737)" fill="#fff"/>
  <path id="パス_460" data-name="パス 460" d="M180.936,523.622c9.25-4.979,11.681-11.383,11.681-12.007,0-.355-.207-.562-.622-.562-1.009,0-8.45,1.3-9.755,1.69a12.779,12.779,0,0,1-1.363.5c-1.276,0-3.38-2.55-3.38-3.38a.166.166,0,0,1,.178-.149,4.053,4.053,0,0,1,.534.239,8.344,8.344,0,0,0,2.935.5c2.432,0,8.332-.771,9.428-.89.059,0,2.016-.178,2.045-.178a5.149,5.149,0,0,1,.86-.326c.5,0,2.609,1.749,2.609,2.43,0,.446-.118.564-.8,1.126a8.331,8.331,0,0,0-1.6,2.106c-2.342,3.557-4.18,5.781-8.361,7.916a20.977,20.977,0,0,1-5.246,1.927.236.236,0,0,1-.267-.237.31.31,0,0,1,.06-.177C179.928,524.1,180.759,523.711,180.936,523.622Zm.742-19.387a7.3,7.3,0,0,0,1.571.118,28.351,28.351,0,0,0,4.743-.327c.445-.089,2.491-.592,2.905-.592.5,0,1.808.266,1.808,1.126,0,.919-1.037,1.008-2.758,1.155-.473.06-6.848.624-7.055.624-1.572,0-2.461-2.017-2.461-2.225,0-.148.06-.207.179-.207C180.788,503.907,181.5,504.2,181.678,504.235Z" transform="translate(-70.439 -498.717)" fill="#fff"/>
  <path id="パス_461" data-name="パス 461" d="M221.512,524.308c-.713,0-.89-.178-2.462-1.927a20.167,20.167,0,0,0-7.737-4.832c-.682-.238-.742-.268-.742-.416,0-.266.414-.266.535-.266,2.786,0,11.8,2.43,11.8,5.988A1.394,1.394,0,0,1,221.512,524.308Zm-1.868-11.622a1.186,1.186,0,0,1-1.038,1.158c-.652,0-.889-.179-2.846-1.661-.741-.564-1.453-.949-4.3-1.957-.178-.059-.355-.118-.355-.3,0-.267.177-.267,1.9-.238C214.455,509.692,219.644,510.2,219.644,512.687Zm-5.721-9.634c2.756,0,8.181.712,8.181,3.617a.978.978,0,0,1-.889,1.037,6.669,6.669,0,0,1-2.194-1.274c-1.75-1.216-1.957-1.3-5.634-2.7-.652-.267-.681-.267-.681-.474C212.706,503.141,213.18,503.052,213.922,503.052Z" transform="translate(-70.08 -498.722)" fill="#fff"/>
  <path id="パス_462" data-name="パス 462" d="M241.153,515.851a1.077,1.077,0,0,1-1.008,1.127c-.651,0-.859-.682-1.066-1.334a10.608,10.608,0,0,0-1.72-2.994c-.148-.208-.207-.3-.207-.386,0-.177.178-.266.386-.266C238.248,512,241.153,513.479,241.153,515.851Zm9.161-6.108a1.851,1.851,0,0,1-.06-.266.2.2,0,0,1,.207-.207,6.6,6.6,0,0,1,1.335.741c.473.237,1.659.948,1.659,1.808,0,.236-.118.267-.622.563a24.139,24.139,0,0,0-1.512,2.549A25.956,25.956,0,0,1,239.256,525.4a.191.191,0,0,1-.177-.178,12.753,12.753,0,0,1,1.66-1.246c6.315-4.832,9.783-10.406,9.783-12.954A3.022,3.022,0,0,0,250.314,509.743Zm-4.625,2.876c0,.86-.474,1.512-1.008,1.512-.652,0-.8-.741-.89-1.244a9.279,9.279,0,0,0-1.1-2.816,3.367,3.367,0,0,1-.327-.653c0-.089.149-.178.3-.148A3.755,3.755,0,0,1,245.69,512.619Z" transform="translate(-69.791 -498.654)" fill="#fff"/>
  <path id="パス_463" data-name="パス 463" d="M269.822,502.27c1.069,0,3.2.948,3.2,1.9,0,.208-.3,1.068-.327,1.245a38.154,38.154,0,0,0-.3,4.151c0,.623.149.741.979.919,1.9.445,6.433,2.609,6.433,4.8a1.037,1.037,0,0,1-1.1,1.037c-.712,0-.741-.059-2.787-2.7-.83-1.067-2.223-2.49-3.142-2.49-.327,0-.415,0-.415,2.194,0,3.143.029,4.714.148,7.382.03.326.06,1.067.06,1.512,0,.711,0,2.7-.86,2.7-.919,0-1.659-2.016-1.659-2.787,0-.118.118-.74.118-.859a39.764,39.764,0,0,0,.267-6.878c0-8.775,0-9.427-.356-10.377a3.3,3.3,0,0,0-1.037-1.363.221.221,0,0,1-.06-.119C269.053,502.3,269.793,502.27,269.822,502.27Zm12.482,5.07c0,.385-.327,1.127-.919,1.127-.445,0-.712-.3-1.483-1.423a8.3,8.3,0,0,0-1.927-1.928c-.118-.089-.415-.355-.415-.474,0-.147.266-.207.533-.207C280.2,504.434,282.3,506.005,282.3,507.34Zm2.4-3.379c0,.326-.237.89-.771.89-.651,0-1.008-.474-1.541-1.157a7.492,7.492,0,0,0-2.549-1.69c-.3-.118-.385-.267-.385-.326,0-.178.355-.357,1.126-.357C282.719,501.321,284.7,502.508,284.7,503.96Z" transform="translate(-69.445 -498.74)" fill="#fff"/>
  <path id="パス_464" data-name="パス 464" d="M301.122,503.417a4.637,4.637,0,1,1-4.636-4.649A4.644,4.644,0,0,1,301.122,503.417Zm-8.959,0a4.322,4.322,0,1,0,4.323-4.335A4.326,4.326,0,0,0,292.162,503.417Zm4.3-2.87c.4,0,2.179.048,2.179,1.357a1.557,1.557,0,0,1-1.053,1.38c-.266.133-.3.147-.3.231a13.8,13.8,0,0,0,.811,1.889,1,1,0,0,0,.932.63c.085,0,.23,0,.23.12s-.23.121-.266.121h-.945c-.242,0-.327-.1-1.017-1.719-.3-.7-.472-1.077-.774-1.077h-.437a.188.188,0,0,0-.193.181c-.013.1-.013,1.006-.013,1.175,0,.993,0,1.2.715,1.2.061,0,.17,0,.17.12s-.145.121-.229.121H294.33c-.073,0-.194-.011-.194-.121s.109-.12.218-.12.5,0,.593-.3c.072-.193.072-2.639.072-3.04,0-1.791,0-1.888-.689-1.888-.061,0-.218,0-.218-.134s.146-.121.243-.121Zm-.278.255c-.57,0-.57.352-.57,1.175,0,1.126,0,1.247.206,1.247h.642a1.278,1.278,0,0,0,1.428-1.247,1.146,1.146,0,0,0-1.319-1.175Z" transform="translate(-69.197 -498.768)" fill="#fff"/>
  <path id="パス_465" data-name="パス 465" d="M311.3,515.376c.89-.831,1.276-1.215,1.276-1.6a7.464,7.464,0,0,0-.267-.92,9.53,9.53,0,0,1-.5-3.468c0-.682.149-4.12.149-4.892a2.77,2.77,0,0,0-.89-2.4c-.622-.652-.712-.74-.712-.83,0-.118.712-.149.8-.149,1.69,0,3.2,1.365,3.2,2.224,0,.267-.357,1.6-.415,1.9a27.794,27.794,0,0,0-.267,3.913c0,1.127,0,3.528.771,3.528.414,0,.592-.118,2.194-1.127a9.157,9.157,0,0,1,3.053-1.392,1.137,1.137,0,0,1,1.126,1.1c0,.89-1.215,1.364-2.281,1.779-7.056,2.847-8.064,5.01-8.064,6.938,0,2.016,1.719,2.757,4.12,2.757a13.247,13.247,0,0,0,3.558-.534,8.054,8.054,0,0,1,2.223-.445c1.008,0,1.956.682,1.956,1.423,0,1.512-6.047,1.66-7.619,1.66-1.363,0-5.662,0-5.662-4.654A6.718,6.718,0,0,1,311.3,515.376Z" transform="translate(-69.01 -498.742)" fill="#fff"/>
  <path id="パス_466" data-name="パス 466" d="M340.262,523.133c0,.653-.3,1.216-.979,1.216-1.482,0-2.965-2.964-2.965-7.559a22.634,22.634,0,0,1,.771-5.81c.83-3.647.89-3.795.89-4.714a4.2,4.2,0,0,0-.682-2.461,5.94,5.94,0,0,1-.563-1.037c0-.178.356-.237.534-.237,1.66,0,3.142,2.965,3.142,3.5,0,.239-1.3,3.885-1.541,4.626a19.786,19.786,0,0,0-1.068,5.959c0,.178,0,2.075.711,2.075.268,0,.3-.118.831-1.75a14.927,14.927,0,0,1,1.216-2.964c.118,0,.118.207.118.266,0,.949-.83,5.219-.83,6.078C339.848,520.762,340.262,522.718,340.262,523.133Zm11.77-1.659a4.89,4.89,0,0,1-4.417,2.816c-1.986,0-3.706-1.216-3.706-2.965,0-.415,0-3.557,6.078-3.646.74,0,.74-.208.74-2.046,0-.178-.089-3.321-.118-4.151a.988.988,0,0,0-.237-.712,9.776,9.776,0,0,0-1.364-.06c-3.35,0-4.388-2.341-4.388-2.637,0-.09.03-.208.149-.208a5.13,5.13,0,0,1,.8.415,8.889,8.889,0,0,0,3.32.592c1.631,0,1.631,0,1.631-1.957,0-1.867,0-2.7-.562-3.379-.12-.148-.92-.8-.92-1.008,0-.177.385-.5,1.008-.5.592,0,2.579.417,2.579,1.543,0,.207-.029.266-.326.741a1.286,1.286,0,0,0-.178.622c0,.89,1.542.949,1.719.949,1.3.059,2.283.089,2.283,1.334,0,1.393-1.986,2.253-3.083,2.727s-1.1.5-1.1,1.778c0,.653.207,4,.3,4.8.119,1.1.207,1.3.949,1.629,1.453.624,4.565,2.017,4.565,3.766a1.166,1.166,0,0,1-1.066,1.186c-.357,0-.446-.118-1.157-1.008-.858-1.037-2.4-2.283-2.935-2.016C352.388,520.169,352.121,521.266,352.032,521.474Zm-6.938-.386c0,.8.919,1.305,1.958,1.305,1.748,0,3.556-1.423,3.556-2.431,0-.5-.414-.742-2.312-.742C346.607,519.22,345.094,520.228,345.094,521.088Zm6.849-14.022c0,1.126.238,1.126.445,1.126.415,0,1.542-.357,1.542-1.037,0-.535-.979-.92-1.394-.92a.629.629,0,0,0-.355.119A.9.9,0,0,0,351.943,507.066Z" transform="translate(-68.714 -498.732)" fill="#fff"/>
  <path id="パス_467" data-name="パス 467" d="M376.586,503.593c-.889,0-2.016.356-2.016,1.245,0,.148.06.415.06.563a1.474,1.474,0,0,1-1.483,1.631,1.563,1.563,0,0,1-1.629-1.66c0-1.661,1.927-2.965,4.386-2.965a5.37,5.37,0,0,1,5.574,5.424,5.012,5.012,0,0,1-4.506,5.189c-1.155.118-1.3.149-1.3,1.127v3.32c0,.178,0,.681-.5.681s-.5-.473-.5-.681v-6.018c0-.653.236-.682,1.393-.771,3.173-.267,3.853-2.223,3.853-3.646A3.288,3.288,0,0,0,376.586,503.593Zm-2.757,19.952a1.6,1.6,0,1,1,3.2,0,1.6,1.6,0,1,1-3.2,0Z" transform="translate(-68.331 -498.728)" fill="#fff"/>
</svg>
