<svg xmlns="http://www.w3.org/2000/svg" width="64.772" height="38.881" viewBox="0 0 64.772 38.881">
  <path id="パス_7876" data-name="パス 7876" d="M328.012,44.231V37.063a.962.962,0,0,0-.962-.962h-2.432a.962.962,0,0,1-.68-1.642l17.748-17.748a3.765,3.765,0,0,1,5.1-.2l19.372,16.5a.962.962,0,0,1-.623,1.694h-2.523a.962.962,0,0,0-.962.962v8.565c7.286-1.075,11.047-4.5,12.844-7.419s2.414-.056.73,4.435S368.216,50.4,362.1,52.363s-22.665,2.909-32.755,1.334a23.171,23.171,0,0,1-16.333-11.725c-1.907-3.695-1.572-6.681,1.74-3.2S320.744,43.754,328.012,44.231Z" transform="translate(-311.843 -15.609)" fill="#980e1a"/>
</svg>
