<svg xmlns="http://www.w3.org/2000/svg" width="112.038" height="111.667" viewBox="0 0 112.038 111.667">
  <g id="グループ_2500" data-name="グループ 2500" transform="translate(-149.081 -571.104)">
    <g id="グループ_1979" data-name="グループ 1979" transform="translate(149.081 571.104)">
      <path id="パス_2955" data-name="パス 2955" d="M-851.154,287.219l-10.434,10.994,12.128,9.612-13.785,6.456,7.922,13.372-15.271,1.013,2.641,15.357-14.69-4.6-3,15.3-12.121-9.622-8.241,13.211-7.911-13.378-12.372,9.369-2.629-15.359-14.837,4.294,3.013-15.3-15.3-1.329,8.251-13.2-13.7-6.74,12.38-9.359L-959.376,286.1l14.84-4.282-5.433-14.13,15.3,1.341.123-15.112,13.7,6.751,5.658-14.02,10.25,11.216,10.425-11L-889.093,261l13.78-6.467-.135,15.112,15.27-1.025-5.669,14.016Z" transform="translate(961.497 -246.647)" fill="#980e1a"/>
    </g>
    <path id="パス_12491" data-name="パス 12491" d="M7.788-15.928v1.122H4.334v-1.122ZM4.334-11.9v-1.21H7.788v1.21Zm5.918,1.892V-17.8H1.782V1.914H4.334V-10.01ZM9.9-5.17V-6.82h2.046v1.65Zm6.754,2.134V-5.17h-2.42V-6.82H16.3V-8.888H5.676V-6.82h2v1.65H5.368v2.134H7.59A5.155,5.155,0,0,1,5.346.4a9.9,9.9,0,0,1,1.672,1.5A7.166,7.166,0,0,0,9.834-3.036h2.112V1.5h2.288V-3.036ZM14.19-11.858v-1.254h3.564v1.254Zm3.564-4.07v1.122H14.19v-1.122Zm2.574-1.87H11.7v7.832h6.05v8.8c0,.308-.11.44-.462.44-.33.022-1.408.022-2.4-.022a9.3,9.3,0,0,1,.792,2.6,7.82,7.82,0,0,0,3.608-.506C20.086.924,20.328.2,20.328-1.144ZM33.2-2.376H35.97V-.968H33.2Zm-.858-10.67h4.466a16.577,16.577,0,0,1-.638,2.156H33.352a15.665,15.665,0,0,0,.77-1.628Zm3.63,5.5H33.2v-1.32H35.97Zm0,3.278H33.2V-5.632H35.97Zm7.216,3.3h-4.73V-2.376h3.872V-4.268H38.456V-5.632h3.872V-7.546H38.456v-1.32h4.466V-10.89H38.7l.814-1.584L37-13.046h5.72v-4.818H40.216v2.618H37.532V-18.5h-2.6v3.256H32.45v-2.618h-2.4v4.818H31.57a14.21,14.21,0,0,1-3.938,5.368v-5.566a35.064,35.064,0,0,0,2.112-4.532l-2.486-.792a23.382,23.382,0,0,1-4.994,8.25A16.572,16.572,0,0,1,23.65-7.612a20.216,20.216,0,0,0,1.5-1.76V1.87h2.486V-7.5a17.783,17.783,0,0,1,1.848,1.76A16.565,16.565,0,0,0,30.69-7V1.848H33.2V1.056h9.988ZM56.342-7.524v-4.73h4.972v4.73Zm-7.722,0v-4.73h4.95v4.73Zm7.722-7.3v-3.806H53.57v3.806H45.98V-3.74h2.64V-4.95h4.95V1.914h2.772V-4.95h4.972v1.1h2.75V-14.828Z" transform="translate(172.516 636.412)" fill="#fff"/>
  </g>
</svg>
