<svg xmlns="http://www.w3.org/2000/svg" width="207.42" height="261.573"><defs><clipPath id="a"><path data-name="パス 6938" d="M-1426.693 1899.544v-104.665l-81.4-69.774-81.4 69.774v104.665z" fill="none" stroke="#fff079" stroke-linecap="round" stroke-linejoin="round" stroke-width="6"/></clipPath><clipPath id="b"><path data-name="長方形 2463" transform="translate(503.554 5168.52)" fill="#fff" d="M0 0h69v19H0z"/></clipPath></defs><g data-name="グループ 2790"><g data-name="グループ 2464"><path data-name="パス 7330" d="M185.747 177.439V72.774L104.347 3l-81.4 69.774v104.665z" fill="#fff" stroke="#fff079" stroke-linecap="round" stroke-linejoin="round" stroke-width="6"/><g data-name="マスクグループ 52" transform="translate(1612.44 -1722.105)" clip-path="url(#a)"><g data-name="グループ 2462"><g data-name="グループ 2461" fill="none" stroke="#fff079" stroke-miterlimit="10" stroke-width="3.163"><path data-name="線 2091" d="M-805.827 1717l-189.81 189.826"/><path data-name="線 2092" d="M-819.592 1717l-189.81 189.826"/><path data-name="線 2093" d="M-833.357 1717l-189.811 189.826"/><path data-name="線 2094" d="M-847.122 1717l-189.811 189.826"/><path data-name="線 2095" d="M-860.888 1717l-189.811 189.826"/><path data-name="線 2096" d="M-874.654 1717l-189.811 189.826"/><path data-name="線 2097" d="M-888.419 1717l-189.811 189.826"/><path data-name="線 2098" d="M-902.185 1717l-189.811 189.826"/><path data-name="線 2099" d="M-915.951 1717l-189.811 189.826"/><path data-name="線 2100" d="M-929.716 1717l-189.811 189.826"/><path data-name="線 2101" d="M-943.482 1717l-189.811 189.826"/><path data-name="線 2102" d="M-957.247 1717l-189.811 189.826"/><path data-name="線 2103" d="M-971.013 1717l-189.811 189.826"/><path data-name="線 2104" d="M-984.779 1717l-189.811 189.826"/><path data-name="線 2105" d="M-998.544 1717l-189.811 189.826"/><path data-name="線 2106" d="M-1012.31 1717l-189.811 189.826"/><path data-name="線 2107" d="M-1026.076 1717l-189.811 189.826"/><path data-name="線 2108" d="M-1039.841 1717l-189.811 189.826"/><path data-name="線 2109" d="M-1053.606 1717l-189.812 189.826"/><path data-name="線 2110" d="M-1067.371 1717l-189.812 189.826"/><path data-name="線 2111" d="M-1081.137 1717l-189.812 189.826"/><path data-name="線 2112" d="M-1094.903 1717l-189.812 189.826"/><path data-name="線 2113" d="M-1108.668 1717l-189.812 189.826"/><path data-name="線 2114" d="M-1122.434 1717l-189.812 189.826"/><path data-name="線 2115" d="M-1136.199 1717l-189.812 189.826"/><path data-name="線 2116" d="M-1149.965 1717l-189.812 189.826"/><path data-name="線 2117" d="M-1163.731 1717l-189.812 189.826"/><path data-name="線 2118" d="M-1177.496 1717l-189.812 189.826"/><path data-name="線 2119" d="M-1191.262 1717l-189.812 189.826"/><path data-name="線 2120" d="M-1205.028 1717l-189.812 189.826"/><path data-name="線 2121" d="M-1218.793 1717l-189.812 189.826"/><path data-name="線 2122" d="M-1232.559 1717l-189.812 189.826"/><path data-name="線 2123" d="M-1246.324 1717l-189.812 189.826"/><path data-name="線 2124" d="M-1260.09 1717l-189.812 189.826"/><path data-name="線 2125" d="M-1273.855 1717l-189.813 189.826"/><path data-name="線 2126" d="M-1287.62 1717l-189.813 189.826"/><path data-name="線 2127" d="M-1301.386 1717l-189.813 189.826"/><path data-name="線 2128" d="M-1315.152 1717l-189.813 189.826"/><path data-name="線 2129" d="M-1328.917 1717l-189.813 189.826"/><path data-name="線 2130" d="M-1342.683 1717l-189.813 189.826"/><path data-name="線 2131" d="M-1356.448 1717l-189.813 189.826"/><path data-name="線 2132" d="M-1370.214 1717l-189.813 189.826"/><path data-name="線 2133" d="M-1383.98 1717l-189.813 189.826"/><path data-name="線 2134" d="M-1397.745 1717l-189.813 189.826"/><path data-name="線 2135" d="M-1411.511 1717l-189.813 189.826"/><path data-name="線 2136" d="M-1425.276 1717l-189.813 189.826"/><path data-name="線 2137" d="M-1439.042 1717l-189.813 189.826"/><path data-name="線 2138" d="M-1452.808 1717l-189.813 189.826"/><path data-name="線 2139" d="M-1466.573 1717l-189.813 189.826"/><path data-name="線 2140" d="M-1480.339 1717l-189.813 189.826"/><path data-name="線 2141" d="M-1494.104 1717l-189.814 189.826"/><path data-name="線 2142" d="M-1507.869 1717l-189.814 189.826"/><path data-name="線 2143" d="M-1521.635 1717l-189.814 189.826"/><path data-name="線 2144" d="M-1535.4 1717l-189.814 189.826"/><path data-name="線 2145" d="M-1549.166 1717l-189.814 189.826"/><path data-name="線 2146" d="M-1562.932 1717l-189.814 189.826"/><path data-name="線 2147" d="M-1576.697 1717l-189.814 189.826"/><path data-name="線 2148" d="M-1590.463 1717l-189.814 189.826"/><path data-name="線 2149" d="M-1604.228 1717l-189.814 189.826"/><path data-name="線 2150" d="M-1617.994 1717l-189.814 189.826"/><path data-name="線 2151" d="M-1631.76 1717l-189.814 189.826"/><path data-name="線 2152" d="M-1645.525 1717l-189.814 189.826"/><path data-name="線 2153" d="M-1659.291 1717l-189.814 189.826"/><path data-name="線 2154" d="M-1673.057 1717l-189.814 189.826"/><path data-name="線 2155" d="M-1686.822 1717l-189.814 189.826"/><path data-name="線 2156" d="M-1700.588 1717l-189.814 189.826"/><path data-name="線 2157" d="M-1714.352 1717l-189.815 189.826"/><path data-name="線 2158" d="M-1728.118 1717l-189.815 189.826"/><path data-name="線 2159" d="M-1741.884 1717l-189.815 189.826"/><path data-name="線 2160" d="M-1755.649 1717l-189.815 189.826"/><path data-name="線 2161" d="M-1769.415 1717l-189.815 189.826"/><path data-name="線 2162" d="M-1783.18 1717l-189.815 189.826"/><path data-name="線 2163" d="M-1796.946 1717l-189.815 189.826"/><path data-name="線 2164" d="M-1810.712 1717l-189.815 189.826"/><path data-name="線 2165" d="M-1824.477 1717l-189.815 189.826"/><path data-name="線 2166" d="M-1838.243 1717l-189.815 189.826"/><path data-name="線 2167" d="M-1852.009 1717l-189.815 189.826"/><path data-name="線 2168" d="M-1865.774 1717l-189.815 189.826"/><path data-name="線 2169" d="M-1879.54 1717l-189.815 189.826"/><path data-name="線 2170" d="M-1893.305 1717l-189.815 189.826"/><path data-name="線 2171" d="M-1907.071 1717l-189.815 189.826"/><path data-name="線 2172" d="M-1920.837 1717l-189.815 189.826"/><path data-name="線 2173" d="M-1934.601 1717l-189.816 189.826"/><path data-name="線 2174" d="M-1948.367 1717l-189.816 189.826"/><path data-name="線 2175" d="M-1962.133 1717l-189.816 189.826"/><path data-name="線 2176" d="M-1975.898 1717l-189.816 189.826"/><path data-name="線 2177" d="M-1989.664 1717l-189.816 189.826"/><path data-name="線 2178" d="M-2003.429 1717l-189.816 189.826"/><path data-name="線 2179" d="M-2017.195 1717l-189.816 189.826"/><path data-name="線 2180" d="M-2030.961 1717l-189.816 189.826"/><path data-name="線 2181" d="M-2044.726 1717l-189.816 189.826"/><path data-name="線 2182" d="M-2058.492 1717l-189.816 189.826"/><path data-name="線 2183" d="M-2072.257 1717l-189.816 189.826"/><path data-name="線 2184" d="M-2086.023 1717l-189.816 189.826"/><path data-name="線 2185" d="M-2099.789 1717l-189.816 189.826"/><path data-name="線 2186" d="M-2113.554 1717l-189.816 189.826"/><path data-name="線 2187" d="M-2127.32 1717l-189.816 189.826"/><path data-name="線 2188" d="M-2141.086 1717l-189.816 189.826"/><path data-name="線 2189" d="M-2154.85 1717l-189.817 189.826"/><path data-name="線 2190" d="M-2168.616 1717l-189.817 189.826"/><path data-name="線 2191" d="M-2182.381 1717l-189.817 189.826"/><path data-name="線 2192" d="M-2196.147 1717l-189.817 189.826"/></g></g></g><path data-name="パス 7329" d="M185.747 177.439V72.774L104.347 3l-81.4 69.774v104.665z" fill="none" stroke="#fff079" stroke-linecap="round" stroke-linejoin="round" stroke-width="6"/></g><g data-name="グループ 2466"><path data-name="パス 9602" d="M46.482 71.895a2.151 2.151 0 01-1.564-.6 1.979 1.979 0 01-.612-1.479V52.685l.476.748-2.584 1.562a2.08 2.08 0 01-1.088.306 1.856 1.856 0 01-1.462-.663 2.117 2.117 0 01-.578-1.411 1.937 1.937 0 011.054-1.768l5.134-3.06a3.106 3.106 0 011.462-.304 1.9 1.9 0 011.445.595 2.073 2.073 0 01.561 1.479v19.652a1.953 1.953 0 01-.629 1.474 2.255 2.255 0 01-1.615.6zm12.144 2.04c1.56-2.88 3.21-6.3 4.53-9.45l-2.73-2.19a92.808 92.808 0 01-4.886 9.45zm3.18-15.87a23.222 23.222 0 00-5.43-2.97l-1.95 2.61a23.154 23.154 0 015.37 3.27zm-5.61-8.61a21.265 21.265 0 015.31 3.36l2.13-2.82a20.472 20.472 0 00-5.43-3.12zm11.61 20.19v-5.73h9.39v5.73zm9.39-14.46v5.43h-9.39v-5.43zm-4.2-3.42c.48-1.47.99-3.12 1.41-4.77l-4.2-.42a38.242 38.242 0 01-.87 5.19h-5.04v22.74h3.51v-1.41h9.39v1.17h3.66v-22.5zm27.42 16.39a1.845 1.845 0 011.36.544 1.845 1.845 0 01.544 1.36 1.749 1.749 0 01-.544 1.309 1.877 1.877 0 01-1.36.527h-11.56a1.818 1.818 0 01-1.394-.544 1.957 1.957 0 01-.51-1.394 2.11 2.11 0 01.612-1.5l7.412-7.922a13.536 13.536 0 001.972-2.7 5.424 5.424 0 00.748-2.567 3.629 3.629 0 00-.51-1.9 4.009 4.009 0 00-1.326-1.363 3.274 3.274 0 00-1.768-.51 3.673 3.673 0 00-2.006.663 6.761 6.761 0 00-1.8 1.751 1.813 1.813 0 01-.816.68 2.383 2.383 0 01-.748.136 2.027 2.027 0 01-1.377-.561 1.707 1.707 0 01-.629-1.309 1.9 1.9 0 01.391-1.122 9.2 9.2 0 01.969-1.122 10.251 10.251 0 012.992-2.074 7.8 7.8 0 013.262-.782 7.889 7.889 0 013.978.952 6.673 6.673 0 012.584 2.618 7.689 7.689 0 01.918 3.77 8.625 8.625 0 01-.527 2.907 13.39 13.39 0 01-1.443 2.877 21.079 21.079 0 01-2.11 2.686l-4.59 4.9-.374-.306zm13.3.44v-6.72h13.324v6.72zm13.324-16.71v6.45h-13.32v-6.45zm-17.01-3.6v25.86h3.69v-1.95h13.32v1.89h3.84v-25.8zm47.88 16.8c3.21 0 6.15-1.8 8.16-5.52l-3.3-1.8c-1.14 2.13-2.85 3.6-4.77 3.6a5.489 5.489 0 01-4.47-2.16 9.077 9.077 0 00-7.08-3.3c-3.21 0-6.15 1.8-8.16 5.52l3.3 1.8c1.14-2.13 2.85-3.6 4.77-3.6a5.532 5.532 0 014.47 2.16 9.077 9.077 0 007.08 3.3zm-116.296 52.81a2.151 2.151 0 01-1.564-.6 1.979 1.979 0 01-.612-1.479V98.685l.476.748-2.584 1.562a2.08 2.08 0 01-1.088.306 1.856 1.856 0 01-1.462-.663 2.117 2.117 0 01-.578-1.411 1.937 1.937 0 011.054-1.768l5.134-3.06a3.106 3.106 0 011.462-.306 1.9 1.9 0 011.445.595 2.073 2.073 0 01.561 1.479v19.654a1.953 1.953 0 01-.629 1.479 2.255 2.255 0 01-1.615.595zm19.1-14.25c.33-.69.6-1.38.81-1.92.18-.54.42-1.08.69-1.77l-4.2-.87a12.2 12.2 0 01-.42 2.19 13.627 13.627 0 01-1.68 3.84 20.325 20.325 0 01-4.56 5.1l3.51 2.04a26.65 26.65 0 004.14-5.22h5.25a13.466 13.466 0 01-4.95 9.72 13.578 13.578 0 01-2.7 1.59l3.72 2.49c4.77-2.94 7.2-7.41 7.71-13.8h3.66c.6 0 1.74.03 2.64.12v-3.66a20.621 20.621 0 01-2.64.15zm28.68 4.44c.12-1.26.18-2.52.21-3.66h12.036v3.66zm12.246-10.71v3.66H89.61v-3.66zm3.778-3.48h-19.5v9.87c0 4.56-.42 10.29-4.95 14.16a14.09 14.09 0 012.76 2.58 16.138 16.138 0 005.07-8.97h12.842v4.35c0 .63-.24.87-.96.87-.66 0-3.18.03-5.28-.09a15.315 15.315 0 011.5 3.75c3.09 0 5.19-.06 6.63-.69 1.38-.6 1.89-1.62 1.89-3.78zm35.07 14.01v-3.54H128.94v-3.84h9.39v-3.54h-9.39v-4.47h-3.81v4.47h-9.12v3.54h9.12v3.84h-11.372v3.54h9.72a29.088 29.088 0 01-10.738 8.22 18.243 18.243 0 012.64 3.09 32.945 32.945 0 009.75-8.04v9.36h3.81v-9.54a31.612 31.612 0 009.75 8.25 17 17 0 012.58-3.09 29.275 29.275 0 01-10.68-8.25zm8.13 12.24c1.56-2.91 3.12-6.36 4.47-9.57l-2.82-2.13a101.626 101.626 0 01-4.8 9.6zm3.39-16.65a19.476 19.476 0 00-5.43-2.64l-1.89 2.7a22.7 22.7 0 015.34 2.94zm-5.88-8.19a21.086 21.086 0 015.04 3.42l2.22-2.82a22.938 22.938 0 00-5.16-3.18zm14.43 2.73h4.02v2.22h-4.02zm12.21 5.34v-3.12h-4.74v-2.22h3.9v-3.09h-3.9v-2.43h-3.45v2.43h-4.02v-2.43h-3.33v2.43h-3.84v3.09h3.84v2.22h-4.77v3.12h8.34v1.8h-7.44v15.3h3.15v-12.21h4.71v4.77h-1.35v-3.54h-2.128v7.86h2.13v-1.74h5.43v.99h2.07v-7.11h-2.07v3.54h-1.47v-4.77h4.95v8.79c0 .33-.12.45-.51.48-.39 0-1.68 0-2.79-.06a9.742 9.742 0 01.81 2.97 11.377 11.377 0 004.5-.51c1.02-.48 1.32-1.29 1.32-2.85v-11.91h-7.89v-1.8zM13.34 153.495l-1.48.62a15.431 15.431 0 011.56 2.78l1.52-.68a26.214 26.214 0 00-1.6-2.72zm2.24-.92l-1.46.68a17.594 17.594 0 011.64 2.7l1.5-.72a29.915 29.915 0 00-1.68-2.66zM0 150.215l.26 2.72c2.3-.5 6.46-.94 8.18-1.12a7.854 7.854 0 00-2.92 6.1c0 4.3 3.92 6.54 8.08 6.8l.92-2.74c-3.36-.16-6.4-1.34-6.4-4.6a6.012 6.012 0 014.18-5.54 20.452 20.452 0 013.82-.26l-.02-2.56c-1.4.06-3.56.18-5.6.34-3.62.32-6.9.62-8.56.76-.38.04-1.14.08-1.94.1zm22.78 7.54a13.224 13.224 0 00-.38 2.86c0 2.72 2.26 4.24 6.8 4.24a31.593 31.593 0 006.88-.66l-.02-2.8a28.086 28.086 0 01-6.96.78c-2.86 0-4.04-.92-4.04-2.18a8.15 8.15 0 01.32-2zm11.06-9.62a15.22 15.22 0 01.86 1.44c-1.52.14-3.7.26-5.6.26a51.226 51.226 0 01-5.38-.24v2.64c1.6.12 3.32.22 5.4.22 1.88 0 4.34-.14 5.72-.24v-2.38c.2.4.4.78.56 1.1l1.62-.7c-.38-.74-1.1-2-1.6-2.74zm2.36-.9a21.2 21.2 0 011.62 2.76l1.58-.68a22.079 22.079 0 00-1.62-2.72zm11.78 7.82h3.44v-2.18h-3.44v-2.98a26 26 0 003.38-1.04l-1.68-1.84a33.775 33.775 0 01-8.04 2.06 7.462 7.462 0 01.68 1.86c1.08-.14 2.22-.32 3.36-.54v2.48h-3.8v2.18h3.34a19.373 19.373 0 01-3.8 5.76 13.386 13.386 0 011.2 2.32 19.9 19.9 0 003.06-4.7v7.16h2.3v-6.9c.8.82 1.64 1.72 2.12 2.34l1.38-2.04c-.54-.42-2.52-2.12-3.5-2.86zm6.7-5.68h-2.32v11.18h2.32zm2.4-2.04v15.38c0 .36-.16.48-.54.5-.42 0-1.7 0-3-.06a9.128 9.128 0 01.82 2.46 9.848 9.848 0 003.98-.46c.82-.38 1.1-1.04 1.1-2.42v-15.4zm16.46 10.22v-2.46h4.22v2.46zm-6.22 0c.04-.74.06-1.46.06-2.1v-.36h3.76v2.46zm3.82-7v2.32h-3.76v-2.32zm6.62 2.32h-4.22v-2.32h4.22zm2.36-4.58h-15.1v7.14c0 2.8-.18 6.36-2.36 8.76a8.785 8.785 0 011.88 1.54 11.453 11.453 0 002.52-5.94h4.08v5.58h2.4v-5.58h4.22v3c0 .36-.14.48-.52.48-.36 0-1.68.02-2.8-.04a8.992 8.992 0 01.76 2.28 9.288 9.288 0 003.84-.42c.8-.36 1.08-1 1.08-2.28zm8.68 12c-.74 0-1.54-.98-1.54-2.98a6.21 6.21 0 015.02-5.74 31.791 31.791 0 01-1.06 4.8c-.8 2.68-1.6 3.92-2.42 3.92zm5.44 4.42c5-.76 7.56-3.72 7.56-7.88 0-4.32-3.1-7.74-8-7.74-5.14 0-9.12 3.92-9.12 8.48 0 3.34 1.86 5.76 4.04 5.76 2.16 0 3.88-2.44 5.06-6.44a43.042 43.042 0 001.18-5.38c2.66.46 4.14 2.5 4.14 5.24a5.362 5.362 0 01-4.5 5.3c-.52.12-1.08.22-1.84.32zm29.32-12.3v-2.28h-7.9v-3.26h-2.46v3.26h-7.66v2.28h5.72c-.22 4.28-.68 8.84-6.08 11.34a7.6 7.6 0 011.68 2.02 11.74 11.74 0 006.42-8.52h5.5c-.28 3.64-.64 5.38-1.16 5.82a1.284 1.284 0 01-.96.26c-.58 0-1.98 0-3.36-.14a5.535 5.535 0 01.84 2.34 27.394 27.394 0 003.42 0 2.953 2.953 0 002.16-.92c.8-.88 1.22-3.12 1.58-8.56a9.73 9.73 0 00.08-1.04h-7.72c.1-.86.16-1.74.22-2.6zm5.14-4.14a14.861 14.861 0 01-.18 1.94 58.7 58.7 0 00-.82 8.26 23.891 23.891 0 00.78 6.32l2.24-.16c-.02-.28-.02-.62-.02-.82a3.91 3.91 0 01.1-.92 47.248 47.248 0 011.42-4.72l-1.22-.98c-.3.66-.62 1.32-.88 2.02a9.167 9.167 0 01-.08-1.28 52.382 52.382 0 01.94-7.66 16.645 16.645 0 01.48-1.76zm10 12.3c0 1.16-.42 1.8-1.64 1.8-1.04 0-1.84-.36-1.84-1.16 0-.74.76-1.2 1.88-1.2a6.175 6.175 0 011.6.22zm6.26.8a12.572 12.572 0 00-3.82-2.56c-.08-1.34-.18-2.92-.22-4.84 1.08-.08 2.12-.2 3.08-.34v-2.46c-.94.2-1.98.34-3.06.46 0-.88.04-1.62.06-2.06a12.649 12.649 0 01.12-1.28h-2.84a11.207 11.207 0 01.12 1.3c.02.42.02 1.22.04 2.2-.46.02-.94.02-1.4.02a32.841 32.841 0 01-3.46-.18v2.36c1.18.08 2.3.12 3.46.12.46 0 .94 0 1.42-.02.02 1.4.08 2.84.14 4.06a8.9 8.9 0 00-1.3-.08c-2.7 0-4.4 1.38-4.4 3.4 0 2.08 1.72 3.24 4.44 3.24 2.68 0 3.76-1.36 3.88-3.24a20.2 20.2 0 012.4 1.98zm19.44 2.96c-.04-.6-.08-1.66-.08-2.36v-10.36c0-.58.04-1.38.06-1.84-.34.02-1.18.04-1.76.04h-10.06c-.7 0-1.74-.04-2.48-.12v2.78c.56-.04 1.64-.08 2.48-.08h8.98v8.28h-9.22c-.9 0-1.8-.06-2.5-.12v2.86c.66-.06 1.8-.12 2.58-.12h9.12c0 .38 0 .72-.02 1.04zm15.4-9.9v-3.18a32.286 32.286 0 003.36-.66c.34-.08.86-.22 1.54-.38l-1.64-2.2a21.677 21.677 0 01-5.04 1.2 47.2 47.2 0 01-6.82.32l.62 2.32c1.34-.04 3.44-.1 5.36-.26v2.84h-5.64a17.411 17.411 0 01-1.84-.12v2.58c.52-.04 1.26-.08 1.88-.08h5.5a7.916 7.916 0 01-5.02 6.5l2.54 1.72a10.019 10.019 0 005.12-8.22h5.18c.54 0 1.22.04 1.76.08v-2.58c-.44.04-1.4.12-1.82.12zm25.84-1.18a4.219 4.219 0 01-1.46.2h-9.9c-.62 0-1.48-.04-2.32-.12v2.6c.84-.08 1.84-.1 2.32-.1h9.66a8.677 8.677 0 01-2.06 3.46 13.479 13.479 0 01-6.94 3.5l2 2.26a14.976 14.976 0 007.14-4.32 14.373 14.373 0 002.96-5.54 7.409 7.409 0 01.38-.84zm-11.84-2.12c.58-.04 1.44-.06 2.08-.06h7.66c.72 0 1.66.02 2.2.06v-2.58a18.858 18.858 0 01-2.16.1h-7.7a16.86 16.86 0 01-2.08-.1z"/><g data-name="グループ 2465"><g data-name="マスクグループ 51" transform="translate(-394.614 -5049.625)" clip-path="url(#b)"><path data-name="パス 7327" d="M449.095 5176.032c3.707 0 3.707 4.342 7.414 4.342s3.706-4.342 7.413-4.342 3.707 4.342 7.413 4.342 3.706-4.342 7.413-4.342 3.707 4.342 7.413 4.342 3.707-4.342 7.413-4.342 3.707 4.342 7.414 4.342 3.707-4.342 7.413-4.342 3.707 4.342 7.414 4.342 3.707-4.342 7.414-4.342 3.707 4.342 7.414 4.342 3.707-4.342 7.414-4.342 3.707 4.342 7.414 4.342 3.707-4.342 7.414-4.342 3.707 4.342 7.414 4.342 3.707-4.342 7.413-4.342 3.707 4.342 7.414 4.342 3.707-4.342 7.414-4.342 3.707 4.342 7.415 4.342 3.707-4.342 7.415-4.342 3.708 4.342 7.415 4.342 3.708-4.342 7.415-4.342" fill="none" stroke="#000" stroke-miterlimit="10" stroke-width="3"/></g></g></g><g data-name="グループ 2337" transform="translate(-282 -5205.105)"><circle data-name="楕円形 299" cx="2.5" cy="2.5" r="2.5" transform="translate(388.5 5403)" fill="#333"/><circle data-name="楕円形 300" cx="2.5" cy="2.5" r="2.5" transform="translate(388.5 5418)" fill="#333"/><circle data-name="楕円形 301" cx="2.5" cy="2.5" r="2.5" transform="translate(388.5 5433)" fill="#333"/><circle data-name="楕円形 302" cx="2.5" cy="2.5" r="2.5" transform="translate(388.5 5448)" fill="#333"/><path data-name="パス 6985" d="M381.94 5455.42l9.136 9.136 9.136-9.136" fill="none" stroke="#333" stroke-linecap="round" stroke-width="3"/></g></g></svg>