<svg xmlns="http://www.w3.org/2000/svg" width="253.177" height="44.313"><defs><clipPath id="a"><path data-name="長方形 2225" transform="translate(-10)" fill="#fde94c" d="M0 0h253.177v28.081H0z"/></clipPath></defs><g data-name="グループ 3176"><g data-name="マスクグループ 37" transform="translate(10 16.231)" clip-path="url(#a)"><g data-name="グループ 2314" fill="none" stroke="#fde94c" stroke-miterlimit="10" stroke-width="3.163"><path data-name="線 1377" d="M1193.044-34.081l-188.491 188.506"/><path data-name="線 1378" d="M1179.374-34.081L990.883 154.425"/><path data-name="線 1379" d="M1165.705-34.081L977.214 154.425"/><path data-name="線 1380" d="M1152.035-34.081L963.544 154.425"/><path data-name="線 1381" d="M1138.365-34.081L949.874 154.425"/><path data-name="線 1382" d="M1124.695-34.081L936.204 154.425"/><path data-name="線 1383" d="M1111.025-34.081L922.534 154.425"/><path data-name="線 1384" d="M1097.355-34.081L908.864 154.425"/><path data-name="線 1385" d="M1083.685-34.081L895.194 154.425"/><path data-name="線 1386" d="M1070.015-34.081L881.524 154.425"/><path data-name="線 1387" d="M1056.345-34.081L867.854 154.425"/><path data-name="線 1388" d="M1042.675-34.081L854.184 154.425"/><path data-name="線 1389" d="M1029.006-34.081L840.515 154.425"/><path data-name="線 1390" d="M1015.336-34.081L826.845 154.425"/><path data-name="線 1391" d="M1001.667-34.081L813.175 154.425"/><path data-name="線 1392" d="M987.997-34.081L799.505 154.425"/><path data-name="線 1393" d="M974.327-34.081L785.835 154.425"/><path data-name="線 1394" d="M960.657-34.081L772.165 154.425"/><path data-name="線 1395" d="M946.987-34.081L758.495 154.425"/><path data-name="線 1396" d="M933.317-34.081L744.825 154.425"/><path data-name="線 1397" d="M919.647-34.081L731.155 154.425"/><path data-name="線 1398" d="M905.977-34.081L717.485 154.425"/><path data-name="線 1399" d="M892.307-34.081L703.815 154.425"/><path data-name="線 1400" d="M878.638-34.081L690.146 154.425"/><path data-name="線 1401" d="M864.968-34.081L676.476 154.425"/><path data-name="線 1402" d="M851.298-34.081L662.806 154.425"/><path data-name="線 1403" d="M837.628-34.081L649.136 154.425"/><path data-name="線 1404" d="M823.958-34.081L635.466 154.425"/><path data-name="線 1405" d="M810.288-34.081L621.796 154.425"/><path data-name="線 1406" d="M796.618-34.081L608.126 154.425"/><path data-name="線 1407" d="M782.949-34.081L594.456 154.425"/><path data-name="線 1408" d="M769.279-34.081L580.786 154.425"/><path data-name="線 1409" d="M755.609-34.081L567.116 154.425"/><path data-name="線 1410" d="M741.94-34.081L553.447 154.425"/><path data-name="線 1411" d="M728.27-34.081L539.777 154.425"/><path data-name="線 1412" d="M714.6-34.081L526.107 154.425"/><path data-name="線 1413" d="M700.93-34.081L512.437 154.425"/><path data-name="線 1414" d="M687.26-34.081L498.767 154.425"/><path data-name="線 1415" d="M673.59-34.081L485.097 154.425"/><path data-name="線 1416" d="M659.92-34.081L471.427 154.425"/><path data-name="線 1417" d="M646.25-34.081L457.757 154.425"/><path data-name="線 1418" d="M632.58-34.081L444.087 154.425"/><path data-name="線 1419" d="M618.91-34.081L430.417 154.425"/><path data-name="線 1420" d="M605.24-34.081L416.747 154.425"/><path data-name="線 1421" d="M591.571-34.081L403.078 154.425"/><path data-name="線 1422" d="M577.901-34.081L389.408 154.425"/><path data-name="線 1423" d="M564.232-34.081L375.738 154.425"/><path data-name="線 1424" d="M550.562-34.081L362.068 154.425"/><path data-name="線 1425" d="M536.892-34.081L348.398 154.425"/><path data-name="線 1426" d="M523.222-34.081L334.728 154.425"/><path data-name="線 1427" d="M509.552-34.081L321.058 154.425"/><path data-name="線 1428" d="M495.882-34.081L307.388 154.425"/><path data-name="線 1429" d="M482.212-34.081L293.718 154.425"/><path data-name="線 1430" d="M468.542-34.081L280.048 154.425"/><path data-name="線 1431" d="M454.872-34.081L266.378 154.425"/><path data-name="線 1432" d="M441.203-34.081L252.709 154.425"/><path data-name="線 1433" d="M427.533-34.081L239.039 154.425"/><path data-name="線 1434" d="M413.863-34.081L225.369 154.425"/><path data-name="線 1435" d="M400.193-34.081L211.699 154.425"/><path data-name="線 1436" d="M386.523-34.081L198.029 154.425"/><path data-name="線 1437" d="M372.853-34.081L184.359 154.425"/><path data-name="線 1438" d="M359.183-34.081L170.689 154.425"/><path data-name="線 1439" d="M345.514-34.081L157.019 154.425"/><path data-name="線 1440" d="M331.844-34.081L143.349 154.425"/><path data-name="線 1441" d="M318.174-34.081L129.679 154.425"/><path data-name="線 1442" d="M304.505-34.081L116.01 154.425"/><path data-name="線 1443" d="M290.835-34.081L102.34 154.425"/><path data-name="線 1444" d="M277.165-34.081L88.67 154.425"/><path data-name="線 1445" d="M263.495-34.081L75 154.425"/><path data-name="線 1446" d="M249.825-34.081L61.33 154.425"/><path data-name="線 1447" d="M236.155-34.081L47.66 154.425"/><path data-name="線 1448" d="M222.485-34.081L33.99 154.425"/><path data-name="線 1449" d="M208.815-34.081L20.32 154.425"/><path data-name="線 1450" d="M195.145-34.081L6.65 154.425"/><path data-name="線 1451" d="M181.475-34.081L-7.02 154.425"/><path data-name="線 1452" d="M167.805-34.081L-20.69 154.425"/><path data-name="線 1453" d="M154.136-34.081L-34.359 154.425"/><path data-name="線 1454" d="M140.466-34.081L-48.029 154.425"/><path data-name="線 1455" d="M126.797-34.081L-61.699 154.425"/><path data-name="線 1456" d="M113.127-34.081L-75.369 154.425"/><path data-name="線 1457" d="M99.457-34.081L-89.039 154.425"/><path data-name="線 1458" d="M85.787-34.081l-188.496 188.506"/><path data-name="線 1459" d="M72.117-34.081l-188.496 188.506"/><path data-name="線 1460" d="M58.447-34.081l-188.496 188.506"/><path data-name="線 1461" d="M44.778-34.081l-188.496 188.506"/><path data-name="線 1462" d="M31.107-34.081l-188.496 188.506"/><path data-name="線 1463" d="M17.438-34.081l-188.496 188.506"/><path data-name="線 1464" d="M3.768-34.081l-188.496 188.506"/><path data-name="線 1465" d="M-9.902-34.081l-188.496 188.506"/><path data-name="線 1466" d="M-23.572-34.081l-188.496 188.506"/><path data-name="線 1467" d="M-37.242-34.081l-188.496 188.506"/><path data-name="線 1468" d="M-50.912-34.081l-188.496 188.506"/><path data-name="線 1469" d="M-64.582-34.081l-188.496 188.506"/><path data-name="線 1470" d="M-78.252-34.081l-188.496 188.506"/><path data-name="線 1471" d="M-91.921-34.081l-188.497 188.506"/><path data-name="線 1472" d="M-105.59-34.081l-188.497 188.506"/><path data-name="線 1473" d="M-119.261-34.081l-188.497 188.506"/><path data-name="線 1474" d="M-132.93-34.081l-188.497 188.506"/><path data-name="線 1475" d="M-146.6-34.081l-188.497 188.506"/><path data-name="線 1476" d="M-160.27-34.081l-188.497 188.506"/><path data-name="線 1477" d="M-173.94-34.081l-188.497 188.506"/><path data-name="線 1478" d="M-187.61-34.081l-188.497 188.506"/></g></g><g data-name="グループ 2423"><g data-name="グループ 2422"><g data-name="グループ 2420" fill="#231815"><path data-name="パス 7271" d="M30.408 25.934a3.752 3.752 0 00-2.181.358l-.029.014a6.548 6.548 0 01-1.836.636 10.975 10.975 0 01-2 .186 10.265 10.265 0 01-3.357-.532 6.96 6.96 0 01-2.6-1.582 7.446 7.446 0 01-1.733-2.688 10.877 10.877 0 01-.641-3.926 10.312 10.312 0 01.569-3.506 7.553 7.553 0 011.63-2.673 7.274 7.274 0 012.591-1.731 9.509 9.509 0 013.537-.618 9.2 9.2 0 012.028.219 9.447 9.447 0 011.838.617 4.02 4.02 0 002.139.4 2.727 2.727 0 001.968-1.147 3.388 3.388 0 00.758-2.739 3.033 3.033 0 00-1.7-2.3 15.009 15.009 0 00-3.368-1.236 15.844 15.844 0 00-3.658-.426 16.337 16.337 0 00-6.112 1.128 14.835 14.835 0 00-4.887 3.161 14.169 14.169 0 00-3.213 4.816 15.912 15.912 0 00-1.13 6.036 16.741 16.741 0 001.237 6.633 13.545 13.545 0 003.417 4.829 14.811 14.811 0 004.91 2.9 17.15 17.15 0 005.778.975 15.364 15.364 0 002.429-.192 17.237 17.237 0 002.349-.55 15 15 0 002.27-.911 3.021 3.021 0 001.714-2.173 3.326 3.326 0 00-.753-2.8 2.984 2.984 0 00-1.964-1.178z"/><path data-name="パス 7272" d="M63.033 3.46a3.408 3.408 0 00-2.374.94 3.193 3.193 0 00-1.052 2.406v8.327h-11V6.806a3.185 3.185 0 00-1.024-2.4 3.3 3.3 0 00-2.322-.947 3.42 3.42 0 00-2.472.957 3.215 3.215 0 00-.994 2.39v23.187a3.285 3.285 0 00.936 2.372 3.279 3.279 0 002.45.975 3.411 3.411 0 002.375-.94 3.193 3.193 0 001.052-2.406v-8.448h11v8.448a3.179 3.179 0 001.023 2.4 3.291 3.291 0 002.323.948 3.4 3.4 0 002.5-.966 3.25 3.25 0 00.965-2.381V6.808a3.288 3.288 0 00-.937-2.372 3.281 3.281 0 00-2.449-.976z"/><path data-name="パス 7273" d="M97.211 7.582a14.043 14.043 0 00-4.627-3.321 14.2 14.2 0 00-5.843-1.2 14.056 14.056 0 00-5.826 1.2 14.088 14.088 0 00-4.6 3.32 15.254 15.254 0 00-3.006 4.879 16.476 16.476 0 00-1.063 5.939 16.47 16.47 0 001.063 5.939 15.248 15.248 0 003.005 4.879 14.084 14.084 0 004.6 3.32 14.058 14.058 0 005.826 1.2 14.2 14.2 0 005.843-1.2 14.039 14.039 0 004.627-3.321 15.265 15.265 0 003.005-4.879 16.476 16.476 0 001.063-5.939 16.484 16.484 0 00-1.063-5.939 15.272 15.272 0 00-3.004-4.877zm-10.47 19.547a6.641 6.641 0 01-3.867-1.128 7.853 7.853 0 01-2.646-3.12 10.155 10.155 0 01-.973-4.481 10.123 10.123 0 01.971-4.5 7.886 7.886 0 012.647-3.1 6.644 6.644 0 013.866-1.128 6.647 6.647 0 013.867 1.128 8.026 8.026 0 012.669 3.126 9.991 9.991 0 01.99 4.475 9.985 9.985 0 01-.99 4.475 8.016 8.016 0 01-2.669 3.126 6.645 6.645 0 01-3.866 1.126z"/><path data-name="パス 7274" d="M112.171 3.46a3.419 3.419 0 00-2.472.957 3.215 3.215 0 00-.995 2.39v23.187a3.285 3.285 0 00.936 2.372 3.279 3.279 0 002.45.975 3.41 3.41 0 002.374-.94 3.193 3.193 0 001.052-2.406V6.808a3.185 3.185 0 00-1.024-2.4 3.3 3.3 0 00-2.321-.948z"/><path data-name="パス 7275" d="M134.841 15.574h-6.98a3.325 3.325 0 00-2.362.907 3.114 3.114 0 00-.985 2.359 3.179 3.179 0 00.974 2.369 3.283 3.283 0 002.372.937h6.98a3.33 3.33 0 002.362-.907 3.109 3.109 0 00.984-2.319 3.252 3.252 0 00-.966-2.381 3.251 3.251 0 00-2.379-.965z"/><path data-name="パス 7276" d="M165.202 17.913a10.839 10.839 0 00-3.3-1.691 33.16 33.16 0 00-4.341-1.071 22.583 22.583 0 01-3.046-.79 3.91 3.91 0 01-1.653-.995 1.977 1.977 0 01-.472-1.385 1.879 1.879 0 01.408-1.208 3.132 3.132 0 011.394-.919 7.541 7.541 0 012.594-.385 7.431 7.431 0 012 .307 14.685 14.685 0 012.153.793 6.424 6.424 0 011.511.924l.052.042a2.649 2.649 0 001.623.541 3.055 3.055 0 002.258-1 3.168 3.168 0 00.927-2.222 3.538 3.538 0 00-1.49-2.82 12.21 12.21 0 00-3.905-2.141 15.443 15.443 0 00-5.132-.833 13.846 13.846 0 00-5.4 1.033 9.336 9.336 0 00-4.008 3.107 8.27 8.27 0 00-1.516 4.982 9.131 9.131 0 00.628 3.447 7.575 7.575 0 001.887 2.728 9.772 9.772 0 003.023 1.86 17.806 17.806 0 004.022 1.039 16.223 16.223 0 013.568.849 4.65 4.65 0 011.852 1.172 2.148 2.148 0 01.506 1.461 1.592 1.592 0 01-.507 1.157 4.485 4.485 0 01-1.675 1.028 6.925 6.925 0 01-2.415.405 8.63 8.63 0 01-3.358-.57 11.911 11.911 0 01-2.82-1.76 3.013 3.013 0 00-1.926-.678 3.11 3.11 0 00-2.319.985 3.181 3.181 0 00-.906 2.241 3.386 3.386 0 00.375 1.524 4.044 4.044 0 001.019 1.283 13.045 13.045 0 004.612 2.645 17.9 17.9 0 005.322.743 13.735 13.735 0 005.428-1.075 10.169 10.169 0 004.151-3.168 8.084 8.084 0 001.63-5.04 9.836 9.836 0 00-.673-3.82 6.763 6.763 0 00-2.081-2.725z"/><path data-name="パス 7277" d="M193.932 3.46H176.12a3.42 3.42 0 00-2.341.848 3.026 3.026 0 00-1 2.338 3.086 3.086 0 00.994 2.348 3.369 3.369 0 002.352.878h5.4v20.121a3.214 3.214 0 00.994 2.39 3.419 3.419 0 002.472.957 3.543 3.543 0 002.523-.948 3.182 3.182 0 001.024-2.4V9.871h5.4a3.419 3.419 0 002.341-.848 3.024 3.024 0 001.005-2.338 3.092 3.092 0 00-.995-2.349 3.374 3.374 0 00-2.357-.876z"/><path data-name="パス 7278" d="M216.59 5.473a3.263 3.263 0 00-1.235-1.6 3.245 3.245 0 00-1.8-.576 2.993 2.993 0 00-1.97.512 3.5 3.5 0 00-1.314 1.646l-9.989 23.989-.031.088a3.572 3.572 0 00-.158 1.02 3.071 3.071 0 00.741 2.073 2.869 2.869 0 002.285.912 3 3 0 001.791-.592 3.355 3.355 0 001.17-1.578l1.84-4.328h10.775l1.847 4.3a3.759 3.759 0 001.188 1.571 2.991 2.991 0 001.847.625 3.124 3.124 0 002.151-.877 3.136 3.136 0 00.995-2.389 3.6 3.6 0 00-.26-1.285zm-5.945 15.157l2.636-6.2 2.661 6.2z"/><path data-name="パス 7279" d="M251.613 4.287a3.248 3.248 0 00-2.282-.947 3.293 3.293 0 00-2.748 1.6l-5.891 8.62-6.327-8.732a3.3 3.3 0 00-2.685-1.483 3.611 3.611 0 00-2.291.882 3.077 3.077 0 00-1.176 2.464 3.7 3.7 0 00.206 1.165 4.322 4.322 0 00.7 1.261l8.163 10.847v10.035a3.248 3.248 0 00.965 2.381 3.2 3.2 0 002.342.966 3.109 3.109 0 002.26-.965 3.249 3.249 0 00.966-2.381v-9.5l8.233-11.788a3.379 3.379 0 00.463-1.013 3.844 3.844 0 00.13-.97 3.23 3.23 0 00-1.028-2.442z"/></g><g data-name="グループ 2421" fill="#fff"><path data-name="パス 7280" d="M26.838 22.875a3.753 3.753 0 00-2.181.358l-.029.015a6.559 6.559 0 01-1.835.636 11 11 0 01-2 .185 10.265 10.265 0 01-3.357-.532 6.955 6.955 0 01-2.6-1.581 7.446 7.446 0 01-1.733-2.688 10.877 10.877 0 01-.641-3.926 10.312 10.312 0 01.569-3.506 7.556 7.556 0 011.63-2.673 7.269 7.269 0 012.591-1.731 9.509 9.509 0 013.537-.618 9.179 9.179 0 012.028.219 9.438 9.438 0 011.838.617 4.016 4.016 0 002.139.4 2.726 2.726 0 001.968-1.147 3.388 3.388 0 00.758-2.739 3.033 3.033 0 00-1.705-2.3A15.017 15.017 0 0024.448.628 15.857 15.857 0 0020.79.202a16.333 16.333 0 00-6.112 1.128 14.831 14.831 0 00-4.887 3.161 14.174 14.174 0 00-3.213 4.816 15.916 15.916 0 00-1.13 6.036 16.747 16.747 0 001.237 6.633 13.549 13.549 0 003.417 4.829 14.814 14.814 0 004.91 2.9 17.157 17.157 0 005.778.975 15.363 15.363 0 002.429-.192 17.271 17.271 0 002.349-.55 15.007 15.007 0 002.27-.911 3.021 3.021 0 001.714-2.173 3.325 3.325 0 00-.753-2.8 2.982 2.982 0 00-1.961-1.179z"/><path data-name="パス 7281" d="M59.464.401a3.41 3.41 0 00-2.374.94 3.193 3.193 0 00-1.052 2.407v8.327h-11V3.748a3.183 3.183 0 00-1.024-2.4A3.294 3.294 0 0041.692.4a3.419 3.419 0 00-2.472.957 3.215 3.215 0 00-.994 2.39v23.187a3.285 3.285 0 00.936 2.371 3.278 3.278 0 002.45.975 3.41 3.41 0 002.374-.94 3.193 3.193 0 001.052-2.406v-8.448h11v8.448a3.179 3.179 0 001.023 2.4 3.291 3.291 0 002.323.948 3.4 3.4 0 002.5-.966 3.25 3.25 0 00.965-2.381V3.748a3.289 3.289 0 00-.937-2.373 3.282 3.282 0 00-2.448-.974z"/><path data-name="パス 7282" d="M93.642 4.523a14.05 14.05 0 00-4.627-3.321 14.206 14.206 0 00-5.844-1.2 14.057 14.057 0 00-5.825 1.2 14.094 14.094 0 00-4.6 3.32 15.256 15.256 0 00-3.005 4.879 16.473 16.473 0 00-1.063 5.939 16.468 16.468 0 001.063 5.939 15.246 15.246 0 003.005 4.879 14.084 14.084 0 004.6 3.32 14.059 14.059 0 005.825 1.2 14.2 14.2 0 005.844-1.2 14.046 14.046 0 004.627-3.321 15.267 15.267 0 003.005-4.879 16.483 16.483 0 001.063-5.939A16.491 16.491 0 0096.647 9.4a15.276 15.276 0 00-3.005-4.877zM83.172 24.07a6.641 6.641 0 01-3.866-1.128 7.85 7.85 0 01-2.646-3.12 10.152 10.152 0 01-.973-4.481 10.121 10.121 0 01.971-4.5 7.884 7.884 0 012.647-3.1 6.643 6.643 0 013.866-1.128 6.647 6.647 0 013.867 1.128 8.022 8.022 0 012.669 3.126 9.988 9.988 0 01.99 4.475 9.986 9.986 0 01-.99 4.475 8.016 8.016 0 01-2.669 3.126 6.644 6.644 0 01-3.867 1.126z"/><path data-name="パス 7283" d="M108.603.401a3.419 3.419 0 00-2.472.957 3.215 3.215 0 00-.994 2.39v23.187a3.285 3.285 0 00.936 2.371 3.278 3.278 0 002.45.975 3.411 3.411 0 002.375-.94 3.193 3.193 0 001.052-2.406V3.748a3.184 3.184 0 00-1.024-2.4 3.294 3.294 0 00-2.323-.947z"/><path data-name="パス 7284" d="M131.273 12.515h-6.98a3.325 3.325 0 00-2.362.907 3.114 3.114 0 00-.984 2.359 3.18 3.18 0 00.974 2.369 3.285 3.285 0 002.373.937h6.98a3.329 3.329 0 002.362-.907 3.109 3.109 0 00.984-2.319 3.252 3.252 0 00-.966-2.381 3.251 3.251 0 00-2.381-.965z"/><path data-name="パス 7285" d="M161.634 14.853a10.853 10.853 0 00-3.3-1.691 33.146 33.146 0 00-4.341-1.071 22.519 22.519 0 01-3.046-.789 3.911 3.911 0 01-1.653-.995 1.978 1.978 0 01-.472-1.385 1.878 1.878 0 01.408-1.208 3.131 3.131 0 011.394-.919 7.542 7.542 0 012.594-.385 7.426 7.426 0 012 .307 14.661 14.661 0 012.154.793 6.426 6.426 0 011.511.924l.052.042a2.648 2.648 0 001.622.541 3.054 3.054 0 002.258-1 3.166 3.166 0 00.927-2.222 3.538 3.538 0 00-1.49-2.819 12.211 12.211 0 00-3.905-2.141 15.437 15.437 0 00-5.132-.833 13.846 13.846 0 00-5.4 1.033 9.34 9.34 0 00-4.009 3.107 8.269 8.269 0 00-1.516 4.982 9.13 9.13 0 00.627 3.447 7.583 7.583 0 001.887 2.728 9.778 9.778 0 003.023 1.86 17.817 17.817 0 004.022 1.039 16.227 16.227 0 013.567.849 4.652 4.652 0 011.852 1.172 2.147 2.147 0 01.506 1.461 1.591 1.591 0 01-.507 1.157 4.48 4.48 0 01-1.675 1.028 6.923 6.923 0 01-2.415.405 8.635 8.635 0 01-3.358-.57A11.911 11.911 0 01147 21.939a3.013 3.013 0 00-1.926-.678 3.111 3.111 0 00-2.32.985 3.18 3.18 0 00-.906 2.241 3.387 3.387 0 00.375 1.524 4.039 4.039 0 001.019 1.283 13.043 13.043 0 004.612 2.645 17.9 17.9 0 005.322.743 13.736 13.736 0 005.428-1.075 10.168 10.168 0 004.151-3.168 8.082 8.082 0 001.629-5.04 9.834 9.834 0 00-.673-3.82 6.765 6.765 0 00-2.077-2.726z"/><path data-name="パス 7286" d="M190.363.401h-17.812a3.421 3.421 0 00-2.341.848 3.026 3.026 0 00-1 2.338 3.086 3.086 0 00.994 2.348 3.369 3.369 0 002.352.878h5.4v20.122a3.215 3.215 0 00.994 2.39 3.419 3.419 0 002.473.957 3.543 3.543 0 002.523-.948 3.183 3.183 0 001.024-2.4V6.812h5.4a3.419 3.419 0 002.341-.848 3.024 3.024 0 001-2.338 3.093 3.093 0 00-.995-2.349 3.375 3.375 0 00-2.353-.876z"/><path data-name="パス 7287" d="M213.025 2.414a3.269 3.269 0 00-1.235-1.6 3.247 3.247 0 00-1.8-.575 2.994 2.994 0 00-1.97.512 3.5 3.5 0 00-1.314 1.646l-9.989 23.989-.031.088a3.575 3.575 0 00-.158 1.02 3.071 3.071 0 00.741 2.073 2.869 2.869 0 002.285.912 3 3 0 001.791-.592 3.357 3.357 0 001.17-1.579l1.84-4.328h10.77l1.846 4.3a3.761 3.761 0 001.188 1.571 2.991 2.991 0 001.848.624 3.123 3.123 0 002.151-.877 3.136 3.136 0 00.995-2.389 3.605 3.605 0 00-.26-1.285zm-5.944 15.157l2.636-6.2 2.661 6.2z"/><path data-name="パス 7288" d="M248.044 1.228a3.249 3.249 0 00-2.282-.948 3.294 3.294 0 00-2.748 1.6l-5.891 8.62-6.327-8.732a3.3 3.3 0 00-2.685-1.483 3.61 3.61 0 00-2.291.883 3.077 3.077 0 00-1.176 2.464 3.7 3.7 0 00.206 1.165 4.324 4.324 0 00.7 1.26l8.164 10.847v10.035a3.247 3.247 0 00.965 2.38 3.2 3.2 0 002.341.966 3.11 3.11 0 002.26-.965 3.25 3.25 0 00.965-2.381v-9.5l8.233-11.788a3.375 3.375 0 00.463-1.013 3.831 3.831 0 00.13-.97 3.231 3.231 0 00-1.027-2.44z"/></g></g></g></g></svg>