<svg xmlns="http://www.w3.org/2000/svg" width="207.42" height="261.573"><defs><clipPath id="a"><path data-name="パス 6938" d="M-1426.693 1899.544v-104.665l-81.4-69.774-81.4 69.774v104.665z" fill="none" stroke="#fff079" stroke-linecap="round" stroke-linejoin="round" stroke-width="6"/></clipPath><clipPath id="b"><path data-name="長方形 2229" transform="translate(503.554 5168.52)" fill="#fff" d="M0 0h69v19H0z"/></clipPath></defs><g data-name="グループ 2791"><g data-name="グループ 2467"><path data-name="パス 7330" d="M185.747 177.439V72.774L104.347 3l-81.4 69.774v104.665z" fill="#fff" stroke="#fff079" stroke-linecap="round" stroke-linejoin="round" stroke-width="6"/><g data-name="マスクグループ 52" transform="translate(1612.44 -1722.105)" clip-path="url(#a)"><g data-name="グループ 2462"><g data-name="グループ 2461" fill="none" stroke="#fff079" stroke-miterlimit="10" stroke-width="3.163"><path data-name="線 2091" d="M-805.827 1717l-189.81 189.826"/><path data-name="線 2092" d="M-819.592 1717l-189.81 189.826"/><path data-name="線 2093" d="M-833.357 1717l-189.811 189.826"/><path data-name="線 2094" d="M-847.122 1717l-189.811 189.826"/><path data-name="線 2095" d="M-860.888 1717l-189.811 189.826"/><path data-name="線 2096" d="M-874.654 1717l-189.811 189.826"/><path data-name="線 2097" d="M-888.419 1717l-189.811 189.826"/><path data-name="線 2098" d="M-902.185 1717l-189.811 189.826"/><path data-name="線 2099" d="M-915.951 1717l-189.811 189.826"/><path data-name="線 2100" d="M-929.716 1717l-189.811 189.826"/><path data-name="線 2101" d="M-943.482 1717l-189.811 189.826"/><path data-name="線 2102" d="M-957.247 1717l-189.811 189.826"/><path data-name="線 2103" d="M-971.013 1717l-189.811 189.826"/><path data-name="線 2104" d="M-984.779 1717l-189.811 189.826"/><path data-name="線 2105" d="M-998.544 1717l-189.811 189.826"/><path data-name="線 2106" d="M-1012.31 1717l-189.811 189.826"/><path data-name="線 2107" d="M-1026.076 1717l-189.811 189.826"/><path data-name="線 2108" d="M-1039.841 1717l-189.811 189.826"/><path data-name="線 2109" d="M-1053.606 1717l-189.812 189.826"/><path data-name="線 2110" d="M-1067.371 1717l-189.812 189.826"/><path data-name="線 2111" d="M-1081.137 1717l-189.812 189.826"/><path data-name="線 2112" d="M-1094.903 1717l-189.812 189.826"/><path data-name="線 2113" d="M-1108.668 1717l-189.812 189.826"/><path data-name="線 2114" d="M-1122.434 1717l-189.812 189.826"/><path data-name="線 2115" d="M-1136.199 1717l-189.812 189.826"/><path data-name="線 2116" d="M-1149.965 1717l-189.812 189.826"/><path data-name="線 2117" d="M-1163.731 1717l-189.812 189.826"/><path data-name="線 2118" d="M-1177.496 1717l-189.812 189.826"/><path data-name="線 2119" d="M-1191.262 1717l-189.812 189.826"/><path data-name="線 2120" d="M-1205.028 1717l-189.812 189.826"/><path data-name="線 2121" d="M-1218.793 1717l-189.812 189.826"/><path data-name="線 2122" d="M-1232.559 1717l-189.812 189.826"/><path data-name="線 2123" d="M-1246.324 1717l-189.812 189.826"/><path data-name="線 2124" d="M-1260.09 1717l-189.812 189.826"/><path data-name="線 2125" d="M-1273.855 1717l-189.813 189.826"/><path data-name="線 2126" d="M-1287.62 1717l-189.813 189.826"/><path data-name="線 2127" d="M-1301.386 1717l-189.813 189.826"/><path data-name="線 2128" d="M-1315.152 1717l-189.813 189.826"/><path data-name="線 2129" d="M-1328.917 1717l-189.813 189.826"/><path data-name="線 2130" d="M-1342.683 1717l-189.813 189.826"/><path data-name="線 2131" d="M-1356.448 1717l-189.813 189.826"/><path data-name="線 2132" d="M-1370.214 1717l-189.813 189.826"/><path data-name="線 2133" d="M-1383.98 1717l-189.813 189.826"/><path data-name="線 2134" d="M-1397.745 1717l-189.813 189.826"/><path data-name="線 2135" d="M-1411.511 1717l-189.813 189.826"/><path data-name="線 2136" d="M-1425.276 1717l-189.813 189.826"/><path data-name="線 2137" d="M-1439.042 1717l-189.813 189.826"/><path data-name="線 2138" d="M-1452.808 1717l-189.813 189.826"/><path data-name="線 2139" d="M-1466.573 1717l-189.813 189.826"/><path data-name="線 2140" d="M-1480.339 1717l-189.813 189.826"/><path data-name="線 2141" d="M-1494.104 1717l-189.814 189.826"/><path data-name="線 2142" d="M-1507.869 1717l-189.814 189.826"/><path data-name="線 2143" d="M-1521.635 1717l-189.814 189.826"/><path data-name="線 2144" d="M-1535.4 1717l-189.814 189.826"/><path data-name="線 2145" d="M-1549.166 1717l-189.814 189.826"/><path data-name="線 2146" d="M-1562.932 1717l-189.814 189.826"/><path data-name="線 2147" d="M-1576.697 1717l-189.814 189.826"/><path data-name="線 2148" d="M-1590.463 1717l-189.814 189.826"/><path data-name="線 2149" d="M-1604.228 1717l-189.814 189.826"/><path data-name="線 2150" d="M-1617.994 1717l-189.814 189.826"/><path data-name="線 2151" d="M-1631.76 1717l-189.814 189.826"/><path data-name="線 2152" d="M-1645.525 1717l-189.814 189.826"/><path data-name="線 2153" d="M-1659.291 1717l-189.814 189.826"/><path data-name="線 2154" d="M-1673.057 1717l-189.814 189.826"/><path data-name="線 2155" d="M-1686.822 1717l-189.814 189.826"/><path data-name="線 2156" d="M-1700.588 1717l-189.814 189.826"/><path data-name="線 2157" d="M-1714.352 1717l-189.815 189.826"/><path data-name="線 2158" d="M-1728.118 1717l-189.815 189.826"/><path data-name="線 2159" d="M-1741.884 1717l-189.815 189.826"/><path data-name="線 2160" d="M-1755.649 1717l-189.815 189.826"/><path data-name="線 2161" d="M-1769.415 1717l-189.815 189.826"/><path data-name="線 2162" d="M-1783.18 1717l-189.815 189.826"/><path data-name="線 2163" d="M-1796.946 1717l-189.815 189.826"/><path data-name="線 2164" d="M-1810.712 1717l-189.815 189.826"/><path data-name="線 2165" d="M-1824.477 1717l-189.815 189.826"/><path data-name="線 2166" d="M-1838.243 1717l-189.815 189.826"/><path data-name="線 2167" d="M-1852.009 1717l-189.815 189.826"/><path data-name="線 2168" d="M-1865.774 1717l-189.815 189.826"/><path data-name="線 2169" d="M-1879.54 1717l-189.815 189.826"/><path data-name="線 2170" d="M-1893.305 1717l-189.815 189.826"/><path data-name="線 2171" d="M-1907.071 1717l-189.815 189.826"/><path data-name="線 2172" d="M-1920.837 1717l-189.815 189.826"/><path data-name="線 2173" d="M-1934.601 1717l-189.816 189.826"/><path data-name="線 2174" d="M-1948.367 1717l-189.816 189.826"/><path data-name="線 2175" d="M-1962.133 1717l-189.816 189.826"/><path data-name="線 2176" d="M-1975.898 1717l-189.816 189.826"/><path data-name="線 2177" d="M-1989.664 1717l-189.816 189.826"/><path data-name="線 2178" d="M-2003.429 1717l-189.816 189.826"/><path data-name="線 2179" d="M-2017.195 1717l-189.816 189.826"/><path data-name="線 2180" d="M-2030.961 1717l-189.816 189.826"/><path data-name="線 2181" d="M-2044.726 1717l-189.816 189.826"/><path data-name="線 2182" d="M-2058.492 1717l-189.816 189.826"/><path data-name="線 2183" d="M-2072.257 1717l-189.816 189.826"/><path data-name="線 2184" d="M-2086.023 1717l-189.816 189.826"/><path data-name="線 2185" d="M-2099.789 1717l-189.816 189.826"/><path data-name="線 2186" d="M-2113.554 1717l-189.816 189.826"/><path data-name="線 2187" d="M-2127.32 1717l-189.816 189.826"/><path data-name="線 2188" d="M-2141.086 1717l-189.816 189.826"/><path data-name="線 2189" d="M-2154.85 1717l-189.817 189.826"/><path data-name="線 2190" d="M-2168.616 1717l-189.817 189.826"/><path data-name="線 2191" d="M-2182.381 1717l-189.817 189.826"/><path data-name="線 2192" d="M-2196.147 1717l-189.817 189.826"/></g></g></g><path data-name="パス 7329" d="M185.747 177.439V72.774L104.347 3l-81.4 69.774v104.665z" fill="none" stroke="#fff079" stroke-linecap="round" stroke-linejoin="round" stroke-width="6"/></g><g data-name="グループ 2468"><path data-name="パス 9603" d="M41.614 102.895a2.151 2.151 0 01-1.564-.6 1.979 1.979 0 01-.61-1.474V83.685l.476.748-2.586 1.562a2.08 2.08 0 01-1.088.306 1.856 1.856 0 01-1.462-.663 2.117 2.117 0 01-.578-1.411 1.937 1.937 0 011.054-1.768l5.134-3.06a3.106 3.106 0 011.462-.306 1.9 1.9 0 011.445.595 2.073 2.073 0 01.561 1.479v19.654a1.953 1.953 0 01-.629 1.474 2.255 2.255 0 01-1.615.6zm19.1-14.25c.33-.69.6-1.38.81-1.92.18-.54.42-1.08.69-1.77l-4.2-.87a12.2 12.2 0 01-.42 2.19 13.627 13.627 0 01-1.68 3.84 20.325 20.325 0 01-4.56 5.1l3.51 2.04a26.65 26.65 0 004.14-5.22h5.25a13.466 13.466 0 01-4.95 9.72 13.577 13.577 0 01-2.7 1.59l3.72 2.49c4.77-2.94 7.2-7.41 7.71-13.8h3.66c.6 0 1.74.03 2.64.12v-3.66a20.621 20.621 0 01-2.64.15zm28.68 4.44c.12-1.26.18-2.52.21-3.66h12.036v3.66zm12.246-10.71v3.66H89.61v-3.66zm3.778-3.48h-19.5v9.87c0 4.56-.42 10.29-4.95 14.16a14.09 14.09 0 012.76 2.58 16.138 16.138 0 005.07-8.97h12.842v4.35c0 .63-.24.87-.96.87-.66 0-3.18.03-5.28-.09a15.315 15.315 0 011.5 3.75c3.09 0 5.19-.06 6.63-.69 1.38-.6 1.89-1.62 1.89-3.78zm25.17 9.33a30.587 30.587 0 00-4.74-7.2l-3.24 1.62a30.573 30.573 0 014.47 7.44zm-5.49 5.31c-1.5.6-3.03 1.23-4.53 1.86l-.54-16.23-3.72.15.6 17.52c-1.5.6-2.85 1.08-3.99 1.47l1.2 3.81c3.39-1.41 7.83-3.3 11.79-5.07zm16.29 8.97a65.429 65.429 0 00-6.66-7.71c1.95-4.08 3.03-9.09 3.66-15.24l-3.93-.36c-1.11 12.33-4.2 19.59-13.71 23.19a20.975 20.975 0 012.85 3.15 21.421 21.421 0 009.12-7.29 52.562 52.562 0 015.61 7.23zm18.42-2.07v-10.38h10.59v-3.63h-10.59v-8.58h-3.84v22.59h-10.74v3.6h27.27v-3.6zM13.34 138.495l-1.48.62a15.431 15.431 0 011.56 2.78l1.52-.68a26.213 26.213 0 00-1.6-2.72zm2.24-.92l-1.46.68a17.6 17.6 0 011.64 2.7l1.5-.72a29.915 29.915 0 00-1.68-2.66zM0 135.215l.26 2.72c2.3-.5 6.46-.94 8.18-1.12a7.854 7.854 0 00-2.92 6.1c0 4.3 3.92 6.54 8.08 6.8l.92-2.74c-3.36-.16-6.4-1.34-6.4-4.6a6.012 6.012 0 014.18-5.54 20.453 20.453 0 013.82-.26l-.02-2.56c-1.4.06-3.56.18-5.6.34-3.62.32-6.9.62-8.56.76-.38.04-1.14.08-1.94.1zm22.78 7.54a13.224 13.224 0 00-.38 2.86c0 2.72 2.26 4.24 6.8 4.24a31.593 31.593 0 006.88-.66l-.02-2.8a28.086 28.086 0 01-6.96.78c-2.86 0-4.04-.92-4.04-2.18a8.15 8.15 0 01.32-2zm11.06-9.62a15.22 15.22 0 01.86 1.44c-1.52.14-3.7.26-5.6.26a51.228 51.228 0 01-5.38-.24v2.64c1.6.12 3.32.22 5.4.22 1.88 0 4.34-.14 5.72-.24v-2.38c.2.4.4.78.56 1.1l1.62-.7c-.38-.74-1.1-2-1.6-2.74zm2.36-.9a21.2 21.2 0 011.62 2.76l1.58-.68a22.078 22.078 0 00-1.62-2.72zm11.78 7.82h3.44v-2.18h-3.44v-2.98a26 26 0 003.38-1.04l-1.68-1.84a33.775 33.775 0 01-8.04 2.06 7.462 7.462 0 01.68 1.86c1.08-.14 2.22-.32 3.36-.54v2.48h-3.8v2.18h3.34a19.373 19.373 0 01-3.8 5.76 13.386 13.386 0 011.2 2.32 19.9 19.9 0 003.06-4.7v7.16h2.3v-6.9c.8.82 1.64 1.72 2.12 2.34l1.38-2.04c-.54-.42-2.52-2.12-3.5-2.86zm6.7-5.68h-2.32v11.18h2.32zm2.4-2.04v15.38c0 .36-.16.48-.54.5-.42 0-1.7 0-3-.06a9.128 9.128 0 01.82 2.46 9.848 9.848 0 003.98-.46c.82-.38 1.1-1.04 1.1-2.42v-15.4zm16.46 10.22v-2.46h4.22v2.46zm-6.22 0c.04-.74.06-1.46.06-2.1v-.36h3.76v2.46zm3.82-7v2.32h-3.76v-2.32zm6.62 2.32h-4.22v-2.32h4.22zm2.36-4.58h-15.1v7.14c0 2.8-.18 6.36-2.36 8.76a8.785 8.785 0 011.88 1.54 11.453 11.453 0 002.52-5.94h4.08v5.58h2.4v-5.58h4.22v3c0 .36-.14.48-.52.48-.36 0-1.68.02-2.8-.04a8.992 8.992 0 01.76 2.28 9.288 9.288 0 003.84-.42c.8-.36 1.08-1 1.08-2.28zm8.68 12c-.74 0-1.54-.98-1.54-2.98a6.21 6.21 0 015.02-5.74 31.791 31.791 0 01-1.06 4.8c-.8 2.68-1.6 3.92-2.42 3.92zm5.44 4.42c5-.76 7.56-3.72 7.56-7.88 0-4.32-3.1-7.74-8-7.74-5.14 0-9.12 3.92-9.12 8.48 0 3.34 1.86 5.76 4.04 5.76 2.16 0 3.88-2.44 5.06-6.44a43.042 43.042 0 001.18-5.38c2.66.46 4.14 2.5 4.14 5.24a5.362 5.362 0 01-4.5 5.3c-.52.12-1.08.22-1.84.32zm29.32-12.3v-2.28h-7.9v-3.26h-2.46v3.26h-7.66v2.28h5.72c-.22 4.28-.68 8.84-6.08 11.34a7.6 7.6 0 011.68 2.02 11.74 11.74 0 006.42-8.52h5.5c-.28 3.64-.64 5.38-1.16 5.82a1.284 1.284 0 01-.96.26c-.58 0-1.98 0-3.36-.14a5.535 5.535 0 01.84 2.34 27.393 27.393 0 003.42 0 2.953 2.953 0 002.16-.92c.8-.88 1.22-3.12 1.58-8.56a9.73 9.73 0 00.08-1.04h-7.72c.1-.86.16-1.74.22-2.6zm5.14-4.14a14.861 14.861 0 01-.18 1.94 58.7 58.7 0 00-.82 8.26 23.891 23.891 0 00.78 6.32l2.24-.16c-.02-.28-.02-.62-.02-.82a3.91 3.91 0 01.1-.92 47.248 47.248 0 011.42-4.72l-1.22-.98c-.3.66-.62 1.32-.88 2.02a9.167 9.167 0 01-.08-1.28 52.381 52.381 0 01.94-7.66 16.645 16.645 0 01.48-1.76zm10 12.3c0 1.16-.42 1.8-1.64 1.8-1.04 0-1.84-.36-1.84-1.16 0-.74.76-1.2 1.88-1.2a6.175 6.175 0 011.6.22zm6.26.8a12.572 12.572 0 00-3.82-2.56c-.08-1.34-.18-2.92-.22-4.84 1.08-.08 2.12-.2 3.08-.34v-2.46c-.94.2-1.98.34-3.06.46 0-.88.04-1.62.06-2.06a12.649 12.649 0 01.12-1.28h-2.84a11.207 11.207 0 01.12 1.3c.02.42.02 1.22.04 2.2-.46.02-.94.02-1.4.02a32.842 32.842 0 01-3.46-.18v2.36c1.18.08 2.3.12 3.46.12.46 0 .94 0 1.42-.02.02 1.4.08 2.84.14 4.06a8.9 8.9 0 00-1.3-.08c-2.7 0-4.4 1.38-4.4 3.4 0 2.08 1.72 3.24 4.44 3.24 2.68 0 3.76-1.36 3.88-3.24a20.2 20.2 0 012.4 1.98zm19.44 2.96c-.04-.6-.08-1.66-.08-2.36v-10.36c0-.58.04-1.38.06-1.84-.34.02-1.18.04-1.76.04h-10.06c-.7 0-1.74-.04-2.48-.12v2.78c.56-.04 1.64-.08 2.48-.08h8.98v8.28h-9.22c-.9 0-1.8-.06-2.5-.12v2.86c.66-.06 1.8-.12 2.58-.12h9.12c0 .38 0 .72-.02 1.04zm15.4-9.9v-3.18a32.287 32.287 0 003.36-.66c.34-.08.86-.22 1.54-.38l-1.64-2.2a21.678 21.678 0 01-5.04 1.2 47.2 47.2 0 01-6.82.32l.62 2.32c1.34-.04 3.44-.1 5.36-.26v2.84h-5.64a17.41 17.41 0 01-1.84-.12v2.58c.52-.04 1.26-.08 1.88-.08h5.5a7.916 7.916 0 01-5.02 6.5l2.54 1.72a10.019 10.019 0 005.12-8.22h5.18c.54 0 1.22.04 1.76.08v-2.58c-.44.04-1.4.12-1.82.12zm25.84-1.18a4.219 4.219 0 01-1.46.2h-9.9c-.62 0-1.48-.04-2.32-.12v2.6c.84-.08 1.84-.1 2.32-.1h9.66a8.677 8.677 0 01-2.06 3.46 13.479 13.479 0 01-6.94 3.5l2 2.26a14.976 14.976 0 007.14-4.32 14.373 14.373 0 002.96-5.54 7.409 7.409 0 01.38-.84zm-11.84-2.12c.58-.04 1.44-.06 2.08-.06h7.66c.72 0 1.66.02 2.2.06v-2.58a18.856 18.856 0 01-2.16.1h-7.7a16.859 16.859 0 01-2.08-.1z"/><g data-name="マスクグループ 38" transform="translate(-395.614 -5064.625)" clip-path="url(#b)"><path data-name="パス 6982" d="M449.095 5176.032c3.707 0 3.707 4.342 7.414 4.342s3.706-4.342 7.413-4.342 3.707 4.342 7.413 4.342 3.706-4.342 7.413-4.342 3.707 4.342 7.413 4.342 3.707-4.342 7.413-4.342 3.707 4.342 7.414 4.342 3.707-4.342 7.413-4.342 3.707 4.342 7.414 4.342 3.707-4.342 7.414-4.342 3.707 4.342 7.414 4.342 3.707-4.342 7.414-4.342 3.707 4.342 7.414 4.342 3.707-4.342 7.414-4.342 3.707 4.342 7.414 4.342 3.707-4.342 7.413-4.342 3.707 4.342 7.414 4.342 3.707-4.342 7.414-4.342 3.707 4.342 7.415 4.342 3.707-4.342 7.415-4.342 3.708 4.342 7.415 4.342 3.708-4.342 7.415-4.342" fill="none" stroke="#000" stroke-miterlimit="10" stroke-width="3"/></g></g><g data-name="グループ 2425" transform="translate(-287 -5205.105)"><circle data-name="楕円形 299" cx="2.5" cy="2.5" r="2.5" transform="translate(388.5 5403)" fill="#333"/><circle data-name="楕円形 300" cx="2.5" cy="2.5" r="2.5" transform="translate(388.5 5418)" fill="#333"/><circle data-name="楕円形 301" cx="2.5" cy="2.5" r="2.5" transform="translate(388.5 5433)" fill="#333"/><circle data-name="楕円形 302" cx="2.5" cy="2.5" r="2.5" transform="translate(388.5 5448)" fill="#333"/><path data-name="パス 6985" d="M381.94 5455.42l9.136 9.136 9.136-9.136" fill="none" stroke="#333" stroke-linecap="round" stroke-width="3"/></g></g></svg>