<svg xmlns="http://www.w3.org/2000/svg" width="192.999" height="55.208"><path d="M97.346 6.613h11.38c-2.768 6.151-8.458 10.15-11.38 11.841V22.3a32.691 32.691 0 0010.15-7.843v14.916h3.383V13.687l10.3 7.074v-4l-10.15-7.074a18.679 18.679 0 001.384-3.076h8.766V3.229H97.346v3.384m78.583-4.152h-3.383v1.845h-10.61v3.383h4.765V10h-4.46v7.228a33.018 33.018 0 01-2.307 12.456h3.691a37.152 37.152 0 002.153-12.456v-3.849h19.838V10h-3.691V7.689h3.691V4.306h-9.535V2.461zm2.461 5.229V10h-8.3V7.689zm-98.114 7.073c.154-3.845-1.076-5.844-2-6.92a5.942 5.942 0 00-4.152-1.692h-2.613c.154-2.768.308-4.46.308-4.767h-3.845s0 2-.308 4.921c-2 0-4 .154-4.767.154V10.3l4.302-.15a62.056 62.056 0 01-4.767 18.3h4.152a70.146 70.146 0 004.46-18.3l3.076-.154a2.48 2.48 0 011.384.461q1.153 1.153.923 4.152v.154c-.154 3.537-.461 9.535-1.845 10.611a4.766 4.766 0 01-2.614.769v3.845a10.432 10.432 0 004.923-1.688c2.768-2.153 3.076-8 3.383-13.533zM27.067 12.61c-1.538-5.536-6.151-8.919-12.3-8.919C5.23 3.691.924 11.226.155 17.531c-.769 6 1.384 10.919 5.229 11.841a4.094 4.094 0 003.076-.615c4.152-2.922 6.766-15.071 7.689-21.222a8.072 8.072 0 017.228 6 9.464 9.464 0 01.308 2.922 12.8 12.8 0 01-6.151 10.919l2 3.229a16.393 16.393 0 007.533-17.995zM6.153 25.682c-1.23-.461-2.307-2.768-2.307-5.844a7.487 7.487 0 01.155-1.845c.615-4.46 3.076-9.227 8.458-10.3-1.693 9.685-4.769 17.374-6.306 17.989zm82.274-3.537a51.658 51.658 0 00-2.461-16.916h-4.152s2.768 5.844 2.768 16.916zM50.289 8.458c-5.382-1.845-10.919.308-16.147 2.922l1.692 3.383c5.075-2.614 9.381-4 13.225-2.768a4.516 4.516 0 012.461 3.691 7.917 7.917 0 01-3.383 7.689 24.537 24.537 0 01-9.688 4l1.538 3.537a29 29 0 0010.457-4.46 11.936 11.936 0 004.921-11.38c-.77-3.231-2.616-5.845-5.076-6.614zm83.5 13.533h-5.378v2.922h5.382V26.3l-5.382.461v2.919l13.841-1.23v-2.922l-5.382.461v-1.076h5.382v-2.922h-5.382v-.769h5.382V10.457h-5.382v-.769h5.382V6.766h-5.382V5.69c2.461-.154 4.306-.308 5.382-.461V2.461c-1.845.154-7.382.615-13.841.615V6c1.845 0 3.691 0 5.382-.154v.923h-5.382v2.922h5.382v.769h-5.382v10.608h5.382zm3.076-7.535v-.923h2.307v.923zm0 3.691v-.923h2.307v.923zm-5.382-3.691v-.923h2.307v.923zm0 3.691v-.923h2.307v.923zM154.554 8h-5.844V2.461h-3.229V8h-2.307v3.229h2.307v6.459a35.73 35.73 0 01-2.153 12.61h3.537a38.161 38.161 0 002-12.61v-6.462h2.614v13.687c0 1.384-.615 2.153-2 2.153V30.3a5.085 5.085 0 005.382-5.382V8zm23.683 16.916h5.536V21.53h-5.536v-1.538h6.305v-3.383h-6.305V14.3h-3.383v2.307h-3.845V14.3h-3.383v10.767h7.228v1.384h-8.613v3.383h19.223v-3.383h-7.228zm-3.383-4.767v1.538h-3.845v-1.541zM52.134 1.692A102.062 102.062 0 0038.755 0l-.308 3.845a87.946 87.946 0 0112.764 1.537zM17.84 41.829a3.938 3.938 0 00-2.922 1.23c-1.076 1.076-1.076 2.461-1.076 4.306s0 3.229 1.076 4.306a4.085 4.085 0 005.844 0c1.076-1.076 1.076-2.461 1.076-4.306s0-3.229-1.076-4.306a3.938 3.938 0 00-2.922-1.23zm1.384 8.612a1.949 1.949 0 01-1.384.615 1.5 1.5 0 01-1.384-.615c-.461-.461-.461-.923-.461-3.076 0-2 .154-2.614.461-3.076a1.865 1.865 0 012.768 0c.461.461.461.923.461 3.076s.001 2.615-.461 3.076zm-12-1.845l-4.301-6.613H1.078v10.765h2.153v-6.613l4.306 6.613h1.845V41.983H7.229zm27.377-6.613h-2.613l-3.844 4.767v-4.767h-2.153v10.765h2.153v-3.23l1.384-1.692 2.768 4.921h2.461l-3.845-6.459zm6.92 0l-4 10.765h2.153l.619-1.848h3.845l.615 1.845h2.307l-4-10.765h-1.537zm-.461 7.074l1.384-3.845 1.384 3.845zm112.416 6.151l2.153-1.692v-3.075h-2.153zm-4.614-5.075a1.213 1.213 0 00-1.23 1.23 1.356 1.356 0 001.23 1.384 1.378 1.378 0 001.384-1.384 1.635 1.635 0 00-1.382-1.23zm14.763-8.151h-2.153v10.766h6.92V50.9h-4.921v-8.917zM56.132 52.748h7.074V50.9h-4.921v-2.612h4.306v-1.845h-4.306v-2.461h4.921v-1.845h-7.074zm135.483-2.614a1.356 1.356 0 00-1.384 1.23 1.384 1.384 0 102.768 0 1.635 1.635 0 00-1.383-1.231zm-7.843-4.614a2.2 2.2 0 00-2-.769 2.3 2.3 0 00-1.845.769c-.769.769-.769 2.153-.769 3.383s0 2.614.769 3.383a2.924 2.924 0 002 .769 2.546 2.546 0 002-.769v.769h1.845V42.291h-2zm-1.23 5.536c-1.23 0-1.384-.923-1.384-2.307 0-1.23.154-2.307 1.384-2.307s1.384.923 1.384 2.307c-.153 1.384-.307 2.307-1.383 2.307zm-42.141-6.305a3.334 3.334 0 00-2.461.923 3.909 3.909 0 00-.923 3.076 3.909 3.909 0 00.923 3.076 3.742 3.742 0 004.921 0 3.909 3.909 0 00.923-3.076 3.909 3.909 0 00-.923-3.076 3.965 3.965 0 00-2.46-.923zm.923 6a1.3 1.3 0 01-.923.308 1.649 1.649 0 01-.923-.308c-.461-.461-.461-1.076-.461-2a2.79 2.79 0 01.461-2 1.538 1.538 0 011.845 0c.461.461.461 1.076.461 2a3.49 3.49 0 01-.455 1.998zm32.91-8h-2v2.307h-.769V46.6h.769v3.845a2.167 2.167 0 002.307 2.307h1.076v-1.696h-.769c-.461 0-.615-.308-.615-.769v-3.844h1.384V44.9h-1.384v-2.148zm-43.059 1.076a1.893 1.893 0 011.538.769l1.384-1.384a4.043 4.043 0 00-3.076-1.23 3.938 3.938 0 00-2.922 1.23c-1.076 1.076-1.076 2.461-1.076 4.306s0 3.229 1.076 4.306a3.938 3.938 0 002.922 1.23 4.294 4.294 0 003.076-1.23l-1.384-1.384a2.135 2.135 0 01-1.538.769 1.5 1.5 0 01-1.384-.615c-.461-.461-.461-.923-.461-3.076 0-2 .154-2.614.461-3.076a1.5 1.5 0 011.388-.614zm-52.748 0h2.774v8.919h2.153v-8.918h2.768v-1.845h-7.691zm-6 2.614l-1.23-.154a1.4 1.4 0 01-1.076-.461c-.154-.308-.308-.461-.308-.769 0-.769.615-1.384 1.692-1.384a2.878 2.878 0 012.153.769l1.384-1.384a4.543 4.543 0 00-3.537-1.23c-2.307 0-3.691 1.384-3.691 3.229a3.334 3.334 0 00.769 2.153 3.99 3.99 0 002.153.923l1.23.154a1.3 1.3 0 01.923.308 1.13 1.13 0 01.308.923q.004 1.382-1.84 1.382a3.075 3.075 0 01-2.614-.923l-1.384 1.384a5.119 5.119 0 004 1.384c2.307 0 4-1.23 4-3.229a3.777 3.777 0 00-.769-2.307 7.021 7.021 0 00-2.157-.766zm19.377-4.46l-4 10.765h2.307l.623-1.846h3.845l.615 1.845h2.153l-4-10.765H91.81zm-.461 7.074l1.384-3.845s1.73 2.883 1.384 3.845-2.762.002-2.762.002zm7.689-5.229h2.768v8.919h2.153v-8.917h2.768v-1.845h-7.683zm11.841 8.919h7.074V50.9h-5.075v-2.612h4.306v-1.845h-4.306v-2.461h5.075v-1.845h-7.074z" fill="#fff"/></svg>