<svg xmlns="http://www.w3.org/2000/svg" width="144.954" height="67.747"><g data-name="グループ 2808"><g data-name="グループ 2798"><g data-name="グループ 2786"><path data-name="パス 9601" d="M116.93 67.539c.946.538 2.13-.035 1.926-.972l-1.926-6.311h10.929c9.2 0 16.655-6.177 16.655-13.8V17.607c0-7.621-7.456-13.8-16.655-13.8H20.214c-9.199-.016-16.655 6.176-16.655 13.8v28.852c0 7.621 7.456 13.8 16.655 13.8h80.863z"/></g><g data-name="グループ 2785"><path data-name="パス 9601" d="M112.371 63.1c.946.516 2.189-.133 1.984-1.031l-1.428-5.951H126.3c9.2 0 16.655-5.921 16.655-13.227V15.227C142.954 7.921 135.5 2 126.3 2H18.655C9.456 1.985 2 7.921 2 15.227v27.662c0 7.306 7.456 13.227 16.655 13.227h80.863z" fill="#fde94c" stroke="#000" stroke-width="4"/></g><path data-name="パス 9616" d="M34.77 21.485a1.274 1.274 0 01.732.984 1.479 1.479 0 01-.348 1.224 1.091 1.091 0 01-.8.48 1.867 1.867 0 01-1-.192 6.17 6.17 0 00-1.212-.408 6.016 6.016 0 00-1.332-.144 6.194 6.194 0 00-2.316.408 4.861 4.861 0 00-1.74 1.164 5.033 5.033 0 00-1.092 1.788 6.682 6.682 0 00-.372 2.28 7 7 0 00.42 2.544 4.968 4.968 0 001.164 1.8 4.683 4.683 0 001.752 1.068 6.65 6.65 0 002.184.348 7.1 7.1 0 001.3-.12 4.448 4.448 0 001.248-.432 1.706 1.706 0 011-.168 1.257 1.257 0 01.828.5 1.448 1.448 0 01.34 1.24 1.265 1.265 0 01-.732.924 8.44 8.44 0 01-1.284.516 9.739 9.739 0 01-1.332.312 8.608 8.608 0 01-1.368.108 9.68 9.68 0 01-3.276-.552 8.3 8.3 0 01-2.76-1.632 7.544 7.544 0 01-1.908-2.7 9.448 9.448 0 01-.7-3.756 8.943 8.943 0 01.636-3.408 7.915 7.915 0 011.8-2.7 8.3 8.3 0 012.748-1.776 9.191 9.191 0 013.456-.636 8.88 8.88 0 012.064.24 8.385 8.385 0 011.9.696zm6.024-.816a1.442 1.442 0 011.02.42 1.379 1.379 0 01.444 1.044v13.872a1.362 1.362 0 01-.456 1.044 1.511 1.511 0 01-1.056.42 1.437 1.437 0 01-1.08-.42 1.439 1.439 0 01-.408-1.044V22.133a1.4 1.4 0 01.432-1.044 1.518 1.518 0 011.104-.42zm10.632 0a1.437 1.437 0 011.08.42 1.439 1.439 0 01.408 1.044v13.872a1.417 1.417 0 01-.42 1.044 1.508 1.508 0 01-1.116.42 1.442 1.442 0 01-1.02-.42 1.379 1.379 0 01-.444-1.044V22.133a1.362 1.362 0 01.456-1.044 1.511 1.511 0 011.056-.42zm-10.7 6.984h10.7v2.76h-10.7zm32.444 1.416a9.28 9.28 0 01-.6 3.36 8.557 8.557 0 01-1.692 2.748 7.827 7.827 0 01-2.592 1.86 7.921 7.921 0 01-3.276.672 7.838 7.838 0 01-3.264-.672 7.861 7.861 0 01-2.58-1.86 8.557 8.557 0 01-1.692-2.748 9.28 9.28 0 01-.6-3.36 9.28 9.28 0 01.6-3.36 8.557 8.557 0 011.692-2.748 7.861 7.861 0 012.58-1.86 7.838 7.838 0 013.264-.672 7.921 7.921 0 013.276.672 7.827 7.827 0 012.592 1.86 8.557 8.557 0 011.692 2.748 9.28 9.28 0 01.6 3.36zm-3.12 0a6.478 6.478 0 00-.648-2.916 5.3 5.3 0 00-1.776-2.076 4.536 4.536 0 00-2.616-.768 4.536 4.536 0 00-2.616.768 5.229 5.229 0 00-1.768 2.064 6.559 6.559 0 00-.632 2.928 6.58 6.58 0 00.632 2.916 5.21 5.21 0 001.764 2.076 4.536 4.536 0 002.616.768 4.536 4.536 0 002.62-.768 5.3 5.3 0 001.776-2.076 6.478 6.478 0 00.648-2.916zm10.076 6.936a1.362 1.362 0 01-.452 1.044 1.511 1.511 0 01-1.056.42 1.437 1.437 0 01-1.08-.42 1.439 1.439 0 01-.412-1.044V22.133a1.4 1.4 0 01.432-1.044 1.518 1.518 0 011.1-.42 1.442 1.442 0 011.02.42 1.379 1.379 0 01.448 1.044zm16.56-14.52a1.274 1.274 0 01.74.984 1.479 1.479 0 01-.348 1.224 1.091 1.091 0 01-.8.48 1.867 1.867 0 01-1-.192 6.17 6.17 0 00-1.212-.408 6.016 6.016 0 00-1.34-.144 6.194 6.194 0 00-2.316.408 4.861 4.861 0 00-1.74 1.164 5.033 5.033 0 00-1.088 1.788 6.682 6.682 0 00-.372 2.28 7 7 0 00.416 2.544 4.968 4.968 0 001.164 1.8 4.683 4.683 0 001.756 1.068 6.65 6.65 0 002.18.348 7.1 7.1 0 001.3-.12 4.448 4.448 0 001.248-.432 1.706 1.706 0 011-.168 1.257 1.257 0 01.828.5 1.448 1.448 0 01.344 1.24 1.265 1.265 0 01-.732.924 8.44 8.44 0 01-1.288.516 9.739 9.739 0 01-1.332.312 8.608 8.608 0 01-1.368.108 9.68 9.68 0 01-3.276-.552 8.3 8.3 0 01-2.76-1.632 7.544 7.544 0 01-1.908-2.7 9.448 9.448 0 01-.7-3.756 8.943 8.943 0 01.644-3.408 7.915 7.915 0 011.8-2.7 8.3 8.3 0 012.748-1.776 9.191 9.191 0 013.452-.636 8.88 8.88 0 012.064.24 8.385 8.385 0 011.9.696zm5.952-.816h8.04a1.463 1.463 0 011.048.4 1.339 1.339 0 01.42 1.02 1.237 1.237 0 01-.42.972 1.517 1.517 0 01-1.044.372h-6.72l.216-.408v4.68l-.192-.196h5.616a1.463 1.463 0 011.044.4 1.339 1.339 0 01.42 1.02 1.237 1.237 0 01-.42.972 1.517 1.517 0 01-1.044.372h-5.544l.12-.192v4.848l-.192-.22h6.7a1.417 1.417 0 011.04.42 1.334 1.334 0 01.42.972 1.274 1.274 0 01-.42.984 1.489 1.489 0 01-1.044.384h-8.04a1.417 1.417 0 01-1.044-.42 1.417 1.417 0 01-.42-1.044V22.133a1.417 1.417 0 01.42-1.044 1.417 1.417 0 011.044-.42zm14.888 11.5q-.816 0-.888-.912l-.7-8.832a1.649 1.649 0 01.4-1.248 1.477 1.477 0 011.164-.5 1.513 1.513 0 011.176.5 1.553 1.553 0 01.384 1.248l-.676 8.828q-.072.916-.86.916zm-.172 5.3a1.445 1.445 0 01-1.068-.372 1.445 1.445 0 01-.372-1.068v-.408a1.445 1.445 0 01.372-1.068 1.445 1.445 0 011.068-.372h.312a1.445 1.445 0 011.068.372 1.445 1.445 0 01.372 1.068v.408a1.445 1.445 0 01-.372 1.068 1.445 1.445 0 01-1.068.372zm7.772-5.3q-.816 0-.888-.912l-.7-8.832a1.649 1.649 0 01.4-1.248 1.477 1.477 0 011.164-.5 1.513 1.513 0 011.176.5 1.553 1.553 0 01.384 1.248l-.672 8.832q-.064.912-.864.912zm-.164 5.3a1.445 1.445 0 01-1.068-.372 1.445 1.445 0 01-.368-1.068v-.408a1.445 1.445 0 01.372-1.068 1.445 1.445 0 011.068-.372h.312a1.445 1.445 0 011.068.372 1.445 1.445 0 01.372 1.068v.408a1.445 1.445 0 01-.372 1.068 1.445 1.445 0 01-1.072.372z"/></g></g></svg>