<svg xmlns="http://www.w3.org/2000/svg" width="770.141" height="143.317"><defs><clipPath id="a"><path data-name="長方形 2439" fill="none" d="M0 0h734.529v57.43H0z"/></clipPath></defs><g data-name="グループ 3177"><g data-name="グループ 2374"><g data-name="グループ 2360" fill="#fde94c"><path data-name="パス 6998" d="M80.134 82.715a11.649 11.649 0 00-6.772 1.112l-.089.045a20.394 20.394 0 01-5.7 1.974 34.142 34.142 0 01-6.216.575 31.87 31.87 0 01-10.424-1.653 21.594 21.594 0 01-8.062-4.91 23.116 23.116 0 01-5.381-8.347A33.77 33.77 0 0135.5 59.32a32.016 32.016 0 011.766-10.887 23.456 23.456 0 015.061-8.3 22.579 22.579 0 018.046-5.374 29.528 29.528 0 0110.983-1.919 28.5 28.5 0 016.3.68 29.33 29.33 0 015.706 1.915 12.464 12.464 0 006.641 1.254 8.463 8.463 0 006.111-3.56 10.519 10.519 0 002.354-8.5 9.414 9.414 0 00-5.293-7.154 46.636 46.636 0 00-10.457-3.839 49.231 49.231 0 00-11.358-1.321 50.711 50.711 0 00-18.977 3.5 46.055 46.055 0 00-15.174 9.813 43.991 43.991 0 00-9.974 14.954 49.416 49.416 0 00-3.512 18.738 51.98 51.98 0 003.84 20.594 42.065 42.065 0 0010.609 15 46.005 46.005 0 0015.245 9.016 53.272 53.272 0 0017.94 3.027 47.664 47.664 0 007.543-.6 53.621 53.621 0 007.294-1.708 46.622 46.622 0 007.049-2.829 9.38 9.38 0 005.323-6.746 10.321 10.321 0 00-2.336-8.7 9.258 9.258 0 00-6.096-3.659z"/><path data-name="パス 6999" d="M181.43 12.933a10.588 10.588 0 00-7.373 2.918 9.915 9.915 0 00-3.267 7.472v25.856h-34.15V23.321a9.888 9.888 0 00-3.179-7.449 10.229 10.229 0 00-7.211-2.942 10.616 10.616 0 00-7.677 2.971 9.981 9.981 0 00-3.088 7.42v72a10.2 10.2 0 002.907 7.363 10.176 10.176 0 007.608 3.027 10.586 10.586 0 007.372-2.918 9.913 9.913 0 003.268-7.472v-26.23h34.15v26.23a9.872 9.872 0 003.177 7.446 10.219 10.219 0 007.213 2.944 10.557 10.557 0 007.767-3 10.087 10.087 0 003-7.392V23.321a10.212 10.212 0 00-2.909-7.366 10.19 10.19 0 00-7.608-3.022z"/><path data-name="パス 7000" d="M287.553 25.731a43.621 43.621 0 00-14.367-10.312 44.1 44.1 0 00-18.143-3.731 43.651 43.651 0 00-18.09 3.735 43.769 43.769 0 00-14.3 10.308 47.386 47.386 0 00-9.332 15.149 51.16 51.16 0 00-3.3 18.441 51.14 51.14 0 003.3 18.44 47.345 47.345 0 009.331 15.149 43.734 43.734 0 0014.3 10.309 43.664 43.664 0 0018.089 3.735 44.1 44.1 0 0018.143-3.732 43.608 43.608 0 0014.367-10.312 47.4 47.4 0 009.331-15.149 51.177 51.177 0 003.3-18.44 51.2 51.2 0 00-3.3-18.441 47.434 47.434 0 00-9.329-15.149zm-32.51 60.691a20.619 20.619 0 01-12.006-3.5 24.385 24.385 0 01-8.215-9.688 31.536 31.536 0 01-3.02-13.912 31.436 31.436 0 013.016-13.967 24.487 24.487 0 018.22-9.633 20.624 20.624 0 0112.005-3.5 20.635 20.635 0 0112.005 3.5 24.915 24.915 0 018.287 9.706 31.021 31.021 0 013.073 13.894 31.013 31.013 0 01-3.073 13.894 24.9 24.9 0 01-8.286 9.706 20.63 20.63 0 01-12.008 3.499z"/><path data-name="パス 7001" d="M334.002 12.933a10.617 10.617 0 00-7.677 2.971 9.984 9.984 0 00-3.087 7.42v71.997a10.2 10.2 0 002.907 7.363 10.176 10.176 0 007.608 3.027 10.587 10.587 0 007.372-2.918 9.913 9.913 0 003.267-7.472v-72a9.886 9.886 0 00-3.18-7.449 10.226 10.226 0 00-7.21-2.939z"/><path data-name="パス 7002" d="M404.393 50.547H382.72a10.323 10.323 0 00-7.333 2.815 9.669 9.669 0 00-3.057 7.325 9.869 9.869 0 003.024 7.357 10.2 10.2 0 007.365 2.909h21.673a10.337 10.337 0 007.335-2.817 9.655 9.655 0 003.056-7.2 10.1 10.1 0 00-3-7.394 10.1 10.1 0 00-7.39-2.995z"/><path data-name="パス 7003" d="M498.66 57.807a33.7 33.7 0 00-10.251-5.249 102.978 102.978 0 00-13.48-3.327 69.978 69.978 0 01-9.457-2.451 12.14 12.14 0 01-5.131-3.089 6.142 6.142 0 01-1.465-4.3 5.83 5.83 0 011.268-3.749 9.709 9.709 0 014.328-2.852 23.411 23.411 0 018.054-1.194 23.056 23.056 0 016.214.953 45.587 45.587 0 016.687 2.463 19.932 19.932 0 014.692 2.87l.163.131a8.224 8.224 0 005.039 1.679 9.483 9.483 0 007.012-3.117 9.834 9.834 0 002.879-6.9c0-3.358-1.557-6.3-4.626-8.754a37.9 37.9 0 00-12.125-6.646 47.928 47.928 0 00-15.935-2.587 43 43 0 00-16.777 3.208 28.993 28.993 0 00-12.446 9.649 25.673 25.673 0 00-4.708 15.469 28.343 28.343 0 001.949 10.7 23.543 23.543 0 005.858 8.471 30.361 30.361 0 009.388 5.774 55.333 55.333 0 0012.487 3.227 50.379 50.379 0 0111.072 2.639 14.448 14.448 0 015.751 3.639A6.671 6.671 0 01486.67 79a4.939 4.939 0 01-1.574 3.593 13.906 13.906 0 01-5.2 3.193 21.5 21.5 0 01-7.5 1.259 26.807 26.807 0 01-10.426-1.769 36.992 36.992 0 01-8.755-5.467 9.354 9.354 0 00-5.979-2.105 9.657 9.657 0 00-7.2 3.057 9.875 9.875 0 00-2.815 6.959 10.526 10.526 0 001.165 4.733 12.568 12.568 0 003.165 3.982 40.507 40.507 0 0014.321 8.212 55.579 55.579 0 0016.526 2.307 42.646 42.646 0 0016.854-3.339 31.566 31.566 0 0012.89-9.838 25.1 25.1 0 005.06-15.648 30.548 30.548 0 00-2.088-11.861 21.007 21.007 0 00-6.454-8.461z"/><path data-name="パス 7004" d="M587.864 12.933h-55.3a10.616 10.616 0 00-7.269 2.633 9.393 9.393 0 00-3.12 7.259 9.581 9.581 0 003.086 7.29 10.459 10.459 0 007.3 2.726h16.764v62.48a9.981 9.981 0 003.087 7.42 10.614 10.614 0 007.677 2.97 11 11 0 007.834-2.942 9.878 9.878 0 003.179-7.448v-62.48h16.763a10.613 10.613 0 007.27-2.633 9.39 9.39 0 003.121-7.259 9.6 9.6 0 00-3.089-7.294 10.483 10.483 0 00-7.303-2.722z"/><path data-name="パス 7005" d="M658.217 19.181a10.145 10.145 0 00-3.834-4.959 10.082 10.082 0 00-5.592-1.787 9.3 9.3 0 00-6.117 1.59 10.87 10.87 0 00-4.079 5.11L607.58 93.62l-.1.273a11.116 11.116 0 00-.49 3.167 9.538 9.538 0 002.3 6.437 8.91 8.91 0 007.094 2.832 9.315 9.315 0 005.562-1.839 10.427 10.427 0 003.635-4.9l5.713-13.438h33.456l5.734 13.361a11.67 11.67 0 003.688 4.878 9.288 9.288 0 005.737 1.939 9.7 9.7 0 006.679-2.724 9.738 9.738 0 003.088-7.417 11.189 11.189 0 00-.807-3.99zM639.76 66.243l8.186-19.252 8.261 19.252z"/><path data-name="パス 7006" d="M766.961 15.501a10.087 10.087 0 00-7.086-2.942c-2.311 0-5.664.856-8.532 4.954l-18.291 26.763-19.645-27.113c-2.855-3.806-6.109-4.6-8.337-4.6a11.211 11.211 0 00-7.113 2.74 9.553 9.553 0 00-3.65 7.65 11.5 11.5 0 00.641 3.619 13.434 13.434 0 002.162 3.914l25.347 33.679v31.151a10.082 10.082 0 003 7.391 9.937 9.937 0 007.269 3 9.655 9.655 0 007.019-3 10.088 10.088 0 003-7.392V65.83l25.564-36.6a10.511 10.511 0 001.437-3.146 11.919 11.919 0 00.4-3.011 10.029 10.029 0 00-3.185-7.572z"/></g><g data-name="グループ 2361" fill="#fff"><path data-name="パス 7007" d="M70.41 75.028a11.65 11.65 0 00-6.772 1.113l-.089.045a20.346 20.346 0 01-5.7 1.974 34.143 34.143 0 01-6.216.575 31.869 31.869 0 01-10.424-1.653 21.594 21.594 0 01-8.062-4.91 23.109 23.109 0 01-5.381-8.347 33.767 33.767 0 01-1.99-12.191 32.019 32.019 0 011.766-10.887 23.453 23.453 0 015.061-8.3 22.588 22.588 0 018.046-5.374 29.531 29.531 0 0110.983-1.919 28.553 28.553 0 016.3.68 29.333 29.333 0 015.706 1.915 12.471 12.471 0 006.64 1.255 8.467 8.467 0 006.111-3.561 10.518 10.518 0 002.353-8.5 9.414 9.414 0 00-5.293-7.155 46.62 46.62 0 00-10.457-3.839 49.229 49.229 0 00-11.358-1.321 50.727 50.727 0 00-18.978 3.5 46.069 46.069 0 00-15.174 9.813 43.989 43.989 0 00-9.974 14.954 49.411 49.411 0 00-3.507 18.741A51.982 51.982 0 007.84 72.23a42.068 42.068 0 0010.609 15 45.994 45.994 0 0015.245 9.016 53.272 53.272 0 0017.94 3.027 47.665 47.665 0 007.543-.6 53.471 53.471 0 007.294-1.708 46.534 46.534 0 007.049-2.829 9.378 9.378 0 005.323-6.746 10.321 10.321 0 00-2.336-8.7 9.258 9.258 0 00-6.097-3.662z"/><path data-name="パス 7008" d="M171.706 5.244a10.585 10.585 0 00-7.372 2.919 9.913 9.913 0 00-3.267 7.472v25.856h-34.15V15.635a9.889 9.889 0 00-3.179-7.449 10.232 10.232 0 00-7.211-2.942 10.617 10.617 0 00-7.677 2.971 9.98 9.98 0 00-3.087 7.42v71.994a10.2 10.2 0 002.906 7.363 10.177 10.177 0 007.608 3.027 10.586 10.586 0 007.372-2.918 9.913 9.913 0 003.267-7.472v-26.23h34.15v26.23a9.871 9.871 0 003.177 7.446 10.22 10.22 0 007.213 2.944 10.554 10.554 0 007.767-3 10.088 10.088 0 003-7.392V15.633a10.212 10.212 0 00-2.909-7.366 10.19 10.19 0 00-7.608-3.023z"/><path data-name="パス 7009" d="M277.828 18.042a43.6 43.6 0 00-14.366-10.311 44.084 44.084 0 00-18.143-3.732 43.653 43.653 0 00-18.089 3.735 43.771 43.771 0 00-14.3 10.308 47.376 47.376 0 00-9.332 15.15 51.158 51.158 0 00-3.3 18.44 51.142 51.142 0 003.3 18.44 47.349 47.349 0 009.331 15.149 43.738 43.738 0 0014.3 10.309 43.653 43.653 0 0018.089 3.735 44.084 44.084 0 0018.143-3.732 43.6 43.6 0 0014.367-10.312 47.4 47.4 0 009.331-15.149 51.177 51.177 0 003.3-18.44 51.2 51.2 0 00-3.3-18.441 47.42 47.42 0 00-9.331-15.149zm-32.51 60.691a20.62 20.62 0 01-12.006-3.5 24.387 24.387 0 01-8.215-9.688 31.538 31.538 0 01-3.019-13.912 31.439 31.439 0 013.016-13.967 24.487 24.487 0 018.22-9.633 20.63 20.63 0 0112.005-3.5 20.641 20.641 0 0112.005 3.5 24.912 24.912 0 018.287 9.706 31.019 31.019 0 013.073 13.894 31.009 31.009 0 01-3.073 13.894 24.9 24.9 0 01-8.286 9.706 20.63 20.63 0 01-12.006 3.499z"/><path data-name="パス 7010" d="M324.278 5.244a10.618 10.618 0 00-7.677 2.971 9.983 9.983 0 00-3.087 7.42v71.994a10.2 10.2 0 002.907 7.363 10.176 10.176 0 007.608 3.027 10.587 10.587 0 007.372-2.918 9.913 9.913 0 003.268-7.472V15.635a9.887 9.887 0 00-3.18-7.449 10.23 10.23 0 00-7.211-2.942z"/><path data-name="パス 7011" d="M394.668 42.858h-21.673a10.323 10.323 0 00-7.333 2.815 9.67 9.67 0 00-3.057 7.326 9.869 9.869 0 003.024 7.356 10.2 10.2 0 007.366 2.909h21.673a10.339 10.339 0 007.334-2.816 9.658 9.658 0 003.056-7.2 10.1 10.1 0 00-3-7.393 10.092 10.092 0 00-7.39-2.997z"/><path data-name="パス 7012" d="M488.936 50.118a33.7 33.7 0 00-10.252-5.249 103.1 103.1 0 00-13.479-3.327 69.984 69.984 0 01-9.457-2.451 12.141 12.141 0 01-5.131-3.089 6.142 6.142 0 01-1.465-4.3 5.833 5.833 0 011.268-3.749 9.711 9.711 0 014.328-2.852 23.413 23.413 0 018.054-1.194 23.057 23.057 0 016.214.953 45.555 45.555 0 016.687 2.463 19.918 19.918 0 014.692 2.87l.163.131a8.223 8.223 0 005.039 1.679 9.483 9.483 0 007.012-3.117 9.835 9.835 0 002.879-6.9c0-3.358-1.557-6.3-4.626-8.755a37.9 37.9 0 00-12.125-6.646 47.947 47.947 0 00-15.935-2.587 42.994 42.994 0 00-16.777 3.208 28.994 28.994 0 00-12.446 9.649 25.672 25.672 0 00-4.708 15.47 28.349 28.349 0 001.949 10.7 23.54 23.54 0 005.858 8.47 30.364 30.364 0 009.388 5.774 55.284 55.284 0 0012.487 3.227 50.334 50.334 0 0111.077 2.637 14.45 14.45 0 015.751 3.638 6.671 6.671 0 011.57 4.536 4.943 4.943 0 01-1.574 3.594 13.93 13.93 0 01-5.2 3.193 21.515 21.515 0 01-7.5 1.258 26.794 26.794 0 01-10.426-1.769 36.963 36.963 0 01-8.755-5.467 9.355 9.355 0 00-5.979-2.105 9.656 9.656 0 00-7.2 3.057 9.876 9.876 0 00-2.815 6.959 10.525 10.525 0 001.165 4.733 12.564 12.564 0 003.165 3.982 40.508 40.508 0 0014.32 8.212 55.583 55.583 0 0016.526 2.307 42.633 42.633 0 0016.854-3.339 31.559 31.559 0 0012.89-9.838 25.1 25.1 0 005.06-15.648 30.538 30.538 0 00-2.089-11.861 21 21 0 00-6.457-8.457z"/><path data-name="パス 7013" d="M578.139 5.244h-55.3a10.621 10.621 0 00-7.269 2.633 9.393 9.393 0 00-3.12 7.259 9.579 9.579 0 003.086 7.29 10.458 10.458 0 007.3 2.726H539.6v62.477a9.983 9.983 0 003.087 7.421 10.617 10.617 0 007.677 2.969 11 11 0 007.834-2.942 9.877 9.877 0 003.179-7.448V25.152h16.763a10.616 10.616 0 007.27-2.632 9.392 9.392 0 003.121-7.259 9.6 9.6 0 00-3.089-7.294 10.482 10.482 0 00-7.303-2.723z"/><path data-name="パス 7014" d="M648.493 11.492a10.145 10.145 0 00-3.834-4.958 10.078 10.078 0 00-5.592-1.788 9.3 9.3 0 00-6.117 1.59 10.869 10.869 0 00-4.079 5.11l-31.015 74.485-.1.274a11.115 11.115 0 00-.49 3.166 9.539 9.539 0 002.3 6.437 8.912 8.912 0 007.094 2.833 9.316 9.316 0 005.562-1.84 10.424 10.424 0 003.635-4.9l5.713-13.437h33.456l5.734 13.361a11.675 11.675 0 003.688 4.877 9.289 9.289 0 005.737 1.939 9.7 9.7 0 006.678-2.725 9.734 9.734 0 003.088-7.416 11.191 11.191 0 00-.807-3.99zm-18.457 47.063l8.186-19.249 8.261 19.252z"/><path data-name="パス 7015" d="M757.234 7.812a10.087 10.087 0 00-7.086-2.941c-2.311 0-5.664.855-8.533 4.954l-18.291 26.763-19.645-27.113c-2.855-3.805-6.109-4.6-8.337-4.6a11.21 11.21 0 00-7.113 2.739 9.553 9.553 0 00-3.651 7.65 11.491 11.491 0 00.641 3.619 13.434 13.434 0 002.162 3.914l25.347 33.679v31.157a10.082 10.082 0 003 7.391 9.933 9.933 0 007.269 3 9.652 9.652 0 007.019-3 10.088 10.088 0 003-7.392V58.147l25.564-36.6a10.521 10.521 0 001.437-3.145 11.919 11.919 0 00.4-3.012 10.029 10.029 0 00-3.183-7.578z"/></g><g data-name="グループ 2368"><g data-name="グループ 2367" clip-path="url(#a)" transform="translate(4 56.939)"><g data-name="グループ 2366" fill="#fde94c"><path data-name="パス 7043" d="M66.28 18.084a11.65 11.65 0 00-6.772 1.113l-.09.045a20.8 20.8 0 01-2.8 1.206L35.956 41.11a53.391 53.391 0 006.347.965l23.989-23.989z"/><path data-name="パス 7044" d="M37.079 20.139a22.579 22.579 0 01-3.109-1.343L18.907 33.86a45.753 45.753 0 004.552 2.76l15.824-15.824a29.013 29.013 0 01-2.204-.657z"/><path data-name="パス 7045" d="M23.636 6.881c-.191-.493-.365-1-.53-1.526l-16.15 16.15a41.654 41.654 0 003.055 4.256l15.318-15.318a26.333 26.333 0 01-1.693-3.562z"/><path data-name="パス 7046" d="M47.508 21.791a35.432 35.432 0 01-4.14-.239L26.746 38.174c.926.4 1.863.779 2.821 1.121.839.3 1.69.57 2.546.824l18.471-18.47a33.893 33.893 0 01-3.076.142z"/><path data-name="パス 7047" d="M62.336 40.018a46.547 46.547 0 007.049-2.829 9.379 9.379 0 005.323-6.746 9.535 9.535 0 00.009-3.8L60.944 40.417c.469-.125.935-.257 1.392-.399z"/><path data-name="パス 7048" d="M21.647-5.31a32.017 32.017 0 011.766-10.886 23.455 23.455 0 015.061-8.3 22.581 22.581 0 018.046-5.375 29.542 29.542 0 0110.983-1.918 28.541 28.541 0 016.3.679 29.329 29.329 0 015.707 1.915 12.47 12.47 0 006.64 1.254 8.469 8.469 0 006.111-3.561 10.519 10.519 0 002.353-8.5 9.414 9.414 0 00-5.294-7.155 46.631 46.631 0 00-10.456-3.838 49.185 49.185 0 00-11.357-1.321 50.722 50.722 0 00-18.978 3.5 46.072 46.072 0 00-15.174 9.814A44 44 0 003.38-24.048 49.411 49.411 0 00-.127-5.307c0 1.566.067 3.09.172 4.588l4.588-4.587h4.84L.514 3.653a50.212 50.212 0 001.265 6.046L16.781-5.31h4.84L2.949 13.362c.242.65.49 1.295.76 1.923.463 1.077.97 2.113 1.5 3.13L22.18 1.444a40.661 40.661 0 01-.533-6.754z"/><path data-name="パス 7049" d="M29.017 15.227a20.41 20.41 0 01-1.727-1.9l-15 15a39.36 39.36 0 002.026 1.958q.883.786 1.8 1.523l14.882-14.882a21.094 21.094 0 01-1.981-1.699z"/><path data-name="パス 7050" d="M72.375 21.747a10.1 10.1 0 00-2.553-2.349L46.909 42.307c.2 0 .395.012.594.012a47.741 47.741 0 007.261-.557l18.591-18.591a12.925 12.925 0 00-.98-1.424z"/><path data-name="パス 7051" d="M728.884 4.353l-20.281 20.281v6.052a11.958 11.958 0 00.064 1.2l20.218-20.218z"/><path data-name="パス 7052" d="M718.867 41.077a9.655 9.655 0 007.019-3 10.089 10.089 0 003-7.393v-2.032L716.681 40.86a10.847 10.847 0 002.186.217z"/><path data-name="パス 7053" d="M728.884 16.504l-19.116 19.115a10.247 10.247 0 001.83 2.46 10.665 10.665 0 001.663 1.36l15.623-15.623z"/><path data-name="パス 7054" d="M754.447-35.398a10.52 10.52 0 001.437-3.146 11.924 11.924 0 00.4-3.011 10.028 10.028 0 00-3.18-7.573 10.085 10.085 0 00-7.087-2.942c-2.311 0-5.664.855-8.533 4.954l-18.291 26.763-19.645-27.113c-2.855-3.806-6.109-4.6-8.336-4.6a11.207 11.207 0 00-7.113 2.74 9.552 9.552 0 00-3.651 7.65 11.5 11.5 0 00.641 3.619 13.434 13.434 0 002.163 3.914l23.615 31.37 2.536-2.536h4.84L708.602.327v7.312l12.954-12.954h4.84l-17.794 17.793v7.312l24.192-24.192z"/><path data-name="パス 7055" d="M617.441 21.521h4.375l19.909-19.908h-7.312l-38.1 38.1a8.977 8.977 0 005.359 1.953l12.533-12.533z"/><path data-name="パス 7056" d="M669.706 14.924l-15.142 15.143 2.067 4.816c.042.1.1.188.14.287l15.1-15.1z"/><path data-name="パス 7057" d="M675.015 27.571l-1.716-4.086-14.658 14.659a10.8 10.8 0 001.678 1.619 9.52 9.52 0 002.6 1.411l12.469-12.469a11.632 11.632 0 00-.373-1.134z"/><path data-name="パス 7058" d="M666.115 6.365l-15.2 15.2 2.2 5.116 15.161-15.17z"/><path data-name="パス 7059" d="M661.212-5.31l-16.849-40.139a10.146 10.146 0 00-3.835-4.959 10.081 10.081 0 00-5.592-1.787 9.3 9.3 0 00-6.117 1.59 10.871 10.871 0 00-4.079 5.11L605.021 1.861l7.172-7.171h4.84l-15.464 15.464-5.217 12.529L624.345-5.31h4.505l5.242-12.329 5.291 12.329h1.954l-1.367 1.367 2.2 5.116 6.483-6.482h4.84l-26.831 26.831h7.312l26.832-26.831z"/><path data-name="パス 7060" d="M662.525-2.192l-23.714 23.714h7.31l18.565-18.565z"/><path data-name="パス 7061" d="M672.735 38.975a9.422 9.422 0 002.958-5.733l-8.363 8.362a9.886 9.886 0 005.405-2.629z"/><path data-name="パス 7062" d="M625.904 1.612l2.7-6.34-35.278 35.279a10.42 10.42 0 00-.185 1.879 9.933 9.933 0 001.049 4.569l35.386-35.386z"/><path data-name="パス 7063" d="M557.247 5.872L535.47 27.649v3.038a10.593 10.593 0 00.627 3.646l21.15-21.15z"/><path data-name="パス 7064" d="M557.247-31.789h16.763a10.613 10.613 0 007.27-2.633 9.39 9.39 0 003.121-7.259 9.6 9.6 0 00-3.089-7.294 10.479 10.479 0 00-7.3-2.723h-55.3a10.617 10.617 0 00-7.269 2.633 9.391 9.391 0 00-3.12 7.259 9.582 9.582 0 003.087 7.291 10.457 10.457 0 007.3 2.726h16.763v30.3l3.816-3.816h4.839l-8.656 8.656v7.312L551.44-5.305h4.839l-20.807 20.807v7.312l21.777-21.777z"/><path data-name="パス 7065" d="M554.067 38.134a9.877 9.877 0 003.179-7.448v-.511l-10.9 10.9a10.97 10.97 0 007.721-2.941z"/><path data-name="パス 7066" d="M557.246 18.024l-19.363 19.363c.212.247.434.487.674.72a10.167 10.167 0 003.633 2.285l15.056-15.057z"/><path data-name="パス 7067" d="M448.121 20.645a29.205 29.205 0 01-1.94-.919l-14.889 14.889a41.553 41.553 0 004.526 2.785l15.685-15.685a19.424 19.424 0 01-3.382-1.07z"/><path data-name="パス 7068" d="M459.066-5.31l-8.239 8.238q1.744.354 3.594.629c.924.13 1.806.274 2.664.424l9.292-9.292h4.84L461.084 4.822a36.431 36.431 0 014.415 1.372c.373.147.728.3 1.074.452L478.53-5.311h4.84l-13.7 13.7a9.4 9.4 0 011.585 1.44 6.3 6.3 0 011.4 2.884l15.837-15.837a21.037 21.037 0 00-3.683-3.7 33.667 33.667 0 00-10.252-5.249 102.928 102.928 0 00-13.479-3.327 70.2 70.2 0 01-9.457-2.451 12.142 12.142 0 01-5.131-3.09 6.138 6.138 0 01-1.466-4.3 5.824 5.824 0 011.268-3.749 9.717 9.717 0 014.328-2.853 23.414 23.414 0 018.054-1.194 23.063 23.063 0 016.214.954 45.589 45.589 0 016.687 2.463 19.954 19.954 0 014.692 2.869l.163.131a8.219 8.219 0 005.038 1.68 9.486 9.486 0 007.012-3.117 9.837 9.837 0 002.879-6.9c0-3.358-1.557-6.3-4.626-8.754a37.913 37.913 0 00-12.125-6.647 47.95 47.95 0 00-15.935-2.587 43 43 0 00-16.777 3.209 28.988 28.988 0 00-12.446 9.649 25.673 25.673 0 00-4.708 15.469 28.335 28.335 0 001.949 10.7 23.532 23.532 0 005.857 8.47c.049.045.1.088.152.133h2.066l-.954.954a28.994 28.994 0 004.386 2.925l3.879-3.879h4.84L441.473.13c.155.065.305.133.462.2a46.615 46.615 0 004.987 1.663l7.3-7.3z"/><path data-name="パス 7069" d="M458.546 22.414c-.972 0-1.9-.035-2.8-.1l-16.634 16.635c.963.4 1.932.762 2.91 1.067.85.265 1.727.5 2.615.719l18.855-18.855a22.943 22.943 0 01-4.946.534z"/><path data-name="パス 7070" d="M433.387 13.073a9.657 9.657 0 00-7.2 3.057 9.878 9.878 0 00-2.815 6.96 9.913 9.913 0 00.259 2.2l11.961-11.961a9.68 9.68 0 00-2.205-.256z"/><path data-name="パス 7071" d="M491.262 1.637a21.79 21.79 0 00-.877-1.812l-41.728 41.728a59.028 59.028 0 006.628.683l37.117-37.117a23.754 23.754 0 00-1.14-3.482z"/><path data-name="パス 7072" d="M488.294 29.147a23.861 23.861 0 003.492-6.415l-16.141 16.141a31.507 31.507 0 0012.649-9.726z"/><path data-name="パス 7073" d="M493.35 13.497a39.531 39.531 0 00-.228-4.258l-33.047 33.043a44.073 44.073 0 008.379-1.067l24.731-24.731a29.885 29.885 0 00.165-2.987z"/><path data-name="パス 7074" d="M439.365 15.178a8.53 8.53 0 00-.454-.334l-13.87 13.87a12.747 12.747 0 002.659 3.09c.283.244.571.471.857.706l14.573-14.572a43.806 43.806 0 01-3.765-2.76z"/><path data-name="パス 7075" d="M400.929-3.693a10.094 10.094 0 00-3-7.394 10.1 10.1 0 00-7.392-3h-21.673a10.323 10.323 0 00-7.333 2.816 9.467 9.467 0 00-2.969 5.958h3.292l-3.225 3.225a9.6 9.6 0 002.359 4.952l8.178-8.178h4.84L363.669 5.023a10.505 10.505 0 005.2 1.295h.82l11.632-11.632h4.84L374.529 6.318h7.311l11.633-11.632h4.839L386.678 6.322h3.862a10.975 10.975 0 004.278-.827l5.39-5.39a10.075 10.075 0 00.721-3.798z"/><path data-name="パス 7076" d="M330.539-41.307a9.887 9.887 0 00-3.18-7.449 10.228 10.228 0 00-7.211-2.941 10.619 10.619 0 00-7.677 2.97 9.984 9.984 0 00-3.087 7.42v36h3.868l-3.868 3.867v7.311l11.179-11.179h4.84l-16.019 16.019v7.311l21.155-21.154z"/><path data-name="パス 7077" d="M330.539 30.687v-4.679L316.086 40.46a11.564 11.564 0 003.813.617 10.7 10.7 0 003.445-.563l6.734-6.733a10.369 10.369 0 00.461-3.094z"/><path data-name="パス 7078" d="M330.538 1.705l-21.154 21.154v7.311l21.154-21.154z"/><path data-name="パス 7079" d="M330.539 13.857L310.005 34.39a10.029 10.029 0 002.286 3.661c.226.234.464.451.707.658l17.541-17.541z"/><path data-name="パス 7080" d="M241.187 21.791a25 25 0 01-3.414-.228l-16.262 16.261c.524.262 1.05.522 1.587.764 1.161.523 2.354.98 3.566 1.4l18.522-18.522a24.372 24.372 0 01-3.999.325z"/><path data-name="パス 7081" d="M220.971 8.602a28.741 28.741 0 01-1.832-4.853l-16.335 16.335a46.792 46.792 0 002.894 4.418l15.488-15.489c-.074-.139-.151-.271-.215-.411z"/><path data-name="パス 7082" d="M229.181 18.288c-.057-.038-.108-.081-.165-.12l-14.955 14.956a43.543 43.543 0 004.332 2.98l15.475-15.475a19.5 19.5 0 01-4.687-2.341z"/><path data-name="パス 7083" d="M286.329-5.31a51.2 51.2 0 00-3.3-18.441 47.446 47.446 0 00-9.332-15.148 43.61 43.61 0 00-14.367-10.312 44.1 44.1 0 00-18.143-3.732 43.653 43.653 0 00-18.089 3.736 43.751 43.751 0 00-14.3 10.308 47.371 47.371 0 00-9.332 15.149 51.161 51.161 0 00-3.3 18.44c0 .943.03 1.877.076 2.8l2.8-2.8h4.84l-7.247 7.248a50.575 50.575 0 001.206 6.106l13.353-13.353h4.84l-17.063 17.063c.16.46.317.923.491 1.377.5 1.3 1.053 2.56 1.65 3.794L218.299-.262a35.666 35.666 0 01-.36-5.047 31.432 31.432 0 013.015-13.967 24.494 24.494 0 018.22-9.633 20.63 20.63 0 0112.005-3.5 20.64 20.64 0 0112.005 3.5 24.913 24.913 0 018.286 9.706 31.011 31.011 0 013.074 13.894h.094l-.1.1a33.241 33.241 0 01-1.06 8.371l8.468-8.467h4.839L259.39 12.089a24.024 24.024 0 01-6.192 6.193l-22.793 22.793a44.535 44.535 0 006.272 1.04l47.42-47.42z"/><path data-name="パス 7084" d="M286.261-2.621L241.32 42.32a47.214 47.214 0 008.017-.7l35.852-35.853a52.679 52.679 0 001.072-8.388z"/><path data-name="パス 7085" d="M259.331 38.592a43.608 43.608 0 0014.367-10.312 47.406 47.406 0 009.331-15.149c.073-.189.134-.382.2-.572l-27.394 27.393a43.24 43.24 0 003.496-1.36z"/><path data-name="パス 7086" d="M222.981 12.055l-15.135 15.134c.316.365.629.735.956 1.091a43.843 43.843 0 002.641 2.623l14.9-14.9a24.044 24.044 0 01-3.362-3.948z"/><path data-name="パス 7087" d="M122.787 15.037l-20.191 20.19a10.129 10.129 0 001.943 2.823 9.9 9.9 0 001.376 1.17l16.871-16.871z"/><path data-name="パス 7088" d="M178.09-5.31v-36a10.214 10.214 0 00-2.909-7.366 10.19 10.19 0 00-7.606-3.024 10.583 10.583 0 00-7.372 2.918 9.913 9.913 0 00-3.268 7.472v25.856h-34.149V-41.31a9.889 9.889 0 00-3.179-7.449 10.232 10.232 0 00-7.212-2.941 10.621 10.621 0 00-7.677 2.97 9.985 9.985 0 00-3.087 7.42v36.2l.208-.207h4.84L101.632-.27v7.312l12.359-12.359h4.84l-17.2 17.2v7.311l24.51-24.51h4.84l-29.35 29.35v6.647c0 .217.017.426.027.638l21.127-21.127V4.451h5.741l9.767-9.767h4.84l-9.767 9.767h7.312l9.768-9.767h4.839l-9.768 9.767h7.313l9.767-9.767h4.84l-10.5 10.5v7.311l17.812-17.811z"/><path data-name="パス 7089" d="M122.79 30.687v-3.5l-13.545 13.545a12.09 12.09 0 002.9.347 10.455 10.455 0 005.685-1.623l3.489-3.488a9.958 9.958 0 001.471-5.281z"/><path data-name="パス 7090" d="M175.093 38.079a9.916 9.916 0 002.8-5.237l-7.975 7.975a9.989 9.989 0 005.175-2.738z"/><path data-name="パス 7091" d="M178.09 20.49l-17.8 17.8a10.366 10.366 0 004.775 2.537l13.023-13.023z"/><path data-name="パス 7092" d="M178.091-3.808l-21.154 21.154v7.312l21.154-21.154z"/><path data-name="パス 7093" d="M178.091 8.338l-21.155 21.155v1.194a10.083 10.083 0 001.206 4.912L178.09 15.65z"/><path data-name="パス 7094" d="M642.354 1.613l-.189-.44-.44.44z"/><path data-name="パス 7095" d="M629.185-5.31h-.334l-.248.582z"/></g></g></g><g data-name="グループ 2369" fill="none" stroke-linecap="round" stroke-linejoin="round"><g data-name="パス 7096"><path d="M70.41 75.028a11.65 11.65 0 00-6.772 1.113l-.089.045a20.346 20.346 0 01-5.7 1.974 34.143 34.143 0 01-6.216.575 31.869 31.869 0 01-10.424-1.653 21.594 21.594 0 01-8.062-4.91 23.109 23.109 0 01-5.381-8.347 33.767 33.767 0 01-1.99-12.191 32.019 32.019 0 011.766-10.887 23.453 23.453 0 015.061-8.3 22.588 22.588 0 018.046-5.374 29.531 29.531 0 0110.983-1.919 28.553 28.553 0 016.3.68 29.333 29.333 0 015.706 1.915 12.471 12.471 0 006.64 1.255 8.467 8.467 0 006.111-3.561 10.518 10.518 0 002.353-8.5 9.414 9.414 0 00-5.293-7.155 46.62 46.62 0 00-10.457-3.839 49.229 49.229 0 00-11.358-1.321 50.727 50.727 0 00-18.978 3.5 46.069 46.069 0 00-15.174 9.813 43.989 43.989 0 00-9.974 14.954 49.411 49.411 0 00-3.507 18.741A51.982 51.982 0 007.84 72.23a42.068 42.068 0 0010.609 15 45.994 45.994 0 0015.245 9.016 53.272 53.272 0 0017.94 3.027 47.665 47.665 0 007.543-.6 53.471 53.471 0 007.294-1.708 46.534 46.534 0 007.049-2.829 9.378 9.378 0 005.323-6.746 10.321 10.321 0 00-2.336-8.7 9.258 9.258 0 00-6.097-3.662z"/><path d="M51.633 99.264c2.544 0 5.082-.2 7.543-.596 2.446-.393 4.9-.968 7.294-1.708a46.534 46.534 0 007.05-2.83c2.85-1.369 4.689-3.7 5.322-6.745.623-3-.194-6.017-2.336-8.696-1.615-2.075-3.667-3.308-6.096-3.663a10.91 10.91 0 00-1.583-.116c-1.729 0-3.47.411-5.19 1.229l-.089.044a20.346 20.346 0 01-5.699 1.974 34.143 34.143 0 01-6.216.575c-3.742 0-7.25-.556-10.424-1.653-3.084-1.063-5.796-2.715-8.062-4.91-2.272-2.198-4.082-5.005-5.38-8.347-1.321-3.394-1.99-7.495-1.99-12.19 0-3.978.593-7.64 1.766-10.888 1.147-3.186 2.85-5.978 5.06-8.3 2.2-2.309 4.908-4.118 8.047-5.374 3.183-1.273 6.878-1.918 10.983-1.918 2.189 0 4.307.229 6.297.68a29.317 29.317 0 015.706 1.914c1.83.872 3.681 1.31 5.518 1.31.375 0 .749-.019 1.122-.055 2.461-.24 4.573-1.471 6.111-3.561 2.033-2.499 2.847-5.438 2.353-8.504-.513-3.202-2.344-5.675-5.293-7.155a46.62 46.62 0 00-10.456-3.839 49.23 49.23 0 00-11.358-1.321c-6.801 0-13.186 1.178-18.977 3.502-5.8 2.33-10.905 5.631-15.174 9.813-4.285 4.195-7.64 9.226-9.975 14.955C5.181 38.6 4 44.905 4 51.63c0 7.74 1.292 14.669 3.84 20.595 2.558 5.958 6.128 11.003 10.608 14.995 4.444 3.96 9.573 6.994 15.245 9.016 5.636 2.009 11.671 3.027 17.94 3.027m0 4c-6.727 0-13.215-1.096-19.283-3.26-6.159-2.194-11.732-5.49-16.563-9.797-4.921-4.385-8.832-9.904-11.623-16.403C1.401 67.378 0 59.918 0 51.63c0-7.245 1.28-14.058 3.803-20.25 2.541-6.238 6.202-11.723 10.88-16.303 4.646-4.55 10.191-8.14 16.481-10.667C37.434 1.895 44.32.62 51.634.62c4.154 0 8.286.48 12.28 1.43a50.641 50.641 0 0111.344 4.163c4.078 2.052 6.717 5.634 7.432 10.088.337 2.095.228 4.17-.324 6.166-.538 1.943-1.485 3.766-2.816 5.421-1.08 1.447-2.378 2.618-3.858 3.48a12.276 12.276 0 01-5.027 1.613c-.5.049-1.008.074-1.511.074-2.428 0-4.853-.567-7.209-1.685a25.232 25.232 0 00-4.898-1.638 24.554 24.554 0 00-5.414-.581c-3.594 0-6.79.549-9.498 1.632-2.6 1.04-4.832 2.527-6.635 4.42-1.826 1.917-3.237 4.238-4.194 6.895-1.015 2.813-1.53 6.019-1.53 9.532 0 4.197.579 7.811 1.718 10.741 1.088 2.8 2.58 5.128 4.434 6.922 1.844 1.786 4.059 3.133 6.585 4.004 2.755.952 5.823 1.434 9.12 1.434 1.825 0 3.67-.17 5.486-.508a16.362 16.362 0 004.64-1.618l.089-.045.073-.035c2.256-1.072 4.58-1.616 6.906-1.616.72 0 1.448.053 2.162.158 3.427.502 6.42 2.28 8.657 5.143 1.405 1.762 2.39 3.668 2.927 5.666.561 2.084.623 4.21.185 6.321-.442 2.129-1.319 4.035-2.606 5.666-1.273 1.613-2.91 2.91-4.87 3.857a50.408 50.408 0 01-7.632 3.06 57.48 57.48 0 01-7.84 1.836c-2.671.43-5.423.647-8.177.647z" fill="#231815"/></g><g data-name="パス 7097"><path d="M171.706 5.244a10.585 10.585 0 00-7.372 2.919 9.913 9.913 0 00-3.267 7.472v25.856h-34.15V15.635a9.889 9.889 0 00-3.179-7.449 10.232 10.232 0 00-7.211-2.942 10.617 10.617 0 00-7.677 2.971 9.98 9.98 0 00-3.087 7.42v71.994a10.2 10.2 0 002.906 7.363 10.177 10.177 0 007.608 3.027 10.586 10.586 0 007.372-2.918 9.913 9.913 0 003.267-7.472v-26.23h34.15v26.23a9.871 9.871 0 003.177 7.446 10.22 10.22 0 007.213 2.944 10.554 10.554 0 007.767-3 10.088 10.088 0 003-7.392V15.633a10.212 10.212 0 00-2.909-7.366 10.19 10.19 0 00-7.608-3.023z"/><path d="M116.527 5.244c-3.065 0-5.647.999-7.677 2.97-2.05 1.994-3.087 4.49-3.087 7.42v71.994c0 2.903.978 5.381 2.906 7.364 1.95 2.008 4.51 3.026 7.608 3.026 2.79 0 5.27-.981 7.372-2.918 2.138-1.969 3.268-4.552 3.268-7.472v-26.23h34.15v26.23c0 2.95 1.07 5.457 3.176 7.446 2.064 1.953 4.49 2.944 7.213 2.944 3.164 0 5.776-1.007 7.767-2.998 1.99-1.99 2.997-4.477 2.997-7.392V15.635c0-2.9-.977-5.377-2.908-7.367-1.953-2.006-4.512-3.024-7.606-3.024-2.79 0-5.272.982-7.373 2.919-2.137 1.968-3.267 4.552-3.267 7.472V41.49h-34.15V15.635c0-2.946-1.068-5.45-3.178-7.449-2.068-1.952-4.494-2.942-7.211-2.942m0-4c1.873 0 3.676.348 5.36 1.035 1.66.678 3.207 1.687 4.597 2.998l.004.005c2.897 2.744 4.429 6.324 4.429 10.353V37.49h26.15V15.635c0-2.008.392-3.925 1.166-5.696a14.042 14.042 0 013.39-4.719c1.408-1.297 2.978-2.294 4.666-2.962a14.649 14.649 0 015.417-1.014c2.048 0 3.968.35 5.709 1.043a13.652 13.652 0 014.763 3.191l.004.004a14.108 14.108 0 013.029 4.66c.67 1.697 1.01 3.545 1.01 5.493v71.993c0 1.969-.353 3.835-1.046 5.546a14.07 14.07 0 01-3.123 4.675 13.85 13.85 0 01-4.832 3.148c-1.755.678-3.695 1.021-5.764 1.021a14.12 14.12 0 01-5.365-1.036c-1.662-.678-3.21-1.688-4.597-3.002-2.896-2.734-4.428-6.315-4.428-10.352v-22.23h-26.15v22.23c0 2.008-.392 3.925-1.166 5.695a14.044 14.044 0 01-3.391 4.72c-1.408 1.297-2.978 2.294-4.666 2.962a14.649 14.649 0 01-5.416 1.013c-2.05 0-3.973-.35-5.713-1.043a13.624 13.624 0 01-4.765-3.197 14.061 14.061 0 01-3.027-4.654c-.67-1.697-1.009-3.546-1.009-5.496V15.635c0-3.996 1.486-7.554 4.299-10.288a14.212 14.212 0 014.795-3.088c1.741-.673 3.649-1.015 5.67-1.015z" fill="#231815"/></g><g data-name="パス 7098"><path d="M277.828 18.042a43.6 43.6 0 00-14.366-10.311 44.084 44.084 0 00-18.143-3.732 43.653 43.653 0 00-18.089 3.735 43.771 43.771 0 00-14.3 10.308 47.376 47.376 0 00-9.332 15.15 51.158 51.158 0 00-3.3 18.44 51.142 51.142 0 003.3 18.44 47.349 47.349 0 009.331 15.149 43.738 43.738 0 0014.3 10.309 43.653 43.653 0 0018.089 3.735 44.084 44.084 0 0018.143-3.732 43.6 43.6 0 0014.367-10.312 47.4 47.4 0 009.331-15.149 51.177 51.177 0 003.3-18.44 51.2 51.2 0 00-3.3-18.441 47.42 47.42 0 00-9.331-15.149zm-32.51 60.691a20.62 20.62 0 01-12.006-3.5 24.387 24.387 0 01-8.215-9.688 31.538 31.538 0 01-3.019-13.912 31.439 31.439 0 013.016-13.967 24.487 24.487 0 018.22-9.633 20.63 20.63 0 0112.005-3.5 20.641 20.641 0 0112.005 3.5 24.912 24.912 0 018.287 9.706 31.019 31.019 0 013.073 13.894 31.009 31.009 0 01-3.073 13.894 24.9 24.9 0 01-8.286 9.706 20.63 20.63 0 01-12.006 3.499z"/><path d="M245.318 3.999c-6.512 0-12.598 1.256-18.089 3.735-5.471 2.471-10.28 5.94-14.296 10.308-3.999 4.35-7.139 9.446-9.332 15.15-2.19 5.692-3.3 11.897-3.3 18.44 0 6.544 1.11 12.748 3.3 18.44 2.192 5.7 5.331 10.798 9.331 15.148 4.02 4.373 8.83 7.841 14.297 10.31 5.491 2.478 11.577 3.735 18.09 3.735 6.508 0 12.612-1.256 18.142-3.732 5.51-2.468 10.344-5.937 14.368-10.313 3.999-4.35 7.138-9.447 9.33-15.149 2.19-5.696 3.301-11.9 3.301-18.44 0-6.538-1.11-12.742-3.3-18.44-2.195-5.703-5.334-10.8-9.332-15.15-4.02-4.37-8.853-7.84-14.367-10.31-5.53-2.476-11.634-3.732-18.143-3.732m0 74.733c-4.62 0-8.547-1.145-12.006-3.501-3.477-2.367-6.241-5.626-8.215-9.688-2.003-4.119-3.02-8.8-3.02-13.912 0-5.19 1.015-9.89 3.016-13.967 1.972-4.02 4.738-7.262 8.22-9.632 3.461-2.357 7.388-3.502 12.005-3.502 4.616 0 8.543 1.145 12.005 3.501 3.484 2.374 6.272 5.64 8.287 9.706 2.04 4.117 3.073 8.791 3.073 13.894 0 5.104-1.034 9.78-3.073 13.895-2.015 4.067-4.803 7.333-8.286 9.706-3.46 2.355-7.387 3.5-12.006 3.5m0-78.733c7.076 0 13.73 1.373 19.778 4.081 6.013 2.694 11.287 6.48 15.676 11.254 4.34 4.721 7.745 10.246 10.12 16.42 2.368 6.16 3.568 12.847 3.568 19.877 0 7.033-1.2 13.72-3.567 19.876-2.374 6.173-5.779 11.698-10.12 16.42-4.393 4.778-9.668 8.565-15.677 11.256-6.048 2.708-12.702 4.082-19.778 4.082-7.084 0-13.723-1.376-19.734-4.09-5.964-2.692-11.212-6.476-15.597-11.248-4.342-4.722-7.747-10.247-10.12-16.42-2.366-6.151-3.566-12.838-3.566-19.876 0-7.035 1.2-13.722 3.567-19.876 2.374-6.173 5.779-11.698 10.12-16.42 4.384-4.769 9.63-8.552 15.595-11.246 6.012-2.714 12.651-4.09 19.735-4.09zm0 74.733c1.947 0 3.687-.231 5.318-.707a15.454 15.454 0 004.437-2.1c2.907-1.98 5.247-4.73 6.953-8.175 1.763-3.558 2.657-7.636 2.657-12.119 0-4.48-.894-8.558-2.657-12.119-1.706-3.442-4.046-6.193-6.955-8.176a15.48 15.48 0 00-4.438-2.1c-1.631-.475-3.37-.706-5.315-.706-1.945 0-3.684.231-5.316.707a15.47 15.47 0 00-4.438 2.101c-2.901 1.975-5.216 4.696-6.88 8.088-1.73 3.525-2.606 7.631-2.606 12.205 0 4.5.88 8.593 2.616 12.163 1.665 3.426 3.975 6.16 6.869 8.13a15.443 15.443 0 004.436 2.101c1.632.476 3.372.707 5.32.707z" fill="#231815"/></g><g data-name="パス 7099"><path d="M324.278 5.244a10.618 10.618 0 00-7.677 2.971 9.983 9.983 0 00-3.087 7.42v71.994a10.2 10.2 0 002.907 7.363 10.176 10.176 0 007.608 3.027 10.587 10.587 0 007.372-2.918 9.913 9.913 0 003.268-7.472V15.635a9.887 9.887 0 00-3.18-7.449 10.23 10.23 0 00-7.211-2.942z"/><path d="M324.278 5.244c-3.064 0-5.647.999-7.677 2.97-2.048 1.994-3.087 4.49-3.087 7.42v71.994c0 2.903.979 5.381 2.907 7.364 1.95 2.008 4.51 3.026 7.608 3.026 2.79 0 5.269-.981 7.372-2.918 2.138-1.969 3.267-4.552 3.267-7.472V15.635c0-2.946-1.069-5.45-3.18-7.449-2.066-1.952-4.492-2.942-7.21-2.942m0-4c1.873 0 3.677.348 5.36 1.035 1.661.678 3.208 1.687 4.597 2.999a.394.394 0 01.004.003c2.898 2.744 4.43 6.324 4.43 10.354v71.993c0 2.008-.393 3.925-1.168 5.696a14.044 14.044 0 01-3.39 4.718c-1.41 1.298-2.98 2.295-4.666 2.963a14.648 14.648 0 01-5.416 1.013c-2.05 0-3.973-.35-5.713-1.043a13.621 13.621 0 01-4.765-3.197 14.068 14.068 0 01-3.027-4.654c-.67-1.697-1.01-3.546-1.01-5.496V15.635c0-3.995 1.486-7.552 4.298-10.287a14.212 14.212 0 014.796-3.089c1.741-.673 3.65-1.015 5.67-1.015z" fill="#231815"/></g><g data-name="パス 7100"><path d="M394.668 42.858h-21.673a10.323 10.323 0 00-7.333 2.815 9.67 9.67 0 00-3.057 7.326 9.869 9.869 0 003.024 7.356 10.2 10.2 0 007.366 2.909h21.673a10.339 10.339 0 007.334-2.816 9.658 9.658 0 003.056-7.2 10.1 10.1 0 00-3-7.393 10.092 10.092 0 00-7.39-2.997z"/><path d="M372.997 42.858c-2.887 0-5.355.947-7.333 2.815-2.029 1.912-3.057 4.377-3.057 7.326 0 2.933 1.018 5.41 3.024 7.356 1.983 1.93 4.462 2.91 7.366 2.91h21.673c2.884 0 5.35-.948 7.334-2.817 2-1.887 3.056-4.376 3.056-7.2 0-2.914-1.008-5.4-2.999-7.394-1.99-1.988-4.477-2.996-7.391-2.996h-21.673m0-4h21.673c1.968 0 3.833.352 5.544 1.045a14.076 14.076 0 014.675 3.122 14.1 14.1 0 013.125 4.677c.694 1.712 1.046 3.578 1.046 5.546 0 1.945-.369 3.8-1.096 5.514a13.602 13.602 0 01-3.214 4.595 14.137 14.137 0 01-4.642 2.934c-1.681.646-3.511.973-5.438.973h-21.673c-1.95 0-3.8-.34-5.498-1.01a14.069 14.069 0 01-4.656-3.03c-2.771-2.691-4.236-6.227-4.236-10.225 0-4.037 1.491-7.577 4.313-10.236a14.083 14.083 0 014.636-2.932c1.682-.646 3.512-.973 5.44-.973z" fill="#231815"/></g><g data-name="パス 7101"><path d="M488.936 50.118a33.7 33.7 0 00-10.252-5.249 103.1 103.1 0 00-13.479-3.327 69.984 69.984 0 01-9.457-2.451 12.141 12.141 0 01-5.131-3.089 6.142 6.142 0 01-1.465-4.3 5.833 5.833 0 011.268-3.749 9.711 9.711 0 014.328-2.852 23.413 23.413 0 018.054-1.194 23.057 23.057 0 016.214.953 45.555 45.555 0 016.687 2.463 19.918 19.918 0 014.692 2.87l.163.131a8.223 8.223 0 005.039 1.679 9.483 9.483 0 007.012-3.117 9.835 9.835 0 002.879-6.9c0-3.358-1.557-6.3-4.626-8.755a37.9 37.9 0 00-12.125-6.646 47.947 47.947 0 00-15.935-2.587 42.994 42.994 0 00-16.777 3.208 28.994 28.994 0 00-12.446 9.649 25.672 25.672 0 00-4.708 15.47 28.349 28.349 0 001.949 10.7 23.54 23.54 0 005.858 8.47 30.364 30.364 0 009.388 5.774 55.284 55.284 0 0012.487 3.227 50.334 50.334 0 0111.077 2.637 14.45 14.45 0 015.751 3.638 6.671 6.671 0 011.57 4.536 4.943 4.943 0 01-1.574 3.594 13.93 13.93 0 01-5.2 3.193 21.515 21.515 0 01-7.5 1.258 26.794 26.794 0 01-10.426-1.769 36.963 36.963 0 01-8.755-5.467 9.355 9.355 0 00-5.979-2.105 9.656 9.656 0 00-7.2 3.057 9.876 9.876 0 00-2.815 6.959 10.525 10.525 0 001.165 4.733 12.564 12.564 0 003.165 3.982 40.508 40.508 0 0014.32 8.212 55.583 55.583 0 0016.526 2.307 42.633 42.633 0 0016.854-3.339 31.559 31.559 0 0012.89-9.838 25.1 25.1 0 005.06-15.648 30.538 30.538 0 00-2.089-11.861 21 21 0 00-6.457-8.457z"/><path d="M462.8 3.999c-6.076 0-11.722 1.079-16.777 3.208-5.186 2.183-9.373 5.43-12.445 9.648-3.124 4.29-4.709 9.494-4.709 15.47 0 3.918.656 7.519 1.95 10.704a23.54 23.54 0 005.857 8.47c2.524 2.34 5.683 4.284 9.388 5.774 3.594 1.447 7.79 2.531 12.487 3.227 4.495.632 8.222 1.519 11.077 2.637 2.63 1.03 4.565 2.255 5.751 3.639 1.057 1.233 1.57 2.716 1.57 4.536 0 1.348-.5 2.49-1.573 3.593-1.282 1.314-3.032 2.389-5.201 3.193-2.25.834-4.772 1.258-7.499 1.258-4.167 0-7.675-.595-10.425-1.77-2.859-1.217-5.798-3.05-8.756-5.466-1.747-1.398-3.759-2.105-5.979-2.105-2.824 0-5.313 1.056-7.202 3.056-1.867 1.983-2.815 4.325-2.815 6.96 0 1.595.393 3.19 1.166 4.732.745 1.498 1.817 2.843 3.165 3.982 4.508 3.89 9.326 6.654 14.32 8.212 4.904 1.531 10.464 2.308 16.526 2.308 5.997 0 11.667-1.124 16.854-3.34 5.283-2.256 9.62-5.566 12.89-9.838 3.357-4.382 5.06-9.647 5.06-15.647 0-4.59-.703-8.58-2.089-11.861a21.013 21.013 0 00-6.455-8.461c-2.736-2.141-6.184-3.907-10.252-5.25-3.875-1.275-8.42-2.398-13.48-3.326-3.674-.718-6.856-1.543-9.456-2.45-2.277-.792-4.002-1.831-5.132-3.09-.986-1.098-1.465-2.505-1.465-4.3 0-1.441.416-2.668 1.268-3.75.92-1.163 2.375-2.123 4.328-2.851 2.126-.792 4.836-1.194 8.054-1.194 1.887 0 3.979.32 6.214.953a45.555 45.555 0 016.686 2.463c1.99.922 3.57 1.888 4.693 2.87l.163.13a8.223 8.223 0 005.038 1.68c2.66 0 5.085-1.077 7.012-3.117 1.91-2.024 2.88-4.344 2.88-6.899 0-3.357-1.557-6.303-4.627-8.755-3.152-2.692-7.231-4.928-12.125-6.646C473.852 4.87 468.49 4 462.801 4m0-4c6.143 0 11.95.947 17.26 2.813 5.335 1.874 9.825 4.341 13.347 7.336 3.977 3.197 6.078 7.29 6.078 11.84a13.4 13.4 0 01-1.032 5.188c-.666 1.597-1.654 3.096-2.937 4.455-1.326 1.404-2.845 2.491-4.516 3.234a13.223 13.223 0 01-5.406 1.138c-2.742 0-5.244-.834-7.438-2.479a3.891 3.891 0 01-.105-.082l-.163-.13a4.046 4.046 0 01-.13-.109c-.574-.503-1.689-1.301-3.739-2.251a41.534 41.534 0 00-6.096-2.244c-1.879-.531-3.603-.801-5.123-.801-2.7 0-5.003.326-6.658.942-1.64.612-2.322 1.252-2.583 1.58-.246.312-.409.648-.409 1.273 0 1.136.31 1.481.442 1.629.463.515 1.44 1.278 3.468 1.982l.005.002c2.413.843 5.402 1.615 8.884 2.297 5.23.96 9.935 2.123 13.986 3.458 4.507 1.487 8.364 3.47 11.465 5.898 3.402 2.667 5.984 6.05 7.675 10.055 1.595 3.775 2.404 8.29 2.404 13.417 0 6.9-1.98 12.983-5.885 18.08-3.692 4.824-8.57 8.554-14.494 11.084-5.685 2.429-11.884 3.66-18.425 3.66-6.467 0-12.428-.837-17.718-2.488-5.514-1.721-10.805-4.746-15.727-8.99-1.763-1.494-3.157-3.254-4.143-5.232-1.054-2.106-1.589-4.3-1.589-6.524 0-1.827.336-3.585 1-5.224.656-1.622 1.633-3.128 2.904-4.478a13.605 13.605 0 014.599-3.217c1.713-.728 3.569-1.096 5.514-1.096 1.559 0 3.071.254 4.495.755a13.601 13.601 0 014.014 2.252c2.658 2.17 5.28 3.814 7.794 4.885 2.253.962 5.232 1.45 8.857 1.45 2.249 0 4.304-.34 6.108-1.01 1.61-.596 2.863-1.348 3.728-2.234.437-.451.437-.63.437-.801 0-1.08-.307-1.583-.608-1.935-.423-.494-1.532-1.481-4.172-2.516-2.564-1.004-5.987-1.812-10.175-2.4a3.867 3.867 0 01-.029-.004c-5.005-.741-9.511-1.91-13.395-3.473-4.158-1.673-7.73-3.878-10.614-6.552a27.507 27.507 0 01-6.844-9.9c-1.488-3.665-2.243-7.772-2.243-12.207 0-6.84 1.842-12.837 5.476-17.825 3.506-4.815 8.259-8.51 14.126-10.98C450.018 1.184 456.185 0 462.801 0z" fill="#231815"/></g><g data-name="パス 7102"><path d="M578.139 5.244h-55.3a10.621 10.621 0 00-7.269 2.633 9.393 9.393 0 00-3.12 7.259 9.579 9.579 0 003.086 7.29 10.458 10.458 0 007.3 2.726H539.6v62.477a9.983 9.983 0 003.087 7.421 10.617 10.617 0 007.677 2.969 11 11 0 007.834-2.942 9.877 9.877 0 003.179-7.448V25.152h16.763a10.616 10.616 0 007.27-2.632 9.392 9.392 0 003.121-7.259 9.6 9.6 0 00-3.089-7.294 10.482 10.482 0 00-7.303-2.723z"/><path d="M522.836 5.244c-2.852 0-5.297.886-7.27 2.633-2.04 1.809-3.12 4.319-3.12 7.259 0 2.927 1.07 5.449 3.087 7.29 1.975 1.809 4.433 2.726 7.303 2.726H539.6v62.476c0 2.933 1.04 5.429 3.087 7.421 2.027 1.97 4.609 2.97 7.677 2.97 3.133 0 5.769-.99 7.833-2.943 2.11-1.993 3.18-4.5 3.18-7.448V25.152h16.762c2.854 0 5.3-.886 7.27-2.632 2.041-1.809 3.12-4.318 3.12-7.26 0-2.92-1.066-5.442-3.088-7.293-1.98-1.806-4.435-2.723-7.302-2.723h-55.303m0-4h55.303c1.905 0 3.716.315 5.382.936a14.175 14.175 0 014.616 2.832l.006.005a13.263 13.263 0 013.284 4.636c.732 1.728 1.103 3.615 1.103 5.607 0 2.01-.377 3.906-1.12 5.635a12.98 12.98 0 01-3.348 4.619 14.183 14.183 0 01-4.595 2.738c-1.65.597-3.442.9-5.328.9h-12.763v58.476c0 4.035-1.532 7.615-4.431 10.355a14.415 14.415 0 01-4.857 3.04c-1.757.66-3.683.995-5.724.995-2.022 0-3.93-.341-5.672-1.015a14.201 14.201 0 01-4.792-3.085c-2.814-2.737-4.3-6.294-4.3-10.29V29.152h-12.764c-1.908 0-3.72-.316-5.386-.937a14.13 14.13 0 01-4.614-2.836 13.204 13.204 0 01-3.286-4.631c-.732-1.729-1.103-3.617-1.103-5.612 0-2.01.377-3.905 1.12-5.633a12.983 12.983 0 013.347-4.62 14.207 14.207 0 014.595-2.738c1.65-.598 3.442-.901 5.327-.901z" fill="#231815"/></g><g data-name="パス 7103"><path d="M648.493 11.492a10.145 10.145 0 00-3.834-4.958 10.078 10.078 0 00-5.592-1.788 9.3 9.3 0 00-6.117 1.59 10.869 10.869 0 00-4.079 5.11l-31.015 74.485-.1.274a11.115 11.115 0 00-.49 3.166 9.539 9.539 0 002.3 6.437 8.912 8.912 0 007.094 2.833 9.316 9.316 0 005.562-1.84 10.424 10.424 0 003.635-4.9l5.713-13.437h33.456l5.734 13.361a11.675 11.675 0 003.688 4.877 9.289 9.289 0 005.737 1.939 9.7 9.7 0 006.678-2.725 9.734 9.734 0 003.088-7.416 11.191 11.191 0 00-.807-3.99zm-18.457 47.063l8.186-19.249 8.261 19.252z"/><path d="M638.196 4.706c-1.855 0-3.62.546-5.247 1.63-1.842 1.23-3.22 2.961-4.078 5.11l-31.016 74.485-.097.274c-.325 1.088-.49 2.153-.49 3.166 0 2.51.775 4.677 2.3 6.437 1.627 1.88 4.013 2.833 7.094 2.833 2.006 0 3.877-.62 5.561-1.84 1.637-1.186 2.86-2.835 3.635-4.9l5.713-13.438h33.456l5.734 13.361c.854 2.03 2.097 3.672 3.688 4.878 1.695 1.286 3.624 1.939 5.737 1.939 2.454 0 4.701-.917 6.678-2.725 2.021-1.846 3.088-4.41 3.088-7.416 0-1.252-.27-2.593-.807-3.99l-30.652-73.018c-.788-2.1-2.077-3.768-3.834-4.958-1.711-1.16-3.593-1.76-5.592-1.788a9.691 9.691 0 00-.871-.04m8.287 53.848h-16.447l8.186-19.251 8.261 19.251M638.196.706v4-4c.356 0 .718.015 1.077.043 2.738.067 5.304.898 7.63 2.473 2.433 1.649 4.218 3.932 5.306 6.787l30.625 72.953.046.115c.712 1.855 1.072 3.68 1.072 5.423 0 2.026-.368 3.937-1.093 5.68a13.157 13.157 0 01-3.297 4.69c-1.332 1.217-2.795 2.157-4.346 2.79a13.247 13.247 0 01-5.03.981c-3.006 0-5.75-.927-8.156-2.754-2.154-1.632-3.821-3.819-4.95-6.498l-4.69-10.926h-28.173L619.57 93.39c-1.058 2.774-2.74 5.01-5 6.65-2.383 1.725-5.043 2.6-7.91 2.6-5.345 0-8.452-2.292-10.117-4.214a13.192 13.192 0 01-2.465-4.21c-.538-1.507-.81-3.137-.81-4.846 0-1.399.22-2.849.656-4.309a4.04 4.04 0 01.065-.199l.097-.273a3.31 3.31 0 01.076-.196l31.005-74.46c1.17-2.914 3.041-5.244 5.561-6.925 2.296-1.529 4.807-2.303 7.467-2.303zm2.218 53.848l-2.175-5.069-2.156 5.07h4.331z" fill="#231815"/></g><g data-name="パス 7104"><path d="M757.234 7.812a10.087 10.087 0 00-7.086-2.941c-2.311 0-5.664.855-8.533 4.954l-18.291 26.763-19.645-27.113c-2.855-3.805-6.109-4.6-8.337-4.6a11.21 11.21 0 00-7.113 2.739 9.553 9.553 0 00-3.651 7.65 11.491 11.491 0 00.641 3.619 13.434 13.434 0 002.162 3.914l25.347 33.679v31.157a10.082 10.082 0 003 7.391 9.933 9.933 0 007.269 3 9.652 9.652 0 007.019-3 10.088 10.088 0 003-7.392V58.147l25.564-36.6a10.521 10.521 0 001.437-3.145 11.919 11.919 0 00.4-3.012 10.029 10.029 0 00-3.183-7.578z"/><path d="M695.346 4.871c-2.473 0-4.866.921-7.114 2.74-2.388 1.935-3.65 4.58-3.65 7.65 0 1.131.217 2.35.64 3.618.429 1.293 1.163 2.619 2.163 3.914l25.347 33.68v31.156c0 2.918 1.009 5.405 2.996 7.39 1.988 1.991 4.434 3 7.269 3 2.668 0 5.03-1.009 7.019-2.998 1.988-1.99 2.997-4.477 2.997-7.392V58.143l25.564-36.6c.667-1 1.15-2.057 1.437-3.145.267-1.022.403-2.035.403-3.013 0-3.027-1.07-5.574-3.18-7.573-2.068-1.952-4.451-2.941-7.086-2.941-2.312 0-5.664.855-8.533 4.954l-18.29 26.763-19.646-27.113c-2.855-3.805-6.109-4.604-8.336-4.604m0-4c1.952 0 3.844.42 5.622 1.25 2.242 1.044 4.231 2.71 5.914 4.953l.04.054 16.31 22.51 15.083-22.07.026-.037c1.682-2.404 3.7-4.191 5.996-5.314A13.132 13.132 0 01750.15.871c1.84 0 3.62.351 5.289 1.044 1.63.677 3.16 1.683 4.543 2.989a.057.057 0 00.004.003c2.898 2.744 4.43 6.367 4.43 10.478 0 1.32-.18 2.674-.533 4.026l-.003.008a14.517 14.517 0 01-2.024 4.414l-24.844 35.569v28.227c0 3.958-1.441 7.492-4.169 10.22-2.726 2.727-6.132 4.17-9.847 4.17-3.881 0-7.373-1.443-10.1-4.173-2.724-2.722-4.165-6.256-4.165-10.217v-29.82l-24.53-32.593c-1.273-1.654-2.206-3.36-2.775-5.073-.56-1.68-.845-3.322-.845-4.882 0-2.13.444-4.139 1.32-5.974.875-1.834 2.157-3.444 3.812-4.784 2.98-2.41 6.22-3.632 9.632-3.632z" fill="#231815"/></g></g></g><g data-name="グループ 2376"><g data-name="グループ 2406"><g data-name="グループ 2399"><path data-name="パス 7229" d="M320.548 133.194v.421h5.565a.861.861 0 01.805.952.86.86 0 01-.805.951h-5.693c-.439 3.661-1.958 5.912-4.466 7.469a1.294 1.294 0 01-.677.2 1.062 1.062 0 01-1.062-1.062 1.114 1.114 0 01.586-.952 7.106 7.106 0 003.478-5.656h-5.985a.846.846 0 01-.787-.951.847.847 0 01.787-.952h6.114a5.612 5.612 0 00.019-.568v-2.105c-1.318.183-2.636.329-3.79.384a.991.991 0 01-1.08-1.006.954.954 0 01.989-.97 40.276 40.276 0 008.8-1.538 1.256 1.256 0 01.349-.055 1.057 1.057 0 011.043 1.062.962.962 0 01-.732.915 29.8 29.8 0 01-3.459.841z" fill="#fde94c"/></g><g data-name="グループ 2400"><path data-name="パス 7230" d="M346.289 134.073c0-.531-.2-.659-.933-.659h-5.894a.8.8 0 01-.787-.879.8.8 0 01.787-.86h6.28c1.7 0 2.38.677 2.38 2.014v6.717c0 1.391-.677 2.05-2.38 2.05h-6.461a.8.8 0 01-.787-.86.788.788 0 01.787-.86h6.077c.731 0 .933-.146.933-.659v-2.361h-6.15a.8.8 0 01-.787-.86.787.787 0 01.787-.86h6.15z" fill="#fde94c"/></g><g data-name="グループ 2401"><path data-name="パス 7231" d="M366.756 134.384a32.311 32.311 0 01-4.63 3.075 1.24 1.24 0 01-.642.165 1.02 1.02 0 01-1.007-1.025 1.164 1.164 0 01.7-1.025 28.155 28.155 0 008.895-7.5 1.147 1.147 0 01.916-.476 1.092 1.092 0 011.116 1.025 1.123 1.123 0 01-.256.677 28.853 28.853 0 01-3.88 4.082.957.957 0 01.952.952v8.035a.977.977 0 01-1.079.952.987.987 0 01-1.081-.952z" fill="#fde94c"/></g><g data-name="グループ 2402"><path data-name="パス 7232" d="M389.109 135.232a.814.814 0 01.824.879.814.814 0 01-.824.879h-4.558a.813.813 0 01-.823-.879.813.813 0 01.823-.879z" fill="#fde94c"/></g><g data-name="グループ 2403"><path data-name="パス 7233" d="M410.38 129.168c1.429-.037 2.161.586 2.161 1.574a3.04 3.04 0 01-.2.989 16.99 16.99 0 01-2.507 4.375 27.246 27.246 0 014.906 4.338 1.287 1.287 0 01.348.824 1.167 1.167 0 01-1.172 1.1 1.14 1.14 0 01-.879-.439 28.183 28.183 0 00-4.5-4.3 21.156 21.156 0 01-5.967 4.539 1.187 1.187 0 01-.531.128 1.074 1.074 0 01-1.061-1.062 1.017 1.017 0 01.622-.934 17.649 17.649 0 008.457-8.584.684.684 0 00.073-.293c0-.165-.147-.238-.458-.238l-6.553.128a.922.922 0 01-.915-.988.941.941 0 01.9-1.025z" fill="#fde94c"/></g><g data-name="グループ 2404"><path data-name="パス 7234" d="M435.334 134.897a9.824 9.824 0 01-4.63 7.925 1.18 1.18 0 01-.568.165 1.087 1.087 0 01-1.042-1.08 1.029 1.029 0 01.549-.9 7.531 7.531 0 003.57-6.113h-5.619c-.531 0-.787-.494-.787-.97 0-.494.256-.97.787-.97h13.087a.867.867 0 01.806.97.877.877 0 01-.806.97zm3.039-6.26a.884.884 0 01.806.989.883.883 0 01-.806.988h-8.529c-.531 0-.788-.493-.788-.988s.257-.989.788-.989z" fill="#fde94c"/></g><g data-name="グループ 2405"><path data-name="パス 7235" d="M459.025 134.384a32.206 32.206 0 01-4.631 3.075 1.24 1.24 0 01-.641.165 1.019 1.019 0 01-1.006-1.025 1.163 1.163 0 01.7-1.025 28.185 28.185 0 008.9-7.5 1.144 1.144 0 01.915-.476 1.092 1.092 0 011.117 1.025 1.123 1.123 0 01-.256.677 28.911 28.911 0 01-3.88 4.082.957.957 0 01.952.952v8.035a.977.977 0 01-1.081.952.986.986 0 01-1.079-.952z" fill="#fde94c"/></g></g></g></g></svg>