<svg xmlns="http://www.w3.org/2000/svg" width="347.5" height="98.822"><defs><clipPath id="a"><path data-name="長方形 2439" fill="none" d="M0 0h330.765v25.861H0z"/></clipPath></defs><g data-name="グループ 3178"><g data-name="グループ 2811"><g data-name="グループ 2360" fill="#fde94c"><path data-name="パス 6998" d="M36.784 37.946a5.246 5.246 0 00-3.049.5l-.04.02a9.184 9.184 0 01-2.566.889 15.375 15.375 0 01-2.8.259 14.352 14.352 0 01-4.694-.744 9.724 9.724 0 01-3.63-2.211 10.409 10.409 0 01-2.423-3.759 15.206 15.206 0 01-.9-5.49 14.417 14.417 0 01.8-4.9 10.56 10.56 0 012.279-3.737 10.168 10.168 0 013.623-2.42 13.3 13.3 0 014.946-.864 12.835 12.835 0 012.835.306 13.21 13.21 0 012.57.862 5.613 5.613 0 002.99.565 3.811 3.811 0 002.752-1.6 4.737 4.737 0 001.06-3.83 4.239 4.239 0 00-2.384-3.222 21 21 0 00-4.709-1.729 22.169 22.169 0 00-5.114-.595 22.836 22.836 0 00-8.546 1.577 20.737 20.737 0 00-6.833 4.419 19.81 19.81 0 00-4.491 6.734 22.251 22.251 0 00-1.582 8.435 23.408 23.408 0 001.729 9.274 18.942 18.942 0 004.777 6.752 20.716 20.716 0 006.865 4.06 23.989 23.989 0 008.078 1.363 21.466 21.466 0 003.4-.269 24.148 24.148 0 003.285-.769 20.992 20.992 0 003.174-1.274 4.224 4.224 0 002.4-3.038 4.648 4.648 0 00-1.052-3.916 4.169 4.169 0 00-2.75-1.648z"/><path data-name="パス 6999" d="M82.399 6.523a4.768 4.768 0 00-3.32 1.314 4.465 4.465 0 00-1.471 3.365v11.643H62.23V11.202a4.452 4.452 0 00-1.432-3.354 4.606 4.606 0 00-3.247-1.325 4.78 4.78 0 00-3.457 1.338 4.494 4.494 0 00-1.391 3.341v32.419a4.592 4.592 0 001.309 3.316 4.582 4.582 0 003.426 1.363 4.767 4.767 0 003.319-1.314 4.463 4.463 0 001.471-3.365v-11.81h15.378v11.811a4.446 4.446 0 001.43 3.353 4.6 4.6 0 003.248 1.326 4.754 4.754 0 003.5-1.35 4.542 4.542 0 001.35-3.329V11.203a4.6 4.6 0 00-1.31-3.317 4.589 4.589 0 00-3.425-1.363z"/><path data-name="パス 7000" d="M130.186 12.286a19.644 19.644 0 00-6.47-4.643 19.855 19.855 0 00-8.17-1.68 19.655 19.655 0 00-8.146 1.682 19.711 19.711 0 00-6.438 4.642 21.338 21.338 0 00-4.2 6.822 23.039 23.039 0 00-1.486 8.3 23.03 23.03 0 001.486 8.3 21.32 21.32 0 004.2 6.822 19.7 19.7 0 006.438 4.642 19.662 19.662 0 008.146 1.682 19.856 19.856 0 008.17-1.681 19.638 19.638 0 006.47-4.644 21.345 21.345 0 004.2-6.822 23.047 23.047 0 001.486-8.3 23.059 23.059 0 00-1.486-8.3 21.362 21.362 0 00-4.2-6.822zm-14.639 27.33a9.286 9.286 0 01-5.406-1.577 10.981 10.981 0 01-3.7-4.362 14.2 14.2 0 01-1.36-6.265 14.155 14.155 0 011.358-6.289 11.023 11.023 0 013.7-4.338 9.287 9.287 0 015.406-1.577 9.292 9.292 0 015.406 1.577 11.22 11.22 0 013.732 4.371 13.971 13.971 0 011.384 6.257 13.967 13.967 0 01-1.384 6.257 11.213 11.213 0 01-3.731 4.371 9.291 9.291 0 01-5.405 1.57z"/><path data-name="パス 7001" d="M151.103 6.523a4.781 4.781 0 00-3.457 1.338 4.5 4.5 0 00-1.39 3.341v32.419a4.592 4.592 0 001.309 3.316 4.582 4.582 0 003.426 1.363 4.767 4.767 0 003.319-1.314 4.464 4.464 0 001.471-3.365V11.202a4.452 4.452 0 00-1.432-3.354 4.605 4.605 0 00-3.246-1.325z"/><path data-name="パス 7002" d="M182.801 23.46h-9.76a4.648 4.648 0 00-3.3 1.268 4.354 4.354 0 00-1.377 3.3 4.444 4.444 0 001.362 3.313 4.591 4.591 0 003.317 1.31h9.76a4.655 4.655 0 003.3-1.268 4.348 4.348 0 001.376-3.242 4.546 4.546 0 00-1.35-3.33 4.546 4.546 0 00-3.328-1.351z"/><path data-name="パス 7003" d="M225.251 26.73a15.18 15.18 0 00-4.616-2.364 46.373 46.373 0 00-6.07-1.5 31.493 31.493 0 01-4.259-1.1 5.467 5.467 0 01-2.311-1.391 2.767 2.767 0 01-.66-1.937 2.623 2.623 0 01.571-1.688 4.371 4.371 0 011.948-1.284 10.543 10.543 0 013.627-.538 10.381 10.381 0 012.8.429 20.525 20.525 0 013.011 1.109 8.984 8.984 0 012.113 1.293l.073.059a3.7 3.7 0 002.269.756 4.27 4.27 0 003.157-1.4 4.429 4.429 0 001.3-3.107 4.946 4.946 0 00-2.083-3.942 17.067 17.067 0 00-5.46-2.993 21.581 21.581 0 00-7.175-1.165 19.361 19.361 0 00-7.555 1.444 13.053 13.053 0 00-5.6 4.345 11.56 11.56 0 00-2.12 6.966 12.76 12.76 0 00.877 4.82 10.6 10.6 0 002.638 3.815 13.668 13.668 0 004.228 2.6 24.916 24.916 0 005.623 1.453 22.691 22.691 0 014.989 1.187 6.508 6.508 0 012.59 1.639 3.005 3.005 0 01.707 2.043 2.225 2.225 0 01-.708 1.618 6.265 6.265 0 01-2.342 1.438 9.679 9.679 0 01-3.377.567 12.073 12.073 0 01-4.7-.8 16.666 16.666 0 01-3.942-2.462 4.212 4.212 0 00-2.692-.948 4.348 4.348 0 00-3.243 1.377 4.447 4.447 0 00-1.268 3.134 4.741 4.741 0 00.525 2.131 5.662 5.662 0 001.426 1.793 18.24 18.24 0 006.449 3.7 25.027 25.027 0 007.442 1.039 19.2 19.2 0 007.589-1.5 14.216 14.216 0 005.8-4.43 11.3 11.3 0 002.278-7.046 13.756 13.756 0 00-.94-5.341 9.462 9.462 0 00-2.909-3.819z"/><path data-name="パス 7004" d="M265.419 6.523h-24.9a4.78 4.78 0 00-3.273 1.185 4.229 4.229 0 00-1.405 3.269 4.315 4.315 0 001.39 3.283 4.711 4.711 0 003.289 1.228h7.549v28.134a4.5 4.5 0 001.39 3.341 4.781 4.781 0 003.457 1.337 4.953 4.953 0 003.528-1.325 4.448 4.448 0 001.432-3.354V15.487h7.548a4.779 4.779 0 003.274-1.185 4.228 4.228 0 001.406-3.269 4.324 4.324 0 00-1.391-3.284 4.721 4.721 0 00-3.294-1.226z"/><path data-name="パス 7005" d="M297.1 9.336a4.565 4.565 0 00-1.727-2.233 4.54 4.54 0 00-2.518-.8 4.189 4.189 0 00-2.755.716 4.9 4.9 0 00-1.836 2.3L274.297 42.86l-.044.123a5 5 0 00-.22 1.426 4.3 4.3 0 001.036 2.9 4.012 4.012 0 003.194 1.275 4.2 4.2 0 002.5-.828 4.7 4.7 0 001.637-2.207l2.573-6.051h15.074l2.582 6.017a5.257 5.257 0 001.661 2.2 4.184 4.184 0 002.583.873 4.366 4.366 0 003.007-1.227 4.385 4.385 0 001.391-3.34 5.043 5.043 0 00-.363-1.8zm-8.311 21.192l3.686-8.669 3.72 8.669z"/><path data-name="パス 7006" d="M346.068 7.679a4.542 4.542 0 00-3.191-1.325 4.605 4.605 0 00-3.842 2.231l-8.237 12.052-8.846-12.209a4.611 4.611 0 00-3.754-2.073 5.049 5.049 0 00-3.2 1.234 4.3 4.3 0 00-1.644 3.445 5.173 5.173 0 00.289 1.629 6.043 6.043 0 00.974 1.762l11.414 15.166v14.03a4.541 4.541 0 001.349 3.328 4.475 4.475 0 003.273 1.35 4.348 4.348 0 003.161-1.35 4.544 4.544 0 001.35-3.329V30.343l11.511-16.481a4.739 4.739 0 00.647-1.417 5.363 5.363 0 00.181-1.356 4.516 4.516 0 00-1.435-3.41z"/></g><g data-name="グループ 2361" fill="#fff"><path data-name="パス 7007" d="M32.405 34.487a5.246 5.246 0 00-3.05.5l-.04.02a9.163 9.163 0 01-2.566.889 15.376 15.376 0 01-2.8.259 14.351 14.351 0 01-4.694-.744 9.725 9.725 0 01-3.63-2.211 10.406 10.406 0 01-2.423-3.759 15.2 15.2 0 01-.9-5.49 14.416 14.416 0 01.8-4.9 10.56 10.56 0 012.279-3.737 10.17 10.17 0 013.623-2.42 13.3 13.3 0 014.946-.864 12.856 12.856 0 012.835.306 13.21 13.21 0 012.57.862 5.616 5.616 0 002.99.565 3.813 3.813 0 002.752-1.6 4.736 4.736 0 001.06-3.829 4.239 4.239 0 00-2.383-3.222 20.994 20.994 0 00-4.709-1.729 22.167 22.167 0 00-5.114-.595 22.843 22.843 0 00-8.546 1.577 20.744 20.744 0 00-6.833 4.419 19.807 19.807 0 00-4.492 6.734 22.25 22.25 0 00-1.579 8.439 23.408 23.408 0 001.729 9.274 18.944 18.944 0 004.777 6.752 20.712 20.712 0 006.865 4.06 23.99 23.99 0 008.078 1.363 21.463 21.463 0 003.4-.269 24.079 24.079 0 003.285-.769 20.955 20.955 0 003.174-1.274 4.223 4.223 0 002.4-3.038 4.647 4.647 0 00-1.052-3.916 4.169 4.169 0 00-2.752-1.653z"/><path data-name="パス 7008" d="M78.02 3.061a4.767 4.767 0 00-3.32 1.314 4.464 4.464 0 00-1.471 3.365v11.647h-15.38V7.744a4.453 4.453 0 00-1.432-3.354 4.608 4.608 0 00-3.247-1.325 4.781 4.781 0 00-3.457 1.338 4.494 4.494 0 00-1.39 3.341v32.419a4.592 4.592 0 001.309 3.316 4.583 4.583 0 003.426 1.363 4.767 4.767 0 003.32-1.314 4.464 4.464 0 001.471-3.365V28.352h15.378v11.811a4.445 4.445 0 001.43 3.353 4.6 4.6 0 003.248 1.326 4.752 4.752 0 003.5-1.35 4.542 4.542 0 001.35-3.329V7.744a4.6 4.6 0 00-1.31-3.317 4.589 4.589 0 00-3.425-1.366z"/><path data-name="パス 7009" d="M125.807 8.824a19.635 19.635 0 00-6.469-4.643 19.851 19.851 0 00-8.17-1.68 19.657 19.657 0 00-8.146 1.682 19.709 19.709 0 00-6.438 4.642 21.334 21.334 0 00-4.2 6.822 23.037 23.037 0 00-1.486 8.3 23.03 23.03 0 001.486 8.3 21.319 21.319 0 004.2 6.822 19.693 19.693 0 006.438 4.642 19.657 19.657 0 008.146 1.682 19.852 19.852 0 008.17-1.68 19.634 19.634 0 006.47-4.644 21.345 21.345 0 004.2-6.822 23.047 23.047 0 001.486-8.3 23.056 23.056 0 00-1.486-8.3 21.353 21.353 0 00-4.201-6.823zm-14.639 27.329a9.286 9.286 0 01-5.406-1.577 10.98 10.98 0 01-3.7-4.362 14.2 14.2 0 01-1.36-6.265 14.157 14.157 0 011.358-6.289 11.027 11.027 0 013.7-4.338 9.29 9.29 0 015.406-1.577 9.294 9.294 0 015.406 1.577 11.219 11.219 0 013.732 4.371 13.969 13.969 0 011.384 6.257 13.965 13.965 0 01-1.384 6.257 11.211 11.211 0 01-3.731 4.371 9.29 9.29 0 01-5.405 1.575z"/><path data-name="パス 7010" d="M146.724 3.061a4.782 4.782 0 00-3.457 1.338 4.5 4.5 0 00-1.39 3.341v32.419a4.593 4.593 0 001.309 3.316 4.582 4.582 0 003.426 1.363 4.768 4.768 0 003.32-1.314 4.464 4.464 0 001.471-3.365V7.74a4.452 4.452 0 00-1.432-3.354 4.607 4.607 0 00-3.247-1.325z"/><path data-name="パス 7011" d="M178.422 19.998h-9.76a4.648 4.648 0 00-3.3 1.268 4.355 4.355 0 00-1.377 3.3 4.444 4.444 0 001.362 3.312 4.591 4.591 0 003.317 1.31h9.76a4.656 4.656 0 003.3-1.268 4.349 4.349 0 001.376-3.242 4.546 4.546 0 00-1.35-3.329 4.545 4.545 0 00-3.328-1.351z"/><path data-name="パス 7012" d="M220.871 23.268a15.172 15.172 0 00-4.616-2.364 46.432 46.432 0 00-6.07-1.5 31.5 31.5 0 01-4.259-1.1 5.467 5.467 0 01-2.311-1.391 2.765 2.765 0 01-.66-1.937 2.625 2.625 0 01.571-1.688 4.373 4.373 0 011.949-1.284 10.542 10.542 0 013.627-.538 10.383 10.383 0 012.8.429 20.5 20.5 0 013.011 1.109 8.972 8.972 0 012.113 1.293l.073.059a3.7 3.7 0 002.269.756 4.269 4.269 0 003.157-1.4 4.428 4.428 0 001.3-3.107 4.946 4.946 0 00-2.083-3.943 17.068 17.068 0 00-5.46-2.993 21.592 21.592 0 00-7.176-1.165 19.36 19.36 0 00-7.555 1.444 13.057 13.057 0 00-5.6 4.345 11.561 11.561 0 00-2.12 6.966 12.768 12.768 0 00.877 4.82 10.6 10.6 0 002.638 3.814 13.667 13.667 0 004.227 2.6 24.891 24.891 0 005.623 1.453 22.666 22.666 0 014.988 1.188 6.507 6.507 0 012.59 1.638 3 3 0 01.707 2.043 2.226 2.226 0 01-.708 1.618 6.272 6.272 0 01-2.342 1.438 9.687 9.687 0 01-3.377.566 12.065 12.065 0 01-4.695-.8 16.646 16.646 0 01-3.943-2.462 4.213 4.213 0 00-2.692-.948 4.349 4.349 0 00-3.243 1.377 4.448 4.448 0 00-1.268 3.134 4.74 4.74 0 00.525 2.131 5.657 5.657 0 001.425 1.793 18.244 18.244 0 006.449 3.7 25.031 25.031 0 007.442 1.039 19.2 19.2 0 007.59-1.5 14.212 14.212 0 005.8-4.43 11.3 11.3 0 002.279-7.046 13.751 13.751 0 00-.941-5.341 9.457 9.457 0 00-2.911-3.816z"/><path data-name="パス 7013" d="M261.04 3.061h-24.9a4.782 4.782 0 00-3.273 1.185 4.229 4.229 0 00-1.405 3.269 4.314 4.314 0 001.39 3.283 4.71 4.71 0 003.288 1.227h7.549v28.134a4.5 4.5 0 001.39 3.342 4.782 4.782 0 003.457 1.337 4.954 4.954 0 003.528-1.325 4.448 4.448 0 001.431-3.354V12.025h7.548a4.781 4.781 0 003.274-1.185 4.229 4.229 0 001.405-3.269 4.324 4.324 0 00-1.391-3.284 4.722 4.722 0 00-3.291-1.226z"/><path data-name="パス 7014" d="M292.721 5.874a4.566 4.566 0 00-1.727-2.233 4.538 4.538 0 00-2.518-.805 4.188 4.188 0 00-2.754.716 4.9 4.9 0 00-1.837 2.3l-13.967 33.541-.044.123a5 5 0 00-.22 1.426 4.3 4.3 0 001.035 2.9 4.013 4.013 0 003.194 1.276 4.194 4.194 0 002.5-.828 4.693 4.693 0 001.637-2.207l2.573-6.051h15.065l2.582 6.017a5.26 5.26 0 001.661 2.2 4.183 4.183 0 002.583.873 4.366 4.366 0 003.008-1.227 4.384 4.384 0 001.39-3.339 5.041 5.041 0 00-.364-1.8zm-8.312 21.193l3.686-8.669 3.72 8.669z"/><path data-name="パス 7015" d="M341.689 4.217a4.542 4.542 0 00-3.191-1.324 4.605 4.605 0 00-3.843 2.231l-8.236 12.051-8.847-12.209a4.61 4.61 0 00-3.754-2.073 5.048 5.048 0 00-3.2 1.234 4.3 4.3 0 00-1.644 3.445 5.173 5.173 0 00.289 1.629 6.048 6.048 0 00.974 1.762l11.414 15.166v14.03A4.541 4.541 0 00323 43.487a4.474 4.474 0 003.273 1.35 4.347 4.347 0 003.161-1.35 4.543 4.543 0 001.35-3.329V26.887l11.512-16.481a4.734 4.734 0 00.647-1.416 5.38 5.38 0 00.182-1.356 4.516 4.516 0 00-1.436-3.417z"/></g><g data-name="グループ 2368"><g data-name="グループ 2367" clip-path="url(#a)" transform="translate(2.5 26.339)"><g data-name="グループ 2366" fill="#fde94c"><path data-name="パス 7043" d="M29.846 8.143a5.246 5.246 0 00-3.05.5l-.041.02a9.373 9.373 0 01-1.26.543l-9.3 9.3a24.048 24.048 0 002.858.435l10.8-10.8z"/><path data-name="パス 7044" d="M16.696 9.068a10.157 10.157 0 01-1.4-.6l-6.783 6.783a20.6 20.6 0 002.05 1.243l7.126-7.126c-.339-.092-.67-.189-.993-.3z"/><path data-name="パス 7045" d="M10.643 3.098a12.031 12.031 0 01-.239-.687L3.131 9.684a18.77 18.77 0 001.376 1.917l6.9-6.9a11.852 11.852 0 01-.764-1.603z"/><path data-name="パス 7046" d="M21.391 9.813a15.952 15.952 0 01-1.864-.107l-7.485 7.485c.417.18.839.351 1.27.5.378.135.761.257 1.146.371l8.318-8.317c-.462.046-.925.068-1.385.068z"/><path data-name="パス 7047" d="M28.072 18.02a20.958 20.958 0 003.174-1.274 4.223 4.223 0 002.4-3.038 4.293 4.293 0 000-1.709l-6.2 6.2c.208-.055.418-.114.626-.179z"/><path data-name="パス 7048" d="M9.747-2.391a14.417 14.417 0 01.8-4.9 10.562 10.562 0 012.279-3.737 10.167 10.167 0 013.623-2.42 13.3 13.3 0 014.946-.864 12.851 12.851 0 012.835.306 13.206 13.206 0 012.57.862 5.615 5.615 0 002.99.565 3.814 3.814 0 002.752-1.6 4.737 4.737 0 001.06-3.829 4.239 4.239 0 00-2.384-3.222 21 21 0 00-4.708-1.728 22.147 22.147 0 00-5.114-.595 22.839 22.839 0 00-8.546 1.577 20.746 20.746 0 00-6.833 4.419 19.813 19.813 0 00-4.492 6.734A22.251 22.251 0 00-.054-2.384c0 .705.03 1.391.078 2.066L2.09-2.384h2.179L.235 1.651a22.6 22.6 0 00.57 2.723l6.757-6.757h2.179L1.333 6.025c.109.293.22.583.342.866.208.485.437.952.675 1.41L9.992.659a18.32 18.32 0 01-.245-3.05z"/><path data-name="パス 7049" d="M13.066 6.857A9.2 9.2 0 0112.288 6l-6.754 6.754c.3.3.6.6.912.882q.4.354.812.686l6.7-6.7a9.475 9.475 0 01-.892-.765z"/><path data-name="パス 7050" d="M32.591 9.793a4.548 4.548 0 00-1.15-1.058L21.123 19.053c.089 0 .178.005.268.005a21.494 21.494 0 003.27-.251l8.372-8.372a5.8 5.8 0 00-.442-.642z"/><path data-name="パス 7051" d="M328.217 1.96l-9.133 9.133v2.725c0 .184.011.362.029.538l9.1-9.1z"/><path data-name="パス 7052" d="M323.712 18.497a4.347 4.347 0 003.16-1.35 4.542 4.542 0 001.35-3.329v-.915l-5.495 5.494a4.887 4.887 0 00.985.1z"/><path data-name="パス 7053" d="M328.223 7.431l-8.608 8.608a4.613 4.613 0 00.824 1.108 4.8 4.8 0 00.749.612l7.035-7.035z"/><path data-name="パス 7054" d="M339.734-15.94a4.741 4.741 0 00.647-1.417 5.365 5.365 0 00.181-1.356 4.516 4.516 0 00-1.432-3.41 4.541 4.541 0 00-3.191-1.325 4.605 4.605 0 00-3.842 2.231L323.86-9.165l-8.846-12.209a4.61 4.61 0 00-3.754-2.073 5.046 5.046 0 00-3.2 1.234 4.3 4.3 0 00-1.644 3.445 5.175 5.175 0 00.289 1.629 6.048 6.048 0 00.974 1.762L318.308-1.25l1.142-1.142h2.178l-2.541 2.54v3.293l5.833-5.833h2.179l-8.013 8.012v3.293L329.98-1.981z"/><path data-name="パス 7055" d="M278.039 9.691h1.97l8.965-8.965h-3.292l-17.157 17.156a4.042 4.042 0 002.413.879l5.644-5.644z"/><path data-name="パス 7056" d="M301.574 6.72l-6.818 6.819.931 2.169c.019.045.043.085.063.129l6.8-6.8z"/><path data-name="パス 7057" d="M303.965 12.414l-.773-1.84-6.6 6.6a4.88 4.88 0 00.756.729 4.286 4.286 0 001.172.635l5.615-5.615a6.603 6.603 0 00-.17-.509z"/><path data-name="パス 7058" d="M299.952 2.866l-6.844 6.844.989 2.3 6.829-6.829z"/><path data-name="パス 7059" d="M297.75-2.391l-7.587-18.075a4.568 4.568 0 00-1.727-2.233 4.54 4.54 0 00-2.518-.8 4.188 4.188 0 00-2.755.716 4.9 4.9 0 00-1.837 2.3L272.446.842l3.229-3.229h2.18l-6.963 6.964-2.35 5.642 12.605-12.605h2.033l2.36-5.552 2.382 5.552h.88l-.616.615.988 2.3 2.92-2.919h2.179L282.19 9.692h3.293L297.565-2.39z"/><path data-name="パス 7060" d="M298.339-.987L287.66 9.692h3.292l8.36-8.36z"/><path data-name="パス 7061" d="M302.938 17.551a4.244 4.244 0 001.332-2.582l-3.766 3.765a4.451 4.451 0 002.434-1.183z"/><path data-name="パス 7062" d="M281.851.722l1.214-2.855-15.886 15.886a4.7 4.7 0 00-.083.846 4.474 4.474 0 00.472 2.057L283.503.721z"/><path data-name="パス 7063" d="M250.932 2.644l-9.806 9.806v1.368a4.771 4.771 0 00.282 1.642l9.524-9.524z"/><path data-name="パス 7064" d="M250.932-14.315h7.549a4.78 4.78 0 003.274-1.185 4.228 4.228 0 001.405-3.269 4.323 4.323 0 00-1.391-3.284 4.719 4.719 0 00-3.288-1.226h-24.9a4.781 4.781 0 00-3.273 1.185 4.229 4.229 0 00-1.405 3.269 4.315 4.315 0 001.39 3.283 4.71 4.71 0 003.289 1.228h7.549V-.672l1.719-1.718h2.179l-3.9 3.9v3.293l7.19-7.19h2.179l-9.369 9.369v3.293l9.806-9.806z"/><path data-name="パス 7065" d="M249.501 17.172a4.448 4.448 0 001.432-3.354v-.23l-4.907 4.907a4.94 4.94 0 003.475-1.323z"/><path data-name="パス 7066" d="M250.933 8.116l-8.719 8.719c.1.111.2.219.3.324a4.581 4.581 0 001.636 1.029l6.78-6.78z"/><path data-name="パス 7067" d="M201.792 9.296c-.29-.123-.581-.263-.874-.414l-6.7 6.7a18.714 18.714 0 002.038 1.254l7.063-7.063a8.744 8.744 0 01-1.527-.477z"/><path data-name="パス 7068" d="M206.724-2.391l-3.71 3.71q.785.159 1.618.283c.416.059.813.123 1.2.191l4.185-4.184h2.179l-4.563 4.563a16.417 16.417 0 011.988.618c.168.066.328.134.483.2l5.384-5.384h2.18l-6.172 6.171a4.243 4.243 0 01.714.648 2.84 2.84 0 01.632 1.3l7.131-7.131a9.477 9.477 0 00-1.658-1.668 15.165 15.165 0 00-4.617-2.364 46.338 46.338 0 00-6.069-1.5 31.609 31.609 0 01-4.259-1.1 5.47 5.47 0 01-2.311-1.391 2.765 2.765 0 01-.66-1.936 2.623 2.623 0 01.571-1.688 4.374 4.374 0 011.949-1.285 10.543 10.543 0 013.627-.538 10.386 10.386 0 012.8.43 20.525 20.525 0 013.011 1.109 8.983 8.983 0 012.113 1.292l.073.059a3.7 3.7 0 002.269.757 4.272 4.272 0 003.158-1.4 4.43 4.43 0 001.3-3.107 4.946 4.946 0 00-2.083-3.942 17.076 17.076 0 00-5.46-2.993 21.594 21.594 0 00-7.176-1.165 19.362 19.362 0 00-7.555 1.445 13.052 13.052 0 00-5.6 4.345 11.559 11.559 0 00-2.12 6.966 12.757 12.757 0 00.878 4.82 10.6 10.6 0 002.637 3.814l.068.06h.93l-.43.43a13.048 13.048 0 001.975 1.317l1.747-1.747h2.179L198.809.066c.07.029.137.06.208.089a21 21 0 002.246.749l3.289-3.289z"/><path data-name="パス 7069" d="M206.487 10.093c-.438 0-.857-.016-1.262-.045l-7.491 7.491c.434.179.87.343 1.31.481.383.119.778.225 1.178.324l8.49-8.49a10.333 10.333 0 01-2.225.239z"/><path data-name="パス 7070" d="M195.158 5.886a4.349 4.349 0 00-3.243 1.377 4.448 4.448 0 00-1.268 3.134 4.46 4.46 0 00.117.99l5.386-5.386a4.356 4.356 0 00-.992-.115z"/><path data-name="パス 7071" d="M221.219.737a8.56 8.56 0 00-.4-.816l-18.791 18.791a26.585 26.585 0 002.985.308l16.714-16.714a10.729 10.729 0 00-.508-1.569z"/><path data-name="パス 7072" d="M219.881 13.125a10.744 10.744 0 001.573-2.889l-7.269 7.268a14.187 14.187 0 005.696-4.379z"/><path data-name="パス 7073" d="M222.159 6.078a17.778 17.778 0 00-.1-1.918l-14.881 14.881a19.851 19.851 0 003.773-.48l11.136-11.137a13.426 13.426 0 00.072-1.346z"/><path data-name="パス 7074" d="M197.85 6.835c-.067-.054-.136-.1-.2-.151l-6.246 6.246a5.74 5.74 0 001.2 1.391c.128.11.257.212.386.318l6.562-6.562a19.737 19.737 0 01-1.702-1.242z"/><path data-name="パス 7075" d="M180.541-1.663a4.546 4.546 0 00-1.35-3.33 4.546 4.546 0 00-3.329-1.349h-9.76a4.648 4.648 0 00-3.3 1.268 4.263 4.263 0 00-1.337 2.683h1.483l-1.452 1.452a4.325 4.325 0 001.062 2.23l3.682-3.682h2.179l-4.655 4.655a4.731 4.731 0 002.34.583h.37l5.238-5.238h2.179l-5.238 5.238h3.292l5.238-5.238h2.179l-5.238 5.238h1.739a4.941 4.941 0 001.926-.373l2.427-2.427a4.537 4.537 0 00.325-1.71z"/><path data-name="パス 7076" d="M148.844-18.601a4.452 4.452 0 00-1.432-3.354 4.606 4.606 0 00-3.247-1.324 4.782 4.782 0 00-3.457 1.337 4.5 4.5 0 00-1.39 3.341v16.21h1.742l-1.742 1.742v3.292l5.034-5.034h2.179l-7.213 7.213v3.292l9.526-9.526z"/><path data-name="パス 7077" d="M148.844 13.818v-2.107l-6.508 6.508a5.206 5.206 0 001.717.278 4.819 4.819 0 001.551-.254l3.032-3.032a4.666 4.666 0 00.208-1.393z"/><path data-name="パス 7078" d="M148.844.768l-9.526 9.526v3.292l9.526-9.526z"/><path data-name="パス 7079" d="M148.844 6.239l-9.247 9.246a4.516 4.516 0 001.03 1.649c.1.105.209.2.318.3l7.9-7.9z"/><path data-name="パス 7080" d="M108.609 9.812a11.257 11.257 0 01-1.537-.1l-7.323 7.323c.236.118.473.235.715.344.523.236 1.06.441 1.606.628l8.341-8.341a10.973 10.973 0 01-1.802.146z"/><path data-name="パス 7081" d="M99.503 3.873a12.942 12.942 0 01-.825-2.185l-7.355 7.356a21.042 21.042 0 001.3 1.989l6.974-6.975c-.029-.062-.063-.122-.094-.185z"/><path data-name="パス 7082" d="M103.202 8.231c-.025-.017-.049-.037-.074-.054l-6.734 6.735a19.6 19.6 0 001.951 1.342l6.968-6.969a8.784 8.784 0 01-2.111-1.054z"/><path data-name="パス 7083" d="M128.937-2.391a23.059 23.059 0 00-1.486-8.3 21.366 21.366 0 00-4.2-6.821 19.639 19.639 0 00-6.469-4.643 19.859 19.859 0 00-8.17-1.68 19.657 19.657 0 00-8.146 1.682 19.7 19.7 0 00-6.438 4.642 21.336 21.336 0 00-4.2 6.822 23.038 23.038 0 00-1.486 8.3c0 .425.013.845.034 1.263l1.263-1.263h2.179L88.554.875a22.777 22.777 0 00.543 2.75l6.013-6.013h2.179l-7.684 7.684c.072.207.143.416.221.62.224.584.474 1.153.743 1.709l7.739-7.74a16.066 16.066 0 01-.162-2.273 14.153 14.153 0 011.358-6.289 11.029 11.029 0 013.7-4.338 9.29 9.29 0 015.406-1.577 9.294 9.294 0 015.406 1.576 11.219 11.219 0 013.731 4.371 13.964 13.964 0 011.384 6.257h.042l-.043.043a14.966 14.966 0 01-.477 3.769l3.813-3.813h2.179l-7.833 7.833a10.822 10.822 0 01-2.788 2.789L103.76 18.497a20.05 20.05 0 002.824.468l21.354-21.354z"/><path data-name="パス 7084" d="M128.905-1.181l-20.237 20.237a21.26 21.26 0 003.61-.317l16.145-16.145a23.721 23.721 0 00.482-3.775z"/><path data-name="パス 7085" d="M116.779 17.378a19.638 19.638 0 006.47-4.644 21.347 21.347 0 004.2-6.822c.033-.085.06-.172.092-.258l-12.336 12.335a18.11 18.11 0 001.574-.611z"/><path data-name="パス 7086" d="M100.409 5.428l-6.815 6.815c.142.165.283.331.43.491.38.413.779.8 1.189 1.181l6.711-6.711a10.825 10.825 0 01-1.515-1.776z"/><path data-name="パス 7087" d="M55.292 6.771L46.2 15.863a4.564 4.564 0 00.875 1.271 4.452 4.452 0 00.62.527l7.6-7.6z"/><path data-name="パス 7088" d="M80.195-2.391v-16.21a4.6 4.6 0 00-1.31-3.317 4.589 4.589 0 00-3.425-1.362 4.765 4.765 0 00-3.32 1.314 4.464 4.464 0 00-1.471 3.365v11.643H55.291v-11.643a4.453 4.453 0 00-1.431-3.354 4.608 4.608 0 00-3.247-1.324 4.783 4.783 0 00-3.457 1.337 4.5 4.5 0 00-1.39 3.341v16.3l.094-.093h2.179L45.766-.122v3.293l5.565-5.565h2.179l-7.745 7.745v3.298L56.802-2.388h2.179L45.765 10.828v2.993c0 .1.008.192.012.287l9.514-9.514V2.009h2.585l4.4-4.4h2.179l-4.4 4.4h3.293l4.4-4.4h2.179l-4.4 4.4h3.293l4.4-4.4h2.179L70.67 2.338V5.63l8.021-8.021z"/><path data-name="パス 7089" d="M55.292 13.818v-1.575l-6.1 6.1a5.445 5.445 0 001.307.156 4.708 4.708 0 002.56-.731l1.571-1.571a4.484 4.484 0 00.662-2.379z"/><path data-name="パス 7090" d="M78.846 17.145a4.466 4.466 0 001.259-2.358l-3.591 3.591a4.5 4.5 0 002.332-1.233z"/><path data-name="パス 7091" d="M80.195 9.226l-8.015 8.015a4.668 4.668 0 002.15 1.142l5.865-5.864z"/><path data-name="パス 7092" d="M80.195-1.713l-9.526 9.526v3.293l9.526-9.526z"/><path data-name="パス 7093" d="M80.195 3.754l-9.526 9.526v.538a4.54 4.54 0 00.543 2.212l8.983-8.983z"/><path data-name="パス 7094" d="M289.257.726l-.085-.2-.2.2z"/><path data-name="パス 7095" d="M283.327-2.391h-.15l-.112.262z"/></g></g></g><g data-name="グループ 2369" fill="none" stroke-linecap="round" stroke-linejoin="round"><g data-name="パス 7096"><path d="M32.405 34.487a5.246 5.246 0 00-3.05.5l-.04.02a9.163 9.163 0 01-2.566.889 15.376 15.376 0 01-2.8.259 14.351 14.351 0 01-4.694-.744 9.725 9.725 0 01-3.63-2.211 10.406 10.406 0 01-2.423-3.759 15.2 15.2 0 01-.9-5.49 14.416 14.416 0 01.8-4.9 10.56 10.56 0 012.279-3.737 10.17 10.17 0 013.623-2.42 13.3 13.3 0 014.946-.864 12.856 12.856 0 012.835.306 13.21 13.21 0 012.57.862 5.616 5.616 0 002.99.565 3.813 3.813 0 002.752-1.6 4.736 4.736 0 001.06-3.829 4.239 4.239 0 00-2.383-3.222 20.994 20.994 0 00-4.709-1.729 22.167 22.167 0 00-5.114-.595 22.843 22.843 0 00-8.546 1.577 20.744 20.744 0 00-6.833 4.419 19.807 19.807 0 00-4.492 6.734 22.25 22.25 0 00-1.579 8.439 23.408 23.408 0 001.729 9.274 18.944 18.944 0 004.777 6.752 20.712 20.712 0 006.865 4.06 23.99 23.99 0 008.078 1.363 21.463 21.463 0 003.4-.269 24.079 24.079 0 003.285-.769 20.955 20.955 0 003.174-1.274 4.223 4.223 0 002.4-3.038 4.647 4.647 0 00-1.052-3.916 4.169 4.169 0 00-2.752-1.653z"/><path d="M23.95 45.399c1.145 0 2.288-.09 3.396-.269a24.079 24.079 0 003.285-.77 20.955 20.955 0 003.174-1.273c1.284-.617 2.112-1.666 2.397-3.038.28-1.35-.087-2.71-1.052-3.916-.727-.934-1.65-1.489-2.745-1.65a4.914 4.914 0 00-.713-.051c-.778 0-1.562.185-2.337.553l-.04.02a9.163 9.163 0 01-2.566.889c-.925.172-1.867.259-2.8.259-1.684 0-3.264-.25-4.693-.744a9.725 9.725 0 01-3.63-2.212c-1.024-.99-1.839-2.253-2.424-3.758-.594-1.529-.896-3.375-.896-5.49 0-1.79.267-3.44.796-4.902a10.56 10.56 0 012.279-3.738c.99-1.04 2.21-1.854 3.623-2.42 1.433-.573 3.097-.864 4.946-.864a12.856 12.856 0 015.405 1.168c.823.393 1.657.59 2.484.59.17 0 .338-.008.506-.025 1.108-.108 2.06-.662 2.752-1.603.915-1.125 1.282-2.449 1.06-3.83-.232-1.441-1.056-2.555-2.384-3.221a20.994 20.994 0 00-4.709-1.73 22.167 22.167 0 00-5.114-.594c-3.063 0-5.938.53-8.546 1.577-2.612 1.05-4.91 2.536-6.833 4.419-1.93 1.889-3.44 4.154-4.492 6.734C3.032 18.081 2.5 20.92 2.5 23.95c0 3.484.582 6.605 1.729 9.273 1.152 2.683 2.76 4.955 4.777 6.752a20.712 20.712 0 006.865 4.06c2.538.905 5.256 1.364 8.079 1.364m0 2.5c-3.11 0-6.11-.508-8.918-1.509a23.2 23.2 0 01-7.69-4.548c-2.292-2.043-4.113-4.611-5.41-7.633C.65 31.23 0 27.776 0 23.95c0-3.353.594-6.51 1.764-9.382C2.945 11.669 4.647 9.12 6.822 6.99c2.158-2.113 4.732-3.78 7.65-4.952C17.378.871 20.567.28 23.95.28c1.925 0 3.84.223 5.692.663a23.507 23.507 0 015.264 1.932c2.04 1.028 3.36 2.822 3.719 5.054.33 2.053-.22 4.096-1.552 5.757-1.107 1.478-2.697 2.386-4.485 2.56-.248.025-.5.037-.749.037-1.196 0-2.387-.277-3.54-.823a10.358 10.358 0 00-4.35-.934c-1.529 0-2.88.23-4.016.684-1.078.431-2 1.045-2.742 1.824-.755.792-1.34 1.755-1.737 2.86-.43 1.19-.648 2.554-.648 4.055 0 1.803.245 3.345.726 4.584.453 1.166 1.07 2.13 1.831 2.868a7.248 7.248 0 002.708 1.644c1.167.404 2.472.608 3.879.608.779 0 1.567-.073 2.342-.217a6.673 6.673 0 001.905-.667l.04-.02.045-.022c1.11-.528 2.258-.795 3.41-.795.359 0 .72.026 1.075.078 1.724.253 3.227 1.143 4.346 2.575 1.42 1.784 1.966 3.904 1.537 5.973-.442 2.124-1.77 3.819-3.743 4.773a23.403 23.403 0 01-3.539 1.419c-1.19.368-2.411.654-3.626.848-1.239.2-2.515.3-3.792.3z" fill="#231815"/></g><g data-name="パス 7097"><path d="M78.02 3.061a4.767 4.767 0 00-3.32 1.314 4.464 4.464 0 00-1.471 3.365v11.647h-15.38V7.744a4.453 4.453 0 00-1.432-3.354 4.608 4.608 0 00-3.247-1.325 4.781 4.781 0 00-3.457 1.338 4.494 4.494 0 00-1.39 3.341v32.419a4.592 4.592 0 001.309 3.316 4.583 4.583 0 003.426 1.363 4.767 4.767 0 003.32-1.314 4.464 4.464 0 001.471-3.365V28.352h15.378v11.811a4.445 4.445 0 001.43 3.353 4.6 4.6 0 003.248 1.326 4.752 4.752 0 003.5-1.35 4.542 4.542 0 001.35-3.329V7.744a4.6 4.6 0 00-1.31-3.317 4.589 4.589 0 00-3.425-1.366z"/><path d="M53.172 3.061c-1.38 0-2.543.45-3.457 1.338-.923.897-1.39 2.022-1.39 3.341v32.42c0 1.307.44 2.422 1.309 3.315.878.905 2.03 1.363 3.426 1.363 1.256 0 2.373-.442 3.32-1.314a4.464 4.464 0 001.47-3.365V28.348h15.38v11.811c0 1.329.481 2.458 1.43 3.353.93.88 2.022 1.326 3.248 1.326 1.425 0 2.601-.454 3.498-1.35.896-.896 1.35-2.016 1.35-3.329V7.74c0-1.305-.44-2.421-1.31-3.317-.88-.904-2.032-1.362-3.425-1.362-1.257 0-2.374.442-3.32 1.314A4.464 4.464 0 0073.23 7.74v11.643H57.85V7.74c0-1.326-.482-2.454-1.432-3.354-.93-.88-2.023-1.325-3.247-1.325m0-2.5c1.856 0 3.573.694 4.963 2.007 1.45 1.373 2.216 3.161 2.216 5.172v9.143h10.378V7.74a7 7 0 012.277-5.204C74.408 1.244 76.142.561 78.02.561c2.063 0 3.867.732 5.216 2.118 1.321 1.361 2.018 3.11 2.018 5.061v32.42c0 1.971-.72 3.734-2.082 5.096-1.362 1.362-3.183 2.082-5.265 2.082-1.86 0-3.577-.695-4.966-2.01-1.447-1.366-2.212-3.154-2.212-5.169v-9.311H60.35v9.311c0 2.003-.81 3.851-2.278 5.204-1.402 1.292-3.136 1.975-5.013 1.975-2.068 0-3.873-.734-5.22-2.121-1.318-1.355-2.015-3.105-2.015-5.058V7.74c0-1.993.743-3.768 2.147-5.134 1.378-1.338 3.176-2.045 5.2-2.045z" fill="#231815"/></g><g data-name="パス 7098"><path d="M125.807 8.824a19.635 19.635 0 00-6.469-4.643 19.851 19.851 0 00-8.17-1.68 19.657 19.657 0 00-8.146 1.682 19.709 19.709 0 00-6.438 4.642 21.334 21.334 0 00-4.2 6.822 23.037 23.037 0 00-1.486 8.3 23.03 23.03 0 001.486 8.3 21.319 21.319 0 004.2 6.822 19.693 19.693 0 006.438 4.642 19.657 19.657 0 008.146 1.682 19.852 19.852 0 008.17-1.68 19.634 19.634 0 006.47-4.644 21.345 21.345 0 004.2-6.822 23.047 23.047 0 001.486-8.3 23.056 23.056 0 00-1.486-8.3 21.353 21.353 0 00-4.201-6.823zm-14.639 27.329a9.286 9.286 0 01-5.406-1.577 10.98 10.98 0 01-3.7-4.362 14.2 14.2 0 01-1.36-6.265 14.157 14.157 0 011.358-6.289 11.027 11.027 0 013.7-4.338 9.29 9.29 0 015.406-1.577 9.294 9.294 0 015.406 1.577 11.219 11.219 0 013.732 4.371 13.969 13.969 0 011.384 6.257 13.965 13.965 0 01-1.384 6.257 11.211 11.211 0 01-3.731 4.371 9.29 9.29 0 01-5.405 1.575z"/><path d="M111.168 2.5c-2.933 0-5.673.566-8.146 1.682a19.709 19.709 0 00-6.438 4.642c-1.8 1.958-3.214 4.254-4.202 6.822-.986 2.563-1.486 5.357-1.486 8.303 0 2.947.5 5.741 1.486 8.304.987 2.567 2.4 4.863 4.202 6.822a19.693 19.693 0 006.438 4.642c2.473 1.116 5.213 1.682 8.146 1.682 2.93 0 5.68-.566 8.17-1.68a19.634 19.634 0 006.47-4.644c1.8-1.96 3.214-4.255 4.201-6.822.986-2.565 1.486-5.359 1.486-8.304 0-2.944-.5-5.738-1.486-8.304-.988-2.567-2.402-4.863-4.202-6.821a19.635 19.635 0 00-6.47-4.644c-2.49-1.115-5.239-1.68-8.17-1.68m0 33.653c-2.08 0-3.848-.515-5.406-1.577-1.566-1.065-2.81-2.533-3.7-4.362-.901-1.855-1.359-3.963-1.359-6.265 0-2.337.457-4.453 1.358-6.29.888-1.81 2.134-3.27 3.702-4.337 1.558-1.061 3.326-1.577 5.406-1.577 2.078 0 3.846.516 5.406 1.577 1.568 1.069 2.824 2.54 3.731 4.37.918 1.855 1.384 3.96 1.384 6.257 0 2.299-.466 4.404-1.384 6.257-.907 1.832-2.163 3.302-3.731 4.37-1.558 1.062-3.326 1.577-5.406 1.577m0-36.153c3.285 0 6.378.639 9.191 1.899a22.122 22.122 0 017.288 5.232c2.014 2.191 3.594 4.754 4.695 7.616 1.097 2.855 1.653 5.95 1.653 9.202 0 3.253-.556 6.349-1.652 9.201-1.101 2.862-2.68 5.425-4.695 7.616A22.121 22.121 0 01120.359 46c-2.813 1.26-5.906 1.899-9.191 1.899-3.29 0-6.377-.64-9.175-1.903a22.179 22.179 0 01-7.25-5.23c-2.014-2.19-3.594-4.753-4.695-7.616-1.096-2.85-1.652-5.946-1.652-9.2 0-3.255.556-6.35 1.653-9.202 1.1-2.862 2.68-5.425 4.695-7.616a22.195 22.195 0 017.249-5.228C104.791.64 107.878 0 111.168 0zm0 33.653c1.583 0 2.854-.363 3.999-1.143 1.208-.823 2.184-1.972 2.898-3.414.746-1.505 1.124-3.237 1.124-5.147 0-1.91-.378-3.64-1.124-5.147-.714-1.441-1.69-2.59-2.9-3.414-1.144-.78-2.415-1.143-3.997-1.143-1.583 0-2.854.363-4 1.144-1.205.82-2.168 1.955-2.863 3.372-.732 1.49-1.103 3.236-1.103 5.188 0 1.92.373 3.66 1.108 5.171.696 1.432 1.657 2.572 2.858 3.39 1.145.78 2.416 1.143 4 1.143z" fill="#231815"/></g><g data-name="パス 7099"><path d="M146.724 3.061a4.782 4.782 0 00-3.457 1.338 4.5 4.5 0 00-1.39 3.341v32.419a4.593 4.593 0 001.309 3.316 4.582 4.582 0 003.426 1.363 4.768 4.768 0 003.32-1.314 4.464 4.464 0 001.471-3.365V7.74a4.452 4.452 0 00-1.432-3.354 4.607 4.607 0 00-3.247-1.325z"/><path d="M146.724 3.061c-1.38 0-2.543.45-3.457 1.338-.922.897-1.39 2.022-1.39 3.341v32.42c0 1.307.44 2.422 1.309 3.315.878.905 2.03 1.363 3.426 1.363 1.256 0 2.372-.442 3.32-1.314a4.464 4.464 0 001.47-3.365V7.74c0-1.326-.48-2.454-1.431-3.354-.93-.88-2.023-1.325-3.247-1.325m0-2.5c1.857 0 3.573.694 4.963 2.007 1.45 1.373 2.216 3.16 2.216 5.172v32.42c0 2.002-.809 3.85-2.278 5.203-1.403 1.292-3.137 1.975-5.013 1.975-2.068 0-3.873-.734-5.22-2.122-1.318-1.355-2.015-3.104-2.015-5.057V7.74c0-1.992.742-3.767 2.147-5.133 1.378-1.339 3.176-2.046 5.2-2.046z" fill="#231815"/></g><g data-name="パス 7100"><path d="M178.422 19.998h-9.76a4.648 4.648 0 00-3.3 1.268 4.355 4.355 0 00-1.377 3.3 4.444 4.444 0 001.362 3.312 4.591 4.591 0 003.317 1.31h9.76a4.656 4.656 0 003.3-1.268 4.349 4.349 0 001.376-3.242 4.546 4.546 0 00-1.35-3.329 4.545 4.545 0 00-3.328-1.351z"/><path d="M168.662 19.998c-1.3 0-2.41.426-3.302 1.268-.913.86-1.376 1.97-1.376 3.299 0 1.32.458 2.435 1.362 3.312.893.87 2.009 1.31 3.316 1.31h9.76c1.299 0 2.41-.427 3.303-1.268.9-.85 1.376-1.97 1.376-3.242 0-1.313-.454-2.432-1.35-3.33-.897-.895-2.017-1.349-3.329-1.349h-9.76m0-2.5h9.76c1.971 0 3.733.72 5.096 2.08 1.363 1.366 2.083 3.128 2.083 5.099 0 1.948-.767 3.745-2.16 5.06-1.355 1.276-3.09 1.95-5.019 1.95h-9.76c-1.954 0-3.703-.698-5.06-2.019-1.385-1.343-2.118-3.109-2.118-5.103 0-2.016.747-3.785 2.162-5.118 1.349-1.275 3.084-1.949 5.016-1.949z" fill="#231815"/></g><g data-name="パス 7101"><path d="M220.871 23.268a15.172 15.172 0 00-4.616-2.364 46.432 46.432 0 00-6.07-1.5 31.5 31.5 0 01-4.259-1.1 5.467 5.467 0 01-2.311-1.391 2.765 2.765 0 01-.66-1.937 2.625 2.625 0 01.571-1.688 4.373 4.373 0 011.949-1.284 10.542 10.542 0 013.627-.538 10.383 10.383 0 012.8.429 20.5 20.5 0 013.011 1.109 8.972 8.972 0 012.113 1.293l.073.059a3.7 3.7 0 002.269.756 4.269 4.269 0 003.157-1.4 4.428 4.428 0 001.3-3.107 4.946 4.946 0 00-2.083-3.943 17.068 17.068 0 00-5.46-2.993 21.592 21.592 0 00-7.176-1.165 19.36 19.36 0 00-7.555 1.444 13.057 13.057 0 00-5.6 4.345 11.561 11.561 0 00-2.12 6.966 12.768 12.768 0 00.877 4.82 10.6 10.6 0 002.638 3.814 13.667 13.667 0 004.227 2.6 24.891 24.891 0 005.623 1.453 22.666 22.666 0 014.988 1.188 6.507 6.507 0 012.59 1.638 3 3 0 01.707 2.043 2.226 2.226 0 01-.708 1.618 6.272 6.272 0 01-2.342 1.438 9.687 9.687 0 01-3.377.566 12.065 12.065 0 01-4.695-.8 16.646 16.646 0 01-3.943-2.462 4.213 4.213 0 00-2.692-.948 4.349 4.349 0 00-3.243 1.377 4.448 4.448 0 00-1.268 3.134 4.74 4.74 0 00.525 2.131 5.657 5.657 0 001.425 1.793 18.244 18.244 0 006.449 3.7 25.031 25.031 0 007.442 1.039 19.2 19.2 0 007.59-1.5 14.212 14.212 0 005.8-4.43 11.3 11.3 0 002.279-7.046 13.751 13.751 0 00-.941-5.341 9.457 9.457 0 00-2.911-3.816z"/><path d="M209.102 2.5c-2.737 0-5.279.486-7.555 1.444-2.336.984-4.221 2.445-5.605 4.345-1.406 1.932-2.12 4.275-2.12 6.967 0 1.764.296 3.385.878 4.82a10.597 10.597 0 002.638 3.814c1.136 1.054 2.559 1.929 4.227 2.6 1.619.651 3.507 1.14 5.623 1.453 2.025.284 3.703.684 4.988 1.187 1.185.465 2.056 1.016 2.59 1.639.476.555.707 1.223.707 2.042 0 .608-.226 1.122-.709 1.619-.577.591-1.365 1.075-2.342 1.437-1.013.376-2.148.567-3.376.567-1.877 0-3.457-.268-4.695-.797-1.287-.548-2.61-1.374-3.943-2.462a4.213 4.213 0 00-2.692-.948c-1.272 0-2.393.476-3.243 1.377-.841.893-1.268 1.947-1.268 3.133 0 .719.177 1.437.525 2.132a5.67 5.67 0 001.425 1.793c2.03 1.752 4.2 2.996 6.449 3.698 2.208.69 4.712 1.039 7.442 1.039 2.7 0 5.254-.506 7.59-1.504 2.378-1.016 4.331-2.506 5.804-4.43 1.511-1.973 2.278-4.344 2.278-7.046 0-2.067-.316-3.864-.94-5.341a9.457 9.457 0 00-2.907-3.81c-1.232-.964-2.785-1.76-4.617-2.364-1.745-.575-3.792-1.08-6.07-1.498-1.655-.324-3.087-.695-4.258-1.103-1.026-.357-1.802-.825-2.31-1.391-.445-.495-.66-1.129-.66-1.937 0-.65.186-1.202.57-1.688.414-.525 1.07-.957 1.95-1.285.957-.356 2.177-.537 3.626-.537.85 0 1.792.144 2.798.429 1.052.298 2.065.67 3.011 1.109.896.415 1.608.85 2.113 1.292l.074.06a3.706 3.706 0 002.268.755c1.199 0 2.29-.485 3.158-1.403.86-.911 1.296-1.956 1.296-3.107 0-1.512-.7-2.838-2.083-3.942-1.42-1.212-3.256-2.22-5.46-2.993-2.199-.773-4.613-1.165-7.175-1.165m0-2.5c2.845 0 5.538.44 8.004 1.306 2.48.871 4.574 2.023 6.224 3.424 1.956 1.576 2.99 3.605 2.99 5.87 0 1.784-.684 3.451-1.978 4.823-1.333 1.41-3.1 2.187-4.976 2.187a6.235 6.235 0 01-3.832-1.305l-.074-.06a2.495 2.495 0 01-.082-.068c-.184-.16-.625-.492-1.518-.906a17.984 17.984 0 00-2.642-.972c-.783-.222-1.496-.334-2.116-.334-1.432 0-2.288.207-2.754.38-.65.243-.84.467-.86.492-.025.03-.033.04-.033.138 0 .168.02.25.029.276.11.119.441.405 1.263.69 1.057.37 2.37.708 3.903 1.009 2.385.438 4.534.97 6.386 1.58 2.108.695 3.916 1.626 5.376 2.77a11.931 11.931 0 013.669 4.805c.754 1.787 1.137 3.911 1.137 6.314 0 3.264-.94 6.146-2.794 8.566-1.737 2.27-4.027 4.022-6.807 5.21-2.647 1.13-5.531 1.704-8.571 1.704-2.983 0-5.738-.388-8.187-1.153-2.574-.803-5.04-2.21-7.328-4.184a8.128 8.128 0 01-2.039-2.578 7.211 7.211 0 01-.787-3.247c0-1.818.674-3.495 1.948-4.847 1.317-1.395 3.114-2.163 5.063-2.163a6.745 6.745 0 014.274 1.512c1.146.936 2.27 1.642 3.341 2.098.915.39 2.199.597 3.715.597.93 0 1.773-.138 2.507-.41.614-.228 1.103-.516 1.416-.834-.015-.194-.066-.253-.102-.295-.119-.139-.516-.51-1.603-.937-1.104-.432-2.592-.782-4.424-1.04l-.018-.002c-2.308-.342-4.39-.883-6.19-1.607-1.953-.785-3.633-1.824-4.994-3.087a13.075 13.075 0 01-3.255-4.707c-.704-1.734-1.06-3.672-1.06-5.76 0-3.23.874-6.07 2.599-8.438 1.654-2.272 3.893-4.014 6.655-5.177C203.16.552 206.029 0 209.102 0z" fill="#231815"/></g><g data-name="パス 7102"><path d="M261.04 3.061h-24.9a4.782 4.782 0 00-3.273 1.185 4.229 4.229 0 00-1.405 3.269 4.314 4.314 0 001.39 3.283 4.71 4.71 0 003.288 1.227h7.549v28.134a4.5 4.5 0 001.39 3.342 4.782 4.782 0 003.457 1.337 4.954 4.954 0 003.528-1.325 4.448 4.448 0 001.431-3.354V12.025h7.548a4.781 4.781 0 003.274-1.185 4.229 4.229 0 001.405-3.269 4.324 4.324 0 00-1.391-3.284 4.722 4.722 0 00-3.291-1.226z"/><path d="M236.136 3.061c-1.284 0-2.385.4-3.273 1.185-.92.815-1.405 1.945-1.405 3.27 0 1.317.481 2.453 1.39 3.282.89.815 1.996 1.228 3.288 1.228h7.549v28.133c0 1.32.468 2.445 1.39 3.342.913.887 2.076 1.337 3.457 1.337 1.411 0 2.598-.446 3.528-1.325.95-.898 1.431-2.026 1.431-3.354V12.026h7.549c1.285 0 2.386-.4 3.273-1.186.92-.814 1.406-1.944 1.406-3.269 0-1.315-.48-2.45-1.391-3.284-.892-.813-1.998-1.226-3.288-1.226h-24.904m0-2.5h24.904c1.905 0 3.625.65 4.973 1.879l.004.004c1.42 1.3 2.202 3.122 2.202 5.127 0 2.032-.799 3.857-2.248 5.14-1.339 1.187-3.044 1.815-4.931 1.815h-5.049v25.633c0 2.014-.765 3.802-2.214 5.171-1.39 1.314-3.203 2.008-5.245 2.008-2.025 0-3.822-.707-5.199-2.044-1.406-1.368-2.148-3.143-2.148-5.135V14.526h-5.049c-1.91 0-3.631-.652-4.977-1.884-1.418-1.294-2.201-3.116-2.201-5.127 0-2.03.798-3.856 2.247-5.14 1.34-1.187 3.045-1.814 4.931-1.814z" fill="#231815"/></g><g data-name="パス 7103"><path d="M292.721 5.874a4.566 4.566 0 00-1.727-2.233 4.538 4.538 0 00-2.518-.805 4.188 4.188 0 00-2.754.716 4.9 4.9 0 00-1.837 2.3l-13.967 33.541-.044.123a5 5 0 00-.22 1.426 4.3 4.3 0 001.035 2.9 4.013 4.013 0 003.194 1.276 4.194 4.194 0 002.5-.828 4.693 4.693 0 001.637-2.207l2.573-6.051h15.065l2.582 6.017a5.26 5.26 0 001.661 2.2 4.183 4.183 0 002.583.873 4.366 4.366 0 003.008-1.227 4.384 4.384 0 001.39-3.339 5.041 5.041 0 00-.364-1.8zm-8.312 21.193l3.686-8.669 3.72 8.669z"/><path d="M288.084 2.818c-.835 0-1.63.246-2.362.734-.83.554-1.45 1.334-1.837 2.301l-13.967 33.542-.043.123a5 5 0 00-.22 1.426c0 1.13.348 2.106 1.035 2.898.733.847 1.807 1.276 3.194 1.276a4.2 4.2 0 002.505-.828c.737-.535 1.288-1.277 1.636-2.208l2.573-6.05h15.066l2.582 6.016c.384.915.944 1.654 1.66 2.197.763.58 1.633.873 2.584.873 1.105 0 2.117-.413 3.007-1.227.91-.831 1.39-1.986 1.39-3.34 0-.563-.122-1.167-.363-1.796L292.721 5.874c-.354-.946-.935-1.697-1.726-2.233a4.538 4.538 0 00-2.519-.805 4.365 4.365 0 00-.392-.018m3.732 24.249h-7.406l3.686-8.67 3.72 8.67M288.084.318c.172 0 .347.007.521.02a6.997 6.997 0 013.792 1.234c1.214.822 2.104 1.957 2.646 3.375l13.786 32.84.03.072c.35.916.529 1.822.529 2.692 0 2.045-.783 3.887-2.204 5.185-1.347 1.231-2.97 1.882-4.694 1.882a6.72 6.72 0 01-4.095-1.382c-1.068-.809-1.893-1.889-2.45-3.209l-1.93-4.495h-11.763l-1.907 4.483c-.525 1.372-1.362 2.482-2.49 3.299a6.736 6.736 0 01-3.97 1.304c-2.672 0-4.24-1.163-5.085-2.14-1.077-1.242-1.646-2.81-1.646-4.534a7.495 7.495 0 01.365-2.262l.043-.123a2.32 2.32 0 01.049-.125l13.96-33.526a7.434 7.434 0 012.763-3.435c1.152-.767 2.412-1.155 3.75-1.155z" fill="#231815"/></g><g data-name="パス 7104"><path d="M341.689 4.217a4.542 4.542 0 00-3.191-1.324 4.605 4.605 0 00-3.843 2.231l-8.236 12.051-8.847-12.209a4.61 4.61 0 00-3.754-2.073 5.048 5.048 0 00-3.2 1.234 4.3 4.3 0 00-1.644 3.445 5.173 5.173 0 00.289 1.629 6.048 6.048 0 00.974 1.762l11.414 15.166v14.03A4.541 4.541 0 00323 43.487a4.474 4.474 0 003.273 1.35 4.347 4.347 0 003.161-1.35 4.543 4.543 0 001.35-3.329V26.887l11.512-16.481a4.734 4.734 0 00.647-1.416 5.38 5.38 0 00.182-1.356 4.516 4.516 0 00-1.436-3.417z"/><path d="M313.819 2.893c-1.114 0-2.191.415-3.203 1.234-1.076.871-1.644 2.062-1.644 3.445 0 .509.097 1.058.288 1.63.193.581.524 1.178.974 1.761l11.414 15.166v14.03c0 1.315.455 2.435 1.35 3.329.895.896 1.996 1.35 3.273 1.35 1.201 0 2.264-.454 3.16-1.35.896-.895 1.35-2.015 1.35-3.329V26.882l11.512-16.481c.3-.45.517-.927.647-1.417.12-.46.181-.916.181-1.356 0-1.364-.481-2.51-1.432-3.41-.931-.88-2.004-1.325-3.19-1.325-1.042 0-2.552.385-3.844 2.23l-8.235 12.052-8.847-12.209c-1.286-1.713-2.751-2.073-3.754-2.073m0-2.5c2.224 0 4.267 1.091 5.754 3.073l.024.033 6.763 9.333 6.231-9.119.016-.023c1.489-2.126 3.58-3.297 5.891-3.297 1.82 0 3.517.694 4.907 2.007 1.45 1.373 2.216 3.18 2.216 5.228 0 .651-.088 1.32-.263 1.988l-.001.006a7.229 7.229 0 01-1.015 2.21L333.281 27.67v12.49c0 1.973-.72 3.735-2.082 5.097-1.362 1.362-3.067 2.082-4.928 2.082-1.937 0-3.68-.72-5.042-2.083-1.361-1.36-2.081-3.123-2.081-5.096V26.965l-10.903-14.487c-.62-.805-1.075-1.64-1.356-2.484a7.656 7.656 0 01-.417-2.422c0-2.132.913-4.045 2.57-5.388C310.512.995 312.12.393 313.82.393z" fill="#231815"/></g></g></g><g data-name="グループ 2406"><g data-name="グループ 2399"><path data-name="パス 7229" d="M95.186 86.842v.5h6.585a1.019 1.019 0 01.953 1.127 1.018 1.018 0 01-.953 1.125h-6.737c-.52 4.333-2.317 7-5.285 8.838a1.531 1.531 0 01-.8.238 1.257 1.257 0 01-1.257-1.257 1.318 1.318 0 01.693-1.127 8.409 8.409 0 004.115-6.694h-7.083a1 1 0 01-.932-1.125 1 1 0 01.932-1.127h7.235a6.638 6.638 0 00.022-.672v-2.491c-1.56.217-3.12.39-4.485.455a1.173 1.173 0 01-1.278-1.191 1.13 1.13 0 011.17-1.148 47.664 47.664 0 0010.418-1.82 1.486 1.486 0 01.413-.065 1.251 1.251 0 011.234 1.257 1.138 1.138 0 01-.867 1.083 35.276 35.276 0 01-4.094 1z" fill="#fde94c"/></g><g data-name="グループ 2400"><path data-name="パス 7230" d="M125.643 87.882c0-.628-.239-.78-1.1-.78h-6.977a.949.949 0 01-.932-1.04.942.942 0 01.932-1.018h7.429c2.015 0 2.816.8 2.816 2.383v7.949c0 1.647-.8 2.427-2.816 2.427h-7.646a.943.943 0 01-.932-1.018.932.932 0 01.932-1.018h7.192c.865 0 1.1-.173 1.1-.78v-2.794h-7.275a.943.943 0 01-.932-1.018.932.932 0 01.932-1.018h7.278z" fill="#fde94c"/></g><g data-name="グループ 2401"><path data-name="パス 7231" d="M149.865 88.251a38.244 38.244 0 01-5.479 3.639 1.468 1.468 0 01-.76.2 1.207 1.207 0 01-1.191-1.213 1.378 1.378 0 01.824-1.213 33.321 33.321 0 0010.526-8.881 1.357 1.357 0 011.084-.563 1.292 1.292 0 011.321 1.213 1.329 1.329 0 01-.3.8 34.155 34.155 0 01-4.592 4.83 1.132 1.132 0 011.126 1.127v9.509a1.156 1.156 0 01-1.277 1.127 1.168 1.168 0 01-1.279-1.127z" fill="#fde94c"/></g><g data-name="グループ 2402"><path data-name="パス 7232" d="M176.319 89.255a.963.963 0 01.975 1.04.963.963 0 01-.975 1.04h-5.395a.962.962 0 01-.974-1.04.962.962 0 01.974-1.04z" fill="#fde94c"/></g><g data-name="グループ 2403"><path data-name="パス 7233" d="M201.492 82.077c1.691-.043 2.557.693 2.557 1.862a3.6 3.6 0 01-.24 1.17 20.108 20.108 0 01-2.967 5.177 32.244 32.244 0 015.805 5.134 1.524 1.524 0 01.411.975 1.381 1.381 0 01-1.386 1.3 1.349 1.349 0 01-1.04-.52 33.361 33.361 0 00-5.329-5.09 25.036 25.036 0 01-7.061 5.372 1.405 1.405 0 01-.629.152 1.271 1.271 0 01-1.256-1.257 1.2 1.2 0 01.736-1.1c4.505-2.274 8.3-5.957 10.008-10.159a.81.81 0 00.087-.347c0-.195-.174-.282-.542-.282l-7.755.152a1.091 1.091 0 01-1.082-1.169 1.113 1.113 0 011.062-1.213z" fill="#fde94c"/></g><g data-name="グループ 2404"><path data-name="パス 7234" d="M231.022 88.857a11.626 11.626 0 01-5.479 9.379 1.4 1.4 0 01-.673.195 1.286 1.286 0 01-1.234-1.278 1.218 1.218 0 01.649-1.062 8.912 8.912 0 004.225-7.234h-6.65c-.628 0-.931-.585-.931-1.148 0-.585.3-1.148.931-1.148h15.488a1.026 1.026 0 01.953 1.148 1.038 1.038 0 01-.953 1.148zm3.6-7.408a1.046 1.046 0 01.953 1.17 1.045 1.045 0 01-.953 1.169h-10.094c-.628 0-.933-.584-.933-1.169s.3-1.17.933-1.17z" fill="#fde94c"/></g><g data-name="グループ 2405"><path data-name="パス 7235" d="M259.058 88.251a38.121 38.121 0 01-5.48 3.639 1.467 1.467 0 01-.758.2 1.205 1.205 0 01-1.191-1.213 1.376 1.376 0 01.823-1.213 33.354 33.354 0 0010.528-8.881 1.354 1.354 0 011.082-.563 1.293 1.293 0 011.322 1.213 1.329 1.329 0 01-.3.8 34.22 34.22 0 01-4.592 4.83 1.132 1.132 0 011.127 1.127v9.509a1.157 1.157 0 01-1.279 1.127 1.167 1.167 0 01-1.277-1.127z" fill="#fde94c"/></g></g></g></svg>