<svg xmlns="http://www.w3.org/2000/svg" width="422.328" height="101.167"><g data-name="グループ 2455" fill="#fff"><g data-name="グループ 2449"><path data-name="パス 7290" d="M4.485 54.913a.968.968 0 01.431-1.348.967.967 0 011.406.159l1.083 1.672.771-.5a.843.843 0 011.192.349.853.853 0 01-.169 1.23l-.771.5 4.176 6.447.845-.547a.861.861 0 011.2.368.86.86 0 01-.156 1.249L6.484 69.68a.875.875 0 01-1.2-.368.874.874 0 01.156-1.249l1.23-.8-4.176-6.447-1.12.725a.868.868 0 01-1.192-.349.855.855 0 01.169-1.23l1.12-.725-1.083-1.672a.968.968 0 01.431-1.348.966.966 0 011.406.158l1.083 1.672 2.259-1.464zm-.153 4.715l.749 1.157 2.26-1.464-.749-1.157zm2.439 3.766L9.03 61.93l-.785-1.212-2.259 1.464zm3.188-.03l-2.26 1.463.81 1.249 2.26-1.464zm-.681 5.188a1.129 1.129 0 011.581.227 1.361 1.361 0 01.186.609 12.921 12.921 0 01-.246 3.524 1.4 1.4 0 01-.583.872 1.136 1.136 0 01-1.556-.269 1.391 1.391 0 01-.113-1.1 9.824 9.824 0 00.215-2.85 1.129 1.129 0 01.515-1.014zm3.39-19.043c1.653-1.071 2.571-.7 3.417.6l7.817 12.069c.893 1.377.38 2.44-.832 3.225a8.86 8.86 0 01-1.18.634 1.109 1.109 0 01-1.464-.408 1.09 1.09 0 01.513-1.663 4.427 4.427 0 00.678-.361c.2-.131.254-.295.063-.588l-2.165-3.344-2.573 1.665a13.97 13.97 0 011.664 6.433 1.292 1.292 0 01-.579 1.158 1.146 1.146 0 01-1.588-.275 1.534 1.534 0 01-.207-.8c-.014-2.678-.807-5.11-4.009-10.052l-2.367-3.655c-.845-1.305-.808-2.294.845-3.365zm2.557 17.275a1.291 1.291 0 01.608.494 1.177 1.177 0 01-.355 1.585 1.11 1.11 0 01-1.069.041c-.592-.269-1.317-.5-1.819-.674a1.179 1.179 0 01-.632-.451 1.051 1.051 0 01.383-1.422 1.414 1.414 0 011.1-.161 12.683 12.683 0 011.784.588zm-3.118-14.356c-.312.2-.35.384-.137.714l1.333 2.058 2.334-1.51-1.333-2.058c-.214-.331-.377-.381-.763-.131zm4.624 2.951l-2.334 1.51a49.488 49.488 0 011.617 2.657l2.406-1.559z"/><path data-name="パス 7291" d="M30.597 47.912l4.888 9.817c.274.548-.12 1.086-.648 1.35a1.05 1.05 0 01-1.488-.286l-7.219-14.5c-.712-1.43-.543-2.419 1.514-3.443l2.116-1.053c2.058-1.024 2.888-.632 3.6.8l1.346 2.7a2.062 2.062 0 01.192 1.958 3.877 3.877 0 01-1.736 1.378zm.687-6.235c-.186-.372-.381-.421-.871-.178l-1.783.888c-.49.244-.568.43-.383.8l.273.549 3.037-1.512zm.923 3.427c.49-.243.579-.409.383-.8l-.282-.568-3.037 1.512.526 1.058zm6.994 8.842c-1.606.8-2.547.484-3.238-.907l-1.532-3.076c-.693-1.391-.378-2.33 1.229-3.13l2.978-1.483c1.607-.8 2.545-.485 3.239.907l1.532 3.076c.74 1.587.21 2.389-1.229 3.13zm.84-10.737c-2.057 1.024-2.9.661-3.611-.77l-1.345-2.7c-.712-1.431-.505-2.341 1.552-3.365l2.293-1.141c2.056-1.024 2.947-.563 3.659.867l6.263 12.58c.916 1.841.455 2.977-1.191 3.8a9.771 9.771 0 01-1.508.6 1.152 1.152 0 01-1.409-.619 1.128 1.128 0 01.678-1.633 7.424 7.424 0 00.882-.341c.45-.224.558-.45.313-.939l-3.834-7.7zm-.094 4.082c-.166-.333-.313-.383-.744-.168l-2.469 1.229c-.431.215-.48.362-.314.695l.341.686 3.527-1.756zm.487-10.17c-.185-.372-.381-.421-.891-.168l-1.94.966c-.509.254-.568.43-.382.8l.272.549 3.214-1.6zm.671 13.823c.432-.214.48-.361.315-.694l-.352-.705-3.527 1.756.352.705c.2.392.41.334.743.168zm.353-11.765l-3.213 1.6.282.568c.2.392.362.431.871.178l2.586-1.288z"/><path data-name="パス 7292" d="M58.823 36.043a58.922 58.922 0 00-2.5 2.463 1.321 1.321 0 01-.463.319 1.163 1.163 0 01-1.467-.7 1.173 1.173 0 01.289-1.26 72.79 72.79 0 012.66-2.595l-2.47-2.943a1.134 1.134 0 01-.187-.3 1.206 1.206 0 01.849-1.452 1.111 1.111 0 011.272.26l2.354 2.824a22.029 22.029 0 016.312-3.954c3.208-1.235 5.612-.471 6.478 1.776.983 2.554-.261 4.745-2.814 5.728a8.984 8.984 0 01-2.1.575 1.339 1.339 0 01-1.5-.784 1.173 1.173 0 01.72-1.543 1.387 1.387 0 01.4-.109 6.455 6.455 0 001.5-.367c1.308-.5 1.824-1.476 1.4-2.579-.354-.919-1.4-1.315-3.318-.576a19.466 19.466 0 00-5.608 3.59l6.511 7.838a1.483 1.483 0 01.211.364 1.222 1.222 0 01-.769 1.54 1.1 1.1 0 01-1.283-.35zm5.493-8.7a1.277 1.277 0 01-.745 1.6 1.258 1.258 0 01-.943-.012 15.655 15.655 0 00-2.553-.659 1.181 1.181 0 01-.877-.7 1.216 1.216 0 01.719-1.543 1.519 1.519 0 01.793-.071 12.09 12.09 0 012.789.662 1.282 1.282 0 01.818.719z"/><path data-name="パス 7293" d="M88.624 26.09a14.732 14.732 0 013.471-1.469c3.362-.982 5.938-.047 6.705 2.58.792 2.711-.533 4.967-3.472 6.3a1.154 1.154 0 01-1.671-.721 1.138 1.138 0 01.647-1.374c1.956-.959 2.506-2.123 2.106-3.489-.337-1.156-1.7-1.83-3.694-1.248a12.914 12.914 0 00-3.455 1.6l1.092 3.74c.639 2.186-.073 3.261-2.027 3.831-1.891.553-4.353-.3-4.888-2.131-.448-1.534-.056-3.473 3.124-6.249l-1.031-3.531c-1.02.412-2 .791-2.845 1.036a1.045 1.045 0 01-1.343-.771 1.062 1.062 0 01.711-1.394 32.431 32.431 0 002.838-1.057l-.932-3.194a1.086 1.086 0 01.834-1.362 1.087 1.087 0 011.436.7l.841 2.879c.677-.335 1.334-.663 1.879-.982a1.2 1.2 0 01.367-.152 1.116 1.116 0 011.426.746 1.1 1.1 0 01-.582 1.288c-.722.416-1.549.863-2.452 1.286zm-1.38 3.71c-1.528 1.563-1.7 2.368-1.463 3.187.2.673 1.074.872 1.852.645.6-.2.557-.6.4-1.121zm10.077-10.789a1.359 1.359 0 01.772.846 1.281 1.281 0 01-.869 1.553 1.331 1.331 0 01-.966-.1 16.831 16.831 0 00-3.077-1.086 1.092 1.092 0 01-.864-.773 1.313 1.313 0 01.835-1.59 1.193 1.193 0 01.61-.019 16.487 16.487 0 013.56 1.169z"/><path data-name="パス 7294" d="M110.314 11.323a1.03 1.03 0 01.915-1.178 1.031 1.031 0 011.313.708l.279 1.328 3.064-.647a.937.937 0 011.112.816.949.949 0 01-.688 1.2l-8.246 1.742a.949.949 0 01-1.111-.817.937.937 0 01.687-1.2l2.955-.624zm3.065 7.205a27.734 27.734 0 00.395-3.216 1.064 1.064 0 01.886-.992 1.11 1.11 0 011.374.783.921.921 0 01.025.331 23.455 23.455 0 01-.367 2.606l2.27-.48a.938.938 0 011.113.816.949.949 0 01-.687 1.2l-9.724 2.054a.95.95 0 01-1.112-.817.938.938 0 01.687-1.2zm-4.362-2.009a1 1 0 01.881-1.126 1.172 1.172 0 011.216.46 14.47 14.47 0 01.816 1.215 1.5 1.5 0 01.145.372 1.063 1.063 0 01-.906 1.22 1.012 1.012 0 01-1.13-.478c-.266-.413-.536-.848-.851-1.274a1.013 1.013 0 01-.171-.39zm4.446 13.111c-1.648.348-2.5-.166-2.821-1.708l-.593-2.805c-.326-1.542.241-2.356 1.89-2.7l3.706-.783c1.649-.348 2.5.167 2.822 1.709l.593 2.805c.326 1.654-.331 2.352-1.89 2.7zm2.754-2.64c.492-.1.584-.3.5-.689l-.456-2.162c-.082-.386-.247-.53-.74-.426l-2.635.556c-.492.1-.584.3-.5.688l.457 2.163c.095.45.326.49.738.426zm6.393-18.354c1.563-.33 2.458.2 2.693 1.311a4.162 4.162 0 01.053 1 34.52 34.52 0 01-.626 4.875 6.981 6.981 0 013.393 4.519c.533 2.527-.354 3.833-2.067 4.195a4.638 4.638 0 01-1.141.108 1.055 1.055 0 01-1.062-.895.988.988 0 01.866-1.3 3.7 3.7 0 00.657-.072c.45-.095.712-.441.472-1.576a6.145 6.145 0 00-2.623-3.518 1.533 1.533 0 01-.67-.955 2.164 2.164 0 01.036-.992 23.894 23.894 0 00.43-4.006 1.846 1.846 0 00-.017-.287c-.05-.235-.2-.295-.539-.222l-1.178.248c-.385.082-.487.238-.391.687l3.279 15.529c.122.578-.376.974-.954 1.1-.557.118-1.194-.038-1.316-.617l-3.383-16.034c-.316-1.5.127-2.264 1.8-2.617z"/><path data-name="パス 7295" d="M153.663 9.918a.855.855 0 01.97.8.855.855 0 01-.721 1.026l-3.9.534.278.095a18.111 18.111 0 013.21 1.991 1.319 1.319 0 01.506.793 1.12 1.12 0 01-.983 1.217 1.365 1.365 0 01-1.04-.344 10.217 10.217 0 00-.6-.492 97.5 97.5 0 01-9.613 2.065.969.969 0 01-1.155-.858.958.958 0 01.839-1.131c.456-.062.885-.143 1.341-.205.408-.74.764-1.518 1.1-2.293l-4.163.569c.4 4.54.019 7.729-.947 10.356a1.255 1.255 0 01-1.008.866 1.148 1.148 0 01-1.338-.9 1.215 1.215 0 01.087-.653c1.045-2.859 1.375-6.261.587-12.029l-.42-3.079c-.2-1.453.4-2.241 2.5-2.528l10.971-1.5c1.908-.261 2.58.287 2.734 1.415l.183 1.343c.17 1.568-.934 1.9-2.253 2.1l-11.47 1.568.087.629.079.586zm-3.476-2.484c.607-.083.676-.224.634-.528l-.077-.564c-.045-.326-.146-.421-.753-.339l-10.255 1.4c-.651.088-.784.24-.729.651l.122.889zm-3.595 13.123l-4.1.56a.867.867 0 01-.929-.823.854.854 0 01.675-1.042l4.1-.561-.107-.781c-.077-.564.473-.9 1.036-.98.585-.08 1.186.1 1.262.667l.107.781 4.618-.632a.842.842 0 01.93.824.853.853 0 01-.675 1.042l-4.619.631.184 1.344 6.548-.895a.859.859 0 01.932.845.858.858 0 01-.671 1.063l-14.852 2.03a.875.875 0 01-.933-.845.874.874 0 01.672-1.063l6.006-.821zm-.184-7.794a24.843 24.843 0 01-1.046 2.2c1.335-.249 2.668-.519 3.976-.809a5.161 5.161 0 00-.454-.247.749.749 0 01-.479-.6.917.917 0 01.519-.888z"/><path data-name="パス 7296" d="M169.958 9.628a5.242 5.242 0 011.853-.5 2.8 2.8 0 013.2 1.864 57.225 57.225 0 015.323-2.341 1.648 1.648 0 01.431-.095 1.138 1.138 0 011.217 1.1 1.137 1.137 0 01-.8 1.174c-1.861.7-3.76 1.487-5.542 2.356.165.8.275 1.758.4 2.89a1.145 1.145 0 01-1.167 1.221 1.065 1.065 0 01-1.226-.925 45.299 45.299 0 00-.255-2.11c-2.191 1.314-2.648 2.332-2.591 3.14.057.852.878 1.3 3.389 1.126a25.687 25.687 0 004.211-.662 1.174 1.174 0 011.5 1.081 1.209 1.209 0 01-1.011 1.255 25.64 25.64 0 01-4.452.657c-4.128.284-5.969-.97-6.116-3.111-.121-1.747.791-3.5 4.543-5.709a1.338 1.338 0 00-1.6-.877c-.808.056-2.361.755-4.321 2.557a1.3 1.3 0 01-.766.337 1.2 1.2 0 01-1.26-1.075 1.279 1.279 0 01.437-1 20.587 20.587 0 003.4-4.512c-.846.124-1.632.2-2.351.272a1.121 1.121 0 01-1.279-1.053 1.115 1.115 0 011.124-1.2c1.026-.07 2.245-.22 3.505-.395.311-.9.58-1.773.786-2.6a1.113 1.113 0 011.06-.863 1.112 1.112 0 011.271.921.867.867 0 01-.021.331 18.2 18.2 0 01-.536 1.769 36.717 36.717 0 003.135-.655 1.039 1.039 0 011.381.937 1.092 1.092 0 01-.886 1.157 59.94 59.94 0 01-4.586.952c-.483.933-.973 1.8-1.449 2.535z"/><path data-name="パス 7297" d="M195.078 20.049c-2.212.023-3.206-.865-3.223-2.55l-.118-11.646c-.017-1.685.958-2.638 3.168-2.659l1.993-.021c.276-.746.509-1.515.721-2.284a1.2 1.2 0 011.194-.888 1.15 1.15 0 011.26 1.083 1.51 1.51 0 01-.061.416c-.17.571-.384 1.121-.6 1.649l3.393-.036c2.211-.022 3.206.909 3.222 2.595l.119 11.646c-.023 2.037-1.353 2.554-3.169 2.616zm8.551-13.836c-.005-.591-.229-.96-1.06-.952l-7.378.075c-.832.008-1.048.383-1.042.974l.017 1.664 9.478-.1zm-9.413 6.576l9.479-.1-.028-2.715-9.479.1zm8.48 4.993c.831-.008 1.047-.361 1.042-.952l-.022-2.036-9.478.1.02 2.036c.007.7.382.938 1.061.93z"/><path data-name="パス 7298" d="M230.306 5.205c2.492.124 3.272 1.193 3.177 3.095l-.466 9.379c-.157 2.271-1.324 2.827-3.468 2.765l-10.539-.524c-2.492-.123-3.272-1.192-3.177-3.095l.465-9.379c.095-1.9.977-2.888 3.468-2.764l3.914.194.173-3.5c.031-.612.657-.867 1.248-.836.612.03 1.188.344 1.158.956l-.173 3.5zm-11.873 7.826l-.172 3.455c-.049.984.267 1.24 1.206 1.309l3.563.177.233-4.7zm1.579-6.19c-1.072-.053-1.289.331-1.33 1.184l-.145 2.908 4.831.24.207-4.153zm5.425 11.25l3.869.193c1.072.053 1.288-.331 1.33-1.184l.171-3.454-5.137-.254zm.337-6.8l5.137.255.144-2.908c.043-.853-.135-1.256-1.206-1.31l-3.87-.192z"/><path data-name="パス 7299" d="M247.147 4.204a1.15 1.15 0 011.086 1.491 45.7 45.7 0 00-2.1 9.5 43.255 43.255 0 00-.195 5.156 1.176 1.176 0 01-1.391 1.185 1.2 1.2 0 01-1.14-1.209 43.1 43.1 0 01.245-5.416 49.394 49.394 0 012.174-9.932 1.175 1.175 0 011.321-.775zm8.343 14.509a17.987 17.987 0 003.323.05 1.169 1.169 0 011.277 1.358 1.137 1.137 0 01-1.089 1.042 19.23 19.23 0 01-3.806-.06c-4.024-.461-5.56-1.872-5.5-4.531a1.226 1.226 0 011.414-1.182 1.071 1.071 0 011 1.063c.046 1.371.663 1.948 3.382 2.26zm4.617-9.918a1.2 1.2 0 01-1.247 1.07 55.68 55.68 0 01-6.188-.223 1.152 1.152 0 01-1.128-1.32 1.16 1.16 0 011.309-1.04 53.189 53.189 0 006.037.206 1.156 1.156 0 011.218 1.307z"/><g data-name="グループ 2445"><path data-name="パス 7300" d="M291.668 6.378a1.7 1.7 0 01.712 1.468 1.966 1.966 0 01-.759 1.513 1.452 1.452 0 01-1.169.428 2.476 2.476 0 01-1.254-.5 8.184 8.184 0 00-1.482-.834 8.051 8.051 0 00-1.7-.518 8.241 8.241 0 00-3.129-.043 6.459 6.459 0 00-2.562 1.09 6.67 6.67 0 00-1.871 2.065 8.892 8.892 0 00-1.053 2.887 9.337 9.337 0 00-.082 3.428 6.609 6.609 0 001.073 2.641 6.233 6.233 0 002.025 1.831 8.847 8.847 0 002.767 1 9.417 9.417 0 001.724.165 5.915 5.915 0 001.738-.254 2.268 2.268 0 011.343.027 1.672 1.672 0 01.957.865 1.927 1.927 0 01.148 1.7 1.68 1.68 0 01-1.186 1.026 11.112 11.112 0 01-1.806.355 12.814 12.814 0 01-1.819.077 11.4 11.4 0 01-1.814-.2 12.846 12.846 0 01-4.143-1.535 11 11 0 01-3.2-2.817 10.034 10.034 0 01-1.823-4 12.557 12.557 0 01.024-5.08 11.883 11.883 0 011.677-4.3 10.523 10.523 0 013.022-3.081 11.058 11.058 0 014.031-1.639 12.24 12.24 0 014.674.027 11.86 11.86 0 012.638.826 11.184 11.184 0 012.299 1.382z"/><path data-name="パス 7301" d="M284.64 27.71c-.129 0-.258 0-.386-.006a12.468 12.468 0 01-1.958-.213 13.842 13.842 0 01-4.436-1.644 11.977 11.977 0 01-3.463-3.049 10.978 10.978 0 01-1.99-4.359 13.52 13.52 0 01.017-5.449 12.856 12.856 0 011.809-4.621 11.484 11.484 0 013.282-3.345 12.037 12.037 0 014.361-1.774 13.2 13.2 0 015.02.026 12.832 12.832 0 012.84.889 12.148 12.148 0 012.488 1.49 2.6 2.6 0 011.068 2.215 2.892 2.892 0 01-1.088 2.19 2.337 2.337 0 01-1.835.634 3.4 3.4 0 01-1.71-.67 7.287 7.287 0 00-1.307-.734 7.144 7.144 0 00-1.511-.459 7.366 7.366 0 00-2.783-.043 5.5 5.5 0 00-2.205.935 5.815 5.815 0 00-1.617 1.788 8.042 8.042 0 00-.942 2.594 8.457 8.457 0 00-.082 3.092 5.734 5.734 0 00.923 2.282 5.353 5.353 0 001.732 1.564 7.966 7.966 0 002.484.893 8.513 8.513 0 001.557.149 5.036 5.036 0 001.472-.216 3.213 3.213 0 011.9.039 2.6 2.6 0 011.47 1.312 2.812 2.812 0 01.179 2.465 2.591 2.591 0 01-1.794 1.558 12.047 12.047 0 01-1.939.38 13.773 13.773 0 01-1.556.087zm-.375-22.865a10.556 10.556 0 00-2.038.194 10.191 10.191 0 00-3.7 1.5 9.7 9.7 0 00-2.763 2.818 11.063 11.063 0 00-1.546 3.969 11.736 11.736 0 00-.028 4.713 9.17 9.17 0 001.656 3.644 10.139 10.139 0 002.939 2.587 12.027 12.027 0 003.853 1.426 10.57 10.57 0 001.67.182 12.228 12.228 0 001.689-.071 10.421 10.421 0 001.661-.327.79.79 0 00.591-.5 1.017 1.017 0 00-.111-.926.767.767 0 00-.449-.43 1.366 1.366 0 00-.813-.007 6.992 6.992 0 01-1.974.285 10.447 10.447 0 01-1.889-.181 9.8 9.8 0 01-3.051-1.1 7.164 7.164 0 01-2.316-2.1 7.531 7.531 0 01-1.226-3 10.262 10.262 0 01.084-3.764 9.84 9.84 0 011.164-3.181 7.607 7.607 0 012.125-2.342 7.388 7.388 0 012.918-1.243 9.148 9.148 0 013.473.041 8.934 8.934 0 011.9.578 9.207 9.207 0 011.647.928 1.6 1.6 0 00.808.333.55.55 0 00.46-.182 1.109 1.109 0 00.474-.876.786.786 0 00-.354-.718l-.006-.005a10.359 10.359 0 00-2.118-1.268 11 11 0 00-2.435-.761 12.2 12.2 0 00-2.295-.216z"/></g><g data-name="グループ 2446"><path data-name="パス 7302" d="M307.981 9.076a1.917 1.917 0 011.159.9 1.833 1.833 0 01.2 1.5l-4.9 17.789a1.81 1.81 0 01-.953 1.177 2.007 2.007 0 01-1.5.166 1.909 1.909 0 01-1.237-.919 1.912 1.912 0 01-.154-1.483l4.9-17.789a1.856 1.856 0 01.923-1.186 2.017 2.017 0 011.562-.155zm-2.558 8.931l13.727 3.778-.975 3.54-13.725-3.779zm16.192-5.178a1.912 1.912 0 011.237.919 1.916 1.916 0 01.154 1.483l-4.9 17.789a1.884 1.884 0 01-.906 1.191 2 2 0 01-1.579.144 1.916 1.916 0 01-1.16-.9 1.829 1.829 0 01-.2-1.5l4.9-17.789a1.814 1.814 0 01.952-1.178 2.015 2.015 0 011.501-.159z"/><path data-name="パス 7303" d="M316.287 35.364a3.418 3.418 0 01-.906-.13 2.8 2.8 0 01-1.7-1.305 2.747 2.747 0 01-.3-2.21l1.731-6.291-8.059-2.219-1.732 6.292a2.733 2.733 0 01-1.415 1.746 2.9 2.9 0 01-2.162.234 2.835 2.835 0 01-1.794-1.359 2.808 2.808 0 01-.234-2.164l4.9-17.789a2.786 2.786 0 011.363-1.744 2.921 2.921 0 012.245-.229 2.816 2.816 0 011.7 1.305 2.758 2.758 0 01.3 2.211l-1.707 6.2 8.06 2.219 1.706-6.2a2.733 2.733 0 011.413-1.746 2.918 2.918 0 012.165-.235 2.839 2.839 0 011.793 1.36 2.844 2.844 0 01.234 2.165l-4.9 17.789a2.8 2.8 0 01-1.335 1.741 2.719 2.719 0 01-1.366.359zm.587-9.452l-1.733 6.291a.92.92 0 00.1.779 1.011 1.011 0 00.621.493 1.082 1.082 0 00.887-.058.973.973 0 00.478-.639l4.9-17.789a1 1 0 00-.075-.8.989.989 0 00-.679-.479 1.106 1.106 0 00-.843.1.906.906 0 00-.492.609l-1.706 6.2 1.939.534-1.458 5.3zm-9.526-16.015a.986.986 0 00-.492.126.952.952 0 00-.482.629l-4.9 17.789a1 1 0 00.074.8 1 1 0 00.681.48 1.11 1.11 0 00.843-.1.909.909 0 00.491-.609l1.731-6.292-1.969-.542 1.459-5.3 1.969.542 1.707-6.2a.927.927 0 00-.1-.782 1.018 1.018 0 00-.621-.491 1.452 1.452 0 00-.391-.049zm10.01 14.255l.18.049.49-1.78-.18-.049zm-9.818-2.7l8.06 2.218.49-1.78-8.059-2.219zm-1.969-.543l.212.058.49-1.78-.212-.058z"/></g><g data-name="グループ 2447"><path data-name="パス 7304" d="M353.22 35.784a12.363 12.363 0 01-2.337 3.892 11.394 11.394 0 01-3.406 2.614 10.407 10.407 0 01-4.1 1.084 10.533 10.533 0 01-4.39-.716 10.429 10.429 0 01-3.738-2.382 10.441 10.441 0 01-2.326-3.533 11.357 11.357 0 01-.8-4.217 12.346 12.346 0 01.845-4.46 12.327 12.327 0 012.338-3.892 11.374 11.374 0 013.4-2.614 10.468 10.468 0 014.088-1.09 10.429 10.429 0 014.375.711 10.528 10.528 0 013.754 2.387 10.4 10.4 0 012.341 3.54 11.4 11.4 0 01.8 4.216 12.354 12.354 0 01-.844 4.46zm-3.878-1.479a8.625 8.625 0 00.576-3.931 7.053 7.053 0 00-1.225-3.421 6.022 6.022 0 00-2.887-2.194 6.032 6.032 0 00-3.615-.285 6.96 6.96 0 00-3.17 1.73 8.729 8.729 0 00-2.177 3.337 8.752 8.752 0 00-.591 3.926 6.925 6.925 0 001.209 3.416 6.03 6.03 0 002.888 2.193 6.029 6.029 0 003.615.285 7.045 7.045 0 003.19-1.739 8.615 8.615 0 002.184-3.314z"/><path data-name="パス 7305" d="M342.818 44.304a11.64 11.64 0 01-4.161-.793 11.4 11.4 0 01-4.059-2.59 11.393 11.393 0 01-2.525-3.84 12.314 12.314 0 01-.866-4.552 13.326 13.326 0 01.906-4.787 13.317 13.317 0 012.511-4.176 12.33 12.33 0 013.676-2.821 11.409 11.409 0 014.439-1.184 11.392 11.392 0 014.755.769 11.5 11.5 0 014.073 2.595 11.371 11.371 0 012.543 3.847 12.332 12.332 0 01.865 4.551 13.327 13.327 0 01-.9 4.788 13.321 13.321 0 01-2.51 4.175 12.373 12.373 0 01-3.677 2.822 11.4 11.4 0 01-4.458 1.178c-.207.012-.409.018-.612.018zm.548-22.937c-.174 0-.347 0-.519.015a9.612 9.612 0 00-3.734 1 10.522 10.522 0 00-3.134 2.407 11.478 11.478 0 00-2.163 3.607 11.474 11.474 0 00-.786 4.133 10.524 10.524 0 00.736 3.882 9.57 9.57 0 002.125 3.228 9.574 9.574 0 003.417 2.172 9.722 9.722 0 004.014.659 9.557 9.557 0 003.747-.99 10.546 10.546 0 003.134-2.407 11.509 11.509 0 002.163-3.607 11.5 11.5 0 00.785-4.133 10.544 10.544 0 00-.736-3.882 9.566 9.566 0 00-2.138-3.232 9.671 9.671 0 00-3.434-2.179 9.727 9.727 0 00-3.477-.668zm-.732 19.066a7.319 7.319 0 01-2.611-.5 6.955 6.955 0 01-3.311-2.525 7.847 7.847 0 01-1.37-3.857 9.68 9.68 0 01.647-4.331 9.677 9.677 0 012.407-3.68 7.888 7.888 0 013.581-1.949 6.948 6.948 0 014.151.319 6.956 6.956 0 013.311 2.525 7.992 7.992 0 011.384 3.855 9.571 9.571 0 01-.631 4.343 9.569 9.569 0 01-2.419 3.662 8 8 0 01-3.6 1.957 6.656 6.656 0 01-1.539.181zm.889-15.2a4.843 4.843 0 00-1.124.133 6.008 6.008 0 00-2.759 1.509 7.842 7.842 0 00-1.946 3 7.887 7.887 0 00-.536 3.521 5.964 5.964 0 001.049 2.974 5.089 5.089 0 002.463 1.863 5.083 5.083 0 003.08.25 6.163 6.163 0 002.782-1.521 7.736 7.736 0 001.954-2.972 7.773 7.773 0 00.521-3.52 6.116 6.116 0 00-1.065-2.987 5.1 5.1 0 00-2.465-1.862 5.453 5.453 0 00-1.954-.39z"/></g><g data-name="グループ 2448"><path data-name="パス 7306" d="M365.118 51.534a1.808 1.808 0 01-1.151.987 2.006 2.006 0 01-1.506-.109 1.9 1.9 0 01-1.05-1.128 1.9 1.9 0 01.116-1.486l8.029-16.612a1.861 1.861 0 011.122-1 2.019 2.019 0 011.565.136 1.919 1.919 0 01.979 1.094 1.828 1.828 0 01-.073 1.507z"/><path data-name="パス 7307" d="M363.333 53.531a2.9 2.9 0 01-1.27-.3 2.826 2.826 0 01-1.519-1.664 2.8 2.8 0 01.159-2.171l8.03-16.61a2.783 2.783 0 011.654-1.469 2.912 2.912 0 012.251.181 2.815 2.815 0 011.435 1.59 2.757 2.757 0 01-.106 2.229l-8.028 16.611a2.732 2.732 0 01-1.708 1.463 3.078 3.078 0 01-.898.14zm7.95-20.533a1.019 1.019 0 00-.319.053.945.945 0 00-.587.532l-8.029 16.612a.993.993 0 00-.072.8.993.993 0 00.583.6 1.1 1.1 0 00.845.057.908.908 0 00.595-.51l8.029-16.612a.922.922 0 00.042-.786 1 1 0 00-.523-.6 1.287 1.287 0 00-.564-.146z"/></g><path data-name="パス 7308" d="M392.966 52.409a1.163 1.163 0 01.122 1.112 1.35 1.35 0 01-.839.8 1 1 0 01-.853.007 1.71 1.71 0 01-.7-.61 5.662 5.662 0 00-.766-.88 5.526 5.526 0 00-.981-.728 5.69 5.69 0 00-2.011-.747 4.434 4.434 0 00-1.905.114 4.594 4.594 0 00-1.685.9A6.089 6.089 0 00382.005 54a6.376 6.376 0 00-.843 2.2 4.535 4.535 0 00.086 1.954 4.26 4.26 0 00.886 1.648 6.051 6.051 0 001.558 1.281 6.4 6.4 0 001.076.5 4.079 4.079 0 001.181.235 1.56 1.56 0 01.861.327 1.151 1.151 0 01.418.779 1.319 1.319 0 01-.3 1.133 1.151 1.151 0 01-1 .389 7.605 7.605 0 01-1.249-.185 9.085 9.085 0 01-1.192-.368 7.968 7.968 0 01-1.126-.546 8.83 8.83 0 01-2.323-1.944 7.55 7.55 0 01-1.419-2.557 6.886 6.886 0 01-.257-3 8.6 8.6 0 011.185-3.276 8.159 8.159 0 012.072-2.39 7.22 7.22 0 012.661-1.294 7.573 7.573 0 012.981-.13 8.386 8.386 0 013.013 1.093 8.091 8.091 0 011.513 1.141 7.648 7.648 0 011.179 1.419z"/><path data-name="パス 7309" d="M402.716 57.872l6 4.209a1.338 1.338 0 01.572.842 1.221 1.221 0 01-.221.981 1.125 1.125 0 01-.822.506 1.386 1.386 0 01-.975-.268l-5.019-3.518.375-.192-2.45 3.495-.043-.244 4.195 2.94a1.334 1.334 0 01.573.843 1.224 1.224 0 01-.221.981 1.132 1.132 0 01-.823.506 1.384 1.384 0 01-.974-.269l-4.141-2.9.19-.08-2.538 3.621-.03-.262 5 3.505a1.294 1.294 0 01.56.86 1.217 1.217 0 01-.2.946 1.163 1.163 0 01-.829.515 1.357 1.357 0 01-.98-.26l-6-4.208a1.29 1.29 0 01-.56-.861 1.289 1.289 0 01.233-1l7.262-10.36a1.286 1.286 0 01.859-.56 1.292 1.292 0 011.007.232z"/><path data-name="パス 7310" d="M412.82 83.089a1.617 1.617 0 01-2.33.187 1.613 1.613 0 01-.2-2.313 1.643 1.643 0 012.327-.217 1.648 1.648 0 01.203 2.343zm6.75-13a1.448 1.448 0 012.164-.125 1.435 1.435 0 01.216 2.125l-.155.184c-2.258 2.277-4.417 4.609-6.912 7.373a.941.941 0 01-1.379.041.9.9 0 01-.163-1.337c2.294-2.933 4.219-5.461 6.073-8.076z"/></g><g data-name="グループ 2454"><path data-name="パス 7311" d="M71.419 98.809c-2.174.768-3.44.263-4-1.326l-3.88-10.979c-.561-1.59.094-2.819 2.266-3.586l1.958-.691c.032-.8.014-1.607-.027-2.405a1.245 1.245 0 01.891-1.243 1.181 1.181 0 011.591.6 1.4 1.4 0 01.073.415 17.517 17.517 0 01-.054 1.761l3.334-1.178c2.173-.767 3.455-.222 4.016 1.367l3.88 10.98c.635 1.935-.509 2.873-2.281 3.544zm3.961-15.977c-.2-.558-.534-.833-1.353-.544l-7.251 2.561c-.818.288-.908.715-.711 1.272l.553 1.569 9.317-3.291zm-7.157 9.4l9.316-3.291-.9-2.558-9.315 3.29zm9.975 1.862c.818-.288.916-.694.719-1.252l-.678-1.919-9.317 3.29.679 1.92c.233.66.679.758 1.346.523z"/><path data-name="パス 7312" d="M93.59 71.529a1.194 1.194 0 011.531.706 1.317 1.317 0 01.012.494 23.648 23.648 0 01-3.829 9.385 1.488 1.488 0 01-.848.631 1.238 1.238 0 01-1.515-.823 1.338 1.338 0 01.239-1.06 21.155 21.155 0 003.468-8.339 1.241 1.241 0 01.942-.994zm5.172 9.412a11.187 11.187 0 01-4.437 10.655 1.7 1.7 0 01-.624.322 1.148 1.148 0 01-1.427-.755 1.292 1.292 0 01.532-1.3 9 9 0 003.572-8.3l-2.185.576a.968.968 0 01-1.211-.744.957.957 0 01.687-1.245l8.608-2.269c2.1-.553 3.086-.111 3.5 1.455a22.158 22.158 0 01.868 6.336 3.057 3.057 0 01-2.57 3.326 14.232 14.232 0 01-2.135.4 1.153 1.153 0 01-1.306-.834 1.164 1.164 0 011.145-1.478 8.29 8.29 0 001.512-.263.961.961 0 00.847-1.083 20.764 20.764 0 00-.7-5.339c-.128-.487-.394-.6-1.011-.436zm9.638-5.8a1.425 1.425 0 01.952.927 1.334 1.334 0 01-.98 1.571 1.333 1.333 0 01-.894-.081 23.411 23.411 0 01-8.494-5.979 1.074 1.074 0 01-.238-.458 1.11 1.11 0 01.885-1.3 1.265 1.265 0 011.311.4 20.343 20.343 0 007.458 4.918z"/><path data-name="パス 7313" d="M122.462 75.702a10.972 10.972 0 016.078-3.51c3.522-.653 6.042.793 6.493 3.225.616 3.313-1.794 6.208-7.089 7.813a1.22 1.22 0 01-1.651-.9 1.2 1.2 0 01.927-1.374c4.306-1.311 5.536-3.186 5.192-5.036-.208-1.118-1.32-1.98-3.473-1.581a9.837 9.837 0 00-6.348 4.56 1.509 1.509 0 01-1.048.728 1.289 1.289 0 01-1.581-1.264c-.055-2.172-.051-5.021.047-7.621a1.209 1.209 0 011.066-1.132c.718-.133 1.5.19 1.484.993-.056 2.079-.133 3.786-.148 5.079zm5.23-10.073a1.314 1.314 0 011 1.038 1.2 1.2 0 01-.969 1.4 1.7 1.7 0 01-.7-.026 33.966 33.966 0 00-3.9-.656 1.1 1.1 0 01-1.043-.875 1.315 1.315 0 011.092-1.493 2.628 2.628 0 01.389-.028 19.283 19.283 0 014.131.64z"/><path data-name="パス 7314" d="M145.893 62.613a1.211 1.211 0 011.183-1.246 1.172 1.172 0 011.458 1.036c.14 3.248.414 7.4.818 10.753.354 2.913 1.376 3.583 2.984 3.388 2.108-.255 3.979-1.32 5.764-4.049a1.4 1.4 0 011.021-.675 1.3 1.3 0 011.481 1.033 1.272 1.272 0 01-.22.843c-2.209 3.4-4.809 4.9-7.754 5.262-3.376.408-5.36-.984-5.908-5.505-.417-3.457-.69-7.612-.827-10.84z"/><path data-name="パス 7315" d="M171.741 60.612a1.207 1.207 0 011.412 1.151c-.008.68-.025 1.208.018 1.995.419 7.652 2.148 9.576 3.1 9.524.548-.03 1.008-.406 1.374-2.07a1.16 1.16 0 011.111-1 1.237 1.237 0 011.364 1.11 1.023 1.023 0 01-.025.374c-.683 2.976-2.083 4.126-3.611 4.209-3.305.18-5.525-3.625-5.98-11.933a25.49 25.49 0 01-.031-2.235 1.237 1.237 0 011.268-1.125zm17.7 8.336a1.991 1.991 0 01.116.454 1.21 1.21 0 01-1.213 1.228 1.255 1.255 0 01-1.253-.765 19.283 19.283 0 00-4.27-5.732 1.122 1.122 0 01-.431-.788 1.243 1.243 0 011.238-1.186 1.54 1.54 0 011.026.361 17.476 17.476 0 014.782 6.433z"/><g data-name="グループ 2450"><path data-name="パス 7316" d="M208.746 75.632a14.614 14.614 0 01-4.186-.612 10.152 10.152 0 01-3.536-2.007 2.524 2.524 0 01-.656-.807 1.9 1.9 0 01-.222-.9 1.792 1.792 0 01.565-1.286 1.855 1.855 0 011.388-.541 1.807 1.807 0 011.126.4 10.631 10.631 0 002.494 1.531 8.14 8.14 0 003.073.55 6.738 6.738 0 002.267-.338 4.474 4.474 0 001.677-.969 1.949 1.949 0 00.65-1.413 2.353 2.353 0 00-.579-1.635 4.586 4.586 0 00-1.816-1.156 14.621 14.621 0 00-3.119-.757 14.4 14.4 0 01-3.152-.823 7.381 7.381 0 01-2.262-1.369 5.294 5.294 0 01-1.357-1.933 6.291 6.291 0 01-.435-2.479 5.691 5.691 0 011.16-3.53 6.943 6.943 0 013.04-2.2 11.114 11.114 0 014.2-.713 12.493 12.493 0 014 .673 9.444 9.444 0 012.992 1.618 2.107 2.107 0 01.944 1.7 1.781 1.781 0 01-.582 1.27 1.808 1.808 0 01-1.338.558 1.5 1.5 0 01-.895-.3 6.109 6.109 0 00-1.421-.865 13.345 13.345 0 00-1.888-.694 7.158 7.158 0 00-1.86-.295 7.24 7.24 0 00-2.418.32 3.31 3.31 0 00-1.493.939 2.149 2.149 0 00-.517 1.4 2.22 2.22 0 00.563 1.587 3.975 3.975 0 001.668 1.01 19.969 19.969 0 002.621.688 27.755 27.755 0 013.5.874 8.392 8.392 0 012.5 1.261 4.692 4.692 0 011.473 1.9 6.867 6.867 0 01.465 2.767 5.559 5.559 0 01-1.244 3.561 7.636 7.636 0 01-3.174 2.258 11.018 11.018 0 01-4.216.757z"/><path data-name="パス 7317" d="M208.907 76.545h-.168a15.621 15.621 0 01-4.447-.653 11.116 11.116 0 01-3.854-2.183 3.414 3.414 0 01-.88-1.093 2.807 2.807 0 01-.319-1.317 2.715 2.715 0 01.835-1.923 2.809 2.809 0 012.041-.805 2.717 2.717 0 011.68.593 9.784 9.784 0 002.285 1.408 7.279 7.279 0 002.728.478 5.878 5.878 0 001.962-.29 3.585 3.585 0 001.34-.763 1.031 1.031 0 00.37-.766 1.442 1.442 0 00-.355-1.024 3.737 3.737 0 00-1.46-.907 13.887 13.887 0 00-2.921-.7 15.46 15.46 0 01-3.357-.877 8.342 8.342 0 01-2.538-1.542 6.237 6.237 0 01-1.587-2.262 7.212 7.212 0 01-.5-2.836 6.616 6.616 0 011.352-4.079 7.882 7.882 0 013.429-2.485 12.094 12.094 0 014.545-.775 13.47 13.47 0 014.293.724 10.381 10.381 0 013.278 1.782 2.961 2.961 0 011.268 2.412 2.675 2.675 0 01-.852 1.906 2.693 2.693 0 01-1.992.822 2.4 2.4 0 01-1.424-.477 5.393 5.393 0 00-1.261-.769 12.186 12.186 0 00-1.757-.646 6.2 6.2 0 00-1.622-.26 6.671 6.671 0 00-2.109.271 2.451 2.451 0 00-1.093.665 1.239 1.239 0 00-.3.822 1.311 1.311 0 00.326.96 3.09 3.09 0 001.293.763 19.118 19.118 0 002.5.655 28.676 28.676 0 013.607.9 9.313 9.313 0 012.768 1.4 5.613 5.613 0 011.756 2.268 7.76 7.76 0 01.538 3.136 6.478 6.478 0 01-1.45 4.127 8.574 8.574 0 01-3.545 2.528 11.923 11.923 0 01-4.403.812zm-.144-1.825a10.193 10.193 0 003.873-.681 6.781 6.781 0 002.8-1.988 4.632 4.632 0 001.037-2.993 5.992 5.992 0 00-.392-2.4 3.751 3.751 0 00-1.192-1.538 7.541 7.541 0 00-2.225-1.116 26.872 26.872 0 00-3.384-.845 20.906 20.906 0 01-2.752-.722 4.882 4.882 0 01-2.042-1.257 3.115 3.115 0 01-.8-2.214 3.044 3.044 0 01.733-1.975 4.207 4.207 0 011.893-1.212 8.332 8.332 0 012.725-.37 8.048 8.048 0 012.1.33 13.984 13.984 0 012.018.742 6.9 6.9 0 011.635 1 .6.6 0 00.312.078.863.863 0 00.686-.295.866.866 0 00.311-.633c0-.216-.056-.553-.594-.973a8.638 8.638 0 00-2.731-1.477 11.65 11.65 0 00-3.712-.621 10.107 10.107 0 00-3.862.651 6.079 6.079 0 00-2.65 1.907 4.76 4.76 0 00-.968 2.98 5.425 5.425 0 00.368 2.123 4.348 4.348 0 001.127 1.6 6.52 6.52 0 001.986 1.2 13.587 13.587 0 002.953.767 15.581 15.581 0 013.311.81 5.4 5.4 0 012.172 1.406 3.256 3.256 0 01.8 2.246 2.878 2.878 0 01-.93 2.058 5.377 5.377 0 01-2.016 1.175 7.539 7.539 0 01-2.573.388 9.069 9.069 0 01-3.417-.622 11.627 11.627 0 01-2.709-1.661.9.9 0 00-.567-.2.959.959 0 00-.734.276.885.885 0 00-.3.65 1 1 0 00.123.472 1.606 1.606 0 00.426.519 9.306 9.306 0 003.225 1.839 13.786 13.786 0 003.926.57z"/></g><g data-name="グループ 2451"><path data-name="パス 7318" d="M232.94 57.529a2.121 2.121 0 01-1.4-.63 1.7 1.7 0 01-.469-1.385 1.654 1.654 0 01.691-1.271 2.163 2.163 0 011.485-.371l14.726 1.239a2.123 2.123 0 011.4.63 1.7 1.7 0 01.468 1.385 1.648 1.648 0 01-.691 1.271 2.158 2.158 0 01-1.484.372zm5.765 19.225a2.149 2.149 0 01-1.478-.685 1.819 1.819 0 01-.482-1.435l1.552-18.449 4.312.362-1.552 18.45a1.8 1.8 0 01-.73 1.333 2.262 2.262 0 01-1.622.424z"/><path data-name="パス 7319" d="M238.968 77.677c-.111 0-.225 0-.339-.015a3.051 3.051 0 01-2.08-.981 2.745 2.745 0 01-.712-2.122l1.325-15.759-4.3-.362a3.014 3.014 0 01-1.98-.906 2.615 2.615 0 01-.72-2.094 2.568 2.568 0 011.069-1.937 3.062 3.062 0 012.092-.539l14.726 1.239a3.016 3.016 0 011.979.9 2.617 2.617 0 01.72 2.095 2.566 2.566 0 01-1.07 1.937 3.062 3.062 0 01-2.09.539l-4.3-.362-1.326 15.759a2.719 2.719 0 01-1.085 1.98 3.064 3.064 0 01-1.909.628zm-.186-1.832a1.382 1.382 0 00.991-.239.9.9 0 00.376-.685l1.325-15.759-2.494-.21-1.326 15.759a.915.915 0 00.248.745 1.252 1.252 0 00.88.389zm4.663-18.348l4.3.361a1.258 1.258 0 00.877-.2.738.738 0 00.312-.606.786.786 0 00-.216-.676 1.207 1.207 0 00-.818-.354l-14.727-1.239a1.259 1.259 0 00-.879.206.736.736 0 00-.311.6.787.787 0 00.216.675 1.209 1.209 0 00.819.355l4.3.361.149-1.78 6.13.515z"/></g><g data-name="グループ 2452"><path data-name="パス 7320" d="M268.996 62.901l-9.555 14.943a1.977 1.977 0 01-.85.823 1.8 1.8 0 01-1.087.173 1.7 1.7 0 01-1.243-.674 1.694 1.694 0 01-.25-1.233 2.025 2.025 0 01.191-.585l11.077-17.618a2.093 2.093 0 01.956-.855 1.806 1.806 0 011.211-.106 2.015 2.015 0 011.052.5 1.9 1.9 0 01.6 1.044l5.268 19.728a2.074 2.074 0 01.047.783 1.73 1.73 0 01-.782 1.269 1.9 1.9 0 01-1.344.311 1.8 1.8 0 01-1.016-.51 2.3 2.3 0 01-.594-1.06l-4.658-16.891zm-7.948 11.249l2.364-3.352 8.883 1.358.071 3.724z"/><path data-name="パス 7321" d="M274.565 82.338a2.852 2.852 0 01-.42-.032 2.694 2.694 0 01-1.52-.764 3.2 3.2 0 01-.834-1.472l-.967-3.5-8.639-1.321-1.976 3.089a2.839 2.839 0 01-1.217 1.15 2.719 2.719 0 01-1.627.256 2.577 2.577 0 01-1.868-1.075 2.616 2.616 0 01-.388-1.872 2.937 2.937 0 01.273-.846l.047-.085 11.076-17.618a2.987 2.987 0 011.358-1.2 2.69 2.69 0 011.764-.166 2.921 2.921 0 011.475.712 2.812 2.812 0 01.883 1.53l5.258 19.688a3.015 3.015 0 01.068 1.156 2.648 2.648 0 01-1.194 1.9 2.857 2.857 0 01-1.552.47zm-1.766-5.47l.752 2.723a1.4 1.4 0 00.358.655.885.885 0 00.511.256.994.994 0 00.716-.179.817.817 0 00.372-.637 1.219 1.219 0 00-.035-.438l-5.261-19.7a1.045 1.045 0 00-.324-.6 1.089 1.089 0 00-.582-.278l-.09-.018a.9.9 0 00-.615.056 1.2 1.2 0 00-.546.5L257 76.791a1.08 1.08 0 00-.089.281.791.791 0 00.109.595.95.95 0 00.62.275.877.877 0 00.549-.091 1.079 1.079 0 00.459-.457l1.564-2.445-.76-.117 3.539-5.017.458.07 3.865-6.043-.485-1.756 3.881-.171-1.422 2.224 1.912 6.929 1.992.3.107 5.575zm-9.541-3.3l7.035 1.075-.537-1.95-5.408-.827zm2.164-3.383l3.8.581-1.257-4.56z"/></g><g data-name="グループ 2453"><path data-name="パス 7322" d="M307.333 65.385a2.01 2.01 0 011.218.857 1.84 1.84 0 01.276 1.524 2.239 2.239 0 01-.215.556 1.922 1.922 0 01-.41.511l-9.713 8.387 1.083-2.008-2.08 8.922a1.849 1.849 0 01-.883 1.22 1.889 1.889 0 01-1.439.238 1.968 1.968 0 01-1.25-.865 1.845 1.845 0 01-.253-1.485l2.022-8.673.027 1.055-4.92-10.554a2.728 2.728 0 01-.273-.883 2.156 2.156 0 01.03-.714 1.7 1.7 0 011-1.209 2.314 2.314 0 011.517-.2 2.038 2.038 0 011.385 1.24l4.3 9.69-.877-.336 7.614-6.714a2.028 2.028 0 011.841-.559z"/><path data-name="パス 7323" d="M295.612 86.557a2.907 2.907 0 01-.65-.076 2.865 2.865 0 01-1.809-1.257 2.766 2.766 0 01-.375-2.189l1.795-7.7-4.6-9.878a3.616 3.616 0 01-.353-1.172 3.067 3.067 0 01.049-1.02 2.606 2.606 0 011.506-1.828 3.212 3.212 0 012.106-.264 2.921 2.921 0 012 1.746l3.45 7.769 6.158-5.43a2.914 2.914 0 012.647-.759 2.9 2.9 0 011.761 1.226 2.757 2.757 0 01.416 2.25 3.171 3.171 0 01-.3.784 2.853 2.853 0 01-.6.754l-8.732 7.541-1.7 7.289a2.772 2.772 0 01-1.3 1.8 2.839 2.839 0 01-1.469.414zm.211-8.545l-1.269 5.438a.937.937 0 00.128.779 1.048 1.048 0 00.693.475.987.987 0 00.768-.133.937.937 0 00.459-.643l1.131-4.849-.993.856v.05l-.016-.037-1.4 1.2 1.051-1.945zm.74-4.885l.143 5.476 2.424-4.493zm5.02-2.523l-.8 3.43 6.823-5.891a.957.957 0 00.2-.255 1.356 1.356 0 00.13-.329.931.931 0 00-.14-.8 1.1 1.1 0 00-.674-.487 1.115 1.115 0 00-1.036.358zm-2.075 1.83l.237.536.768-1.423zm-3.023-2.313l.066 2.489.747-.659zm-3.867-7.2a1.65 1.65 0 00-.685.172.793.793 0 00-.492.586 1.326 1.326 0 00-.012.411 1.949 1.949 0 00.188.586l3.628 7.779.783-3.362-2.407-5.427a1.11 1.11 0 00-.759-.723 1.07 1.07 0 00-.241-.023z"/></g><path data-name="パス 7324" d="M323.744 82.664a5.7 5.7 0 011.983.253 2.917 2.917 0 012.4 2.966 61.006 61.006 0 016.036-.109 1.731 1.731 0 01.454.078 1.161 1.161 0 01.764 1.491 1.148 1.148 0 01-1.214.779c-2.064-.072-4.2-.076-6.254.04-.141.805-.4 1.736-.7 2.832a1.175 1.175 0 01-1.589.681 1.1 1.1 0 01-.84-1.332c.235-.8.408-1.479.547-2.055-2.617.369-3.441 1.136-3.692 1.907-.264.812.362 1.545 2.858 2.356a27.893 27.893 0 004.327 1.015 1.209 1.209 0 011.046 1.583 1.226 1.226 0 01-1.45.771 27.936 27.936 0 01-4.559-1.113c-4.1-1.333-5.414-3.209-4.751-5.25.542-1.665 2.082-2.937 6.549-3.534-.032-.863-.434-1.177-1.215-1.431-.8-.261-2.571-.214-5.148.7a1.386 1.386 0 01-.869.017 1.23 1.23 0 01-.814-1.485 1.262 1.262 0 01.8-.754 20.879 20.879 0 004.988-2.867c-.867-.212-1.656-.445-2.379-.658a1.147 1.147 0 01-.842-1.471 1.141 1.141 0 011.538-.673c1.022.331 2.258.664 3.543.99a31.377 31.377 0 001.739-2.1 1.161 1.161 0 011.352-.389 1.146 1.146 0 01.872 1.343.827.827 0 01-.145.3 17.25 17.25 0 01-1.186 1.434c1.163.263 2.3.47 3.283.607a1.07 1.07 0 01.984 1.4 1.108 1.108 0 01-1.293.731 67.042 67.042 0 01-4.8-.892c-.82.677-1.62 1.291-2.357 1.789z"/><path data-name="パス 7325" d="M345.946 100.149a1.656 1.656 0 01-2.221.879 1.647 1.647 0 01-.98-2.16 1.679 1.679 0 012.207-.908 1.686 1.686 0 01.994 2.189zm2.212-14.506a1.485 1.485 0 012.079-.771 1.47 1.47 0 01.931 1.975l-.089.223c-1.442 2.865-2.768 5.751-4.277 9.155a.966.966 0 01-1.338.454.925.925 0 01-.613-1.234c1.255-3.505 2.285-6.511 3.218-9.579z"/></g></g></svg>