<svg xmlns="http://www.w3.org/2000/svg" width="119" height="119"><defs><clipPath id="a"><path data-name="長方形 2505" transform="translate(265.203 10.864)" fill="none" stroke="#707070" d="M0 0h119v119H0z"/></clipPath></defs><g data-name="マスクグループ 75" transform="translate(-265.203 -10.864)" clip-path="url(#a)"><g data-name="グループ 3168"><path data-name="パス 11901" d="M376.881 86.141a55.036 55.036 0 00-88.245-60.517 55.619 55.619 0 00-16.401 26.598 55.017 55.017 0 00-2.99 11.423 53.6 53.6 0 007.282 36.06c1.373 2.223 1.12 3.934.821 5.919s-.665 4.456 1.278 6.614 4.44 2.05 6.445 1.963 3.732-.164 5.8 1.435a53.6 53.6 0 0035.102 11.012 55.538 55.538 0 0034.657-14.206 54.646 54.646 0 0016.251-26.3z"/><path data-name="パス 11902" d="M364.204 31.62a52.144 52.144 0 00-73.642-3.858c-18.806 16.933-22.76 44.65-9.946 65.39 3.46 5.603-.547 9.525 1.787 12.117s6.654-.978 11.863 3.044c19.288 14.91 47.267 13.878 66.073-3.055a52.144 52.144 0 003.865-73.637z" fill="#fde94c"/><path data-name="パス 11903" d="M283.548 63.865a.949.949 0 01-.69-.262.873.873 0 01-.27-.653v-7.56l.21.33-1.14.69a.918.918 0 01-.48.135.819.819 0 01-.645-.292.934.934 0 01-.255-.623.854.854 0 01.465-.78l2.265-1.35a1.37 1.37 0 01.645-.135.837.837 0 01.638.262.914.914 0 01.247.653v8.67a.862.862 0 01-.278.653 1 1 0 01-.712.262zm4.593.952c.728-1.344 1.5-2.94 2.114-4.41l-1.274-1.022a43.31 43.31 0 01-2.278 4.41zm1.484-7.406a10.837 10.837 0 00-2.534-1.386l-.91 1.218a10.805 10.805 0 012.506 1.522zm-2.622-4.018a9.924 9.924 0 012.482 1.572l.994-1.316a9.554 9.554 0 00-2.534-1.456zm5.422 9.422v-2.674h4.378v2.674zm4.378-6.75v2.534h-4.378v-2.534zm-1.96-1.6a35.44 35.44 0 00.658-2.226l-1.96-.2a17.846 17.846 0 01-.406 2.422h-2.348v10.622h1.638v-.658h4.378v.546h1.708v-10.5zm11.57 7.75a.814.814 0 01.6.24.814.814 0 01.24.6.772.772 0 01-.24.578.828.828 0 01-.6.233h-5.1a.8.8 0 01-.615-.24.863.863 0 01-.225-.615.931.931 0 01.27-.66l3.27-3.496a5.972 5.972 0 00.87-1.19 2.393 2.393 0 00.33-1.132 1.6 1.6 0 00-.225-.84 1.769 1.769 0 00-.585-.6 1.444 1.444 0 00-.78-.228 1.62 1.62 0 00-.885.292 2.983 2.983 0 00-.8.773.8.8 0 01-.36.3 1.051 1.051 0 01-.33.06.894.894 0 01-.608-.247.753.753 0 01-.278-.577.838.838 0 01.173-.495 4.06 4.06 0 01.427-.495 4.523 4.523 0 011.32-.915 3.443 3.443 0 011.44-.345 3.48 3.48 0 011.755.42 2.944 2.944 0 011.14 1.155 3.392 3.392 0 01.405 1.665 3.805 3.805 0 01-.233 1.283 5.907 5.907 0 01-.638 1.267 9.3 9.3 0 01-.93 1.185l-2.018 2.159-.165-.135zm5.182.11v-3.136h6.216v3.136zm6.216-7.8v3.01h-6.216v-3.01zm-7.938-1.68v12.07h1.722v-.91h6.216v.882h1.792v-12.04zm19.23 5.82l-.74.31a7.716 7.716 0 01.78 1.39l.76-.34a13.106 13.106 0 00-.8-1.36zm1.12-.46l-.73.34a8.8 8.8 0 01.82 1.35l.75-.36a14.958 14.958 0 00-.84-1.33zm-7.79-1.18l.13 1.36c1.15-.25 3.23-.47 4.09-.56a3.927 3.927 0 00-1.46 3.05c0 2.15 1.96 3.27 4.04 3.4l.46-1.37c-1.68-.08-3.2-.67-3.2-2.3a3.006 3.006 0 012.09-2.77 10.226 10.226 0 011.91-.13l-.01-1.28c-.7.03-1.78.09-2.8.17-1.81.16-3.45.31-4.28.38-.19.02-.57.04-.97.05zm15.8 2.75a2.749 2.749 0 011.02 1.92c0 .82-.76 1.45-2.14 1.45-.98 0-1.48-.45-1.48-1.26 0-.18.02-.43.04-.72h.4c.61 0 1.19-.04 1.75-.09l.03-1.18a19.644 19.644 0 01-1.99.12h-.07c.05-.44.11-.91.17-1.35a17.746 17.746 0 001.93-.09l.04-1.18a14.534 14.534 0 01-1.82.12c.05-.32.08-.58.11-.75.04-.26.09-.52.17-.88l-1.39-.08a6.237 6.237 0 01-.02.88c-.02.22-.04.49-.08.79a9.179 9.179 0 01-2.03-.37l-.07 1.15a12.378 12.378 0 001.97.35c-.06.45-.11.91-.17 1.35a8.43 8.43 0 01-1.95-.39l-.07 1.2a11.1 11.1 0 001.9.33c-.04.41-.07.76-.07 1 0 1.65 1.1 2.33 2.66 2.33 2.17 0 3.51-1.08 3.51-2.57a3.684 3.684 0 00-.96-2.38zm7.96 1.52h1.03l.35-3.42.05-1.49h-1.83l.04 1.49zm.51 2.66a.978.978 0 001.04-.98.992.992 0 00-1.04-.99.992.992 0 00-1.04.99.978.978 0 001.04.98zm-55.411 8.654a4.2 4.2 0 01-1.209.143h-7.215a12.482 12.482 0 01-1.495-.117v1.82a17.99 17.99 0 011.495-.091h6.877a14.428 14.428 0 01-3.3 3.744 42.153 42.153 0 00-2.2-1.807l-1.377 1.105a27.653 27.653 0 012.86 2.5 36.121 36.121 0 012.483 2.808l1.521-1.209a35.728 35.728 0 00-2.015-2.2 21.659 21.659 0 004.433-5.083 3.539 3.539 0 01.442-.546zm5.044-.624l-1.222 1.3a27.03 27.03 0 013.25 2.808l1.326-1.365a27.3 27.3 0 00-3.354-2.743zm-1.625 8.658l1.092 1.716a14.079 14.079 0 004.823-1.833 13.824 13.824 0 004.81-4.81l-1.014-1.833a12.327 12.327 0 01-4.732 5.057 13.4 13.4 0 01-4.979 1.703zm21.008-8.385a4.693 4.693 0 01-1.352.169h-4.576a14.524 14.524 0 01-1.534-.091v1.846c.273-.013.988-.091 1.534-.091h4.407a10.073 10.073 0 01-1.937 3.185 14.728 14.728 0 01-5.33 3.731l1.339 1.4a17.124 17.124 0 004.888-3.653 29.645 29.645 0 013.276 3.679l1.482-1.287a36.545 36.545 0 00-3.627-3.718 19.113 19.113 0 002.041-3.575 6.143 6.143 0 01.455-.806zm5.759-.364a8.841 8.841 0 01.052.988v4.383c0 .39-.052.9-.065 1.144h1.924c-.026-.3-.039-.806-.039-1.131v-4.396c0-.416.013-.7.039-.988zm5.98-.117a9.171 9.171 0 01.078 1.3v2.47c0 2.028-.169 3-1.053 3.978a6.084 6.084 0 01-3.18 1.64l1.365 1.43a7.552 7.552 0 003.159-1.885c.962-1.066 1.508-2.262 1.508-5.057v-2.576c0-.52.026-.936.052-1.3zm5.681 6.11a30.806 30.806 0 012.093-.065h6.981c.546 0 1.209.052 1.521.065v-2.041c-.338.026-.923.078-1.521.078h-6.981c-.676 0-1.625-.039-2.093-.078zm19.204-1.222l-.74.31a7.715 7.715 0 01.78 1.39l.76-.34a13.105 13.105 0 00-.8-1.36zm1.12-.46l-.73.34a8.8 8.8 0 01.82 1.35l.75-.36a14.958 14.958 0 00-.84-1.33zm-7.79-1.18l.13 1.36c1.15-.25 3.23-.47 4.09-.56a3.927 3.927 0 00-1.46 3.05c0 2.15 1.96 3.27 4.04 3.4l.46-1.37c-1.68-.08-3.2-.67-3.2-2.3a3.006 3.006 0 012.09-2.77 10.227 10.227 0 011.91-.13l-.01-1.28c-.7.03-1.78.09-2.8.17-1.81.16-3.45.31-4.28.38-.19.02-.57.04-.97.05zm15.8 2.75a2.749 2.749 0 011.02 1.92c0 .82-.76 1.45-2.14 1.45-.98 0-1.48-.45-1.48-1.26 0-.18.02-.43.04-.72h.4c.61 0 1.19-.04 1.75-.09l.03-1.18a19.644 19.644 0 01-1.99.12h-.07c.05-.44.11-.91.17-1.35a17.746 17.746 0 001.93-.09l.04-1.18a14.534 14.534 0 01-1.82.12c.05-.32.08-.58.11-.75.04-.26.09-.52.17-.88l-1.39-.08a6.237 6.237 0 01-.02.88c-.02.22-.04.49-.08.79a9.179 9.179 0 01-2.03-.37l-.07 1.15a12.378 12.378 0 001.97.35c-.06.45-.11.91-.17 1.35a8.43 8.43 0 01-1.95-.39l-.07 1.2a11.1 11.1 0 001.9.33c-.04.41-.07.76-.07 1 0 1.65 1.1 2.33 2.66 2.33 2.17 0 3.51-1.08 3.51-2.57a3.684 3.684 0 00-.96-2.38zm7.96 1.52h1.03l.35-3.42.05-1.49h-1.83l.04 1.49zm.51 2.66a.978.978 0 001.04-.98 1.041 1.041 0 00-2.08 0 .978.978 0 001.04.98z"/></g></g></svg>