<svg xmlns="http://www.w3.org/2000/svg" width="188" height="188"><defs><clipPath id="a"><path data-name="長方形 2507" transform="translate(353 -391)" fill="#fff" d="M0 0h188v188H0z"/></clipPath></defs><g data-name="マスクグループ 77" transform="translate(-353 391)" clip-path="url(#a)"><g data-name="グループ 3173"><g data-name="グループ 3172"><path data-name="パス 11907" d="M530.748-270.408a86.222 86.222 0 00-138.25-94.809 87.135 87.135 0 00-25.696 41.672 86.192 86.192 0 00-4.686 17.896 83.967 83.967 0 0011.409 56.494c2.151 3.481 1.75 6.165 1.286 9.271s-1.042 6.98 2.003 10.362 6.955 3.211 10.096 3.076 5.848-.256 9.087 2.248a83.974 83.974 0 0054.991 17.252 87.009 87.009 0 0054.293-22.252 85.611 85.611 0 0025.467-41.21z"/><path data-name="パス 11908" d="M510.886-355.82a81.692 81.692 0 00-115.372-6.046c-29.463 26.528-35.653 69.949-15.581 102.445 5.423 8.777-.858 14.922 2.803 18.987s10.429-1.537 18.59 4.773c30.217 23.361 74.05 21.742 103.514-4.786a81.692 81.692 0 006.046-115.373z" fill="#fde94c"/></g><path data-name="パス 11909" d="M401.526-307a1.392 1.392 0 01-1.012-.385 1.281 1.281 0 01-.4-.957v-11.088l.308.484-1.672 1.012a1.346 1.346 0 01-.7.2 1.2 1.2 0 01-.946-.429 1.37 1.37 0 01-.374-.913 1.253 1.253 0 01.682-1.144l3.322-1.98a2.01 2.01 0 01.946-.2 1.228 1.228 0 01.935.385 1.341 1.341 0 01.363.957v12.716a1.264 1.264 0 01-.407.957 1.459 1.459 0 01-1.045.385zm7.608 1.224a65.965 65.965 0 002.718-5.67l-1.638-1.314a55.684 55.684 0 01-2.934 5.67zm1.908-9.524a13.933 13.933 0 00-3.258-1.782l-1.17 1.566a13.893 13.893 0 013.222 1.962zm-3.366-5.166a12.759 12.759 0 013.186 2.016l1.278-1.692a12.283 12.283 0 00-3.258-1.872zm6.966 12.116v-3.438h5.634v3.438zm5.634-8.676v3.258h-5.634v-3.258zm-2.52-2.052c.288-.882.594-1.872.846-2.862l-2.52-.252a22.946 22.946 0 01-.522 3.114h-3.024v13.644h2.106v-.846h5.634v.7h2.2v-13.5zm17.172 9.658a1.194 1.194 0 01.88.352 1.194 1.194 0 01.352.88 1.132 1.132 0 01-.352.847 1.214 1.214 0 01-.88.341h-7.48a1.176 1.176 0 01-.9-.352 1.266 1.266 0 01-.33-.9 1.365 1.365 0 01.4-.968l4.8-5.126a8.758 8.758 0 001.266-1.754 3.51 3.51 0 00.484-1.661 2.348 2.348 0 00-.33-1.232 2.594 2.594 0 00-.858-.88 2.118 2.118 0 00-1.144-.33 2.376 2.376 0 00-1.3.429 4.375 4.375 0 00-1.166 1.133 1.173 1.173 0 01-.528.44 1.542 1.542 0 01-.484.088 1.312 1.312 0 01-.891-.363 1.1 1.1 0 01-.407-.847 1.23 1.23 0 01.253-.726 5.955 5.955 0 01.627-.726 6.633 6.633 0 011.936-1.342 5.049 5.049 0 012.112-.506 5.1 5.1 0 012.576.623 4.318 4.318 0 011.672 1.694 4.975 4.975 0 01.594 2.442 5.581 5.581 0 01-.341 1.881 8.664 8.664 0 01-.935 1.859 13.639 13.639 0 01-1.364 1.734l-2.97 3.168-.242-.2zm8.216.44v-4.032h7.992v4.032zm7.992-10.026v3.87h-7.992v-3.87zm-10.206-2.16v15.516h2.214v-1.17h7.992v1.134h2.3v-15.48zm29.61 4.806l-1.332.56a13.888 13.888 0 011.4 2.5l1.368-.612a23.59 23.59 0 00-1.436-2.448zm2.016-.828l-1.314.612a15.835 15.835 0 011.476 2.43l1.35-.648a26.924 26.924 0 00-1.512-2.394zm-14.022-2.124l.234 2.448c2.07-.45 5.814-.846 7.362-1.008a7.068 7.068 0 00-2.63 5.49c0 3.87 3.53 5.882 7.274 6.12l.826-2.466c-3.024-.144-5.76-1.206-5.76-4.14a5.411 5.411 0 013.76-4.986 18.408 18.408 0 013.438-.234l-.018-2.3c-1.26.054-3.2.162-5.04.306-3.258.288-6.21.558-7.7.684-.342.032-1.026.068-1.746.086zm29.52 4.95a4.948 4.948 0 011.836 3.456c0 1.476-1.368 2.61-3.852 2.61-1.764 0-2.664-.81-2.664-2.268 0-.324.036-.774.072-1.3h.72c1.1 0 2.142-.072 3.15-.162l.054-2.124a35.36 35.36 0 01-3.582.216h-.126c.09-.792.2-1.638.306-2.43a31.944 31.944 0 003.474-.162l.072-2.124a26.161 26.161 0 01-3.276.216c.09-.576.144-1.044.2-1.35.072-.468.162-.936.306-1.584l-2.5-.144a11.227 11.227 0 01-.036 1.584c-.036.4-.072.882-.144 1.422a16.523 16.523 0 01-3.654-.666l-.13 2.072a22.281 22.281 0 003.546.63c-.108.81-.2 1.638-.306 2.43a15.174 15.174 0 01-3.51-.7l-.126 2.16a19.989 19.989 0 003.42.594c-.072.738-.126 1.368-.126 1.8 0 2.97 1.98 4.194 4.788 4.194 3.906 0 6.318-1.944 6.318-4.626a6.631 6.631 0 00-1.728-4.282zm15.408 2.736h1.854l.63-6.156.09-2.682h-3.294l.072 2.682zm.918 4.788a1.761 1.761 0 001.872-1.762 1.786 1.786 0 00-1.872-1.784 1.786 1.786 0 00-1.872 1.784 1.761 1.761 0 001.872 1.762zm-109.086 15.022a5.814 5.814 0 01-1.674.2h-9.99a17.283 17.283 0 01-2.07-.162v2.52c.378-.036 1.35-.126 2.07-.126h9.522a19.978 19.978 0 01-4.572 5.184c-1.134-.99-2.322-1.962-3.042-2.5l-1.908 1.53a38.289 38.289 0 013.96 3.456 50.014 50.014 0 013.438 3.888l2.106-1.674a47.717 47.717 0 00-2.79-3.042 29.989 29.989 0 006.138-7.038 4.9 4.9 0 01.612-.756zm8.064-.864l-1.692 1.8a37.426 37.426 0 014.5 3.888l1.834-1.89a37.8 37.8 0 00-4.642-3.798zm-2.25 11.988l1.512 2.376a19.493 19.493 0 006.68-2.538 19.14 19.14 0 006.66-6.66l-1.4-2.538a17.068 17.068 0 01-6.552 7 18.552 18.552 0 01-6.9 2.36zm30.168-11.608a6.5 6.5 0 01-1.872.234h-6.336a20.11 20.11 0 01-2.124-.126v2.556c.378-.018 1.368-.126 2.124-.126h6.1a13.947 13.947 0 01-2.682 4.41 20.393 20.393 0 01-7.38 5.166l1.854 1.944a23.71 23.71 0 006.77-5.058 41.047 41.047 0 014.536 5.094l2.052-1.782a50.6 50.6 0 00-5.018-5.15 26.464 26.464 0 002.826-4.95 8.505 8.505 0 01.63-1.116zm9.054-.5a12.242 12.242 0 01.072 1.368v6.066c0 .54-.072 1.242-.09 1.584h2.664a21.99 21.99 0 01-.054-1.566v-6.09c0-.576.018-.972.054-1.368zm8.28-.162a12.7 12.7 0 01.108 1.8v3.42c0 2.808-.234 4.158-1.458 5.508a8.424 8.424 0 01-4.41 2.268l1.89 1.98a10.457 10.457 0 004.374-2.614c1.332-1.476 2.088-3.132 2.088-7v-3.568c0-.72.036-1.3.072-1.8zm8.946 8.46c.666-.054 1.872-.09 2.9-.09h9.664c.756 0 1.674.072 2.106.09v-2.832c-.468.036-1.278.108-2.106.108h-9.666c-.936 0-2.25-.054-2.9-.108zm29.664-3.858l-1.332.558a13.888 13.888 0 011.4 2.5l1.368-.612a23.591 23.591 0 00-1.436-2.446zm2.016-.828l-1.314.612a15.835 15.835 0 011.476 2.43l1.35-.648a26.924 26.924 0 00-1.512-2.394zm-14.022-2.124l.234 2.448c2.07-.45 5.814-.846 7.362-1.008a7.068 7.068 0 00-2.628 5.49c0 3.87 3.528 5.886 7.272 6.12l.828-2.466c-3.024-.144-5.76-1.206-5.76-4.14a5.411 5.411 0 013.762-4.986 18.408 18.408 0 013.438-.234l-.018-2.3c-1.26.054-3.2.162-5.04.306-3.258.288-6.21.558-7.7.684-.346.032-1.03.068-1.75.086zm29.52 4.95a4.948 4.948 0 011.836 3.456c0 1.476-1.368 2.61-3.852 2.61-1.764 0-2.664-.81-2.664-2.268 0-.324.036-.774.072-1.3h.72c1.1 0 2.142-.072 3.15-.162l.054-2.124a35.36 35.36 0 01-3.582.216h-.126c.09-.792.2-1.638.306-2.43a31.943 31.943 0 003.474-.162l.072-2.124a26.161 26.161 0 01-3.276.216c.09-.576.144-1.044.2-1.35.072-.468.162-.936.306-1.584l-2.5-.144a11.228 11.228 0 01-.036 1.584c-.036.4-.072.882-.144 1.422a16.523 16.523 0 01-3.654-.666l-.13 2.072a22.281 22.281 0 003.546.63c-.108.81-.2 1.638-.306 2.43a15.174 15.174 0 01-3.51-.7l-.126 2.16a19.989 19.989 0 003.42.594c-.072.738-.126 1.368-.126 1.8 0 2.97 1.98 4.194 4.788 4.194 3.906 0 6.318-1.944 6.318-4.626a6.631 6.631 0 00-1.728-4.282zm15.408 2.736H522l.63-6.156.09-2.682h-3.298l.072 2.682zm.918 4.788a1.761 1.761 0 001.872-1.762 1.874 1.874 0 00-3.744 0 1.761 1.761 0 001.872 1.762z"/></g></g></svg>