<svg xmlns="http://www.w3.org/2000/svg" width="345" height="468.555"><defs><clipPath id="a"><path data-name="パス 6936" stroke="#00c387" d="M110.818 118.734v-71.24L55.409.001 0 47.494v71.24z" fill="none" stroke-linecap="round" stroke-linejoin="round" stroke-width="8" opacity=".252"/></clipPath></defs><g data-name="グループ 3196"><g data-name="グループ 3134"><text data-name="＋" transform="translate(173 244.974)" fill="#02835b" font-size="32" font-family="NotoSansCJKjp-Bold, Noto Sans CJK JP" font-weight="700" letter-spacing=".02em"><tspan x="-16" y="0">＋</tspan></text><text data-name="それが…" transform="translate(179.473 316.974)" fill="#02835b" font-size="16" font-family="NotoSansCJKjp-Medium, Noto Sans CJK JP" font-weight="500"><tspan x="-32" y="0">それが…</tspan></text><g data-name="グループ 3191"><g data-name="パス 11897" fill="#f5fdf6" stroke-linecap="round" stroke-linejoin="round" opacity=".724"><path d="M342.5 349.89H2.5V70.574L172.997 2.692 342.5 70.57v279.32z"/><path d="M340 347.39V72.262L172.994 5.384 5 72.27v275.12h335m5 5H0V68.88L173 0l172 68.878V352.39z" fill="#8dddc4"/></g><g data-name="グループ 3130"><path data-name="パス 11924" d="M94.533 100.741a2.008 2.008 0 011.48.592 2.008 2.008 0 01.592 1.478 1.9 1.9 0 01-.592 1.425 2.042 2.042 0 01-1.48.575h-12.58a1.979 1.979 0 01-1.517-.592 2.129 2.129 0 01-.555-1.517 2.3 2.3 0 01.666-1.628l8.066-8.621a14.308 14.308 0 002.165-2.979 5.951 5.951 0 00.8-2.757 4.007 4.007 0 00-1.189-2.885 3.706 3.706 0 00-2.738-1.221 3.91 3.91 0 00-2.164.722 8.009 8.009 0 00-1.979 1.906 2.042 2.042 0 01-1.7.888 2.172 2.172 0 01-1.5-.629 1.878 1.878 0 01-.685-1.406 2.076 2.076 0 01.37-1.128 8.37 8.37 0 011.11-1.313 11.156 11.156 0 013.256-2.257 8.492 8.492 0 013.552-.851 8.637 8.637 0 014.292 1.036 7.2 7.2 0 012.849 2.849 8.367 8.367 0 011 4.107 10.288 10.288 0 01-1.2 4.644 19.761 19.761 0 01-3.238 4.569l-4.7 5zm5.233-6.057l.855 2.09c1.71-.7 6.346-2.7 9.291-2.7 2.413 0 3.762 1.463 3.762 3.344 0 3.61-4.218 5.092-9.215 5.206l.855 1.995c6.175-.321 10.469-2.753 10.469-7.161 0-3.287-2.565-5.168-5.8-5.168-2.774 0-6.517 1.349-8.037 1.824-.698.209-1.496.437-2.18.57zm23.237 7.127c-.76 0-1.729-.988-1.729-3.154a6.307 6.307 0 015.358-5.814 26.069 26.069 0 01-1.026 4.845c-.874 2.905-1.786 4.123-2.603 4.123zm5.054 3.627c4.6-.646 7.125-3.382 7.125-7.315 0-3.952-2.869-7.106-7.391-7.106-4.712 0-8.417 3.629-8.417 7.809 0 3.135 1.71 5.244 3.572 5.244 1.881 0 3.439-2.147 4.579-5.985a43.063 43.063 0 001.121-5.282 4.976 4.976 0 014.522 5.244 5.4 5.4 0 01-4.56 5.339 10.655 10.655 0 01-1.672.266zm13.756-13.984l-2.3-.038a9.461 9.461 0 01.133 1.767 49.95 49.95 0 00.209 5.035c.514 4.959 2.262 6.783 4.162 6.783 1.387 0 2.546-1.121 3.743-4.351l-1.52-1.767c-.418 1.729-1.235 3.781-2.185 3.781-1.254 0-2.014-1.976-2.3-4.94a41.809 41.809 0 01-.133-4.237 15.275 15.275 0 01.191-2.033zm9.633.475l-1.881.627c1.9 2.242 2.983 6.289 3.287 9.519l1.957-.76a19.913 19.913 0 00-3.363-9.386zm9.743-.475l-2.3-.038a9.461 9.461 0 01.133 1.767 49.95 49.95 0 00.209 5.035c.518 4.959 2.266 6.783 4.166 6.783 1.387 0 2.546-1.121 3.743-4.351l-1.52-1.767c-.418 1.728-1.231 3.781-2.185 3.781-1.254 0-2.014-1.976-2.3-4.94a41.809 41.809 0 01-.133-4.237 15.276 15.276 0 01.187-2.033zm9.633.475l-1.881.627c1.9 2.242 2.983 6.289 3.287 9.519l1.961-.764a19.913 19.913 0 00-3.363-9.382zm19.3-.038a10.553 10.553 0 01-1.52.988c-.969.551-2.831 1.482-4.484 2.47a43.312 43.312 0 01-2.451-5.415l-1.881.76c.882 2.017 1.832 4.123 2.687 5.717-1.919 1.37-3.192 2.909-3.192 4.9 0 3.006 2.679 4.07 6.308 4.07a35.246 35.246 0 005.985-.475l.015-2.128a30.6 30.6 0 01-6.08.646c-2.812 0-4.2-.855-4.2-2.318 0-1.368 1.045-2.546 2.717-3.629a58.459 58.459 0 015.51-2.983c.608-.3 1.14-.589 1.615-.874zm9.595 1.368c1.5.133 3.116.209 5.054.209 1.748 0 3.933-.133 5.225-.228v-1.976c-1.406.152-3.42.266-5.244.266a47.623 47.623 0 01-5.035-.228zm-.817 5.624a11.463 11.463 0 00-.38 2.66c0 2.451 2.185 3.8 6.213 3.8a28.035 28.035 0 006.479-.646l-.019-2.071a25.745 25.745 0 01-6.517.722c-2.869 0-4.18-.931-4.18-2.242a7.249 7.249 0 01.342-2.052zm24.833-7.239h.779v1.467h6.023a21.116 21.116 0 01-2.046 6.475 24.019 24.019 0 01-2.052-6.422l-1.71.342a26.762 26.762 0 002.7 7.809 10.825 10.825 0 01-3.686 3.306zm-4.959 10.2v-2.505h3.249v2.052zm3.249-10.2v2.2h-3.241v-2.2zm-3.241 3.781h3.249v2.318h-3.249zm12.559-4.1l-.3.057h-6.027v-1.371h-9.31v1.634h1.385v10.43c-.665.076-1.254.171-1.786.228l.323 1.767c1.767-.285 4.1-.665 6.4-1.045v3.249h1.71v-1.558a6.828 6.828 0 011.1 1.368 13.014 13.014 0 003.629-3.154 11.946 11.946 0 003.572 3.192 6.727 6.727 0 011.223-1.444 10.462 10.462 0 01-3.686-3.325 23.751 23.751 0 002.907-9.728zm7.372-1.634c-.019.494-.076 1.14-.152 1.767a49.215 49.215 0 00-.572 6.053 22.673 22.673 0 00.228 3.04l1.843-.133a8.514 8.514 0 01-.057-2.166c.152-2.47 2.242-5.852 4.522-5.852 1.805 0 2.774 1.919 2.774 4.845 0 4.655-3.078 6.175-7.2 6.821l1.14 1.71c4.788-.874 8.075-3.287 8.075-8.531 0-4.047-1.9-6.574-4.465-6.574-2.261 0-4.085 2.014-4.9 3.743a32.719 32.719 0 01.817-4.655zm23.5 10.412h1.558l.57-6.992.057-2.508h-2.79l.057 2.508zm.782 4.841a1.649 1.649 0 001.729-1.653 1.664 1.664 0 00-1.729-1.672 1.664 1.664 0 00-1.729 1.672 1.649 1.649 0 001.729 1.653z" fill="#02835b"/><path data-name="パス 6942" d="M302.339 88.642l-25.593 25.593" fill="none" stroke="#02835b" stroke-width="4"/><path data-name="パス 6943" d="M43.155 88.641l25.593 25.593" fill="none" stroke="#02835b" stroke-width="4"/></g><g data-name="グループ 2281" opacity=".893"><g data-name="マスクグループ 29" transform="translate(36 150.909)" clip-path="url(#a)"><g data-name="グループ 2271" fill="none" stroke="#8dddc4" stroke-width="3.163"><path data-name="線 357" stroke-miterlimit="10" d="M603.571-5.449L492.019 123.407"/><path data-name="線 358" stroke-miterlimit="10" d="M595.481-5.449L483.929 123.407"/><path data-name="線 359" stroke-miterlimit="10" d="M587.391-5.449L475.839 123.407"/><path data-name="線 360" stroke-miterlimit="10" d="M579.301-5.449L467.749 123.407"/><path data-name="線 361" stroke-miterlimit="10" d="M571.211-5.449L459.659 123.407"/><path data-name="線 362" stroke-miterlimit="10" d="M563.121-5.449L451.569 123.407"/><path data-name="線 363" stroke-miterlimit="10" d="M555.031-5.449L443.479 123.407"/><path data-name="線 364" stroke-miterlimit="10" d="M546.94-5.449L435.388 123.407"/><path data-name="線 365" stroke-miterlimit="10" d="M538.85-5.449L427.298 123.407"/><path data-name="線 366" stroke-miterlimit="10" d="M530.76-5.449L419.208 123.407"/><path data-name="線 367" stroke-miterlimit="10" d="M522.67-5.449L411.118 123.407"/><path data-name="線 368" stroke-miterlimit="10" d="M514.58-5.449L403.028 123.407"/><path data-name="線 369" stroke-miterlimit="10" d="M506.491-5.449L394.938 123.407"/><path data-name="線 370" stroke-miterlimit="10" d="M498.401-5.449L386.848 123.407"/><path data-name="線 371" stroke-miterlimit="10" d="M490.311-5.449L378.758 123.407"/><path data-name="線 372" stroke-miterlimit="10" d="M482.221-5.449L370.668 123.407"/><path data-name="線 373" stroke-miterlimit="10" d="M474.131-5.449L362.578 123.407"/><path data-name="線 374" stroke-miterlimit="10" d="M466.041-5.449L354.488 123.407"/><path data-name="線 375" stroke-miterlimit="10" d="M457.95-5.449L346.397 123.407"/><path data-name="線 376" stroke-miterlimit="10" d="M449.86-5.449L338.307 123.407"/><path data-name="線 377" stroke-miterlimit="10" d="M441.77-5.449L330.217 123.407"/><path data-name="線 378" stroke-miterlimit="10" d="M433.68-5.449L322.127 123.407"/><path data-name="線 379" stroke-miterlimit="10" d="M425.59-5.449L314.037 123.407"/><path data-name="線 380" stroke-miterlimit="10" d="M417.5-5.449L305.947 123.407"/><path data-name="線 381" stroke-miterlimit="10" d="M409.41-5.449L297.857 123.407"/><path data-name="線 382" stroke-miterlimit="10" d="M401.32-5.449L289.767 123.407"/><path data-name="線 383" stroke-miterlimit="10" d="M393.23-5.449L281.677 123.407"/><path data-name="線 384" stroke-miterlimit="10" d="M385.14-5.449L273.587 123.407"/><path data-name="線 385" stroke-miterlimit="10" d="M377.05-5.449L265.497 123.407"/><path data-name="線 386" stroke-miterlimit="10" d="M368.96-5.449L257.407 123.407"/><path data-name="線 387" stroke-miterlimit="10" d="M360.869-5.449L249.316 123.407"/><path data-name="線 388" stroke-miterlimit="10" d="M352.779-5.449L241.226 123.407"/><path data-name="線 389" stroke-miterlimit="10" d="M344.689-5.449L233.136 123.407"/><path data-name="線 390" stroke-miterlimit="10" d="M336.599-5.449L225.046 123.407"/><path data-name="線 391" stroke-miterlimit="10" d="M328.509-5.449L216.956 123.407"/><path data-name="線 392" stroke-miterlimit="10" d="M320.419-5.449L208.866 123.407"/><path data-name="線 393" stroke-miterlimit="10" d="M312.329-5.449L200.776 123.407"/><path data-name="線 394" stroke-miterlimit="10" d="M304.239-5.449L192.686 123.407"/><path data-name="線 395" stroke-miterlimit="10" d="M296.149-5.449L184.596 123.407"/><path data-name="線 396" stroke-miterlimit="10" d="M288.059-5.449L176.505 123.407"/><path data-name="線 397" stroke-miterlimit="10" d="M279.969-5.449L168.415 123.407"/><path data-name="線 398" stroke-miterlimit="10" d="M271.879-5.449L160.325 123.407"/><path data-name="線 399" stroke-miterlimit="10" d="M263.789-5.449L152.235 123.407"/><path data-name="線 400" stroke-miterlimit="10" d="M255.699-5.449L144.145 123.407"/><path data-name="線 401" stroke-miterlimit="10" d="M247.609-5.449L136.055 123.407"/><path data-name="線 402" stroke-miterlimit="10" d="M239.519-5.449L127.965 123.407"/><path data-name="線 403" stroke-miterlimit="10" d="M231.429-5.449L119.875 123.407"/><path data-name="線 404" stroke-miterlimit="10" d="M223.339-5.449L111.785 123.407"/><path data-name="線 405" stroke-miterlimit="10" d="M215.249-5.449L103.695 123.407"/><path data-name="線 406" stroke-miterlimit="10" d="M207.159-5.449L95.605 123.407"/><path data-name="線 407" stroke-miterlimit="10" d="M199.069-5.449L87.515 123.407"/><path data-name="線 408" stroke-miterlimit="10" d="M190.978-5.449L79.424 123.407"/><path data-name="線 409" stroke-miterlimit="10" d="M182.888-5.449L71.334 123.407"/><path data-name="線 410" stroke-miterlimit="10" d="M174.798-5.449L63.244 123.407"/><path data-name="線 411" stroke-miterlimit="10" d="M166.708-5.449L55.154 123.407"/><path data-name="線 412" stroke-miterlimit="10" d="M158.618-5.449L47.064 123.407"/><path data-name="線 413" stroke-miterlimit="10" d="M150.528-5.449L38.974 123.407"/><path data-name="線 414" stroke-miterlimit="10" d="M142.438-5.449L30.884 123.407"/><path data-name="線 415" stroke-miterlimit="10" d="M134.348-5.449L22.794 123.407"/><path data-name="線 416" stroke-miterlimit="10" d="M126.258-5.449L14.704 123.407"/><path data-name="線 417" stroke-miterlimit="10" d="M118.168-5.449L6.614 123.407"/><path data-name="線 418" stroke-miterlimit="10" d="M110.078-5.449L-1.476 123.407"/><path data-name="線 419" stroke-miterlimit="10" d="M101.987-5.449L-9.567 123.407"/><path data-name="線 420" stroke-miterlimit="10" d="M93.897-5.449L-17.657 123.407"/><path data-name="パス 6937" d="M85.807-5.449L-25.747 123.407"/><path data-name="線 422" stroke-miterlimit="10" d="M77.717-5.449L-33.837 123.407"/><path data-name="線 423" stroke-miterlimit="10" d="M69.628-5.449L-41.927 123.407"/><path data-name="線 424" stroke-miterlimit="10" d="M61.538-5.449L-50.017 123.407"/><path data-name="線 425" stroke-miterlimit="10" d="M53.448-5.449L-58.107 123.407"/><path data-name="線 426" stroke-miterlimit="10" d="M45.358-5.449L-66.197 123.407"/><path data-name="線 427" stroke-miterlimit="10" d="M37.268-5.449L-74.287 123.407"/><path data-name="線 428" stroke-miterlimit="10" d="M29.178-5.449L-82.377 123.407"/><path data-name="線 429" stroke-miterlimit="10" d="M21.088-5.449L-90.467 123.407"/><path data-name="線 430" stroke-miterlimit="10" d="M12.997-5.449L-98.558 123.407"/><path data-name="線 431" stroke-miterlimit="10" d="M4.907-5.449l-111.555 128.856"/><path data-name="線 432" stroke-miterlimit="10" d="M-3.183-5.449l-111.555 128.856"/><path data-name="線 433" stroke-miterlimit="10" d="M-11.273-5.449l-111.555 128.856"/><path data-name="線 434" stroke-miterlimit="10" d="M-19.363-5.449l-111.555 128.856"/><path data-name="線 435" stroke-miterlimit="10" d="M-27.453-5.449l-111.555 128.856"/><path data-name="線 436" stroke-miterlimit="10" d="M-35.543-5.449l-111.555 128.856"/><path data-name="線 437" stroke-miterlimit="10" d="M-43.633-5.449l-111.555 128.856"/><path data-name="線 438" stroke-miterlimit="10" d="M-51.723-5.449l-111.555 128.856"/><path data-name="線 439" stroke-miterlimit="10" d="M-59.813-5.449l-111.555 128.856"/><path data-name="線 440" stroke-miterlimit="10" d="M-67.903-5.449l-111.555 128.856"/><path data-name="線 441" stroke-miterlimit="10" d="M-75.993-5.449l-111.555 128.856"/><path data-name="線 442" stroke-miterlimit="10" d="M-84.084-5.449l-111.555 128.856"/><path data-name="線 443" stroke-miterlimit="10" d="M-92.174-5.449l-111.555 128.856"/><path data-name="線 444" stroke-miterlimit="10" d="M-100.264-5.449l-111.555 128.856"/><path data-name="線 445" stroke-miterlimit="10" d="M-108.354-5.449l-111.555 128.856"/><path data-name="線 446" stroke-miterlimit="10" d="M-116.444-5.449l-111.555 128.856"/><path data-name="線 447" stroke-miterlimit="10" d="M-124.534-5.449l-111.555 128.856"/><path data-name="線 448" stroke-miterlimit="10" d="M-132.624-5.449l-111.555 128.856"/><path data-name="線 449" stroke-miterlimit="10" d="M-140.714-5.449l-111.555 128.856"/><path data-name="線 450" stroke-miterlimit="10" d="M-148.803-5.449l-111.556 128.856"/><path data-name="線 451" stroke-miterlimit="10" d="M-156.893-5.449l-111.556 128.856"/><path data-name="線 452" stroke-miterlimit="10" d="M-164.983-5.449l-111.556 128.856"/><path data-name="線 453" stroke-miterlimit="10" d="M-173.074-5.449L-284.63 123.407"/><path data-name="線 454" stroke-miterlimit="10" d="M-181.164-5.449L-292.72 123.407"/><path data-name="線 455" stroke-miterlimit="10" d="M-189.254-5.449L-300.81 123.407"/><path data-name="線 456" stroke-miterlimit="10" d="M-197.344-5.449L-308.9 123.407"/><path data-name="線 457" stroke-miterlimit="10" d="M-205.434-5.449L-316.99 123.407"/><path data-name="線 458" stroke-miterlimit="10" d="M-213.524-5.449L-325.08 123.407"/></g></g><path data-name="パス 6938" d="M147.144 269.317v-71.24l-55.409-47.493-55.409 47.493v71.24z" fill="none" stroke="#8dddc4" stroke-linecap="round" stroke-linejoin="round" stroke-width="6"/></g><g data-name="グループ 3132" opacity=".893"><g data-name="マスクグループ 29" transform="translate(198 150.909)" clip-path="url(#a)"><g data-name="グループ 2271" fill="none" stroke="#8dddc4" stroke-width="3.163"><path data-name="線 357" stroke-miterlimit="10" d="M603.571-5.449L492.019 123.407"/><path data-name="線 358" stroke-miterlimit="10" d="M595.481-5.449L483.929 123.407"/><path data-name="線 359" stroke-miterlimit="10" d="M587.391-5.449L475.839 123.407"/><path data-name="線 360" stroke-miterlimit="10" d="M579.301-5.449L467.749 123.407"/><path data-name="線 361" stroke-miterlimit="10" d="M571.211-5.449L459.659 123.407"/><path data-name="線 362" stroke-miterlimit="10" d="M563.121-5.449L451.569 123.407"/><path data-name="線 363" stroke-miterlimit="10" d="M555.031-5.449L443.479 123.407"/><path data-name="線 364" stroke-miterlimit="10" d="M546.94-5.449L435.388 123.407"/><path data-name="線 365" stroke-miterlimit="10" d="M538.85-5.449L427.298 123.407"/><path data-name="線 366" stroke-miterlimit="10" d="M530.76-5.449L419.208 123.407"/><path data-name="線 367" stroke-miterlimit="10" d="M522.67-5.449L411.118 123.407"/><path data-name="線 368" stroke-miterlimit="10" d="M514.58-5.449L403.028 123.407"/><path data-name="線 369" stroke-miterlimit="10" d="M506.491-5.449L394.938 123.407"/><path data-name="線 370" stroke-miterlimit="10" d="M498.401-5.449L386.848 123.407"/><path data-name="線 371" stroke-miterlimit="10" d="M490.311-5.449L378.758 123.407"/><path data-name="線 372" stroke-miterlimit="10" d="M482.221-5.449L370.668 123.407"/><path data-name="線 373" stroke-miterlimit="10" d="M474.131-5.449L362.578 123.407"/><path data-name="線 374" stroke-miterlimit="10" d="M466.041-5.449L354.488 123.407"/><path data-name="線 375" stroke-miterlimit="10" d="M457.95-5.449L346.397 123.407"/><path data-name="線 376" stroke-miterlimit="10" d="M449.86-5.449L338.307 123.407"/><path data-name="線 377" stroke-miterlimit="10" d="M441.77-5.449L330.217 123.407"/><path data-name="線 378" stroke-miterlimit="10" d="M433.68-5.449L322.127 123.407"/><path data-name="線 379" stroke-miterlimit="10" d="M425.59-5.449L314.037 123.407"/><path data-name="線 380" stroke-miterlimit="10" d="M417.5-5.449L305.947 123.407"/><path data-name="線 381" stroke-miterlimit="10" d="M409.41-5.449L297.857 123.407"/><path data-name="線 382" stroke-miterlimit="10" d="M401.32-5.449L289.767 123.407"/><path data-name="線 383" stroke-miterlimit="10" d="M393.23-5.449L281.677 123.407"/><path data-name="線 384" stroke-miterlimit="10" d="M385.14-5.449L273.587 123.407"/><path data-name="線 385" stroke-miterlimit="10" d="M377.05-5.449L265.497 123.407"/><path data-name="線 386" stroke-miterlimit="10" d="M368.96-5.449L257.407 123.407"/><path data-name="線 387" stroke-miterlimit="10" d="M360.869-5.449L249.316 123.407"/><path data-name="線 388" stroke-miterlimit="10" d="M352.779-5.449L241.226 123.407"/><path data-name="線 389" stroke-miterlimit="10" d="M344.689-5.449L233.136 123.407"/><path data-name="線 390" stroke-miterlimit="10" d="M336.599-5.449L225.046 123.407"/><path data-name="線 391" stroke-miterlimit="10" d="M328.509-5.449L216.956 123.407"/><path data-name="線 392" stroke-miterlimit="10" d="M320.419-5.449L208.866 123.407"/><path data-name="線 393" stroke-miterlimit="10" d="M312.329-5.449L200.776 123.407"/><path data-name="線 394" stroke-miterlimit="10" d="M304.239-5.449L192.686 123.407"/><path data-name="線 395" stroke-miterlimit="10" d="M296.149-5.449L184.596 123.407"/><path data-name="線 396" stroke-miterlimit="10" d="M288.059-5.449L176.505 123.407"/><path data-name="線 397" stroke-miterlimit="10" d="M279.969-5.449L168.415 123.407"/><path data-name="線 398" stroke-miterlimit="10" d="M271.879-5.449L160.325 123.407"/><path data-name="線 399" stroke-miterlimit="10" d="M263.789-5.449L152.235 123.407"/><path data-name="線 400" stroke-miterlimit="10" d="M255.699-5.449L144.145 123.407"/><path data-name="線 401" stroke-miterlimit="10" d="M247.609-5.449L136.055 123.407"/><path data-name="線 402" stroke-miterlimit="10" d="M239.519-5.449L127.965 123.407"/><path data-name="線 403" stroke-miterlimit="10" d="M231.429-5.449L119.875 123.407"/><path data-name="線 404" stroke-miterlimit="10" d="M223.339-5.449L111.785 123.407"/><path data-name="線 405" stroke-miterlimit="10" d="M215.249-5.449L103.695 123.407"/><path data-name="線 406" stroke-miterlimit="10" d="M207.159-5.449L95.605 123.407"/><path data-name="線 407" stroke-miterlimit="10" d="M199.069-5.449L87.515 123.407"/><path data-name="線 408" stroke-miterlimit="10" d="M190.978-5.449L79.424 123.407"/><path data-name="線 409" stroke-miterlimit="10" d="M182.888-5.449L71.334 123.407"/><path data-name="線 410" stroke-miterlimit="10" d="M174.798-5.449L63.244 123.407"/><path data-name="線 411" stroke-miterlimit="10" d="M166.708-5.449L55.154 123.407"/><path data-name="線 412" stroke-miterlimit="10" d="M158.618-5.449L47.064 123.407"/><path data-name="線 413" stroke-miterlimit="10" d="M150.528-5.449L38.974 123.407"/><path data-name="線 414" stroke-miterlimit="10" d="M142.438-5.449L30.884 123.407"/><path data-name="線 415" stroke-miterlimit="10" d="M134.348-5.449L22.794 123.407"/><path data-name="線 416" stroke-miterlimit="10" d="M126.258-5.449L14.704 123.407"/><path data-name="線 417" stroke-miterlimit="10" d="M118.168-5.449L6.614 123.407"/><path data-name="線 418" stroke-miterlimit="10" d="M110.078-5.449L-1.476 123.407"/><path data-name="線 419" stroke-miterlimit="10" d="M101.987-5.449L-9.567 123.407"/><path data-name="線 420" stroke-miterlimit="10" d="M93.897-5.449L-17.657 123.407"/><path data-name="パス 6937" d="M85.807-5.449L-25.747 123.407"/><path data-name="線 422" stroke-miterlimit="10" d="M77.717-5.449L-33.837 123.407"/><path data-name="線 423" stroke-miterlimit="10" d="M69.628-5.449L-41.927 123.407"/><path data-name="線 424" stroke-miterlimit="10" d="M61.538-5.449L-50.017 123.407"/><path data-name="線 425" stroke-miterlimit="10" d="M53.448-5.449L-58.107 123.407"/><path data-name="線 426" stroke-miterlimit="10" d="M45.358-5.449L-66.197 123.407"/><path data-name="線 427" stroke-miterlimit="10" d="M37.268-5.449L-74.287 123.407"/><path data-name="線 428" stroke-miterlimit="10" d="M29.178-5.449L-82.377 123.407"/><path data-name="線 429" stroke-miterlimit="10" d="M21.088-5.449L-90.467 123.407"/><path data-name="線 430" stroke-miterlimit="10" d="M12.997-5.449L-98.558 123.407"/><path data-name="線 431" stroke-miterlimit="10" d="M4.907-5.449l-111.555 128.856"/><path data-name="線 432" stroke-miterlimit="10" d="M-3.183-5.449l-111.555 128.856"/><path data-name="線 433" stroke-miterlimit="10" d="M-11.273-5.449l-111.555 128.856"/><path data-name="線 434" stroke-miterlimit="10" d="M-19.363-5.449l-111.555 128.856"/><path data-name="線 435" stroke-miterlimit="10" d="M-27.453-5.449l-111.555 128.856"/><path data-name="線 436" stroke-miterlimit="10" d="M-35.543-5.449l-111.555 128.856"/><path data-name="線 437" stroke-miterlimit="10" d="M-43.633-5.449l-111.555 128.856"/><path data-name="線 438" stroke-miterlimit="10" d="M-51.723-5.449l-111.555 128.856"/><path data-name="線 439" stroke-miterlimit="10" d="M-59.813-5.449l-111.555 128.856"/><path data-name="線 440" stroke-miterlimit="10" d="M-67.903-5.449l-111.555 128.856"/><path data-name="線 441" stroke-miterlimit="10" d="M-75.993-5.449l-111.555 128.856"/><path data-name="線 442" stroke-miterlimit="10" d="M-84.084-5.449l-111.555 128.856"/><path data-name="線 443" stroke-miterlimit="10" d="M-92.174-5.449l-111.555 128.856"/><path data-name="線 444" stroke-miterlimit="10" d="M-100.264-5.449l-111.555 128.856"/><path data-name="線 445" stroke-miterlimit="10" d="M-108.354-5.449l-111.555 128.856"/><path data-name="線 446" stroke-miterlimit="10" d="M-116.444-5.449l-111.555 128.856"/><path data-name="線 447" stroke-miterlimit="10" d="M-124.534-5.449l-111.555 128.856"/><path data-name="線 448" stroke-miterlimit="10" d="M-132.624-5.449l-111.555 128.856"/><path data-name="線 449" stroke-miterlimit="10" d="M-140.714-5.449l-111.555 128.856"/><path data-name="線 450" stroke-miterlimit="10" d="M-148.803-5.449l-111.556 128.856"/><path data-name="線 451" stroke-miterlimit="10" d="M-156.893-5.449l-111.556 128.856"/><path data-name="線 452" stroke-miterlimit="10" d="M-164.983-5.449l-111.556 128.856"/><path data-name="線 453" stroke-miterlimit="10" d="M-173.074-5.449L-284.63 123.407"/><path data-name="線 454" stroke-miterlimit="10" d="M-181.164-5.449L-292.72 123.407"/><path data-name="線 455" stroke-miterlimit="10" d="M-189.254-5.449L-300.81 123.407"/><path data-name="線 456" stroke-miterlimit="10" d="M-197.344-5.449L-308.9 123.407"/><path data-name="線 457" stroke-miterlimit="10" d="M-205.434-5.449L-316.99 123.407"/><path data-name="線 458" stroke-miterlimit="10" d="M-213.524-5.449L-325.08 123.407"/></g></g><path data-name="パス 6938" d="M309.144 269.317v-71.24l-55.409-47.493-55.409 47.493v71.24z" fill="none" stroke="#8dddc4" stroke-linecap="round" stroke-linejoin="round" stroke-width="6"/></g><path data-name="パス 11925" d="M63.84 214.646a22.139 22.139 0 01-4.14 5.676l2.4 1.628a35.72 35.72 0 004.246-6.138zm12.606-1.958c.616 0 1.474.022 2.156.066v-2.88a17.5 17.5 0 01-2.178.154h-5.1v-1.738a13.53 13.53 0 01.2-1.936h-3.256a14.62 14.62 0 01.176 1.914v1.76H62.85c-.682 0-1.452-.088-2.112-.154v2.9c.616-.066 1.452-.088 2.112-.088h5.588v.022c0 1.034 0 8.008-.022 8.822-.022.572-.22.792-.792.792a14.339 14.339 0 01-2.442-.242l.264 2.706a31.374 31.374 0 003.564.2c1.562 0 2.31-.792 2.31-2.068v-10.23zm-3.058 3.186a44.468 44.468 0 013.586 5.9l2.574-1.408a51.139 51.139 0 00-3.762-5.786zm23.232-6.024c.77 0 1.606.044 2.376.088V207.1a17.236 17.236 0 01-2.376.154h-8.844a16.392 16.392 0 01-2.332-.154v2.838c.66-.044 1.584-.088 2.354-.088zm-11.638 3.014c-.682 0-1.452-.066-2.112-.132v2.882a33.195 33.195 0 012.112-.088h6.05a9.454 9.454 0 01-1.364 4.862 9.139 9.139 0 01-3.982 3.146l2.574 1.87a10.556 10.556 0 004.422-4.224 13.957 13.957 0 001.408-5.654h5.3c.616 0 1.452.022 2 .066v-2.86a16.928 16.928 0 01-2 .132zM107 224.942a12.743 12.743 0 003.92-6.314c.594-2.222.66-6.864.66-9.46a14.031 14.031 0 01.154-1.98H108.5a8.03 8.03 0 01.2 2c0 2.662-.022 6.82-.638 8.712a10.378 10.378 0 01-3.742 5.26zm9.328.066a5.609 5.609 0 01.972-.66 24.223 24.223 0 007.458-6.006l-1.694-2.42a13.931 13.931 0 01-5.434 4.642v-11.506a11.171 11.171 0 01.154-1.914h-3.278a9.753 9.753 0 01.176 1.892v12.826a8.372 8.372 0 01-.176 1.628zm-83.5 27.726c-.666 0-1.386-.882-1.386-2.682a5.589 5.589 0 014.518-5.166 28.611 28.611 0 01-.954 4.32c-.714 2.412-1.434 3.528-2.172 3.528zm4.9 3.978c4.5-.684 6.8-3.348 6.8-7.092a6.8 6.8 0 00-7.2-6.966 7.949 7.949 0 00-8.208 7.632c0 3.006 1.674 5.184 3.636 5.184 1.944 0 3.492-2.2 4.554-5.8a38.738 38.738 0 001.062-4.842 4.412 4.412 0 013.728 4.72 4.826 4.826 0 01-4.05 4.77c-.468.108-.972.2-1.656.288zm16.542-3.6c0 1.17-.414 1.692-1.566 1.692-1.242 0-2.142-.324-2.142-1.206 0-.756.828-1.224 2.214-1.224a9.791 9.791 0 011.476.126c.02.234.02.45.02.612zm7.7.828a14.1 14.1 0 00-5.418-3.06c-.09-1.314-.162-2.718-.2-3.8 1.44-.036 3.564-.108 5.058-.252l-.09-2.124c-1.476.162-3.564.234-4.968.27v-1.3c.036-.7.09-1.566.162-2.088H53.84a11.31 11.31 0 01.18 2.088c.018.756.036 1.818.036 2.9 0 .936.072 2.466.126 3.852a10.229 10.229 0 00-1.062-.052c-3.276 0-4.86 1.476-4.86 3.33 0 2.43 2.088 3.258 4.626 3.258 2.988 0 3.8-1.512 3.8-3.078 0-.18 0-.378-.018-.612a13.768 13.768 0 013.942 2.79zm14.94-3.888c0 2.79-2.826 4.23-7.254 4.734l1.3 2.232c4.95-.684 8.478-3.06 8.478-6.876 0-2.79-1.98-4.392-4.806-4.392a24.694 24.694 0 00-5.382.81 17.476 17.476 0 01-1.944.306l.666 2.538c.522-.18 1.206-.45 1.728-.612a15.994 15.994 0 014.644-.864c1.676-.018 2.576.954 2.576 2.124zm-6.984-8.568l-.36 2.16c2.052.36 5.922.7 8.01.846l.36-2.2a50.35 50.35 0 01-8.004-.806zm30.06 4.662a32.074 32.074 0 00-4.386-2.412l-1.152 1.764a23.766 23.766 0 014.284 2.538zm-6.708-2.736a18.828 18.828 0 01-2.394.558c.252-.954.468-1.854.612-2.43l-2.466-.252a15.177 15.177 0 01-.486 2.988c-.54.036-1.08.054-1.6.054a22.658 22.658 0 01-2.376-.126l.162 2.088c.774.036 1.494.054 2.232.054.306 0 .612 0 .918-.018a27.2 27.2 0 01-3.636 6.3l2.178 1.1a32.9 32.9 0 003.816-7.632 26.122 26.122 0 003.1-.612zm.432 9.918c0 .954-.4 1.656-1.6 1.656-.972 0-1.53-.45-1.53-1.116 0-.63.666-1.062 1.692-1.062a6.309 6.309 0 011.44.18zm-.288-6.246c.054 1.08.144 2.646.2 3.978a12.778 12.778 0 00-1.206-.072c-2.484 0-3.942 1.35-3.942 3.1 0 1.962 1.746 2.952 3.96 2.952 2.538 0 3.438-1.3 3.438-2.952v-.162a15.869 15.869 0 012.412 1.89l1.186-1.912a11.875 11.875 0 00-3.69-2.286 93.324 93.324 0 01-.108-2.25c-.018-.792-.054-1.53 0-2.286zm25.178 2.862h-7.11v-2.106h6.048v-2.052h-6.044v-2.358a42.409 42.409 0 005.472-.954l-1.548-1.782a66.841 66.841 0 01-12.218 1.44 7.168 7.168 0 01.54 1.89c1.764-.072 3.654-.18 5.526-.342v2.106h-5.89v2.052h5.886v2.106h-7.11v2.088h7.11v2.9c0 .36-.162.486-.576.5-.4 0-1.908 0-3.24-.054a8.3 8.3 0 01.882 2.124 12.242 12.242 0 004-.36c.846-.342 1.17-.9 1.17-2.178v-2.932h7.102zm14.958 3.06h2.772v-1.8h-2.768v-2h-2.124v2h-2.718v1.8h2.718v2.25h-3.672v1.89h9.378v-1.89h-3.582zm.468-9.63a8.643 8.643 0 01-1.566 2.268 8.694 8.694 0 01-1.49-2.268zm-7.722 4.446h-1.328v-1.08h1.332zm0 2.466h-1.328v-1.1h1.332zm-4.068-1.1h1.278v1.1h-1.274zm0-2.448h1.278v1.08h-1.274zm13.086-5.274l-.36.072H128.5v1.838h2.088l-1.422.378a11.894 11.894 0 001.854 3.114 10.755 10.755 0 01-3.11 1.458v-3.06h-2.7v-.99h2.826v-1.854h-2.826v-1.692h-1.91v1.692h-2.77v1.854h2.77v.99h-2.59v6.5h2.59v1.08h-2.986v1.87h2.986v2.826h1.91v-2.826h2.97v-1.872h-2.97v-1.08h2.7v-2.916a9.311 9.311 0 01.774 1.278 13.354 13.354 0 003.8-1.872 10.588 10.588 0 003.636 1.8 7.408 7.408 0 011.28-1.728 10.809 10.809 0 01-3.384-1.4 11.441 11.441 0 002.682-4.932zm6.178 8.66a12.082 12.082 0 00-.5 2.934c0 2.484 1.926 3.834 5.508 3.834a24.981 24.981 0 004.806-.432l.054-2.358a19.709 19.709 0 01-4.86.522c-2.52 0-3.186-.882-3.186-2.178a8 8 0 01.486-2.124zm11.628-7a26.076 26.076 0 01-3.492.9c-.4-.936-.738-1.782-1.044-2.718l-2.52.486a13.837 13.837 0 01.882 1.71c.108.27.234.558.378.846a30.37 30.37 0 01-6.66-.18l.072 2.286a40.048 40.048 0 007.506 0c.522 1.116 1.134 2.358 1.566 3.258-.54-.036-1.512-.144-2.106-.2l-.2 1.836c1.314.162 3.078.45 4.05.648l1.26-1.35a94.302 94.302 0 01-2.3-4.554 41.934 41.934 0 003.024-.72z"/><path data-name="パス 11926" d="M199.77 208.662h-5.17v1.826h5.17v1.012h-4.444v1.8h11.814v-1.8h-4.862v-1.012h5.588v-1.826h-5.588v-1.056c1.628-.132 3.168-.308 4.466-.55l-1.32-1.606a75.723 75.723 0 01-9.746.836 6.459 6.459 0 01.506 1.606c1.144-.022 2.354-.044 3.586-.11zm-8.624 4.8h2.464v-5.126a16.95 16.95 0 001.914-2.112l-2.376-.88a15.939 15.939 0 01-5.654 4.29 15.509 15.509 0 011.892 1.914 18.677 18.677 0 001.76-1.166zm2.376 6.688H203v.9h-9.482zm0-2.288H203v.88h-9.482zm0-2.266H203v.858h-9.482zm12.144 6.948v-8.448h-14.674v8.448h2.948a29.868 29.868 0 01-5.83 1.54 16.9 16.9 0 011.89 1.87 28.117 28.117 0 006.866-2.618l-1.738-.792h6.094l-1.892 1.03a39.87 39.87 0 015.632 2.31l3.146-1.162c-1.43-.616-3.762-1.5-5.9-2.178zm8.6-9.834h2.508v-4.664a15.652 15.652 0 001.87-1.98l-2.376-.9a16.853 16.853 0 01-6.226 4.444 13.489 13.489 0 011.848 1.87 25.554 25.554 0 002.376-1.452zm1.634 6.952h9.548v.968H215.9zm0-2.42h9.548v.946H215.9zm0-2.42h9.548v.946H215.9zm12.188 7.37v-8.888c1.518-.088 2.2-.66 2.486-2.86a5.664 5.664 0 01-1.914-.9c-.11 1.122-.264 1.474-.836 1.5a5.179 5.179 0 01-3.48-1.57l5.984-.352-.2-1.892-2.266.132.77-.858a14.984 14.984 0 00-3.782-1.23l-1.166 1.254a20.96 20.96 0 012.728.924l-3.432.2a7.275 7.275 0 01-.726-2.31h-2.442a11.671 11.671 0 00.572 2.442l-2.97.176.2 1.936 3.718-.22a7.862 7.862 0 005.632 3.586h-13.6v8.932h3.236a25.833 25.833 0 01-6.05 1.846 26.534 26.534 0 011.936 1.914 27.261 27.261 0 006.864-2.88l-2-.88h6.424l-1.98 1.144a43.379 43.379 0 015.72 2.6l3.034-1.172c-1.5-.726-4.026-1.782-6.27-2.574zm12.76-10.142a12.2 12.2 0 01.152 1.98c0 3.608-.528 5.94-3.322 7.876a8.693 8.693 0 01-2.31 1.21l2.552 2.09c6.006-3.212 6.116-7.7 6.116-13.156zm10.406-4.6a10.96 10.96 0 01-2.222.2H237.17a17.441 17.441 0 01-2.684-.22v3.058c1.034-.088 1.76-.154 2.684-.154h11.462a13.083 13.083 0 01-4.048 4.092l2.266 1.826a22.137 22.137 0 005.3-6.028 11.077 11.077 0 01.86-1.144zm20.372.7a1.277 1.277 0 011.274-1.27 1.277 1.277 0 011.276 1.276 1.272 1.272 0 01-1.276 1.254 1.272 1.272 0 01-1.278-1.254zm-1.364 0a2.643 2.643 0 002.638 2.624 2.643 2.643 0 002.64-2.618 2.648 2.648 0 00-2.64-2.64 2.648 2.648 0 00-2.642 2.64zm-12.038 8.982a26.506 26.506 0 01-3.432 6.116l3.08 1.3a30.248 30.248 0 003.256-6.294 55.011 55.011 0 001.872-6.622c.088-.484.33-1.562.528-2.2l-3.214-.658a31.7 31.7 0 01-2.09 8.358zm10.868-.458a67.977 67.977 0 012.288 7.762l3.256-1.056c-.616-2.178-1.782-5.7-2.574-7.678-.814-2.134-2.332-5.5-3.234-7.216l-2.926.946a61.629 61.629 0 013.19 7.242zm9.372.572c.814-.066 2.288-.11 3.542-.11h11.814c.924 0 2.046.088 2.574.11v-3.454c-.572.044-1.562.132-2.574.132h-11.814c-1.144 0-2.75-.066-3.542-.132zM318 215.874a71.853 71.853 0 00-9.2-3.41v-3.23a23.925 23.925 0 01.2-2.66h-3.432a15.344 15.344 0 01.22 2.662v12.626a23.541 23.541 0 01-.22 3.058H309c-.088-.88-.2-2.42-.2-3.058v-6.226a63.544 63.544 0 017.944 3.278zm-123.166 36.86c-.666 0-1.386-.882-1.386-2.682a5.589 5.589 0 014.518-5.166 28.611 28.611 0 01-.954 4.32c-.72 2.412-1.44 3.528-2.178 3.528zm4.9 3.978c4.5-.684 6.8-3.348 6.8-7.092a6.8 6.8 0 00-7.2-6.966 7.949 7.949 0 00-8.208 7.632c0 3.006 1.674 5.184 3.636 5.184 1.944 0 3.492-2.2 4.554-5.8a38.738 38.738 0 001.062-4.842 4.412 4.412 0 013.722 4.72 4.826 4.826 0 01-4.05 4.77c-.468.108-.972.2-1.656.288zm16.542-3.6c0 1.17-.414 1.692-1.566 1.692-1.242 0-2.142-.324-2.142-1.206 0-.756.828-1.224 2.214-1.224a9.791 9.791 0 011.476.126c.014.234.014.45.014.612zm7.7.828a14.1 14.1 0 00-5.418-3.06c-.09-1.314-.162-2.718-.2-3.8 1.44-.036 3.564-.108 5.058-.252l-.09-2.124c-1.476.162-3.564.234-4.968.27v-1.3c.036-.7.09-1.566.162-2.088h-2.68a11.31 11.31 0 01.18 2.088c.018.756.036 1.818.036 2.9 0 .936.072 2.466.126 3.852a10.229 10.229 0 00-1.062-.052c-3.276 0-4.86 1.476-4.86 3.33 0 2.43 2.088 3.258 4.626 3.258 2.988 0 3.8-1.512 3.8-3.078 0-.18 0-.378-.018-.612a13.768 13.768 0 013.942 2.79zm14.94-3.888c0 2.79-2.826 4.23-7.254 4.734l1.3 2.232c4.95-.684 8.478-3.06 8.478-6.876 0-2.79-1.98-4.392-4.806-4.392a24.694 24.694 0 00-5.382.81 17.476 17.476 0 01-1.944.306l.666 2.538c.522-.18 1.206-.45 1.728-.612a15.994 15.994 0 014.644-.864c1.67-.018 2.57.954 2.57 2.124zm-6.984-8.568l-.36 2.16c2.052.36 5.922.7 8.01.846l.36-2.2a50.35 50.35 0 01-8.01-.806zm30.06 4.662a32.074 32.074 0 00-4.392-2.412l-1.152 1.764a23.766 23.766 0 014.284 2.538zm-6.714-2.736a18.828 18.828 0 01-2.394.558c.252-.954.468-1.854.612-2.43l-2.466-.252a15.177 15.177 0 01-.486 2.988c-.54.036-1.08.054-1.6.054a22.658 22.658 0 01-2.376-.126l.162 2.088c.774.036 1.494.054 2.232.054.306 0 .612 0 .918-.018a27.2 27.2 0 01-3.636 6.3l2.178 1.1a32.9 32.9 0 003.816-7.632 26.122 26.122 0 003.1-.612zm.432 9.918c0 .954-.4 1.656-1.6 1.656-.972 0-1.53-.45-1.53-1.116 0-.63.666-1.062 1.692-1.062a6.309 6.309 0 011.44.18zm-.288-6.246c.054 1.08.144 2.646.2 3.978a12.778 12.778 0 00-1.206-.072c-2.484 0-3.942 1.35-3.942 3.1 0 1.962 1.746 2.952 3.96 2.952 2.538 0 3.438-1.3 3.438-2.952v-.162a15.869 15.869 0 012.412 1.89l1.186-1.912a11.875 11.875 0 00-3.69-2.286 93.324 93.324 0 01-.108-2.25c-.018-.792-.054-1.53 0-2.286zm12.726 7.56v-1.868h8.552v1.872zm8.55-5.706v1.854h-8.55v-1.854zm0-3.834v1.854h-8.55v-1.854zm-3.888-2.052c.288-.648.576-1.35.846-2.07l-2.592-.288a20.372 20.372 0 01-.486 2.358h-4.608v14.472h2.178v-.9h8.552v.882h2.286V243.05zm18.936 11.412v-3.06h3.942v3.06zm-6.03-3.06h3.816v3.06h-3.816zm3.816-5.094v3.006h-3.816v-3.006zm6.156 0v3.006h-3.942v-3.006zm-3.942-2.16v-3.4h-2.214v3.4h-5.958v13.392h2.142v-.954h9.972v.936h2.25v-13.374zm11.754 5.976a12.082 12.082 0 00-.5 2.934c0 2.484 1.926 3.834 5.508 3.834a24.981 24.981 0 004.806-.432l.054-2.358a19.709 19.709 0 01-4.86.522c-2.52 0-3.186-.882-3.186-2.178a8 8 0 01.486-2.124zm11.628-7a26.076 26.076 0 01-3.492.9c-.4-.936-.738-1.782-1.044-2.718l-2.52.486a13.837 13.837 0 01.882 1.71c.108.27.234.558.378.846a30.37 30.37 0 01-6.66-.18l.072 2.286a40.048 40.048 0 007.506 0c.522 1.116 1.134 2.358 1.566 3.258-.54-.036-1.512-.144-2.106-.2l-.2 1.836c1.314.162 3.078.45 4.05.648l1.26-1.35a94.302 94.302 0 01-2.3-4.554 41.934 41.934 0 003.024-.72z"/><path data-name="パス 11927" d="M151.585 304.926l.08 1.632c.4-.048.9-.1 1.312-.128.656-.048 3.056-.176 3.744-.224a61.762 61.762 0 01-4.9 3.968c-.816.1-1.888.24-2.752.336l.144 1.52a64.31 64.31 0 015.312-.672 3.665 3.665 0 00-1.532 2.768c0 2.512 2.224 3.748 6.18 3.568l.32-1.648a12.744 12.744 0 01-2.32-.032c-1.44-.192-2.592-.7-2.592-2.144a3.2 3.2 0 012.88-2.8 23.445 23.445 0 014.048-.048l-.016-1.488c-2.112 0-4.864.192-7.152.432 1.2-.944 3.168-2.592 4.32-3.536a9.765 9.765 0 011.024-.7l-1.012-1.172a3.546 3.546 0 01-.96.176c-.944.112-4.08.256-4.752.256a12.23 12.23 0 01-1.376-.064zm27.168 9.184a3.361 3.361 0 01-2.24 1.232c-.5 0-.72-.352-.72-.848 0-1.616.56-4.176.56-5.776a2.09 2.09 0 00-2.352-2.224c-1.552 0-3.488 1.392-4.72 2.512l.048-.656c.256-.4.544-.848.752-1.136l-.56-.672c.112-1.024.24-1.872.32-2.272l-1.872-.064a7.054 7.054 0 01.08 1.28c0 .176-.032.688-.08 1.376-.752.112-1.584.208-2.08.24-.448.016-.784.032-1.184.016l.16 1.632c.96-.128 2.272-.3 3.008-.4-.032.448-.064.912-.1 1.36-.848 1.28-2.576 3.568-3.456 4.672l.996 1.392c.672-.912 1.6-2.288 2.336-3.376-.032 1.76-.048 2.672-.064 4.144 0 .256-.032.768-.048 1.04h1.728c-.032-.32-.08-.784-.1-1.072-.08-1.44-.064-2.576-.064-3.952 0-.5.016-1.04.048-1.6 1.38-1.484 3.204-2.976 4.436-2.976a1.072 1.072 0 011.188 1.232c0 1.5-.592 3.984-.592 5.728-.008 1.408.764 2.176 1.868 2.176a4.115 4.115 0 002.944-1.264zm16.352-8.624a22.868 22.868 0 00-1.332-2.192l-1.04.432a14.6 14.6 0 011.312 2.208zm-10.48-1.12a18.835 18.835 0 01-.384 3.392c-.88.08-1.728.144-2.24.16-.544.016-.992.032-1.536 0l.16 1.728c.448-.08 1.148-.172 1.568-.224.368-.048 1.008-.112 1.728-.192a24.434 24.434 0 01-3.28 7.664l1.648.656a32.312 32.312 0 003.264-8.496 20.69 20.69 0 011.44-.08c1.008 0 1.616.224 1.616 1.584a12.721 12.721 0 01-.7 4.624 1.253 1.253 0 01-1.3.752 8.6 8.6 0 01-1.952-.336l.272 1.664a8.829 8.829 0 001.888.24 2.389 2.389 0 002.448-1.376 15.589 15.589 0 00.9-5.744c-.004-2.208-1.172-2.848-2.692-2.848-.368 0-.944.032-1.584.08.144-.72.288-1.488.368-1.968.064-.352.16-.752.24-1.088zm8.624 1.808a23.438 23.438 0 00-1.3-2.208l-1.04.432a17.147 17.147 0 011.28 2.208c-.1-.128-.176-.24-.256-.352l-1.488.656a18.426 18.426 0 012.772 5.824l1.584-.752a29.9 29.9 0 00-2.608-5.36zm3.744 4.72a1.147 1.147 0 001.152 1.152 1.147 1.147 0 001.152-1.152 1.147 1.147 0 00-1.152-1.152 1.147 1.147 0 00-1.152 1.152zm5.328 0a1.147 1.147 0 001.152 1.152 1.147 1.147 0 001.152-1.152 1.147 1.147 0 00-1.152-1.152 1.147 1.147 0 00-1.152 1.152zm5.328 0a1.147 1.147 0 001.152 1.152 1.147 1.147 0 001.152-1.152 1.147 1.147 0 00-1.152-1.152 1.147 1.147 0 00-1.152 1.152z" fill="#02835b"/></g></g><g data-name="グループ 3133"><g data-name="グループ 3131"><path data-name="長方形 2449" fill="#333" d="M81.622 395.072h183.285v43.253H81.622z"/><g data-name="長方形 2450" fill="#fde94c" stroke="#333" stroke-width="3"><path d="M80 393.45h183.285v43.253H80z" stroke="none"/><path fill="none" d="M81.5 394.95h180.285v40.253H81.5z"/></g><g data-name="グループ 2432"><g data-name="グループ 2422"><g data-name="グループ 2420"><path data-name="パス 7271" d="M111.174 419.483a2.274 2.274 0 00-1.322.217l-.017.009a3.98 3.98 0 01-1.113.385 6.657 6.657 0 01-1.214.113 6.226 6.226 0 01-2.036-.323 4.219 4.219 0 01-1.574-.959 4.511 4.511 0 01-1.051-1.63 6.594 6.594 0 01-.388-2.38 6.249 6.249 0 01.345-2.126 4.579 4.579 0 01.988-1.621 4.416 4.416 0 011.571-1.049 5.768 5.768 0 012.144-.374 5.6 5.6 0 011.229.132 5.762 5.762 0 011.114.374 2.438 2.438 0 001.3.245 1.654 1.654 0 001.193-.7 2.054 2.054 0 00.46-1.66 1.84 1.84 0 00-1.034-1.4 9.1 9.1 0 00-2.042-.749 9.6 9.6 0 00-2.218-.258 9.9 9.9 0 00-3.705.684 8.991 8.991 0 00-2.963 1.916 8.589 8.589 0 00-1.947 2.92 9.644 9.644 0 00-.685 3.659 10.152 10.152 0 00.749 4.021 8.218 8.218 0 002.072 2.928 8.989 8.989 0 002.977 1.76 10.4 10.4 0 003.5.591 9.305 9.305 0 001.473-.116 10.459 10.459 0 001.424-.333 9.06 9.06 0 001.376-.552 1.832 1.832 0 001.04-1.317 2.016 2.016 0 00-.456-1.7 1.809 1.809 0 00-1.19-.707z"/><path data-name="パス 7272" d="M130.953 405.862a2.067 2.067 0 00-1.439.57 1.936 1.936 0 00-.638 1.459v5.048h-6.666v-5.048a1.931 1.931 0 00-.62-1.454 2 2 0 00-1.408-.574 2.074 2.074 0 00-1.5.58 1.948 1.948 0 00-.6 1.449v14.057a1.991 1.991 0 00.567 1.438 1.988 1.988 0 001.485.591 2.068 2.068 0 001.44-.57 1.936 1.936 0 00.638-1.459v-5.122h6.668v5.122a1.928 1.928 0 00.62 1.454 2 2 0 001.408.575 2.062 2.062 0 001.517-.585 1.97 1.97 0 00.585-1.443v-14.057a1.993 1.993 0 00-.568-1.438 1.988 1.988 0 00-1.489-.593z"/><path data-name="パス 7273" d="M151.673 408.361a8.51 8.51 0 00-2.805-2.013 8.608 8.608 0 00-3.543-.729 8.522 8.522 0 00-3.532.729 8.539 8.539 0 00-2.791 2.013 9.244 9.244 0 00-1.822 2.958 9.985 9.985 0 00-.644 3.6 9.982 9.982 0 00.644 3.6 9.237 9.237 0 001.822 2.958 8.537 8.537 0 002.791 2.013 8.522 8.522 0 003.532.729 8.6 8.6 0 003.543-.729 8.507 8.507 0 002.805-2.013 9.256 9.256 0 001.822-2.958 9.989 9.989 0 00.644-3.6 9.993 9.993 0 00-.644-3.6 9.255 9.255 0 00-1.822-2.958zm-6.348 11.85a4.026 4.026 0 01-2.344-.684 4.761 4.761 0 01-1.6-1.891 6.154 6.154 0 01-.59-2.717 6.136 6.136 0 01.589-2.727 4.782 4.782 0 011.6-1.881 4.028 4.028 0 012.344-.684 4.029 4.029 0 012.344.684 4.868 4.868 0 011.618 1.895 6.057 6.057 0 01.6 2.713 6.053 6.053 0 01-.6 2.713 4.86 4.86 0 01-1.618 1.9 4.028 4.028 0 01-2.343.679z"/><path data-name="パス 7274" d="M160.743 405.862a2.075 2.075 0 00-1.5.58 1.949 1.949 0 00-.6 1.449v14.057a1.992 1.992 0 00.568 1.438 1.988 1.988 0 001.485.591 2.068 2.068 0 001.44-.57 1.935 1.935 0 00.638-1.459v-14.057a1.931 1.931 0 00-.621-1.454 2 2 0 00-1.41-.575z"/><path data-name="パス 7275" d="M174.487 413.206h-4.232a2.017 2.017 0 00-1.432.55 1.888 1.888 0 00-.6 1.43 1.928 1.928 0 00.59 1.437 1.992 1.992 0 001.438.568h4.232a2.019 2.019 0 001.432-.55 1.886 1.886 0 00.6-1.406 1.969 1.969 0 00-.585-1.444 1.97 1.97 0 00-1.443-.585z"/><path data-name="パス 7276" d="M192.893 414.624a6.569 6.569 0 00-2-1.025 20.113 20.113 0 00-2.632-.649 13.71 13.71 0 01-1.847-.479 2.37 2.37 0 01-1-.6 1.2 1.2 0 01-.286-.84 1.138 1.138 0 01.248-.732 1.9 1.9 0 01.845-.557 4.572 4.572 0 011.573-.233 4.5 4.5 0 011.213.186 8.877 8.877 0 011.306.481 3.9 3.9 0 01.916.56l.032.026a1.6 1.6 0 00.984.328 1.852 1.852 0 001.369-.609 1.922 1.922 0 00.562-1.347 2.144 2.144 0 00-.9-1.709 7.4 7.4 0 00-2.367-1.3 9.356 9.356 0 00-3.111-.505 8.392 8.392 0 00-3.276.627 5.657 5.657 0 00-2.43 1.884 5.014 5.014 0 00-.919 3.021 5.534 5.534 0 00.381 2.09 4.6 4.6 0 001.144 1.654 5.924 5.924 0 001.833 1.127 10.8 10.8 0 002.438.63 9.844 9.844 0 012.163.515 2.819 2.819 0 011.123.711 1.3 1.3 0 01.307.885.964.964 0 01-.307.7 2.716 2.716 0 01-1.015.624 4.2 4.2 0 01-1.465.246 5.235 5.235 0 01-2.036-.345 7.226 7.226 0 01-1.709-1.067 1.827 1.827 0 00-1.168-.411 1.886 1.886 0 00-1.406.6 1.929 1.929 0 00-.549 1.359 2.05 2.05 0 00.227.924 2.45 2.45 0 00.618.778 7.9 7.9 0 002.8 1.6 10.852 10.852 0 003.226.45 8.327 8.327 0 003.291-.652 6.168 6.168 0 002.517-1.921 4.9 4.9 0 00.988-3.055 5.963 5.963 0 00-.408-2.316 4.1 4.1 0 00-1.273-1.654z"/><path data-name="パス 7277" d="M210.311 405.862h-10.8a2.073 2.073 0 00-1.419.514 1.835 1.835 0 00-.61 1.417 1.872 1.872 0 00.6 1.424 2.044 2.044 0 001.426.532h3.273v12.2a1.948 1.948 0 00.6 1.449 2.072 2.072 0 001.5.58 2.147 2.147 0 001.529-.575 1.928 1.928 0 00.621-1.454v-12.2h3.273a2.073 2.073 0 001.419-.514 1.834 1.834 0 00.609-1.418 1.873 1.873 0 00-.6-1.424 2.046 2.046 0 00-1.421-.531z"/><path data-name="パス 7278" d="M224.047 407.082a1.975 1.975 0 00-.749-.968 1.964 1.964 0 00-1.092-.349 1.813 1.813 0 00-1.194.311 2.123 2.123 0 00-.8 1l-6.055 14.541-.019.054a2.157 2.157 0 00-.1.618 1.861 1.861 0 00.449 1.257 1.738 1.738 0 001.385.553 1.818 1.818 0 001.086-.359 2.04 2.04 0 00.71-.957l1.115-2.624h6.532l1.12 2.609a2.276 2.276 0 00.72.952 1.813 1.813 0 001.12.379 1.893 1.893 0 001.3-.532 1.9 1.9 0 00.6-1.448 2.18 2.18 0 00-.158-.779zm-3.6 9.189l1.6-3.759 1.613 3.759z"/><path data-name="パス 7279" d="M245.279 406.364a1.968 1.968 0 00-1.383-.574 2 2 0 00-1.666.967l-3.572 5.225-3.835-5.294a2 2 0 00-1.628-.9 2.186 2.186 0 00-1.389.535 1.864 1.864 0 00-.713 1.494 2.241 2.241 0 00.125.706 2.629 2.629 0 00.422.764l4.949 6.576v6.083a1.969 1.969 0 00.585 1.444 1.941 1.941 0 001.419.585 1.885 1.885 0 001.37-.585 1.969 1.969 0 00.585-1.444v-5.757l4.991-7.146a2.025 2.025 0 00.28-.614 2.3 2.3 0 00.079-.588 1.958 1.958 0 00-.619-1.477z"/></g></g></g></g></g><path data-name="パス 11928" d="M147.005 459.115a26.03 26.03 0 00-3.792-2.128l-.8 1.232a20.347 20.347 0 013.7 2.208zm-5.86-2.432a16.723 16.723 0 01-2.3.544c.24-.9.448-1.776.576-2.32l-1.744-.16a12.633 12.633 0 01-.464 2.688c-.56.048-1.1.064-1.632.064-.64 0-1.392-.032-2.016-.1l.112 1.472c.64.048 1.3.064 1.9.064.384 0 .752-.016 1.136-.032a22.964 22.964 0 01-3.308 5.78l1.536.784a27.814 27.814 0 003.44-6.736 23.642 23.642 0 002.816-.56zm.64 8.848a1.376 1.376 0 01-1.58 1.488c-1.088 0-1.632-.464-1.632-1.136 0-.64.688-1.1 1.744-1.1a5.337 5.337 0 011.456.192c.016.22.016.396.016.556zm-.24-5.712c.032 1.04.112 2.528.176 3.776a7.2 7.2 0 00-1.328-.112c-1.968 0-3.312 1.056-3.312 2.544 0 1.648 1.488 2.432 3.328 2.432 2.08 0 2.9-1.088 2.9-2.432v-.432a12.649 12.649 0 012.368 1.76l.848-1.36a10.521 10.521 0 00-3.28-2c-.048-.9-.1-1.808-.112-2.32a18.029 18.029 0 01.012-1.856zm10.848 5.3c-.64 0-1.456-.832-1.456-2.656a5.311 5.311 0 014.512-4.9 21.953 21.953 0 01-.86 4.08c-.736 2.448-1.504 3.472-2.192 3.472zm4.26 3.052c3.872-.544 6-2.848 6-6.16a5.872 5.872 0 00-6.224-5.984 6.886 6.886 0 00-7.084 6.576c0 2.64 1.44 4.416 3.008 4.416 1.584 0 2.9-1.808 3.856-5.04a36.263 36.263 0 00.944-4.448 4.19 4.19 0 013.804 4.412 4.551 4.551 0 01-3.84 4.5 8.972 8.972 0 01-1.408.224zm19.152-8.848l-.96.42a15.13 15.13 0 011.28 2.24l.992-.448a22.337 22.337 0 00-1.312-2.212zm1.776-.688l-.96.432a15.016 15.016 0 011.344 2.208l.976-.48a25.036 25.036 0 00-1.36-2.16zm-12.272-1.692l.16 1.744c1.776-.388 5.664-.772 7.04-.916a6.276 6.276 0 00-2.672 5.136c0 3.488 3.248 5.152 6.352 5.312l.576-1.7c-2.608-.128-5.3-1.072-5.3-3.968a5.238 5.238 0 013.492-4.748 15.187 15.187 0 013.088-.224l-.016-1.616a84.873 84.873 0 00-4.352.272 502.6 502.6 0 00-6.9.624c-.316.032-.86.064-1.468.084zm20.976 5.4a1.422 1.422 0 011.424-1.488 1.294 1.294 0 011.232.736c.208 1.5-.4 2.16-1.216 2.16a1.378 1.378 0 01-1.44-1.408zm8.592-5.488h-4.732c0-.32 0-.592.016-.784 0-.224.048-.944.08-1.152h-1.828c.048.224.1.752.128 1.152.016.176.016.464.032.8-2.256.032-5.2.128-6.992.144l.048 1.536a144.32 144.32 0 016.96-.256l.016 1.348a3.084 3.084 0 00-.88-.112 2.869 2.869 0 00-2.96 2.848 2.665 2.665 0 002.672 2.764 2.665 2.665 0 001.1-.224c-.768 1.184-2.224 1.872-4.08 2.288l1.364 1.348c3.76-1.088 4.88-3.568 4.88-5.68a3.884 3.884 0 00-.556-2.112c0-.7 0-1.632-.016-2.48 2.3 0 3.792.032 4.736.08zm8.512 6.816h1.312l.48-5.888.048-2.112h-2.352l.048 2.112zm.656 4.084a1.388 1.388 0 001.456-1.392 1.4 1.4 0 00-1.456-1.408 1.4 1.4 0 00-1.456 1.408 1.388 1.388 0 001.456 1.392z" fill="#333"/></g></svg>