<svg xmlns="http://www.w3.org/2000/svg" width="160" height="160"><g data-name="グループ 3182" transform="translate(-603 -1545)"><circle data-name="楕円形 295" cx="80" cy="80" r="80" transform="translate(603 1545)" fill="#00d392"/><g data-name="グループ 2269" fill="#fff"><path data-name="パス 6928" d="M655.97 1597.83a2.053 2.053 0 10-4.1-.033v12.715a1.127 1.127 0 01-1.128 1.128h-.3a1.127 1.127 0 01-1.128-1.128v-12.761a2.119 2.119 0 00-4.238 0v12.761a1.127 1.127 0 01-1.128 1.128h-.3a1.126 1.126 0 01-1.128-1.128v-12.715a2.053 2.053 0 10-4.1.033v12.272c-.022 5.174 1.214 6.519 3.257 8.131 1.645 1.3 3.051 2.042 3.051 5.263v32.815h4.944v-32.815c0-3.221 1.4-3.965 3.048-5.264 2.042-1.612 3.278-2.956 3.259-8.131z"/><path data-name="パス 6929" d="M720.759 1598.725c-.9 2.994-3.589 12.834-4.263 18.893s2.467 8.074 4.487 11.441l1.115 2.8v24.4h4.944v-57.534c0-3.59-4.936-4.487-6.283 0z"/><path data-name="パス 6930" d="M684.852 1596.756a29.23 29.23 0 1029.229 29.229 29.233 29.233 0 00-29.229-29.229zm17.005 46.234a24.047 24.047 0 117.043-17.005 23.964 23.964 0 01-7.043 17.005z"/><path data-name="パス 6931" d="M668.572 1625.984a16.188 16.188 0 002.213 8.169l2.556-1.488a13.3 13.3 0 0118.19-18.19l1.488-2.559a16.261 16.261 0 00-24.446 14.068z"/></g></g></svg>