<svg xmlns="http://www.w3.org/2000/svg" width="583" height="138.28"><g data-name="グループ 3180"><g data-name="パス 6998" fill="#fde94c" stroke-linejoin="round"><path d="M293.012 132.97l-14.667-21.515-.893-1.31H3L3.002 3H580v107.144H308.72l-.894 1.3-14.814 21.526z"/><path d="M293.024 127.662l12.33-17.919a6 6 0 014.943-2.599H577V6H6.002l-.001 101.144h269.865a6 6 0 014.958 2.62l12.2 17.898M293 138.279l-17.134-25.135H0L.003 0H583v113.144H310.297L293 138.28z" fill="#3b4043"/></g><g data-name="グループ 2429"><text data-name="のおすすめポイント！" transform="translate(384 67.01)" fill="#333" font-size="28" font-family="NotoSansCJKjp-Bold, Noto Sans CJK JP" font-weight="700" letter-spacing=".08em"><tspan x="-150.08" y="0">のおすすめポイント！</tspan></text><g data-name="グループ 2379"><g data-name="グループ 2422"><g data-name="グループ 2420" fill="#333"><path data-name="パス 7271" d="M65.26 62.007a2.727 2.727 0 00-1.587.261l-.021.01a4.773 4.773 0 01-1.335.462 7.978 7.978 0 01-1.456.135 7.473 7.473 0 01-2.443-.387 5.065 5.065 0 01-1.889-1.151 5.415 5.415 0 01-1.261-1.956 7.912 7.912 0 01-.466-2.856 7.5 7.5 0 01.414-2.551 5.5 5.5 0 011.186-1.945 5.292 5.292 0 011.885-1.259 6.918 6.918 0 012.573-.449 6.7 6.7 0 011.475.159 6.9 6.9 0 011.337.449 2.925 2.925 0 001.556.294 1.984 1.984 0 001.432-.834 2.465 2.465 0 00.552-1.992 2.208 2.208 0 00-1.24-1.677 10.907 10.907 0 00-2.45-.9 11.518 11.518 0 00-2.661-.31 11.886 11.886 0 00-4.447.821 10.791 10.791 0 00-3.556 2.3 10.309 10.309 0 00-2.337 3.5 11.575 11.575 0 00-.822 4.391 12.182 12.182 0 00.9 4.826 9.856 9.856 0 002.486 3.513 10.776 10.776 0 003.572 2.113 12.477 12.477 0 004.2.709 11.158 11.158 0 001.767-.14 12.527 12.527 0 001.709-.4 10.9 10.9 0 001.652-.663 2.2 2.2 0 001.247-1.581 2.42 2.42 0 00-.547-2.038 2.171 2.171 0 00-1.425-.854z"/><path data-name="パス 7272" d="M88.995 45.656a2.48 2.48 0 00-1.727.684 2.323 2.323 0 00-.766 1.751v6.058h-8v-6.058a2.317 2.317 0 00-.745-1.745 2.4 2.4 0 00-1.69-.689 2.488 2.488 0 00-1.8.7 2.339 2.339 0 00-.723 1.739v16.869a2.39 2.39 0 00.681 1.725 2.386 2.386 0 001.783.709 2.482 2.482 0 001.728-.684 2.323 2.323 0 00.765-1.751v-6.146h8v6.146a2.312 2.312 0 00.745 1.745 2.394 2.394 0 001.69.69 2.474 2.474 0 001.82-.7 2.364 2.364 0 00.7-1.732V48.098a2.393 2.393 0 00-.682-1.726 2.386 2.386 0 00-1.779-.716z"/><path data-name="パス 7273" d="M113.861 48.654a10.216 10.216 0 00-3.366-2.416 10.33 10.33 0 00-4.251-.875 10.228 10.228 0 00-4.239.875 10.25 10.25 0 00-3.349 2.415 11.1 11.1 0 00-2.187 3.55 11.987 11.987 0 00-.773 4.321 11.984 11.984 0 00.773 4.321 11.1 11.1 0 002.187 3.55 10.248 10.248 0 003.35 2.415 10.226 10.226 0 004.239.875 10.328 10.328 0 004.251-.874 10.213 10.213 0 003.366-2.416 11.106 11.106 0 002.186-3.55 11.985 11.985 0 00.773-4.321 11.989 11.989 0 00-.773-4.321 11.11 11.11 0 00-2.187-3.549zm-7.618 14.221a4.832 4.832 0 01-2.813-.821 5.715 5.715 0 01-1.925-2.27 7.386 7.386 0 01-.708-3.26 7.363 7.363 0 01.707-3.273 5.74 5.74 0 011.926-2.257 4.834 4.834 0 012.813-.82 4.835 4.835 0 012.813.82 5.84 5.84 0 011.942 2.274 7.271 7.271 0 01.72 3.256 7.266 7.266 0 01-.72 3.256 5.832 5.832 0 01-1.942 2.274 4.834 4.834 0 01-2.813.821z"/><path data-name="パス 7274" d="M124.745 45.656a2.489 2.489 0 00-1.8.7 2.339 2.339 0 00-.724 1.739v16.869a2.39 2.39 0 00.681 1.725 2.386 2.386 0 001.783.709 2.48 2.48 0 001.727-.684 2.322 2.322 0 00.766-1.751V48.094a2.318 2.318 0 00-.745-1.745 2.4 2.4 0 00-1.688-.693z"/><path data-name="パス 7275" d="M141.239 54.469h-5.078a2.42 2.42 0 00-1.718.66 2.266 2.266 0 00-.716 1.716 2.313 2.313 0 00.708 1.724 2.389 2.389 0 001.726.682h5.078a2.423 2.423 0 001.719-.66 2.263 2.263 0 00.716-1.687 2.364 2.364 0 00-.7-1.732 2.365 2.365 0 00-1.735-.703z"/><path data-name="パス 7276" d="M163.327 56.17a7.884 7.884 0 00-2.4-1.23 24.1 24.1 0 00-3.158-.78 16.435 16.435 0 01-2.216-.574 2.846 2.846 0 01-1.2-.724 1.439 1.439 0 01-.344-1.008 1.366 1.366 0 01.3-.879 2.278 2.278 0 011.014-.668 5.487 5.487 0 011.887-.28 5.406 5.406 0 011.456.224 10.677 10.677 0 011.567.577 4.68 4.68 0 011.1.672l.038.031a1.927 1.927 0 001.181.394 2.223 2.223 0 001.643-.73 2.305 2.305 0 00.674-1.616 2.573 2.573 0 00-1.084-2.052 8.881 8.881 0 00-2.841-1.557 11.23 11.23 0 00-3.734-.606 10.074 10.074 0 00-3.931.752 6.791 6.791 0 00-2.916 2.261 6.016 6.016 0 00-1.1 3.625 6.64 6.64 0 00.457 2.508 5.512 5.512 0 001.373 1.985 7.115 7.115 0 002.2 1.353 12.963 12.963 0 002.926.756 11.815 11.815 0 012.6.618 3.383 3.383 0 011.348.853 1.562 1.562 0 01.368 1.063 1.158 1.158 0 01-.369.842 3.262 3.262 0 01-1.219.748 5.037 5.037 0 01-1.757.295 6.278 6.278 0 01-2.443-.415 8.671 8.671 0 01-2.052-1.281 2.191 2.191 0 00-1.4-.494 2.263 2.263 0 00-1.687.716 2.314 2.314 0 00-.659 1.631 2.462 2.462 0 00.273 1.109 2.943 2.943 0 00.741.933 9.489 9.489 0 003.356 1.924 13.023 13.023 0 003.872.541 9.993 9.993 0 003.949-.782 7.4 7.4 0 003.02-2.3 5.882 5.882 0 001.186-3.667 7.158 7.158 0 00-.489-2.779 4.922 4.922 0 00-1.53-1.989z"/><path data-name="パス 7277" d="M184.228 45.656h-12.954a2.488 2.488 0 00-1.7.617 2.2 2.2 0 00-.731 1.7 2.245 2.245 0 00.723 1.708 2.452 2.452 0 001.711.639h3.928v14.639a2.337 2.337 0 00.723 1.739 2.486 2.486 0 001.8.7 2.577 2.577 0 001.835-.689 2.314 2.314 0 00.745-1.745V50.317h3.928a2.487 2.487 0 001.7-.617 2.2 2.2 0 00.731-1.7 2.248 2.248 0 00-.724-1.709 2.455 2.455 0 00-1.715-.635z"/><path data-name="パス 7278" d="M200.713 47.12a2.371 2.371 0 00-.9-1.162 2.357 2.357 0 00-1.31-.419 2.177 2.177 0 00-1.433.373 2.549 2.549 0 00-.956 1.2l-7.268 17.453-.023.064a2.6 2.6 0 00-.115.742 2.234 2.234 0 00.539 1.508 2.087 2.087 0 001.662.664 2.181 2.181 0 001.3-.431 2.441 2.441 0 00.852-1.148l1.339-3.148h7.839l1.343 3.131a2.733 2.733 0 00.865 1.143 2.175 2.175 0 001.344.455 2.274 2.274 0 001.565-.638 2.283 2.283 0 00.723-1.738 2.621 2.621 0 00-.189-.935zm-4.325 11.027l1.918-4.511 1.936 4.511z"/><path data-name="パス 7279" d="M226.193 46.257a2.362 2.362 0 00-1.66-.689 2.4 2.4 0 00-2 1.161L218.247 53l-4.6-6.353a2.4 2.4 0 00-1.954-1.079 2.626 2.626 0 00-1.667.642 2.238 2.238 0 00-.855 1.793 2.7 2.7 0 00.15.848 3.154 3.154 0 00.507.917l5.939 7.891v7.3a2.362 2.362 0 00.7 1.732 2.329 2.329 0 001.7.7 2.263 2.263 0 001.644-.7 2.364 2.364 0 00.7-1.732V58.05l5.99-8.576a2.447 2.447 0 00.336-.737 2.776 2.776 0 00.095-.706 2.349 2.349 0 00-.739-1.774z"/></g></g></g></g></g></svg>