<svg xmlns="http://www.w3.org/2000/svg" width="160" height="160"><g data-name="グループ 3183" transform="translate(-895 -1546)"><circle data-name="楕円形 294" cx="80" cy="80" r="80" transform="translate(895 1546)" fill="#00d392"/><g data-name="グループ 2263" fill="#fff"><path data-name="パス 6894" d="M967.757 1599.745v.034l1.268-1.1.812-.68v8.18h1.868v-10.21h-1.868l-2.08 1.8v1.2l-.017.794z"/><path data-name="パス 6895" d="M981.574 1604.513h-2.394l-1.54-.016 2.84-3.3c.165-.2.329-.387.458-.563a3.611 3.611 0 00.352-.54 3.683 3.683 0 00.211-.565 2.909 2.909 0 00.071-.669 3.273 3.273 0 00-.235-1.246 2.63 2.63 0 00-.634-.928 2.776 2.776 0 00-.988-.588 3.553 3.553 0 00-1.245-.212 3.834 3.834 0 00-1.234.2 2.98 2.98 0 00-.987.588 2.667 2.667 0 00-.658.94 3.029 3.029 0 00-.229 1.178c0 .019-.005.035-.007.055v.026h1.869a1.6 1.6 0 01.106-.623 1.01 1.01 0 01.282-.4 1.118 1.118 0 01.4-.224 2.049 2.049 0 01.458-.059 1.166 1.166 0 01.916.353 1.327 1.327 0 01.318.928 1.469 1.469 0 01-.13.622 2.216 2.216 0 01-.4.611l-3.819 4.429v1.681h6.216v-1.681z"/><path data-name="パス 6896" d="M998.796 1621.576a2.65 2.65 0 00-.669.916 3.053 3.053 0 00-.259 1.121c0 .025-.009.05-.012.076v.025h1.869a1.256 1.256 0 01.375-.9 1.226 1.226 0 01.881-.329 1.321 1.321 0 01.882.329 1.256 1.256 0 01.376.975 1.418 1.418 0 01-.305.917 1.2 1.2 0 01-.987.365h-.271v1.625h.271a1.3 1.3 0 011.433 1.41 1.393 1.393 0 01-.387 1.057 1.419 1.419 0 01-.987.365 1.91 1.91 0 01-.529-.082 1 1 0 01-.434-.247 1.21 1.21 0 01-.306-.411 1.747 1.747 0 01-.129-.6h-1.868a3.221 3.221 0 00.293 1.375 2.588 2.588 0 00.729.928 2.944 2.944 0 001.022.541 4.22 4.22 0 001.222.176 4.312 4.312 0 001.246-.188 2.961 2.961 0 001.033-.576 2.647 2.647 0 00.706-.951 3.31 3.31 0 00.258-1.328 2.577 2.577 0 00-.387-1.492 2.657 2.657 0 00-.774-.72c-.053-.039-.1-.084-.158-.121a2.205 2.205 0 001.178-2.1 2.937 2.937 0 00-.235-1.174 2.577 2.577 0 00-.646-.928 3 3 0 00-.987-.6 3.372 3.372 0 00-1.258-.223 3.724 3.724 0 00-1.21.2 2.955 2.955 0 00-.976.569z"/><path data-name="パス 6897" d="M977.027 1650.803a2.741 2.741 0 00-.87-.6 2.414 2.414 0 00-.987-.211 2.14 2.14 0 00-.387.035c-.083.015-.16.039-.24.06-.043.005-.083.014-.129.018l1.446-2.868.673-1.308h-.013l.013-.025h-2.043l-2.15 4.429a12.224 12.224 0 00-.6 1.363 3.83 3.83 0 00-.023 2.7 2.749 2.749 0 00.681 1 3.013 3.013 0 001.01.611 3.959 3.959 0 001.258.2 3.668 3.668 0 001.256-.211 2.823 2.823 0 001.681-1.621 3.473 3.473 0 00.246-1.352 3.351 3.351 0 00-.223-1.268 2.973 2.973 0 00-.599-.952zm-2.361 3.724a1.254 1.254 0 01-.952-.387 1.533 1.533 0 01-.377-1.105 1.551 1.551 0 01.377-1.1 1.346 1.346 0 011.915.024 1.554 1.554 0 01.352 1.081 1.531 1.531 0 01-.364 1.1 1.294 1.294 0 01-.952.387z"/><path data-name="パス 6898" d="M948.855 1631.152l2.162-4.418a14.877 14.877 0 00.6-1.364 3.893 3.893 0 00.247-1.362 3.475 3.475 0 00-.247-1.351 2.577 2.577 0 00-.67-.987 2.682 2.682 0 00-1.011-.611 3.84 3.84 0 00-2.514 0 2.979 2.979 0 00-1.01.623 3.032 3.032 0 00-.67 1.011 3.473 3.473 0 00-.247 1.339 3.374 3.374 0 00.223 1.281 2.977 2.977 0 00.611.94 2.553 2.553 0 00.857.6 2.507 2.507 0 001.01.211 2.135 2.135 0 00.376-.035 1.26 1.26 0 00.239-.06l.129-.019-1.448 2.873-.67 1.3h.012l-.012.025h2.032zm1.14-7.132a1.532 1.532 0 01-.364 1.1 1.278 1.278 0 01-.952.388 1.233 1.233 0 01-.963-.4 1.6 1.6 0 01-.353-1.093 1.526 1.526 0 01.365-1.1 1.363 1.363 0 011.9 0 1.531 1.531 0 01.367 1.105z"/><path data-name="パス 6899" d="M987.752 1646.832a.92.92 0 00-1.591.922l2.127 3.683a.931.931 0 00.789.432.886.886 0 00.458-.119.919.919 0 00.333-1.252z"/><path data-name="パス 6900" d="M961.568 1605.15a.921.921 0 00.8.476 1 1 0 00.48-.136.939.939 0 00.321-1.245l-2.117-3.665a.921.921 0 00-1.683.22.907.907 0 00.092.7z"/><path data-name="パス 6901" d="M1000.077 1639.616l-3.657-2.113a.919.919 0 00-.464-.127.917.917 0 00-.879 1.178.879.879 0 00.42.531l3.63 2.095a.879.879 0 00.5.146.9.9 0 00.791-.451.926.926 0 00.09-.718.892.892 0 00-.431-.541z"/><path data-name="パス 6902" d="M949.244 1612.383l3.664 2.11a.9.9 0 00.461.13.87.87 0 00.781-.446.908.908 0 00-.316-1.263l-3.678-2.129a.893.893 0 00-.442-.115.912.912 0 00-.8.452.922.922 0 00.33 1.261z"/><path data-name="パス 6903" d="M995.077 1613.447a.93.93 0 00.084.718.917.917 0 00.8.462.894.894 0 00.454-.126l3.665-2.117a.923.923 0 00.323-1.271.941.941 0 00-.792-.439.955.955 0 00-.454.118l-3.642 2.114a.886.886 0 00-.438.541z"/><path data-name="パス 6904" d="M953.369 1637.376a.87.87 0 00-.454.125l-3.666 2.111a.9.9 0 00-.427.553.918.918 0 00.086.695.906.906 0 00.8.465.739.739 0 00.453-.126l3.667-2.113a.905.905 0 00.429-.565.878.878 0 00-.086-.665.9.9 0 00-.802-.48z"/><path data-name="パス 6905" d="M986.527 1605.514a.954.954 0 00.435.111.938.938 0 00.792-.463l2.112-3.659a.906.906 0 00.095-.7.918.918 0 00-.889-.674.914.914 0 00-.8.458l-2.125 3.681a.932.932 0 00.38 1.246z"/><path data-name="パス 6906" d="M962.835 1646.501a.914.914 0 00-.463-.127.929.929 0 00-.8.462l-2.112 3.658a.9.9 0 00-.095.705.919.919 0 00.424.55.88.88 0 00.459.12.942.942 0 00.8-.454l2.125-3.682a.938.938 0 00-.338-1.232z"/><path data-name="パス 6907" d="M974.665 1585.339a40.66 40.66 0 1040.656 40.655 40.705 40.705 0 00-40.656-40.655zm32.878 40.656a32.884 32.884 0 11-32.878-32.879 32.882 32.882 0 0132.879 32.878z"/><path data-name="パス 6908" d="M976.702 1620.965l.01.005-.018.019a5.338 5.338 0 013 2.771l7.038-7.59a2.056 2.056 0 00-.126-2.886 2 2 0 00-1.381-.552 2.058 2.058 0 00-1.506.667l-5.019 5.421z"/><path data-name="パス 6909" d="M979.362 1628.948c-.058.081-.1.161-.161.23a5.584 5.584 0 01-1.14 1.153c-.057.039-.106.092-.165.129a.1.1 0 00-.022.015l12.443 11.293a1.026 1.026 0 00.724.287 1.061 1.061 0 001.07-1.115 1.09 1.09 0 00-.345-.736z"/><path data-name="パス 6910" d="M969.413 1626.256c-.008-.084-.007-.168-.008-.252a.473.473 0 010-.068h-.007v-.026l-12.473 3.823a1.568 1.568 0 00-1.035 1.944 1.546 1.546 0 001.495 1.093 1.858 1.858 0 00.449-.058l9.765-2.989 2.611-.792v-.006l.024-.007a5.247 5.247 0 01-.821-2.662z"/><path data-name="パス 6911" d="M974.802 1628.961c.04 0 .078-.01.118-.01a2.825 2.825 0 001.556-.529 2.877 2.877 0 00.7-.685 2.844 2.844 0 00.538-1.8 2.583 2.583 0 00-.127-.735 2.879 2.879 0 00-2.164-1.988 2.528 2.528 0 00-.617-.069h-.107a2.906 2.906 0 00-2.781 2.6 2.858 2.858 0 00-.01.411 2.9 2.9 0 002.9 2.8z"/></g></g></svg>