<svg xmlns="http://www.w3.org/2000/svg" width="160" height="160"><g data-name="グループ 3185" transform="translate(-458 -912)"><circle data-name="楕円形 287" cx="80" cy="80" r="80" transform="translate(458 912)" fill="#00d392"/><g data-name="グループ 2256" fill="#fff"><path data-name="パス 6886" d="M550.825 970.258v-13.237h-37.854a3.973 3.973 0 00-3.971 3.971v64.773a2.735 2.735 0 002.737 2.738h52.77a2.735 2.735 0 002.737-2.738v-52.33h-13.237a3.18 3.18 0 01-3.182-3.177zm-6.529 38.7h-23.647v-3.711h23.652v3.706zm11.299-11.341h-34.946v-3.706h34.946zm0-11.384h-34.946v-3.707h34.946z"/><path data-name="パス 6887" d="M559.498 962.512l-5.469-5.491v.022l-.022-.022v13.237h13.237z"/></g></g></svg>