<svg xmlns="http://www.w3.org/2000/svg" width="881" height="585.486"><defs><clipPath id="a"><path data-name="パス 6936" stroke="#00c387" d="M1734.255 2217.114v-104.665l-81.4-69.774-81.4 69.774v104.665z" fill="none" stroke-linecap="round" stroke-linejoin="round" stroke-width="8" opacity=".252"/></clipPath></defs><g data-name="グループ 3194"><g data-name="グループ 3189"><path data-name="パス 6999" stroke="#8dddc4" d="M878.501 447.404V123.39l-439-120.89-437 120.89v324.014z" fill="#f5fdf6" stroke-linecap="round" stroke-linejoin="round" stroke-width="5" opacity=".724"/><path data-name="パス 11921" d="M387.21 382.696l.15 3.06c.75-.09 1.68-.18 2.46-.24 1.23-.09 5.73-.33 7.02-.42a115.8 115.8 0 01-9.18 7.44c-1.53.18-3.54.45-5.16.63l.27 2.85c3.3-.57 6.99-1.02 9.96-1.26a6.871 6.871 0 00-2.88 5.19c0 4.71 4.17 7.02 11.58 6.69l.6-3.09a23.9 23.9 0 01-4.35-.06c-2.7-.36-4.86-1.32-4.86-4.02 0-2.64 2.61-4.83 5.4-5.25a43.959 43.959 0 017.59-.09l-.03-2.79c-3.96 0-9.12.36-13.41.81 2.25-1.77 5.94-4.86 8.1-6.63a18.31 18.31 0 011.92-1.32l-1.89-2.19a6.649 6.649 0 01-1.8.33c-1.77.21-7.65.48-8.91.48a22.931 22.931 0 01-2.58-.12zm50.94 17.22a6.3 6.3 0 01-4.2 2.31c-.93 0-1.35-.66-1.35-1.59 0-3.03 1.05-7.83 1.05-10.83 0-2.46-1.44-4.17-4.41-4.17-2.91 0-6.54 2.61-8.85 4.71l.09-1.23c.48-.75 1.02-1.59 1.41-2.13l-1.05-1.26c.21-1.92.45-3.51.6-4.26l-3.51-.12a13.226 13.226 0 01.15 2.4c0 .33-.06 1.29-.15 2.58-1.41.21-2.97.39-3.9.45-.84.03-1.47.06-2.22.03l.3 3.06c1.8-.24 4.26-.57 5.64-.75l-.18 2.55c-1.59 2.4-4.83 6.69-6.48 8.76l1.86 2.61c1.26-1.71 3-4.29 4.38-6.33-.06 3.3-.09 5.01-.12 7.77 0 .48-.06 1.44-.09 1.95h3.24c-.06-.6-.15-1.47-.18-2.01-.15-2.7-.12-4.83-.12-7.41 0-.93.03-1.95.09-3 2.58-2.79 6-5.58 8.31-5.58a2.011 2.011 0 012.22 2.31c0 2.82-1.11 7.47-1.11 10.74 0 2.64 1.44 4.08 3.51 4.08a7.716 7.716 0 005.52-2.37zm30.66-16.17a42.878 42.878 0 00-2.49-4.11l-1.95.81a27.374 27.374 0 012.46 4.14zm-19.65-2.1a35.315 35.315 0 01-.72 6.36c-1.65.15-3.24.27-4.2.3-1.02.03-1.86.06-2.88 0l.3 3.24c.84-.15 2.16-.33 2.94-.42.69-.09 1.89-.21 3.24-.36-1.05 4.02-3.18 10.41-6.15 14.37l3.09 1.23c2.94-4.74 5.04-11.55 6.12-15.93 1.11-.09 2.1-.15 2.7-.15 1.89 0 3.03.42 3.03 2.97 0 3.09-.42 6.81-1.32 8.67a2.349 2.349 0 01-2.43 1.41 16.12 16.12 0 01-3.66-.63l.51 3.12a16.554 16.554 0 003.54.45c2.07 0 3.6-.57 4.59-2.58 1.23-2.55 1.68-7.26 1.68-10.77 0-4.14-2.19-5.34-5.04-5.34-.69 0-1.77.06-2.97.15.27-1.35.54-2.79.69-3.69.12-.66.3-1.41.45-2.04zm16.17 3.39a43.947 43.947 0 00-2.43-4.14l-1.95.81a32.15 32.15 0 012.4 4.14c-.18-.24-.33-.45-.48-.66l-2.79 1.23c2.1 2.52 4.35 7.74 5.19 10.92l2.97-1.41a56.06 56.06 0 00-4.89-10.05zm7.02 8.85a2.151 2.151 0 002.16 2.16 2.151 2.151 0 002.16-2.16 2.151 2.151 0 00-2.16-2.16 2.151 2.151 0 00-2.16 2.16zm9.99 0a2.151 2.151 0 002.16 2.16 2.151 2.151 0 002.16-2.16 2.151 2.151 0 00-2.16-2.16 2.151 2.151 0 00-2.16 2.16zm9.99 0a2.151 2.151 0 002.16 2.16 2.151 2.151 0 002.16-2.16 2.151 2.151 0 00-2.16-2.16 2.151 2.151 0 00-2.16 2.16z" fill="#02835b"/><g data-name="グループ 2361"><path data-name="パス 11920" d="M321.076 122.907a3.148 3.148 0 012.32.928 3.148 3.148 0 01.928 2.32 2.983 2.983 0 01-.924 2.232 3.2 3.2 0 01-2.32.9h-19.72a3.1 3.1 0 01-2.378-.928 3.338 3.338 0 01-.87-2.378 3.6 3.6 0 011.044-2.552l12.644-13.514a22.428 22.428 0 003.393-4.669 9.329 9.329 0 001.247-4.321 6.282 6.282 0 00-1.856-4.524 5.809 5.809 0 00-4.292-1.914 6.129 6.129 0 00-3.393 1.131 12.555 12.555 0 00-3.1 2.987 3.2 3.2 0 01-2.668 1.392 3.4 3.4 0 01-2.349-.986 2.944 2.944 0 01-1.073-2.2 3.255 3.255 0 01.58-1.769 13.121 13.121 0 011.74-2.059 17.487 17.487 0 015.1-3.538 13.311 13.311 0 015.568-1.334 13.539 13.539 0 016.728 1.624 11.278 11.278 0 014.466 4.466 13.116 13.116 0 011.566 6.438 16.127 16.127 0 01-1.885 7.279 30.976 30.976 0 01-5.075 7.163l-7.366 7.83zm8.218-9.61l1.35 3.3c2.7-1.11 10.02-4.26 14.67-4.26 3.81 0 5.94 2.31 5.94 5.28 0 5.7-6.66 8.04-14.55 8.22l1.35 3.15c9.75-.51 16.53-4.35 16.53-11.31 0-5.19-4.05-8.16-9.15-8.16-4.38 0-10.29 2.13-12.69 2.88-1.11.33-2.37.69-3.45.9zm36.69 11.25c-1.2 0-2.73-1.56-2.73-4.98 0-3.66 3.12-8.31 8.46-9.18a41.161 41.161 0 01-1.62 7.65c-1.38 4.59-2.82 6.51-4.11 6.51zm7.98 5.73c7.26-1.02 11.25-5.34 11.25-11.55 0-6.24-4.53-11.22-11.67-11.22-7.44 0-13.29 5.73-13.29 12.33 0 4.95 2.7 8.28 5.64 8.28 2.97 0 5.43-3.39 7.23-9.45a67.993 67.993 0 001.77-8.34c4.56.57 7.14 3.96 7.14 8.28 0 4.8-3.39 7.56-7.2 8.43a16.823 16.823 0 01-2.64.42zm21.72-22.08l-3.63-.06a14.939 14.939 0 01.21 2.79 78.868 78.868 0 00.33 7.95c.806 7.83 3.57 10.71 6.57 10.71 2.19 0 4.02-1.77 5.91-6.87l-2.4-2.79c-.66 2.73-1.95 5.97-3.45 5.97-1.98 0-3.18-3.12-3.63-7.8a66.016 66.016 0 01-.21-6.69 24.12 24.12 0 01.3-3.21zm15.21.75l-2.97.99c3 3.54 4.71 9.93 5.19 15.03l3.09-1.2c-.39-4.83-2.58-11.37-5.31-14.82zm15.39-.75l-3.63-.06a14.939 14.939 0 01.21 2.79 78.868 78.868 0 00.33 7.95c.806 7.83 3.57 10.71 6.57 10.71 2.19 0 4.02-1.77 5.91-6.87l-2.4-2.79c-.66 2.73-1.95 5.97-3.45 5.97-1.98 0-3.18-3.12-3.63-7.8a66.015 66.015 0 01-.21-6.69 24.12 24.12 0 01.3-3.21zm15.21.75l-2.97.99c3 3.54 4.71 9.93 5.19 15.03l3.09-1.2c-.39-4.83-2.58-11.37-5.31-14.82zm30.48-.06a16.663 16.663 0 01-2.4 1.56c-1.53.87-4.47 2.34-7.08 3.9a68.387 68.387 0 01-3.87-8.55l-2.97 1.2c1.38 3.18 2.88 6.51 4.23 9.03-3.03 2.16-5.04 4.59-5.04 7.74 0 4.74 4.23 6.42 9.956 6.42a55.652 55.652 0 009.45-.75l.03-3.36a48.32 48.32 0 01-9.6 1.02c-4.44 0-6.63-1.35-6.63-3.66 0-2.16 1.65-4.02 4.29-5.73a92.3 92.3 0 018.7-4.71c.96-.48 1.8-.93 2.55-1.38zm15.15 2.16c2.37.21 4.92.33 7.98.33 2.76 0 6.21-.21 8.25-.36v-3.12c-2.22.24-5.4.42-8.28.42a75.194 75.194 0 01-7.95-.36zm-1.29 8.88a18.1 18.1 0 00-.6 4.2c0 3.87 3.45 6 9.81 6a44.266 44.266 0 0010.23-1.02l-.03-3.27a40.65 40.65 0 01-10.29 1.14c-4.53 0-6.6-1.47-6.6-3.54a11.445 11.445 0 01.54-3.24zm39.21-11.43h1.23v2.31h9.51a33.341 33.341 0 01-3.24 10.23 37.925 37.925 0 01-3.244-10.14l-2.7.54a42.256 42.256 0 004.26 12.33 17.092 17.092 0 01-5.816 5.22zm-7.83 16.11v-3.96h5.13v3.24zm5.13-16.11v3.48h-5.13v-3.48zm-5.13 5.97h5.13v3.66h-5.13zm19.83-6.48l-.48.09h-9.51v-2.16h-14.7v2.58h2.19v16.47c-1.05.12-1.98.27-2.82.36l.51 2.79c2.79-.45 6.48-1.05 10.11-1.65v5.13h2.7v-2.46a10.782 10.782 0 011.74 2.16 20.548 20.548 0 005.73-4.98 18.862 18.862 0 005.64 5.04 10.621 10.621 0 011.92-2.28 16.519 16.519 0 01-5.82-5.25c2.31-3.87 3.9-8.91 4.59-15.36zm11.64-2.58c-.03.78-.12 1.8-.24 2.79a77.707 77.707 0 00-.9 9.57 35.8 35.8 0 00.36 4.8l2.91-.21a13.443 13.443 0 01-.09-3.42c.24-3.9 3.54-9.24 7.14-9.24 2.85 0 4.38 3.03 4.38 7.65 0 7.35-4.86 9.75-11.37 10.77l1.8 2.7c7.56-1.38 12.75-5.19 12.75-13.47 0-6.39-3-10.38-7.05-10.38-3.57 0-6.45 3.18-7.74 5.91a51.662 51.662 0 011.29-7.35zm37.11 16.44h2.46l.9-11.04.09-3.96h-4.41l.09 3.96zm1.23 7.65a2.6 2.6 0 002.73-2.61 2.627 2.627 0 00-2.73-2.64 2.627 2.627 0 00-2.73 2.64 2.6 2.6 0 002.73 2.61z" fill="#02835b"/><path data-name="パス 6942" d="M639.995 103.394l-39.448 39.448" fill="none" stroke="#02835b" stroke-width="4"/><path data-name="パス 6943" d="M240.5 103.394l39.448 39.448" fill="none" stroke="#02835b" stroke-width="4"/></g><g data-name="グループ 2362"><g data-name="グループ 2284"><g data-name="グループ 2281" opacity=".893"><g data-name="マスクグループ 29" transform="translate(-1413.948 -1870.387)" clip-path="url(#a)"><g data-name="グループ 2271" fill="none" stroke="#8dddc4" stroke-width="3.163"><path data-name="線 357" stroke-miterlimit="10" d="M2458.174 2034.668l-163.885 189.308"/><path data-name="線 358" stroke-miterlimit="10" d="M2446.289 2034.668l-163.885 189.308"/><path data-name="線 359" stroke-miterlimit="10" d="M2434.404 2034.668l-163.885 189.308"/><path data-name="線 360" stroke-miterlimit="10" d="M2422.518 2034.668l-163.885 189.308"/><path data-name="線 361" stroke-miterlimit="10" d="M2410.633 2034.668l-163.885 189.308"/><path data-name="線 362" stroke-miterlimit="10" d="M2398.747 2034.668l-163.885 189.308"/><path data-name="線 363" stroke-miterlimit="10" d="M2386.862 2034.668l-163.885 189.308"/><path data-name="線 364" stroke-miterlimit="10" d="M2374.977 2034.668l-163.885 189.308"/><path data-name="線 365" stroke-miterlimit="10" d="M2363.091 2034.668l-163.885 189.308"/><path data-name="線 366" stroke-miterlimit="10" d="M2351.206 2034.668l-163.885 189.308"/><path data-name="線 367" stroke-miterlimit="10" d="M2339.32 2034.668l-163.885 189.308"/><path data-name="線 368" stroke-miterlimit="10" d="M2327.435 2034.668l-163.885 189.308"/><path data-name="線 369" stroke-miterlimit="10" d="M2315.55 2034.668l-163.885 189.308"/><path data-name="線 370" stroke-miterlimit="10" d="M2303.664 2034.668l-163.885 189.308"/><path data-name="線 371" stroke-miterlimit="10" d="M2291.779 2034.668l-163.885 189.308"/><path data-name="線 372" stroke-miterlimit="10" d="M2279.893 2034.668l-163.885 189.308"/><path data-name="線 373" stroke-miterlimit="10" d="M2268.009 2034.668l-163.886 189.308"/><path data-name="線 374" stroke-miterlimit="10" d="M2256.124 2034.668l-163.886 189.308"/><path data-name="線 375" stroke-miterlimit="10" d="M2244.238 2034.668l-163.886 189.308"/><path data-name="線 376" stroke-miterlimit="10" d="M2232.353 2034.668l-163.886 189.308"/><path data-name="線 377" stroke-miterlimit="10" d="M2220.467 2034.668l-163.886 189.308"/><path data-name="線 378" stroke-miterlimit="10" d="M2208.582 2034.668l-163.886 189.308"/><path data-name="線 379" stroke-miterlimit="10" d="M2196.696 2034.668l-163.886 189.308"/><path data-name="線 380" stroke-miterlimit="10" d="M2184.811 2034.668l-163.886 189.308"/><path data-name="線 381" stroke-miterlimit="10" d="M2172.926 2034.668l-163.886 189.308"/><path data-name="線 382" stroke-miterlimit="10" d="M2161.04 2034.668l-163.886 189.308"/><path data-name="線 383" stroke-miterlimit="10" d="M2149.155 2034.668l-163.886 189.308"/><path data-name="線 384" stroke-miterlimit="10" d="M2137.27 2034.668l-163.886 189.308"/><path data-name="線 385" stroke-miterlimit="10" d="M2125.384 2034.668l-163.886 189.308"/><path data-name="線 386" stroke-miterlimit="10" d="M2113.499 2034.668l-163.886 189.308"/><path data-name="線 387" stroke-miterlimit="10" d="M2101.613 2034.668l-163.886 189.308"/><path data-name="線 388" stroke-miterlimit="10" d="M2089.728 2034.668l-163.886 189.308"/><path data-name="線 389" stroke-miterlimit="10" d="M2077.843 2034.668l-163.886 189.308"/><path data-name="線 390" stroke-miterlimit="10" d="M2065.957 2034.668l-163.886 189.308"/><path data-name="線 391" stroke-miterlimit="10" d="M2054.072 2034.668l-163.886 189.308"/><path data-name="線 392" stroke-miterlimit="10" d="M2042.187 2034.668L1878.3 2223.976"/><path data-name="線 393" stroke-miterlimit="10" d="M2030.302 2034.668l-163.887 189.308"/><path data-name="線 394" stroke-miterlimit="10" d="M2018.416 2034.668l-163.887 189.308"/><path data-name="線 395" stroke-miterlimit="10" d="M2006.531 2034.668l-163.887 189.308"/><path data-name="線 396" stroke-miterlimit="10" d="M1994.646 2034.668l-163.887 189.308"/><path data-name="線 397" stroke-miterlimit="10" d="M1982.76 2034.668l-163.887 189.308"/><path data-name="線 398" stroke-miterlimit="10" d="M1970.875 2034.668l-163.887 189.308"/><path data-name="線 399" stroke-miterlimit="10" d="M1958.99 2034.668l-163.887 189.308"/><path data-name="線 400" stroke-miterlimit="10" d="M1947.104 2034.668l-163.887 189.308"/><path data-name="線 401" stroke-miterlimit="10" d="M1935.219 2034.668l-163.887 189.308"/><path data-name="線 402" stroke-miterlimit="10" d="M1923.333 2034.668l-163.887 189.308"/><path data-name="線 403" stroke-miterlimit="10" d="M1911.448 2034.668l-163.887 189.308"/><path data-name="線 404" stroke-miterlimit="10" d="M1899.562 2034.668l-163.887 189.308"/><path data-name="線 405" stroke-miterlimit="10" d="M1887.677 2034.668l-163.887 189.308"/><path data-name="線 406" stroke-miterlimit="10" d="M1875.792 2034.668l-163.887 189.308"/><path data-name="線 407" stroke-miterlimit="10" d="M1863.906 2034.668l-163.887 189.308"/><path data-name="線 408" stroke-miterlimit="10" d="M1852.021 2034.668l-163.887 189.308"/><path data-name="線 409" stroke-miterlimit="10" d="M1840.135 2034.668l-163.887 189.308"/><path data-name="線 410" stroke-miterlimit="10" d="M1828.251 2034.668l-163.888 189.308"/><path data-name="線 411" stroke-miterlimit="10" d="M1816.366 2034.668l-163.888 189.308"/><path data-name="線 412" stroke-miterlimit="10" d="M1804.48 2034.668l-163.888 189.308"/><path data-name="線 413" stroke-miterlimit="10" d="M1792.595 2034.668l-163.888 189.308"/><path data-name="線 414" stroke-miterlimit="10" d="M1780.71 2034.668l-163.888 189.308"/><path data-name="線 415" stroke-miterlimit="10" d="M1768.824 2034.668l-163.888 189.308"/><path data-name="線 416" stroke-miterlimit="10" d="M1756.939 2034.668l-163.888 189.308"/><path data-name="線 417" stroke-miterlimit="10" d="M1745.053 2034.668l-163.888 189.308"/><path data-name="線 418" stroke-miterlimit="10" d="M1733.168 2034.668l-163.888 189.308"/><path data-name="線 419" stroke-miterlimit="10" d="M1721.282 2034.668l-163.888 189.308"/><path data-name="線 420" stroke-miterlimit="10" d="M1709.397 2034.668l-163.888 189.308"/><path data-name="パス 6937" d="M1697.512 2034.668l-163.888 189.308"/><path data-name="線 422" stroke-miterlimit="10" d="M1685.626 2034.668l-163.888 189.308"/><path data-name="線 423" stroke-miterlimit="10" d="M1673.741 2034.668l-163.888 189.308"/><path data-name="線 424" stroke-miterlimit="10" d="M1661.856 2034.668l-163.888 189.308"/><path data-name="線 425" stroke-miterlimit="10" d="M1649.97 2034.668l-163.888 189.308"/><path data-name="線 426" stroke-miterlimit="10" d="M1638.085 2034.668l-163.888 189.308"/><path data-name="線 427" stroke-miterlimit="10" d="M1626.199 2034.668l-163.888 189.308"/><path data-name="線 428" stroke-miterlimit="10" d="M1614.314 2034.668l-163.888 189.308"/><path data-name="線 429" stroke-miterlimit="10" d="M1602.429 2034.668l-163.889 189.308"/><path data-name="線 430" stroke-miterlimit="10" d="M1590.544 2034.668l-163.889 189.308"/><path data-name="線 431" stroke-miterlimit="10" d="M1578.659 2034.668l-163.889 189.308"/><path data-name="線 432" stroke-miterlimit="10" d="M1566.773 2034.668l-163.889 189.308"/><path data-name="線 433" stroke-miterlimit="10" d="M1554.888 2034.668l-163.889 189.308"/><path data-name="線 434" stroke-miterlimit="10" d="M1543.002 2034.668l-163.889 189.308"/><path data-name="線 435" stroke-miterlimit="10" d="M1531.117 2034.668l-163.889 189.308"/><path data-name="線 436" stroke-miterlimit="10" d="M1519.232 2034.668l-163.889 189.308"/><path data-name="線 437" stroke-miterlimit="10" d="M1507.346 2034.668l-163.889 189.308"/><path data-name="線 438" stroke-miterlimit="10" d="M1495.461 2034.668l-163.889 189.308"/><path data-name="線 439" stroke-miterlimit="10" d="M1483.576 2034.668l-163.889 189.308"/><path data-name="線 440" stroke-miterlimit="10" d="M1471.69 2034.668l-163.889 189.308"/><path data-name="線 441" stroke-miterlimit="10" d="M1459.805 2034.668l-163.889 189.308"/><path data-name="線 442" stroke-miterlimit="10" d="M1447.919 2034.668l-163.889 189.308"/><path data-name="線 443" stroke-miterlimit="10" d="M1436.034 2034.668l-163.889 189.308"/><path data-name="線 444" stroke-miterlimit="10" d="M1424.148 2034.668l-163.889 189.308"/><path data-name="線 445" stroke-miterlimit="10" d="M1412.263 2034.668l-163.889 189.308"/><path data-name="線 446" stroke-miterlimit="10" d="M1400.378 2034.668l-163.889 189.308"/><path data-name="線 447" stroke-miterlimit="10" d="M1388.493 2034.668l-163.89 189.308"/><path data-name="線 448" stroke-miterlimit="10" d="M1376.608 2034.668l-163.89 189.308"/><path data-name="線 449" stroke-miterlimit="10" d="M1364.722 2034.668l-163.89 189.308"/><path data-name="線 450" stroke-miterlimit="10" d="M1352.837 2034.668l-163.89 189.308"/><path data-name="線 451" stroke-miterlimit="10" d="M1340.952 2034.668l-163.89 189.308"/><path data-name="線 452" stroke-miterlimit="10" d="M1329.066 2034.668l-163.89 189.308"/><path data-name="線 453" stroke-miterlimit="10" d="M1317.181 2034.668l-163.89 189.308"/><path data-name="線 454" stroke-miterlimit="10" d="M1305.295 2034.668l-163.89 189.308"/><path data-name="線 455" stroke-miterlimit="10" d="M1293.41 2034.668l-163.89 189.308"/><path data-name="線 456" stroke-miterlimit="10" d="M1281.524 2034.668l-163.89 189.308"/><path data-name="線 457" stroke-miterlimit="10" d="M1269.639 2034.668l-163.89 189.308"/><path data-name="線 458" stroke-miterlimit="10" d="M1257.754 2034.668l-163.89 189.308"/></g></g><path data-name="パス 6938" d="M320.807 346.227V241.562l-81.4-69.774-81.4 69.774v104.665z" fill="none" stroke="#8dddc4" stroke-linecap="round" stroke-linejoin="round" stroke-width="8"/></g><path data-name="パス 11918" d="M119.98 256.023a36.228 36.228 0 01-6.768 9.288l3.924 2.664a58.451 58.451 0 006.948-10.044zm20.628-3.2c1.008 0 2.412.036 3.528.108v-4.716a28.636 28.636 0 01-3.564.252h-8.352v-2.844a22.141 22.141 0 01.324-3.168h-5.328a23.924 23.924 0 01.284 3.132v2.88h-9.144c-1.116 0-2.376-.144-3.456-.252v4.752c1.008-.108 2.376-.144 3.456-.144h9.144v.036c0 1.692 0 13.1-.036 14.436-.036.936-.36 1.3-1.3 1.3a23.464 23.464 0 01-4-.4l.432 4.428a51.34 51.34 0 005.832.324c2.556 0 3.78-1.3 3.78-3.384v-16.74zm-5 5.22a72.766 72.766 0 015.864 9.644l4.212-2.3a83.682 83.682 0 00-6.156-9.468zm38.016-9.864c1.26 0 2.628.072 3.888.144v-4.644a28.2 28.2 0 01-3.888.252h-14.476a26.823 26.823 0 01-3.816-.252v4.644a62.894 62.894 0 013.852-.144zm-19.048 4.928c-1.116 0-2.376-.108-3.456-.216v4.716a54.32 54.32 0 013.456-.144h9.9a15.471 15.471 0 01-2.232 7.956 14.954 14.954 0 01-6.516 5.148l4.212 3.06a17.274 17.274 0 007.236-6.912 22.838 22.838 0 002.3-9.252h8.676c1.008 0 2.376.036 3.276.108v-4.684a27.7 27.7 0 01-3.276.216zm36.036 19.764a20.852 20.852 0 006.408-10.332c.972-3.636 1.08-11.232 1.08-15.48a22.96 22.96 0 01.252-3.24h-5.292a13.14 13.14 0 01.324 3.276c0 4.356-.036 11.16-1.044 14.256a16.983 16.983 0 01-6.12 8.6zm15.264.108a9.178 9.178 0 011.584-1.08 39.638 39.638 0 0012.2-9.828l-2.772-3.96a22.8 22.8 0 01-8.888 7.596v-18.828a18.28 18.28 0 01.252-3.132h-5.364a15.96 15.96 0 01.288 3.1v20.984a13.7 13.7 0 01-.288 2.664zm25.452-8.172c-1.332 0-2.772-1.764-2.772-5.364a11.178 11.178 0 019.036-10.332 57.224 57.224 0 01-1.908 8.64c-1.44 4.824-2.884 7.056-4.356 7.056zm9.792 7.956c9-1.368 13.608-6.7 13.608-14.184 0-7.776-5.58-13.932-14.4-13.932-9.252 0-16.416 7.056-16.416 15.264 0 6.012 3.348 10.368 7.272 10.368 3.888 0 6.984-4.392 9.108-11.592a77.476 77.476 0 002.124-9.684c4.788.828 7.452 4.5 7.452 9.432 0 5.184-3.528 8.46-8.1 9.54-.936.216-1.944.4-3.312.576zm33.08-7.2c0 2.34-.828 3.384-3.132 3.384-2.484 0-4.284-.648-4.284-2.412 0-1.512 1.656-2.448 4.428-2.448a19.582 19.582 0 012.952.252c.036.468.036.9.036 1.224zm15.412 1.656a28.191 28.191 0 00-10.836-6.12c-.18-2.628-.324-5.436-.4-7.6 2.88-.072 7.128-.216 10.116-.5l-.18-4.248c-2.952.324-7.128.468-9.936.54v-2.592c.072-1.4.18-3.132.324-4.176h-5.36a22.619 22.619 0 01.36 4.176c.036 1.512.072 3.636.072 5.8 0 1.872.144 4.932.252 7.7a20.459 20.459 0 00-2.124-.112c-6.552 0-9.72 2.952-9.72 6.66 0 4.86 4.176 6.516 9.252 6.516 5.976 0 7.6-3.024 7.6-6.156 0-.36 0-.756-.036-1.224a27.536 27.536 0 017.88 5.584zm29.88-7.776c0 5.58-5.652 8.46-14.508 9.468l2.592 4.464c9.9-1.368 16.956-6.12 16.956-13.752 0-5.58-3.96-8.784-9.612-8.784a49.388 49.388 0 00-10.764 1.62 34.954 34.954 0 01-3.888.612l1.332 5.076c1.044-.36 2.412-.9 3.456-1.224a31.988 31.988 0 019.288-1.728c3.348-.036 5.148 1.908 5.148 4.248zm-13.968-17.136l-.72 4.32c4.1.72 11.844 1.4 16.02 1.692l.72-4.392a100.7 100.7 0 01-16.02-1.62zm60.12 9.324a64.149 64.149 0 00-8.784-4.824l-2.3 3.528a47.533 47.533 0 018.568 5.076zm-13.428-5.472a37.656 37.656 0 01-4.788 1.116c.5-1.908.936-3.708 1.224-4.86l-4.932-.5a30.354 30.354 0 01-.972 5.976c-1.08.072-2.16.108-3.2.108a45.317 45.317 0 01-4.752-.252l.324 4.176c1.548.072 2.988.108 4.464.108.612 0 1.224 0 1.836-.036a54.394 54.394 0 01-7.276 12.592l4.356 2.2a65.808 65.808 0 007.632-15.264 52.244 52.244 0 006.192-1.224zm.864 19.836c0 1.908-.792 3.312-3.2 3.312-1.944 0-3.06-.9-3.06-2.232 0-1.26 1.332-2.124 3.384-2.124a12.617 12.617 0 012.88.36zm-.58-12.492c.108 2.16.288 5.292.4 7.956-.756-.072-1.584-.144-2.412-.144-4.968 0-7.884 2.7-7.884 6.192 0 3.924 3.492 5.9 7.92 5.9 5.076 0 6.876-2.592 6.876-5.9v-.32a31.737 31.737 0 014.824 3.78l2.376-3.82a23.75 23.75 0 00-7.38-4.572c-.108-1.764-.18-3.492-.216-4.5-.036-1.584-.108-3.06 0-4.572zm-133.232 54.724h-14.22v-4.212h12.1v-4.1h-12.1v-4.72a84.818 84.818 0 0010.944-1.908l-3.1-3.564c-5.9 1.548-15.768 2.52-24.444 2.88a14.335 14.335 0 011.08 3.78c3.528-.144 7.308-.36 11.052-.684v4.212h-11.768v4.1h11.772v4.216h-14.22v4.176h14.22v5.8c0 .72-.324.972-1.152 1.008-.792 0-3.816 0-6.48-.108a16.608 16.608 0 011.764 4.248c3.672.036 6.264-.072 7.992-.72 1.692-.684 2.34-1.8 2.34-4.356v-5.872h14.22zm29.916 6.12h5.544v-3.6h-5.544v-4h-4.248v4H239.5v3.6h5.436v4.5h-7.344v3.78h18.756v-3.78h-7.164zm.936-19.26a17.287 17.287 0 01-3.132 4.536 17.389 17.389 0 01-2.988-4.536zm-15.444 8.892h-2.664v-2.16h2.664zm0 4.932h-2.664v-2.2h2.664zm-8.136-2.2h2.56v2.2h-2.56zm0-4.9h2.56v2.16h-2.56zm26.172-10.54l-.72.144h-12.924v3.672h4.176l-2.844.756a23.788 23.788 0 003.708 6.228 21.51 21.51 0 01-6.228 2.916v-6.12h-5.4v-1.98h5.652v-3.708h-5.652v-3.384h-3.816v3.384h-5.544v3.708h5.544v1.98h-5.184v13h5.184v2.16h-5.976v3.74h5.976v5.652h3.816v-5.652h5.94v-3.744h-5.94v-2.16h5.4v-5.832a18.621 18.621 0 011.548 2.556 26.709 26.709 0 007.6-3.744 21.176 21.176 0 007.272 3.6 14.816 14.816 0 012.552-3.456 21.617 21.617 0 01-6.768-2.808 22.883 22.883 0 005.364-9.864zm12.348 17.316a24.164 24.164 0 00-1.008 5.868c0 4.968 3.852 7.668 11.016 7.668a49.962 49.962 0 009.612-.864l.108-4.716a39.418 39.418 0 01-9.72 1.044c-5.04 0-6.372-1.764-6.372-4.356a16 16 0 01.972-4.248zm23.256-14a52.153 52.153 0 01-6.984 1.8c-.792-1.872-1.476-3.564-2.088-5.436l-5.04.972a27.675 27.675 0 011.764 3.42c.216.54.468 1.116.756 1.692a60.739 60.739 0 01-13.32-.36l.144 4.572a80.1 80.1 0 0015.012 0c1.044 2.232 2.268 4.716 3.132 6.516-1.08-.072-3.024-.288-4.212-.4l-.4 3.672c2.628.324 6.156.9 8.1 1.3l2.52-2.7c-1.548-2.844-3.24-6.228-4.608-9.108a83.868 83.868 0 006.048-1.44z"/></g><path data-name="パス 11922" d="M455.83 267.507h-13.984v-13.984h-4.692v13.984H423.17v4.692h13.984v13.988h4.692v-13.988h13.984z" fill="#02835b"/><g data-name="グループ 2285"><g data-name="グループ 2280" opacity=".893"><g data-name="マスクグループ 29" transform="translate(-995.948 -1870.387)" clip-path="url(#a)"><g data-name="グループ 2271" fill="none" stroke="#8dddc4" stroke-width="3.163"><path data-name="線 357" stroke-miterlimit="10" d="M2458.174 2034.668l-163.885 189.308"/><path data-name="線 358" stroke-miterlimit="10" d="M2446.289 2034.668l-163.885 189.308"/><path data-name="線 359" stroke-miterlimit="10" d="M2434.404 2034.668l-163.885 189.308"/><path data-name="線 360" stroke-miterlimit="10" d="M2422.518 2034.668l-163.885 189.308"/><path data-name="線 361" stroke-miterlimit="10" d="M2410.633 2034.668l-163.885 189.308"/><path data-name="線 362" stroke-miterlimit="10" d="M2398.747 2034.668l-163.885 189.308"/><path data-name="線 363" stroke-miterlimit="10" d="M2386.862 2034.668l-163.885 189.308"/><path data-name="線 364" stroke-miterlimit="10" d="M2374.977 2034.668l-163.885 189.308"/><path data-name="線 365" stroke-miterlimit="10" d="M2363.091 2034.668l-163.885 189.308"/><path data-name="線 366" stroke-miterlimit="10" d="M2351.206 2034.668l-163.885 189.308"/><path data-name="線 367" stroke-miterlimit="10" d="M2339.32 2034.668l-163.885 189.308"/><path data-name="線 368" stroke-miterlimit="10" d="M2327.435 2034.668l-163.885 189.308"/><path data-name="線 369" stroke-miterlimit="10" d="M2315.55 2034.668l-163.885 189.308"/><path data-name="線 370" stroke-miterlimit="10" d="M2303.664 2034.668l-163.885 189.308"/><path data-name="線 371" stroke-miterlimit="10" d="M2291.779 2034.668l-163.885 189.308"/><path data-name="線 372" stroke-miterlimit="10" d="M2279.893 2034.668l-163.885 189.308"/><path data-name="線 373" stroke-miterlimit="10" d="M2268.009 2034.668l-163.886 189.308"/><path data-name="線 374" stroke-miterlimit="10" d="M2256.124 2034.668l-163.886 189.308"/><path data-name="線 375" stroke-miterlimit="10" d="M2244.238 2034.668l-163.886 189.308"/><path data-name="線 376" stroke-miterlimit="10" d="M2232.353 2034.668l-163.886 189.308"/><path data-name="線 377" stroke-miterlimit="10" d="M2220.467 2034.668l-163.886 189.308"/><path data-name="線 378" stroke-miterlimit="10" d="M2208.582 2034.668l-163.886 189.308"/><path data-name="線 379" stroke-miterlimit="10" d="M2196.696 2034.668l-163.886 189.308"/><path data-name="線 380" stroke-miterlimit="10" d="M2184.811 2034.668l-163.886 189.308"/><path data-name="線 381" stroke-miterlimit="10" d="M2172.926 2034.668l-163.886 189.308"/><path data-name="線 382" stroke-miterlimit="10" d="M2161.04 2034.668l-163.886 189.308"/><path data-name="線 383" stroke-miterlimit="10" d="M2149.155 2034.668l-163.886 189.308"/><path data-name="線 384" stroke-miterlimit="10" d="M2137.27 2034.668l-163.886 189.308"/><path data-name="線 385" stroke-miterlimit="10" d="M2125.384 2034.668l-163.886 189.308"/><path data-name="線 386" stroke-miterlimit="10" d="M2113.499 2034.668l-163.886 189.308"/><path data-name="線 387" stroke-miterlimit="10" d="M2101.613 2034.668l-163.886 189.308"/><path data-name="線 388" stroke-miterlimit="10" d="M2089.728 2034.668l-163.886 189.308"/><path data-name="線 389" stroke-miterlimit="10" d="M2077.843 2034.668l-163.886 189.308"/><path data-name="線 390" stroke-miterlimit="10" d="M2065.957 2034.668l-163.886 189.308"/><path data-name="線 391" stroke-miterlimit="10" d="M2054.072 2034.668l-163.886 189.308"/><path data-name="線 392" stroke-miterlimit="10" d="M2042.187 2034.668L1878.3 2223.976"/><path data-name="線 393" stroke-miterlimit="10" d="M2030.302 2034.668l-163.887 189.308"/><path data-name="線 394" stroke-miterlimit="10" d="M2018.416 2034.668l-163.887 189.308"/><path data-name="線 395" stroke-miterlimit="10" d="M2006.531 2034.668l-163.887 189.308"/><path data-name="線 396" stroke-miterlimit="10" d="M1994.646 2034.668l-163.887 189.308"/><path data-name="線 397" stroke-miterlimit="10" d="M1982.76 2034.668l-163.887 189.308"/><path data-name="線 398" stroke-miterlimit="10" d="M1970.875 2034.668l-163.887 189.308"/><path data-name="線 399" stroke-miterlimit="10" d="M1958.99 2034.668l-163.887 189.308"/><path data-name="線 400" stroke-miterlimit="10" d="M1947.104 2034.668l-163.887 189.308"/><path data-name="線 401" stroke-miterlimit="10" d="M1935.219 2034.668l-163.887 189.308"/><path data-name="線 402" stroke-miterlimit="10" d="M1923.333 2034.668l-163.887 189.308"/><path data-name="線 403" stroke-miterlimit="10" d="M1911.448 2034.668l-163.887 189.308"/><path data-name="線 404" stroke-miterlimit="10" d="M1899.562 2034.668l-163.887 189.308"/><path data-name="線 405" stroke-miterlimit="10" d="M1887.677 2034.668l-163.887 189.308"/><path data-name="線 406" stroke-miterlimit="10" d="M1875.792 2034.668l-163.887 189.308"/><path data-name="線 407" stroke-miterlimit="10" d="M1863.906 2034.668l-163.887 189.308"/><path data-name="線 408" stroke-miterlimit="10" d="M1852.021 2034.668l-163.887 189.308"/><path data-name="線 409" stroke-miterlimit="10" d="M1840.135 2034.668l-163.887 189.308"/><path data-name="線 410" stroke-miterlimit="10" d="M1828.251 2034.668l-163.888 189.308"/><path data-name="線 411" stroke-miterlimit="10" d="M1816.366 2034.668l-163.888 189.308"/><path data-name="線 412" stroke-miterlimit="10" d="M1804.48 2034.668l-163.888 189.308"/><path data-name="線 413" stroke-miterlimit="10" d="M1792.595 2034.668l-163.888 189.308"/><path data-name="線 414" stroke-miterlimit="10" d="M1780.71 2034.668l-163.888 189.308"/><path data-name="線 415" stroke-miterlimit="10" d="M1768.824 2034.668l-163.888 189.308"/><path data-name="線 416" stroke-miterlimit="10" d="M1756.939 2034.668l-163.888 189.308"/><path data-name="線 417" stroke-miterlimit="10" d="M1745.053 2034.668l-163.888 189.308"/><path data-name="線 418" stroke-miterlimit="10" d="M1733.168 2034.668l-163.888 189.308"/><path data-name="線 419" stroke-miterlimit="10" d="M1721.282 2034.668l-163.888 189.308"/><path data-name="線 420" stroke-miterlimit="10" d="M1709.397 2034.668l-163.888 189.308"/><path data-name="パス 6937" d="M1697.512 2034.668l-163.888 189.308"/><path data-name="線 422" stroke-miterlimit="10" d="M1685.626 2034.668l-163.888 189.308"/><path data-name="線 423" stroke-miterlimit="10" d="M1673.741 2034.668l-163.888 189.308"/><path data-name="線 424" stroke-miterlimit="10" d="M1661.856 2034.668l-163.888 189.308"/><path data-name="線 425" stroke-miterlimit="10" d="M1649.97 2034.668l-163.888 189.308"/><path data-name="線 426" stroke-miterlimit="10" d="M1638.085 2034.668l-163.888 189.308"/><path data-name="線 427" stroke-miterlimit="10" d="M1626.199 2034.668l-163.888 189.308"/><path data-name="線 428" stroke-miterlimit="10" d="M1614.314 2034.668l-163.888 189.308"/><path data-name="線 429" stroke-miterlimit="10" d="M1602.429 2034.668l-163.889 189.308"/><path data-name="線 430" stroke-miterlimit="10" d="M1590.544 2034.668l-163.889 189.308"/><path data-name="線 431" stroke-miterlimit="10" d="M1578.659 2034.668l-163.889 189.308"/><path data-name="線 432" stroke-miterlimit="10" d="M1566.773 2034.668l-163.889 189.308"/><path data-name="線 433" stroke-miterlimit="10" d="M1554.888 2034.668l-163.889 189.308"/><path data-name="線 434" stroke-miterlimit="10" d="M1543.002 2034.668l-163.889 189.308"/><path data-name="線 435" stroke-miterlimit="10" d="M1531.117 2034.668l-163.889 189.308"/><path data-name="線 436" stroke-miterlimit="10" d="M1519.232 2034.668l-163.889 189.308"/><path data-name="線 437" stroke-miterlimit="10" d="M1507.346 2034.668l-163.889 189.308"/><path data-name="線 438" stroke-miterlimit="10" d="M1495.461 2034.668l-163.889 189.308"/><path data-name="線 439" stroke-miterlimit="10" d="M1483.576 2034.668l-163.889 189.308"/><path data-name="線 440" stroke-miterlimit="10" d="M1471.69 2034.668l-163.889 189.308"/><path data-name="線 441" stroke-miterlimit="10" d="M1459.805 2034.668l-163.889 189.308"/><path data-name="線 442" stroke-miterlimit="10" d="M1447.919 2034.668l-163.889 189.308"/><path data-name="線 443" stroke-miterlimit="10" d="M1436.034 2034.668l-163.889 189.308"/><path data-name="線 444" stroke-miterlimit="10" d="M1424.148 2034.668l-163.889 189.308"/><path data-name="線 445" stroke-miterlimit="10" d="M1412.263 2034.668l-163.889 189.308"/><path data-name="線 446" stroke-miterlimit="10" d="M1400.378 2034.668l-163.889 189.308"/><path data-name="線 447" stroke-miterlimit="10" d="M1388.493 2034.668l-163.89 189.308"/><path data-name="線 448" stroke-miterlimit="10" d="M1376.608 2034.668l-163.89 189.308"/><path data-name="線 449" stroke-miterlimit="10" d="M1364.722 2034.668l-163.89 189.308"/><path data-name="線 450" stroke-miterlimit="10" d="M1352.837 2034.668l-163.89 189.308"/><path data-name="線 451" stroke-miterlimit="10" d="M1340.952 2034.668l-163.89 189.308"/><path data-name="線 452" stroke-miterlimit="10" d="M1329.066 2034.668l-163.89 189.308"/><path data-name="線 453" stroke-miterlimit="10" d="M1317.181 2034.668l-163.89 189.308"/><path data-name="線 454" stroke-miterlimit="10" d="M1305.295 2034.668l-163.89 189.308"/><path data-name="線 455" stroke-miterlimit="10" d="M1293.41 2034.668l-163.89 189.308"/><path data-name="線 456" stroke-miterlimit="10" d="M1281.524 2034.668l-163.89 189.308"/><path data-name="線 457" stroke-miterlimit="10" d="M1269.639 2034.668l-163.89 189.308"/><path data-name="線 458" stroke-miterlimit="10" d="M1257.754 2034.668l-163.89 189.308"/></g></g><path data-name="パス 6938" d="M738.807 346.227V241.562l-81.4-69.774-81.4 69.774v104.665z" fill="none" stroke="#8dddc4" stroke-linecap="round" stroke-linejoin="round" stroke-width="8"/></g><path data-name="パス 11919" d="M495.32 246.231h-8.46v2.988h8.46v1.656h-7.272v2.952h19.332v-2.952h-7.956v-1.656h9.144v-2.988h-9.144v-1.728c2.664-.216 5.184-.5 7.308-.9l-2.16-2.628a123.91 123.91 0 01-15.948 1.368 10.57 10.57 0 01.828 2.628c1.872-.036 3.852-.072 5.868-.18zm-14.112 7.848h4.032v-8.392a27.736 27.736 0 003.132-3.456l-3.888-1.44a26.081 26.081 0 01-9.252 7.02 25.378 25.378 0 013.1 3.132 30.561 30.561 0 002.88-1.908zm3.892 10.944h15.516v1.476H485.1zm0-3.744h15.516v1.44H485.1zm0-3.708h15.516v1.4H485.1zm19.868 11.376v-13.824h-24.012v13.824h4.824a48.875 48.875 0 01-9.54 2.52 27.662 27.662 0 013.1 3.06 46.009 46.009 0 0011.232-4.284l-2.844-1.3h9.972l-3.1 1.692a65.242 65.242 0 019.216 3.78l5.148-1.908c-2.34-1.008-6.156-2.448-9.648-3.564zm14.076-16.092h4.1v-7.632a25.612 25.612 0 003.06-3.24l-3.888-1.476c-2.3 2.916-6.3 5.58-10.188 7.272a22.073 22.073 0 013.024 3.06 41.813 41.813 0 003.888-2.376zm2.664 11.376h15.624v1.584h-15.624zm0-3.96h15.624v1.548h-15.624zm0-3.96h15.624v1.548h-15.624zm19.944 12.06v-14.544c2.484-.144 3.6-1.08 4.068-4.68a9.269 9.269 0 01-3.132-1.476c-.18 1.836-.432 2.412-1.368 2.448a8.475 8.475 0 01-5.688-2.556l9.792-.576-.324-3.1-3.708.216 1.26-1.4a24.519 24.519 0 00-6.192-2.016l-1.908 2.052a34.3 34.3 0 014.464 1.512l-5.616.324a11.905 11.905 0 01-1.188-3.78h-4a19.1 19.1 0 00.936 4l-4.86.288.324 3.168 6.084-.36a12.865 12.865 0 009.216 5.868h-22.248v14.612h5.292a42.272 42.272 0 01-9.9 3.024 43.418 43.418 0 013.168 3.132 44.609 44.609 0 0011.236-4.716l-3.276-1.44H534.6l-3.24 1.872a70.984 70.984 0 019.36 4.248l4.968-1.908c-2.448-1.188-6.588-2.916-10.26-4.212zm20.88-16.6a19.957 19.957 0 01.252 3.24c0 5.9-.864 9.72-5.436 12.888a14.225 14.225 0 01-3.78 1.98l4.176 3.42c9.828-5.256 10.008-12.6 10.008-21.528zm17.028-7.524a17.935 17.935 0 01-3.636.324h-19.4a28.54 28.54 0 01-4.392-.36v5c1.692-.144 2.88-.252 4.392-.252h18.756a21.409 21.409 0 01-6.624 6.7l3.708 2.988c3.564-2.52 6.984-7.056 8.676-9.864a18.126 18.126 0 011.4-1.872zm33.34 1.156a2.09 2.09 0 012.088-2.088 2.09 2.09 0 012.088 2.088 2.082 2.082 0 01-2.088 2.052 2.082 2.082 0 01-2.088-2.052zm-2.232 0a4.325 4.325 0 004.32 4.284 4.325 4.325 0 004.32-4.284 4.333 4.333 0 00-4.32-4.32 4.333 4.333 0 00-4.324 4.32zm-19.696 14.684a43.373 43.373 0 01-5.616 10.012l5.044 2.124a49.5 49.5 0 005.328-10.3 90.017 90.017 0 003.056-10.836c.144-.792.54-2.556.864-3.6l-5.256-1.08a51.873 51.873 0 01-3.42 13.68zm17.784-.756a111.235 111.235 0 013.744 12.712l5.328-1.728c-1.008-3.564-2.916-9.324-4.212-12.564-1.332-3.492-3.816-9-5.292-11.808l-4.788 1.544a100.847 100.847 0 015.22 11.848zm15.336.936c1.332-.108 3.744-.18 5.8-.18h19.328c1.512 0 3.348.144 4.212.18v-5.652c-.936.072-2.556.216-4.212.216h-19.332c-1.872 0-4.5-.108-5.8-.216zm64.692-2.232a117.577 117.577 0 00-15.048-5.58v-5.288a39.151 39.151 0 01.324-4.356h-5.616a25.108 25.108 0 01.36 4.356v20.664a38.521 38.521 0 01-.36 5h5.616c-.144-1.44-.324-3.96-.324-5v-10.188a103.981 103.981 0 0113 5.364zm15.264 6.772c-1.332 0-2.772-1.764-2.772-5.364a11.178 11.178 0 019.036-10.332 57.224 57.224 0 01-1.908 8.64c-1.44 4.824-2.88 7.056-4.356 7.056zm9.792 7.956c9-1.368 13.608-6.7 13.608-14.184 0-7.776-5.58-13.932-14.4-13.932-9.252 0-16.416 7.056-16.416 15.264 0 6.012 3.348 10.368 7.272 10.368 3.888 0 6.984-4.392 9.108-11.592a77.476 77.476 0 002.124-9.684c4.788.828 7.452 4.5 7.452 9.432 0 5.184-3.528 8.46-8.1 9.54-.936.216-1.944.4-3.312.576zm33.084-7.2c0 2.34-.828 3.384-3.132 3.384-2.484 0-4.284-.648-4.284-2.412 0-1.512 1.656-2.448 4.428-2.448a19.582 19.582 0 012.952.252c.036.468.036.9.036 1.224zm15.408 1.656a28.191 28.191 0 00-10.832-6.12c-.18-2.628-.324-5.436-.4-7.6 2.88-.072 7.128-.216 10.116-.5l-.18-4.248c-2.952.324-7.128.468-9.936.54v-2.592c.072-1.4.18-3.132.324-4.176h-5.364a22.619 22.619 0 01.36 4.176c.036 1.512.072 3.636.072 5.8 0 1.872.144 4.932.252 7.7a20.458 20.458 0 00-2.124-.112c-6.552 0-9.72 2.952-9.72 6.66 0 4.86 4.176 6.516 9.252 6.516 5.976 0 7.6-3.024 7.6-6.156 0-.36 0-.756-.036-1.224a27.536 27.536 0 017.884 5.584zm29.88-7.776c0 5.58-5.652 8.46-14.508 9.468l2.596 4.464c9.9-1.368 16.956-6.12 16.956-13.752 0-5.58-3.96-8.784-9.612-8.784a49.388 49.388 0 00-10.764 1.62 34.954 34.954 0 01-3.888.612l1.332 5.076c1.044-.36 2.412-.9 3.456-1.224a31.988 31.988 0 019.288-1.728c3.344-.036 5.144 1.908 5.144 4.248zm-13.968-17.136l-.72 4.32c4.1.72 11.844 1.4 16.02 1.692l.72-4.392a100.7 100.7 0 01-16.02-1.62zm60.12 9.324a64.15 64.15 0 00-8.784-4.824l-2.3 3.528a47.533 47.533 0 018.568 5.076zm-13.428-5.472a37.656 37.656 0 01-4.788 1.116c.5-1.908.936-3.708 1.224-4.86l-4.932-.5a30.354 30.354 0 01-.972 5.976c-1.08.072-2.16.108-3.2.108a45.317 45.317 0 01-4.752-.252l.324 4.176c1.548.072 2.988.108 4.464.108.612 0 1.224 0 1.836-.036a54.394 54.394 0 01-7.272 12.6l4.356 2.2a65.808 65.808 0 007.632-15.264 52.244 52.244 0 006.192-1.224zm.864 19.836c0 1.908-.792 3.312-3.2 3.312-1.944 0-3.06-.9-3.06-2.232 0-1.26 1.332-2.124 3.384-2.124a12.617 12.617 0 012.88.36zm-.576-12.492c.108 2.16.288 5.292.4 7.956-.756-.072-1.584-.144-2.412-.144-4.968 0-7.884 2.7-7.884 6.192 0 3.924 3.492 5.9 7.92 5.9 5.076 0 6.876-2.592 6.876-5.9v-.32a31.737 31.737 0 014.824 3.78l2.372-3.82a23.75 23.75 0 00-7.38-4.572c-.108-1.764-.18-3.492-.216-4.5-.036-1.584-.108-3.06 0-4.572zm-212.868 64.12v-3.744h17.1v3.744zm17.1-11.412v3.708h-17.1v-3.708zm0-7.668v3.708h-17.1v-3.708zm-7.776-4.1c.576-1.3 1.152-2.7 1.692-4.14l-5.184-.576a40.743 40.743 0 01-.972 4.716H608v28.944h4.356v-1.8h17.1v1.76h4.572v-28.908zm37.872 22.82v-6.12h7.884v6.12zm-12.06-6.12h7.632v6.12h-7.632zm7.632-10.188v6.012h-7.632v-6.012zm12.312 0v6.012h-7.884v-6.012zm-7.884-4.32v-6.8h-4.428v6.8h-11.916v26.784h4.284v-1.908h19.944v1.876h4.5v-26.752zm23.508 11.952a24.164 24.164 0 00-1.008 5.868c0 4.968 3.852 7.668 11.016 7.668a49.962 49.962 0 009.612-.864l.108-4.716a39.418 39.418 0 01-9.72 1.044c-5.04 0-6.372-1.764-6.372-4.356a16 16 0 01.972-4.248zm23.256-14a52.153 52.153 0 01-6.984 1.8c-.792-1.872-1.476-3.564-2.088-5.436l-5.04.972a27.675 27.675 0 011.764 3.42c.216.54.468 1.116.756 1.692a60.739 60.739 0 01-13.32-.36l.144 4.572a80.1 80.1 0 0015.012 0c1.044 2.232 2.268 4.716 3.132 6.516-1.08-.072-3.024-.288-4.212-.4l-.4 3.672c2.628.324 6.156.9 8.1 1.3l2.52-2.7c-1.548-2.844-3.24-6.228-4.608-9.108a83.868 83.868 0 006.048-1.44z"/></g></g></g><path data-name="パス 11923" d="M667.55 553.296a48.807 48.807 0 00-7.11-3.99l-1.5 2.31a38.15 38.15 0 016.93 4.14zm-10.98-4.56a31.356 31.356 0 01-4.32 1.02c.45-1.68.84-3.33 1.08-4.35l-3.27-.3a23.687 23.687 0 01-.87 5.04c-1.05.09-2.07.12-3.06.12-1.2 0-2.61-.06-3.78-.18l.21 2.76c1.2.09 2.43.12 3.57.12.72 0 1.41-.03 2.13-.06a43.058 43.058 0 01-6.21 10.83l2.88 1.47a52.152 52.152 0 006.45-12.63 44.328 44.328 0 005.28-1.05zm1.2 16.59c0 1.53-.75 2.79-2.97 2.79-2.04 0-3.06-.87-3.06-2.13 0-1.2 1.29-2.07 3.27-2.07a10.007 10.007 0 012.73.36c.03.42.03.75.03 1.05zm-.45-10.71c.06 1.95.21 4.74.33 7.08a13.5 13.5 0 00-2.49-.21c-3.69 0-6.21 1.98-6.21 4.77 0 3.09 2.79 4.56 6.24 4.56 3.9 0 5.43-2.04 5.43-4.56v-.81a23.717 23.717 0 014.44 3.3l1.59-2.55a19.726 19.726 0 00-6.15-3.75c-.09-1.68-.18-3.39-.21-4.35a33.805 33.805 0 01.03-3.48zm20.34 9.93c-1.2 0-2.73-1.56-2.73-4.98 0-3.66 3.12-8.31 8.46-9.18a41.161 41.161 0 01-1.62 7.65c-1.38 4.59-2.82 6.51-4.11 6.51zm7.98 5.73c7.26-1.02 11.25-5.34 11.25-11.55 0-6.24-4.53-11.22-11.67-11.22-7.44 0-13.29 5.73-13.29 12.33 0 4.95 2.7 8.28 5.64 8.28 2.97 0 5.43-3.39 7.23-9.45a67.993 67.993 0 001.77-8.34c4.56.57 7.14 3.96 7.14 8.28 0 4.8-3.39 7.56-7.2 8.43a16.823 16.823 0 01-2.64.42zm35.91-16.59l-1.8.78a28.369 28.369 0 012.4 4.2l1.86-.84a41.88 41.88 0 00-2.46-4.14zm3.33-1.29l-1.8.81a28.154 28.154 0 012.52 4.14l1.83-.9a46.946 46.946 0 00-2.55-4.05zm-23.01-3.18l.3 3.27c3.33-.72 10.62-1.44 13.2-1.71a11.768 11.768 0 00-5.01 9.63c0 6.54 6.09 9.66 11.91 9.96l1.08-3.18c-4.89-.24-9.93-2.01-9.93-7.44a9.822 9.822 0 016.54-8.91 28.476 28.476 0 015.79-.42l-.03-3.03c-2.01.06-5.01.24-8.16.51-5.46.45-10.77.96-12.93 1.17-.6.06-1.62.12-2.76.15zm39.33 10.14a2.666 2.666 0 012.67-2.79 2.426 2.426 0 012.31 1.38c.39 2.82-.75 4.05-2.28 4.05a2.583 2.583 0 01-2.7-2.64zm16.11-10.29h-8.88c0-.6 0-1.11.03-1.47 0-.42.09-1.77.15-2.16h-3.42c.09.42.18 1.41.24 2.16.03.33.03.87.06 1.5-4.23.06-9.75.24-13.11.27l.09 2.88c3.69-.24 8.55-.42 13.05-.48l.03 2.52a5.782 5.782 0 00-1.65-.21 5.38 5.38 0 00-5.55 5.34 5 5 0 005.01 5.19 5 5 0 002.07-.42c-1.44 2.22-4.17 3.51-7.65 4.29l2.55 2.52c7.05-2.04 9.15-6.69 9.15-10.65a7.283 7.283 0 00-1.05-3.96c0-1.32 0-3.06-.03-4.65 4.32 0 7.11.06 8.88.15zm15.96 12.78h2.46l.9-11.04.09-3.96h-4.41l.09 3.96zm1.23 7.65a2.6 2.6 0 002.73-2.61 2.627 2.627 0 00-2.73-2.64 2.627 2.627 0 00-2.73 2.64 2.6 2.6 0 002.73 2.61z" fill="#333"/><g data-name="グループ 2433"><path data-name="長方形 2449" fill="#333" d="M272.5 505.486h339v80h-339z"/><g data-name="長方形 2450" fill="#fde94c" stroke="#333" stroke-width="5"><path d="M269.5 502.486h339v80h-339z" stroke="none"/><path fill="none" d="M272 504.986h334v75H272z"/></g><g data-name="グループ 2432"><g data-name="グループ 2422"><g data-name="グループ 2420"><path data-name="パス 7271" d="M327.159 550.645a4.2 4.2 0 00-2.446.4l-.032.016a7.358 7.358 0 01-2.058.713 12.326 12.326 0 01-2.245.208 11.511 11.511 0 01-3.765-.6 7.8 7.8 0 01-2.911-1.774 8.341 8.341 0 01-1.943-3.014 12.2 12.2 0 01-.718-4.4 11.556 11.556 0 01.638-3.932 8.468 8.468 0 011.828-3 8.164 8.164 0 012.906-1.941 10.671 10.671 0 013.966-.693 10.348 10.348 0 012.274.245 10.647 10.647 0 012.061.692 4.51 4.51 0 002.4.453 3.059 3.059 0 002.207-1.286 3.8 3.8 0 00.85-3.071 3.4 3.4 0 00-1.912-2.584 16.821 16.821 0 00-3.776-1.386 17.758 17.758 0 00-4.1-.477 18.317 18.317 0 00-6.853 1.265 16.631 16.631 0 00-5.48 3.544 15.89 15.89 0 00-3.6 5.4 17.839 17.839 0 00-1.267 6.768 18.775 18.775 0 001.386 7.438 15.2 15.2 0 003.832 5.415 16.616 16.616 0 005.505 3.256 19.237 19.237 0 006.479 1.093 17.19 17.19 0 002.724-.215 19.3 19.3 0 002.634-.617 16.777 16.777 0 002.546-1.021 3.389 3.389 0 001.922-2.436 3.729 3.729 0 00-.844-3.141 3.345 3.345 0 00-2.208-1.318z"/><path data-name="パス 7272" d="M363.742 525.445a3.823 3.823 0 00-2.662 1.054 3.58 3.58 0 00-1.18 2.7v9.338h-12.333v-9.338a3.571 3.571 0 00-1.148-2.69 3.7 3.7 0 00-2.6-1.062 3.836 3.836 0 00-2.772 1.073 3.6 3.6 0 00-1.115 2.68v26a3.682 3.682 0 001.05 2.659 3.677 3.677 0 002.748 1.093 3.825 3.825 0 002.663-1.054 3.58 3.58 0 001.18-2.7v-9.473h12.333v9.473a3.566 3.566 0 001.148 2.689 3.69 3.69 0 002.6 1.063 3.813 3.813 0 002.805-1.083 3.644 3.644 0 001.082-2.67v-26a3.687 3.687 0 00-1.051-2.66 3.677 3.677 0 00-2.748-1.092z"/><path data-name="パス 7273" d="M402.066 530.067a15.743 15.743 0 00-5.188-3.724 15.921 15.921 0 00-6.553-1.348 15.763 15.763 0 00-6.532 1.349 15.794 15.794 0 00-5.162 3.723 17.1 17.1 0 00-3.371 5.471 18.471 18.471 0 00-1.191 6.659 18.466 18.466 0 001.191 6.66 17.09 17.09 0 003.37 5.471 15.794 15.794 0 005.163 3.723 15.764 15.764 0 006.532 1.349 15.917 15.917 0 006.553-1.348 15.738 15.738 0 005.188-3.724 17.118 17.118 0 003.37-5.471 18.473 18.473 0 001.192-6.66 18.48 18.48 0 00-1.192-6.659 17.117 17.117 0 00-3.37-5.471zm-11.741 21.918a7.447 7.447 0 01-4.336-1.265 8.807 8.807 0 01-2.966-3.5 11.384 11.384 0 01-1.091-5.025 11.349 11.349 0 011.089-5.044 8.845 8.845 0 012.968-3.479 7.451 7.451 0 014.335-1.265 7.454 7.454 0 014.336 1.265 9 9 0 012.993 3.5 11.2 11.2 0 011.11 5.018 11.2 11.2 0 01-1.11 5.018 8.989 8.989 0 01-2.992 3.505 7.45 7.45 0 01-4.336 1.272z"/><path data-name="パス 7274" d="M418.842 525.445a3.836 3.836 0 00-2.773 1.073 3.6 3.6 0 00-1.115 2.68v26a3.684 3.684 0 001.05 2.659 3.677 3.677 0 002.747 1.093 3.824 3.824 0 002.663-1.054 3.579 3.579 0 001.18-2.7v-26a3.572 3.572 0 00-1.148-2.69 3.694 3.694 0 00-2.604-1.061z"/><path data-name="パス 7275" d="M444.262 539.028h-7.827a3.73 3.73 0 00-2.648 1.017 3.494 3.494 0 00-1.1 2.646 3.566 3.566 0 001.092 2.657 3.684 3.684 0 002.661 1.05h7.827a3.734 3.734 0 002.649-1.017 3.488 3.488 0 001.1-2.6 3.643 3.643 0 00-1.082-2.67 3.645 3.645 0 00-2.672-1.083z"/><path data-name="パス 7276" d="M478.305 541.651a12.146 12.146 0 00-3.7-1.9 37.159 37.159 0 00-4.868-1.2 25.354 25.354 0 01-3.416-.885 4.389 4.389 0 01-1.853-1.115 2.22 2.22 0 01-.529-1.553 2.1 2.1 0 01.458-1.354 3.51 3.51 0 011.563-1.03 8.457 8.457 0 012.909-.431 8.326 8.326 0 012.244.344 16.47 16.47 0 012.415.889 7.21 7.21 0 011.695 1.037l.059.047a2.969 2.969 0 001.82.607 3.425 3.425 0 002.532-1.126 3.554 3.554 0 001.04-2.492 3.966 3.966 0 00-1.671-3.162 13.685 13.685 0 00-4.378-2.4 17.308 17.308 0 00-5.754-.935 15.525 15.525 0 00-6.059 1.159 10.466 10.466 0 00-4.495 3.484 9.275 9.275 0 00-1.7 5.587 10.233 10.233 0 00.7 3.865 8.5 8.5 0 002.115 3.059 10.962 10.962 0 003.39 2.085 19.964 19.964 0 004.51 1.166 18.2 18.2 0 014 .952 5.215 5.215 0 012.077 1.314 2.408 2.408 0 01.567 1.638 1.783 1.783 0 01-.569 1.3 5.025 5.025 0 01-1.878 1.153 7.762 7.762 0 01-2.708.454 9.681 9.681 0 01-3.765-.639 13.363 13.363 0 01-3.162-1.974 3.378 3.378 0 00-2.16-.761 3.487 3.487 0 00-2.6 1.1 3.566 3.566 0 00-1.016 2.513 3.791 3.791 0 00.421 1.709 4.535 4.535 0 001.143 1.438 14.618 14.618 0 005.172 2.965 20.07 20.07 0 005.968.833 15.4 15.4 0 006.087-1.206 11.407 11.407 0 004.655-3.553 9.064 9.064 0 001.827-5.651 11.034 11.034 0 00-.754-4.284 7.586 7.586 0 00-2.332-3.047z"/><path data-name="パス 7277" d="M510.521 525.445h-19.973a3.834 3.834 0 00-2.625.951 3.393 3.393 0 00-1.127 2.622 3.462 3.462 0 001.115 2.633 3.78 3.78 0 002.637.984h6.055v22.563a3.6 3.6 0 001.115 2.68 3.833 3.833 0 002.772 1.073 3.971 3.971 0 002.829-1.063 3.566 3.566 0 001.148-2.69v-22.563h6.054a3.834 3.834 0 002.625-.95 3.392 3.392 0 001.127-2.622 3.464 3.464 0 00-1.116-2.634 3.784 3.784 0 00-2.636-.984z"/><path data-name="パス 7278" d="M535.928 527.702a3.654 3.654 0 00-1.385-1.79 3.635 3.635 0 00-2.019-.646 3.355 3.355 0 00-2.209.574 3.926 3.926 0 00-1.473 1.845l-11.2 26.9-.035.1a4 4 0 00-.177 1.143 3.442 3.442 0 00.831 2.324 3.215 3.215 0 002.562 1.023 3.363 3.363 0 002.008-.664 3.772 3.772 0 001.313-1.77l2.063-4.853h12.082l2.071 4.825a4.206 4.206 0 001.333 1.761 3.353 3.353 0 002.071.7 3.5 3.5 0 002.412-.984 3.517 3.517 0 001.115-2.678 4.03 4.03 0 00-.292-1.441zm-6.667 17l2.957-6.952 2.984 6.952z"/><path data-name="パス 7279" d="M575.198 526.373a3.64 3.64 0 00-2.558-1.062 3.693 3.693 0 00-3.082 1.789l-6.606 9.665-7.094-9.792a3.7 3.7 0 00-3.011-1.663 4.045 4.045 0 00-2.568.99 3.447 3.447 0 00-1.318 2.763 4.152 4.152 0 00.231 1.307 4.865 4.865 0 00.781 1.414l9.154 12.162v11.252a3.642 3.642 0 001.082 2.67 3.59 3.59 0 002.626 1.083 3.488 3.488 0 002.534-1.083 3.644 3.644 0 001.083-2.67V544.55l9.232-13.218a3.76 3.76 0 00.518-1.136 4.275 4.275 0 00.146-1.088 3.621 3.621 0 00-1.15-2.735z"/></g></g></g></g></g></svg>