<svg xmlns="http://www.w3.org/2000/svg" width="160" height="160"><g data-name="グループ 3184"><path data-name="パス 6883" d="M80 0A80 80 0 110 80 80 80 0 0180 0z" fill="#00d392"/><g data-name="グループ 2255" fill="#fff"><path data-name="パス 6884" d="M111.507 60.921h-8.493l-2-.006a.022.022 0 000 .006h-.023a31.136 31.136 0 01.73 4.386l1.449 1.779a4.853 4.853 0 011.077 3.042v4.351a4.837 4.837 0 01-4.832 4.832h-5.371a4.836 4.836 0 01-4.832-4.832v-4.351a4.859 4.859 0 011.083-3.042l1.142-1.414a26.957 26.957 0 00-1.084-4.751H70.514a26.436 26.436 0 00-1.107 4.954l.985 1.211a4.85 4.85 0 011.077 3.042v4.351a4.837 4.837 0 01-4.832 4.832h-5.371a4.837 4.837 0 01-4.832-4.832v-4.351a4.856 4.856 0 011.084-3.042l1.657-2.045c.077-.766.208-1.673.4-2.693.094-.465.181-.927.3-1.4v-.022h-10.7a5.176 5.176 0 00-5.174 5.261l.689 39.828a5.191 5.191 0 00.84 2.746l2.15 3.28a5.175 5.175 0 004.328 2.341h56.665a5.175 5.175 0 004.328-2.341l2.15-3.28a5.191 5.191 0 00.846-2.746l.684-39.828a5.169 5.169 0 00-5.174-5.266zm-14.305 45.7a.083.083 0 00.023-.017 40.729 40.729 0 0011.339-12.6.783.783 0 01.7-.417.815.815 0 01.828.834l-.209 12.092a.766.766 0 01-.134.434l-.51.782a.823.823 0 01-.69.371H97.688a.818.818 0 01-.487-1.477z"/><path data-name="パス 6885" d="M59.332 70.128v4.351a1.939 1.939 0 001.935 1.935h5.371a1.939 1.939 0 001.935-1.935v-4.351a1.92 1.92 0 00-.435-1.217l-1.227-1.518a1.932 1.932 0 01-.429-1.391 27.662 27.662 0 011.008-5.081c.1-.371.226-.759.353-1.159.122-.376.255-.759.4-1.159a47.758 47.758 0 011.362-3.4c2.4-5.383 6.043-8.112 10.829-8.112s8.436 2.729 10.835 8.112a45.905 45.905 0 011.755 4.559c.127.4.249.788.353 1.159a27.887 27.887 0 01.985 4.849 1.917 1.917 0 01-.417 1.414l-1.4 1.726a1.952 1.952 0 00-.435 1.217v4.351a1.939 1.939 0 001.935 1.935h5.371a1.935 1.935 0 001.935-1.935v-4.35a1.92 1.92 0 00-.435-1.217l-1.625-2.008a1.9 1.9 0 01-.423-1.055 30.353 30.353 0 00-.852-4.925 40.88 40.88 0 00-.313-1.159c-.11-.376-.226-.759-.354-1.159a49.948 49.948 0 00-1.993-5.215c-3.965-8.895-10.304-10.767-14.922-10.767s-10.951 1.872-14.913 10.765a50.585 50.585 0 00-1.993 5.215c-.133.4-.249.782-.353 1.159a59.17 59.17 0 00-.313 1.159 30.647 30.647 0 00-.829 4.67 1.928 1.928 0 01-.423 1.048l-1.842 2.271a1.953 1.953 0 00-.436 1.218z"/></g></g></svg>