<svg xmlns="http://www.w3.org/2000/svg" width="160" height="160"><g data-name="グループ 3187" transform="translate(-1040 -912)"><circle data-name="楕円形 289" cx="80" cy="80" r="80" transform="translate(1040 912)" fill="#00d392"/><g data-name="グループ 2258"><path data-name="パス 6890" d="M1149.583 1011.05l-6.6-1.222-1.222-6.6-6.6-1.222.854-8.107-3.433-3.433-3.358-3.358a22.768 22.768 0 001.2-6.283v-.08c.021-.474.031-.948.023-1.421 0-.288-.025-.573-.041-.86-.011-.219-.016-.438-.035-.656a22.552 22.552 0 00-.132-1.136c-.018-.133-.029-.266-.049-.4-.057-.378-.133-.752-.209-1.127-.029-.139-.051-.279-.082-.418-.07-.312-.156-.621-.24-.93-.055-.206-.1-.414-.166-.618s-.134-.4-.2-.6c-.1-.313-.205-.627-.323-.936-.021-.057-.047-.112-.07-.168a22.722 22.722 0 10-13.789 29.751l3.358 3.358 23.417 23.417 12.1-2.013.222-10.312zm-51.288-32.488a5.845 5.845 0 118.266 0 5.844 5.844 0 01-8.266 0zm24.276 24.139a22.623 22.623 0 003.052-2.151l14.291 14.291 8.218 8.235-4.455.738-16.827-16.83z" fill="#fff"/></g></g></svg>