<svg xmlns="http://www.w3.org/2000/svg" width="150.25" height="130.214"><g data-name="グループ 3201" fill="#00d392"><path data-name="パス 9613" d="M36.26 130.214q-11.76 0-19.88-6.51t-12.25-17.92A76.007 76.007 0 010 79.814a76.459 76.459 0 014.13-26.11q4.13-11.41 12.25-17.85t19.88-6.44q11.76 0 19.81 6.44t12.25 17.85a75.3 75.3 0 014.2 26.11 74.856 74.856 0 01-4.2 25.97q-4.2 11.41-12.25 17.92t-19.81 6.51zm0-14.14a16.31 16.31 0 0011.27-4.2q4.69-4.2 7.28-12.32a65.53 65.53 0 002.59-19.74 66.081 66.081 0 00-2.59-19.88q-2.59-8.12-7.28-12.32a16.31 16.31 0 00-11.27-4.2 16.567 16.567 0 00-11.34 4.2q-4.76 4.2-7.28 12.32a67.8 67.8 0 00-2.52 19.88 67.233 67.233 0 002.52 19.74q2.52 8.12 7.28 12.32a16.567 16.567 0 0011.34 4.2zm75.04 13.72a40.495 40.495 0 01-11.27-1.68 27.045 27.045 0 01-9.87-5.04 8.308 8.308 0 01-2.38-3.22 9.577 9.577 0 01-.84-3.78 5.684 5.684 0 011.75-3.85 6.257 6.257 0 014.83-1.89q2.24 0 5.18 2.24a34.181 34.181 0 005.95 3.08 17.375 17.375 0 006.51 1.26 25.572 25.572 0 0011.97-2.8 21.8 21.8 0 008.54-7.77 19.875 19.875 0 003.15-10.85 19.078 19.078 0 00-2.66-10.29 18.345 18.345 0 00-7.21-6.65 21.563 21.563 0 00-10.15-2.38 21.367 21.367 0 00-8.19 1.47 67.874 67.874 0 00-6.3 2.94 10.654 10.654 0 01-4.97 1.47 8.318 8.318 0 01-5.53-1.61 6.934 6.934 0 01-2.38-3.92 12.224 12.224 0 01-.21-4.27l4.9-35.84a6.617 6.617 0 012.31-3.99 6.981 6.981 0 014.69-1.61h41.02a6.368 6.368 0 014.69 1.89 6.368 6.368 0 011.89 4.69 6.139 6.139 0 01-1.89 4.62 6.5 6.5 0 01-4.69 1.82h-37.52l1.54-1.26-4.48 30.8-2.1-4.2a12.7 12.7 0 014.27-2.73 39.451 39.451 0 016.86-2.24 33.668 33.668 0 017.77-.91 33.275 33.275 0 0116.59 4.13 30.143 30.143 0 0111.55 11.41 32.454 32.454 0 014.2 16.52 31.713 31.713 0 01-2.94 13.58 34.19 34.19 0 01-8.12 10.99 37.629 37.629 0 01-11.97 7.28 40.31 40.31 0 01-14.49 2.59z" opacity=".304"/><path data-name="パス 9612" d="M88.027 15.12a8.855 8.855 0 01-2.646-.367 6.339 6.339 0 01-2.247-1.292 1.657 1.657 0 01-.42-.525 1.3 1.3 0 01-.147-.588 1.2 1.2 0 01.347-.85 1.147 1.147 0 01.871-.368 1.112 1.112 0 01.714.252 6.678 6.678 0 001.585.987 4.956 4.956 0 001.943.336 4.076 4.076 0 001.428-.242 2.8 2.8 0 001.05-.651 1.3 1.3 0 00.4-.935 1.59 1.59 0 00-.379-1.067 2.871 2.871 0 00-1.155-.745 8.889 8.889 0 00-1.974-.473 8.811 8.811 0 01-1.995-.515 4.633 4.633 0 01-1.438-.882 3.487 3.487 0 01-.874-1.262 4.294 4.294 0 01-.294-1.627 3.852 3.852 0 01.7-2.331 4.406 4.406 0 011.9-1.47 6.752 6.752 0 012.646-.5 7.583 7.583 0 012.531.409 5.892 5.892 0 011.9 1.04 1.4 1.4 0 01.617 1.108 1.2 1.2 0 01-.357.84 1.119 1.119 0 01-.84.378.921.921 0 01-.567-.189 3.792 3.792 0 00-.9-.557 8.1 8.1 0 00-1.2-.441 4.328 4.328 0 00-1.176-.179 4.383 4.383 0 00-1.522.231 2.081 2.081 0 00-.935.63 1.449 1.449 0 00-.315.924 1.5 1.5 0 00.367 1.04 2.5 2.5 0 001.061.651 12.252 12.252 0 001.659.431 16.816 16.816 0 012.215.546 5.182 5.182 0 011.585.808 3.061 3.061 0 01.944 1.235 4.665 4.665 0 01.315 1.816 3.755 3.755 0 01-.756 2.352 4.84 4.84 0 01-1.984 1.517 6.689 6.689 0 01-2.657.525zM107.179.92a1.115 1.115 0 01.641.861 1.294 1.294 0 01-.3 1.071.955.955 0 01-.7.42 1.634 1.634 0 01-.872-.168 5.4 5.4 0 00-1.061-.357 5.264 5.264 0 00-1.165-.126 5.42 5.42 0 00-2.027.357 4.253 4.253 0 00-1.522 1.019 4.4 4.4 0 00-.956 1.564 5.847 5.847 0 00-.326 2 6.129 6.129 0 00.368 2.226 4.347 4.347 0 001.011 1.574 4.1 4.1 0 001.533.934 5.819 5.819 0 001.911.3 6.216 6.216 0 001.134-.105 3.892 3.892 0 001.092-.378 1.492 1.492 0 01.872-.147 1.1 1.1 0 01.724.441 1.267 1.267 0 01.3 1.082 1.107 1.107 0 01-.64.809 7.385 7.385 0 01-1.124.451 8.521 8.521 0 01-1.166.273 7.532 7.532 0 01-1.2.094 8.47 8.47 0 01-2.867-.483 7.259 7.259 0 01-2.407-1.422 6.6 6.6 0 01-1.669-2.362 8.267 8.267 0 01-.609-3.286 7.825 7.825 0 01.556-2.982 6.925 6.925 0 011.58-2.364 7.262 7.262 0 012.4-1.554 8.042 8.042 0 013.024-.556 7.77 7.77 0 011.806.21 7.337 7.337 0 011.659.608zm5.211-.71h7.035a1.28 1.28 0 01.914.347 1.172 1.172 0 01.368.892 1.082 1.082 0 01-.368.851 1.328 1.328 0 01-.914.325h-5.88l.189-.357v4.1l-.168-.168h4.914a1.28 1.28 0 01.914.347 1.172 1.172 0 01.367.892 1.082 1.082 0 01-.367.851 1.328 1.328 0 01-.914.325h-4.851l.1-.168v4.242l-.168-.189h5.859a1.24 1.24 0 01.914.368 1.168 1.168 0 01.368.85 1.114 1.114 0 01-.368.861 1.3 1.3 0 01-.912.331h-7.032a1.24 1.24 0 01-.913-.368 1.24 1.24 0 01-.368-.914V1.491a1.24 1.24 0 01.368-.914 1.24 1.24 0 01.913-.367zm22.932 0a1.071 1.071 0 01.819.336 1.181 1.181 0 01.315.84v12.243a1.24 1.24 0 01-.366.913 1.24 1.24 0 01-.918.368 1.753 1.753 0 01-.557-.094.961.961 0 01-.425-.263l-8.253-10.479.546-.336v10a1.159 1.159 0 01-.326.84 1.131 1.131 0 01-.855.332 1.071 1.071 0 01-.819-.336 1.181 1.181 0 01-.315-.84V1.491a1.24 1.24 0 01.367-.914 1.24 1.24 0 01.914-.367 1.765 1.765 0 01.609.115.885.885 0 01.462.347l8 10.206-.357.252V1.386a1.181 1.181 0 01.315-.84 1.1 1.1 0 01.841-.336zm6.615 0h7.035a1.28 1.28 0 01.914.347 1.172 1.172 0 01.367.892 1.082 1.082 0 01-.367.851 1.328 1.328 0 01-.914.325h-5.882l.189-.357v4.1l-.168-.168h4.914a1.28 1.28 0 01.913.347 1.172 1.172 0 01.367.892 1.082 1.082 0 01-.367.851 1.328 1.328 0 01-.913.325h-4.852l.105-.168v4.242l-.168-.189h5.859a1.24 1.24 0 01.914.368 1.168 1.168 0 01.367.842 1.114 1.114 0 01-.367.861 1.3 1.3 0 01-.914.339h-7.035a1.24 1.24 0 01-.913-.368 1.24 1.24 0 01-.368-.914V1.491a1.24 1.24 0 01.368-.914 1.24 1.24 0 01.913-.367z" opacity=".305"/></g></svg>