<svg xmlns="http://www.w3.org/2000/svg" width="583" height="138.279"><g data-name="グループ 3198"><g data-name="パス 7002" fill="#fde94c" stroke-linejoin="round"><path d="M293.012 132.97l-14.667-21.515-.893-1.31H3L3.002 3H580v107.144H308.72l-.894 1.3-14.814 21.526z"/><path d="M293.024 127.662l12.33-17.919a6 6 0 014.943-2.599H577V6H6.002l-.001 101.144h269.865a6 6 0 014.958 2.62l12.2 17.898M293 138.279l-17.134-25.135H0L.002 0H583v113.144H310.297L293 138.28z" fill="#3b4043"/></g><path data-name="パス 11929" d="M43.94 52.014c2.268.168 4.676.308 7.588.308 2.632 0 6.076-.2 8.008-.336v-3.724c-2.128.224-5.292.392-8.036.392a72.671 72.671 0 01-7.56-.336zm-1.288 7.728a17.835 17.835 0 00-.56 4c0 3.808 3.192 5.936 9.548 5.936a42.336 42.336 0 009.632-.952l-.028-3.892a39.32 39.32 0 01-9.744 1.092c-4 0-5.684-1.288-5.684-3.052a11.5 11.5 0 01.476-2.8zm33.012 3.836c-1.036 0-2.156-1.372-2.156-4.172a8.694 8.694 0 017.028-8.036 44.508 44.508 0 01-1.484 6.72c-1.12 3.748-2.24 5.484-3.388 5.484zm7.616 6.188c7-1.064 10.584-5.208 10.584-11.032 0-6.048-4.34-10.836-11.2-10.836-7.2 0-12.768 5.488-12.768 11.872 0 4.676 2.6 8.064 5.656 8.064 3.024 0 5.432-3.416 7.084-9.016a60.262 60.262 0 001.652-7.532c3.724.644 5.8 3.5 5.8 7.336 0 4.032-2.744 6.58-6.3 7.42-.728.168-1.512.308-2.576.448zm27.412-5.6c0 1.82-.644 2.632-2.436 2.632-1.932 0-3.332-.5-3.332-1.876 0-1.176 1.288-1.9 3.444-1.9a15.231 15.231 0 012.3.2c.024.352.024.692.024.94zm11.984 1.288a21.926 21.926 0 00-8.428-4.76c-.14-2.044-.252-4.228-.308-5.908 2.24-.056 5.544-.168 7.868-.392l-.14-3.3c-2.3.252-5.544.364-7.728.42v-2.016c.056-1.092.14-2.436.252-3.248h-4.172a17.592 17.592 0 01.28 3.248c.028 1.176.056 2.828.056 4.508 0 1.456.112 3.836.2 5.992a15.912 15.912 0 00-1.652-.084c-5.1 0-7.56 2.3-7.56 5.18 0 3.78 3.248 5.068 7.2 5.068 4.648 0 5.908-2.352 5.908-4.788 0-.28 0-.588-.028-.952a21.417 21.417 0 016.124 4.332zm24.92-6.048c0 4.34-4.4 6.58-11.284 7.364l2.016 3.472c7.7-1.064 13.188-4.76 13.188-10.7 0-4.34-3.08-6.832-7.476-6.832a38.413 38.413 0 00-8.372 1.26 27.186 27.186 0 01-3.024.476l1.036 3.948c.812-.28 1.876-.7 2.688-.952a24.88 24.88 0 017.224-1.344c2.608-.028 4.008 1.484 4.008 3.304zm-10.864-13.332l-.56 3.36c3.192.56 9.212 1.092 12.46 1.316l.56-3.416a78.322 78.322 0 01-12.46-1.26zm48.44 7.252a49.894 49.894 0 00-6.832-3.752l-1.792 2.744a36.97 36.97 0 016.664 3.948zm-10.444-4.256a29.288 29.288 0 01-3.724.868c.392-1.484.728-2.884.952-3.78l-3.836-.392a23.609 23.609 0 01-.756 4.648c-.84.056-1.68.084-2.492.084a35.245 35.245 0 01-3.7-.2l.252 3.248c1.2.056 2.324.084 3.472.084.476 0 .952 0 1.428-.028a42.307 42.307 0 01-5.656 9.8l3.392 1.712A51.184 51.184 0 00170 53.242a40.634 40.634 0 004.816-.952zm.672 15.428c0 1.484-.616 2.576-2.492 2.576-1.512 0-2.38-.7-2.38-1.736 0-.98 1.036-1.652 2.632-1.652a9.814 9.814 0 012.24.28zm-.448-9.716c.084 1.68.224 4.116.308 6.188a19.877 19.877 0 00-1.876-.112c-3.864 0-6.132 2.1-6.132 4.816 0 3.052 2.716 4.592 6.16 4.592 3.948 0 5.348-2.016 5.348-4.592v-.252a24.685 24.685 0 013.752 2.94l1.848-2.968a18.472 18.472 0 00-5.74-3.556 145.17 145.17 0 01-.168-3.5c-.028-1.232-.084-2.38 0-3.556zm22.68-8.344l-2.044 3.08c1.848 1.036 4.76 2.94 6.328 4.032l2.1-3.108c-1.456-1.008-4.536-2.968-6.384-4.004zm-5.208 19.876l2.1 3.7a34.07 34.07 0 009.352-3.472A33.808 33.808 0 00215.02 56.49l-2.156-3.808a28.543 28.543 0 01-10.892 10.5 31.07 31.07 0 01-9.548 3.132zm.9-13.5l-2.044 3.108a73.128 73.128 0 016.38 3.984l2.044-3.136c-1.428-1.008-4.504-2.94-6.384-3.948zm28.476 7.232c1.036-.084 2.912-.14 4.508-.14h15.032c1.176 0 2.6.112 3.276.14v-4.4c-.728.056-1.988.168-3.276.168H226.3c-1.456 0-3.5-.084-4.508-.168zm33.008-12.712l-2.632 2.8a58.219 58.219 0 017 6.048l2.856-2.94a58.8 58.8 0 00-7.224-5.908zm-3.5 18.648l2.352 3.7a30.323 30.323 0 0010.388-3.952 29.774 29.774 0 0010.36-10.36l-2.184-3.948a26.55 26.55 0 01-10.192 10.892 28.859 28.859 0 01-10.724 3.668zm47.712-11.928l-2.072.868a21.6 21.6 0 012.184 3.892l2.128-.952a36.7 36.7 0 00-2.24-3.808zm3.136-1.288l-2.044.948a24.632 24.632 0 012.3 3.78l2.1-1.008a41.882 41.882 0 00-2.356-3.72zm-21.812-3.3l.364 3.808c3.22-.7 9.044-1.316 11.452-1.568a11 11 0 00-4.088 8.54c0 6.02 5.488 9.156 11.312 9.52l1.288-3.84c-4.7-.224-8.96-1.876-8.96-6.44a8.417 8.417 0 015.852-7.756 28.634 28.634 0 015.348-.364l-.028-3.584c-1.96.084-4.984.252-7.84.476-5.068.448-9.66.868-11.984 1.064-.532.056-1.596.112-2.716.14zM312.8 60.014a18.514 18.514 0 00-.532 4c0 3.808 3.164 5.936 9.52 5.936a44.23 44.23 0 009.628-.916l-.028-3.92a39.32 39.32 0 01-9.744 1.092c-4 0-5.656-1.288-5.656-3.052a11.41 11.41 0 01.448-2.8zm15.48-13.464a21.307 21.307 0 011.2 2.016c-2.128.2-5.18.364-7.84.364a71.72 71.72 0 01-7.532-.336v3.7c2.24.168 4.648.308 7.56.308 2.632 0 6.076-.2 8.008-.336v-3.332c.28.56.56 1.092.784 1.54l2.268-.98c-.532-1.036-1.54-2.8-2.24-3.836zm3.3-1.26a29.686 29.686 0 012.268 3.864l2.212-.952a30.909 30.909 0 00-2.26-3.808zm17.056 10.948h4.816v-3.052h-4.816v-4.172a36.4 36.4 0 004.732-1.456l-2.352-2.576a47.285 47.285 0 01-11.256 2.884 10.447 10.447 0 01.952 2.6c1.512-.2 3.108-.448 4.7-.756v3.472H340.1v3.052h4.676a27.122 27.122 0 01-5.32 8.064 18.74 18.74 0 011.68 3.248 27.857 27.857 0 004.284-6.58v10.028h3.22v-9.66c1.116 1.148 2.292 2.408 2.96 3.28l1.936-2.86c-.756-.588-3.528-2.968-4.9-4zm9.38-7.952h-3.248v15.652h3.248zm3.36-2.856v21.532c0 .5-.224.672-.756.7-.588 0-2.38 0-4.2-.084a12.779 12.779 0 011.148 3.444c2.548.028 4.424-.084 5.572-.644 1.148-.532 1.54-1.456 1.54-3.388V45.43zm23.604 14.308v-3.444h5.908v3.444zm-8.708 0c.056-1.036.084-2.044.084-2.94v-.5h5.264v3.444zm5.348-9.8v3.248h-5.264v-3.248zm9.268 3.248h-5.908v-3.248h5.908zm3.3-6.412h-21.136v10c0 3.92-.252 8.9-3.3 12.264a12.3 12.3 0 012.628 2.152 16.035 16.035 0 003.528-8.316h5.712v7.812h3.36v-7.812h5.908v4.2c0 .5-.2.672-.728.672-.5 0-2.352.028-3.92-.056a12.588 12.588 0 011.06 3.192c2.52.028 4.228-.028 5.376-.588 1.12-.5 1.512-1.4 1.512-3.192zm22.316-1.148a19.152 19.152 0 01-2.128 2.324c-1.876 1.848-5.684 4.928-7.84 6.692-2.772 2.3-3 3.836-.252 6.16 2.548 2.156 6.776 5.768 8.288 7.364.784.84 1.652 1.708 2.436 2.576l3.22-2.968c-2.744-2.66-8.092-6.888-10.164-8.652-1.512-1.288-1.54-1.6-.056-2.856 1.848-1.6 5.516-4.424 7.308-5.88.644-.5 1.568-1.232 2.436-1.876zm36.6 5.6a38.515 38.515 0 00-2.212-3.836l-2.212.924a31.349 31.349 0 012.184 3.892zm-9.52 7.084a46.23 46.23 0 015.348-.308 39.725 39.725 0 014.76.364l.084-3.36a48.007 48.007 0 00-4.872-.224 52.236 52.236 0 00-5.32.28zm2.184-8.876a51.85 51.85 0 01-4.648.9l.224-1.036c.14-.616.392-1.848.588-2.632l-4.228-.336a14.608 14.608 0 01-.112 2.828c-.056.42-.14.98-.252 1.568-.84.056-1.652.084-2.464.084a26.86 26.86 0 01-3.5-.2l.084 3.444c.98.056 2.016.112 3.36.112.56 0 1.176-.028 1.82-.056-.168.784-.392 1.568-.588 2.324a61.775 61.775 0 01-4.788 12.488l3.892 1.292a90.63 90.63 0 004.4-12.824 73.04 73.04 0 00.84-3.556 49.91 49.91 0 005.376-.924zm-3.892 12.292a18.477 18.477 0 00-.476 3.7c0 2.8 2.38 4.424 7.056 4.424a44.37 44.37 0 005.656-.396l.14-3.556a34.928 34.928 0 01-5.768.56c-2.968 0-3.668-.924-3.668-2.128a9.816 9.816 0 01.392-2.324zm10.108-14.7a29.685 29.685 0 012.268 3.864l2.212-.952a33.135 33.135 0 00-2.268-3.808zm13.076 12.488a18.794 18.794 0 00-.784 4.564c0 3.864 3 5.964 8.568 5.964a38.859 38.859 0 007.476-.672l.084-3.668a30.658 30.658 0 01-7.56.812c-3.92 0-4.956-1.372-4.956-3.388a12.444 12.444 0 01.756-3.3zm18.088-10.892a40.563 40.563 0 01-5.432 1.4c-.616-1.456-1.148-2.772-1.624-4.228l-3.92.756a21.524 21.524 0 011.372 2.66c.168.42.364.868.588 1.316a47.241 47.241 0 01-10.36-.28l.112 3.556a62.3 62.3 0 0011.676 0c.812 1.736 1.764 3.668 2.436 5.068-.84-.056-2.352-.224-3.276-.308l-.308 2.852c2.044.252 4.788.7 6.3 1.008l1.96-2.1c-1.2-2.212-2.52-4.844-3.584-7.084 1.68-.336 3.3-.728 4.7-1.12zm14.168.056l-4.256-.056a16.07 16.07 0 01.2 2.8c0 1.708.056 4.928.308 7.476.784 7.448 3.444 10.192 6.468 10.192 2.24 0 3.976-1.708 5.824-6.524l-2.8-3.36c-.532 2.184-1.624 5.432-2.94 5.432-1.736 0-2.576-2.716-2.968-6.72-.168-1.988-.2-4.088-.168-5.88a21.972 21.972 0 01.332-3.36zm13.86.588l-3.528 1.176c3.024 3.416 4.508 9.94 4.928 14.392l3.668-1.4c-.308-4.256-2.436-10.948-5.068-14.168zm21.616 12.148h2.884l.98-9.576.14-4.172h-5.124l.112 4.172zm1.428 7.452a2.739 2.739 0 002.912-2.744 2.777 2.777 0 00-2.912-2.772 2.777 2.777 0 00-2.912 2.772 2.739 2.739 0 002.912 2.744z" fill="#333"/></g></svg>