<svg xmlns="http://www.w3.org/2000/svg" width="295" height="117.882"><g data-name="グループ 3200"><g data-name="パス 11898" fill="#fde94c" stroke-linejoin="round"><path d="M148.271 112.33l-6.154-9.63-.885-1.385H3L3.001 3h289v98.315H155.376l-.886 1.374-6.22 9.64z"/><path d="M148.283 106.777l3.687-5.715a6 6 0 015.042-2.747H289V6H6.001v92.315h133.588a6 6 0 015.056 2.769l3.638 5.693m-.024 11.105l-8.67-13.567H0L.001 0h295v104.315H157.01l-8.752 13.567z" fill="#3b4043"/></g><path data-name="パス 11930" d="M46.85 31.964c1.782.132 3.674.242 5.962.242 2.068 0 4.774-.154 6.292-.264v-2.926c-1.672.176-4.158.308-6.314.308a57.1 57.1 0 01-5.94-.264zm-1.012 6.072a14.013 14.013 0 00-.44 3.146c0 2.992 2.508 4.664 7.5 4.664a33.264 33.264 0 007.568-.748l-.022-3.058a30.9 30.9 0 01-7.656.858c-3.146 0-4.466-1.012-4.466-2.4a9.039 9.039 0 01.374-2.2zm25.938 3.014c-.814 0-1.694-1.078-1.694-3.278a6.831 6.831 0 015.518-6.314 34.971 34.971 0 01-1.166 5.28c-.876 2.948-1.756 4.312-2.658 4.312zm5.984 4.86c5.5-.836 8.316-4.092 8.316-8.668 0-4.752-3.41-8.514-8.8-8.514-5.654 0-10.032 4.312-10.032 9.328 0 3.674 2.046 6.336 4.444 6.336 2.376 0 4.268-2.684 5.566-7.084a47.347 47.347 0 001.3-5.918c2.926.506 4.554 2.75 4.554 5.764 0 3.168-2.156 5.17-4.95 5.83-.572.132-1.188.242-2.024.352zm21.54-4.4c0 1.43-.506 2.068-1.914 2.068-1.518 0-2.618-.4-2.618-1.474 0-.924 1.012-1.5 2.706-1.5a11.967 11.967 0 011.8.154c.026.292.026.552.026.752zm9.416 1.012a17.228 17.228 0 00-6.622-3.74c-.11-1.606-.2-3.322-.242-4.642 1.76-.044 4.356-.132 6.182-.308l-.11-2.6c-1.8.2-4.356.286-6.072.33v-1.578c.044-.858.11-1.914.2-2.552H98.77a13.822 13.822 0 01.22 2.552c.022.924.044 2.222.044 3.542 0 1.144.088 3.014.154 4.708a12.5 12.5 0 00-1.3-.066c-4 0-5.94 1.8-5.94 4.07 0 2.97 2.552 3.982 5.654 3.982 3.652 0 4.642-1.848 4.642-3.762 0-.22 0-.462-.022-.748a16.827 16.827 0 014.818 3.41zm19.58-4.752c0 3.41-3.454 5.17-8.866 5.786l1.584 2.728c6.05-.836 10.362-3.74 10.362-8.4 0-3.41-2.42-5.368-5.874-5.368a30.182 30.182 0 00-6.578.99 21.36 21.36 0 01-2.376.374l.814 3.1c.638-.22 1.474-.55 2.112-.748a19.548 19.548 0 015.676-1.056c2.044-.022 3.144 1.166 3.144 2.596zm-8.538-10.47l-.44 2.64c2.508.44 7.238.858 9.79 1.034l.44-2.684a61.538 61.538 0 01-9.79-.99zm38.06 5.7a39.2 39.2 0 00-5.368-2.948l-1.408 2.158a29.048 29.048 0 015.236 3.1zm-8.206-3.344a23.012 23.012 0 01-2.926.682c.308-1.166.572-2.266.748-2.97l-3.014-.308a18.549 18.549 0 01-.594 3.652c-.66.044-1.32.066-1.958.066a27.693 27.693 0 01-2.9-.154l.2 2.552c.946.044 1.826.066 2.728.066.374 0 .748 0 1.122-.022a33.241 33.241 0 01-4.444 7.7l2.662 1.342a40.216 40.216 0 004.664-9.328 31.927 31.927 0 003.784-.748zm.528 12.122c0 1.166-.484 2.024-1.958 2.024-1.188 0-1.87-.55-1.87-1.364 0-.77.814-1.3 2.068-1.3a7.71 7.71 0 011.76.22zm-.352-7.634c.066 1.32.176 3.234.242 4.862a15.617 15.617 0 00-1.474-.088c-3.036 0-4.818 1.65-4.818 3.784 0 2.4 2.134 3.608 4.84 3.608 3.1 0 4.2-1.584 4.2-3.608v-.2a19.4 19.4 0 012.948 2.31l1.452-2.332a14.514 14.514 0 00-4.51-2.794c-.066-1.078-.11-2.134-.132-2.75-.022-.968-.066-1.87 0-2.794zm17.82-6.556L166 30.01c1.452.814 3.74 2.31 4.972 3.168l1.65-2.442c-1.142-.796-3.562-2.336-5.014-3.15zm-4.092 15.622l1.65 2.9a26.77 26.77 0 007.348-2.728 26.564 26.564 0 008.756-7.9l-1.694-2.992a22.426 22.426 0 01-8.558 8.25 24.413 24.413 0 01-7.502 2.47zm.7-10.6l-1.606 2.442a57.459 57.459 0 015.016 3.124l1.606-2.464c-1.118-.802-3.538-2.318-5.012-3.11zm22.374 5.676c.814-.066 2.288-.11 3.542-.11h11.818c.924 0 2.046.088 2.574.11v-3.462c-.572.044-1.562.132-2.574.132h-11.814c-1.144 0-2.75-.066-3.542-.132zm25.942-9.996l-2.068 2.2a45.743 45.743 0 015.5 4.752l2.244-2.31a46.2 46.2 0 00-5.676-4.642zm-2.75 14.652l1.848 2.9a23.825 23.825 0 008.162-3.1 23.394 23.394 0 008.14-8.14l-1.716-3.1a20.861 20.861 0 01-8.008 8.558 22.675 22.675 0 01-8.426 2.882zm37.488-9.372l-1.628.682a16.975 16.975 0 011.716 3.058l1.672-.748a28.832 28.832 0 00-1.76-2.992zm2.464-1.012l-1.606.748a19.355 19.355 0 011.8 2.97l1.65-.792a32.9 32.9 0 00-1.844-2.926zm-17.138-2.6l.286 2.992c2.53-.55 7.106-1.034 9-1.232a8.639 8.639 0 00-3.212 6.71c0 4.73 4.312 7.194 8.888 7.48l1.012-3.014c-3.7-.176-7.04-1.474-7.04-5.06a6.613 6.613 0 014.6-6.094 22.5 22.5 0 014.2-.286l-.022-2.816c-1.54.066-3.916.2-6.16.374-3.982.352-7.59.682-9.416.836-.42.048-1.256.092-2.132.114zM56.684 70.256a14.546 14.546 0 00-.418 3.146c0 2.992 2.486 4.664 7.48 4.664a34.752 34.752 0 007.568-.726l-.022-3.08a30.894 30.894 0 01-7.656.858c-3.146 0-4.444-1.012-4.444-2.4a8.965 8.965 0 01.352-2.2zM68.85 59.674a16.742 16.742 0 01.946 1.584c-1.672.154-4.07.286-6.16.286a56.351 56.351 0 01-5.918-.264v2.9c1.76.132 3.652.242 5.94.242 2.068 0 4.774-.154 6.292-.264v-2.614c.22.44.44.858.616 1.21l1.782-.77c-.418-.814-1.21-2.2-1.76-3.014zm2.6-.99a23.325 23.325 0 011.782 3.036l1.738-.748a24.285 24.285 0 00-1.782-2.992zm13.4 8.6h3.784v-2.4h-3.79V61.61a28.6 28.6 0 003.718-1.144l-1.848-2.024a37.152 37.152 0 01-8.844 2.268 8.208 8.208 0 01.748 2.046 61.758 61.758 0 003.7-.594v2.728h-4.18v2.4h3.674a21.31 21.31 0 01-4.18 6.336 14.724 14.724 0 011.32 2.552 21.887 21.887 0 003.366-5.17v7.872h2.53v-7.59c.88.9 1.8 1.892 2.332 2.574l1.518-2.244c-.594-.462-2.772-2.332-3.85-3.146zm7.37-6.248h-2.558v12.3h2.552zm2.64-2.244V75.71c0 .4-.176.528-.594.55-.462 0-1.87 0-3.3-.066a10.041 10.041 0 01.9 2.706 10.833 10.833 0 004.378-.506c.9-.418 1.21-1.144 1.21-2.662V58.794zm18.54 11.244V67.33h4.642v2.706zm-6.842 0c.044-.814.066-1.606.066-2.31v-.4h4.136v2.706zm4.2-7.7v2.552h-4.136v-2.552zm7.282 2.552h-4.64v-2.552h4.642zm2.6-5.038h-16.61v7.854c0 3.08-.2 7-2.6 9.636a9.664 9.664 0 012.068 1.694 12.6 12.6 0 002.772-6.534h4.488v6.138h2.64V72.5h4.642v3.3c0 .4-.154.528-.572.528-.4 0-1.848.022-3.08-.044a9.891 9.891 0 01.836 2.508 10.216 10.216 0 004.224-.462c.88-.4 1.188-1.1 1.188-2.508zm17.534-.9a15.049 15.049 0 01-1.672 1.826c-1.474 1.452-4.466 3.872-6.16 5.258-2.178 1.8-2.354 3.014-.2 4.84 2 1.694 5.324 4.532 6.512 5.786.616.66 1.3 1.342 1.914 2.024l2.53-2.332c-2.156-2.09-6.358-5.412-7.986-6.8-1.188-1.012-1.21-1.254-.044-2.244 1.452-1.254 4.334-3.476 5.742-4.62a82.79 82.79 0 011.914-1.474zm28.754 4.4a30.264 30.264 0 00-1.738-3.014l-1.738.726a24.634 24.634 0 011.716 3.058zm-7.48 5.566a36.324 36.324 0 014.2-.242 31.213 31.213 0 013.74.286l.066-2.64a37.72 37.72 0 00-3.828-.176 41.043 41.043 0 00-4.18.22zm1.716-6.974c-1.188.286-2.42.528-3.652.7l.176-.814c.11-.484.308-1.452.462-2.068l-3.322-.264a11.477 11.477 0 01-.088 2.222c-.044.33-.11.77-.2 1.232-.66.044-1.3.066-1.936.066a21.1 21.1 0 01-2.75-.154l.066 2.706c.77.044 1.584.088 2.64.088.44 0 .924-.022 1.43-.044-.132.616-.308 1.232-.462 1.826a48.537 48.537 0 01-3.762 9.812l3.058 1.012a71.208 71.208 0 003.454-10.076c.242-.9.462-1.87.66-2.794a39.215 39.215 0 004.224-.726zm-3.064 9.656a14.519 14.519 0 00-.374 2.9c0 2.2 1.87 3.476 5.544 3.476a34.862 34.862 0 004.444-.308l.11-2.794a27.443 27.443 0 01-4.532.44c-2.332 0-2.882-.726-2.882-1.672a7.713 7.713 0 01.308-1.826zm7.942-11.55a23.326 23.326 0 011.782 3.036l1.738-.748a26.036 26.036 0 00-1.782-2.992zm10.278 9.812a14.768 14.768 0 00-.616 3.586c0 3.036 2.354 4.686 6.732 4.686a30.533 30.533 0 005.874-.528l.066-2.882a24.089 24.089 0 01-5.94.638c-3.08 0-3.894-1.078-3.894-2.662a9.777 9.777 0 01.594-2.6zm14.212-8.558a31.871 31.871 0 01-4.268 1.1c-.484-1.144-.9-2.178-1.276-3.322l-3.08.594a16.913 16.913 0 011.078 2.09c.132.33.286.682.462 1.034a37.118 37.118 0 01-8.14-.22l.088 2.794a48.948 48.948 0 009.174 0c.638 1.364 1.386 2.882 1.914 3.982-.66-.044-1.848-.176-2.574-.242l-.242 2.244c1.606.2 3.762.55 4.95.792l1.54-1.65a120.018 120.018 0 01-2.816-5.566c1.32-.264 2.6-.572 3.7-.88zm11.132.044l-3.344-.044a12.626 12.626 0 01.154 2.2c0 1.342.044 3.872.242 5.874.616 5.852 2.706 8.008 5.082 8.008 1.76 0 3.124-1.342 4.576-5.126l-2.2-2.64c-.418 1.716-1.276 4.268-2.31 4.268-1.364 0-2.024-2.134-2.332-5.28-.132-1.562-.154-3.212-.132-4.62a17.263 17.263 0 01.264-2.64zm10.89.462l-2.772.924c2.376 2.684 3.542 7.81 3.872 11.308l2.882-1.1c-.242-3.344-1.914-8.602-3.982-11.13zm16.984 9.548h2.262l.77-7.524.11-3.278h-4.026l.088 3.278zm1.122 5.854a2.152 2.152 0 002.288-2.156 2.291 2.291 0 00-4.576 0 2.152 2.152 0 002.288 2.156z" fill="#333"/></g></svg>