<svg xmlns="http://www.w3.org/2000/svg" width="146.89" height="132.214"><g data-name="グループ 2794" fill="#00d392"><path data-name="パス 9611" d="M36.26 132.214q-11.76 0-19.88-6.51t-12.25-17.92A76.007 76.007 0 010 81.814a76.459 76.459 0 014.13-26.11q4.13-11.41 12.25-17.85t19.88-6.44q11.76 0 19.81 6.44t12.25 17.85a75.3 75.3 0 014.2 26.11 74.856 74.856 0 01-4.2 25.97q-4.2 11.41-12.25 17.92t-19.81 6.51zm0-14.14a16.31 16.31 0 0011.27-4.2q4.69-4.2 7.28-12.32a65.53 65.53 0 002.59-19.74 66.081 66.081 0 00-2.59-19.88q-2.59-8.12-7.28-12.32a16.31 16.31 0 00-11.27-4.2 16.567 16.567 0 00-11.34 4.2q-4.76 4.2-7.28 12.32a67.8 67.8 0 00-2.52 19.88 67.233 67.233 0 002.52 19.74q2.52 8.12 7.28 12.32a16.567 16.567 0 0011.34 4.2zm56.14-5.18a8.17 8.17 0 012.31.35 11.146 11.146 0 012.87 1.47 21.246 21.246 0 006.09 3.71 21.367 21.367 0 008.19 1.47 19.422 19.422 0 009.59-2.45 19.707 19.707 0 007.21-6.93 19.664 19.664 0 002.8-10.64 18.588 18.588 0 00-2.59-10.29 16.458 16.458 0 00-6.86-6.02 20.469 20.469 0 00-8.89-2.03 16.849 16.849 0 00-4.34.49q-1.82.49-3.5.98a12.952 12.952 0 01-3.64.49 5.083 5.083 0 01-4.27-1.89 7.188 7.188 0 01-1.47-4.55 6.5 6.5 0 01.63-2.94 12.3 12.3 0 011.89-2.66l25.9-28.56 3.08 2.8H90.3a6.368 6.368 0 01-4.69-1.89 6.368 6.368 0 01-1.89-4.69 5.975 5.975 0 011.89-4.48 6.5 6.5 0 014.69-1.82h44.24q3.78 0 5.53 2.1a7.422 7.422 0 011.75 4.9 6.015 6.015 0 01-.77 2.94 11.85 11.85 0 01-2.03 2.66l-25.9 28.7-3.64-3.78a21.138 21.138 0 013.85-1.12 21.008 21.008 0 014.27-.56 26.033 26.033 0 0114.42 4.06 28.923 28.923 0 019.94 10.85 31.929 31.929 0 013.64 15.33 33.057 33.057 0 01-4.62 17.71 30.737 30.737 0 01-12.81 11.55 41.861 41.861 0 01-18.83 4.06 38.785 38.785 0 01-10.64-1.47 29.241 29.241 0 01-9.1-4.27 8.116 8.116 0 01-3.22-3.01 6.783 6.783 0 01-.84-3.15 7.812 7.812 0 011.96-5.04 6.1 6.1 0 014.9-2.38z" opacity=".304"/><path data-name="パス 9610" d="M84.667 15.12a8.855 8.855 0 01-2.646-.367 6.339 6.339 0 01-2.247-1.292 1.657 1.657 0 01-.42-.525 1.3 1.3 0 01-.147-.588 1.2 1.2 0 01.347-.85 1.147 1.147 0 01.871-.368 1.112 1.112 0 01.714.252 6.678 6.678 0 001.585.987 4.956 4.956 0 001.943.336 4.076 4.076 0 001.428-.242 2.8 2.8 0 001.05-.651 1.3 1.3 0 00.4-.935 1.59 1.59 0 00-.379-1.067 2.871 2.871 0 00-1.155-.745 8.889 8.889 0 00-1.974-.473 8.811 8.811 0 01-1.995-.515 4.633 4.633 0 01-1.438-.882 3.487 3.487 0 01-.874-1.262 4.294 4.294 0 01-.294-1.627 3.852 3.852 0 01.7-2.331 4.406 4.406 0 011.9-1.47 6.752 6.752 0 012.646-.5 7.583 7.583 0 012.531.409 5.892 5.892 0 011.9 1.04 1.4 1.4 0 01.617 1.108 1.2 1.2 0 01-.357.84 1.119 1.119 0 01-.84.378.921.921 0 01-.567-.189 3.792 3.792 0 00-.9-.557 8.1 8.1 0 00-1.2-.441 4.328 4.328 0 00-1.176-.179 4.383 4.383 0 00-1.522.231 2.081 2.081 0 00-.935.63 1.449 1.449 0 00-.315.924 1.5 1.5 0 00.367 1.04 2.5 2.5 0 001.061.651 12.252 12.252 0 001.659.431 16.816 16.816 0 012.215.546 5.182 5.182 0 011.585.808 3.061 3.061 0 01.944 1.235 4.665 4.665 0 01.315 1.816 3.755 3.755 0 01-.756 2.352 4.84 4.84 0 01-1.984 1.517 6.689 6.689 0 01-2.657.525zM103.819.92a1.115 1.115 0 01.641.861 1.294 1.294 0 01-.3 1.071.955.955 0 01-.7.42 1.634 1.634 0 01-.872-.168 5.4 5.4 0 00-1.061-.357 5.264 5.264 0 00-1.165-.126 5.42 5.42 0 00-2.027.357 4.253 4.253 0 00-1.522 1.019 4.4 4.4 0 00-.956 1.564 5.847 5.847 0 00-.326 2 6.129 6.129 0 00.368 2.226 4.347 4.347 0 001.011 1.574 4.1 4.1 0 001.533.934 5.819 5.819 0 001.911.3 6.216 6.216 0 001.134-.105 3.892 3.892 0 001.092-.378 1.492 1.492 0 01.872-.147 1.1 1.1 0 01.724.441 1.267 1.267 0 01.3 1.082 1.107 1.107 0 01-.64.809 7.385 7.385 0 01-1.124.451 8.521 8.521 0 01-1.166.273 7.532 7.532 0 01-1.2.094 8.47 8.47 0 01-2.867-.483 7.259 7.259 0 01-2.407-1.422 6.6 6.6 0 01-1.669-2.362 8.267 8.267 0 01-.609-3.286 7.825 7.825 0 01.556-2.982 6.925 6.925 0 011.58-2.364 7.262 7.262 0 012.4-1.554 8.042 8.042 0 013.024-.556 7.77 7.77 0 011.806.21 7.337 7.337 0 011.659.608zm5.211-.71h7.035a1.28 1.28 0 01.914.347 1.172 1.172 0 01.368.892 1.082 1.082 0 01-.368.851 1.328 1.328 0 01-.914.325h-5.88l.189-.357v4.1l-.168-.168h4.914a1.28 1.28 0 01.914.347 1.172 1.172 0 01.367.892 1.082 1.082 0 01-.367.851 1.328 1.328 0 01-.914.325h-4.851l.1-.168v4.242l-.168-.189h5.859a1.24 1.24 0 01.914.368 1.168 1.168 0 01.368.85 1.114 1.114 0 01-.368.861 1.3 1.3 0 01-.912.331h-7.032a1.24 1.24 0 01-.913-.368 1.24 1.24 0 01-.368-.914V1.491a1.24 1.24 0 01.368-.914 1.24 1.24 0 01.913-.367zm22.932 0a1.071 1.071 0 01.819.336 1.181 1.181 0 01.315.84v12.243a1.24 1.24 0 01-.366.913 1.24 1.24 0 01-.918.368 1.753 1.753 0 01-.557-.094.961.961 0 01-.425-.263l-8.253-10.479.546-.336v10a1.159 1.159 0 01-.326.84 1.131 1.131 0 01-.855.332 1.071 1.071 0 01-.819-.336 1.181 1.181 0 01-.315-.84V1.491a1.24 1.24 0 01.367-.914 1.24 1.24 0 01.914-.367 1.765 1.765 0 01.609.115.885.885 0 01.462.347l8 10.206-.357.252V1.386a1.181 1.181 0 01.315-.84 1.1 1.1 0 01.841-.336zm6.615 0h7.035a1.28 1.28 0 01.914.347 1.172 1.172 0 01.367.892 1.082 1.082 0 01-.367.851 1.328 1.328 0 01-.914.325h-5.882l.189-.357v4.1l-.168-.168h4.914a1.28 1.28 0 01.913.347 1.172 1.172 0 01.367.892 1.082 1.082 0 01-.367.851 1.328 1.328 0 01-.913.325h-4.852l.105-.168v4.242l-.168-.189h5.859a1.24 1.24 0 01.914.368 1.168 1.168 0 01.367.842 1.114 1.114 0 01-.367.861 1.3 1.3 0 01-.914.339h-7.035a1.24 1.24 0 01-.913-.368 1.24 1.24 0 01-.368-.914V1.491a1.24 1.24 0 01.368-.914 1.24 1.24 0 01.913-.367z" opacity=".305"/></g></svg>