<svg xmlns="http://www.w3.org/2000/svg" xmlns:xlink="http://www.w3.org/1999/xlink" width="252.791" height="26.559" viewBox="0 0 252.791 26.559">
  <defs>
    <linearGradient id="linear-gradient" x1="0.242" y1="1.345" x2="0.956" y2="0.328" gradientUnits="objectBoundingBox">
      <stop offset="0" stop-color="#20aee5"/>
      <stop offset="0.389" stop-color="#1dace4"/>
      <stop offset="0.554" stop-color="#0aa5df"/>
      <stop offset="0.677" stop-color="#0099d5"/>
      <stop offset="0.778" stop-color="#0089c6"/>
      <stop offset="0.867" stop-color="#0075b5"/>
      <stop offset="0.945" stop-color="#005fa0"/>
      <stop offset="1" stop-color="#004d8f"/>
    </linearGradient>
  </defs>
  <g id="グループ_89" data-name="グループ 89" transform="translate(-0.066)">
    <g id="グループ_82" data-name="グループ 82">
      <path id="パス_416" data-name="パス 416" d="M54.559,23.921l.575,2.56H67.361v-.1h0V13.947H58.656V8.629h8.705l-.575-2.561H54.559V8.629h0v5.318h0v2.56h8.706v7.414Z" fill="#fff"/>
      <path id="パス_417" data-name="パス 417" d="M110.246,26.551h8.128l.577-2.56h-8.7V8.629h8.7l-.577-2.561H106.149V26.551h4.1Z" fill="#fff"/>
      <path id="パス_418" data-name="パス 418" d="M135.643,8.629l-.576-2.561H122.841V8.629h0v5.318h0v2.56h0v7.484h0v2.56h12.226l.576-2.56h-8.7V16.507h7.105l-.577-2.56h-6.528V8.629Z" fill="#fff"/>
      <path id="パス_419" data-name="パス 419" d="M80.749,26.551h4.1V6.068h-4.1V23.991H76.14V6.068h-4.1V26.551h8.706Z" fill="#fff"/>
      <path id="パス_420" data-name="パス 420" d="M93.551,26.551h8.13l.576-2.56H93.551V8.629h8.706l-.576-2.561H89.454V26.551Z" fill="#fff"/>
      <path id="パス_421" data-name="パス 421" d="M165.123,16.762c-3.1-2.5-5.12-4.26-5.12-4.26a2.743,2.743,0,0,1-1.025-2.075c0-1.8,1.849-1.758,2.089-1.758h2.955c1.842.166,3.038.964,2.225,4.413l1.412-5.988c.267-1.058-.208-1.026-.474-1.026H160s-5.139-.16-5.139,4.6c0,3.695,2.1,4.809,5.139,7.341,2.824,2.353,3.569,2.8,3.569,4.3,0,1.375-1.347,1.62-2.3,1.663-.3,0-.608,0-.906.01h-1.186c-2.171-.061-3.727-.634-2.827-4.447l-1.412,5.988c-.267,1.058.207,1.026.474,1.026h1.02l.011-.006h4.835s6.4.4,6.4-5.12A6.411,6.411,0,0,0,165.123,16.762Z" fill="#fff"/>
      <path id="パス_422" data-name="パス 422" d="M152.07,7.094c.266-1.058-.206-1.026-.474-1.026h-7.183s-5.138-.16-5.138,4.605c0,3.695,2.1,4.809,5.138,7.341,2.824,2.353,3.57,2.8,3.57,4.3,0,1.377-1.35,1.62-2.3,1.663-.306,0-.613,0-.913.01H143.6c-2.174-.06-3.731-.632-2.831-4.447l-1.412,5.988c-.268,1.058.206,1.026.473,1.026h1.019l.012-.006h4.834s6.4.4,6.4-5.12a6.406,6.406,0,0,0-2.56-4.67c-3.1-2.5-5.121-4.26-5.121-4.26a2.743,2.743,0,0,1-1.025-2.075c0-1.8,1.85-1.758,2.09-1.758h2.955c1.843.166,3.037.964,2.224,4.413Z" fill="#fff"/>
    </g>
    <g id="グループ_83" data-name="グループ 83">
      <rect id="長方形_9841" data-name="長方形 9841" width="4.097" height="20.484" transform="translate(230.582 6.071)" fill="#fff"/>
      <path id="パス_423" data-name="パス 423" d="M252.856,6.071h-12.8V26.554h4.1V8.632h4.607V26.554h4.1V8.632h0V6.072h0Z" fill="#fff"/>
      <path id="パス_424" data-name="パス 424" d="M224.82,6.071h-12.8V26.555h4.1V16.51h4.608V26.554h4.1V16.51h0V13.95h0V8.632h0V6.071Zm-4.1,7.879h-4.608V8.632h4.608Z" fill="#fff"/>
      <path id="パス_425" data-name="パス 425" d="M190.541,6.071H177.2V8.632h0V23.995h0v2.56H191.31l-3.9-10.044Zm-9.248,17.923V8.632h4.322l-2.553,7.879,2.9,7.484h-4.67Z" fill="#fff"/>
      <path id="パス_426" data-name="パス 426" d="M207.952,6.071H194.607V8.632h0V26.555h4.1V8.632h4.321l-2.553,7.878,3.894,10.045h4.354L204.826,16.51Z" fill="#fff"/>
    </g>
    <g id="グループ_86" data-name="グループ 86">
      <g id="グループ_84" data-name="グループ 84">
        <path id="パス_427" data-name="パス 427" d="M34.253,0C45.779,26.065,8.695,26.476,6.857,26.481h35.5c.2,0,3.447-.083,1.789-3.873Z" fill="url(#linear-gradient)"/>
      </g>
      <g id="グループ_85" data-name="グループ 85">
        <path id="パス_430" data-name="パス 430" d="M37.687,23.374,27.462,0C38.988,26.065,1.9,26.476.066,26.481H42.344A5.28,5.28,0,0,1,37.687,23.374Z" fill="#fff"/>
      </g>
    </g>
  </g>
</svg>
