<svg xmlns="http://www.w3.org/2000/svg" xmlns:xlink="http://www.w3.org/1999/xlink" width="143.126" height="15.037" viewBox="0 0 143.126 15.037">
  <defs>
    <linearGradient id="linear-gradient" x1="0.242" y1="1.345" x2="0.956" y2="0.328" gradientUnits="objectBoundingBox">
      <stop offset="0" stop-color="#20aee5"/>
      <stop offset="0.389" stop-color="#1dace4"/>
      <stop offset="0.554" stop-color="#0aa5df"/>
      <stop offset="0.677" stop-color="#0099d5"/>
      <stop offset="0.778" stop-color="#0089c6"/>
      <stop offset="0.867" stop-color="#0075b5"/>
      <stop offset="0.945" stop-color="#005fa0"/>
      <stop offset="1" stop-color="#004d8f"/>
    </linearGradient>
  </defs>
  <g id="グループ_5892" data-name="グループ 5892" transform="translate(-9.584 -14)">
    <g id="グループ_5835" data-name="グループ 5835" transform="translate(40.436 17.436)">
      <path id="パス_416" data-name="パス 416" d="M54.559,16.176l.326,1.449h6.923v-.054h0V10.529H56.879V7.518h4.929l-.326-1.45H54.559v1.45h0v3.011h0v1.449h4.929v4.2Z" transform="translate(-54.559 -6.068)" fill="#004d8f"/>
      <path id="パス_417" data-name="パス 417" d="M108.469,17.665h4.6l.327-1.449h-4.929v-8.7H113.4l-.327-1.45h-6.922v11.6h2.32Z" transform="translate(-76.939 -6.068)" fill="#004d8f"/>
      <path id="パス_418" data-name="パス 418" d="M130.089,7.518l-.326-1.45h-6.922v1.45h0v3.011h0v1.449h0v4.237h0v1.449h6.922l.326-1.449h-4.928V11.978h4.023l-.327-1.449h-3.7V7.518Z" transform="translate(-84.18 -6.068)" fill="#004d8f"/>
      <path id="パス_419" data-name="パス 419" d="M76.972,17.665h2.319V6.068H76.972V16.216h-2.61V6.068h-2.32v11.6h4.929Z" transform="translate(-62.144 -6.068)" fill="#004d8f"/>
      <path id="パス_420" data-name="パス 420" d="M91.774,17.665h4.6l.326-1.449H91.774v-8.7H96.7l-.326-1.45H89.454v11.6Z" transform="translate(-69.697 -6.068)" fill="#004d8f"/>
      <path id="パス_421" data-name="パス 421" d="M160.673,12.123c-1.755-1.418-2.9-2.412-2.9-2.412a1.553,1.553,0,0,1-.58-1.175c0-1.019,1.047-1,1.183-1h1.673c1.043.094,1.72.546,1.26,2.5l.8-3.39c.151-.6-.118-.581-.268-.581h-4.066s-2.91-.091-2.91,2.607c0,2.092,1.19,2.723,2.91,4.156,1.6,1.332,2.021,1.584,2.021,2.437,0,.779-.763.917-1.3.942-.173,0-.344,0-.513.006h-.671c-1.229-.035-2.11-.359-1.6-2.518l-.8,3.39c-.151.6.117.581.268.581h.578l.006,0H158.5s3.624.228,3.624-2.9A3.63,3.63,0,0,0,160.673,12.123Z" transform="translate(-98.072 -6.067)" fill="#004d8f"/>
      <path id="パス_422" data-name="パス 422" d="M146.519,6.649c.151-.6-.117-.581-.268-.581h-4.067s-2.909-.091-2.909,2.607c0,2.092,1.19,2.723,2.909,4.156,1.6,1.332,2.021,1.584,2.021,2.437,0,.78-.764.917-1.3.942-.173,0-.347,0-.517.006h-.663c-1.231-.034-2.112-.358-1.6-2.518l-.8,3.39c-.152.6.117.581.268.581h.577l.007,0h2.737s3.624.228,3.624-2.9a3.627,3.627,0,0,0-1.449-2.644c-1.755-1.418-2.9-2.412-2.9-2.412a1.553,1.553,0,0,1-.58-1.175c0-1.019,1.047-1,1.183-1h1.673c1.043.094,1.72.546,1.259,2.5Z" transform="translate(-91.31 -6.067)" fill="#004d8f"/>
    </g>
    <g id="グループ_5836" data-name="グループ 5836" transform="translate(109.871 17.437)">
      <rect id="長方形_9841" data-name="長方形 9841" width="2.32" height="11.598" transform="translate(30.227 0)" fill="#004d8f"/>
      <path id="パス_423" data-name="パス 423" d="M247.3,6.071h-7.248v11.6h2.32V7.521h2.608V17.668h2.32V7.521h0V6.072h0Z" transform="translate(-204.464 -6.071)" fill="#004d8f"/>
      <path id="パス_424" data-name="パス 424" d="M219.266,6.071h-7.249v11.6h2.32V11.981h2.609v5.687h2.32V11.981h0V10.532h0V7.521h0V6.071Zm-2.32,4.461h-2.609V7.521h2.609Z" transform="translate(-192.302 -6.071)" fill="#004d8f"/>
      <path id="パス_425" data-name="パス 425" d="M184.752,6.071H177.2v1.45h0v8.7h0v1.449h7.991l-2.205-5.687Zm-5.236,10.148v-8.7h2.447l-1.445,4.461,1.643,4.237h-2.644Z" transform="translate(-177.196 -6.071)" fill="#004d8f"/>
      <path id="パス_426" data-name="パス 426" d="M202.163,6.071h-7.556v1.45h0V17.669h2.32V7.521h2.447l-1.445,4.46,2.2,5.687H202.6l-2.205-5.687Z" transform="translate(-184.749 -6.071)" fill="#004d8f"/>
    </g>
    <g id="グループ_5837" data-name="グループ 5837" transform="translate(9.584 14)">
      <g id="グループ_84" data-name="グループ 84" transform="translate(3.845)">
        <path id="パス_427" data-name="パス 427" d="M22.368,0C28.894,14.758,7.9,14.99,6.857,14.993h20.1c.116,0,1.952-.047,1.013-2.193Z" transform="translate(-6.857)" fill="url(#linear-gradient)"/>
      </g>
      <g id="グループ_85" data-name="グループ 85" transform="translate(0)">
        <path id="パス_430" data-name="パス 430" d="M21.367,13.234,15.577,0C22.1,14.758,1.107,14.99.066,14.993H24A2.989,2.989,0,0,1,21.367,13.234Z" transform="translate(-0.066)" fill="#004d8f"/>
      </g>
    </g>
  </g>
</svg>
